M48
; DRILL file {KiCad 5.1.5+dfsg1-2~bpo10+1} date Mon 17 Feb 2020 17:22:08 CET
; FORMAT={-:-/ absolute / metric / decimal}
; #@! TF.CreationDate,2020-02-17T17:22:08+01:00
; #@! TF.GenerationSoftware,Kicad,Pcbnew,5.1.5+dfsg1-2~bpo10+1
; #@! TF.FileFunction,Plated,1,4,PTH
FMAT,2
METRIC
T1C0.250
T2C0.900
T3C0.920
T4C1.020
T5C2.300
%
G90
G05
T1
X100.363Y-95.525
X100.363Y-96.985
X100.451Y-89.979
X100.49Y-90.953
X104.851Y-90.479
X104.851Y-91.479
X105.189Y-98.509
X105.507Y-94.001
X106.451Y-86.979
X106.451Y-88.779
X107.731Y-109.924
X107.738Y-117.169
X107.951Y-91.179
X110.024Y-119.138
X110.85Y-106.819
X111.04Y-119.138
X111.231Y-109.74
X112.031Y-113.169
X113.351Y-95.579
X113.351Y-98.579
X113.641Y-118.504
X113.834Y-109.041
X115.16Y-113.162
X117.521Y-99.349
X117.574Y-97.811
X117.611Y-94.829
X117.631Y-96.329
X117.962Y-111.772
X118.468Y-111.037
X118.585Y-109.683
X120.576Y-121.524
X121.733Y-111.777
X121.913Y-110.942
X122.216Y-114.82
X123.677Y-114.82
X123.931Y-109.676
X124.312Y-119.519
X127.011Y-108.334
X127.016Y-107.109
X129.891Y-100.999
X129.963Y-108.851
X131.686Y-101.004
X132.221Y-112.003
X132.63Y-107.2
X133.486Y-101.004
X135.353Y-109.959
X142.636Y-105.624
X142.636Y-106.324
X143.047Y-110.871
X143.336Y-105.624
X143.336Y-106.324
X144.511Y-107.959
X144.511Y-108.659
X145.211Y-107.959
X145.211Y-108.659
X147.421Y-114.987
X148.171Y-114.987
X150.579Y-102.552
X151.11Y-102.022
X156.167Y-107.378
X156.698Y-106.848
X165.963Y-114.987
X166.713Y-114.987
X174.032Y-110.121
X176.509Y-110.121
X179.049Y-110.121
X181.652Y-110.121
X183.071Y-107.979
X184.51Y-105.866
X186.669Y-105.803
X188.071Y-107.979
X188.574Y-96.405
X191.622Y-112.915
X192.066Y-113.867
X194.352Y-113.867
X195.271Y-109.279
X196.071Y-101.379
X196.31Y-106.859
X196.575Y-113.867
X199.242Y-96.405
X199.242Y-112.915
T3
X104.011Y-110.979
X104.011Y-113.479
X104.011Y-115.479
X104.011Y-117.979
T4
X150.651Y-118.179
X150.651Y-120.719
X153.191Y-118.179
X153.191Y-120.719
X155.731Y-118.179
X155.731Y-120.719
X158.271Y-118.179
X158.271Y-120.719
X160.811Y-118.179
X160.811Y-120.719
X163.351Y-118.179
X163.351Y-120.719
X173.651Y-118.179
X173.651Y-120.719
X176.191Y-118.179
X176.191Y-120.719
X178.731Y-118.179
X178.731Y-120.719
X181.271Y-118.179
X181.271Y-120.719
X183.811Y-118.179
X183.811Y-120.719
X186.351Y-118.179
X186.351Y-120.719
X127.651Y-118.179
X127.651Y-120.719
X130.191Y-118.179
X130.191Y-120.719
X132.731Y-118.179
X132.731Y-120.719
X135.271Y-118.179
X135.271Y-120.719
X137.811Y-118.179
X137.811Y-120.719
X140.351Y-118.179
X140.351Y-120.719
T5
X101.301Y-107.909
X101.301Y-121.049
T2
G00X95.451Y-87.229
M15
G01X96.651Y-87.229
M16
G05
G00X95.451Y-101.729
M15
G01X96.651Y-101.729
M16
G05
G00X101.151Y-87.229
M15
G01X102.951Y-87.229
M16
G05
G00X101.151Y-101.729
M15
G01X102.951Y-101.729
M16
G05
T0
M30
