G04 #@! TF.GenerationSoftware,KiCad,Pcbnew,5.1.5+dfsg1-2~bpo10+1*
G04 #@! TF.CreationDate,2020-02-13T23:10:00+01:00*
G04 #@! TF.ProjectId,arty-a7-expansion,61727479-2d61-4372-9d65-7870616e7369,rev?*
G04 #@! TF.SameCoordinates,Original*
G04 #@! TF.FileFunction,Copper,L2,Inr*
G04 #@! TF.FilePolarity,Positive*
%FSLAX46Y46*%
G04 Gerber Fmt 4.6, Leading zero omitted, Abs format (unit mm)*
G04 Created by KiCad (PCBNEW 5.1.5+dfsg1-2~bpo10+1) date 2020-02-13 23:10:00*
%MOMM*%
%LPD*%
G04 APERTURE LIST*
%ADD10O,3.300000X1.500000*%
%ADD11O,2.700000X1.500000*%
%ADD12C,2.000000*%
%ADD13C,1.800000*%
%ADD14C,3.300000*%
%ADD15C,0.600000*%
%ADD16C,0.254000*%
G04 APERTURE END LIST*
D10*
X102051241Y-101728709D03*
X102051241Y-87228709D03*
D11*
X96051241Y-87228709D03*
X96051241Y-101728709D03*
D12*
X150651241Y-120718709D03*
X153191241Y-120718709D03*
X155731241Y-120718709D03*
X158271241Y-120718709D03*
X160811241Y-120718709D03*
X163351241Y-120718709D03*
X163351241Y-118178709D03*
X160811241Y-118178709D03*
X158271241Y-118178709D03*
X155731241Y-118178709D03*
X153191241Y-118178709D03*
X150651241Y-118178709D03*
X173651241Y-120718709D03*
X176191241Y-120718709D03*
X178731241Y-120718709D03*
X181271241Y-120718709D03*
X183811241Y-120718709D03*
X186351241Y-120718709D03*
X186351241Y-118178709D03*
X183811241Y-118178709D03*
X181271241Y-118178709D03*
X178731241Y-118178709D03*
X176191241Y-118178709D03*
X173651241Y-118178709D03*
X127651241Y-120718709D03*
X130191241Y-120718709D03*
X132731241Y-120718709D03*
X135271241Y-120718709D03*
X137811241Y-120718709D03*
X140351241Y-120718709D03*
X140351241Y-118178709D03*
X137811241Y-118178709D03*
X135271241Y-118178709D03*
X132731241Y-118178709D03*
X130191241Y-118178709D03*
X127651241Y-118178709D03*
D13*
X104011241Y-117978709D03*
X104011241Y-115478709D03*
X104011241Y-113478709D03*
X104011241Y-110978709D03*
D14*
X101301241Y-121048709D03*
X101301241Y-107908709D03*
D15*
X117611241Y-94828709D03*
X117631241Y-96328709D03*
X199241741Y-112914709D03*
X199241741Y-96404709D03*
X188573741Y-96404709D03*
X184509741Y-105866209D03*
X191621741Y-112914709D03*
X120565241Y-122249209D03*
X135360741Y-100976709D03*
X133519241Y-100976709D03*
X110024241Y-119137709D03*
X107738241Y-117169209D03*
X107738241Y-109168209D03*
X112691241Y-117994709D03*
X132630241Y-107199709D03*
X137202241Y-113295709D03*
X135106741Y-113168729D03*
X123676741Y-114819709D03*
X111230741Y-109739709D03*
X110849741Y-106818709D03*
X105189241Y-98509209D03*
X100363241Y-96985209D03*
X100363241Y-95524709D03*
X105506741Y-94000709D03*
X100490241Y-90952709D03*
X196310500Y-106859000D03*
X132221241Y-112002709D03*
X117521241Y-99348709D03*
X117574212Y-97810702D03*
X156697666Y-106847834D03*
X156167334Y-107378166D03*
X150579334Y-102552166D03*
X151109666Y-102021834D03*
X165963500Y-114987000D03*
X166713500Y-114987000D03*
X147421500Y-114987000D03*
X148171500Y-114987000D03*
X196071241Y-101378709D03*
X195271241Y-109278709D03*
X196574741Y-113867209D03*
X194352241Y-113867209D03*
X192066241Y-113867209D03*
X181652241Y-110120709D03*
X176508741Y-110120709D03*
X174032241Y-110120709D03*
X179048741Y-110120709D03*
X186668741Y-105802709D03*
X112183241Y-113359209D03*
X111040241Y-119137709D03*
X138853241Y-110819209D03*
X127042241Y-107326709D03*
X122216241Y-114819709D03*
X113351241Y-98578709D03*
X113351241Y-95578709D03*
X188071241Y-107978709D03*
X183071241Y-107978709D03*
X135614741Y-109803209D03*
X129963241Y-108850709D03*
X118585485Y-109683185D03*
X123930741Y-109676209D03*
X118468230Y-111036978D03*
X121913254Y-110942472D03*
X117961741Y-111771709D03*
X121733067Y-111777259D03*
X113834241Y-109041209D03*
X124311741Y-119518709D03*
X115159809Y-113161526D03*
X104851241Y-91478709D03*
X107951241Y-91178709D03*
X104851241Y-90478709D03*
X106451241Y-88778709D03*
X100451241Y-89978709D03*
X106451241Y-86978709D03*
D16*
G36*
X199816241Y-123743709D02*
G01*
X91886241Y-123743709D01*
X91886241Y-122647144D01*
X99882411Y-122647144D01*
X100056464Y-122978063D01*
X100456781Y-123183834D01*
X100889549Y-123307555D01*
X101338139Y-123344468D01*
X101785311Y-123293158D01*
X102213880Y-123155594D01*
X102546018Y-122978063D01*
X102720071Y-122647144D01*
X101301241Y-121228314D01*
X99882411Y-122647144D01*
X91886241Y-122647144D01*
X91886241Y-121085607D01*
X99005482Y-121085607D01*
X99056792Y-121532779D01*
X99194356Y-121961348D01*
X99371887Y-122293486D01*
X99702806Y-122467539D01*
X101121636Y-121048709D01*
X101480846Y-121048709D01*
X102899676Y-122467539D01*
X103230595Y-122293486D01*
X103436366Y-121893169D01*
X103560087Y-121460401D01*
X103597000Y-121011811D01*
X103545690Y-120564639D01*
X103408126Y-120136070D01*
X103230595Y-119803932D01*
X102899676Y-119629879D01*
X101480846Y-121048709D01*
X101121636Y-121048709D01*
X99702806Y-119629879D01*
X99371887Y-119803932D01*
X99166116Y-120204249D01*
X99042395Y-120637017D01*
X99005482Y-121085607D01*
X91886241Y-121085607D01*
X91886241Y-119450274D01*
X99882411Y-119450274D01*
X101301241Y-120869104D01*
X102720071Y-119450274D01*
X102546018Y-119119355D01*
X102397063Y-119042789D01*
X103126766Y-119042789D01*
X103210449Y-119296970D01*
X103483016Y-119427867D01*
X103775883Y-119503074D01*
X104077794Y-119519700D01*
X104377148Y-119477106D01*
X104662440Y-119376931D01*
X104812033Y-119296970D01*
X104894783Y-119045620D01*
X110105241Y-119045620D01*
X110105241Y-119229798D01*
X110141173Y-119410438D01*
X110211655Y-119580598D01*
X110313979Y-119733737D01*
X110444213Y-119863971D01*
X110597352Y-119966295D01*
X110767512Y-120036777D01*
X110948152Y-120072709D01*
X111132330Y-120072709D01*
X111312970Y-120036777D01*
X111483130Y-119966295D01*
X111636269Y-119863971D01*
X111766503Y-119733737D01*
X111868827Y-119580598D01*
X111932606Y-119426620D01*
X123376741Y-119426620D01*
X123376741Y-119610798D01*
X123412673Y-119791438D01*
X123483155Y-119961598D01*
X123585479Y-120114737D01*
X123715713Y-120244971D01*
X123868852Y-120347295D01*
X124039012Y-120417777D01*
X124219652Y-120453709D01*
X124403830Y-120453709D01*
X124584470Y-120417777D01*
X124754630Y-120347295D01*
X124907769Y-120244971D01*
X125038003Y-120114737D01*
X125140327Y-119961598D01*
X125210809Y-119791438D01*
X125246741Y-119610798D01*
X125246741Y-119426620D01*
X125210809Y-119245980D01*
X125140327Y-119075820D01*
X125038003Y-118922681D01*
X124907769Y-118792447D01*
X124754630Y-118690123D01*
X124584470Y-118619641D01*
X124403830Y-118583709D01*
X124219652Y-118583709D01*
X124039012Y-118619641D01*
X123868852Y-118690123D01*
X123715713Y-118792447D01*
X123585479Y-118922681D01*
X123483155Y-119075820D01*
X123412673Y-119245980D01*
X123376741Y-119426620D01*
X111932606Y-119426620D01*
X111939309Y-119410438D01*
X111975241Y-119229798D01*
X111975241Y-119045620D01*
X111939309Y-118864980D01*
X111868827Y-118694820D01*
X111766503Y-118541681D01*
X111636269Y-118411447D01*
X111483130Y-118309123D01*
X111312970Y-118238641D01*
X111132330Y-118202709D01*
X110948152Y-118202709D01*
X110767512Y-118238641D01*
X110597352Y-118309123D01*
X110444213Y-118411447D01*
X110313979Y-118541681D01*
X110211655Y-118694820D01*
X110141173Y-118864980D01*
X110105241Y-119045620D01*
X104894783Y-119045620D01*
X104895716Y-119042789D01*
X104011241Y-118158314D01*
X103126766Y-119042789D01*
X102397063Y-119042789D01*
X102145701Y-118913584D01*
X101712933Y-118789863D01*
X101264343Y-118752950D01*
X100817171Y-118804260D01*
X100388602Y-118941824D01*
X100056464Y-119119355D01*
X99882411Y-119450274D01*
X91886241Y-119450274D01*
X91886241Y-118045262D01*
X102470250Y-118045262D01*
X102512844Y-118344616D01*
X102613019Y-118629908D01*
X102692980Y-118779501D01*
X102947161Y-118863184D01*
X103831636Y-117978709D01*
X104190846Y-117978709D01*
X105075321Y-118863184D01*
X105329502Y-118779501D01*
X105460399Y-118506934D01*
X105535606Y-118214067D01*
X105546421Y-118017676D01*
X126016241Y-118017676D01*
X126016241Y-118339742D01*
X126079073Y-118655621D01*
X126202323Y-118953172D01*
X126381254Y-119220961D01*
X126608989Y-119448696D01*
X126609008Y-119448709D01*
X126608989Y-119448722D01*
X126381254Y-119676457D01*
X126202323Y-119944246D01*
X126079073Y-120241797D01*
X126016241Y-120557676D01*
X126016241Y-120879742D01*
X126079073Y-121195621D01*
X126202323Y-121493172D01*
X126381254Y-121760961D01*
X126608989Y-121988696D01*
X126876778Y-122167627D01*
X127174329Y-122290877D01*
X127490208Y-122353709D01*
X127812274Y-122353709D01*
X128128153Y-122290877D01*
X128425704Y-122167627D01*
X128693493Y-121988696D01*
X128921228Y-121760961D01*
X128921241Y-121760942D01*
X128921254Y-121760961D01*
X129148989Y-121988696D01*
X129416778Y-122167627D01*
X129714329Y-122290877D01*
X130030208Y-122353709D01*
X130352274Y-122353709D01*
X130668153Y-122290877D01*
X130965704Y-122167627D01*
X131233493Y-121988696D01*
X131461228Y-121760961D01*
X131461241Y-121760942D01*
X131461254Y-121760961D01*
X131688989Y-121988696D01*
X131956778Y-122167627D01*
X132254329Y-122290877D01*
X132570208Y-122353709D01*
X132892274Y-122353709D01*
X133208153Y-122290877D01*
X133505704Y-122167627D01*
X133773493Y-121988696D01*
X134001228Y-121760961D01*
X134001241Y-121760942D01*
X134001254Y-121760961D01*
X134228989Y-121988696D01*
X134496778Y-122167627D01*
X134794329Y-122290877D01*
X135110208Y-122353709D01*
X135432274Y-122353709D01*
X135748153Y-122290877D01*
X136045704Y-122167627D01*
X136313493Y-121988696D01*
X136448067Y-121854122D01*
X136855433Y-121854122D01*
X136951197Y-122118523D01*
X137240812Y-122259413D01*
X137552349Y-122341093D01*
X137873836Y-122360427D01*
X138192916Y-122316670D01*
X138497329Y-122211504D01*
X138671285Y-122118523D01*
X138767049Y-121854122D01*
X137811241Y-120898314D01*
X136855433Y-121854122D01*
X136448067Y-121854122D01*
X136541228Y-121760961D01*
X136613961Y-121652109D01*
X136675828Y-121674517D01*
X137631636Y-120718709D01*
X136675828Y-119762901D01*
X136613961Y-119785309D01*
X136541228Y-119676457D01*
X136313493Y-119448722D01*
X136313474Y-119448709D01*
X136313493Y-119448696D01*
X136448067Y-119314122D01*
X136855433Y-119314122D01*
X136904179Y-119448709D01*
X136855433Y-119583296D01*
X137811241Y-120539104D01*
X138767049Y-119583296D01*
X138718303Y-119448709D01*
X138767049Y-119314122D01*
X137811241Y-118358314D01*
X136855433Y-119314122D01*
X136448067Y-119314122D01*
X136541228Y-119220961D01*
X136613961Y-119112109D01*
X136675828Y-119134517D01*
X137631636Y-118178709D01*
X137990846Y-118178709D01*
X138946654Y-119134517D01*
X139008521Y-119112109D01*
X139081254Y-119220961D01*
X139308989Y-119448696D01*
X139309008Y-119448709D01*
X139308989Y-119448722D01*
X139081254Y-119676457D01*
X139008521Y-119785309D01*
X138946654Y-119762901D01*
X137990846Y-120718709D01*
X138946654Y-121674517D01*
X139008521Y-121652109D01*
X139081254Y-121760961D01*
X139308989Y-121988696D01*
X139576778Y-122167627D01*
X139874329Y-122290877D01*
X140190208Y-122353709D01*
X140512274Y-122353709D01*
X140828153Y-122290877D01*
X141125704Y-122167627D01*
X141393493Y-121988696D01*
X141621228Y-121760961D01*
X141800159Y-121493172D01*
X141923409Y-121195621D01*
X141986241Y-120879742D01*
X141986241Y-120557676D01*
X141923409Y-120241797D01*
X141800159Y-119944246D01*
X141621228Y-119676457D01*
X141393493Y-119448722D01*
X141393474Y-119448709D01*
X141393493Y-119448696D01*
X141621228Y-119220961D01*
X141800159Y-118953172D01*
X141923409Y-118655621D01*
X141986241Y-118339742D01*
X141986241Y-118017676D01*
X149016241Y-118017676D01*
X149016241Y-118339742D01*
X149079073Y-118655621D01*
X149202323Y-118953172D01*
X149381254Y-119220961D01*
X149608989Y-119448696D01*
X149609008Y-119448709D01*
X149608989Y-119448722D01*
X149381254Y-119676457D01*
X149202323Y-119944246D01*
X149079073Y-120241797D01*
X149016241Y-120557676D01*
X149016241Y-120879742D01*
X149079073Y-121195621D01*
X149202323Y-121493172D01*
X149381254Y-121760961D01*
X149608989Y-121988696D01*
X149876778Y-122167627D01*
X150174329Y-122290877D01*
X150490208Y-122353709D01*
X150812274Y-122353709D01*
X151128153Y-122290877D01*
X151425704Y-122167627D01*
X151693493Y-121988696D01*
X151921228Y-121760961D01*
X151921241Y-121760942D01*
X151921254Y-121760961D01*
X152148989Y-121988696D01*
X152416778Y-122167627D01*
X152714329Y-122290877D01*
X153030208Y-122353709D01*
X153352274Y-122353709D01*
X153668153Y-122290877D01*
X153965704Y-122167627D01*
X154233493Y-121988696D01*
X154461228Y-121760961D01*
X154461241Y-121760942D01*
X154461254Y-121760961D01*
X154688989Y-121988696D01*
X154956778Y-122167627D01*
X155254329Y-122290877D01*
X155570208Y-122353709D01*
X155892274Y-122353709D01*
X156208153Y-122290877D01*
X156505704Y-122167627D01*
X156773493Y-121988696D01*
X157001228Y-121760961D01*
X157001241Y-121760942D01*
X157001254Y-121760961D01*
X157228989Y-121988696D01*
X157496778Y-122167627D01*
X157794329Y-122290877D01*
X158110208Y-122353709D01*
X158432274Y-122353709D01*
X158748153Y-122290877D01*
X159045704Y-122167627D01*
X159313493Y-121988696D01*
X159448067Y-121854122D01*
X159855433Y-121854122D01*
X159951197Y-122118523D01*
X160240812Y-122259413D01*
X160552349Y-122341093D01*
X160873836Y-122360427D01*
X161192916Y-122316670D01*
X161497329Y-122211504D01*
X161671285Y-122118523D01*
X161767049Y-121854122D01*
X160811241Y-120898314D01*
X159855433Y-121854122D01*
X159448067Y-121854122D01*
X159541228Y-121760961D01*
X159613961Y-121652109D01*
X159675828Y-121674517D01*
X160631636Y-120718709D01*
X159675828Y-119762901D01*
X159613961Y-119785309D01*
X159541228Y-119676457D01*
X159313493Y-119448722D01*
X159313474Y-119448709D01*
X159313493Y-119448696D01*
X159448067Y-119314122D01*
X159855433Y-119314122D01*
X159904179Y-119448709D01*
X159855433Y-119583296D01*
X160811241Y-120539104D01*
X161767049Y-119583296D01*
X161718303Y-119448709D01*
X161767049Y-119314122D01*
X160811241Y-118358314D01*
X159855433Y-119314122D01*
X159448067Y-119314122D01*
X159541228Y-119220961D01*
X159613961Y-119112109D01*
X159675828Y-119134517D01*
X160631636Y-118178709D01*
X160990846Y-118178709D01*
X161946654Y-119134517D01*
X162008521Y-119112109D01*
X162081254Y-119220961D01*
X162308989Y-119448696D01*
X162309008Y-119448709D01*
X162308989Y-119448722D01*
X162081254Y-119676457D01*
X162008521Y-119785309D01*
X161946654Y-119762901D01*
X160990846Y-120718709D01*
X161946654Y-121674517D01*
X162008521Y-121652109D01*
X162081254Y-121760961D01*
X162308989Y-121988696D01*
X162576778Y-122167627D01*
X162874329Y-122290877D01*
X163190208Y-122353709D01*
X163512274Y-122353709D01*
X163828153Y-122290877D01*
X164125704Y-122167627D01*
X164393493Y-121988696D01*
X164621228Y-121760961D01*
X164800159Y-121493172D01*
X164923409Y-121195621D01*
X164986241Y-120879742D01*
X164986241Y-120557676D01*
X164923409Y-120241797D01*
X164800159Y-119944246D01*
X164621228Y-119676457D01*
X164393493Y-119448722D01*
X164393474Y-119448709D01*
X164393493Y-119448696D01*
X164621228Y-119220961D01*
X164800159Y-118953172D01*
X164923409Y-118655621D01*
X164986241Y-118339742D01*
X164986241Y-118017676D01*
X172016241Y-118017676D01*
X172016241Y-118339742D01*
X172079073Y-118655621D01*
X172202323Y-118953172D01*
X172381254Y-119220961D01*
X172608989Y-119448696D01*
X172609008Y-119448709D01*
X172608989Y-119448722D01*
X172381254Y-119676457D01*
X172202323Y-119944246D01*
X172079073Y-120241797D01*
X172016241Y-120557676D01*
X172016241Y-120879742D01*
X172079073Y-121195621D01*
X172202323Y-121493172D01*
X172381254Y-121760961D01*
X172608989Y-121988696D01*
X172876778Y-122167627D01*
X173174329Y-122290877D01*
X173490208Y-122353709D01*
X173812274Y-122353709D01*
X174128153Y-122290877D01*
X174425704Y-122167627D01*
X174693493Y-121988696D01*
X174921228Y-121760961D01*
X174921241Y-121760942D01*
X174921254Y-121760961D01*
X175148989Y-121988696D01*
X175416778Y-122167627D01*
X175714329Y-122290877D01*
X176030208Y-122353709D01*
X176352274Y-122353709D01*
X176668153Y-122290877D01*
X176965704Y-122167627D01*
X177233493Y-121988696D01*
X177461228Y-121760961D01*
X177461241Y-121760942D01*
X177461254Y-121760961D01*
X177688989Y-121988696D01*
X177956778Y-122167627D01*
X178254329Y-122290877D01*
X178570208Y-122353709D01*
X178892274Y-122353709D01*
X179208153Y-122290877D01*
X179505704Y-122167627D01*
X179773493Y-121988696D01*
X180001228Y-121760961D01*
X180001241Y-121760942D01*
X180001254Y-121760961D01*
X180228989Y-121988696D01*
X180496778Y-122167627D01*
X180794329Y-122290877D01*
X181110208Y-122353709D01*
X181432274Y-122353709D01*
X181748153Y-122290877D01*
X182045704Y-122167627D01*
X182313493Y-121988696D01*
X182448067Y-121854122D01*
X182855433Y-121854122D01*
X182951197Y-122118523D01*
X183240812Y-122259413D01*
X183552349Y-122341093D01*
X183873836Y-122360427D01*
X184192916Y-122316670D01*
X184497329Y-122211504D01*
X184671285Y-122118523D01*
X184767049Y-121854122D01*
X183811241Y-120898314D01*
X182855433Y-121854122D01*
X182448067Y-121854122D01*
X182541228Y-121760961D01*
X182613961Y-121652109D01*
X182675828Y-121674517D01*
X183631636Y-120718709D01*
X182675828Y-119762901D01*
X182613961Y-119785309D01*
X182541228Y-119676457D01*
X182313493Y-119448722D01*
X182313474Y-119448709D01*
X182313493Y-119448696D01*
X182448067Y-119314122D01*
X182855433Y-119314122D01*
X182904179Y-119448709D01*
X182855433Y-119583296D01*
X183811241Y-120539104D01*
X184767049Y-119583296D01*
X184718303Y-119448709D01*
X184767049Y-119314122D01*
X183811241Y-118358314D01*
X182855433Y-119314122D01*
X182448067Y-119314122D01*
X182541228Y-119220961D01*
X182613961Y-119112109D01*
X182675828Y-119134517D01*
X183631636Y-118178709D01*
X183990846Y-118178709D01*
X184946654Y-119134517D01*
X185008521Y-119112109D01*
X185081254Y-119220961D01*
X185308989Y-119448696D01*
X185309008Y-119448709D01*
X185308989Y-119448722D01*
X185081254Y-119676457D01*
X185008521Y-119785309D01*
X184946654Y-119762901D01*
X183990846Y-120718709D01*
X184946654Y-121674517D01*
X185008521Y-121652109D01*
X185081254Y-121760961D01*
X185308989Y-121988696D01*
X185576778Y-122167627D01*
X185874329Y-122290877D01*
X186190208Y-122353709D01*
X186512274Y-122353709D01*
X186828153Y-122290877D01*
X187125704Y-122167627D01*
X187393493Y-121988696D01*
X187621228Y-121760961D01*
X187800159Y-121493172D01*
X187923409Y-121195621D01*
X187986241Y-120879742D01*
X187986241Y-120557676D01*
X187923409Y-120241797D01*
X187800159Y-119944246D01*
X187621228Y-119676457D01*
X187393493Y-119448722D01*
X187393474Y-119448709D01*
X187393493Y-119448696D01*
X187621228Y-119220961D01*
X187800159Y-118953172D01*
X187923409Y-118655621D01*
X187986241Y-118339742D01*
X187986241Y-118017676D01*
X187923409Y-117701797D01*
X187800159Y-117404246D01*
X187621228Y-117136457D01*
X187393493Y-116908722D01*
X187125704Y-116729791D01*
X186828153Y-116606541D01*
X186512274Y-116543709D01*
X186190208Y-116543709D01*
X185874329Y-116606541D01*
X185576778Y-116729791D01*
X185308989Y-116908722D01*
X185081254Y-117136457D01*
X185008521Y-117245309D01*
X184946654Y-117222901D01*
X183990846Y-118178709D01*
X183631636Y-118178709D01*
X182675828Y-117222901D01*
X182613961Y-117245309D01*
X182541228Y-117136457D01*
X182448067Y-117043296D01*
X182855433Y-117043296D01*
X183811241Y-117999104D01*
X184767049Y-117043296D01*
X184671285Y-116778895D01*
X184381670Y-116638005D01*
X184070133Y-116556325D01*
X183748646Y-116536991D01*
X183429566Y-116580748D01*
X183125153Y-116685914D01*
X182951197Y-116778895D01*
X182855433Y-117043296D01*
X182448067Y-117043296D01*
X182313493Y-116908722D01*
X182045704Y-116729791D01*
X181748153Y-116606541D01*
X181432274Y-116543709D01*
X181110208Y-116543709D01*
X180794329Y-116606541D01*
X180496778Y-116729791D01*
X180228989Y-116908722D01*
X180001254Y-117136457D01*
X180001241Y-117136476D01*
X180001228Y-117136457D01*
X179773493Y-116908722D01*
X179505704Y-116729791D01*
X179208153Y-116606541D01*
X178892274Y-116543709D01*
X178570208Y-116543709D01*
X178254329Y-116606541D01*
X177956778Y-116729791D01*
X177688989Y-116908722D01*
X177461254Y-117136457D01*
X177461241Y-117136476D01*
X177461228Y-117136457D01*
X177233493Y-116908722D01*
X176965704Y-116729791D01*
X176668153Y-116606541D01*
X176352274Y-116543709D01*
X176030208Y-116543709D01*
X175714329Y-116606541D01*
X175416778Y-116729791D01*
X175148989Y-116908722D01*
X174921254Y-117136457D01*
X174921241Y-117136476D01*
X174921228Y-117136457D01*
X174693493Y-116908722D01*
X174425704Y-116729791D01*
X174128153Y-116606541D01*
X173812274Y-116543709D01*
X173490208Y-116543709D01*
X173174329Y-116606541D01*
X172876778Y-116729791D01*
X172608989Y-116908722D01*
X172381254Y-117136457D01*
X172202323Y-117404246D01*
X172079073Y-117701797D01*
X172016241Y-118017676D01*
X164986241Y-118017676D01*
X164923409Y-117701797D01*
X164800159Y-117404246D01*
X164621228Y-117136457D01*
X164393493Y-116908722D01*
X164125704Y-116729791D01*
X163828153Y-116606541D01*
X163512274Y-116543709D01*
X163190208Y-116543709D01*
X162874329Y-116606541D01*
X162576778Y-116729791D01*
X162308989Y-116908722D01*
X162081254Y-117136457D01*
X162008521Y-117245309D01*
X161946654Y-117222901D01*
X160990846Y-118178709D01*
X160631636Y-118178709D01*
X159675828Y-117222901D01*
X159613961Y-117245309D01*
X159541228Y-117136457D01*
X159448067Y-117043296D01*
X159855433Y-117043296D01*
X160811241Y-117999104D01*
X161767049Y-117043296D01*
X161671285Y-116778895D01*
X161381670Y-116638005D01*
X161070133Y-116556325D01*
X160748646Y-116536991D01*
X160429566Y-116580748D01*
X160125153Y-116685914D01*
X159951197Y-116778895D01*
X159855433Y-117043296D01*
X159448067Y-117043296D01*
X159313493Y-116908722D01*
X159045704Y-116729791D01*
X158748153Y-116606541D01*
X158432274Y-116543709D01*
X158110208Y-116543709D01*
X157794329Y-116606541D01*
X157496778Y-116729791D01*
X157228989Y-116908722D01*
X157001254Y-117136457D01*
X157001241Y-117136476D01*
X157001228Y-117136457D01*
X156773493Y-116908722D01*
X156505704Y-116729791D01*
X156208153Y-116606541D01*
X155892274Y-116543709D01*
X155570208Y-116543709D01*
X155254329Y-116606541D01*
X154956778Y-116729791D01*
X154688989Y-116908722D01*
X154461254Y-117136457D01*
X154461241Y-117136476D01*
X154461228Y-117136457D01*
X154233493Y-116908722D01*
X153965704Y-116729791D01*
X153668153Y-116606541D01*
X153352274Y-116543709D01*
X153030208Y-116543709D01*
X152714329Y-116606541D01*
X152416778Y-116729791D01*
X152148989Y-116908722D01*
X151921254Y-117136457D01*
X151921241Y-117136476D01*
X151921228Y-117136457D01*
X151693493Y-116908722D01*
X151425704Y-116729791D01*
X151128153Y-116606541D01*
X150812274Y-116543709D01*
X150490208Y-116543709D01*
X150174329Y-116606541D01*
X149876778Y-116729791D01*
X149608989Y-116908722D01*
X149381254Y-117136457D01*
X149202323Y-117404246D01*
X149079073Y-117701797D01*
X149016241Y-118017676D01*
X141986241Y-118017676D01*
X141923409Y-117701797D01*
X141800159Y-117404246D01*
X141621228Y-117136457D01*
X141393493Y-116908722D01*
X141125704Y-116729791D01*
X140828153Y-116606541D01*
X140512274Y-116543709D01*
X140190208Y-116543709D01*
X139874329Y-116606541D01*
X139576778Y-116729791D01*
X139308989Y-116908722D01*
X139081254Y-117136457D01*
X139008521Y-117245309D01*
X138946654Y-117222901D01*
X137990846Y-118178709D01*
X137631636Y-118178709D01*
X136675828Y-117222901D01*
X136613961Y-117245309D01*
X136541228Y-117136457D01*
X136448067Y-117043296D01*
X136855433Y-117043296D01*
X137811241Y-117999104D01*
X138767049Y-117043296D01*
X138671285Y-116778895D01*
X138381670Y-116638005D01*
X138070133Y-116556325D01*
X137748646Y-116536991D01*
X137429566Y-116580748D01*
X137125153Y-116685914D01*
X136951197Y-116778895D01*
X136855433Y-117043296D01*
X136448067Y-117043296D01*
X136313493Y-116908722D01*
X136045704Y-116729791D01*
X135748153Y-116606541D01*
X135432274Y-116543709D01*
X135110208Y-116543709D01*
X134794329Y-116606541D01*
X134496778Y-116729791D01*
X134228989Y-116908722D01*
X134001254Y-117136457D01*
X134001241Y-117136476D01*
X134001228Y-117136457D01*
X133773493Y-116908722D01*
X133505704Y-116729791D01*
X133208153Y-116606541D01*
X132892274Y-116543709D01*
X132570208Y-116543709D01*
X132254329Y-116606541D01*
X131956778Y-116729791D01*
X131688989Y-116908722D01*
X131461254Y-117136457D01*
X131461241Y-117136476D01*
X131461228Y-117136457D01*
X131233493Y-116908722D01*
X130965704Y-116729791D01*
X130668153Y-116606541D01*
X130352274Y-116543709D01*
X130030208Y-116543709D01*
X129714329Y-116606541D01*
X129416778Y-116729791D01*
X129148989Y-116908722D01*
X128921254Y-117136457D01*
X128921241Y-117136476D01*
X128921228Y-117136457D01*
X128693493Y-116908722D01*
X128425704Y-116729791D01*
X128128153Y-116606541D01*
X127812274Y-116543709D01*
X127490208Y-116543709D01*
X127174329Y-116606541D01*
X126876778Y-116729791D01*
X126608989Y-116908722D01*
X126381254Y-117136457D01*
X126202323Y-117404246D01*
X126079073Y-117701797D01*
X126016241Y-118017676D01*
X105546421Y-118017676D01*
X105552232Y-117912156D01*
X105509638Y-117612802D01*
X105409463Y-117327510D01*
X105329502Y-117177917D01*
X105075321Y-117094234D01*
X104190846Y-117978709D01*
X103831636Y-117978709D01*
X102947161Y-117094234D01*
X102692980Y-117177917D01*
X102562083Y-117450484D01*
X102486876Y-117743351D01*
X102470250Y-118045262D01*
X91886241Y-118045262D01*
X91886241Y-110827525D01*
X102476241Y-110827525D01*
X102476241Y-111129893D01*
X102535230Y-111426452D01*
X102650942Y-111705804D01*
X102818929Y-111957214D01*
X103032736Y-112171021D01*
X103119072Y-112228709D01*
X103032736Y-112286397D01*
X102818929Y-112500204D01*
X102650942Y-112751614D01*
X102535230Y-113030966D01*
X102476241Y-113327525D01*
X102476241Y-113629893D01*
X102535230Y-113926452D01*
X102650942Y-114205804D01*
X102818929Y-114457214D01*
X102840424Y-114478709D01*
X102818929Y-114500204D01*
X102650942Y-114751614D01*
X102535230Y-115030966D01*
X102476241Y-115327525D01*
X102476241Y-115629893D01*
X102535230Y-115926452D01*
X102650942Y-116205804D01*
X102818929Y-116457214D01*
X103032736Y-116671021D01*
X103175551Y-116766447D01*
X103126766Y-116914629D01*
X104011241Y-117799104D01*
X104895716Y-116914629D01*
X104846931Y-116766447D01*
X104989746Y-116671021D01*
X105203553Y-116457214D01*
X105371540Y-116205804D01*
X105487252Y-115926452D01*
X105546241Y-115629893D01*
X105546241Y-115327525D01*
X105487252Y-115030966D01*
X105371540Y-114751614D01*
X105355508Y-114727620D01*
X121281241Y-114727620D01*
X121281241Y-114911798D01*
X121317173Y-115092438D01*
X121387655Y-115262598D01*
X121489979Y-115415737D01*
X121620213Y-115545971D01*
X121773352Y-115648295D01*
X121943512Y-115718777D01*
X122124152Y-115754709D01*
X122308330Y-115754709D01*
X122488970Y-115718777D01*
X122659130Y-115648295D01*
X122812269Y-115545971D01*
X122942503Y-115415737D01*
X123044827Y-115262598D01*
X123115309Y-115092438D01*
X123151241Y-114911798D01*
X123151241Y-114894911D01*
X146486500Y-114894911D01*
X146486500Y-115079089D01*
X146522432Y-115259729D01*
X146592914Y-115429889D01*
X146695238Y-115583028D01*
X146825472Y-115713262D01*
X146978611Y-115815586D01*
X147148771Y-115886068D01*
X147329411Y-115922000D01*
X147513589Y-115922000D01*
X147694229Y-115886068D01*
X147796500Y-115843706D01*
X147898771Y-115886068D01*
X148079411Y-115922000D01*
X148263589Y-115922000D01*
X148444229Y-115886068D01*
X148614389Y-115815586D01*
X148767528Y-115713262D01*
X148897762Y-115583028D01*
X149000086Y-115429889D01*
X149070568Y-115259729D01*
X149106500Y-115079089D01*
X149106500Y-114894911D01*
X165028500Y-114894911D01*
X165028500Y-115079089D01*
X165064432Y-115259729D01*
X165134914Y-115429889D01*
X165237238Y-115583028D01*
X165367472Y-115713262D01*
X165520611Y-115815586D01*
X165690771Y-115886068D01*
X165871411Y-115922000D01*
X166055589Y-115922000D01*
X166236229Y-115886068D01*
X166338500Y-115843706D01*
X166440771Y-115886068D01*
X166621411Y-115922000D01*
X166805589Y-115922000D01*
X166986229Y-115886068D01*
X167156389Y-115815586D01*
X167309528Y-115713262D01*
X167439762Y-115583028D01*
X167542086Y-115429889D01*
X167612568Y-115259729D01*
X167648500Y-115079089D01*
X167648500Y-114894911D01*
X167612568Y-114714271D01*
X167542086Y-114544111D01*
X167439762Y-114390972D01*
X167309528Y-114260738D01*
X167156389Y-114158414D01*
X166986229Y-114087932D01*
X166805589Y-114052000D01*
X166621411Y-114052000D01*
X166440771Y-114087932D01*
X166338500Y-114130294D01*
X166236229Y-114087932D01*
X166055589Y-114052000D01*
X165871411Y-114052000D01*
X165690771Y-114087932D01*
X165520611Y-114158414D01*
X165367472Y-114260738D01*
X165237238Y-114390972D01*
X165134914Y-114544111D01*
X165064432Y-114714271D01*
X165028500Y-114894911D01*
X149106500Y-114894911D01*
X149070568Y-114714271D01*
X149000086Y-114544111D01*
X148897762Y-114390972D01*
X148767528Y-114260738D01*
X148614389Y-114158414D01*
X148444229Y-114087932D01*
X148263589Y-114052000D01*
X148079411Y-114052000D01*
X147898771Y-114087932D01*
X147796500Y-114130294D01*
X147694229Y-114087932D01*
X147513589Y-114052000D01*
X147329411Y-114052000D01*
X147148771Y-114087932D01*
X146978611Y-114158414D01*
X146825472Y-114260738D01*
X146695238Y-114390972D01*
X146592914Y-114544111D01*
X146522432Y-114714271D01*
X146486500Y-114894911D01*
X123151241Y-114894911D01*
X123151241Y-114727620D01*
X123115309Y-114546980D01*
X123044827Y-114376820D01*
X122942503Y-114223681D01*
X122812269Y-114093447D01*
X122659130Y-113991123D01*
X122488970Y-113920641D01*
X122308330Y-113884709D01*
X122124152Y-113884709D01*
X121943512Y-113920641D01*
X121773352Y-113991123D01*
X121620213Y-114093447D01*
X121489979Y-114223681D01*
X121387655Y-114376820D01*
X121317173Y-114546980D01*
X121281241Y-114727620D01*
X105355508Y-114727620D01*
X105203553Y-114500204D01*
X105182058Y-114478709D01*
X105203553Y-114457214D01*
X105371540Y-114205804D01*
X105487252Y-113926452D01*
X105546241Y-113629893D01*
X105546241Y-113327525D01*
X105534226Y-113267120D01*
X111248241Y-113267120D01*
X111248241Y-113451298D01*
X111284173Y-113631938D01*
X111354655Y-113802098D01*
X111456979Y-113955237D01*
X111587213Y-114085471D01*
X111740352Y-114187795D01*
X111910512Y-114258277D01*
X112091152Y-114294209D01*
X112275330Y-114294209D01*
X112455970Y-114258277D01*
X112626130Y-114187795D01*
X112779269Y-114085471D01*
X112909503Y-113955237D01*
X113011827Y-113802098D01*
X113082309Y-113631938D01*
X113118241Y-113451298D01*
X113118241Y-113267120D01*
X113082309Y-113086480D01*
X113075250Y-113069437D01*
X114224809Y-113069437D01*
X114224809Y-113253615D01*
X114260741Y-113434255D01*
X114331223Y-113604415D01*
X114433547Y-113757554D01*
X114563781Y-113887788D01*
X114716920Y-113990112D01*
X114887080Y-114060594D01*
X115067720Y-114096526D01*
X115251898Y-114096526D01*
X115432538Y-114060594D01*
X115602698Y-113990112D01*
X115755837Y-113887788D01*
X115868505Y-113775120D01*
X191131241Y-113775120D01*
X191131241Y-113959298D01*
X191167173Y-114139938D01*
X191237655Y-114310098D01*
X191339979Y-114463237D01*
X191470213Y-114593471D01*
X191623352Y-114695795D01*
X191793512Y-114766277D01*
X191974152Y-114802209D01*
X192158330Y-114802209D01*
X192338970Y-114766277D01*
X192509130Y-114695795D01*
X192662269Y-114593471D01*
X192792503Y-114463237D01*
X192894827Y-114310098D01*
X192965309Y-114139938D01*
X193001241Y-113959298D01*
X193001241Y-113775120D01*
X193417241Y-113775120D01*
X193417241Y-113959298D01*
X193453173Y-114139938D01*
X193523655Y-114310098D01*
X193625979Y-114463237D01*
X193756213Y-114593471D01*
X193909352Y-114695795D01*
X194079512Y-114766277D01*
X194260152Y-114802209D01*
X194444330Y-114802209D01*
X194624970Y-114766277D01*
X194795130Y-114695795D01*
X194948269Y-114593471D01*
X195078503Y-114463237D01*
X195180827Y-114310098D01*
X195251309Y-114139938D01*
X195287241Y-113959298D01*
X195287241Y-113775120D01*
X195639741Y-113775120D01*
X195639741Y-113959298D01*
X195675673Y-114139938D01*
X195746155Y-114310098D01*
X195848479Y-114463237D01*
X195978713Y-114593471D01*
X196131852Y-114695795D01*
X196302012Y-114766277D01*
X196482652Y-114802209D01*
X196666830Y-114802209D01*
X196847470Y-114766277D01*
X197017630Y-114695795D01*
X197170769Y-114593471D01*
X197301003Y-114463237D01*
X197403327Y-114310098D01*
X197473809Y-114139938D01*
X197509741Y-113959298D01*
X197509741Y-113775120D01*
X197473809Y-113594480D01*
X197403327Y-113424320D01*
X197301003Y-113271181D01*
X197170769Y-113140947D01*
X197017630Y-113038623D01*
X196847470Y-112968141D01*
X196666830Y-112932209D01*
X196482652Y-112932209D01*
X196302012Y-112968141D01*
X196131852Y-113038623D01*
X195978713Y-113140947D01*
X195848479Y-113271181D01*
X195746155Y-113424320D01*
X195675673Y-113594480D01*
X195639741Y-113775120D01*
X195287241Y-113775120D01*
X195251309Y-113594480D01*
X195180827Y-113424320D01*
X195078503Y-113271181D01*
X194948269Y-113140947D01*
X194795130Y-113038623D01*
X194624970Y-112968141D01*
X194444330Y-112932209D01*
X194260152Y-112932209D01*
X194079512Y-112968141D01*
X193909352Y-113038623D01*
X193756213Y-113140947D01*
X193625979Y-113271181D01*
X193523655Y-113424320D01*
X193453173Y-113594480D01*
X193417241Y-113775120D01*
X193001241Y-113775120D01*
X192965309Y-113594480D01*
X192894827Y-113424320D01*
X192792503Y-113271181D01*
X192662269Y-113140947D01*
X192509130Y-113038623D01*
X192338970Y-112968141D01*
X192158330Y-112932209D01*
X191974152Y-112932209D01*
X191793512Y-112968141D01*
X191623352Y-113038623D01*
X191470213Y-113140947D01*
X191339979Y-113271181D01*
X191237655Y-113424320D01*
X191167173Y-113594480D01*
X191131241Y-113775120D01*
X115868505Y-113775120D01*
X115886071Y-113757554D01*
X115988395Y-113604415D01*
X116058877Y-113434255D01*
X116094809Y-113253615D01*
X116094809Y-113069437D01*
X116058877Y-112888797D01*
X115988395Y-112718637D01*
X115886071Y-112565498D01*
X115755837Y-112435264D01*
X115602698Y-112332940D01*
X115432538Y-112262458D01*
X115251898Y-112226526D01*
X115067720Y-112226526D01*
X114887080Y-112262458D01*
X114716920Y-112332940D01*
X114563781Y-112435264D01*
X114433547Y-112565498D01*
X114331223Y-112718637D01*
X114260741Y-112888797D01*
X114224809Y-113069437D01*
X113075250Y-113069437D01*
X113011827Y-112916320D01*
X112909503Y-112763181D01*
X112779269Y-112632947D01*
X112626130Y-112530623D01*
X112455970Y-112460141D01*
X112275330Y-112424209D01*
X112091152Y-112424209D01*
X111910512Y-112460141D01*
X111740352Y-112530623D01*
X111587213Y-112632947D01*
X111456979Y-112763181D01*
X111354655Y-112916320D01*
X111284173Y-113086480D01*
X111248241Y-113267120D01*
X105534226Y-113267120D01*
X105487252Y-113030966D01*
X105371540Y-112751614D01*
X105203553Y-112500204D01*
X104989746Y-112286397D01*
X104903410Y-112228709D01*
X104989746Y-112171021D01*
X105203553Y-111957214D01*
X105371540Y-111705804D01*
X105382385Y-111679620D01*
X117026741Y-111679620D01*
X117026741Y-111863798D01*
X117062673Y-112044438D01*
X117133155Y-112214598D01*
X117235479Y-112367737D01*
X117365713Y-112497971D01*
X117518852Y-112600295D01*
X117689012Y-112670777D01*
X117869652Y-112706709D01*
X118053830Y-112706709D01*
X118234470Y-112670777D01*
X118404630Y-112600295D01*
X118557769Y-112497971D01*
X118688003Y-112367737D01*
X118790327Y-112214598D01*
X118860809Y-112044438D01*
X118895067Y-111872213D01*
X118911119Y-111865564D01*
X119064258Y-111763240D01*
X119142328Y-111685170D01*
X120798067Y-111685170D01*
X120798067Y-111869348D01*
X120833999Y-112049988D01*
X120904481Y-112220148D01*
X121006805Y-112373287D01*
X121137039Y-112503521D01*
X121290178Y-112605845D01*
X121460338Y-112676327D01*
X121640978Y-112712259D01*
X121825156Y-112712259D01*
X122005796Y-112676327D01*
X122175956Y-112605845D01*
X122329095Y-112503521D01*
X122459329Y-112373287D01*
X122561653Y-112220148D01*
X122632135Y-112049988D01*
X122668067Y-111869348D01*
X122668067Y-111685170D01*
X122638996Y-111539020D01*
X122639516Y-111538500D01*
X122741840Y-111385361D01*
X122812322Y-111215201D01*
X122848254Y-111034561D01*
X122848254Y-110850383D01*
X122812322Y-110669743D01*
X122741840Y-110499583D01*
X122639516Y-110346444D01*
X122509282Y-110216210D01*
X122356143Y-110113886D01*
X122185983Y-110043404D01*
X122005343Y-110007472D01*
X121821165Y-110007472D01*
X121640525Y-110043404D01*
X121470365Y-110113886D01*
X121317226Y-110216210D01*
X121186992Y-110346444D01*
X121084668Y-110499583D01*
X121014186Y-110669743D01*
X120978254Y-110850383D01*
X120978254Y-111034561D01*
X121007325Y-111180711D01*
X121006805Y-111181231D01*
X120904481Y-111334370D01*
X120833999Y-111504530D01*
X120798067Y-111685170D01*
X119142328Y-111685170D01*
X119194492Y-111633006D01*
X119296816Y-111479867D01*
X119367298Y-111309707D01*
X119403230Y-111129067D01*
X119403230Y-110944889D01*
X119367298Y-110764249D01*
X119296816Y-110594089D01*
X119194492Y-110440950D01*
X119170409Y-110416867D01*
X119181513Y-110409447D01*
X119311747Y-110279213D01*
X119414071Y-110126074D01*
X119484553Y-109955914D01*
X119520485Y-109775274D01*
X119520485Y-109591096D01*
X119519098Y-109584120D01*
X122995741Y-109584120D01*
X122995741Y-109768298D01*
X123031673Y-109948938D01*
X123102155Y-110119098D01*
X123204479Y-110272237D01*
X123334713Y-110402471D01*
X123487852Y-110504795D01*
X123658012Y-110575277D01*
X123838652Y-110611209D01*
X124022830Y-110611209D01*
X124203470Y-110575277D01*
X124373630Y-110504795D01*
X124526769Y-110402471D01*
X124657003Y-110272237D01*
X124759327Y-110119098D01*
X124829809Y-109948938D01*
X124865741Y-109768298D01*
X124865741Y-109584120D01*
X124829809Y-109403480D01*
X124759327Y-109233320D01*
X124657003Y-109080181D01*
X124526769Y-108949947D01*
X124373630Y-108847623D01*
X124203470Y-108777141D01*
X124110360Y-108758620D01*
X129028241Y-108758620D01*
X129028241Y-108942798D01*
X129064173Y-109123438D01*
X129134655Y-109293598D01*
X129236979Y-109446737D01*
X129367213Y-109576971D01*
X129520352Y-109679295D01*
X129690512Y-109749777D01*
X129871152Y-109785709D01*
X130055330Y-109785709D01*
X130235970Y-109749777D01*
X130329297Y-109711120D01*
X134679741Y-109711120D01*
X134679741Y-109895298D01*
X134715673Y-110075938D01*
X134786155Y-110246098D01*
X134888479Y-110399237D01*
X135018713Y-110529471D01*
X135171852Y-110631795D01*
X135342012Y-110702277D01*
X135522652Y-110738209D01*
X135706830Y-110738209D01*
X135762577Y-110727120D01*
X137918241Y-110727120D01*
X137918241Y-110911298D01*
X137954173Y-111091938D01*
X138024655Y-111262098D01*
X138126979Y-111415237D01*
X138257213Y-111545471D01*
X138410352Y-111647795D01*
X138580512Y-111718277D01*
X138761152Y-111754209D01*
X138945330Y-111754209D01*
X139125970Y-111718277D01*
X139296130Y-111647795D01*
X139449269Y-111545471D01*
X139579503Y-111415237D01*
X139681827Y-111262098D01*
X139752309Y-111091938D01*
X139788241Y-110911298D01*
X139788241Y-110727120D01*
X139752309Y-110546480D01*
X139681827Y-110376320D01*
X139579503Y-110223181D01*
X139449269Y-110092947D01*
X139352997Y-110028620D01*
X173097241Y-110028620D01*
X173097241Y-110212798D01*
X173133173Y-110393438D01*
X173203655Y-110563598D01*
X173305979Y-110716737D01*
X173436213Y-110846971D01*
X173589352Y-110949295D01*
X173759512Y-111019777D01*
X173940152Y-111055709D01*
X174124330Y-111055709D01*
X174304970Y-111019777D01*
X174475130Y-110949295D01*
X174628269Y-110846971D01*
X174758503Y-110716737D01*
X174860827Y-110563598D01*
X174931309Y-110393438D01*
X174967241Y-110212798D01*
X174967241Y-110028620D01*
X175573741Y-110028620D01*
X175573741Y-110212798D01*
X175609673Y-110393438D01*
X175680155Y-110563598D01*
X175782479Y-110716737D01*
X175912713Y-110846971D01*
X176065852Y-110949295D01*
X176236012Y-111019777D01*
X176416652Y-111055709D01*
X176600830Y-111055709D01*
X176781470Y-111019777D01*
X176951630Y-110949295D01*
X177104769Y-110846971D01*
X177235003Y-110716737D01*
X177337327Y-110563598D01*
X177407809Y-110393438D01*
X177443741Y-110212798D01*
X177443741Y-110028620D01*
X178113741Y-110028620D01*
X178113741Y-110212798D01*
X178149673Y-110393438D01*
X178220155Y-110563598D01*
X178322479Y-110716737D01*
X178452713Y-110846971D01*
X178605852Y-110949295D01*
X178776012Y-111019777D01*
X178956652Y-111055709D01*
X179140830Y-111055709D01*
X179321470Y-111019777D01*
X179491630Y-110949295D01*
X179644769Y-110846971D01*
X179775003Y-110716737D01*
X179877327Y-110563598D01*
X179947809Y-110393438D01*
X179983741Y-110212798D01*
X179983741Y-110028620D01*
X180717241Y-110028620D01*
X180717241Y-110212798D01*
X180753173Y-110393438D01*
X180823655Y-110563598D01*
X180925979Y-110716737D01*
X181056213Y-110846971D01*
X181209352Y-110949295D01*
X181379512Y-111019777D01*
X181560152Y-111055709D01*
X181744330Y-111055709D01*
X181924970Y-111019777D01*
X182095130Y-110949295D01*
X182248269Y-110846971D01*
X182378503Y-110716737D01*
X182480827Y-110563598D01*
X182551309Y-110393438D01*
X182587241Y-110212798D01*
X182587241Y-110028620D01*
X182551309Y-109847980D01*
X182480827Y-109677820D01*
X182378503Y-109524681D01*
X182248269Y-109394447D01*
X182095130Y-109292123D01*
X181924970Y-109221641D01*
X181748910Y-109186620D01*
X194336241Y-109186620D01*
X194336241Y-109370798D01*
X194372173Y-109551438D01*
X194442655Y-109721598D01*
X194544979Y-109874737D01*
X194675213Y-110004971D01*
X194828352Y-110107295D01*
X194998512Y-110177777D01*
X195179152Y-110213709D01*
X195363330Y-110213709D01*
X195543970Y-110177777D01*
X195714130Y-110107295D01*
X195867269Y-110004971D01*
X195997503Y-109874737D01*
X196099827Y-109721598D01*
X196170309Y-109551438D01*
X196206241Y-109370798D01*
X196206241Y-109186620D01*
X196170309Y-109005980D01*
X196099827Y-108835820D01*
X195997503Y-108682681D01*
X195867269Y-108552447D01*
X195714130Y-108450123D01*
X195543970Y-108379641D01*
X195363330Y-108343709D01*
X195179152Y-108343709D01*
X194998512Y-108379641D01*
X194828352Y-108450123D01*
X194675213Y-108552447D01*
X194544979Y-108682681D01*
X194442655Y-108835820D01*
X194372173Y-109005980D01*
X194336241Y-109186620D01*
X181748910Y-109186620D01*
X181744330Y-109185709D01*
X181560152Y-109185709D01*
X181379512Y-109221641D01*
X181209352Y-109292123D01*
X181056213Y-109394447D01*
X180925979Y-109524681D01*
X180823655Y-109677820D01*
X180753173Y-109847980D01*
X180717241Y-110028620D01*
X179983741Y-110028620D01*
X179947809Y-109847980D01*
X179877327Y-109677820D01*
X179775003Y-109524681D01*
X179644769Y-109394447D01*
X179491630Y-109292123D01*
X179321470Y-109221641D01*
X179140830Y-109185709D01*
X178956652Y-109185709D01*
X178776012Y-109221641D01*
X178605852Y-109292123D01*
X178452713Y-109394447D01*
X178322479Y-109524681D01*
X178220155Y-109677820D01*
X178149673Y-109847980D01*
X178113741Y-110028620D01*
X177443741Y-110028620D01*
X177407809Y-109847980D01*
X177337327Y-109677820D01*
X177235003Y-109524681D01*
X177104769Y-109394447D01*
X176951630Y-109292123D01*
X176781470Y-109221641D01*
X176600830Y-109185709D01*
X176416652Y-109185709D01*
X176236012Y-109221641D01*
X176065852Y-109292123D01*
X175912713Y-109394447D01*
X175782479Y-109524681D01*
X175680155Y-109677820D01*
X175609673Y-109847980D01*
X175573741Y-110028620D01*
X174967241Y-110028620D01*
X174931309Y-109847980D01*
X174860827Y-109677820D01*
X174758503Y-109524681D01*
X174628269Y-109394447D01*
X174475130Y-109292123D01*
X174304970Y-109221641D01*
X174124330Y-109185709D01*
X173940152Y-109185709D01*
X173759512Y-109221641D01*
X173589352Y-109292123D01*
X173436213Y-109394447D01*
X173305979Y-109524681D01*
X173203655Y-109677820D01*
X173133173Y-109847980D01*
X173097241Y-110028620D01*
X139352997Y-110028620D01*
X139296130Y-109990623D01*
X139125970Y-109920141D01*
X138945330Y-109884209D01*
X138761152Y-109884209D01*
X138580512Y-109920141D01*
X138410352Y-109990623D01*
X138257213Y-110092947D01*
X138126979Y-110223181D01*
X138024655Y-110376320D01*
X137954173Y-110546480D01*
X137918241Y-110727120D01*
X135762577Y-110727120D01*
X135887470Y-110702277D01*
X136057630Y-110631795D01*
X136210769Y-110529471D01*
X136341003Y-110399237D01*
X136443327Y-110246098D01*
X136513809Y-110075938D01*
X136549741Y-109895298D01*
X136549741Y-109711120D01*
X136513809Y-109530480D01*
X136443327Y-109360320D01*
X136341003Y-109207181D01*
X136210769Y-109076947D01*
X136057630Y-108974623D01*
X135887470Y-108904141D01*
X135706830Y-108868209D01*
X135522652Y-108868209D01*
X135342012Y-108904141D01*
X135171852Y-108974623D01*
X135018713Y-109076947D01*
X134888479Y-109207181D01*
X134786155Y-109360320D01*
X134715673Y-109530480D01*
X134679741Y-109711120D01*
X130329297Y-109711120D01*
X130406130Y-109679295D01*
X130559269Y-109576971D01*
X130689503Y-109446737D01*
X130791827Y-109293598D01*
X130862309Y-109123438D01*
X130898241Y-108942798D01*
X130898241Y-108758620D01*
X130862309Y-108577980D01*
X130791827Y-108407820D01*
X130689503Y-108254681D01*
X130559269Y-108124447D01*
X130406130Y-108022123D01*
X130235970Y-107951641D01*
X130055330Y-107915709D01*
X129871152Y-107915709D01*
X129690512Y-107951641D01*
X129520352Y-108022123D01*
X129367213Y-108124447D01*
X129236979Y-108254681D01*
X129134655Y-108407820D01*
X129064173Y-108577980D01*
X129028241Y-108758620D01*
X124110360Y-108758620D01*
X124022830Y-108741209D01*
X123838652Y-108741209D01*
X123658012Y-108777141D01*
X123487852Y-108847623D01*
X123334713Y-108949947D01*
X123204479Y-109080181D01*
X123102155Y-109233320D01*
X123031673Y-109403480D01*
X122995741Y-109584120D01*
X119519098Y-109584120D01*
X119484553Y-109410456D01*
X119414071Y-109240296D01*
X119311747Y-109087157D01*
X119181513Y-108956923D01*
X119028374Y-108854599D01*
X118858214Y-108784117D01*
X118677574Y-108748185D01*
X118493396Y-108748185D01*
X118312756Y-108784117D01*
X118142596Y-108854599D01*
X117989457Y-108956923D01*
X117859223Y-109087157D01*
X117756899Y-109240296D01*
X117686417Y-109410456D01*
X117650485Y-109591096D01*
X117650485Y-109775274D01*
X117686417Y-109955914D01*
X117756899Y-110126074D01*
X117859223Y-110279213D01*
X117883306Y-110303296D01*
X117872202Y-110310716D01*
X117741968Y-110440950D01*
X117639644Y-110594089D01*
X117569162Y-110764249D01*
X117534904Y-110936474D01*
X117518852Y-110943123D01*
X117365713Y-111045447D01*
X117235479Y-111175681D01*
X117133155Y-111328820D01*
X117062673Y-111498980D01*
X117026741Y-111679620D01*
X105382385Y-111679620D01*
X105487252Y-111426452D01*
X105546241Y-111129893D01*
X105546241Y-110827525D01*
X105487252Y-110530966D01*
X105371540Y-110251614D01*
X105203553Y-110000204D01*
X104989746Y-109786397D01*
X104738336Y-109618410D01*
X104458984Y-109502698D01*
X104162425Y-109443709D01*
X103860057Y-109443709D01*
X103563498Y-109502698D01*
X103284146Y-109618410D01*
X103032736Y-109786397D01*
X102818929Y-110000204D01*
X102650942Y-110251614D01*
X102535230Y-110530966D01*
X102476241Y-110827525D01*
X91886241Y-110827525D01*
X91886241Y-109507144D01*
X99882411Y-109507144D01*
X100056464Y-109838063D01*
X100456781Y-110043834D01*
X100889549Y-110167555D01*
X101338139Y-110204468D01*
X101785311Y-110153158D01*
X102213880Y-110015594D01*
X102546018Y-109838063D01*
X102720071Y-109507144D01*
X101301241Y-108088314D01*
X99882411Y-109507144D01*
X91886241Y-109507144D01*
X91886241Y-107945607D01*
X99005482Y-107945607D01*
X99056792Y-108392779D01*
X99194356Y-108821348D01*
X99371887Y-109153486D01*
X99702806Y-109327539D01*
X101121636Y-107908709D01*
X101480846Y-107908709D01*
X102899676Y-109327539D01*
X103230595Y-109153486D01*
X103335643Y-108949120D01*
X112899241Y-108949120D01*
X112899241Y-109133298D01*
X112935173Y-109313938D01*
X113005655Y-109484098D01*
X113107979Y-109637237D01*
X113238213Y-109767471D01*
X113391352Y-109869795D01*
X113561512Y-109940277D01*
X113742152Y-109976209D01*
X113926330Y-109976209D01*
X114106970Y-109940277D01*
X114277130Y-109869795D01*
X114430269Y-109767471D01*
X114560503Y-109637237D01*
X114662827Y-109484098D01*
X114733309Y-109313938D01*
X114769241Y-109133298D01*
X114769241Y-108949120D01*
X114733309Y-108768480D01*
X114662827Y-108598320D01*
X114560503Y-108445181D01*
X114430269Y-108314947D01*
X114277130Y-108212623D01*
X114106970Y-108142141D01*
X113926330Y-108106209D01*
X113742152Y-108106209D01*
X113561512Y-108142141D01*
X113391352Y-108212623D01*
X113238213Y-108314947D01*
X113107979Y-108445181D01*
X113005655Y-108598320D01*
X112935173Y-108768480D01*
X112899241Y-108949120D01*
X103335643Y-108949120D01*
X103436366Y-108753169D01*
X103560087Y-108320401D01*
X103597000Y-107871811D01*
X103545690Y-107424639D01*
X103484697Y-107234620D01*
X126107241Y-107234620D01*
X126107241Y-107418798D01*
X126143173Y-107599438D01*
X126213655Y-107769598D01*
X126315979Y-107922737D01*
X126446213Y-108052971D01*
X126599352Y-108155295D01*
X126769512Y-108225777D01*
X126950152Y-108261709D01*
X127134330Y-108261709D01*
X127314970Y-108225777D01*
X127485130Y-108155295D01*
X127638269Y-108052971D01*
X127768503Y-107922737D01*
X127870827Y-107769598D01*
X127941309Y-107599438D01*
X127977241Y-107418798D01*
X127977241Y-107286077D01*
X155232334Y-107286077D01*
X155232334Y-107470255D01*
X155268266Y-107650895D01*
X155338748Y-107821055D01*
X155441072Y-107974194D01*
X155571306Y-108104428D01*
X155724445Y-108206752D01*
X155894605Y-108277234D01*
X156075245Y-108313166D01*
X156259423Y-108313166D01*
X156440063Y-108277234D01*
X156610223Y-108206752D01*
X156763362Y-108104428D01*
X156893596Y-107974194D01*
X156952110Y-107886620D01*
X182136241Y-107886620D01*
X182136241Y-108070798D01*
X182172173Y-108251438D01*
X182242655Y-108421598D01*
X182344979Y-108574737D01*
X182475213Y-108704971D01*
X182628352Y-108807295D01*
X182798512Y-108877777D01*
X182979152Y-108913709D01*
X183163330Y-108913709D01*
X183343970Y-108877777D01*
X183514130Y-108807295D01*
X183667269Y-108704971D01*
X183797503Y-108574737D01*
X183899827Y-108421598D01*
X183970309Y-108251438D01*
X184006241Y-108070798D01*
X184006241Y-107886620D01*
X187136241Y-107886620D01*
X187136241Y-108070798D01*
X187172173Y-108251438D01*
X187242655Y-108421598D01*
X187344979Y-108574737D01*
X187475213Y-108704971D01*
X187628352Y-108807295D01*
X187798512Y-108877777D01*
X187979152Y-108913709D01*
X188163330Y-108913709D01*
X188343970Y-108877777D01*
X188514130Y-108807295D01*
X188667269Y-108704971D01*
X188797503Y-108574737D01*
X188899827Y-108421598D01*
X188970309Y-108251438D01*
X189006241Y-108070798D01*
X189006241Y-107886620D01*
X188970309Y-107705980D01*
X188899827Y-107535820D01*
X188797503Y-107382681D01*
X188667269Y-107252447D01*
X188514130Y-107150123D01*
X188343970Y-107079641D01*
X188163330Y-107043709D01*
X187979152Y-107043709D01*
X187798512Y-107079641D01*
X187628352Y-107150123D01*
X187475213Y-107252447D01*
X187344979Y-107382681D01*
X187242655Y-107535820D01*
X187172173Y-107705980D01*
X187136241Y-107886620D01*
X184006241Y-107886620D01*
X183970309Y-107705980D01*
X183899827Y-107535820D01*
X183797503Y-107382681D01*
X183667269Y-107252447D01*
X183514130Y-107150123D01*
X183343970Y-107079641D01*
X183163330Y-107043709D01*
X182979152Y-107043709D01*
X182798512Y-107079641D01*
X182628352Y-107150123D01*
X182475213Y-107252447D01*
X182344979Y-107382681D01*
X182242655Y-107535820D01*
X182172173Y-107705980D01*
X182136241Y-107886620D01*
X156952110Y-107886620D01*
X156995920Y-107821055D01*
X157038282Y-107718782D01*
X157140555Y-107676420D01*
X157293694Y-107574096D01*
X157423928Y-107443862D01*
X157526252Y-107290723D01*
X157596734Y-107120563D01*
X157632666Y-106939923D01*
X157632666Y-106755745D01*
X157596734Y-106575105D01*
X157526252Y-106404945D01*
X157423928Y-106251806D01*
X157293694Y-106121572D01*
X157140555Y-106019248D01*
X156970395Y-105948766D01*
X156789755Y-105912834D01*
X156605577Y-105912834D01*
X156424937Y-105948766D01*
X156254777Y-106019248D01*
X156101638Y-106121572D01*
X155971404Y-106251806D01*
X155869080Y-106404945D01*
X155826718Y-106507218D01*
X155724445Y-106549580D01*
X155571306Y-106651904D01*
X155441072Y-106782138D01*
X155338748Y-106935277D01*
X155268266Y-107105437D01*
X155232334Y-107286077D01*
X127977241Y-107286077D01*
X127977241Y-107234620D01*
X127941309Y-107053980D01*
X127870827Y-106883820D01*
X127768503Y-106730681D01*
X127638269Y-106600447D01*
X127485130Y-106498123D01*
X127314970Y-106427641D01*
X127134330Y-106391709D01*
X126950152Y-106391709D01*
X126769512Y-106427641D01*
X126599352Y-106498123D01*
X126446213Y-106600447D01*
X126315979Y-106730681D01*
X126213655Y-106883820D01*
X126143173Y-107053980D01*
X126107241Y-107234620D01*
X103484697Y-107234620D01*
X103408126Y-106996070D01*
X103230595Y-106663932D01*
X102899676Y-106489879D01*
X101480846Y-107908709D01*
X101121636Y-107908709D01*
X99702806Y-106489879D01*
X99371887Y-106663932D01*
X99166116Y-107064249D01*
X99042395Y-107497017D01*
X99005482Y-107945607D01*
X91886241Y-107945607D01*
X91886241Y-106310274D01*
X99882411Y-106310274D01*
X101301241Y-107729104D01*
X102720071Y-106310274D01*
X102546018Y-105979355D01*
X102145701Y-105773584D01*
X101925458Y-105710620D01*
X185733741Y-105710620D01*
X185733741Y-105894798D01*
X185769673Y-106075438D01*
X185840155Y-106245598D01*
X185942479Y-106398737D01*
X186072713Y-106528971D01*
X186225852Y-106631295D01*
X186396012Y-106701777D01*
X186576652Y-106737709D01*
X186760830Y-106737709D01*
X186941470Y-106701777D01*
X187111630Y-106631295D01*
X187264769Y-106528971D01*
X187395003Y-106398737D01*
X187497327Y-106245598D01*
X187567809Y-106075438D01*
X187603741Y-105894798D01*
X187603741Y-105710620D01*
X187567809Y-105529980D01*
X187497327Y-105359820D01*
X187395003Y-105206681D01*
X187264769Y-105076447D01*
X187111630Y-104974123D01*
X186941470Y-104903641D01*
X186760830Y-104867709D01*
X186576652Y-104867709D01*
X186396012Y-104903641D01*
X186225852Y-104974123D01*
X186072713Y-105076447D01*
X185942479Y-105206681D01*
X185840155Y-105359820D01*
X185769673Y-105529980D01*
X185733741Y-105710620D01*
X101925458Y-105710620D01*
X101712933Y-105649863D01*
X101264343Y-105612950D01*
X100817171Y-105664260D01*
X100388602Y-105801824D01*
X100056464Y-105979355D01*
X99882411Y-106310274D01*
X91886241Y-106310274D01*
X91886241Y-102069894D01*
X94108923Y-102069894D01*
X94123068Y-102141393D01*
X94229099Y-102392577D01*
X94382096Y-102618249D01*
X94576180Y-102809737D01*
X94803892Y-102959681D01*
X95056481Y-103062320D01*
X95324241Y-103113709D01*
X95924241Y-103113709D01*
X95924241Y-101855709D01*
X96178241Y-101855709D01*
X96178241Y-103113709D01*
X96778241Y-103113709D01*
X97046001Y-103062320D01*
X97298590Y-102959681D01*
X97526302Y-102809737D01*
X97720386Y-102618249D01*
X97873383Y-102392577D01*
X97979414Y-102141393D01*
X97993559Y-102069894D01*
X99808923Y-102069894D01*
X99823068Y-102141393D01*
X99929099Y-102392577D01*
X100082096Y-102618249D01*
X100276180Y-102809737D01*
X100503892Y-102959681D01*
X100756481Y-103062320D01*
X101024241Y-103113709D01*
X101924241Y-103113709D01*
X101924241Y-101855709D01*
X102178241Y-101855709D01*
X102178241Y-103113709D01*
X103078241Y-103113709D01*
X103346001Y-103062320D01*
X103598590Y-102959681D01*
X103826302Y-102809737D01*
X104020386Y-102618249D01*
X104127620Y-102460077D01*
X149644334Y-102460077D01*
X149644334Y-102644255D01*
X149680266Y-102824895D01*
X149750748Y-102995055D01*
X149853072Y-103148194D01*
X149983306Y-103278428D01*
X150136445Y-103380752D01*
X150306605Y-103451234D01*
X150487245Y-103487166D01*
X150671423Y-103487166D01*
X150852063Y-103451234D01*
X151022223Y-103380752D01*
X151175362Y-103278428D01*
X151305596Y-103148194D01*
X151407920Y-102995055D01*
X151450282Y-102892782D01*
X151552555Y-102850420D01*
X151705694Y-102748096D01*
X151835928Y-102617862D01*
X151938252Y-102464723D01*
X152008734Y-102294563D01*
X152044666Y-102113923D01*
X152044666Y-101929745D01*
X152008734Y-101749105D01*
X151938252Y-101578945D01*
X151835928Y-101425806D01*
X151705694Y-101295572D01*
X151692297Y-101286620D01*
X195136241Y-101286620D01*
X195136241Y-101470798D01*
X195172173Y-101651438D01*
X195242655Y-101821598D01*
X195344979Y-101974737D01*
X195475213Y-102104971D01*
X195628352Y-102207295D01*
X195798512Y-102277777D01*
X195979152Y-102313709D01*
X196163330Y-102313709D01*
X196343970Y-102277777D01*
X196514130Y-102207295D01*
X196667269Y-102104971D01*
X196797503Y-101974737D01*
X196899827Y-101821598D01*
X196970309Y-101651438D01*
X197006241Y-101470798D01*
X197006241Y-101286620D01*
X196970309Y-101105980D01*
X196899827Y-100935820D01*
X196797503Y-100782681D01*
X196667269Y-100652447D01*
X196514130Y-100550123D01*
X196343970Y-100479641D01*
X196163330Y-100443709D01*
X195979152Y-100443709D01*
X195798512Y-100479641D01*
X195628352Y-100550123D01*
X195475213Y-100652447D01*
X195344979Y-100782681D01*
X195242655Y-100935820D01*
X195172173Y-101105980D01*
X195136241Y-101286620D01*
X151692297Y-101286620D01*
X151552555Y-101193248D01*
X151382395Y-101122766D01*
X151201755Y-101086834D01*
X151017577Y-101086834D01*
X150836937Y-101122766D01*
X150666777Y-101193248D01*
X150513638Y-101295572D01*
X150383404Y-101425806D01*
X150281080Y-101578945D01*
X150238718Y-101681218D01*
X150136445Y-101723580D01*
X149983306Y-101825904D01*
X149853072Y-101956138D01*
X149750748Y-102109277D01*
X149680266Y-102279437D01*
X149644334Y-102460077D01*
X104127620Y-102460077D01*
X104173383Y-102392577D01*
X104279414Y-102141393D01*
X104293559Y-102069894D01*
X104170897Y-101855709D01*
X102178241Y-101855709D01*
X101924241Y-101855709D01*
X99931585Y-101855709D01*
X99808923Y-102069894D01*
X97993559Y-102069894D01*
X97870897Y-101855709D01*
X96178241Y-101855709D01*
X95924241Y-101855709D01*
X94231585Y-101855709D01*
X94108923Y-102069894D01*
X91886241Y-102069894D01*
X91886241Y-101387524D01*
X94108923Y-101387524D01*
X94231585Y-101601709D01*
X95924241Y-101601709D01*
X95924241Y-100343709D01*
X96178241Y-100343709D01*
X96178241Y-101601709D01*
X97870897Y-101601709D01*
X97993559Y-101387524D01*
X99808923Y-101387524D01*
X99931585Y-101601709D01*
X101924241Y-101601709D01*
X101924241Y-100343709D01*
X102178241Y-100343709D01*
X102178241Y-101601709D01*
X104170897Y-101601709D01*
X104293559Y-101387524D01*
X104279414Y-101316025D01*
X104173383Y-101064841D01*
X104020386Y-100839169D01*
X103826302Y-100647681D01*
X103598590Y-100497737D01*
X103346001Y-100395098D01*
X103078241Y-100343709D01*
X102178241Y-100343709D01*
X101924241Y-100343709D01*
X101024241Y-100343709D01*
X100756481Y-100395098D01*
X100503892Y-100497737D01*
X100276180Y-100647681D01*
X100082096Y-100839169D01*
X99929099Y-101064841D01*
X99823068Y-101316025D01*
X99808923Y-101387524D01*
X97993559Y-101387524D01*
X97979414Y-101316025D01*
X97873383Y-101064841D01*
X97720386Y-100839169D01*
X97526302Y-100647681D01*
X97298590Y-100497737D01*
X97046001Y-100395098D01*
X96778241Y-100343709D01*
X96178241Y-100343709D01*
X95924241Y-100343709D01*
X95324241Y-100343709D01*
X95056481Y-100395098D01*
X94803892Y-100497737D01*
X94576180Y-100647681D01*
X94382096Y-100839169D01*
X94229099Y-101064841D01*
X94123068Y-101316025D01*
X94108923Y-101387524D01*
X91886241Y-101387524D01*
X91886241Y-98486620D01*
X112416241Y-98486620D01*
X112416241Y-98670798D01*
X112452173Y-98851438D01*
X112522655Y-99021598D01*
X112624979Y-99174737D01*
X112755213Y-99304971D01*
X112908352Y-99407295D01*
X113078512Y-99477777D01*
X113259152Y-99513709D01*
X113443330Y-99513709D01*
X113623970Y-99477777D01*
X113794130Y-99407295D01*
X113947269Y-99304971D01*
X114077503Y-99174737D01*
X114179827Y-99021598D01*
X114250309Y-98851438D01*
X114286241Y-98670798D01*
X114286241Y-98486620D01*
X114250309Y-98305980D01*
X114179827Y-98135820D01*
X114077503Y-97982681D01*
X113947269Y-97852447D01*
X113794130Y-97750123D01*
X113623970Y-97679641D01*
X113443330Y-97643709D01*
X113259152Y-97643709D01*
X113078512Y-97679641D01*
X112908352Y-97750123D01*
X112755213Y-97852447D01*
X112624979Y-97982681D01*
X112522655Y-98135820D01*
X112452173Y-98305980D01*
X112416241Y-98486620D01*
X91886241Y-98486620D01*
X91886241Y-95486620D01*
X112416241Y-95486620D01*
X112416241Y-95670798D01*
X112452173Y-95851438D01*
X112522655Y-96021598D01*
X112624979Y-96174737D01*
X112755213Y-96304971D01*
X112908352Y-96407295D01*
X113078512Y-96477777D01*
X113259152Y-96513709D01*
X113443330Y-96513709D01*
X113623970Y-96477777D01*
X113794130Y-96407295D01*
X113947269Y-96304971D01*
X114077503Y-96174737D01*
X114179827Y-96021598D01*
X114250309Y-95851438D01*
X114286241Y-95670798D01*
X114286241Y-95486620D01*
X114250309Y-95305980D01*
X114179827Y-95135820D01*
X114077503Y-94982681D01*
X113947269Y-94852447D01*
X113794130Y-94750123D01*
X113623970Y-94679641D01*
X113443330Y-94643709D01*
X113259152Y-94643709D01*
X113078512Y-94679641D01*
X112908352Y-94750123D01*
X112755213Y-94852447D01*
X112624979Y-94982681D01*
X112522655Y-95135820D01*
X112452173Y-95305980D01*
X112416241Y-95486620D01*
X91886241Y-95486620D01*
X91886241Y-89886620D01*
X99516241Y-89886620D01*
X99516241Y-90070798D01*
X99552173Y-90251438D01*
X99622655Y-90421598D01*
X99724979Y-90574737D01*
X99855213Y-90704971D01*
X100008352Y-90807295D01*
X100178512Y-90877777D01*
X100359152Y-90913709D01*
X100543330Y-90913709D01*
X100723970Y-90877777D01*
X100894130Y-90807295D01*
X101047269Y-90704971D01*
X101177503Y-90574737D01*
X101279827Y-90421598D01*
X101294315Y-90386620D01*
X103916241Y-90386620D01*
X103916241Y-90570798D01*
X103952173Y-90751438D01*
X104022655Y-90921598D01*
X104060815Y-90978709D01*
X104022655Y-91035820D01*
X103952173Y-91205980D01*
X103916241Y-91386620D01*
X103916241Y-91570798D01*
X103952173Y-91751438D01*
X104022655Y-91921598D01*
X104124979Y-92074737D01*
X104255213Y-92204971D01*
X104408352Y-92307295D01*
X104578512Y-92377777D01*
X104759152Y-92413709D01*
X104943330Y-92413709D01*
X105123970Y-92377777D01*
X105294130Y-92307295D01*
X105447269Y-92204971D01*
X105577503Y-92074737D01*
X105679827Y-91921598D01*
X105750309Y-91751438D01*
X105786241Y-91570798D01*
X105786241Y-91386620D01*
X105750309Y-91205980D01*
X105700869Y-91086620D01*
X107016241Y-91086620D01*
X107016241Y-91270798D01*
X107052173Y-91451438D01*
X107122655Y-91621598D01*
X107224979Y-91774737D01*
X107355213Y-91904971D01*
X107508352Y-92007295D01*
X107678512Y-92077777D01*
X107859152Y-92113709D01*
X108043330Y-92113709D01*
X108223970Y-92077777D01*
X108394130Y-92007295D01*
X108547269Y-91904971D01*
X108677503Y-91774737D01*
X108779827Y-91621598D01*
X108850309Y-91451438D01*
X108886241Y-91270798D01*
X108886241Y-91086620D01*
X108850309Y-90905980D01*
X108779827Y-90735820D01*
X108677503Y-90582681D01*
X108547269Y-90452447D01*
X108394130Y-90350123D01*
X108223970Y-90279641D01*
X108043330Y-90243709D01*
X107859152Y-90243709D01*
X107678512Y-90279641D01*
X107508352Y-90350123D01*
X107355213Y-90452447D01*
X107224979Y-90582681D01*
X107122655Y-90735820D01*
X107052173Y-90905980D01*
X107016241Y-91086620D01*
X105700869Y-91086620D01*
X105679827Y-91035820D01*
X105641667Y-90978709D01*
X105679827Y-90921598D01*
X105750309Y-90751438D01*
X105786241Y-90570798D01*
X105786241Y-90386620D01*
X105750309Y-90205980D01*
X105679827Y-90035820D01*
X105577503Y-89882681D01*
X105447269Y-89752447D01*
X105294130Y-89650123D01*
X105123970Y-89579641D01*
X104943330Y-89543709D01*
X104759152Y-89543709D01*
X104578512Y-89579641D01*
X104408352Y-89650123D01*
X104255213Y-89752447D01*
X104124979Y-89882681D01*
X104022655Y-90035820D01*
X103952173Y-90205980D01*
X103916241Y-90386620D01*
X101294315Y-90386620D01*
X101350309Y-90251438D01*
X101386241Y-90070798D01*
X101386241Y-89886620D01*
X101350309Y-89705980D01*
X101279827Y-89535820D01*
X101177503Y-89382681D01*
X101047269Y-89252447D01*
X100894130Y-89150123D01*
X100723970Y-89079641D01*
X100543330Y-89043709D01*
X100359152Y-89043709D01*
X100178512Y-89079641D01*
X100008352Y-89150123D01*
X99855213Y-89252447D01*
X99724979Y-89382681D01*
X99622655Y-89535820D01*
X99552173Y-89705980D01*
X99516241Y-89886620D01*
X91886241Y-89886620D01*
X91886241Y-87569894D01*
X94108923Y-87569894D01*
X94123068Y-87641393D01*
X94229099Y-87892577D01*
X94382096Y-88118249D01*
X94576180Y-88309737D01*
X94803892Y-88459681D01*
X95056481Y-88562320D01*
X95324241Y-88613709D01*
X95924241Y-88613709D01*
X95924241Y-87355709D01*
X96178241Y-87355709D01*
X96178241Y-88613709D01*
X96778241Y-88613709D01*
X97046001Y-88562320D01*
X97298590Y-88459681D01*
X97526302Y-88309737D01*
X97720386Y-88118249D01*
X97873383Y-87892577D01*
X97979414Y-87641393D01*
X97993559Y-87569894D01*
X99808923Y-87569894D01*
X99823068Y-87641393D01*
X99929099Y-87892577D01*
X100082096Y-88118249D01*
X100276180Y-88309737D01*
X100503892Y-88459681D01*
X100756481Y-88562320D01*
X101024241Y-88613709D01*
X101924241Y-88613709D01*
X101924241Y-87355709D01*
X102178241Y-87355709D01*
X102178241Y-88613709D01*
X103078241Y-88613709D01*
X103346001Y-88562320D01*
X103598590Y-88459681D01*
X103826302Y-88309737D01*
X104020386Y-88118249D01*
X104173383Y-87892577D01*
X104279414Y-87641393D01*
X104293559Y-87569894D01*
X104170897Y-87355709D01*
X102178241Y-87355709D01*
X101924241Y-87355709D01*
X99931585Y-87355709D01*
X99808923Y-87569894D01*
X97993559Y-87569894D01*
X97870897Y-87355709D01*
X96178241Y-87355709D01*
X95924241Y-87355709D01*
X94231585Y-87355709D01*
X94108923Y-87569894D01*
X91886241Y-87569894D01*
X91886241Y-86887524D01*
X94108923Y-86887524D01*
X94231585Y-87101709D01*
X95924241Y-87101709D01*
X95924241Y-85843709D01*
X96178241Y-85843709D01*
X96178241Y-87101709D01*
X97870897Y-87101709D01*
X97993559Y-86887524D01*
X99808923Y-86887524D01*
X99931585Y-87101709D01*
X101924241Y-87101709D01*
X101924241Y-85843709D01*
X102178241Y-85843709D01*
X102178241Y-87101709D01*
X104170897Y-87101709D01*
X104293559Y-86887524D01*
X104293381Y-86886620D01*
X105516241Y-86886620D01*
X105516241Y-87070798D01*
X105552173Y-87251438D01*
X105622655Y-87421598D01*
X105724979Y-87574737D01*
X105855213Y-87704971D01*
X106008352Y-87807295D01*
X106178512Y-87877777D01*
X106183197Y-87878709D01*
X106178512Y-87879641D01*
X106008352Y-87950123D01*
X105855213Y-88052447D01*
X105724979Y-88182681D01*
X105622655Y-88335820D01*
X105552173Y-88505980D01*
X105516241Y-88686620D01*
X105516241Y-88870798D01*
X105552173Y-89051438D01*
X105622655Y-89221598D01*
X105724979Y-89374737D01*
X105855213Y-89504971D01*
X106008352Y-89607295D01*
X106178512Y-89677777D01*
X106359152Y-89713709D01*
X106543330Y-89713709D01*
X106723970Y-89677777D01*
X106894130Y-89607295D01*
X107047269Y-89504971D01*
X107177503Y-89374737D01*
X107279827Y-89221598D01*
X107350309Y-89051438D01*
X107386241Y-88870798D01*
X107386241Y-88686620D01*
X107350309Y-88505980D01*
X107279827Y-88335820D01*
X107177503Y-88182681D01*
X107047269Y-88052447D01*
X106894130Y-87950123D01*
X106723970Y-87879641D01*
X106719285Y-87878709D01*
X106723970Y-87877777D01*
X106894130Y-87807295D01*
X107047269Y-87704971D01*
X107177503Y-87574737D01*
X107279827Y-87421598D01*
X107350309Y-87251438D01*
X107386241Y-87070798D01*
X107386241Y-86886620D01*
X107350309Y-86705980D01*
X107279827Y-86535820D01*
X107177503Y-86382681D01*
X107047269Y-86252447D01*
X106894130Y-86150123D01*
X106723970Y-86079641D01*
X106543330Y-86043709D01*
X106359152Y-86043709D01*
X106178512Y-86079641D01*
X106008352Y-86150123D01*
X105855213Y-86252447D01*
X105724979Y-86382681D01*
X105622655Y-86535820D01*
X105552173Y-86705980D01*
X105516241Y-86886620D01*
X104293381Y-86886620D01*
X104279414Y-86816025D01*
X104173383Y-86564841D01*
X104020386Y-86339169D01*
X103826302Y-86147681D01*
X103598590Y-85997737D01*
X103346001Y-85895098D01*
X103078241Y-85843709D01*
X102178241Y-85843709D01*
X101924241Y-85843709D01*
X101024241Y-85843709D01*
X100756481Y-85895098D01*
X100503892Y-85997737D01*
X100276180Y-86147681D01*
X100082096Y-86339169D01*
X99929099Y-86564841D01*
X99823068Y-86816025D01*
X99808923Y-86887524D01*
X97993559Y-86887524D01*
X97979414Y-86816025D01*
X97873383Y-86564841D01*
X97720386Y-86339169D01*
X97526302Y-86147681D01*
X97298590Y-85997737D01*
X97046001Y-85895098D01*
X96778241Y-85843709D01*
X96178241Y-85843709D01*
X95924241Y-85843709D01*
X95324241Y-85843709D01*
X95056481Y-85895098D01*
X94803892Y-85997737D01*
X94576180Y-86147681D01*
X94382096Y-86339169D01*
X94229099Y-86564841D01*
X94123068Y-86816025D01*
X94108923Y-86887524D01*
X91886241Y-86887524D01*
X91886241Y-85213709D01*
X199816242Y-85213709D01*
X199816241Y-123743709D01*
G37*
X199816241Y-123743709D02*
X91886241Y-123743709D01*
X91886241Y-122647144D01*
X99882411Y-122647144D01*
X100056464Y-122978063D01*
X100456781Y-123183834D01*
X100889549Y-123307555D01*
X101338139Y-123344468D01*
X101785311Y-123293158D01*
X102213880Y-123155594D01*
X102546018Y-122978063D01*
X102720071Y-122647144D01*
X101301241Y-121228314D01*
X99882411Y-122647144D01*
X91886241Y-122647144D01*
X91886241Y-121085607D01*
X99005482Y-121085607D01*
X99056792Y-121532779D01*
X99194356Y-121961348D01*
X99371887Y-122293486D01*
X99702806Y-122467539D01*
X101121636Y-121048709D01*
X101480846Y-121048709D01*
X102899676Y-122467539D01*
X103230595Y-122293486D01*
X103436366Y-121893169D01*
X103560087Y-121460401D01*
X103597000Y-121011811D01*
X103545690Y-120564639D01*
X103408126Y-120136070D01*
X103230595Y-119803932D01*
X102899676Y-119629879D01*
X101480846Y-121048709D01*
X101121636Y-121048709D01*
X99702806Y-119629879D01*
X99371887Y-119803932D01*
X99166116Y-120204249D01*
X99042395Y-120637017D01*
X99005482Y-121085607D01*
X91886241Y-121085607D01*
X91886241Y-119450274D01*
X99882411Y-119450274D01*
X101301241Y-120869104D01*
X102720071Y-119450274D01*
X102546018Y-119119355D01*
X102397063Y-119042789D01*
X103126766Y-119042789D01*
X103210449Y-119296970D01*
X103483016Y-119427867D01*
X103775883Y-119503074D01*
X104077794Y-119519700D01*
X104377148Y-119477106D01*
X104662440Y-119376931D01*
X104812033Y-119296970D01*
X104894783Y-119045620D01*
X110105241Y-119045620D01*
X110105241Y-119229798D01*
X110141173Y-119410438D01*
X110211655Y-119580598D01*
X110313979Y-119733737D01*
X110444213Y-119863971D01*
X110597352Y-119966295D01*
X110767512Y-120036777D01*
X110948152Y-120072709D01*
X111132330Y-120072709D01*
X111312970Y-120036777D01*
X111483130Y-119966295D01*
X111636269Y-119863971D01*
X111766503Y-119733737D01*
X111868827Y-119580598D01*
X111932606Y-119426620D01*
X123376741Y-119426620D01*
X123376741Y-119610798D01*
X123412673Y-119791438D01*
X123483155Y-119961598D01*
X123585479Y-120114737D01*
X123715713Y-120244971D01*
X123868852Y-120347295D01*
X124039012Y-120417777D01*
X124219652Y-120453709D01*
X124403830Y-120453709D01*
X124584470Y-120417777D01*
X124754630Y-120347295D01*
X124907769Y-120244971D01*
X125038003Y-120114737D01*
X125140327Y-119961598D01*
X125210809Y-119791438D01*
X125246741Y-119610798D01*
X125246741Y-119426620D01*
X125210809Y-119245980D01*
X125140327Y-119075820D01*
X125038003Y-118922681D01*
X124907769Y-118792447D01*
X124754630Y-118690123D01*
X124584470Y-118619641D01*
X124403830Y-118583709D01*
X124219652Y-118583709D01*
X124039012Y-118619641D01*
X123868852Y-118690123D01*
X123715713Y-118792447D01*
X123585479Y-118922681D01*
X123483155Y-119075820D01*
X123412673Y-119245980D01*
X123376741Y-119426620D01*
X111932606Y-119426620D01*
X111939309Y-119410438D01*
X111975241Y-119229798D01*
X111975241Y-119045620D01*
X111939309Y-118864980D01*
X111868827Y-118694820D01*
X111766503Y-118541681D01*
X111636269Y-118411447D01*
X111483130Y-118309123D01*
X111312970Y-118238641D01*
X111132330Y-118202709D01*
X110948152Y-118202709D01*
X110767512Y-118238641D01*
X110597352Y-118309123D01*
X110444213Y-118411447D01*
X110313979Y-118541681D01*
X110211655Y-118694820D01*
X110141173Y-118864980D01*
X110105241Y-119045620D01*
X104894783Y-119045620D01*
X104895716Y-119042789D01*
X104011241Y-118158314D01*
X103126766Y-119042789D01*
X102397063Y-119042789D01*
X102145701Y-118913584D01*
X101712933Y-118789863D01*
X101264343Y-118752950D01*
X100817171Y-118804260D01*
X100388602Y-118941824D01*
X100056464Y-119119355D01*
X99882411Y-119450274D01*
X91886241Y-119450274D01*
X91886241Y-118045262D01*
X102470250Y-118045262D01*
X102512844Y-118344616D01*
X102613019Y-118629908D01*
X102692980Y-118779501D01*
X102947161Y-118863184D01*
X103831636Y-117978709D01*
X104190846Y-117978709D01*
X105075321Y-118863184D01*
X105329502Y-118779501D01*
X105460399Y-118506934D01*
X105535606Y-118214067D01*
X105546421Y-118017676D01*
X126016241Y-118017676D01*
X126016241Y-118339742D01*
X126079073Y-118655621D01*
X126202323Y-118953172D01*
X126381254Y-119220961D01*
X126608989Y-119448696D01*
X126609008Y-119448709D01*
X126608989Y-119448722D01*
X126381254Y-119676457D01*
X126202323Y-119944246D01*
X126079073Y-120241797D01*
X126016241Y-120557676D01*
X126016241Y-120879742D01*
X126079073Y-121195621D01*
X126202323Y-121493172D01*
X126381254Y-121760961D01*
X126608989Y-121988696D01*
X126876778Y-122167627D01*
X127174329Y-122290877D01*
X127490208Y-122353709D01*
X127812274Y-122353709D01*
X128128153Y-122290877D01*
X128425704Y-122167627D01*
X128693493Y-121988696D01*
X128921228Y-121760961D01*
X128921241Y-121760942D01*
X128921254Y-121760961D01*
X129148989Y-121988696D01*
X129416778Y-122167627D01*
X129714329Y-122290877D01*
X130030208Y-122353709D01*
X130352274Y-122353709D01*
X130668153Y-122290877D01*
X130965704Y-122167627D01*
X131233493Y-121988696D01*
X131461228Y-121760961D01*
X131461241Y-121760942D01*
X131461254Y-121760961D01*
X131688989Y-121988696D01*
X131956778Y-122167627D01*
X132254329Y-122290877D01*
X132570208Y-122353709D01*
X132892274Y-122353709D01*
X133208153Y-122290877D01*
X133505704Y-122167627D01*
X133773493Y-121988696D01*
X134001228Y-121760961D01*
X134001241Y-121760942D01*
X134001254Y-121760961D01*
X134228989Y-121988696D01*
X134496778Y-122167627D01*
X134794329Y-122290877D01*
X135110208Y-122353709D01*
X135432274Y-122353709D01*
X135748153Y-122290877D01*
X136045704Y-122167627D01*
X136313493Y-121988696D01*
X136448067Y-121854122D01*
X136855433Y-121854122D01*
X136951197Y-122118523D01*
X137240812Y-122259413D01*
X137552349Y-122341093D01*
X137873836Y-122360427D01*
X138192916Y-122316670D01*
X138497329Y-122211504D01*
X138671285Y-122118523D01*
X138767049Y-121854122D01*
X137811241Y-120898314D01*
X136855433Y-121854122D01*
X136448067Y-121854122D01*
X136541228Y-121760961D01*
X136613961Y-121652109D01*
X136675828Y-121674517D01*
X137631636Y-120718709D01*
X136675828Y-119762901D01*
X136613961Y-119785309D01*
X136541228Y-119676457D01*
X136313493Y-119448722D01*
X136313474Y-119448709D01*
X136313493Y-119448696D01*
X136448067Y-119314122D01*
X136855433Y-119314122D01*
X136904179Y-119448709D01*
X136855433Y-119583296D01*
X137811241Y-120539104D01*
X138767049Y-119583296D01*
X138718303Y-119448709D01*
X138767049Y-119314122D01*
X137811241Y-118358314D01*
X136855433Y-119314122D01*
X136448067Y-119314122D01*
X136541228Y-119220961D01*
X136613961Y-119112109D01*
X136675828Y-119134517D01*
X137631636Y-118178709D01*
X137990846Y-118178709D01*
X138946654Y-119134517D01*
X139008521Y-119112109D01*
X139081254Y-119220961D01*
X139308989Y-119448696D01*
X139309008Y-119448709D01*
X139308989Y-119448722D01*
X139081254Y-119676457D01*
X139008521Y-119785309D01*
X138946654Y-119762901D01*
X137990846Y-120718709D01*
X138946654Y-121674517D01*
X139008521Y-121652109D01*
X139081254Y-121760961D01*
X139308989Y-121988696D01*
X139576778Y-122167627D01*
X139874329Y-122290877D01*
X140190208Y-122353709D01*
X140512274Y-122353709D01*
X140828153Y-122290877D01*
X141125704Y-122167627D01*
X141393493Y-121988696D01*
X141621228Y-121760961D01*
X141800159Y-121493172D01*
X141923409Y-121195621D01*
X141986241Y-120879742D01*
X141986241Y-120557676D01*
X141923409Y-120241797D01*
X141800159Y-119944246D01*
X141621228Y-119676457D01*
X141393493Y-119448722D01*
X141393474Y-119448709D01*
X141393493Y-119448696D01*
X141621228Y-119220961D01*
X141800159Y-118953172D01*
X141923409Y-118655621D01*
X141986241Y-118339742D01*
X141986241Y-118017676D01*
X149016241Y-118017676D01*
X149016241Y-118339742D01*
X149079073Y-118655621D01*
X149202323Y-118953172D01*
X149381254Y-119220961D01*
X149608989Y-119448696D01*
X149609008Y-119448709D01*
X149608989Y-119448722D01*
X149381254Y-119676457D01*
X149202323Y-119944246D01*
X149079073Y-120241797D01*
X149016241Y-120557676D01*
X149016241Y-120879742D01*
X149079073Y-121195621D01*
X149202323Y-121493172D01*
X149381254Y-121760961D01*
X149608989Y-121988696D01*
X149876778Y-122167627D01*
X150174329Y-122290877D01*
X150490208Y-122353709D01*
X150812274Y-122353709D01*
X151128153Y-122290877D01*
X151425704Y-122167627D01*
X151693493Y-121988696D01*
X151921228Y-121760961D01*
X151921241Y-121760942D01*
X151921254Y-121760961D01*
X152148989Y-121988696D01*
X152416778Y-122167627D01*
X152714329Y-122290877D01*
X153030208Y-122353709D01*
X153352274Y-122353709D01*
X153668153Y-122290877D01*
X153965704Y-122167627D01*
X154233493Y-121988696D01*
X154461228Y-121760961D01*
X154461241Y-121760942D01*
X154461254Y-121760961D01*
X154688989Y-121988696D01*
X154956778Y-122167627D01*
X155254329Y-122290877D01*
X155570208Y-122353709D01*
X155892274Y-122353709D01*
X156208153Y-122290877D01*
X156505704Y-122167627D01*
X156773493Y-121988696D01*
X157001228Y-121760961D01*
X157001241Y-121760942D01*
X157001254Y-121760961D01*
X157228989Y-121988696D01*
X157496778Y-122167627D01*
X157794329Y-122290877D01*
X158110208Y-122353709D01*
X158432274Y-122353709D01*
X158748153Y-122290877D01*
X159045704Y-122167627D01*
X159313493Y-121988696D01*
X159448067Y-121854122D01*
X159855433Y-121854122D01*
X159951197Y-122118523D01*
X160240812Y-122259413D01*
X160552349Y-122341093D01*
X160873836Y-122360427D01*
X161192916Y-122316670D01*
X161497329Y-122211504D01*
X161671285Y-122118523D01*
X161767049Y-121854122D01*
X160811241Y-120898314D01*
X159855433Y-121854122D01*
X159448067Y-121854122D01*
X159541228Y-121760961D01*
X159613961Y-121652109D01*
X159675828Y-121674517D01*
X160631636Y-120718709D01*
X159675828Y-119762901D01*
X159613961Y-119785309D01*
X159541228Y-119676457D01*
X159313493Y-119448722D01*
X159313474Y-119448709D01*
X159313493Y-119448696D01*
X159448067Y-119314122D01*
X159855433Y-119314122D01*
X159904179Y-119448709D01*
X159855433Y-119583296D01*
X160811241Y-120539104D01*
X161767049Y-119583296D01*
X161718303Y-119448709D01*
X161767049Y-119314122D01*
X160811241Y-118358314D01*
X159855433Y-119314122D01*
X159448067Y-119314122D01*
X159541228Y-119220961D01*
X159613961Y-119112109D01*
X159675828Y-119134517D01*
X160631636Y-118178709D01*
X160990846Y-118178709D01*
X161946654Y-119134517D01*
X162008521Y-119112109D01*
X162081254Y-119220961D01*
X162308989Y-119448696D01*
X162309008Y-119448709D01*
X162308989Y-119448722D01*
X162081254Y-119676457D01*
X162008521Y-119785309D01*
X161946654Y-119762901D01*
X160990846Y-120718709D01*
X161946654Y-121674517D01*
X162008521Y-121652109D01*
X162081254Y-121760961D01*
X162308989Y-121988696D01*
X162576778Y-122167627D01*
X162874329Y-122290877D01*
X163190208Y-122353709D01*
X163512274Y-122353709D01*
X163828153Y-122290877D01*
X164125704Y-122167627D01*
X164393493Y-121988696D01*
X164621228Y-121760961D01*
X164800159Y-121493172D01*
X164923409Y-121195621D01*
X164986241Y-120879742D01*
X164986241Y-120557676D01*
X164923409Y-120241797D01*
X164800159Y-119944246D01*
X164621228Y-119676457D01*
X164393493Y-119448722D01*
X164393474Y-119448709D01*
X164393493Y-119448696D01*
X164621228Y-119220961D01*
X164800159Y-118953172D01*
X164923409Y-118655621D01*
X164986241Y-118339742D01*
X164986241Y-118017676D01*
X172016241Y-118017676D01*
X172016241Y-118339742D01*
X172079073Y-118655621D01*
X172202323Y-118953172D01*
X172381254Y-119220961D01*
X172608989Y-119448696D01*
X172609008Y-119448709D01*
X172608989Y-119448722D01*
X172381254Y-119676457D01*
X172202323Y-119944246D01*
X172079073Y-120241797D01*
X172016241Y-120557676D01*
X172016241Y-120879742D01*
X172079073Y-121195621D01*
X172202323Y-121493172D01*
X172381254Y-121760961D01*
X172608989Y-121988696D01*
X172876778Y-122167627D01*
X173174329Y-122290877D01*
X173490208Y-122353709D01*
X173812274Y-122353709D01*
X174128153Y-122290877D01*
X174425704Y-122167627D01*
X174693493Y-121988696D01*
X174921228Y-121760961D01*
X174921241Y-121760942D01*
X174921254Y-121760961D01*
X175148989Y-121988696D01*
X175416778Y-122167627D01*
X175714329Y-122290877D01*
X176030208Y-122353709D01*
X176352274Y-122353709D01*
X176668153Y-122290877D01*
X176965704Y-122167627D01*
X177233493Y-121988696D01*
X177461228Y-121760961D01*
X177461241Y-121760942D01*
X177461254Y-121760961D01*
X177688989Y-121988696D01*
X177956778Y-122167627D01*
X178254329Y-122290877D01*
X178570208Y-122353709D01*
X178892274Y-122353709D01*
X179208153Y-122290877D01*
X179505704Y-122167627D01*
X179773493Y-121988696D01*
X180001228Y-121760961D01*
X180001241Y-121760942D01*
X180001254Y-121760961D01*
X180228989Y-121988696D01*
X180496778Y-122167627D01*
X180794329Y-122290877D01*
X181110208Y-122353709D01*
X181432274Y-122353709D01*
X181748153Y-122290877D01*
X182045704Y-122167627D01*
X182313493Y-121988696D01*
X182448067Y-121854122D01*
X182855433Y-121854122D01*
X182951197Y-122118523D01*
X183240812Y-122259413D01*
X183552349Y-122341093D01*
X183873836Y-122360427D01*
X184192916Y-122316670D01*
X184497329Y-122211504D01*
X184671285Y-122118523D01*
X184767049Y-121854122D01*
X183811241Y-120898314D01*
X182855433Y-121854122D01*
X182448067Y-121854122D01*
X182541228Y-121760961D01*
X182613961Y-121652109D01*
X182675828Y-121674517D01*
X183631636Y-120718709D01*
X182675828Y-119762901D01*
X182613961Y-119785309D01*
X182541228Y-119676457D01*
X182313493Y-119448722D01*
X182313474Y-119448709D01*
X182313493Y-119448696D01*
X182448067Y-119314122D01*
X182855433Y-119314122D01*
X182904179Y-119448709D01*
X182855433Y-119583296D01*
X183811241Y-120539104D01*
X184767049Y-119583296D01*
X184718303Y-119448709D01*
X184767049Y-119314122D01*
X183811241Y-118358314D01*
X182855433Y-119314122D01*
X182448067Y-119314122D01*
X182541228Y-119220961D01*
X182613961Y-119112109D01*
X182675828Y-119134517D01*
X183631636Y-118178709D01*
X183990846Y-118178709D01*
X184946654Y-119134517D01*
X185008521Y-119112109D01*
X185081254Y-119220961D01*
X185308989Y-119448696D01*
X185309008Y-119448709D01*
X185308989Y-119448722D01*
X185081254Y-119676457D01*
X185008521Y-119785309D01*
X184946654Y-119762901D01*
X183990846Y-120718709D01*
X184946654Y-121674517D01*
X185008521Y-121652109D01*
X185081254Y-121760961D01*
X185308989Y-121988696D01*
X185576778Y-122167627D01*
X185874329Y-122290877D01*
X186190208Y-122353709D01*
X186512274Y-122353709D01*
X186828153Y-122290877D01*
X187125704Y-122167627D01*
X187393493Y-121988696D01*
X187621228Y-121760961D01*
X187800159Y-121493172D01*
X187923409Y-121195621D01*
X187986241Y-120879742D01*
X187986241Y-120557676D01*
X187923409Y-120241797D01*
X187800159Y-119944246D01*
X187621228Y-119676457D01*
X187393493Y-119448722D01*
X187393474Y-119448709D01*
X187393493Y-119448696D01*
X187621228Y-119220961D01*
X187800159Y-118953172D01*
X187923409Y-118655621D01*
X187986241Y-118339742D01*
X187986241Y-118017676D01*
X187923409Y-117701797D01*
X187800159Y-117404246D01*
X187621228Y-117136457D01*
X187393493Y-116908722D01*
X187125704Y-116729791D01*
X186828153Y-116606541D01*
X186512274Y-116543709D01*
X186190208Y-116543709D01*
X185874329Y-116606541D01*
X185576778Y-116729791D01*
X185308989Y-116908722D01*
X185081254Y-117136457D01*
X185008521Y-117245309D01*
X184946654Y-117222901D01*
X183990846Y-118178709D01*
X183631636Y-118178709D01*
X182675828Y-117222901D01*
X182613961Y-117245309D01*
X182541228Y-117136457D01*
X182448067Y-117043296D01*
X182855433Y-117043296D01*
X183811241Y-117999104D01*
X184767049Y-117043296D01*
X184671285Y-116778895D01*
X184381670Y-116638005D01*
X184070133Y-116556325D01*
X183748646Y-116536991D01*
X183429566Y-116580748D01*
X183125153Y-116685914D01*
X182951197Y-116778895D01*
X182855433Y-117043296D01*
X182448067Y-117043296D01*
X182313493Y-116908722D01*
X182045704Y-116729791D01*
X181748153Y-116606541D01*
X181432274Y-116543709D01*
X181110208Y-116543709D01*
X180794329Y-116606541D01*
X180496778Y-116729791D01*
X180228989Y-116908722D01*
X180001254Y-117136457D01*
X180001241Y-117136476D01*
X180001228Y-117136457D01*
X179773493Y-116908722D01*
X179505704Y-116729791D01*
X179208153Y-116606541D01*
X178892274Y-116543709D01*
X178570208Y-116543709D01*
X178254329Y-116606541D01*
X177956778Y-116729791D01*
X177688989Y-116908722D01*
X177461254Y-117136457D01*
X177461241Y-117136476D01*
X177461228Y-117136457D01*
X177233493Y-116908722D01*
X176965704Y-116729791D01*
X176668153Y-116606541D01*
X176352274Y-116543709D01*
X176030208Y-116543709D01*
X175714329Y-116606541D01*
X175416778Y-116729791D01*
X175148989Y-116908722D01*
X174921254Y-117136457D01*
X174921241Y-117136476D01*
X174921228Y-117136457D01*
X174693493Y-116908722D01*
X174425704Y-116729791D01*
X174128153Y-116606541D01*
X173812274Y-116543709D01*
X173490208Y-116543709D01*
X173174329Y-116606541D01*
X172876778Y-116729791D01*
X172608989Y-116908722D01*
X172381254Y-117136457D01*
X172202323Y-117404246D01*
X172079073Y-117701797D01*
X172016241Y-118017676D01*
X164986241Y-118017676D01*
X164923409Y-117701797D01*
X164800159Y-117404246D01*
X164621228Y-117136457D01*
X164393493Y-116908722D01*
X164125704Y-116729791D01*
X163828153Y-116606541D01*
X163512274Y-116543709D01*
X163190208Y-116543709D01*
X162874329Y-116606541D01*
X162576778Y-116729791D01*
X162308989Y-116908722D01*
X162081254Y-117136457D01*
X162008521Y-117245309D01*
X161946654Y-117222901D01*
X160990846Y-118178709D01*
X160631636Y-118178709D01*
X159675828Y-117222901D01*
X159613961Y-117245309D01*
X159541228Y-117136457D01*
X159448067Y-117043296D01*
X159855433Y-117043296D01*
X160811241Y-117999104D01*
X161767049Y-117043296D01*
X161671285Y-116778895D01*
X161381670Y-116638005D01*
X161070133Y-116556325D01*
X160748646Y-116536991D01*
X160429566Y-116580748D01*
X160125153Y-116685914D01*
X159951197Y-116778895D01*
X159855433Y-117043296D01*
X159448067Y-117043296D01*
X159313493Y-116908722D01*
X159045704Y-116729791D01*
X158748153Y-116606541D01*
X158432274Y-116543709D01*
X158110208Y-116543709D01*
X157794329Y-116606541D01*
X157496778Y-116729791D01*
X157228989Y-116908722D01*
X157001254Y-117136457D01*
X157001241Y-117136476D01*
X157001228Y-117136457D01*
X156773493Y-116908722D01*
X156505704Y-116729791D01*
X156208153Y-116606541D01*
X155892274Y-116543709D01*
X155570208Y-116543709D01*
X155254329Y-116606541D01*
X154956778Y-116729791D01*
X154688989Y-116908722D01*
X154461254Y-117136457D01*
X154461241Y-117136476D01*
X154461228Y-117136457D01*
X154233493Y-116908722D01*
X153965704Y-116729791D01*
X153668153Y-116606541D01*
X153352274Y-116543709D01*
X153030208Y-116543709D01*
X152714329Y-116606541D01*
X152416778Y-116729791D01*
X152148989Y-116908722D01*
X151921254Y-117136457D01*
X151921241Y-117136476D01*
X151921228Y-117136457D01*
X151693493Y-116908722D01*
X151425704Y-116729791D01*
X151128153Y-116606541D01*
X150812274Y-116543709D01*
X150490208Y-116543709D01*
X150174329Y-116606541D01*
X149876778Y-116729791D01*
X149608989Y-116908722D01*
X149381254Y-117136457D01*
X149202323Y-117404246D01*
X149079073Y-117701797D01*
X149016241Y-118017676D01*
X141986241Y-118017676D01*
X141923409Y-117701797D01*
X141800159Y-117404246D01*
X141621228Y-117136457D01*
X141393493Y-116908722D01*
X141125704Y-116729791D01*
X140828153Y-116606541D01*
X140512274Y-116543709D01*
X140190208Y-116543709D01*
X139874329Y-116606541D01*
X139576778Y-116729791D01*
X139308989Y-116908722D01*
X139081254Y-117136457D01*
X139008521Y-117245309D01*
X138946654Y-117222901D01*
X137990846Y-118178709D01*
X137631636Y-118178709D01*
X136675828Y-117222901D01*
X136613961Y-117245309D01*
X136541228Y-117136457D01*
X136448067Y-117043296D01*
X136855433Y-117043296D01*
X137811241Y-117999104D01*
X138767049Y-117043296D01*
X138671285Y-116778895D01*
X138381670Y-116638005D01*
X138070133Y-116556325D01*
X137748646Y-116536991D01*
X137429566Y-116580748D01*
X137125153Y-116685914D01*
X136951197Y-116778895D01*
X136855433Y-117043296D01*
X136448067Y-117043296D01*
X136313493Y-116908722D01*
X136045704Y-116729791D01*
X135748153Y-116606541D01*
X135432274Y-116543709D01*
X135110208Y-116543709D01*
X134794329Y-116606541D01*
X134496778Y-116729791D01*
X134228989Y-116908722D01*
X134001254Y-117136457D01*
X134001241Y-117136476D01*
X134001228Y-117136457D01*
X133773493Y-116908722D01*
X133505704Y-116729791D01*
X133208153Y-116606541D01*
X132892274Y-116543709D01*
X132570208Y-116543709D01*
X132254329Y-116606541D01*
X131956778Y-116729791D01*
X131688989Y-116908722D01*
X131461254Y-117136457D01*
X131461241Y-117136476D01*
X131461228Y-117136457D01*
X131233493Y-116908722D01*
X130965704Y-116729791D01*
X130668153Y-116606541D01*
X130352274Y-116543709D01*
X130030208Y-116543709D01*
X129714329Y-116606541D01*
X129416778Y-116729791D01*
X129148989Y-116908722D01*
X128921254Y-117136457D01*
X128921241Y-117136476D01*
X128921228Y-117136457D01*
X128693493Y-116908722D01*
X128425704Y-116729791D01*
X128128153Y-116606541D01*
X127812274Y-116543709D01*
X127490208Y-116543709D01*
X127174329Y-116606541D01*
X126876778Y-116729791D01*
X126608989Y-116908722D01*
X126381254Y-117136457D01*
X126202323Y-117404246D01*
X126079073Y-117701797D01*
X126016241Y-118017676D01*
X105546421Y-118017676D01*
X105552232Y-117912156D01*
X105509638Y-117612802D01*
X105409463Y-117327510D01*
X105329502Y-117177917D01*
X105075321Y-117094234D01*
X104190846Y-117978709D01*
X103831636Y-117978709D01*
X102947161Y-117094234D01*
X102692980Y-117177917D01*
X102562083Y-117450484D01*
X102486876Y-117743351D01*
X102470250Y-118045262D01*
X91886241Y-118045262D01*
X91886241Y-110827525D01*
X102476241Y-110827525D01*
X102476241Y-111129893D01*
X102535230Y-111426452D01*
X102650942Y-111705804D01*
X102818929Y-111957214D01*
X103032736Y-112171021D01*
X103119072Y-112228709D01*
X103032736Y-112286397D01*
X102818929Y-112500204D01*
X102650942Y-112751614D01*
X102535230Y-113030966D01*
X102476241Y-113327525D01*
X102476241Y-113629893D01*
X102535230Y-113926452D01*
X102650942Y-114205804D01*
X102818929Y-114457214D01*
X102840424Y-114478709D01*
X102818929Y-114500204D01*
X102650942Y-114751614D01*
X102535230Y-115030966D01*
X102476241Y-115327525D01*
X102476241Y-115629893D01*
X102535230Y-115926452D01*
X102650942Y-116205804D01*
X102818929Y-116457214D01*
X103032736Y-116671021D01*
X103175551Y-116766447D01*
X103126766Y-116914629D01*
X104011241Y-117799104D01*
X104895716Y-116914629D01*
X104846931Y-116766447D01*
X104989746Y-116671021D01*
X105203553Y-116457214D01*
X105371540Y-116205804D01*
X105487252Y-115926452D01*
X105546241Y-115629893D01*
X105546241Y-115327525D01*
X105487252Y-115030966D01*
X105371540Y-114751614D01*
X105355508Y-114727620D01*
X121281241Y-114727620D01*
X121281241Y-114911798D01*
X121317173Y-115092438D01*
X121387655Y-115262598D01*
X121489979Y-115415737D01*
X121620213Y-115545971D01*
X121773352Y-115648295D01*
X121943512Y-115718777D01*
X122124152Y-115754709D01*
X122308330Y-115754709D01*
X122488970Y-115718777D01*
X122659130Y-115648295D01*
X122812269Y-115545971D01*
X122942503Y-115415737D01*
X123044827Y-115262598D01*
X123115309Y-115092438D01*
X123151241Y-114911798D01*
X123151241Y-114894911D01*
X146486500Y-114894911D01*
X146486500Y-115079089D01*
X146522432Y-115259729D01*
X146592914Y-115429889D01*
X146695238Y-115583028D01*
X146825472Y-115713262D01*
X146978611Y-115815586D01*
X147148771Y-115886068D01*
X147329411Y-115922000D01*
X147513589Y-115922000D01*
X147694229Y-115886068D01*
X147796500Y-115843706D01*
X147898771Y-115886068D01*
X148079411Y-115922000D01*
X148263589Y-115922000D01*
X148444229Y-115886068D01*
X148614389Y-115815586D01*
X148767528Y-115713262D01*
X148897762Y-115583028D01*
X149000086Y-115429889D01*
X149070568Y-115259729D01*
X149106500Y-115079089D01*
X149106500Y-114894911D01*
X165028500Y-114894911D01*
X165028500Y-115079089D01*
X165064432Y-115259729D01*
X165134914Y-115429889D01*
X165237238Y-115583028D01*
X165367472Y-115713262D01*
X165520611Y-115815586D01*
X165690771Y-115886068D01*
X165871411Y-115922000D01*
X166055589Y-115922000D01*
X166236229Y-115886068D01*
X166338500Y-115843706D01*
X166440771Y-115886068D01*
X166621411Y-115922000D01*
X166805589Y-115922000D01*
X166986229Y-115886068D01*
X167156389Y-115815586D01*
X167309528Y-115713262D01*
X167439762Y-115583028D01*
X167542086Y-115429889D01*
X167612568Y-115259729D01*
X167648500Y-115079089D01*
X167648500Y-114894911D01*
X167612568Y-114714271D01*
X167542086Y-114544111D01*
X167439762Y-114390972D01*
X167309528Y-114260738D01*
X167156389Y-114158414D01*
X166986229Y-114087932D01*
X166805589Y-114052000D01*
X166621411Y-114052000D01*
X166440771Y-114087932D01*
X166338500Y-114130294D01*
X166236229Y-114087932D01*
X166055589Y-114052000D01*
X165871411Y-114052000D01*
X165690771Y-114087932D01*
X165520611Y-114158414D01*
X165367472Y-114260738D01*
X165237238Y-114390972D01*
X165134914Y-114544111D01*
X165064432Y-114714271D01*
X165028500Y-114894911D01*
X149106500Y-114894911D01*
X149070568Y-114714271D01*
X149000086Y-114544111D01*
X148897762Y-114390972D01*
X148767528Y-114260738D01*
X148614389Y-114158414D01*
X148444229Y-114087932D01*
X148263589Y-114052000D01*
X148079411Y-114052000D01*
X147898771Y-114087932D01*
X147796500Y-114130294D01*
X147694229Y-114087932D01*
X147513589Y-114052000D01*
X147329411Y-114052000D01*
X147148771Y-114087932D01*
X146978611Y-114158414D01*
X146825472Y-114260738D01*
X146695238Y-114390972D01*
X146592914Y-114544111D01*
X146522432Y-114714271D01*
X146486500Y-114894911D01*
X123151241Y-114894911D01*
X123151241Y-114727620D01*
X123115309Y-114546980D01*
X123044827Y-114376820D01*
X122942503Y-114223681D01*
X122812269Y-114093447D01*
X122659130Y-113991123D01*
X122488970Y-113920641D01*
X122308330Y-113884709D01*
X122124152Y-113884709D01*
X121943512Y-113920641D01*
X121773352Y-113991123D01*
X121620213Y-114093447D01*
X121489979Y-114223681D01*
X121387655Y-114376820D01*
X121317173Y-114546980D01*
X121281241Y-114727620D01*
X105355508Y-114727620D01*
X105203553Y-114500204D01*
X105182058Y-114478709D01*
X105203553Y-114457214D01*
X105371540Y-114205804D01*
X105487252Y-113926452D01*
X105546241Y-113629893D01*
X105546241Y-113327525D01*
X105534226Y-113267120D01*
X111248241Y-113267120D01*
X111248241Y-113451298D01*
X111284173Y-113631938D01*
X111354655Y-113802098D01*
X111456979Y-113955237D01*
X111587213Y-114085471D01*
X111740352Y-114187795D01*
X111910512Y-114258277D01*
X112091152Y-114294209D01*
X112275330Y-114294209D01*
X112455970Y-114258277D01*
X112626130Y-114187795D01*
X112779269Y-114085471D01*
X112909503Y-113955237D01*
X113011827Y-113802098D01*
X113082309Y-113631938D01*
X113118241Y-113451298D01*
X113118241Y-113267120D01*
X113082309Y-113086480D01*
X113075250Y-113069437D01*
X114224809Y-113069437D01*
X114224809Y-113253615D01*
X114260741Y-113434255D01*
X114331223Y-113604415D01*
X114433547Y-113757554D01*
X114563781Y-113887788D01*
X114716920Y-113990112D01*
X114887080Y-114060594D01*
X115067720Y-114096526D01*
X115251898Y-114096526D01*
X115432538Y-114060594D01*
X115602698Y-113990112D01*
X115755837Y-113887788D01*
X115868505Y-113775120D01*
X191131241Y-113775120D01*
X191131241Y-113959298D01*
X191167173Y-114139938D01*
X191237655Y-114310098D01*
X191339979Y-114463237D01*
X191470213Y-114593471D01*
X191623352Y-114695795D01*
X191793512Y-114766277D01*
X191974152Y-114802209D01*
X192158330Y-114802209D01*
X192338970Y-114766277D01*
X192509130Y-114695795D01*
X192662269Y-114593471D01*
X192792503Y-114463237D01*
X192894827Y-114310098D01*
X192965309Y-114139938D01*
X193001241Y-113959298D01*
X193001241Y-113775120D01*
X193417241Y-113775120D01*
X193417241Y-113959298D01*
X193453173Y-114139938D01*
X193523655Y-114310098D01*
X193625979Y-114463237D01*
X193756213Y-114593471D01*
X193909352Y-114695795D01*
X194079512Y-114766277D01*
X194260152Y-114802209D01*
X194444330Y-114802209D01*
X194624970Y-114766277D01*
X194795130Y-114695795D01*
X194948269Y-114593471D01*
X195078503Y-114463237D01*
X195180827Y-114310098D01*
X195251309Y-114139938D01*
X195287241Y-113959298D01*
X195287241Y-113775120D01*
X195639741Y-113775120D01*
X195639741Y-113959298D01*
X195675673Y-114139938D01*
X195746155Y-114310098D01*
X195848479Y-114463237D01*
X195978713Y-114593471D01*
X196131852Y-114695795D01*
X196302012Y-114766277D01*
X196482652Y-114802209D01*
X196666830Y-114802209D01*
X196847470Y-114766277D01*
X197017630Y-114695795D01*
X197170769Y-114593471D01*
X197301003Y-114463237D01*
X197403327Y-114310098D01*
X197473809Y-114139938D01*
X197509741Y-113959298D01*
X197509741Y-113775120D01*
X197473809Y-113594480D01*
X197403327Y-113424320D01*
X197301003Y-113271181D01*
X197170769Y-113140947D01*
X197017630Y-113038623D01*
X196847470Y-112968141D01*
X196666830Y-112932209D01*
X196482652Y-112932209D01*
X196302012Y-112968141D01*
X196131852Y-113038623D01*
X195978713Y-113140947D01*
X195848479Y-113271181D01*
X195746155Y-113424320D01*
X195675673Y-113594480D01*
X195639741Y-113775120D01*
X195287241Y-113775120D01*
X195251309Y-113594480D01*
X195180827Y-113424320D01*
X195078503Y-113271181D01*
X194948269Y-113140947D01*
X194795130Y-113038623D01*
X194624970Y-112968141D01*
X194444330Y-112932209D01*
X194260152Y-112932209D01*
X194079512Y-112968141D01*
X193909352Y-113038623D01*
X193756213Y-113140947D01*
X193625979Y-113271181D01*
X193523655Y-113424320D01*
X193453173Y-113594480D01*
X193417241Y-113775120D01*
X193001241Y-113775120D01*
X192965309Y-113594480D01*
X192894827Y-113424320D01*
X192792503Y-113271181D01*
X192662269Y-113140947D01*
X192509130Y-113038623D01*
X192338970Y-112968141D01*
X192158330Y-112932209D01*
X191974152Y-112932209D01*
X191793512Y-112968141D01*
X191623352Y-113038623D01*
X191470213Y-113140947D01*
X191339979Y-113271181D01*
X191237655Y-113424320D01*
X191167173Y-113594480D01*
X191131241Y-113775120D01*
X115868505Y-113775120D01*
X115886071Y-113757554D01*
X115988395Y-113604415D01*
X116058877Y-113434255D01*
X116094809Y-113253615D01*
X116094809Y-113069437D01*
X116058877Y-112888797D01*
X115988395Y-112718637D01*
X115886071Y-112565498D01*
X115755837Y-112435264D01*
X115602698Y-112332940D01*
X115432538Y-112262458D01*
X115251898Y-112226526D01*
X115067720Y-112226526D01*
X114887080Y-112262458D01*
X114716920Y-112332940D01*
X114563781Y-112435264D01*
X114433547Y-112565498D01*
X114331223Y-112718637D01*
X114260741Y-112888797D01*
X114224809Y-113069437D01*
X113075250Y-113069437D01*
X113011827Y-112916320D01*
X112909503Y-112763181D01*
X112779269Y-112632947D01*
X112626130Y-112530623D01*
X112455970Y-112460141D01*
X112275330Y-112424209D01*
X112091152Y-112424209D01*
X111910512Y-112460141D01*
X111740352Y-112530623D01*
X111587213Y-112632947D01*
X111456979Y-112763181D01*
X111354655Y-112916320D01*
X111284173Y-113086480D01*
X111248241Y-113267120D01*
X105534226Y-113267120D01*
X105487252Y-113030966D01*
X105371540Y-112751614D01*
X105203553Y-112500204D01*
X104989746Y-112286397D01*
X104903410Y-112228709D01*
X104989746Y-112171021D01*
X105203553Y-111957214D01*
X105371540Y-111705804D01*
X105382385Y-111679620D01*
X117026741Y-111679620D01*
X117026741Y-111863798D01*
X117062673Y-112044438D01*
X117133155Y-112214598D01*
X117235479Y-112367737D01*
X117365713Y-112497971D01*
X117518852Y-112600295D01*
X117689012Y-112670777D01*
X117869652Y-112706709D01*
X118053830Y-112706709D01*
X118234470Y-112670777D01*
X118404630Y-112600295D01*
X118557769Y-112497971D01*
X118688003Y-112367737D01*
X118790327Y-112214598D01*
X118860809Y-112044438D01*
X118895067Y-111872213D01*
X118911119Y-111865564D01*
X119064258Y-111763240D01*
X119142328Y-111685170D01*
X120798067Y-111685170D01*
X120798067Y-111869348D01*
X120833999Y-112049988D01*
X120904481Y-112220148D01*
X121006805Y-112373287D01*
X121137039Y-112503521D01*
X121290178Y-112605845D01*
X121460338Y-112676327D01*
X121640978Y-112712259D01*
X121825156Y-112712259D01*
X122005796Y-112676327D01*
X122175956Y-112605845D01*
X122329095Y-112503521D01*
X122459329Y-112373287D01*
X122561653Y-112220148D01*
X122632135Y-112049988D01*
X122668067Y-111869348D01*
X122668067Y-111685170D01*
X122638996Y-111539020D01*
X122639516Y-111538500D01*
X122741840Y-111385361D01*
X122812322Y-111215201D01*
X122848254Y-111034561D01*
X122848254Y-110850383D01*
X122812322Y-110669743D01*
X122741840Y-110499583D01*
X122639516Y-110346444D01*
X122509282Y-110216210D01*
X122356143Y-110113886D01*
X122185983Y-110043404D01*
X122005343Y-110007472D01*
X121821165Y-110007472D01*
X121640525Y-110043404D01*
X121470365Y-110113886D01*
X121317226Y-110216210D01*
X121186992Y-110346444D01*
X121084668Y-110499583D01*
X121014186Y-110669743D01*
X120978254Y-110850383D01*
X120978254Y-111034561D01*
X121007325Y-111180711D01*
X121006805Y-111181231D01*
X120904481Y-111334370D01*
X120833999Y-111504530D01*
X120798067Y-111685170D01*
X119142328Y-111685170D01*
X119194492Y-111633006D01*
X119296816Y-111479867D01*
X119367298Y-111309707D01*
X119403230Y-111129067D01*
X119403230Y-110944889D01*
X119367298Y-110764249D01*
X119296816Y-110594089D01*
X119194492Y-110440950D01*
X119170409Y-110416867D01*
X119181513Y-110409447D01*
X119311747Y-110279213D01*
X119414071Y-110126074D01*
X119484553Y-109955914D01*
X119520485Y-109775274D01*
X119520485Y-109591096D01*
X119519098Y-109584120D01*
X122995741Y-109584120D01*
X122995741Y-109768298D01*
X123031673Y-109948938D01*
X123102155Y-110119098D01*
X123204479Y-110272237D01*
X123334713Y-110402471D01*
X123487852Y-110504795D01*
X123658012Y-110575277D01*
X123838652Y-110611209D01*
X124022830Y-110611209D01*
X124203470Y-110575277D01*
X124373630Y-110504795D01*
X124526769Y-110402471D01*
X124657003Y-110272237D01*
X124759327Y-110119098D01*
X124829809Y-109948938D01*
X124865741Y-109768298D01*
X124865741Y-109584120D01*
X124829809Y-109403480D01*
X124759327Y-109233320D01*
X124657003Y-109080181D01*
X124526769Y-108949947D01*
X124373630Y-108847623D01*
X124203470Y-108777141D01*
X124110360Y-108758620D01*
X129028241Y-108758620D01*
X129028241Y-108942798D01*
X129064173Y-109123438D01*
X129134655Y-109293598D01*
X129236979Y-109446737D01*
X129367213Y-109576971D01*
X129520352Y-109679295D01*
X129690512Y-109749777D01*
X129871152Y-109785709D01*
X130055330Y-109785709D01*
X130235970Y-109749777D01*
X130329297Y-109711120D01*
X134679741Y-109711120D01*
X134679741Y-109895298D01*
X134715673Y-110075938D01*
X134786155Y-110246098D01*
X134888479Y-110399237D01*
X135018713Y-110529471D01*
X135171852Y-110631795D01*
X135342012Y-110702277D01*
X135522652Y-110738209D01*
X135706830Y-110738209D01*
X135762577Y-110727120D01*
X137918241Y-110727120D01*
X137918241Y-110911298D01*
X137954173Y-111091938D01*
X138024655Y-111262098D01*
X138126979Y-111415237D01*
X138257213Y-111545471D01*
X138410352Y-111647795D01*
X138580512Y-111718277D01*
X138761152Y-111754209D01*
X138945330Y-111754209D01*
X139125970Y-111718277D01*
X139296130Y-111647795D01*
X139449269Y-111545471D01*
X139579503Y-111415237D01*
X139681827Y-111262098D01*
X139752309Y-111091938D01*
X139788241Y-110911298D01*
X139788241Y-110727120D01*
X139752309Y-110546480D01*
X139681827Y-110376320D01*
X139579503Y-110223181D01*
X139449269Y-110092947D01*
X139352997Y-110028620D01*
X173097241Y-110028620D01*
X173097241Y-110212798D01*
X173133173Y-110393438D01*
X173203655Y-110563598D01*
X173305979Y-110716737D01*
X173436213Y-110846971D01*
X173589352Y-110949295D01*
X173759512Y-111019777D01*
X173940152Y-111055709D01*
X174124330Y-111055709D01*
X174304970Y-111019777D01*
X174475130Y-110949295D01*
X174628269Y-110846971D01*
X174758503Y-110716737D01*
X174860827Y-110563598D01*
X174931309Y-110393438D01*
X174967241Y-110212798D01*
X174967241Y-110028620D01*
X175573741Y-110028620D01*
X175573741Y-110212798D01*
X175609673Y-110393438D01*
X175680155Y-110563598D01*
X175782479Y-110716737D01*
X175912713Y-110846971D01*
X176065852Y-110949295D01*
X176236012Y-111019777D01*
X176416652Y-111055709D01*
X176600830Y-111055709D01*
X176781470Y-111019777D01*
X176951630Y-110949295D01*
X177104769Y-110846971D01*
X177235003Y-110716737D01*
X177337327Y-110563598D01*
X177407809Y-110393438D01*
X177443741Y-110212798D01*
X177443741Y-110028620D01*
X178113741Y-110028620D01*
X178113741Y-110212798D01*
X178149673Y-110393438D01*
X178220155Y-110563598D01*
X178322479Y-110716737D01*
X178452713Y-110846971D01*
X178605852Y-110949295D01*
X178776012Y-111019777D01*
X178956652Y-111055709D01*
X179140830Y-111055709D01*
X179321470Y-111019777D01*
X179491630Y-110949295D01*
X179644769Y-110846971D01*
X179775003Y-110716737D01*
X179877327Y-110563598D01*
X179947809Y-110393438D01*
X179983741Y-110212798D01*
X179983741Y-110028620D01*
X180717241Y-110028620D01*
X180717241Y-110212798D01*
X180753173Y-110393438D01*
X180823655Y-110563598D01*
X180925979Y-110716737D01*
X181056213Y-110846971D01*
X181209352Y-110949295D01*
X181379512Y-111019777D01*
X181560152Y-111055709D01*
X181744330Y-111055709D01*
X181924970Y-111019777D01*
X182095130Y-110949295D01*
X182248269Y-110846971D01*
X182378503Y-110716737D01*
X182480827Y-110563598D01*
X182551309Y-110393438D01*
X182587241Y-110212798D01*
X182587241Y-110028620D01*
X182551309Y-109847980D01*
X182480827Y-109677820D01*
X182378503Y-109524681D01*
X182248269Y-109394447D01*
X182095130Y-109292123D01*
X181924970Y-109221641D01*
X181748910Y-109186620D01*
X194336241Y-109186620D01*
X194336241Y-109370798D01*
X194372173Y-109551438D01*
X194442655Y-109721598D01*
X194544979Y-109874737D01*
X194675213Y-110004971D01*
X194828352Y-110107295D01*
X194998512Y-110177777D01*
X195179152Y-110213709D01*
X195363330Y-110213709D01*
X195543970Y-110177777D01*
X195714130Y-110107295D01*
X195867269Y-110004971D01*
X195997503Y-109874737D01*
X196099827Y-109721598D01*
X196170309Y-109551438D01*
X196206241Y-109370798D01*
X196206241Y-109186620D01*
X196170309Y-109005980D01*
X196099827Y-108835820D01*
X195997503Y-108682681D01*
X195867269Y-108552447D01*
X195714130Y-108450123D01*
X195543970Y-108379641D01*
X195363330Y-108343709D01*
X195179152Y-108343709D01*
X194998512Y-108379641D01*
X194828352Y-108450123D01*
X194675213Y-108552447D01*
X194544979Y-108682681D01*
X194442655Y-108835820D01*
X194372173Y-109005980D01*
X194336241Y-109186620D01*
X181748910Y-109186620D01*
X181744330Y-109185709D01*
X181560152Y-109185709D01*
X181379512Y-109221641D01*
X181209352Y-109292123D01*
X181056213Y-109394447D01*
X180925979Y-109524681D01*
X180823655Y-109677820D01*
X180753173Y-109847980D01*
X180717241Y-110028620D01*
X179983741Y-110028620D01*
X179947809Y-109847980D01*
X179877327Y-109677820D01*
X179775003Y-109524681D01*
X179644769Y-109394447D01*
X179491630Y-109292123D01*
X179321470Y-109221641D01*
X179140830Y-109185709D01*
X178956652Y-109185709D01*
X178776012Y-109221641D01*
X178605852Y-109292123D01*
X178452713Y-109394447D01*
X178322479Y-109524681D01*
X178220155Y-109677820D01*
X178149673Y-109847980D01*
X178113741Y-110028620D01*
X177443741Y-110028620D01*
X177407809Y-109847980D01*
X177337327Y-109677820D01*
X177235003Y-109524681D01*
X177104769Y-109394447D01*
X176951630Y-109292123D01*
X176781470Y-109221641D01*
X176600830Y-109185709D01*
X176416652Y-109185709D01*
X176236012Y-109221641D01*
X176065852Y-109292123D01*
X175912713Y-109394447D01*
X175782479Y-109524681D01*
X175680155Y-109677820D01*
X175609673Y-109847980D01*
X175573741Y-110028620D01*
X174967241Y-110028620D01*
X174931309Y-109847980D01*
X174860827Y-109677820D01*
X174758503Y-109524681D01*
X174628269Y-109394447D01*
X174475130Y-109292123D01*
X174304970Y-109221641D01*
X174124330Y-109185709D01*
X173940152Y-109185709D01*
X173759512Y-109221641D01*
X173589352Y-109292123D01*
X173436213Y-109394447D01*
X173305979Y-109524681D01*
X173203655Y-109677820D01*
X173133173Y-109847980D01*
X173097241Y-110028620D01*
X139352997Y-110028620D01*
X139296130Y-109990623D01*
X139125970Y-109920141D01*
X138945330Y-109884209D01*
X138761152Y-109884209D01*
X138580512Y-109920141D01*
X138410352Y-109990623D01*
X138257213Y-110092947D01*
X138126979Y-110223181D01*
X138024655Y-110376320D01*
X137954173Y-110546480D01*
X137918241Y-110727120D01*
X135762577Y-110727120D01*
X135887470Y-110702277D01*
X136057630Y-110631795D01*
X136210769Y-110529471D01*
X136341003Y-110399237D01*
X136443327Y-110246098D01*
X136513809Y-110075938D01*
X136549741Y-109895298D01*
X136549741Y-109711120D01*
X136513809Y-109530480D01*
X136443327Y-109360320D01*
X136341003Y-109207181D01*
X136210769Y-109076947D01*
X136057630Y-108974623D01*
X135887470Y-108904141D01*
X135706830Y-108868209D01*
X135522652Y-108868209D01*
X135342012Y-108904141D01*
X135171852Y-108974623D01*
X135018713Y-109076947D01*
X134888479Y-109207181D01*
X134786155Y-109360320D01*
X134715673Y-109530480D01*
X134679741Y-109711120D01*
X130329297Y-109711120D01*
X130406130Y-109679295D01*
X130559269Y-109576971D01*
X130689503Y-109446737D01*
X130791827Y-109293598D01*
X130862309Y-109123438D01*
X130898241Y-108942798D01*
X130898241Y-108758620D01*
X130862309Y-108577980D01*
X130791827Y-108407820D01*
X130689503Y-108254681D01*
X130559269Y-108124447D01*
X130406130Y-108022123D01*
X130235970Y-107951641D01*
X130055330Y-107915709D01*
X129871152Y-107915709D01*
X129690512Y-107951641D01*
X129520352Y-108022123D01*
X129367213Y-108124447D01*
X129236979Y-108254681D01*
X129134655Y-108407820D01*
X129064173Y-108577980D01*
X129028241Y-108758620D01*
X124110360Y-108758620D01*
X124022830Y-108741209D01*
X123838652Y-108741209D01*
X123658012Y-108777141D01*
X123487852Y-108847623D01*
X123334713Y-108949947D01*
X123204479Y-109080181D01*
X123102155Y-109233320D01*
X123031673Y-109403480D01*
X122995741Y-109584120D01*
X119519098Y-109584120D01*
X119484553Y-109410456D01*
X119414071Y-109240296D01*
X119311747Y-109087157D01*
X119181513Y-108956923D01*
X119028374Y-108854599D01*
X118858214Y-108784117D01*
X118677574Y-108748185D01*
X118493396Y-108748185D01*
X118312756Y-108784117D01*
X118142596Y-108854599D01*
X117989457Y-108956923D01*
X117859223Y-109087157D01*
X117756899Y-109240296D01*
X117686417Y-109410456D01*
X117650485Y-109591096D01*
X117650485Y-109775274D01*
X117686417Y-109955914D01*
X117756899Y-110126074D01*
X117859223Y-110279213D01*
X117883306Y-110303296D01*
X117872202Y-110310716D01*
X117741968Y-110440950D01*
X117639644Y-110594089D01*
X117569162Y-110764249D01*
X117534904Y-110936474D01*
X117518852Y-110943123D01*
X117365713Y-111045447D01*
X117235479Y-111175681D01*
X117133155Y-111328820D01*
X117062673Y-111498980D01*
X117026741Y-111679620D01*
X105382385Y-111679620D01*
X105487252Y-111426452D01*
X105546241Y-111129893D01*
X105546241Y-110827525D01*
X105487252Y-110530966D01*
X105371540Y-110251614D01*
X105203553Y-110000204D01*
X104989746Y-109786397D01*
X104738336Y-109618410D01*
X104458984Y-109502698D01*
X104162425Y-109443709D01*
X103860057Y-109443709D01*
X103563498Y-109502698D01*
X103284146Y-109618410D01*
X103032736Y-109786397D01*
X102818929Y-110000204D01*
X102650942Y-110251614D01*
X102535230Y-110530966D01*
X102476241Y-110827525D01*
X91886241Y-110827525D01*
X91886241Y-109507144D01*
X99882411Y-109507144D01*
X100056464Y-109838063D01*
X100456781Y-110043834D01*
X100889549Y-110167555D01*
X101338139Y-110204468D01*
X101785311Y-110153158D01*
X102213880Y-110015594D01*
X102546018Y-109838063D01*
X102720071Y-109507144D01*
X101301241Y-108088314D01*
X99882411Y-109507144D01*
X91886241Y-109507144D01*
X91886241Y-107945607D01*
X99005482Y-107945607D01*
X99056792Y-108392779D01*
X99194356Y-108821348D01*
X99371887Y-109153486D01*
X99702806Y-109327539D01*
X101121636Y-107908709D01*
X101480846Y-107908709D01*
X102899676Y-109327539D01*
X103230595Y-109153486D01*
X103335643Y-108949120D01*
X112899241Y-108949120D01*
X112899241Y-109133298D01*
X112935173Y-109313938D01*
X113005655Y-109484098D01*
X113107979Y-109637237D01*
X113238213Y-109767471D01*
X113391352Y-109869795D01*
X113561512Y-109940277D01*
X113742152Y-109976209D01*
X113926330Y-109976209D01*
X114106970Y-109940277D01*
X114277130Y-109869795D01*
X114430269Y-109767471D01*
X114560503Y-109637237D01*
X114662827Y-109484098D01*
X114733309Y-109313938D01*
X114769241Y-109133298D01*
X114769241Y-108949120D01*
X114733309Y-108768480D01*
X114662827Y-108598320D01*
X114560503Y-108445181D01*
X114430269Y-108314947D01*
X114277130Y-108212623D01*
X114106970Y-108142141D01*
X113926330Y-108106209D01*
X113742152Y-108106209D01*
X113561512Y-108142141D01*
X113391352Y-108212623D01*
X113238213Y-108314947D01*
X113107979Y-108445181D01*
X113005655Y-108598320D01*
X112935173Y-108768480D01*
X112899241Y-108949120D01*
X103335643Y-108949120D01*
X103436366Y-108753169D01*
X103560087Y-108320401D01*
X103597000Y-107871811D01*
X103545690Y-107424639D01*
X103484697Y-107234620D01*
X126107241Y-107234620D01*
X126107241Y-107418798D01*
X126143173Y-107599438D01*
X126213655Y-107769598D01*
X126315979Y-107922737D01*
X126446213Y-108052971D01*
X126599352Y-108155295D01*
X126769512Y-108225777D01*
X126950152Y-108261709D01*
X127134330Y-108261709D01*
X127314970Y-108225777D01*
X127485130Y-108155295D01*
X127638269Y-108052971D01*
X127768503Y-107922737D01*
X127870827Y-107769598D01*
X127941309Y-107599438D01*
X127977241Y-107418798D01*
X127977241Y-107286077D01*
X155232334Y-107286077D01*
X155232334Y-107470255D01*
X155268266Y-107650895D01*
X155338748Y-107821055D01*
X155441072Y-107974194D01*
X155571306Y-108104428D01*
X155724445Y-108206752D01*
X155894605Y-108277234D01*
X156075245Y-108313166D01*
X156259423Y-108313166D01*
X156440063Y-108277234D01*
X156610223Y-108206752D01*
X156763362Y-108104428D01*
X156893596Y-107974194D01*
X156952110Y-107886620D01*
X182136241Y-107886620D01*
X182136241Y-108070798D01*
X182172173Y-108251438D01*
X182242655Y-108421598D01*
X182344979Y-108574737D01*
X182475213Y-108704971D01*
X182628352Y-108807295D01*
X182798512Y-108877777D01*
X182979152Y-108913709D01*
X183163330Y-108913709D01*
X183343970Y-108877777D01*
X183514130Y-108807295D01*
X183667269Y-108704971D01*
X183797503Y-108574737D01*
X183899827Y-108421598D01*
X183970309Y-108251438D01*
X184006241Y-108070798D01*
X184006241Y-107886620D01*
X187136241Y-107886620D01*
X187136241Y-108070798D01*
X187172173Y-108251438D01*
X187242655Y-108421598D01*
X187344979Y-108574737D01*
X187475213Y-108704971D01*
X187628352Y-108807295D01*
X187798512Y-108877777D01*
X187979152Y-108913709D01*
X188163330Y-108913709D01*
X188343970Y-108877777D01*
X188514130Y-108807295D01*
X188667269Y-108704971D01*
X188797503Y-108574737D01*
X188899827Y-108421598D01*
X188970309Y-108251438D01*
X189006241Y-108070798D01*
X189006241Y-107886620D01*
X188970309Y-107705980D01*
X188899827Y-107535820D01*
X188797503Y-107382681D01*
X188667269Y-107252447D01*
X188514130Y-107150123D01*
X188343970Y-107079641D01*
X188163330Y-107043709D01*
X187979152Y-107043709D01*
X187798512Y-107079641D01*
X187628352Y-107150123D01*
X187475213Y-107252447D01*
X187344979Y-107382681D01*
X187242655Y-107535820D01*
X187172173Y-107705980D01*
X187136241Y-107886620D01*
X184006241Y-107886620D01*
X183970309Y-107705980D01*
X183899827Y-107535820D01*
X183797503Y-107382681D01*
X183667269Y-107252447D01*
X183514130Y-107150123D01*
X183343970Y-107079641D01*
X183163330Y-107043709D01*
X182979152Y-107043709D01*
X182798512Y-107079641D01*
X182628352Y-107150123D01*
X182475213Y-107252447D01*
X182344979Y-107382681D01*
X182242655Y-107535820D01*
X182172173Y-107705980D01*
X182136241Y-107886620D01*
X156952110Y-107886620D01*
X156995920Y-107821055D01*
X157038282Y-107718782D01*
X157140555Y-107676420D01*
X157293694Y-107574096D01*
X157423928Y-107443862D01*
X157526252Y-107290723D01*
X157596734Y-107120563D01*
X157632666Y-106939923D01*
X157632666Y-106755745D01*
X157596734Y-106575105D01*
X157526252Y-106404945D01*
X157423928Y-106251806D01*
X157293694Y-106121572D01*
X157140555Y-106019248D01*
X156970395Y-105948766D01*
X156789755Y-105912834D01*
X156605577Y-105912834D01*
X156424937Y-105948766D01*
X156254777Y-106019248D01*
X156101638Y-106121572D01*
X155971404Y-106251806D01*
X155869080Y-106404945D01*
X155826718Y-106507218D01*
X155724445Y-106549580D01*
X155571306Y-106651904D01*
X155441072Y-106782138D01*
X155338748Y-106935277D01*
X155268266Y-107105437D01*
X155232334Y-107286077D01*
X127977241Y-107286077D01*
X127977241Y-107234620D01*
X127941309Y-107053980D01*
X127870827Y-106883820D01*
X127768503Y-106730681D01*
X127638269Y-106600447D01*
X127485130Y-106498123D01*
X127314970Y-106427641D01*
X127134330Y-106391709D01*
X126950152Y-106391709D01*
X126769512Y-106427641D01*
X126599352Y-106498123D01*
X126446213Y-106600447D01*
X126315979Y-106730681D01*
X126213655Y-106883820D01*
X126143173Y-107053980D01*
X126107241Y-107234620D01*
X103484697Y-107234620D01*
X103408126Y-106996070D01*
X103230595Y-106663932D01*
X102899676Y-106489879D01*
X101480846Y-107908709D01*
X101121636Y-107908709D01*
X99702806Y-106489879D01*
X99371887Y-106663932D01*
X99166116Y-107064249D01*
X99042395Y-107497017D01*
X99005482Y-107945607D01*
X91886241Y-107945607D01*
X91886241Y-106310274D01*
X99882411Y-106310274D01*
X101301241Y-107729104D01*
X102720071Y-106310274D01*
X102546018Y-105979355D01*
X102145701Y-105773584D01*
X101925458Y-105710620D01*
X185733741Y-105710620D01*
X185733741Y-105894798D01*
X185769673Y-106075438D01*
X185840155Y-106245598D01*
X185942479Y-106398737D01*
X186072713Y-106528971D01*
X186225852Y-106631295D01*
X186396012Y-106701777D01*
X186576652Y-106737709D01*
X186760830Y-106737709D01*
X186941470Y-106701777D01*
X187111630Y-106631295D01*
X187264769Y-106528971D01*
X187395003Y-106398737D01*
X187497327Y-106245598D01*
X187567809Y-106075438D01*
X187603741Y-105894798D01*
X187603741Y-105710620D01*
X187567809Y-105529980D01*
X187497327Y-105359820D01*
X187395003Y-105206681D01*
X187264769Y-105076447D01*
X187111630Y-104974123D01*
X186941470Y-104903641D01*
X186760830Y-104867709D01*
X186576652Y-104867709D01*
X186396012Y-104903641D01*
X186225852Y-104974123D01*
X186072713Y-105076447D01*
X185942479Y-105206681D01*
X185840155Y-105359820D01*
X185769673Y-105529980D01*
X185733741Y-105710620D01*
X101925458Y-105710620D01*
X101712933Y-105649863D01*
X101264343Y-105612950D01*
X100817171Y-105664260D01*
X100388602Y-105801824D01*
X100056464Y-105979355D01*
X99882411Y-106310274D01*
X91886241Y-106310274D01*
X91886241Y-102069894D01*
X94108923Y-102069894D01*
X94123068Y-102141393D01*
X94229099Y-102392577D01*
X94382096Y-102618249D01*
X94576180Y-102809737D01*
X94803892Y-102959681D01*
X95056481Y-103062320D01*
X95324241Y-103113709D01*
X95924241Y-103113709D01*
X95924241Y-101855709D01*
X96178241Y-101855709D01*
X96178241Y-103113709D01*
X96778241Y-103113709D01*
X97046001Y-103062320D01*
X97298590Y-102959681D01*
X97526302Y-102809737D01*
X97720386Y-102618249D01*
X97873383Y-102392577D01*
X97979414Y-102141393D01*
X97993559Y-102069894D01*
X99808923Y-102069894D01*
X99823068Y-102141393D01*
X99929099Y-102392577D01*
X100082096Y-102618249D01*
X100276180Y-102809737D01*
X100503892Y-102959681D01*
X100756481Y-103062320D01*
X101024241Y-103113709D01*
X101924241Y-103113709D01*
X101924241Y-101855709D01*
X102178241Y-101855709D01*
X102178241Y-103113709D01*
X103078241Y-103113709D01*
X103346001Y-103062320D01*
X103598590Y-102959681D01*
X103826302Y-102809737D01*
X104020386Y-102618249D01*
X104127620Y-102460077D01*
X149644334Y-102460077D01*
X149644334Y-102644255D01*
X149680266Y-102824895D01*
X149750748Y-102995055D01*
X149853072Y-103148194D01*
X149983306Y-103278428D01*
X150136445Y-103380752D01*
X150306605Y-103451234D01*
X150487245Y-103487166D01*
X150671423Y-103487166D01*
X150852063Y-103451234D01*
X151022223Y-103380752D01*
X151175362Y-103278428D01*
X151305596Y-103148194D01*
X151407920Y-102995055D01*
X151450282Y-102892782D01*
X151552555Y-102850420D01*
X151705694Y-102748096D01*
X151835928Y-102617862D01*
X151938252Y-102464723D01*
X152008734Y-102294563D01*
X152044666Y-102113923D01*
X152044666Y-101929745D01*
X152008734Y-101749105D01*
X151938252Y-101578945D01*
X151835928Y-101425806D01*
X151705694Y-101295572D01*
X151692297Y-101286620D01*
X195136241Y-101286620D01*
X195136241Y-101470798D01*
X195172173Y-101651438D01*
X195242655Y-101821598D01*
X195344979Y-101974737D01*
X195475213Y-102104971D01*
X195628352Y-102207295D01*
X195798512Y-102277777D01*
X195979152Y-102313709D01*
X196163330Y-102313709D01*
X196343970Y-102277777D01*
X196514130Y-102207295D01*
X196667269Y-102104971D01*
X196797503Y-101974737D01*
X196899827Y-101821598D01*
X196970309Y-101651438D01*
X197006241Y-101470798D01*
X197006241Y-101286620D01*
X196970309Y-101105980D01*
X196899827Y-100935820D01*
X196797503Y-100782681D01*
X196667269Y-100652447D01*
X196514130Y-100550123D01*
X196343970Y-100479641D01*
X196163330Y-100443709D01*
X195979152Y-100443709D01*
X195798512Y-100479641D01*
X195628352Y-100550123D01*
X195475213Y-100652447D01*
X195344979Y-100782681D01*
X195242655Y-100935820D01*
X195172173Y-101105980D01*
X195136241Y-101286620D01*
X151692297Y-101286620D01*
X151552555Y-101193248D01*
X151382395Y-101122766D01*
X151201755Y-101086834D01*
X151017577Y-101086834D01*
X150836937Y-101122766D01*
X150666777Y-101193248D01*
X150513638Y-101295572D01*
X150383404Y-101425806D01*
X150281080Y-101578945D01*
X150238718Y-101681218D01*
X150136445Y-101723580D01*
X149983306Y-101825904D01*
X149853072Y-101956138D01*
X149750748Y-102109277D01*
X149680266Y-102279437D01*
X149644334Y-102460077D01*
X104127620Y-102460077D01*
X104173383Y-102392577D01*
X104279414Y-102141393D01*
X104293559Y-102069894D01*
X104170897Y-101855709D01*
X102178241Y-101855709D01*
X101924241Y-101855709D01*
X99931585Y-101855709D01*
X99808923Y-102069894D01*
X97993559Y-102069894D01*
X97870897Y-101855709D01*
X96178241Y-101855709D01*
X95924241Y-101855709D01*
X94231585Y-101855709D01*
X94108923Y-102069894D01*
X91886241Y-102069894D01*
X91886241Y-101387524D01*
X94108923Y-101387524D01*
X94231585Y-101601709D01*
X95924241Y-101601709D01*
X95924241Y-100343709D01*
X96178241Y-100343709D01*
X96178241Y-101601709D01*
X97870897Y-101601709D01*
X97993559Y-101387524D01*
X99808923Y-101387524D01*
X99931585Y-101601709D01*
X101924241Y-101601709D01*
X101924241Y-100343709D01*
X102178241Y-100343709D01*
X102178241Y-101601709D01*
X104170897Y-101601709D01*
X104293559Y-101387524D01*
X104279414Y-101316025D01*
X104173383Y-101064841D01*
X104020386Y-100839169D01*
X103826302Y-100647681D01*
X103598590Y-100497737D01*
X103346001Y-100395098D01*
X103078241Y-100343709D01*
X102178241Y-100343709D01*
X101924241Y-100343709D01*
X101024241Y-100343709D01*
X100756481Y-100395098D01*
X100503892Y-100497737D01*
X100276180Y-100647681D01*
X100082096Y-100839169D01*
X99929099Y-101064841D01*
X99823068Y-101316025D01*
X99808923Y-101387524D01*
X97993559Y-101387524D01*
X97979414Y-101316025D01*
X97873383Y-101064841D01*
X97720386Y-100839169D01*
X97526302Y-100647681D01*
X97298590Y-100497737D01*
X97046001Y-100395098D01*
X96778241Y-100343709D01*
X96178241Y-100343709D01*
X95924241Y-100343709D01*
X95324241Y-100343709D01*
X95056481Y-100395098D01*
X94803892Y-100497737D01*
X94576180Y-100647681D01*
X94382096Y-100839169D01*
X94229099Y-101064841D01*
X94123068Y-101316025D01*
X94108923Y-101387524D01*
X91886241Y-101387524D01*
X91886241Y-98486620D01*
X112416241Y-98486620D01*
X112416241Y-98670798D01*
X112452173Y-98851438D01*
X112522655Y-99021598D01*
X112624979Y-99174737D01*
X112755213Y-99304971D01*
X112908352Y-99407295D01*
X113078512Y-99477777D01*
X113259152Y-99513709D01*
X113443330Y-99513709D01*
X113623970Y-99477777D01*
X113794130Y-99407295D01*
X113947269Y-99304971D01*
X114077503Y-99174737D01*
X114179827Y-99021598D01*
X114250309Y-98851438D01*
X114286241Y-98670798D01*
X114286241Y-98486620D01*
X114250309Y-98305980D01*
X114179827Y-98135820D01*
X114077503Y-97982681D01*
X113947269Y-97852447D01*
X113794130Y-97750123D01*
X113623970Y-97679641D01*
X113443330Y-97643709D01*
X113259152Y-97643709D01*
X113078512Y-97679641D01*
X112908352Y-97750123D01*
X112755213Y-97852447D01*
X112624979Y-97982681D01*
X112522655Y-98135820D01*
X112452173Y-98305980D01*
X112416241Y-98486620D01*
X91886241Y-98486620D01*
X91886241Y-95486620D01*
X112416241Y-95486620D01*
X112416241Y-95670798D01*
X112452173Y-95851438D01*
X112522655Y-96021598D01*
X112624979Y-96174737D01*
X112755213Y-96304971D01*
X112908352Y-96407295D01*
X113078512Y-96477777D01*
X113259152Y-96513709D01*
X113443330Y-96513709D01*
X113623970Y-96477777D01*
X113794130Y-96407295D01*
X113947269Y-96304971D01*
X114077503Y-96174737D01*
X114179827Y-96021598D01*
X114250309Y-95851438D01*
X114286241Y-95670798D01*
X114286241Y-95486620D01*
X114250309Y-95305980D01*
X114179827Y-95135820D01*
X114077503Y-94982681D01*
X113947269Y-94852447D01*
X113794130Y-94750123D01*
X113623970Y-94679641D01*
X113443330Y-94643709D01*
X113259152Y-94643709D01*
X113078512Y-94679641D01*
X112908352Y-94750123D01*
X112755213Y-94852447D01*
X112624979Y-94982681D01*
X112522655Y-95135820D01*
X112452173Y-95305980D01*
X112416241Y-95486620D01*
X91886241Y-95486620D01*
X91886241Y-89886620D01*
X99516241Y-89886620D01*
X99516241Y-90070798D01*
X99552173Y-90251438D01*
X99622655Y-90421598D01*
X99724979Y-90574737D01*
X99855213Y-90704971D01*
X100008352Y-90807295D01*
X100178512Y-90877777D01*
X100359152Y-90913709D01*
X100543330Y-90913709D01*
X100723970Y-90877777D01*
X100894130Y-90807295D01*
X101047269Y-90704971D01*
X101177503Y-90574737D01*
X101279827Y-90421598D01*
X101294315Y-90386620D01*
X103916241Y-90386620D01*
X103916241Y-90570798D01*
X103952173Y-90751438D01*
X104022655Y-90921598D01*
X104060815Y-90978709D01*
X104022655Y-91035820D01*
X103952173Y-91205980D01*
X103916241Y-91386620D01*
X103916241Y-91570798D01*
X103952173Y-91751438D01*
X104022655Y-91921598D01*
X104124979Y-92074737D01*
X104255213Y-92204971D01*
X104408352Y-92307295D01*
X104578512Y-92377777D01*
X104759152Y-92413709D01*
X104943330Y-92413709D01*
X105123970Y-92377777D01*
X105294130Y-92307295D01*
X105447269Y-92204971D01*
X105577503Y-92074737D01*
X105679827Y-91921598D01*
X105750309Y-91751438D01*
X105786241Y-91570798D01*
X105786241Y-91386620D01*
X105750309Y-91205980D01*
X105700869Y-91086620D01*
X107016241Y-91086620D01*
X107016241Y-91270798D01*
X107052173Y-91451438D01*
X107122655Y-91621598D01*
X107224979Y-91774737D01*
X107355213Y-91904971D01*
X107508352Y-92007295D01*
X107678512Y-92077777D01*
X107859152Y-92113709D01*
X108043330Y-92113709D01*
X108223970Y-92077777D01*
X108394130Y-92007295D01*
X108547269Y-91904971D01*
X108677503Y-91774737D01*
X108779827Y-91621598D01*
X108850309Y-91451438D01*
X108886241Y-91270798D01*
X108886241Y-91086620D01*
X108850309Y-90905980D01*
X108779827Y-90735820D01*
X108677503Y-90582681D01*
X108547269Y-90452447D01*
X108394130Y-90350123D01*
X108223970Y-90279641D01*
X108043330Y-90243709D01*
X107859152Y-90243709D01*
X107678512Y-90279641D01*
X107508352Y-90350123D01*
X107355213Y-90452447D01*
X107224979Y-90582681D01*
X107122655Y-90735820D01*
X107052173Y-90905980D01*
X107016241Y-91086620D01*
X105700869Y-91086620D01*
X105679827Y-91035820D01*
X105641667Y-90978709D01*
X105679827Y-90921598D01*
X105750309Y-90751438D01*
X105786241Y-90570798D01*
X105786241Y-90386620D01*
X105750309Y-90205980D01*
X105679827Y-90035820D01*
X105577503Y-89882681D01*
X105447269Y-89752447D01*
X105294130Y-89650123D01*
X105123970Y-89579641D01*
X104943330Y-89543709D01*
X104759152Y-89543709D01*
X104578512Y-89579641D01*
X104408352Y-89650123D01*
X104255213Y-89752447D01*
X104124979Y-89882681D01*
X104022655Y-90035820D01*
X103952173Y-90205980D01*
X103916241Y-90386620D01*
X101294315Y-90386620D01*
X101350309Y-90251438D01*
X101386241Y-90070798D01*
X101386241Y-89886620D01*
X101350309Y-89705980D01*
X101279827Y-89535820D01*
X101177503Y-89382681D01*
X101047269Y-89252447D01*
X100894130Y-89150123D01*
X100723970Y-89079641D01*
X100543330Y-89043709D01*
X100359152Y-89043709D01*
X100178512Y-89079641D01*
X100008352Y-89150123D01*
X99855213Y-89252447D01*
X99724979Y-89382681D01*
X99622655Y-89535820D01*
X99552173Y-89705980D01*
X99516241Y-89886620D01*
X91886241Y-89886620D01*
X91886241Y-87569894D01*
X94108923Y-87569894D01*
X94123068Y-87641393D01*
X94229099Y-87892577D01*
X94382096Y-88118249D01*
X94576180Y-88309737D01*
X94803892Y-88459681D01*
X95056481Y-88562320D01*
X95324241Y-88613709D01*
X95924241Y-88613709D01*
X95924241Y-87355709D01*
X96178241Y-87355709D01*
X96178241Y-88613709D01*
X96778241Y-88613709D01*
X97046001Y-88562320D01*
X97298590Y-88459681D01*
X97526302Y-88309737D01*
X97720386Y-88118249D01*
X97873383Y-87892577D01*
X97979414Y-87641393D01*
X97993559Y-87569894D01*
X99808923Y-87569894D01*
X99823068Y-87641393D01*
X99929099Y-87892577D01*
X100082096Y-88118249D01*
X100276180Y-88309737D01*
X100503892Y-88459681D01*
X100756481Y-88562320D01*
X101024241Y-88613709D01*
X101924241Y-88613709D01*
X101924241Y-87355709D01*
X102178241Y-87355709D01*
X102178241Y-88613709D01*
X103078241Y-88613709D01*
X103346001Y-88562320D01*
X103598590Y-88459681D01*
X103826302Y-88309737D01*
X104020386Y-88118249D01*
X104173383Y-87892577D01*
X104279414Y-87641393D01*
X104293559Y-87569894D01*
X104170897Y-87355709D01*
X102178241Y-87355709D01*
X101924241Y-87355709D01*
X99931585Y-87355709D01*
X99808923Y-87569894D01*
X97993559Y-87569894D01*
X97870897Y-87355709D01*
X96178241Y-87355709D01*
X95924241Y-87355709D01*
X94231585Y-87355709D01*
X94108923Y-87569894D01*
X91886241Y-87569894D01*
X91886241Y-86887524D01*
X94108923Y-86887524D01*
X94231585Y-87101709D01*
X95924241Y-87101709D01*
X95924241Y-85843709D01*
X96178241Y-85843709D01*
X96178241Y-87101709D01*
X97870897Y-87101709D01*
X97993559Y-86887524D01*
X99808923Y-86887524D01*
X99931585Y-87101709D01*
X101924241Y-87101709D01*
X101924241Y-85843709D01*
X102178241Y-85843709D01*
X102178241Y-87101709D01*
X104170897Y-87101709D01*
X104293559Y-86887524D01*
X104293381Y-86886620D01*
X105516241Y-86886620D01*
X105516241Y-87070798D01*
X105552173Y-87251438D01*
X105622655Y-87421598D01*
X105724979Y-87574737D01*
X105855213Y-87704971D01*
X106008352Y-87807295D01*
X106178512Y-87877777D01*
X106183197Y-87878709D01*
X106178512Y-87879641D01*
X106008352Y-87950123D01*
X105855213Y-88052447D01*
X105724979Y-88182681D01*
X105622655Y-88335820D01*
X105552173Y-88505980D01*
X105516241Y-88686620D01*
X105516241Y-88870798D01*
X105552173Y-89051438D01*
X105622655Y-89221598D01*
X105724979Y-89374737D01*
X105855213Y-89504971D01*
X106008352Y-89607295D01*
X106178512Y-89677777D01*
X106359152Y-89713709D01*
X106543330Y-89713709D01*
X106723970Y-89677777D01*
X106894130Y-89607295D01*
X107047269Y-89504971D01*
X107177503Y-89374737D01*
X107279827Y-89221598D01*
X107350309Y-89051438D01*
X107386241Y-88870798D01*
X107386241Y-88686620D01*
X107350309Y-88505980D01*
X107279827Y-88335820D01*
X107177503Y-88182681D01*
X107047269Y-88052447D01*
X106894130Y-87950123D01*
X106723970Y-87879641D01*
X106719285Y-87878709D01*
X106723970Y-87877777D01*
X106894130Y-87807295D01*
X107047269Y-87704971D01*
X107177503Y-87574737D01*
X107279827Y-87421598D01*
X107350309Y-87251438D01*
X107386241Y-87070798D01*
X107386241Y-86886620D01*
X107350309Y-86705980D01*
X107279827Y-86535820D01*
X107177503Y-86382681D01*
X107047269Y-86252447D01*
X106894130Y-86150123D01*
X106723970Y-86079641D01*
X106543330Y-86043709D01*
X106359152Y-86043709D01*
X106178512Y-86079641D01*
X106008352Y-86150123D01*
X105855213Y-86252447D01*
X105724979Y-86382681D01*
X105622655Y-86535820D01*
X105552173Y-86705980D01*
X105516241Y-86886620D01*
X104293381Y-86886620D01*
X104279414Y-86816025D01*
X104173383Y-86564841D01*
X104020386Y-86339169D01*
X103826302Y-86147681D01*
X103598590Y-85997737D01*
X103346001Y-85895098D01*
X103078241Y-85843709D01*
X102178241Y-85843709D01*
X101924241Y-85843709D01*
X101024241Y-85843709D01*
X100756481Y-85895098D01*
X100503892Y-85997737D01*
X100276180Y-86147681D01*
X100082096Y-86339169D01*
X99929099Y-86564841D01*
X99823068Y-86816025D01*
X99808923Y-86887524D01*
X97993559Y-86887524D01*
X97979414Y-86816025D01*
X97873383Y-86564841D01*
X97720386Y-86339169D01*
X97526302Y-86147681D01*
X97298590Y-85997737D01*
X97046001Y-85895098D01*
X96778241Y-85843709D01*
X96178241Y-85843709D01*
X95924241Y-85843709D01*
X95324241Y-85843709D01*
X95056481Y-85895098D01*
X94803892Y-85997737D01*
X94576180Y-86147681D01*
X94382096Y-86339169D01*
X94229099Y-86564841D01*
X94123068Y-86816025D01*
X94108923Y-86887524D01*
X91886241Y-86887524D01*
X91886241Y-85213709D01*
X199816242Y-85213709D01*
X199816241Y-123743709D01*
M02*
