G04 #@! TF.GenerationSoftware,KiCad,Pcbnew,5.1.5+dfsg1-2~bpo10+1*
G04 #@! TF.CreationDate,2020-02-13T23:10:00+01:00*
G04 #@! TF.ProjectId,arty-a7-expansion,61727479-2d61-4372-9d65-7870616e7369,rev?*
G04 #@! TF.SameCoordinates,Original*
G04 #@! TF.FileFunction,Soldermask,Bot*
G04 #@! TF.FilePolarity,Negative*
%FSLAX46Y46*%
G04 Gerber Fmt 4.6, Leading zero omitted, Abs format (unit mm)*
G04 Created by KiCad (PCBNEW 5.1.5+dfsg1-2~bpo10+1) date 2020-02-13 23:10:00*
%MOMM*%
%LPD*%
G04 APERTURE LIST*
%ADD10C,0.100000*%
G04 APERTURE END LIST*
D10*
G36*
X101797403Y-119413077D02*
G01*
X102106965Y-119541302D01*
X102106966Y-119541303D01*
X102385565Y-119727456D01*
X102622494Y-119964385D01*
X102678855Y-120048736D01*
X102808648Y-120242985D01*
X102936873Y-120552547D01*
X103002241Y-120881174D01*
X103002241Y-121216244D01*
X102936873Y-121544871D01*
X102808648Y-121854433D01*
X102808647Y-121854434D01*
X102622494Y-122133033D01*
X102385565Y-122369962D01*
X102199411Y-122494346D01*
X102106965Y-122556116D01*
X101797403Y-122684341D01*
X101468776Y-122749709D01*
X101133706Y-122749709D01*
X100805079Y-122684341D01*
X100495517Y-122556116D01*
X100403071Y-122494346D01*
X100216917Y-122369962D01*
X99979988Y-122133033D01*
X99793835Y-121854434D01*
X99793834Y-121854433D01*
X99665609Y-121544871D01*
X99600241Y-121216244D01*
X99600241Y-120881174D01*
X99665609Y-120552547D01*
X99793834Y-120242985D01*
X99923627Y-120048736D01*
X99979988Y-119964385D01*
X100216917Y-119727456D01*
X100495516Y-119541303D01*
X100495517Y-119541302D01*
X100805079Y-119413077D01*
X101133706Y-119347709D01*
X101468776Y-119347709D01*
X101797403Y-119413077D01*
G37*
G36*
X179037805Y-119708098D02*
G01*
X179229074Y-119787324D01*
X179229076Y-119787325D01*
X179401214Y-119902344D01*
X179547606Y-120048736D01*
X179662626Y-120220876D01*
X179741852Y-120412145D01*
X179782241Y-120615193D01*
X179782241Y-120822225D01*
X179741852Y-121025273D01*
X179662750Y-121216243D01*
X179662625Y-121216544D01*
X179547606Y-121388682D01*
X179401214Y-121535074D01*
X179229076Y-121650093D01*
X179229075Y-121650094D01*
X179229074Y-121650094D01*
X179037805Y-121729320D01*
X178834757Y-121769709D01*
X178627725Y-121769709D01*
X178424677Y-121729320D01*
X178233408Y-121650094D01*
X178233407Y-121650094D01*
X178233406Y-121650093D01*
X178061268Y-121535074D01*
X177914876Y-121388682D01*
X177799857Y-121216544D01*
X177799732Y-121216243D01*
X177720630Y-121025273D01*
X177680241Y-120822225D01*
X177680241Y-120615193D01*
X177720630Y-120412145D01*
X177799856Y-120220876D01*
X177914876Y-120048736D01*
X178061268Y-119902344D01*
X178233406Y-119787325D01*
X178233408Y-119787324D01*
X178424677Y-119708098D01*
X178627725Y-119667709D01*
X178834757Y-119667709D01*
X179037805Y-119708098D01*
G37*
G36*
X140657805Y-119708098D02*
G01*
X140849074Y-119787324D01*
X140849076Y-119787325D01*
X141021214Y-119902344D01*
X141167606Y-120048736D01*
X141282626Y-120220876D01*
X141361852Y-120412145D01*
X141402241Y-120615193D01*
X141402241Y-120822225D01*
X141361852Y-121025273D01*
X141282750Y-121216243D01*
X141282625Y-121216544D01*
X141167606Y-121388682D01*
X141021214Y-121535074D01*
X140849076Y-121650093D01*
X140849075Y-121650094D01*
X140849074Y-121650094D01*
X140657805Y-121729320D01*
X140454757Y-121769709D01*
X140247725Y-121769709D01*
X140044677Y-121729320D01*
X139853408Y-121650094D01*
X139853407Y-121650094D01*
X139853406Y-121650093D01*
X139681268Y-121535074D01*
X139534876Y-121388682D01*
X139419857Y-121216544D01*
X139419732Y-121216243D01*
X139340630Y-121025273D01*
X139300241Y-120822225D01*
X139300241Y-120615193D01*
X139340630Y-120412145D01*
X139419856Y-120220876D01*
X139534876Y-120048736D01*
X139681268Y-119902344D01*
X139853406Y-119787325D01*
X139853408Y-119787324D01*
X140044677Y-119708098D01*
X140247725Y-119667709D01*
X140454757Y-119667709D01*
X140657805Y-119708098D01*
G37*
G36*
X138117805Y-119708098D02*
G01*
X138309074Y-119787324D01*
X138309076Y-119787325D01*
X138481214Y-119902344D01*
X138627606Y-120048736D01*
X138742626Y-120220876D01*
X138821852Y-120412145D01*
X138862241Y-120615193D01*
X138862241Y-120822225D01*
X138821852Y-121025273D01*
X138742750Y-121216243D01*
X138742625Y-121216544D01*
X138627606Y-121388682D01*
X138481214Y-121535074D01*
X138309076Y-121650093D01*
X138309075Y-121650094D01*
X138309074Y-121650094D01*
X138117805Y-121729320D01*
X137914757Y-121769709D01*
X137707725Y-121769709D01*
X137504677Y-121729320D01*
X137313408Y-121650094D01*
X137313407Y-121650094D01*
X137313406Y-121650093D01*
X137141268Y-121535074D01*
X136994876Y-121388682D01*
X136879857Y-121216544D01*
X136879732Y-121216243D01*
X136800630Y-121025273D01*
X136760241Y-120822225D01*
X136760241Y-120615193D01*
X136800630Y-120412145D01*
X136879856Y-120220876D01*
X136994876Y-120048736D01*
X137141268Y-119902344D01*
X137313406Y-119787325D01*
X137313408Y-119787324D01*
X137504677Y-119708098D01*
X137707725Y-119667709D01*
X137914757Y-119667709D01*
X138117805Y-119708098D01*
G37*
G36*
X135577805Y-119708098D02*
G01*
X135769074Y-119787324D01*
X135769076Y-119787325D01*
X135941214Y-119902344D01*
X136087606Y-120048736D01*
X136202626Y-120220876D01*
X136281852Y-120412145D01*
X136322241Y-120615193D01*
X136322241Y-120822225D01*
X136281852Y-121025273D01*
X136202750Y-121216243D01*
X136202625Y-121216544D01*
X136087606Y-121388682D01*
X135941214Y-121535074D01*
X135769076Y-121650093D01*
X135769075Y-121650094D01*
X135769074Y-121650094D01*
X135577805Y-121729320D01*
X135374757Y-121769709D01*
X135167725Y-121769709D01*
X134964677Y-121729320D01*
X134773408Y-121650094D01*
X134773407Y-121650094D01*
X134773406Y-121650093D01*
X134601268Y-121535074D01*
X134454876Y-121388682D01*
X134339857Y-121216544D01*
X134339732Y-121216243D01*
X134260630Y-121025273D01*
X134220241Y-120822225D01*
X134220241Y-120615193D01*
X134260630Y-120412145D01*
X134339856Y-120220876D01*
X134454876Y-120048736D01*
X134601268Y-119902344D01*
X134773406Y-119787325D01*
X134773408Y-119787324D01*
X134964677Y-119708098D01*
X135167725Y-119667709D01*
X135374757Y-119667709D01*
X135577805Y-119708098D01*
G37*
G36*
X133037805Y-119708098D02*
G01*
X133229074Y-119787324D01*
X133229076Y-119787325D01*
X133401214Y-119902344D01*
X133547606Y-120048736D01*
X133662626Y-120220876D01*
X133741852Y-120412145D01*
X133782241Y-120615193D01*
X133782241Y-120822225D01*
X133741852Y-121025273D01*
X133662750Y-121216243D01*
X133662625Y-121216544D01*
X133547606Y-121388682D01*
X133401214Y-121535074D01*
X133229076Y-121650093D01*
X133229075Y-121650094D01*
X133229074Y-121650094D01*
X133037805Y-121729320D01*
X132834757Y-121769709D01*
X132627725Y-121769709D01*
X132424677Y-121729320D01*
X132233408Y-121650094D01*
X132233407Y-121650094D01*
X132233406Y-121650093D01*
X132061268Y-121535074D01*
X131914876Y-121388682D01*
X131799857Y-121216544D01*
X131799732Y-121216243D01*
X131720630Y-121025273D01*
X131680241Y-120822225D01*
X131680241Y-120615193D01*
X131720630Y-120412145D01*
X131799856Y-120220876D01*
X131914876Y-120048736D01*
X132061268Y-119902344D01*
X132233406Y-119787325D01*
X132233408Y-119787324D01*
X132424677Y-119708098D01*
X132627725Y-119667709D01*
X132834757Y-119667709D01*
X133037805Y-119708098D01*
G37*
G36*
X130497805Y-119708098D02*
G01*
X130689074Y-119787324D01*
X130689076Y-119787325D01*
X130861214Y-119902344D01*
X131007606Y-120048736D01*
X131122626Y-120220876D01*
X131201852Y-120412145D01*
X131242241Y-120615193D01*
X131242241Y-120822225D01*
X131201852Y-121025273D01*
X131122750Y-121216243D01*
X131122625Y-121216544D01*
X131007606Y-121388682D01*
X130861214Y-121535074D01*
X130689076Y-121650093D01*
X130689075Y-121650094D01*
X130689074Y-121650094D01*
X130497805Y-121729320D01*
X130294757Y-121769709D01*
X130087725Y-121769709D01*
X129884677Y-121729320D01*
X129693408Y-121650094D01*
X129693407Y-121650094D01*
X129693406Y-121650093D01*
X129521268Y-121535074D01*
X129374876Y-121388682D01*
X129259857Y-121216544D01*
X129259732Y-121216243D01*
X129180630Y-121025273D01*
X129140241Y-120822225D01*
X129140241Y-120615193D01*
X129180630Y-120412145D01*
X129259856Y-120220876D01*
X129374876Y-120048736D01*
X129521268Y-119902344D01*
X129693406Y-119787325D01*
X129693408Y-119787324D01*
X129884677Y-119708098D01*
X130087725Y-119667709D01*
X130294757Y-119667709D01*
X130497805Y-119708098D01*
G37*
G36*
X127957805Y-119708098D02*
G01*
X128149074Y-119787324D01*
X128149076Y-119787325D01*
X128321214Y-119902344D01*
X128467606Y-120048736D01*
X128582626Y-120220876D01*
X128661852Y-120412145D01*
X128702241Y-120615193D01*
X128702241Y-120822225D01*
X128661852Y-121025273D01*
X128582750Y-121216243D01*
X128582625Y-121216544D01*
X128467606Y-121388682D01*
X128321214Y-121535074D01*
X128149076Y-121650093D01*
X128149075Y-121650094D01*
X128149074Y-121650094D01*
X127957805Y-121729320D01*
X127754757Y-121769709D01*
X127547725Y-121769709D01*
X127344677Y-121729320D01*
X127153408Y-121650094D01*
X127153407Y-121650094D01*
X127153406Y-121650093D01*
X126981268Y-121535074D01*
X126834876Y-121388682D01*
X126719857Y-121216544D01*
X126719732Y-121216243D01*
X126640630Y-121025273D01*
X126600241Y-120822225D01*
X126600241Y-120615193D01*
X126640630Y-120412145D01*
X126719856Y-120220876D01*
X126834876Y-120048736D01*
X126981268Y-119902344D01*
X127153406Y-119787325D01*
X127153408Y-119787324D01*
X127344677Y-119708098D01*
X127547725Y-119667709D01*
X127754757Y-119667709D01*
X127957805Y-119708098D01*
G37*
G36*
X184117805Y-119708098D02*
G01*
X184309074Y-119787324D01*
X184309076Y-119787325D01*
X184481214Y-119902344D01*
X184627606Y-120048736D01*
X184742626Y-120220876D01*
X184821852Y-120412145D01*
X184862241Y-120615193D01*
X184862241Y-120822225D01*
X184821852Y-121025273D01*
X184742750Y-121216243D01*
X184742625Y-121216544D01*
X184627606Y-121388682D01*
X184481214Y-121535074D01*
X184309076Y-121650093D01*
X184309075Y-121650094D01*
X184309074Y-121650094D01*
X184117805Y-121729320D01*
X183914757Y-121769709D01*
X183707725Y-121769709D01*
X183504677Y-121729320D01*
X183313408Y-121650094D01*
X183313407Y-121650094D01*
X183313406Y-121650093D01*
X183141268Y-121535074D01*
X182994876Y-121388682D01*
X182879857Y-121216544D01*
X182879732Y-121216243D01*
X182800630Y-121025273D01*
X182760241Y-120822225D01*
X182760241Y-120615193D01*
X182800630Y-120412145D01*
X182879856Y-120220876D01*
X182994876Y-120048736D01*
X183141268Y-119902344D01*
X183313406Y-119787325D01*
X183313408Y-119787324D01*
X183504677Y-119708098D01*
X183707725Y-119667709D01*
X183914757Y-119667709D01*
X184117805Y-119708098D01*
G37*
G36*
X181577805Y-119708098D02*
G01*
X181769074Y-119787324D01*
X181769076Y-119787325D01*
X181941214Y-119902344D01*
X182087606Y-120048736D01*
X182202626Y-120220876D01*
X182281852Y-120412145D01*
X182322241Y-120615193D01*
X182322241Y-120822225D01*
X182281852Y-121025273D01*
X182202750Y-121216243D01*
X182202625Y-121216544D01*
X182087606Y-121388682D01*
X181941214Y-121535074D01*
X181769076Y-121650093D01*
X181769075Y-121650094D01*
X181769074Y-121650094D01*
X181577805Y-121729320D01*
X181374757Y-121769709D01*
X181167725Y-121769709D01*
X180964677Y-121729320D01*
X180773408Y-121650094D01*
X180773407Y-121650094D01*
X180773406Y-121650093D01*
X180601268Y-121535074D01*
X180454876Y-121388682D01*
X180339857Y-121216544D01*
X180339732Y-121216243D01*
X180260630Y-121025273D01*
X180220241Y-120822225D01*
X180220241Y-120615193D01*
X180260630Y-120412145D01*
X180339856Y-120220876D01*
X180454876Y-120048736D01*
X180601268Y-119902344D01*
X180773406Y-119787325D01*
X180773408Y-119787324D01*
X180964677Y-119708098D01*
X181167725Y-119667709D01*
X181374757Y-119667709D01*
X181577805Y-119708098D01*
G37*
G36*
X176497805Y-119708098D02*
G01*
X176689074Y-119787324D01*
X176689076Y-119787325D01*
X176861214Y-119902344D01*
X177007606Y-120048736D01*
X177122626Y-120220876D01*
X177201852Y-120412145D01*
X177242241Y-120615193D01*
X177242241Y-120822225D01*
X177201852Y-121025273D01*
X177122750Y-121216243D01*
X177122625Y-121216544D01*
X177007606Y-121388682D01*
X176861214Y-121535074D01*
X176689076Y-121650093D01*
X176689075Y-121650094D01*
X176689074Y-121650094D01*
X176497805Y-121729320D01*
X176294757Y-121769709D01*
X176087725Y-121769709D01*
X175884677Y-121729320D01*
X175693408Y-121650094D01*
X175693407Y-121650094D01*
X175693406Y-121650093D01*
X175521268Y-121535074D01*
X175374876Y-121388682D01*
X175259857Y-121216544D01*
X175259732Y-121216243D01*
X175180630Y-121025273D01*
X175140241Y-120822225D01*
X175140241Y-120615193D01*
X175180630Y-120412145D01*
X175259856Y-120220876D01*
X175374876Y-120048736D01*
X175521268Y-119902344D01*
X175693406Y-119787325D01*
X175693408Y-119787324D01*
X175884677Y-119708098D01*
X176087725Y-119667709D01*
X176294757Y-119667709D01*
X176497805Y-119708098D01*
G37*
G36*
X173957805Y-119708098D02*
G01*
X174149074Y-119787324D01*
X174149076Y-119787325D01*
X174321214Y-119902344D01*
X174467606Y-120048736D01*
X174582626Y-120220876D01*
X174661852Y-120412145D01*
X174702241Y-120615193D01*
X174702241Y-120822225D01*
X174661852Y-121025273D01*
X174582750Y-121216243D01*
X174582625Y-121216544D01*
X174467606Y-121388682D01*
X174321214Y-121535074D01*
X174149076Y-121650093D01*
X174149075Y-121650094D01*
X174149074Y-121650094D01*
X173957805Y-121729320D01*
X173754757Y-121769709D01*
X173547725Y-121769709D01*
X173344677Y-121729320D01*
X173153408Y-121650094D01*
X173153407Y-121650094D01*
X173153406Y-121650093D01*
X172981268Y-121535074D01*
X172834876Y-121388682D01*
X172719857Y-121216544D01*
X172719732Y-121216243D01*
X172640630Y-121025273D01*
X172600241Y-120822225D01*
X172600241Y-120615193D01*
X172640630Y-120412145D01*
X172719856Y-120220876D01*
X172834876Y-120048736D01*
X172981268Y-119902344D01*
X173153406Y-119787325D01*
X173153408Y-119787324D01*
X173344677Y-119708098D01*
X173547725Y-119667709D01*
X173754757Y-119667709D01*
X173957805Y-119708098D01*
G37*
G36*
X163657805Y-119708098D02*
G01*
X163849074Y-119787324D01*
X163849076Y-119787325D01*
X164021214Y-119902344D01*
X164167606Y-120048736D01*
X164282626Y-120220876D01*
X164361852Y-120412145D01*
X164402241Y-120615193D01*
X164402241Y-120822225D01*
X164361852Y-121025273D01*
X164282750Y-121216243D01*
X164282625Y-121216544D01*
X164167606Y-121388682D01*
X164021214Y-121535074D01*
X163849076Y-121650093D01*
X163849075Y-121650094D01*
X163849074Y-121650094D01*
X163657805Y-121729320D01*
X163454757Y-121769709D01*
X163247725Y-121769709D01*
X163044677Y-121729320D01*
X162853408Y-121650094D01*
X162853407Y-121650094D01*
X162853406Y-121650093D01*
X162681268Y-121535074D01*
X162534876Y-121388682D01*
X162419857Y-121216544D01*
X162419732Y-121216243D01*
X162340630Y-121025273D01*
X162300241Y-120822225D01*
X162300241Y-120615193D01*
X162340630Y-120412145D01*
X162419856Y-120220876D01*
X162534876Y-120048736D01*
X162681268Y-119902344D01*
X162853406Y-119787325D01*
X162853408Y-119787324D01*
X163044677Y-119708098D01*
X163247725Y-119667709D01*
X163454757Y-119667709D01*
X163657805Y-119708098D01*
G37*
G36*
X161117805Y-119708098D02*
G01*
X161309074Y-119787324D01*
X161309076Y-119787325D01*
X161481214Y-119902344D01*
X161627606Y-120048736D01*
X161742626Y-120220876D01*
X161821852Y-120412145D01*
X161862241Y-120615193D01*
X161862241Y-120822225D01*
X161821852Y-121025273D01*
X161742750Y-121216243D01*
X161742625Y-121216544D01*
X161627606Y-121388682D01*
X161481214Y-121535074D01*
X161309076Y-121650093D01*
X161309075Y-121650094D01*
X161309074Y-121650094D01*
X161117805Y-121729320D01*
X160914757Y-121769709D01*
X160707725Y-121769709D01*
X160504677Y-121729320D01*
X160313408Y-121650094D01*
X160313407Y-121650094D01*
X160313406Y-121650093D01*
X160141268Y-121535074D01*
X159994876Y-121388682D01*
X159879857Y-121216544D01*
X159879732Y-121216243D01*
X159800630Y-121025273D01*
X159760241Y-120822225D01*
X159760241Y-120615193D01*
X159800630Y-120412145D01*
X159879856Y-120220876D01*
X159994876Y-120048736D01*
X160141268Y-119902344D01*
X160313406Y-119787325D01*
X160313408Y-119787324D01*
X160504677Y-119708098D01*
X160707725Y-119667709D01*
X160914757Y-119667709D01*
X161117805Y-119708098D01*
G37*
G36*
X158577805Y-119708098D02*
G01*
X158769074Y-119787324D01*
X158769076Y-119787325D01*
X158941214Y-119902344D01*
X159087606Y-120048736D01*
X159202626Y-120220876D01*
X159281852Y-120412145D01*
X159322241Y-120615193D01*
X159322241Y-120822225D01*
X159281852Y-121025273D01*
X159202750Y-121216243D01*
X159202625Y-121216544D01*
X159087606Y-121388682D01*
X158941214Y-121535074D01*
X158769076Y-121650093D01*
X158769075Y-121650094D01*
X158769074Y-121650094D01*
X158577805Y-121729320D01*
X158374757Y-121769709D01*
X158167725Y-121769709D01*
X157964677Y-121729320D01*
X157773408Y-121650094D01*
X157773407Y-121650094D01*
X157773406Y-121650093D01*
X157601268Y-121535074D01*
X157454876Y-121388682D01*
X157339857Y-121216544D01*
X157339732Y-121216243D01*
X157260630Y-121025273D01*
X157220241Y-120822225D01*
X157220241Y-120615193D01*
X157260630Y-120412145D01*
X157339856Y-120220876D01*
X157454876Y-120048736D01*
X157601268Y-119902344D01*
X157773406Y-119787325D01*
X157773408Y-119787324D01*
X157964677Y-119708098D01*
X158167725Y-119667709D01*
X158374757Y-119667709D01*
X158577805Y-119708098D01*
G37*
G36*
X156037805Y-119708098D02*
G01*
X156229074Y-119787324D01*
X156229076Y-119787325D01*
X156401214Y-119902344D01*
X156547606Y-120048736D01*
X156662626Y-120220876D01*
X156741852Y-120412145D01*
X156782241Y-120615193D01*
X156782241Y-120822225D01*
X156741852Y-121025273D01*
X156662750Y-121216243D01*
X156662625Y-121216544D01*
X156547606Y-121388682D01*
X156401214Y-121535074D01*
X156229076Y-121650093D01*
X156229075Y-121650094D01*
X156229074Y-121650094D01*
X156037805Y-121729320D01*
X155834757Y-121769709D01*
X155627725Y-121769709D01*
X155424677Y-121729320D01*
X155233408Y-121650094D01*
X155233407Y-121650094D01*
X155233406Y-121650093D01*
X155061268Y-121535074D01*
X154914876Y-121388682D01*
X154799857Y-121216544D01*
X154799732Y-121216243D01*
X154720630Y-121025273D01*
X154680241Y-120822225D01*
X154680241Y-120615193D01*
X154720630Y-120412145D01*
X154799856Y-120220876D01*
X154914876Y-120048736D01*
X155061268Y-119902344D01*
X155233406Y-119787325D01*
X155233408Y-119787324D01*
X155424677Y-119708098D01*
X155627725Y-119667709D01*
X155834757Y-119667709D01*
X156037805Y-119708098D01*
G37*
G36*
X153497805Y-119708098D02*
G01*
X153689074Y-119787324D01*
X153689076Y-119787325D01*
X153861214Y-119902344D01*
X154007606Y-120048736D01*
X154122626Y-120220876D01*
X154201852Y-120412145D01*
X154242241Y-120615193D01*
X154242241Y-120822225D01*
X154201852Y-121025273D01*
X154122750Y-121216243D01*
X154122625Y-121216544D01*
X154007606Y-121388682D01*
X153861214Y-121535074D01*
X153689076Y-121650093D01*
X153689075Y-121650094D01*
X153689074Y-121650094D01*
X153497805Y-121729320D01*
X153294757Y-121769709D01*
X153087725Y-121769709D01*
X152884677Y-121729320D01*
X152693408Y-121650094D01*
X152693407Y-121650094D01*
X152693406Y-121650093D01*
X152521268Y-121535074D01*
X152374876Y-121388682D01*
X152259857Y-121216544D01*
X152259732Y-121216243D01*
X152180630Y-121025273D01*
X152140241Y-120822225D01*
X152140241Y-120615193D01*
X152180630Y-120412145D01*
X152259856Y-120220876D01*
X152374876Y-120048736D01*
X152521268Y-119902344D01*
X152693406Y-119787325D01*
X152693408Y-119787324D01*
X152884677Y-119708098D01*
X153087725Y-119667709D01*
X153294757Y-119667709D01*
X153497805Y-119708098D01*
G37*
G36*
X150957805Y-119708098D02*
G01*
X151149074Y-119787324D01*
X151149076Y-119787325D01*
X151321214Y-119902344D01*
X151467606Y-120048736D01*
X151582626Y-120220876D01*
X151661852Y-120412145D01*
X151702241Y-120615193D01*
X151702241Y-120822225D01*
X151661852Y-121025273D01*
X151582750Y-121216243D01*
X151582625Y-121216544D01*
X151467606Y-121388682D01*
X151321214Y-121535074D01*
X151149076Y-121650093D01*
X151149075Y-121650094D01*
X151149074Y-121650094D01*
X150957805Y-121729320D01*
X150754757Y-121769709D01*
X150547725Y-121769709D01*
X150344677Y-121729320D01*
X150153408Y-121650094D01*
X150153407Y-121650094D01*
X150153406Y-121650093D01*
X149981268Y-121535074D01*
X149834876Y-121388682D01*
X149719857Y-121216544D01*
X149719732Y-121216243D01*
X149640630Y-121025273D01*
X149600241Y-120822225D01*
X149600241Y-120615193D01*
X149640630Y-120412145D01*
X149719856Y-120220876D01*
X149834876Y-120048736D01*
X149981268Y-119902344D01*
X150153406Y-119787325D01*
X150153408Y-119787324D01*
X150344677Y-119708098D01*
X150547725Y-119667709D01*
X150754757Y-119667709D01*
X150957805Y-119708098D01*
G37*
G36*
X186657805Y-119708098D02*
G01*
X186849074Y-119787324D01*
X186849076Y-119787325D01*
X187021214Y-119902344D01*
X187167606Y-120048736D01*
X187282626Y-120220876D01*
X187361852Y-120412145D01*
X187402241Y-120615193D01*
X187402241Y-120822225D01*
X187361852Y-121025273D01*
X187282750Y-121216243D01*
X187282625Y-121216544D01*
X187167606Y-121388682D01*
X187021214Y-121535074D01*
X186849076Y-121650093D01*
X186849075Y-121650094D01*
X186849074Y-121650094D01*
X186657805Y-121729320D01*
X186454757Y-121769709D01*
X186247725Y-121769709D01*
X186044677Y-121729320D01*
X185853408Y-121650094D01*
X185853407Y-121650094D01*
X185853406Y-121650093D01*
X185681268Y-121535074D01*
X185534876Y-121388682D01*
X185419857Y-121216544D01*
X185419732Y-121216243D01*
X185340630Y-121025273D01*
X185300241Y-120822225D01*
X185300241Y-120615193D01*
X185340630Y-120412145D01*
X185419856Y-120220876D01*
X185534876Y-120048736D01*
X185681268Y-119902344D01*
X185853406Y-119787325D01*
X185853408Y-119787324D01*
X186044677Y-119708098D01*
X186247725Y-119667709D01*
X186454757Y-119667709D01*
X186657805Y-119708098D01*
G37*
G36*
X176497805Y-117168098D02*
G01*
X176671438Y-117240019D01*
X176689076Y-117247325D01*
X176861214Y-117362344D01*
X177007606Y-117508736D01*
X177122626Y-117680876D01*
X177201852Y-117872145D01*
X177242241Y-118075193D01*
X177242241Y-118282225D01*
X177201852Y-118485273D01*
X177160571Y-118584934D01*
X177122625Y-118676544D01*
X177007606Y-118848682D01*
X176861214Y-118995074D01*
X176689076Y-119110093D01*
X176689075Y-119110094D01*
X176689074Y-119110094D01*
X176497805Y-119189320D01*
X176294757Y-119229709D01*
X176087725Y-119229709D01*
X175884677Y-119189320D01*
X175693408Y-119110094D01*
X175693407Y-119110094D01*
X175693406Y-119110093D01*
X175521268Y-118995074D01*
X175374876Y-118848682D01*
X175259857Y-118676544D01*
X175221911Y-118584934D01*
X175180630Y-118485273D01*
X175140241Y-118282225D01*
X175140241Y-118075193D01*
X175180630Y-117872145D01*
X175259856Y-117680876D01*
X175374876Y-117508736D01*
X175521268Y-117362344D01*
X175693406Y-117247325D01*
X175711044Y-117240019D01*
X175884677Y-117168098D01*
X176087725Y-117127709D01*
X176294757Y-117127709D01*
X176497805Y-117168098D01*
G37*
G36*
X135577805Y-117168098D02*
G01*
X135751438Y-117240019D01*
X135769076Y-117247325D01*
X135941214Y-117362344D01*
X136087606Y-117508736D01*
X136202626Y-117680876D01*
X136281852Y-117872145D01*
X136322241Y-118075193D01*
X136322241Y-118282225D01*
X136281852Y-118485273D01*
X136240571Y-118584934D01*
X136202625Y-118676544D01*
X136087606Y-118848682D01*
X135941214Y-118995074D01*
X135769076Y-119110093D01*
X135769075Y-119110094D01*
X135769074Y-119110094D01*
X135577805Y-119189320D01*
X135374757Y-119229709D01*
X135167725Y-119229709D01*
X134964677Y-119189320D01*
X134773408Y-119110094D01*
X134773407Y-119110094D01*
X134773406Y-119110093D01*
X134601268Y-118995074D01*
X134454876Y-118848682D01*
X134339857Y-118676544D01*
X134301911Y-118584934D01*
X134260630Y-118485273D01*
X134220241Y-118282225D01*
X134220241Y-118075193D01*
X134260630Y-117872145D01*
X134339856Y-117680876D01*
X134454876Y-117508736D01*
X134601268Y-117362344D01*
X134773406Y-117247325D01*
X134791044Y-117240019D01*
X134964677Y-117168098D01*
X135167725Y-117127709D01*
X135374757Y-117127709D01*
X135577805Y-117168098D01*
G37*
G36*
X179037805Y-117168098D02*
G01*
X179211438Y-117240019D01*
X179229076Y-117247325D01*
X179401214Y-117362344D01*
X179547606Y-117508736D01*
X179662626Y-117680876D01*
X179741852Y-117872145D01*
X179782241Y-118075193D01*
X179782241Y-118282225D01*
X179741852Y-118485273D01*
X179700571Y-118584934D01*
X179662625Y-118676544D01*
X179547606Y-118848682D01*
X179401214Y-118995074D01*
X179229076Y-119110093D01*
X179229075Y-119110094D01*
X179229074Y-119110094D01*
X179037805Y-119189320D01*
X178834757Y-119229709D01*
X178627725Y-119229709D01*
X178424677Y-119189320D01*
X178233408Y-119110094D01*
X178233407Y-119110094D01*
X178233406Y-119110093D01*
X178061268Y-118995074D01*
X177914876Y-118848682D01*
X177799857Y-118676544D01*
X177761911Y-118584934D01*
X177720630Y-118485273D01*
X177680241Y-118282225D01*
X177680241Y-118075193D01*
X177720630Y-117872145D01*
X177799856Y-117680876D01*
X177914876Y-117508736D01*
X178061268Y-117362344D01*
X178233406Y-117247325D01*
X178251044Y-117240019D01*
X178424677Y-117168098D01*
X178627725Y-117127709D01*
X178834757Y-117127709D01*
X179037805Y-117168098D01*
G37*
G36*
X186657805Y-117168098D02*
G01*
X186831438Y-117240019D01*
X186849076Y-117247325D01*
X187021214Y-117362344D01*
X187167606Y-117508736D01*
X187282626Y-117680876D01*
X187361852Y-117872145D01*
X187402241Y-118075193D01*
X187402241Y-118282225D01*
X187361852Y-118485273D01*
X187320571Y-118584934D01*
X187282625Y-118676544D01*
X187167606Y-118848682D01*
X187021214Y-118995074D01*
X186849076Y-119110093D01*
X186849075Y-119110094D01*
X186849074Y-119110094D01*
X186657805Y-119189320D01*
X186454757Y-119229709D01*
X186247725Y-119229709D01*
X186044677Y-119189320D01*
X185853408Y-119110094D01*
X185853407Y-119110094D01*
X185853406Y-119110093D01*
X185681268Y-118995074D01*
X185534876Y-118848682D01*
X185419857Y-118676544D01*
X185381911Y-118584934D01*
X185340630Y-118485273D01*
X185300241Y-118282225D01*
X185300241Y-118075193D01*
X185340630Y-117872145D01*
X185419856Y-117680876D01*
X185534876Y-117508736D01*
X185681268Y-117362344D01*
X185853406Y-117247325D01*
X185871044Y-117240019D01*
X186044677Y-117168098D01*
X186247725Y-117127709D01*
X186454757Y-117127709D01*
X186657805Y-117168098D01*
G37*
G36*
X184117805Y-117168098D02*
G01*
X184291438Y-117240019D01*
X184309076Y-117247325D01*
X184481214Y-117362344D01*
X184627606Y-117508736D01*
X184742626Y-117680876D01*
X184821852Y-117872145D01*
X184862241Y-118075193D01*
X184862241Y-118282225D01*
X184821852Y-118485273D01*
X184780571Y-118584934D01*
X184742625Y-118676544D01*
X184627606Y-118848682D01*
X184481214Y-118995074D01*
X184309076Y-119110093D01*
X184309075Y-119110094D01*
X184309074Y-119110094D01*
X184117805Y-119189320D01*
X183914757Y-119229709D01*
X183707725Y-119229709D01*
X183504677Y-119189320D01*
X183313408Y-119110094D01*
X183313407Y-119110094D01*
X183313406Y-119110093D01*
X183141268Y-118995074D01*
X182994876Y-118848682D01*
X182879857Y-118676544D01*
X182841911Y-118584934D01*
X182800630Y-118485273D01*
X182760241Y-118282225D01*
X182760241Y-118075193D01*
X182800630Y-117872145D01*
X182879856Y-117680876D01*
X182994876Y-117508736D01*
X183141268Y-117362344D01*
X183313406Y-117247325D01*
X183331044Y-117240019D01*
X183504677Y-117168098D01*
X183707725Y-117127709D01*
X183914757Y-117127709D01*
X184117805Y-117168098D01*
G37*
G36*
X140657805Y-117168098D02*
G01*
X140831438Y-117240019D01*
X140849076Y-117247325D01*
X141021214Y-117362344D01*
X141167606Y-117508736D01*
X141282626Y-117680876D01*
X141361852Y-117872145D01*
X141402241Y-118075193D01*
X141402241Y-118282225D01*
X141361852Y-118485273D01*
X141320571Y-118584934D01*
X141282625Y-118676544D01*
X141167606Y-118848682D01*
X141021214Y-118995074D01*
X140849076Y-119110093D01*
X140849075Y-119110094D01*
X140849074Y-119110094D01*
X140657805Y-119189320D01*
X140454757Y-119229709D01*
X140247725Y-119229709D01*
X140044677Y-119189320D01*
X139853408Y-119110094D01*
X139853407Y-119110094D01*
X139853406Y-119110093D01*
X139681268Y-118995074D01*
X139534876Y-118848682D01*
X139419857Y-118676544D01*
X139381911Y-118584934D01*
X139340630Y-118485273D01*
X139300241Y-118282225D01*
X139300241Y-118075193D01*
X139340630Y-117872145D01*
X139419856Y-117680876D01*
X139534876Y-117508736D01*
X139681268Y-117362344D01*
X139853406Y-117247325D01*
X139871044Y-117240019D01*
X140044677Y-117168098D01*
X140247725Y-117127709D01*
X140454757Y-117127709D01*
X140657805Y-117168098D01*
G37*
G36*
X133037805Y-117168098D02*
G01*
X133211438Y-117240019D01*
X133229076Y-117247325D01*
X133401214Y-117362344D01*
X133547606Y-117508736D01*
X133662626Y-117680876D01*
X133741852Y-117872145D01*
X133782241Y-118075193D01*
X133782241Y-118282225D01*
X133741852Y-118485273D01*
X133700571Y-118584934D01*
X133662625Y-118676544D01*
X133547606Y-118848682D01*
X133401214Y-118995074D01*
X133229076Y-119110093D01*
X133229075Y-119110094D01*
X133229074Y-119110094D01*
X133037805Y-119189320D01*
X132834757Y-119229709D01*
X132627725Y-119229709D01*
X132424677Y-119189320D01*
X132233408Y-119110094D01*
X132233407Y-119110094D01*
X132233406Y-119110093D01*
X132061268Y-118995074D01*
X131914876Y-118848682D01*
X131799857Y-118676544D01*
X131761911Y-118584934D01*
X131720630Y-118485273D01*
X131680241Y-118282225D01*
X131680241Y-118075193D01*
X131720630Y-117872145D01*
X131799856Y-117680876D01*
X131914876Y-117508736D01*
X132061268Y-117362344D01*
X132233406Y-117247325D01*
X132251044Y-117240019D01*
X132424677Y-117168098D01*
X132627725Y-117127709D01*
X132834757Y-117127709D01*
X133037805Y-117168098D01*
G37*
G36*
X130497805Y-117168098D02*
G01*
X130671438Y-117240019D01*
X130689076Y-117247325D01*
X130861214Y-117362344D01*
X131007606Y-117508736D01*
X131122626Y-117680876D01*
X131201852Y-117872145D01*
X131242241Y-118075193D01*
X131242241Y-118282225D01*
X131201852Y-118485273D01*
X131160571Y-118584934D01*
X131122625Y-118676544D01*
X131007606Y-118848682D01*
X130861214Y-118995074D01*
X130689076Y-119110093D01*
X130689075Y-119110094D01*
X130689074Y-119110094D01*
X130497805Y-119189320D01*
X130294757Y-119229709D01*
X130087725Y-119229709D01*
X129884677Y-119189320D01*
X129693408Y-119110094D01*
X129693407Y-119110094D01*
X129693406Y-119110093D01*
X129521268Y-118995074D01*
X129374876Y-118848682D01*
X129259857Y-118676544D01*
X129221911Y-118584934D01*
X129180630Y-118485273D01*
X129140241Y-118282225D01*
X129140241Y-118075193D01*
X129180630Y-117872145D01*
X129259856Y-117680876D01*
X129374876Y-117508736D01*
X129521268Y-117362344D01*
X129693406Y-117247325D01*
X129711044Y-117240019D01*
X129884677Y-117168098D01*
X130087725Y-117127709D01*
X130294757Y-117127709D01*
X130497805Y-117168098D01*
G37*
G36*
X127957805Y-117168098D02*
G01*
X128131438Y-117240019D01*
X128149076Y-117247325D01*
X128321214Y-117362344D01*
X128467606Y-117508736D01*
X128582626Y-117680876D01*
X128661852Y-117872145D01*
X128702241Y-118075193D01*
X128702241Y-118282225D01*
X128661852Y-118485273D01*
X128620571Y-118584934D01*
X128582625Y-118676544D01*
X128467606Y-118848682D01*
X128321214Y-118995074D01*
X128149076Y-119110093D01*
X128149075Y-119110094D01*
X128149074Y-119110094D01*
X127957805Y-119189320D01*
X127754757Y-119229709D01*
X127547725Y-119229709D01*
X127344677Y-119189320D01*
X127153408Y-119110094D01*
X127153407Y-119110094D01*
X127153406Y-119110093D01*
X126981268Y-118995074D01*
X126834876Y-118848682D01*
X126719857Y-118676544D01*
X126681911Y-118584934D01*
X126640630Y-118485273D01*
X126600241Y-118282225D01*
X126600241Y-118075193D01*
X126640630Y-117872145D01*
X126719856Y-117680876D01*
X126834876Y-117508736D01*
X126981268Y-117362344D01*
X127153406Y-117247325D01*
X127171044Y-117240019D01*
X127344677Y-117168098D01*
X127547725Y-117127709D01*
X127754757Y-117127709D01*
X127957805Y-117168098D01*
G37*
G36*
X150957805Y-117168098D02*
G01*
X151131438Y-117240019D01*
X151149076Y-117247325D01*
X151321214Y-117362344D01*
X151467606Y-117508736D01*
X151582626Y-117680876D01*
X151661852Y-117872145D01*
X151702241Y-118075193D01*
X151702241Y-118282225D01*
X151661852Y-118485273D01*
X151620571Y-118584934D01*
X151582625Y-118676544D01*
X151467606Y-118848682D01*
X151321214Y-118995074D01*
X151149076Y-119110093D01*
X151149075Y-119110094D01*
X151149074Y-119110094D01*
X150957805Y-119189320D01*
X150754757Y-119229709D01*
X150547725Y-119229709D01*
X150344677Y-119189320D01*
X150153408Y-119110094D01*
X150153407Y-119110094D01*
X150153406Y-119110093D01*
X149981268Y-118995074D01*
X149834876Y-118848682D01*
X149719857Y-118676544D01*
X149681911Y-118584934D01*
X149640630Y-118485273D01*
X149600241Y-118282225D01*
X149600241Y-118075193D01*
X149640630Y-117872145D01*
X149719856Y-117680876D01*
X149834876Y-117508736D01*
X149981268Y-117362344D01*
X150153406Y-117247325D01*
X150171044Y-117240019D01*
X150344677Y-117168098D01*
X150547725Y-117127709D01*
X150754757Y-117127709D01*
X150957805Y-117168098D01*
G37*
G36*
X153497805Y-117168098D02*
G01*
X153671438Y-117240019D01*
X153689076Y-117247325D01*
X153861214Y-117362344D01*
X154007606Y-117508736D01*
X154122626Y-117680876D01*
X154201852Y-117872145D01*
X154242241Y-118075193D01*
X154242241Y-118282225D01*
X154201852Y-118485273D01*
X154160571Y-118584934D01*
X154122625Y-118676544D01*
X154007606Y-118848682D01*
X153861214Y-118995074D01*
X153689076Y-119110093D01*
X153689075Y-119110094D01*
X153689074Y-119110094D01*
X153497805Y-119189320D01*
X153294757Y-119229709D01*
X153087725Y-119229709D01*
X152884677Y-119189320D01*
X152693408Y-119110094D01*
X152693407Y-119110094D01*
X152693406Y-119110093D01*
X152521268Y-118995074D01*
X152374876Y-118848682D01*
X152259857Y-118676544D01*
X152221911Y-118584934D01*
X152180630Y-118485273D01*
X152140241Y-118282225D01*
X152140241Y-118075193D01*
X152180630Y-117872145D01*
X152259856Y-117680876D01*
X152374876Y-117508736D01*
X152521268Y-117362344D01*
X152693406Y-117247325D01*
X152711044Y-117240019D01*
X152884677Y-117168098D01*
X153087725Y-117127709D01*
X153294757Y-117127709D01*
X153497805Y-117168098D01*
G37*
G36*
X181577805Y-117168098D02*
G01*
X181751438Y-117240019D01*
X181769076Y-117247325D01*
X181941214Y-117362344D01*
X182087606Y-117508736D01*
X182202626Y-117680876D01*
X182281852Y-117872145D01*
X182322241Y-118075193D01*
X182322241Y-118282225D01*
X182281852Y-118485273D01*
X182240571Y-118584934D01*
X182202625Y-118676544D01*
X182087606Y-118848682D01*
X181941214Y-118995074D01*
X181769076Y-119110093D01*
X181769075Y-119110094D01*
X181769074Y-119110094D01*
X181577805Y-119189320D01*
X181374757Y-119229709D01*
X181167725Y-119229709D01*
X180964677Y-119189320D01*
X180773408Y-119110094D01*
X180773407Y-119110094D01*
X180773406Y-119110093D01*
X180601268Y-118995074D01*
X180454876Y-118848682D01*
X180339857Y-118676544D01*
X180301911Y-118584934D01*
X180260630Y-118485273D01*
X180220241Y-118282225D01*
X180220241Y-118075193D01*
X180260630Y-117872145D01*
X180339856Y-117680876D01*
X180454876Y-117508736D01*
X180601268Y-117362344D01*
X180773406Y-117247325D01*
X180791044Y-117240019D01*
X180964677Y-117168098D01*
X181167725Y-117127709D01*
X181374757Y-117127709D01*
X181577805Y-117168098D01*
G37*
G36*
X138117805Y-117168098D02*
G01*
X138291438Y-117240019D01*
X138309076Y-117247325D01*
X138481214Y-117362344D01*
X138627606Y-117508736D01*
X138742626Y-117680876D01*
X138821852Y-117872145D01*
X138862241Y-118075193D01*
X138862241Y-118282225D01*
X138821852Y-118485273D01*
X138780571Y-118584934D01*
X138742625Y-118676544D01*
X138627606Y-118848682D01*
X138481214Y-118995074D01*
X138309076Y-119110093D01*
X138309075Y-119110094D01*
X138309074Y-119110094D01*
X138117805Y-119189320D01*
X137914757Y-119229709D01*
X137707725Y-119229709D01*
X137504677Y-119189320D01*
X137313408Y-119110094D01*
X137313407Y-119110094D01*
X137313406Y-119110093D01*
X137141268Y-118995074D01*
X136994876Y-118848682D01*
X136879857Y-118676544D01*
X136841911Y-118584934D01*
X136800630Y-118485273D01*
X136760241Y-118282225D01*
X136760241Y-118075193D01*
X136800630Y-117872145D01*
X136879856Y-117680876D01*
X136994876Y-117508736D01*
X137141268Y-117362344D01*
X137313406Y-117247325D01*
X137331044Y-117240019D01*
X137504677Y-117168098D01*
X137707725Y-117127709D01*
X137914757Y-117127709D01*
X138117805Y-117168098D01*
G37*
G36*
X163657805Y-117168098D02*
G01*
X163831438Y-117240019D01*
X163849076Y-117247325D01*
X164021214Y-117362344D01*
X164167606Y-117508736D01*
X164282626Y-117680876D01*
X164361852Y-117872145D01*
X164402241Y-118075193D01*
X164402241Y-118282225D01*
X164361852Y-118485273D01*
X164320571Y-118584934D01*
X164282625Y-118676544D01*
X164167606Y-118848682D01*
X164021214Y-118995074D01*
X163849076Y-119110093D01*
X163849075Y-119110094D01*
X163849074Y-119110094D01*
X163657805Y-119189320D01*
X163454757Y-119229709D01*
X163247725Y-119229709D01*
X163044677Y-119189320D01*
X162853408Y-119110094D01*
X162853407Y-119110094D01*
X162853406Y-119110093D01*
X162681268Y-118995074D01*
X162534876Y-118848682D01*
X162419857Y-118676544D01*
X162381911Y-118584934D01*
X162340630Y-118485273D01*
X162300241Y-118282225D01*
X162300241Y-118075193D01*
X162340630Y-117872145D01*
X162419856Y-117680876D01*
X162534876Y-117508736D01*
X162681268Y-117362344D01*
X162853406Y-117247325D01*
X162871044Y-117240019D01*
X163044677Y-117168098D01*
X163247725Y-117127709D01*
X163454757Y-117127709D01*
X163657805Y-117168098D01*
G37*
G36*
X161117805Y-117168098D02*
G01*
X161291438Y-117240019D01*
X161309076Y-117247325D01*
X161481214Y-117362344D01*
X161627606Y-117508736D01*
X161742626Y-117680876D01*
X161821852Y-117872145D01*
X161862241Y-118075193D01*
X161862241Y-118282225D01*
X161821852Y-118485273D01*
X161780571Y-118584934D01*
X161742625Y-118676544D01*
X161627606Y-118848682D01*
X161481214Y-118995074D01*
X161309076Y-119110093D01*
X161309075Y-119110094D01*
X161309074Y-119110094D01*
X161117805Y-119189320D01*
X160914757Y-119229709D01*
X160707725Y-119229709D01*
X160504677Y-119189320D01*
X160313408Y-119110094D01*
X160313407Y-119110094D01*
X160313406Y-119110093D01*
X160141268Y-118995074D01*
X159994876Y-118848682D01*
X159879857Y-118676544D01*
X159841911Y-118584934D01*
X159800630Y-118485273D01*
X159760241Y-118282225D01*
X159760241Y-118075193D01*
X159800630Y-117872145D01*
X159879856Y-117680876D01*
X159994876Y-117508736D01*
X160141268Y-117362344D01*
X160313406Y-117247325D01*
X160331044Y-117240019D01*
X160504677Y-117168098D01*
X160707725Y-117127709D01*
X160914757Y-117127709D01*
X161117805Y-117168098D01*
G37*
G36*
X158577805Y-117168098D02*
G01*
X158751438Y-117240019D01*
X158769076Y-117247325D01*
X158941214Y-117362344D01*
X159087606Y-117508736D01*
X159202626Y-117680876D01*
X159281852Y-117872145D01*
X159322241Y-118075193D01*
X159322241Y-118282225D01*
X159281852Y-118485273D01*
X159240571Y-118584934D01*
X159202625Y-118676544D01*
X159087606Y-118848682D01*
X158941214Y-118995074D01*
X158769076Y-119110093D01*
X158769075Y-119110094D01*
X158769074Y-119110094D01*
X158577805Y-119189320D01*
X158374757Y-119229709D01*
X158167725Y-119229709D01*
X157964677Y-119189320D01*
X157773408Y-119110094D01*
X157773407Y-119110094D01*
X157773406Y-119110093D01*
X157601268Y-118995074D01*
X157454876Y-118848682D01*
X157339857Y-118676544D01*
X157301911Y-118584934D01*
X157260630Y-118485273D01*
X157220241Y-118282225D01*
X157220241Y-118075193D01*
X157260630Y-117872145D01*
X157339856Y-117680876D01*
X157454876Y-117508736D01*
X157601268Y-117362344D01*
X157773406Y-117247325D01*
X157791044Y-117240019D01*
X157964677Y-117168098D01*
X158167725Y-117127709D01*
X158374757Y-117127709D01*
X158577805Y-117168098D01*
G37*
G36*
X156037805Y-117168098D02*
G01*
X156211438Y-117240019D01*
X156229076Y-117247325D01*
X156401214Y-117362344D01*
X156547606Y-117508736D01*
X156662626Y-117680876D01*
X156741852Y-117872145D01*
X156782241Y-118075193D01*
X156782241Y-118282225D01*
X156741852Y-118485273D01*
X156700571Y-118584934D01*
X156662625Y-118676544D01*
X156547606Y-118848682D01*
X156401214Y-118995074D01*
X156229076Y-119110093D01*
X156229075Y-119110094D01*
X156229074Y-119110094D01*
X156037805Y-119189320D01*
X155834757Y-119229709D01*
X155627725Y-119229709D01*
X155424677Y-119189320D01*
X155233408Y-119110094D01*
X155233407Y-119110094D01*
X155233406Y-119110093D01*
X155061268Y-118995074D01*
X154914876Y-118848682D01*
X154799857Y-118676544D01*
X154761911Y-118584934D01*
X154720630Y-118485273D01*
X154680241Y-118282225D01*
X154680241Y-118075193D01*
X154720630Y-117872145D01*
X154799856Y-117680876D01*
X154914876Y-117508736D01*
X155061268Y-117362344D01*
X155233406Y-117247325D01*
X155251044Y-117240019D01*
X155424677Y-117168098D01*
X155627725Y-117127709D01*
X155834757Y-117127709D01*
X156037805Y-117168098D01*
G37*
G36*
X173957805Y-117168098D02*
G01*
X174131438Y-117240019D01*
X174149076Y-117247325D01*
X174321214Y-117362344D01*
X174467606Y-117508736D01*
X174582626Y-117680876D01*
X174661852Y-117872145D01*
X174702241Y-118075193D01*
X174702241Y-118282225D01*
X174661852Y-118485273D01*
X174620571Y-118584934D01*
X174582625Y-118676544D01*
X174467606Y-118848682D01*
X174321214Y-118995074D01*
X174149076Y-119110093D01*
X174149075Y-119110094D01*
X174149074Y-119110094D01*
X173957805Y-119189320D01*
X173754757Y-119229709D01*
X173547725Y-119229709D01*
X173344677Y-119189320D01*
X173153408Y-119110094D01*
X173153407Y-119110094D01*
X173153406Y-119110093D01*
X172981268Y-118995074D01*
X172834876Y-118848682D01*
X172719857Y-118676544D01*
X172681911Y-118584934D01*
X172640630Y-118485273D01*
X172600241Y-118282225D01*
X172600241Y-118075193D01*
X172640630Y-117872145D01*
X172719856Y-117680876D01*
X172834876Y-117508736D01*
X172981268Y-117362344D01*
X173153406Y-117247325D01*
X173171044Y-117240019D01*
X173344677Y-117168098D01*
X173547725Y-117127709D01*
X173754757Y-117127709D01*
X173957805Y-117168098D01*
G37*
G36*
X104288636Y-117064255D02*
G01*
X104461707Y-117135943D01*
X104461708Y-117135944D01*
X104617468Y-117240019D01*
X104749931Y-117372482D01*
X104749932Y-117372484D01*
X104854007Y-117528243D01*
X104925695Y-117701314D01*
X104962241Y-117885042D01*
X104962241Y-118072376D01*
X104925695Y-118256104D01*
X104854007Y-118429175D01*
X104854006Y-118429176D01*
X104749931Y-118584936D01*
X104617468Y-118717399D01*
X104539059Y-118769790D01*
X104461707Y-118821475D01*
X104288636Y-118893163D01*
X104104908Y-118929709D01*
X103917574Y-118929709D01*
X103733846Y-118893163D01*
X103560775Y-118821475D01*
X103483423Y-118769790D01*
X103405014Y-118717399D01*
X103272551Y-118584936D01*
X103168476Y-118429176D01*
X103168475Y-118429175D01*
X103096787Y-118256104D01*
X103060241Y-118072376D01*
X103060241Y-117885042D01*
X103096787Y-117701314D01*
X103168475Y-117528243D01*
X103272550Y-117372484D01*
X103272551Y-117372482D01*
X103405014Y-117240019D01*
X103560774Y-117135944D01*
X103560775Y-117135943D01*
X103733846Y-117064255D01*
X103917574Y-117027709D01*
X104104908Y-117027709D01*
X104288636Y-117064255D01*
G37*
G36*
X104288636Y-112564255D02*
G01*
X104461707Y-112635943D01*
X104461708Y-112635944D01*
X104617468Y-112740019D01*
X104749931Y-112872482D01*
X104749932Y-112872484D01*
X104854007Y-113028243D01*
X104925695Y-113201314D01*
X104962241Y-113385042D01*
X104962241Y-113572376D01*
X104925695Y-113756104D01*
X104854007Y-113929175D01*
X104854006Y-113929176D01*
X104749931Y-114084936D01*
X104617468Y-114217399D01*
X104539059Y-114269790D01*
X104461707Y-114321475D01*
X104360913Y-114363225D01*
X104339303Y-114374776D01*
X104320361Y-114390321D01*
X104304815Y-114409263D01*
X104293264Y-114430874D01*
X104286151Y-114454323D01*
X104283749Y-114478709D01*
X104286151Y-114503095D01*
X104293264Y-114526544D01*
X104304815Y-114548154D01*
X104320360Y-114567096D01*
X104339302Y-114582642D01*
X104360913Y-114594193D01*
X104461707Y-114635943D01*
X104461708Y-114635944D01*
X104617468Y-114740019D01*
X104749931Y-114872482D01*
X104749932Y-114872484D01*
X104854007Y-115028243D01*
X104925695Y-115201314D01*
X104962241Y-115385042D01*
X104962241Y-115572376D01*
X104925695Y-115756104D01*
X104854007Y-115929175D01*
X104854006Y-115929176D01*
X104749931Y-116084936D01*
X104617468Y-116217399D01*
X104539059Y-116269790D01*
X104461707Y-116321475D01*
X104288636Y-116393163D01*
X104104908Y-116429709D01*
X103917574Y-116429709D01*
X103733846Y-116393163D01*
X103560775Y-116321475D01*
X103483423Y-116269790D01*
X103405014Y-116217399D01*
X103272551Y-116084936D01*
X103168476Y-115929176D01*
X103168475Y-115929175D01*
X103096787Y-115756104D01*
X103060241Y-115572376D01*
X103060241Y-115385042D01*
X103096787Y-115201314D01*
X103168475Y-115028243D01*
X103272550Y-114872484D01*
X103272551Y-114872482D01*
X103405014Y-114740019D01*
X103560774Y-114635944D01*
X103560775Y-114635943D01*
X103661569Y-114594193D01*
X103683179Y-114582642D01*
X103702121Y-114567097D01*
X103717667Y-114548155D01*
X103729218Y-114526544D01*
X103736331Y-114503095D01*
X103738733Y-114478709D01*
X103736331Y-114454323D01*
X103729218Y-114430874D01*
X103717667Y-114409264D01*
X103702122Y-114390322D01*
X103683180Y-114374776D01*
X103661569Y-114363225D01*
X103560775Y-114321475D01*
X103483423Y-114269790D01*
X103405014Y-114217399D01*
X103272551Y-114084936D01*
X103168476Y-113929176D01*
X103168475Y-113929175D01*
X103096787Y-113756104D01*
X103060241Y-113572376D01*
X103060241Y-113385042D01*
X103096787Y-113201314D01*
X103168475Y-113028243D01*
X103272550Y-112872484D01*
X103272551Y-112872482D01*
X103405014Y-112740019D01*
X103560774Y-112635944D01*
X103560775Y-112635943D01*
X103733846Y-112564255D01*
X103917574Y-112527709D01*
X104104908Y-112527709D01*
X104288636Y-112564255D01*
G37*
G36*
X104288636Y-110064255D02*
G01*
X104461707Y-110135943D01*
X104461708Y-110135944D01*
X104617468Y-110240019D01*
X104749931Y-110372482D01*
X104749932Y-110372484D01*
X104854007Y-110528243D01*
X104925695Y-110701314D01*
X104962241Y-110885042D01*
X104962241Y-111072376D01*
X104925695Y-111256104D01*
X104854007Y-111429175D01*
X104854006Y-111429176D01*
X104749931Y-111584936D01*
X104617468Y-111717399D01*
X104539059Y-111769790D01*
X104461707Y-111821475D01*
X104288636Y-111893163D01*
X104104908Y-111929709D01*
X103917574Y-111929709D01*
X103733846Y-111893163D01*
X103560775Y-111821475D01*
X103483423Y-111769790D01*
X103405014Y-111717399D01*
X103272551Y-111584936D01*
X103168476Y-111429176D01*
X103168475Y-111429175D01*
X103096787Y-111256104D01*
X103060241Y-111072376D01*
X103060241Y-110885042D01*
X103096787Y-110701314D01*
X103168475Y-110528243D01*
X103272550Y-110372484D01*
X103272551Y-110372482D01*
X103405014Y-110240019D01*
X103560774Y-110135944D01*
X103560775Y-110135943D01*
X103733846Y-110064255D01*
X103917574Y-110027709D01*
X104104908Y-110027709D01*
X104288636Y-110064255D01*
G37*
G36*
X101797403Y-106273077D02*
G01*
X102106965Y-106401302D01*
X102106966Y-106401303D01*
X102385565Y-106587456D01*
X102622494Y-106824385D01*
X102746878Y-107010539D01*
X102808648Y-107102985D01*
X102936873Y-107412547D01*
X103002241Y-107741174D01*
X103002241Y-108076244D01*
X102936873Y-108404871D01*
X102808648Y-108714433D01*
X102808647Y-108714434D01*
X102622494Y-108993033D01*
X102385565Y-109229962D01*
X102199411Y-109354346D01*
X102106965Y-109416116D01*
X101797403Y-109544341D01*
X101468776Y-109609709D01*
X101133706Y-109609709D01*
X100805079Y-109544341D01*
X100495517Y-109416116D01*
X100403071Y-109354346D01*
X100216917Y-109229962D01*
X99979988Y-108993033D01*
X99793835Y-108714434D01*
X99793834Y-108714433D01*
X99665609Y-108404871D01*
X99600241Y-108076244D01*
X99600241Y-107741174D01*
X99665609Y-107412547D01*
X99793834Y-107102985D01*
X99855604Y-107010539D01*
X99979988Y-106824385D01*
X100216917Y-106587456D01*
X100495516Y-106401303D01*
X100495517Y-106401302D01*
X100805079Y-106273077D01*
X101133706Y-106207709D01*
X101468776Y-106207709D01*
X101797403Y-106273077D01*
G37*
G36*
X96729812Y-100931572D02*
G01*
X96808264Y-100939299D01*
X96908923Y-100969834D01*
X96959254Y-100985101D01*
X97098406Y-101059480D01*
X97220374Y-101159576D01*
X97320470Y-101281544D01*
X97394849Y-101420696D01*
X97394849Y-101420697D01*
X97440651Y-101571686D01*
X97456116Y-101728709D01*
X97440651Y-101885732D01*
X97410116Y-101986391D01*
X97394849Y-102036722D01*
X97320470Y-102175874D01*
X97220374Y-102297842D01*
X97098406Y-102397938D01*
X96959254Y-102472317D01*
X96908923Y-102487584D01*
X96808264Y-102518119D01*
X96729812Y-102525846D01*
X96690587Y-102529709D01*
X95411895Y-102529709D01*
X95372670Y-102525846D01*
X95294218Y-102518119D01*
X95193559Y-102487584D01*
X95143228Y-102472317D01*
X95004076Y-102397938D01*
X94882108Y-102297842D01*
X94782012Y-102175874D01*
X94707633Y-102036722D01*
X94692366Y-101986391D01*
X94661831Y-101885732D01*
X94646366Y-101728709D01*
X94661831Y-101571686D01*
X94707633Y-101420697D01*
X94707633Y-101420696D01*
X94782012Y-101281544D01*
X94882108Y-101159576D01*
X95004076Y-101059480D01*
X95143228Y-100985101D01*
X95193559Y-100969834D01*
X95294218Y-100939299D01*
X95372670Y-100931572D01*
X95411895Y-100927709D01*
X96690587Y-100927709D01*
X96729812Y-100931572D01*
G37*
G36*
X103029812Y-100931572D02*
G01*
X103108264Y-100939299D01*
X103208923Y-100969834D01*
X103259254Y-100985101D01*
X103398406Y-101059480D01*
X103520374Y-101159576D01*
X103620470Y-101281544D01*
X103694849Y-101420696D01*
X103694849Y-101420697D01*
X103740651Y-101571686D01*
X103756116Y-101728709D01*
X103740651Y-101885732D01*
X103710116Y-101986391D01*
X103694849Y-102036722D01*
X103620470Y-102175874D01*
X103520374Y-102297842D01*
X103398406Y-102397938D01*
X103259254Y-102472317D01*
X103208923Y-102487584D01*
X103108264Y-102518119D01*
X103029812Y-102525846D01*
X102990587Y-102529709D01*
X101111895Y-102529709D01*
X101072670Y-102525846D01*
X100994218Y-102518119D01*
X100893559Y-102487584D01*
X100843228Y-102472317D01*
X100704076Y-102397938D01*
X100582108Y-102297842D01*
X100482012Y-102175874D01*
X100407633Y-102036722D01*
X100392366Y-101986391D01*
X100361831Y-101885732D01*
X100346366Y-101728709D01*
X100361831Y-101571686D01*
X100407633Y-101420697D01*
X100407633Y-101420696D01*
X100482012Y-101281544D01*
X100582108Y-101159576D01*
X100704076Y-101059480D01*
X100843228Y-100985101D01*
X100893559Y-100969834D01*
X100994218Y-100939299D01*
X101072670Y-100931572D01*
X101111895Y-100927709D01*
X102990587Y-100927709D01*
X103029812Y-100931572D01*
G37*
G36*
X96729812Y-86431572D02*
G01*
X96808264Y-86439299D01*
X96908923Y-86469834D01*
X96959254Y-86485101D01*
X97098406Y-86559480D01*
X97220374Y-86659576D01*
X97320470Y-86781544D01*
X97394849Y-86920696D01*
X97394849Y-86920697D01*
X97440651Y-87071686D01*
X97456116Y-87228709D01*
X97440651Y-87385732D01*
X97410116Y-87486391D01*
X97394849Y-87536722D01*
X97320470Y-87675874D01*
X97220374Y-87797842D01*
X97098406Y-87897938D01*
X96959254Y-87972317D01*
X96908923Y-87987584D01*
X96808264Y-88018119D01*
X96729812Y-88025846D01*
X96690587Y-88029709D01*
X95411895Y-88029709D01*
X95372670Y-88025846D01*
X95294218Y-88018119D01*
X95193559Y-87987584D01*
X95143228Y-87972317D01*
X95004076Y-87897938D01*
X94882108Y-87797842D01*
X94782012Y-87675874D01*
X94707633Y-87536722D01*
X94692366Y-87486391D01*
X94661831Y-87385732D01*
X94646366Y-87228709D01*
X94661831Y-87071686D01*
X94707633Y-86920697D01*
X94707633Y-86920696D01*
X94782012Y-86781544D01*
X94882108Y-86659576D01*
X95004076Y-86559480D01*
X95143228Y-86485101D01*
X95193559Y-86469834D01*
X95294218Y-86439299D01*
X95372670Y-86431572D01*
X95411895Y-86427709D01*
X96690587Y-86427709D01*
X96729812Y-86431572D01*
G37*
G36*
X103029812Y-86431572D02*
G01*
X103108264Y-86439299D01*
X103208923Y-86469834D01*
X103259254Y-86485101D01*
X103398406Y-86559480D01*
X103520374Y-86659576D01*
X103620470Y-86781544D01*
X103694849Y-86920696D01*
X103694849Y-86920697D01*
X103740651Y-87071686D01*
X103756116Y-87228709D01*
X103740651Y-87385732D01*
X103710116Y-87486391D01*
X103694849Y-87536722D01*
X103620470Y-87675874D01*
X103520374Y-87797842D01*
X103398406Y-87897938D01*
X103259254Y-87972317D01*
X103208923Y-87987584D01*
X103108264Y-88018119D01*
X103029812Y-88025846D01*
X102990587Y-88029709D01*
X101111895Y-88029709D01*
X101072670Y-88025846D01*
X100994218Y-88018119D01*
X100893559Y-87987584D01*
X100843228Y-87972317D01*
X100704076Y-87897938D01*
X100582108Y-87797842D01*
X100482012Y-87675874D01*
X100407633Y-87536722D01*
X100392366Y-87486391D01*
X100361831Y-87385732D01*
X100346366Y-87228709D01*
X100361831Y-87071686D01*
X100407633Y-86920697D01*
X100407633Y-86920696D01*
X100482012Y-86781544D01*
X100582108Y-86659576D01*
X100704076Y-86559480D01*
X100843228Y-86485101D01*
X100893559Y-86469834D01*
X100994218Y-86439299D01*
X101072670Y-86431572D01*
X101111895Y-86427709D01*
X102990587Y-86427709D01*
X103029812Y-86431572D01*
G37*
M02*
