G04 #@! TF.GenerationSoftware,KiCad,Pcbnew,5.1.5+dfsg1-2~bpo10+1*
G04 #@! TF.CreationDate,2020-02-13T23:10:00+01:00*
G04 #@! TF.ProjectId,arty-a7-expansion,61727479-2d61-4372-9d65-7870616e7369,rev?*
G04 #@! TF.SameCoordinates,Original*
G04 #@! TF.FileFunction,Copper,L3,Inr*
G04 #@! TF.FilePolarity,Positive*
%FSLAX46Y46*%
G04 Gerber Fmt 4.6, Leading zero omitted, Abs format (unit mm)*
G04 Created by KiCad (PCBNEW 5.1.5+dfsg1-2~bpo10+1) date 2020-02-13 23:10:00*
%MOMM*%
%LPD*%
G04 APERTURE LIST*
%ADD10O,3.300000X1.500000*%
%ADD11O,2.700000X1.500000*%
%ADD12C,2.000000*%
%ADD13C,1.800000*%
%ADD14C,3.300000*%
%ADD15C,0.600000*%
%ADD16C,0.254000*%
G04 APERTURE END LIST*
D10*
X102051241Y-101728709D03*
X102051241Y-87228709D03*
D11*
X96051241Y-87228709D03*
X96051241Y-101728709D03*
D12*
X150651241Y-120718709D03*
X153191241Y-120718709D03*
X155731241Y-120718709D03*
X158271241Y-120718709D03*
X160811241Y-120718709D03*
X163351241Y-120718709D03*
X163351241Y-118178709D03*
X160811241Y-118178709D03*
X158271241Y-118178709D03*
X155731241Y-118178709D03*
X153191241Y-118178709D03*
X150651241Y-118178709D03*
X173651241Y-120718709D03*
X176191241Y-120718709D03*
X178731241Y-120718709D03*
X181271241Y-120718709D03*
X183811241Y-120718709D03*
X186351241Y-120718709D03*
X186351241Y-118178709D03*
X183811241Y-118178709D03*
X181271241Y-118178709D03*
X178731241Y-118178709D03*
X176191241Y-118178709D03*
X173651241Y-118178709D03*
X127651241Y-120718709D03*
X130191241Y-120718709D03*
X132731241Y-120718709D03*
X135271241Y-120718709D03*
X137811241Y-120718709D03*
X140351241Y-120718709D03*
X140351241Y-118178709D03*
X137811241Y-118178709D03*
X135271241Y-118178709D03*
X132731241Y-118178709D03*
X130191241Y-118178709D03*
X127651241Y-118178709D03*
D13*
X104011241Y-117978709D03*
X104011241Y-115478709D03*
X104011241Y-113478709D03*
X104011241Y-110978709D03*
D14*
X101301241Y-121048709D03*
X101301241Y-107908709D03*
D15*
X117611241Y-94828709D03*
X117631241Y-96328709D03*
X199241741Y-112914709D03*
X199241741Y-96404709D03*
X188573741Y-96404709D03*
X184509741Y-105866209D03*
X191621741Y-112914709D03*
X120565241Y-122249209D03*
X135360741Y-100976709D03*
X133519241Y-100976709D03*
X110024241Y-119137709D03*
X107738241Y-117169209D03*
X107738241Y-109168209D03*
X112691241Y-117994709D03*
X132630241Y-107199709D03*
X137202241Y-113295709D03*
X135106741Y-113168729D03*
X123676741Y-114819709D03*
X111230741Y-109739709D03*
X110849741Y-106818709D03*
X105189241Y-98509209D03*
X100363241Y-96985209D03*
X100363241Y-95524709D03*
X105506741Y-94000709D03*
X100490241Y-90952709D03*
X196310500Y-106859000D03*
X132221241Y-112002709D03*
X117521241Y-99348709D03*
X117574212Y-97810702D03*
X156697666Y-106847834D03*
X156167334Y-107378166D03*
X150579334Y-102552166D03*
X151109666Y-102021834D03*
X165963500Y-114987000D03*
X166713500Y-114987000D03*
X147421500Y-114987000D03*
X148171500Y-114987000D03*
X196071241Y-101378709D03*
X195271241Y-109278709D03*
X196574741Y-113867209D03*
X194352241Y-113867209D03*
X192066241Y-113867209D03*
X181652241Y-110120709D03*
X176508741Y-110120709D03*
X174032241Y-110120709D03*
X179048741Y-110120709D03*
X186668741Y-105802709D03*
X112183241Y-113359209D03*
X111040241Y-119137709D03*
X138853241Y-110819209D03*
X127042241Y-107326709D03*
X122216241Y-114819709D03*
X113351241Y-98578709D03*
X113351241Y-95578709D03*
X188071241Y-107978709D03*
X183071241Y-107978709D03*
X135614741Y-109803209D03*
X129963241Y-108850709D03*
X118585485Y-109683185D03*
X123930741Y-109676209D03*
X118468230Y-111036978D03*
X121913254Y-110942472D03*
X117961741Y-111771709D03*
X121733067Y-111777259D03*
X113834241Y-109041209D03*
X124311741Y-119518709D03*
X115159809Y-113161526D03*
X104851241Y-91478709D03*
X107951241Y-91178709D03*
X104851241Y-90478709D03*
X106451241Y-88778709D03*
X100451241Y-89978709D03*
X106451241Y-86978709D03*
D16*
G36*
X199816242Y-95664063D02*
G01*
X199684630Y-95576123D01*
X199514470Y-95505641D01*
X199333830Y-95469709D01*
X199149652Y-95469709D01*
X198969012Y-95505641D01*
X198798852Y-95576123D01*
X198645713Y-95678447D01*
X198515479Y-95808681D01*
X198413155Y-95961820D01*
X198342673Y-96131980D01*
X198306741Y-96312620D01*
X198306741Y-96496798D01*
X198342673Y-96677438D01*
X198413155Y-96847598D01*
X198515479Y-97000737D01*
X198645713Y-97130971D01*
X198798852Y-97233295D01*
X198969012Y-97303777D01*
X199149652Y-97339709D01*
X199333830Y-97339709D01*
X199514470Y-97303777D01*
X199684630Y-97233295D01*
X199816242Y-97145355D01*
X199816241Y-112174063D01*
X199684630Y-112086123D01*
X199514470Y-112015641D01*
X199333830Y-111979709D01*
X199149652Y-111979709D01*
X198969012Y-112015641D01*
X198798852Y-112086123D01*
X198645713Y-112188447D01*
X198515479Y-112318681D01*
X198413155Y-112471820D01*
X198342673Y-112641980D01*
X198306741Y-112822620D01*
X198306741Y-113006798D01*
X198342673Y-113187438D01*
X198413155Y-113357598D01*
X198515479Y-113510737D01*
X198645713Y-113640971D01*
X198798852Y-113743295D01*
X198969012Y-113813777D01*
X199149652Y-113849709D01*
X199333830Y-113849709D01*
X199514470Y-113813777D01*
X199684630Y-113743295D01*
X199816241Y-113655355D01*
X199816241Y-123743709D01*
X91886241Y-123743709D01*
X91886241Y-120823656D01*
X99016241Y-120823656D01*
X99016241Y-121273762D01*
X99104052Y-121715219D01*
X99276300Y-122131062D01*
X99526366Y-122505312D01*
X99844638Y-122823584D01*
X100218888Y-123073650D01*
X100634731Y-123245898D01*
X101076188Y-123333709D01*
X101526294Y-123333709D01*
X101967751Y-123245898D01*
X102383594Y-123073650D01*
X102757844Y-122823584D01*
X103076116Y-122505312D01*
X103308770Y-122157120D01*
X119630241Y-122157120D01*
X119630241Y-122341298D01*
X119666173Y-122521938D01*
X119736655Y-122692098D01*
X119838979Y-122845237D01*
X119969213Y-122975471D01*
X120122352Y-123077795D01*
X120292512Y-123148277D01*
X120473152Y-123184209D01*
X120657330Y-123184209D01*
X120837970Y-123148277D01*
X121008130Y-123077795D01*
X121161269Y-122975471D01*
X121291503Y-122845237D01*
X121393827Y-122692098D01*
X121464309Y-122521938D01*
X121500241Y-122341298D01*
X121500241Y-122157120D01*
X121464309Y-121976480D01*
X121393827Y-121806320D01*
X121291503Y-121653181D01*
X121161269Y-121522947D01*
X121008130Y-121420623D01*
X120837970Y-121350141D01*
X120657330Y-121314209D01*
X120473152Y-121314209D01*
X120292512Y-121350141D01*
X120122352Y-121420623D01*
X119969213Y-121522947D01*
X119838979Y-121653181D01*
X119736655Y-121806320D01*
X119666173Y-121976480D01*
X119630241Y-122157120D01*
X103308770Y-122157120D01*
X103326182Y-122131062D01*
X103498430Y-121715219D01*
X103586241Y-121273762D01*
X103586241Y-120823656D01*
X103498430Y-120382199D01*
X103326182Y-119966356D01*
X103076116Y-119592106D01*
X102757844Y-119273834D01*
X102383594Y-119023768D01*
X101967751Y-118851520D01*
X101526294Y-118763709D01*
X101076188Y-118763709D01*
X100634731Y-118851520D01*
X100218888Y-119023768D01*
X99844638Y-119273834D01*
X99526366Y-119592106D01*
X99276300Y-119966356D01*
X99104052Y-120382199D01*
X99016241Y-120823656D01*
X91886241Y-120823656D01*
X91886241Y-110827525D01*
X102476241Y-110827525D01*
X102476241Y-111129893D01*
X102535230Y-111426452D01*
X102650942Y-111705804D01*
X102818929Y-111957214D01*
X103032736Y-112171021D01*
X103119072Y-112228709D01*
X103032736Y-112286397D01*
X102818929Y-112500204D01*
X102650942Y-112751614D01*
X102535230Y-113030966D01*
X102476241Y-113327525D01*
X102476241Y-113629893D01*
X102535230Y-113926452D01*
X102650942Y-114205804D01*
X102818929Y-114457214D01*
X102840424Y-114478709D01*
X102818929Y-114500204D01*
X102650942Y-114751614D01*
X102535230Y-115030966D01*
X102476241Y-115327525D01*
X102476241Y-115629893D01*
X102535230Y-115926452D01*
X102650942Y-116205804D01*
X102818929Y-116457214D01*
X103032736Y-116671021D01*
X103119072Y-116728709D01*
X103032736Y-116786397D01*
X102818929Y-117000204D01*
X102650942Y-117251614D01*
X102535230Y-117530966D01*
X102476241Y-117827525D01*
X102476241Y-118129893D01*
X102535230Y-118426452D01*
X102650942Y-118705804D01*
X102818929Y-118957214D01*
X103032736Y-119171021D01*
X103284146Y-119339008D01*
X103563498Y-119454720D01*
X103860057Y-119513709D01*
X104162425Y-119513709D01*
X104458984Y-119454720D01*
X104738336Y-119339008D01*
X104989746Y-119171021D01*
X105115147Y-119045620D01*
X109089241Y-119045620D01*
X109089241Y-119229798D01*
X109125173Y-119410438D01*
X109195655Y-119580598D01*
X109297979Y-119733737D01*
X109428213Y-119863971D01*
X109581352Y-119966295D01*
X109751512Y-120036777D01*
X109932152Y-120072709D01*
X110116330Y-120072709D01*
X110296970Y-120036777D01*
X110467130Y-119966295D01*
X110620269Y-119863971D01*
X110750503Y-119733737D01*
X110852827Y-119580598D01*
X110916606Y-119426620D01*
X123376741Y-119426620D01*
X123376741Y-119610798D01*
X123412673Y-119791438D01*
X123483155Y-119961598D01*
X123585479Y-120114737D01*
X123715713Y-120244971D01*
X123868852Y-120347295D01*
X124039012Y-120417777D01*
X124219652Y-120453709D01*
X124403830Y-120453709D01*
X124584470Y-120417777D01*
X124754630Y-120347295D01*
X124907769Y-120244971D01*
X125038003Y-120114737D01*
X125140327Y-119961598D01*
X125210809Y-119791438D01*
X125246741Y-119610798D01*
X125246741Y-119426620D01*
X125210809Y-119245980D01*
X125140327Y-119075820D01*
X125038003Y-118922681D01*
X124907769Y-118792447D01*
X124754630Y-118690123D01*
X124584470Y-118619641D01*
X124403830Y-118583709D01*
X124219652Y-118583709D01*
X124039012Y-118619641D01*
X123868852Y-118690123D01*
X123715713Y-118792447D01*
X123585479Y-118922681D01*
X123483155Y-119075820D01*
X123412673Y-119245980D01*
X123376741Y-119426620D01*
X110916606Y-119426620D01*
X110923309Y-119410438D01*
X110959241Y-119229798D01*
X110959241Y-119045620D01*
X110923309Y-118864980D01*
X110852827Y-118694820D01*
X110750503Y-118541681D01*
X110620269Y-118411447D01*
X110467130Y-118309123D01*
X110296970Y-118238641D01*
X110116330Y-118202709D01*
X109932152Y-118202709D01*
X109751512Y-118238641D01*
X109581352Y-118309123D01*
X109428213Y-118411447D01*
X109297979Y-118541681D01*
X109195655Y-118694820D01*
X109125173Y-118864980D01*
X109089241Y-119045620D01*
X105115147Y-119045620D01*
X105203553Y-118957214D01*
X105371540Y-118705804D01*
X105487252Y-118426452D01*
X105546241Y-118129893D01*
X105546241Y-117827525D01*
X105487252Y-117530966D01*
X105371540Y-117251614D01*
X105254947Y-117077120D01*
X106803241Y-117077120D01*
X106803241Y-117261298D01*
X106839173Y-117441938D01*
X106909655Y-117612098D01*
X107011979Y-117765237D01*
X107142213Y-117895471D01*
X107295352Y-117997795D01*
X107465512Y-118068277D01*
X107646152Y-118104209D01*
X107830330Y-118104209D01*
X108010970Y-118068277D01*
X108181130Y-117997795D01*
X108323569Y-117902620D01*
X111756241Y-117902620D01*
X111756241Y-118086798D01*
X111792173Y-118267438D01*
X111862655Y-118437598D01*
X111964979Y-118590737D01*
X112095213Y-118720971D01*
X112248352Y-118823295D01*
X112418512Y-118893777D01*
X112599152Y-118929709D01*
X112783330Y-118929709D01*
X112963970Y-118893777D01*
X113134130Y-118823295D01*
X113287269Y-118720971D01*
X113417503Y-118590737D01*
X113519827Y-118437598D01*
X113590309Y-118267438D01*
X113626241Y-118086798D01*
X113626241Y-118017676D01*
X126016241Y-118017676D01*
X126016241Y-118339742D01*
X126079073Y-118655621D01*
X126202323Y-118953172D01*
X126381254Y-119220961D01*
X126608989Y-119448696D01*
X126609008Y-119448709D01*
X126608989Y-119448722D01*
X126381254Y-119676457D01*
X126202323Y-119944246D01*
X126079073Y-120241797D01*
X126016241Y-120557676D01*
X126016241Y-120879742D01*
X126079073Y-121195621D01*
X126202323Y-121493172D01*
X126381254Y-121760961D01*
X126608989Y-121988696D01*
X126876778Y-122167627D01*
X127174329Y-122290877D01*
X127490208Y-122353709D01*
X127812274Y-122353709D01*
X128128153Y-122290877D01*
X128425704Y-122167627D01*
X128693493Y-121988696D01*
X128921228Y-121760961D01*
X128921241Y-121760942D01*
X128921254Y-121760961D01*
X129148989Y-121988696D01*
X129416778Y-122167627D01*
X129714329Y-122290877D01*
X130030208Y-122353709D01*
X130352274Y-122353709D01*
X130668153Y-122290877D01*
X130965704Y-122167627D01*
X131233493Y-121988696D01*
X131461228Y-121760961D01*
X131461241Y-121760942D01*
X131461254Y-121760961D01*
X131688989Y-121988696D01*
X131956778Y-122167627D01*
X132254329Y-122290877D01*
X132570208Y-122353709D01*
X132892274Y-122353709D01*
X133208153Y-122290877D01*
X133505704Y-122167627D01*
X133773493Y-121988696D01*
X134001228Y-121760961D01*
X134001241Y-121760942D01*
X134001254Y-121760961D01*
X134228989Y-121988696D01*
X134496778Y-122167627D01*
X134794329Y-122290877D01*
X135110208Y-122353709D01*
X135432274Y-122353709D01*
X135748153Y-122290877D01*
X136045704Y-122167627D01*
X136313493Y-121988696D01*
X136541228Y-121760961D01*
X136541241Y-121760942D01*
X136541254Y-121760961D01*
X136768989Y-121988696D01*
X137036778Y-122167627D01*
X137334329Y-122290877D01*
X137650208Y-122353709D01*
X137972274Y-122353709D01*
X138288153Y-122290877D01*
X138585704Y-122167627D01*
X138853493Y-121988696D01*
X138988067Y-121854122D01*
X139395433Y-121854122D01*
X139491197Y-122118523D01*
X139780812Y-122259413D01*
X140092349Y-122341093D01*
X140413836Y-122360427D01*
X140732916Y-122316670D01*
X141037329Y-122211504D01*
X141211285Y-122118523D01*
X141307049Y-121854122D01*
X140351241Y-120898314D01*
X139395433Y-121854122D01*
X138988067Y-121854122D01*
X139081228Y-121760961D01*
X139153961Y-121652109D01*
X139215828Y-121674517D01*
X140171636Y-120718709D01*
X140530846Y-120718709D01*
X141486654Y-121674517D01*
X141751055Y-121578753D01*
X141891945Y-121289138D01*
X141973625Y-120977601D01*
X141992959Y-120656114D01*
X141949202Y-120337034D01*
X141844036Y-120032621D01*
X141751055Y-119858665D01*
X141486654Y-119762901D01*
X140530846Y-120718709D01*
X140171636Y-120718709D01*
X139215828Y-119762901D01*
X139153961Y-119785309D01*
X139081228Y-119676457D01*
X138853493Y-119448722D01*
X138853474Y-119448709D01*
X138853493Y-119448696D01*
X138988067Y-119314122D01*
X139395433Y-119314122D01*
X139444179Y-119448709D01*
X139395433Y-119583296D01*
X140351241Y-120539104D01*
X141307049Y-119583296D01*
X141258303Y-119448709D01*
X141307049Y-119314122D01*
X140351241Y-118358314D01*
X139395433Y-119314122D01*
X138988067Y-119314122D01*
X139081228Y-119220961D01*
X139153961Y-119112109D01*
X139215828Y-119134517D01*
X140171636Y-118178709D01*
X140530846Y-118178709D01*
X141486654Y-119134517D01*
X141751055Y-119038753D01*
X141891945Y-118749138D01*
X141973625Y-118437601D01*
X141992959Y-118116114D01*
X141979460Y-118017676D01*
X149016241Y-118017676D01*
X149016241Y-118339742D01*
X149079073Y-118655621D01*
X149202323Y-118953172D01*
X149381254Y-119220961D01*
X149608989Y-119448696D01*
X149609008Y-119448709D01*
X149608989Y-119448722D01*
X149381254Y-119676457D01*
X149202323Y-119944246D01*
X149079073Y-120241797D01*
X149016241Y-120557676D01*
X149016241Y-120879742D01*
X149079073Y-121195621D01*
X149202323Y-121493172D01*
X149381254Y-121760961D01*
X149608989Y-121988696D01*
X149876778Y-122167627D01*
X150174329Y-122290877D01*
X150490208Y-122353709D01*
X150812274Y-122353709D01*
X151128153Y-122290877D01*
X151425704Y-122167627D01*
X151693493Y-121988696D01*
X151921228Y-121760961D01*
X151921241Y-121760942D01*
X151921254Y-121760961D01*
X152148989Y-121988696D01*
X152416778Y-122167627D01*
X152714329Y-122290877D01*
X153030208Y-122353709D01*
X153352274Y-122353709D01*
X153668153Y-122290877D01*
X153965704Y-122167627D01*
X154233493Y-121988696D01*
X154461228Y-121760961D01*
X154461241Y-121760942D01*
X154461254Y-121760961D01*
X154688989Y-121988696D01*
X154956778Y-122167627D01*
X155254329Y-122290877D01*
X155570208Y-122353709D01*
X155892274Y-122353709D01*
X156208153Y-122290877D01*
X156505704Y-122167627D01*
X156773493Y-121988696D01*
X157001228Y-121760961D01*
X157001241Y-121760942D01*
X157001254Y-121760961D01*
X157228989Y-121988696D01*
X157496778Y-122167627D01*
X157794329Y-122290877D01*
X158110208Y-122353709D01*
X158432274Y-122353709D01*
X158748153Y-122290877D01*
X159045704Y-122167627D01*
X159313493Y-121988696D01*
X159541228Y-121760961D01*
X159541241Y-121760942D01*
X159541254Y-121760961D01*
X159768989Y-121988696D01*
X160036778Y-122167627D01*
X160334329Y-122290877D01*
X160650208Y-122353709D01*
X160972274Y-122353709D01*
X161288153Y-122290877D01*
X161585704Y-122167627D01*
X161853493Y-121988696D01*
X161988067Y-121854122D01*
X162395433Y-121854122D01*
X162491197Y-122118523D01*
X162780812Y-122259413D01*
X163092349Y-122341093D01*
X163413836Y-122360427D01*
X163732916Y-122316670D01*
X164037329Y-122211504D01*
X164211285Y-122118523D01*
X164307049Y-121854122D01*
X163351241Y-120898314D01*
X162395433Y-121854122D01*
X161988067Y-121854122D01*
X162081228Y-121760961D01*
X162153961Y-121652109D01*
X162215828Y-121674517D01*
X163171636Y-120718709D01*
X163530846Y-120718709D01*
X164486654Y-121674517D01*
X164751055Y-121578753D01*
X164891945Y-121289138D01*
X164973625Y-120977601D01*
X164992959Y-120656114D01*
X164949202Y-120337034D01*
X164844036Y-120032621D01*
X164751055Y-119858665D01*
X164486654Y-119762901D01*
X163530846Y-120718709D01*
X163171636Y-120718709D01*
X162215828Y-119762901D01*
X162153961Y-119785309D01*
X162081228Y-119676457D01*
X161853493Y-119448722D01*
X161853474Y-119448709D01*
X161853493Y-119448696D01*
X161988067Y-119314122D01*
X162395433Y-119314122D01*
X162444179Y-119448709D01*
X162395433Y-119583296D01*
X163351241Y-120539104D01*
X164307049Y-119583296D01*
X164258303Y-119448709D01*
X164307049Y-119314122D01*
X163351241Y-118358314D01*
X162395433Y-119314122D01*
X161988067Y-119314122D01*
X162081228Y-119220961D01*
X162153961Y-119112109D01*
X162215828Y-119134517D01*
X163171636Y-118178709D01*
X163530846Y-118178709D01*
X164486654Y-119134517D01*
X164751055Y-119038753D01*
X164891945Y-118749138D01*
X164973625Y-118437601D01*
X164992959Y-118116114D01*
X164979460Y-118017676D01*
X172016241Y-118017676D01*
X172016241Y-118339742D01*
X172079073Y-118655621D01*
X172202323Y-118953172D01*
X172381254Y-119220961D01*
X172608989Y-119448696D01*
X172609008Y-119448709D01*
X172608989Y-119448722D01*
X172381254Y-119676457D01*
X172202323Y-119944246D01*
X172079073Y-120241797D01*
X172016241Y-120557676D01*
X172016241Y-120879742D01*
X172079073Y-121195621D01*
X172202323Y-121493172D01*
X172381254Y-121760961D01*
X172608989Y-121988696D01*
X172876778Y-122167627D01*
X173174329Y-122290877D01*
X173490208Y-122353709D01*
X173812274Y-122353709D01*
X174128153Y-122290877D01*
X174425704Y-122167627D01*
X174693493Y-121988696D01*
X174921228Y-121760961D01*
X174921241Y-121760942D01*
X174921254Y-121760961D01*
X175148989Y-121988696D01*
X175416778Y-122167627D01*
X175714329Y-122290877D01*
X176030208Y-122353709D01*
X176352274Y-122353709D01*
X176668153Y-122290877D01*
X176965704Y-122167627D01*
X177233493Y-121988696D01*
X177461228Y-121760961D01*
X177461241Y-121760942D01*
X177461254Y-121760961D01*
X177688989Y-121988696D01*
X177956778Y-122167627D01*
X178254329Y-122290877D01*
X178570208Y-122353709D01*
X178892274Y-122353709D01*
X179208153Y-122290877D01*
X179505704Y-122167627D01*
X179773493Y-121988696D01*
X180001228Y-121760961D01*
X180001241Y-121760942D01*
X180001254Y-121760961D01*
X180228989Y-121988696D01*
X180496778Y-122167627D01*
X180794329Y-122290877D01*
X181110208Y-122353709D01*
X181432274Y-122353709D01*
X181748153Y-122290877D01*
X182045704Y-122167627D01*
X182313493Y-121988696D01*
X182541228Y-121760961D01*
X182541241Y-121760942D01*
X182541254Y-121760961D01*
X182768989Y-121988696D01*
X183036778Y-122167627D01*
X183334329Y-122290877D01*
X183650208Y-122353709D01*
X183972274Y-122353709D01*
X184288153Y-122290877D01*
X184585704Y-122167627D01*
X184853493Y-121988696D01*
X184988067Y-121854122D01*
X185395433Y-121854122D01*
X185491197Y-122118523D01*
X185780812Y-122259413D01*
X186092349Y-122341093D01*
X186413836Y-122360427D01*
X186732916Y-122316670D01*
X187037329Y-122211504D01*
X187211285Y-122118523D01*
X187307049Y-121854122D01*
X186351241Y-120898314D01*
X185395433Y-121854122D01*
X184988067Y-121854122D01*
X185081228Y-121760961D01*
X185153961Y-121652109D01*
X185215828Y-121674517D01*
X186171636Y-120718709D01*
X186530846Y-120718709D01*
X187486654Y-121674517D01*
X187751055Y-121578753D01*
X187891945Y-121289138D01*
X187973625Y-120977601D01*
X187992959Y-120656114D01*
X187949202Y-120337034D01*
X187844036Y-120032621D01*
X187751055Y-119858665D01*
X187486654Y-119762901D01*
X186530846Y-120718709D01*
X186171636Y-120718709D01*
X185215828Y-119762901D01*
X185153961Y-119785309D01*
X185081228Y-119676457D01*
X184853493Y-119448722D01*
X184853474Y-119448709D01*
X184853493Y-119448696D01*
X184988067Y-119314122D01*
X185395433Y-119314122D01*
X185444179Y-119448709D01*
X185395433Y-119583296D01*
X186351241Y-120539104D01*
X187307049Y-119583296D01*
X187258303Y-119448709D01*
X187307049Y-119314122D01*
X186351241Y-118358314D01*
X185395433Y-119314122D01*
X184988067Y-119314122D01*
X185081228Y-119220961D01*
X185153961Y-119112109D01*
X185215828Y-119134517D01*
X186171636Y-118178709D01*
X186530846Y-118178709D01*
X187486654Y-119134517D01*
X187751055Y-119038753D01*
X187891945Y-118749138D01*
X187973625Y-118437601D01*
X187992959Y-118116114D01*
X187949202Y-117797034D01*
X187844036Y-117492621D01*
X187751055Y-117318665D01*
X187486654Y-117222901D01*
X186530846Y-118178709D01*
X186171636Y-118178709D01*
X185215828Y-117222901D01*
X185153961Y-117245309D01*
X185081228Y-117136457D01*
X184988067Y-117043296D01*
X185395433Y-117043296D01*
X186351241Y-117999104D01*
X187307049Y-117043296D01*
X187211285Y-116778895D01*
X186921670Y-116638005D01*
X186610133Y-116556325D01*
X186288646Y-116536991D01*
X185969566Y-116580748D01*
X185665153Y-116685914D01*
X185491197Y-116778895D01*
X185395433Y-117043296D01*
X184988067Y-117043296D01*
X184853493Y-116908722D01*
X184585704Y-116729791D01*
X184288153Y-116606541D01*
X183972274Y-116543709D01*
X183650208Y-116543709D01*
X183334329Y-116606541D01*
X183036778Y-116729791D01*
X182768989Y-116908722D01*
X182541254Y-117136457D01*
X182541241Y-117136476D01*
X182541228Y-117136457D01*
X182313493Y-116908722D01*
X182045704Y-116729791D01*
X181748153Y-116606541D01*
X181432274Y-116543709D01*
X181110208Y-116543709D01*
X180794329Y-116606541D01*
X180496778Y-116729791D01*
X180228989Y-116908722D01*
X180001254Y-117136457D01*
X180001241Y-117136476D01*
X180001228Y-117136457D01*
X179773493Y-116908722D01*
X179505704Y-116729791D01*
X179208153Y-116606541D01*
X178892274Y-116543709D01*
X178570208Y-116543709D01*
X178254329Y-116606541D01*
X177956778Y-116729791D01*
X177688989Y-116908722D01*
X177461254Y-117136457D01*
X177461241Y-117136476D01*
X177461228Y-117136457D01*
X177233493Y-116908722D01*
X176965704Y-116729791D01*
X176668153Y-116606541D01*
X176352274Y-116543709D01*
X176030208Y-116543709D01*
X175714329Y-116606541D01*
X175416778Y-116729791D01*
X175148989Y-116908722D01*
X174921254Y-117136457D01*
X174921241Y-117136476D01*
X174921228Y-117136457D01*
X174693493Y-116908722D01*
X174425704Y-116729791D01*
X174128153Y-116606541D01*
X173812274Y-116543709D01*
X173490208Y-116543709D01*
X173174329Y-116606541D01*
X172876778Y-116729791D01*
X172608989Y-116908722D01*
X172381254Y-117136457D01*
X172202323Y-117404246D01*
X172079073Y-117701797D01*
X172016241Y-118017676D01*
X164979460Y-118017676D01*
X164949202Y-117797034D01*
X164844036Y-117492621D01*
X164751055Y-117318665D01*
X164486654Y-117222901D01*
X163530846Y-118178709D01*
X163171636Y-118178709D01*
X162215828Y-117222901D01*
X162153961Y-117245309D01*
X162081228Y-117136457D01*
X161988067Y-117043296D01*
X162395433Y-117043296D01*
X163351241Y-117999104D01*
X164307049Y-117043296D01*
X164211285Y-116778895D01*
X163921670Y-116638005D01*
X163610133Y-116556325D01*
X163288646Y-116536991D01*
X162969566Y-116580748D01*
X162665153Y-116685914D01*
X162491197Y-116778895D01*
X162395433Y-117043296D01*
X161988067Y-117043296D01*
X161853493Y-116908722D01*
X161585704Y-116729791D01*
X161288153Y-116606541D01*
X160972274Y-116543709D01*
X160650208Y-116543709D01*
X160334329Y-116606541D01*
X160036778Y-116729791D01*
X159768989Y-116908722D01*
X159541254Y-117136457D01*
X159541241Y-117136476D01*
X159541228Y-117136457D01*
X159313493Y-116908722D01*
X159045704Y-116729791D01*
X158748153Y-116606541D01*
X158432274Y-116543709D01*
X158110208Y-116543709D01*
X157794329Y-116606541D01*
X157496778Y-116729791D01*
X157228989Y-116908722D01*
X157001254Y-117136457D01*
X157001241Y-117136476D01*
X157001228Y-117136457D01*
X156773493Y-116908722D01*
X156505704Y-116729791D01*
X156208153Y-116606541D01*
X155892274Y-116543709D01*
X155570208Y-116543709D01*
X155254329Y-116606541D01*
X154956778Y-116729791D01*
X154688989Y-116908722D01*
X154461254Y-117136457D01*
X154461241Y-117136476D01*
X154461228Y-117136457D01*
X154233493Y-116908722D01*
X153965704Y-116729791D01*
X153668153Y-116606541D01*
X153352274Y-116543709D01*
X153030208Y-116543709D01*
X152714329Y-116606541D01*
X152416778Y-116729791D01*
X152148989Y-116908722D01*
X151921254Y-117136457D01*
X151921241Y-117136476D01*
X151921228Y-117136457D01*
X151693493Y-116908722D01*
X151425704Y-116729791D01*
X151128153Y-116606541D01*
X150812274Y-116543709D01*
X150490208Y-116543709D01*
X150174329Y-116606541D01*
X149876778Y-116729791D01*
X149608989Y-116908722D01*
X149381254Y-117136457D01*
X149202323Y-117404246D01*
X149079073Y-117701797D01*
X149016241Y-118017676D01*
X141979460Y-118017676D01*
X141949202Y-117797034D01*
X141844036Y-117492621D01*
X141751055Y-117318665D01*
X141486654Y-117222901D01*
X140530846Y-118178709D01*
X140171636Y-118178709D01*
X139215828Y-117222901D01*
X139153961Y-117245309D01*
X139081228Y-117136457D01*
X138988067Y-117043296D01*
X139395433Y-117043296D01*
X140351241Y-117999104D01*
X141307049Y-117043296D01*
X141211285Y-116778895D01*
X140921670Y-116638005D01*
X140610133Y-116556325D01*
X140288646Y-116536991D01*
X139969566Y-116580748D01*
X139665153Y-116685914D01*
X139491197Y-116778895D01*
X139395433Y-117043296D01*
X138988067Y-117043296D01*
X138853493Y-116908722D01*
X138585704Y-116729791D01*
X138288153Y-116606541D01*
X137972274Y-116543709D01*
X137650208Y-116543709D01*
X137334329Y-116606541D01*
X137036778Y-116729791D01*
X136768989Y-116908722D01*
X136541254Y-117136457D01*
X136541241Y-117136476D01*
X136541228Y-117136457D01*
X136313493Y-116908722D01*
X136045704Y-116729791D01*
X135748153Y-116606541D01*
X135432274Y-116543709D01*
X135110208Y-116543709D01*
X134794329Y-116606541D01*
X134496778Y-116729791D01*
X134228989Y-116908722D01*
X134001254Y-117136457D01*
X134001241Y-117136476D01*
X134001228Y-117136457D01*
X133773493Y-116908722D01*
X133505704Y-116729791D01*
X133208153Y-116606541D01*
X132892274Y-116543709D01*
X132570208Y-116543709D01*
X132254329Y-116606541D01*
X131956778Y-116729791D01*
X131688989Y-116908722D01*
X131461254Y-117136457D01*
X131461241Y-117136476D01*
X131461228Y-117136457D01*
X131233493Y-116908722D01*
X130965704Y-116729791D01*
X130668153Y-116606541D01*
X130352274Y-116543709D01*
X130030208Y-116543709D01*
X129714329Y-116606541D01*
X129416778Y-116729791D01*
X129148989Y-116908722D01*
X128921254Y-117136457D01*
X128921241Y-117136476D01*
X128921228Y-117136457D01*
X128693493Y-116908722D01*
X128425704Y-116729791D01*
X128128153Y-116606541D01*
X127812274Y-116543709D01*
X127490208Y-116543709D01*
X127174329Y-116606541D01*
X126876778Y-116729791D01*
X126608989Y-116908722D01*
X126381254Y-117136457D01*
X126202323Y-117404246D01*
X126079073Y-117701797D01*
X126016241Y-118017676D01*
X113626241Y-118017676D01*
X113626241Y-117902620D01*
X113590309Y-117721980D01*
X113519827Y-117551820D01*
X113417503Y-117398681D01*
X113287269Y-117268447D01*
X113134130Y-117166123D01*
X112963970Y-117095641D01*
X112783330Y-117059709D01*
X112599152Y-117059709D01*
X112418512Y-117095641D01*
X112248352Y-117166123D01*
X112095213Y-117268447D01*
X111964979Y-117398681D01*
X111862655Y-117551820D01*
X111792173Y-117721980D01*
X111756241Y-117902620D01*
X108323569Y-117902620D01*
X108334269Y-117895471D01*
X108464503Y-117765237D01*
X108566827Y-117612098D01*
X108637309Y-117441938D01*
X108673241Y-117261298D01*
X108673241Y-117077120D01*
X108637309Y-116896480D01*
X108566827Y-116726320D01*
X108464503Y-116573181D01*
X108334269Y-116442947D01*
X108181130Y-116340623D01*
X108010970Y-116270141D01*
X107830330Y-116234209D01*
X107646152Y-116234209D01*
X107465512Y-116270141D01*
X107295352Y-116340623D01*
X107142213Y-116442947D01*
X107011979Y-116573181D01*
X106909655Y-116726320D01*
X106839173Y-116896480D01*
X106803241Y-117077120D01*
X105254947Y-117077120D01*
X105203553Y-117000204D01*
X104989746Y-116786397D01*
X104903410Y-116728709D01*
X104989746Y-116671021D01*
X105203553Y-116457214D01*
X105371540Y-116205804D01*
X105487252Y-115926452D01*
X105546241Y-115629893D01*
X105546241Y-115327525D01*
X105487252Y-115030966D01*
X105371540Y-114751614D01*
X105355508Y-114727620D01*
X122741741Y-114727620D01*
X122741741Y-114911798D01*
X122777673Y-115092438D01*
X122848155Y-115262598D01*
X122950479Y-115415737D01*
X123080713Y-115545971D01*
X123233852Y-115648295D01*
X123404012Y-115718777D01*
X123584652Y-115754709D01*
X123768830Y-115754709D01*
X123949470Y-115718777D01*
X124119630Y-115648295D01*
X124272769Y-115545971D01*
X124403003Y-115415737D01*
X124505327Y-115262598D01*
X124575809Y-115092438D01*
X124611741Y-114911798D01*
X124611741Y-114894911D01*
X146486500Y-114894911D01*
X146486500Y-115079089D01*
X146522432Y-115259729D01*
X146592914Y-115429889D01*
X146695238Y-115583028D01*
X146825472Y-115713262D01*
X146978611Y-115815586D01*
X147148771Y-115886068D01*
X147329411Y-115922000D01*
X147513589Y-115922000D01*
X147694229Y-115886068D01*
X147796500Y-115843706D01*
X147898771Y-115886068D01*
X148079411Y-115922000D01*
X148263589Y-115922000D01*
X148444229Y-115886068D01*
X148614389Y-115815586D01*
X148767528Y-115713262D01*
X148897762Y-115583028D01*
X149000086Y-115429889D01*
X149070568Y-115259729D01*
X149106500Y-115079089D01*
X149106500Y-114894911D01*
X165028500Y-114894911D01*
X165028500Y-115079089D01*
X165064432Y-115259729D01*
X165134914Y-115429889D01*
X165237238Y-115583028D01*
X165367472Y-115713262D01*
X165520611Y-115815586D01*
X165690771Y-115886068D01*
X165871411Y-115922000D01*
X166055589Y-115922000D01*
X166236229Y-115886068D01*
X166338500Y-115843706D01*
X166440771Y-115886068D01*
X166621411Y-115922000D01*
X166805589Y-115922000D01*
X166986229Y-115886068D01*
X167156389Y-115815586D01*
X167309528Y-115713262D01*
X167439762Y-115583028D01*
X167542086Y-115429889D01*
X167612568Y-115259729D01*
X167648500Y-115079089D01*
X167648500Y-114894911D01*
X167612568Y-114714271D01*
X167542086Y-114544111D01*
X167439762Y-114390972D01*
X167309528Y-114260738D01*
X167156389Y-114158414D01*
X166986229Y-114087932D01*
X166805589Y-114052000D01*
X166621411Y-114052000D01*
X166440771Y-114087932D01*
X166338500Y-114130294D01*
X166236229Y-114087932D01*
X166055589Y-114052000D01*
X165871411Y-114052000D01*
X165690771Y-114087932D01*
X165520611Y-114158414D01*
X165367472Y-114260738D01*
X165237238Y-114390972D01*
X165134914Y-114544111D01*
X165064432Y-114714271D01*
X165028500Y-114894911D01*
X149106500Y-114894911D01*
X149070568Y-114714271D01*
X149000086Y-114544111D01*
X148897762Y-114390972D01*
X148767528Y-114260738D01*
X148614389Y-114158414D01*
X148444229Y-114087932D01*
X148263589Y-114052000D01*
X148079411Y-114052000D01*
X147898771Y-114087932D01*
X147796500Y-114130294D01*
X147694229Y-114087932D01*
X147513589Y-114052000D01*
X147329411Y-114052000D01*
X147148771Y-114087932D01*
X146978611Y-114158414D01*
X146825472Y-114260738D01*
X146695238Y-114390972D01*
X146592914Y-114544111D01*
X146522432Y-114714271D01*
X146486500Y-114894911D01*
X124611741Y-114894911D01*
X124611741Y-114727620D01*
X124575809Y-114546980D01*
X124505327Y-114376820D01*
X124403003Y-114223681D01*
X124272769Y-114093447D01*
X124119630Y-113991123D01*
X123949470Y-113920641D01*
X123768830Y-113884709D01*
X123584652Y-113884709D01*
X123404012Y-113920641D01*
X123233852Y-113991123D01*
X123080713Y-114093447D01*
X122950479Y-114223681D01*
X122848155Y-114376820D01*
X122777673Y-114546980D01*
X122741741Y-114727620D01*
X105355508Y-114727620D01*
X105203553Y-114500204D01*
X105182058Y-114478709D01*
X105203553Y-114457214D01*
X105371540Y-114205804D01*
X105487252Y-113926452D01*
X105546241Y-113629893D01*
X105546241Y-113327525D01*
X105494905Y-113069437D01*
X114224809Y-113069437D01*
X114224809Y-113253615D01*
X114260741Y-113434255D01*
X114331223Y-113604415D01*
X114433547Y-113757554D01*
X114563781Y-113887788D01*
X114716920Y-113990112D01*
X114887080Y-114060594D01*
X115067720Y-114096526D01*
X115251898Y-114096526D01*
X115432538Y-114060594D01*
X115602698Y-113990112D01*
X115755837Y-113887788D01*
X115886071Y-113757554D01*
X115988395Y-113604415D01*
X116058877Y-113434255D01*
X116094809Y-113253615D01*
X116094809Y-113076640D01*
X134171741Y-113076640D01*
X134171741Y-113260818D01*
X134207673Y-113441458D01*
X134278155Y-113611618D01*
X134380479Y-113764757D01*
X134510713Y-113894991D01*
X134663852Y-113997315D01*
X134834012Y-114067797D01*
X135014652Y-114103729D01*
X135198830Y-114103729D01*
X135379470Y-114067797D01*
X135549630Y-113997315D01*
X135702769Y-113894991D01*
X135833003Y-113764757D01*
X135935327Y-113611618D01*
X136005809Y-113441458D01*
X136041741Y-113260818D01*
X136041741Y-113203620D01*
X136267241Y-113203620D01*
X136267241Y-113387798D01*
X136303173Y-113568438D01*
X136373655Y-113738598D01*
X136475979Y-113891737D01*
X136606213Y-114021971D01*
X136759352Y-114124295D01*
X136929512Y-114194777D01*
X137110152Y-114230709D01*
X137294330Y-114230709D01*
X137474970Y-114194777D01*
X137645130Y-114124295D01*
X137798269Y-114021971D01*
X137928503Y-113891737D01*
X138030827Y-113738598D01*
X138101309Y-113568438D01*
X138137241Y-113387798D01*
X138137241Y-113203620D01*
X138101309Y-113022980D01*
X138030827Y-112852820D01*
X138010649Y-112822620D01*
X190686741Y-112822620D01*
X190686741Y-113006798D01*
X190722673Y-113187438D01*
X190793155Y-113357598D01*
X190895479Y-113510737D01*
X191025713Y-113640971D01*
X191178852Y-113743295D01*
X191349012Y-113813777D01*
X191529652Y-113849709D01*
X191713830Y-113849709D01*
X191894470Y-113813777D01*
X192064630Y-113743295D01*
X192217769Y-113640971D01*
X192348003Y-113510737D01*
X192450327Y-113357598D01*
X192520809Y-113187438D01*
X192556741Y-113006798D01*
X192556741Y-112822620D01*
X192520809Y-112641980D01*
X192450327Y-112471820D01*
X192348003Y-112318681D01*
X192217769Y-112188447D01*
X192064630Y-112086123D01*
X191894470Y-112015641D01*
X191713830Y-111979709D01*
X191529652Y-111979709D01*
X191349012Y-112015641D01*
X191178852Y-112086123D01*
X191025713Y-112188447D01*
X190895479Y-112318681D01*
X190793155Y-112471820D01*
X190722673Y-112641980D01*
X190686741Y-112822620D01*
X138010649Y-112822620D01*
X137928503Y-112699681D01*
X137798269Y-112569447D01*
X137645130Y-112467123D01*
X137474970Y-112396641D01*
X137294330Y-112360709D01*
X137110152Y-112360709D01*
X136929512Y-112396641D01*
X136759352Y-112467123D01*
X136606213Y-112569447D01*
X136475979Y-112699681D01*
X136373655Y-112852820D01*
X136303173Y-113022980D01*
X136267241Y-113203620D01*
X136041741Y-113203620D01*
X136041741Y-113076640D01*
X136005809Y-112896000D01*
X135935327Y-112725840D01*
X135833003Y-112572701D01*
X135702769Y-112442467D01*
X135549630Y-112340143D01*
X135379470Y-112269661D01*
X135198830Y-112233729D01*
X135014652Y-112233729D01*
X134834012Y-112269661D01*
X134663852Y-112340143D01*
X134510713Y-112442467D01*
X134380479Y-112572701D01*
X134278155Y-112725840D01*
X134207673Y-112896000D01*
X134171741Y-113076640D01*
X116094809Y-113076640D01*
X116094809Y-113069437D01*
X116058877Y-112888797D01*
X115988395Y-112718637D01*
X115886071Y-112565498D01*
X115755837Y-112435264D01*
X115602698Y-112332940D01*
X115432538Y-112262458D01*
X115251898Y-112226526D01*
X115067720Y-112226526D01*
X114887080Y-112262458D01*
X114716920Y-112332940D01*
X114563781Y-112435264D01*
X114433547Y-112565498D01*
X114331223Y-112718637D01*
X114260741Y-112888797D01*
X114224809Y-113069437D01*
X105494905Y-113069437D01*
X105487252Y-113030966D01*
X105371540Y-112751614D01*
X105203553Y-112500204D01*
X104989746Y-112286397D01*
X104903410Y-112228709D01*
X104989746Y-112171021D01*
X105203553Y-111957214D01*
X105371540Y-111705804D01*
X105382385Y-111679620D01*
X117026741Y-111679620D01*
X117026741Y-111863798D01*
X117062673Y-112044438D01*
X117133155Y-112214598D01*
X117235479Y-112367737D01*
X117365713Y-112497971D01*
X117518852Y-112600295D01*
X117689012Y-112670777D01*
X117869652Y-112706709D01*
X118053830Y-112706709D01*
X118234470Y-112670777D01*
X118404630Y-112600295D01*
X118557769Y-112497971D01*
X118688003Y-112367737D01*
X118790327Y-112214598D01*
X118860809Y-112044438D01*
X118895067Y-111872213D01*
X118911119Y-111865564D01*
X119064258Y-111763240D01*
X119142328Y-111685170D01*
X120798067Y-111685170D01*
X120798067Y-111869348D01*
X120833999Y-112049988D01*
X120904481Y-112220148D01*
X121006805Y-112373287D01*
X121137039Y-112503521D01*
X121290178Y-112605845D01*
X121460338Y-112676327D01*
X121640978Y-112712259D01*
X121825156Y-112712259D01*
X122005796Y-112676327D01*
X122175956Y-112605845D01*
X122329095Y-112503521D01*
X122459329Y-112373287D01*
X122561653Y-112220148D01*
X122632135Y-112049988D01*
X122659857Y-111910620D01*
X131286241Y-111910620D01*
X131286241Y-112094798D01*
X131322173Y-112275438D01*
X131392655Y-112445598D01*
X131494979Y-112598737D01*
X131625213Y-112728971D01*
X131778352Y-112831295D01*
X131948512Y-112901777D01*
X132129152Y-112937709D01*
X132313330Y-112937709D01*
X132493970Y-112901777D01*
X132664130Y-112831295D01*
X132817269Y-112728971D01*
X132947503Y-112598737D01*
X133049827Y-112445598D01*
X133120309Y-112275438D01*
X133156241Y-112094798D01*
X133156241Y-111910620D01*
X133120309Y-111729980D01*
X133049827Y-111559820D01*
X132947503Y-111406681D01*
X132817269Y-111276447D01*
X132664130Y-111174123D01*
X132493970Y-111103641D01*
X132313330Y-111067709D01*
X132129152Y-111067709D01*
X131948512Y-111103641D01*
X131778352Y-111174123D01*
X131625213Y-111276447D01*
X131494979Y-111406681D01*
X131392655Y-111559820D01*
X131322173Y-111729980D01*
X131286241Y-111910620D01*
X122659857Y-111910620D01*
X122668067Y-111869348D01*
X122668067Y-111685170D01*
X122638996Y-111539020D01*
X122639516Y-111538500D01*
X122741840Y-111385361D01*
X122812322Y-111215201D01*
X122848254Y-111034561D01*
X122848254Y-110850383D01*
X122812322Y-110669743D01*
X122741840Y-110499583D01*
X122639516Y-110346444D01*
X122509282Y-110216210D01*
X122356143Y-110113886D01*
X122185983Y-110043404D01*
X122005343Y-110007472D01*
X121821165Y-110007472D01*
X121640525Y-110043404D01*
X121470365Y-110113886D01*
X121317226Y-110216210D01*
X121186992Y-110346444D01*
X121084668Y-110499583D01*
X121014186Y-110669743D01*
X120978254Y-110850383D01*
X120978254Y-111034561D01*
X121007325Y-111180711D01*
X121006805Y-111181231D01*
X120904481Y-111334370D01*
X120833999Y-111504530D01*
X120798067Y-111685170D01*
X119142328Y-111685170D01*
X119194492Y-111633006D01*
X119296816Y-111479867D01*
X119367298Y-111309707D01*
X119403230Y-111129067D01*
X119403230Y-110944889D01*
X119367298Y-110764249D01*
X119296816Y-110594089D01*
X119194492Y-110440950D01*
X119170409Y-110416867D01*
X119181513Y-110409447D01*
X119311747Y-110279213D01*
X119414071Y-110126074D01*
X119484553Y-109955914D01*
X119520485Y-109775274D01*
X119520485Y-109591096D01*
X119519098Y-109584120D01*
X122995741Y-109584120D01*
X122995741Y-109768298D01*
X123031673Y-109948938D01*
X123102155Y-110119098D01*
X123204479Y-110272237D01*
X123334713Y-110402471D01*
X123487852Y-110504795D01*
X123658012Y-110575277D01*
X123838652Y-110611209D01*
X124022830Y-110611209D01*
X124203470Y-110575277D01*
X124373630Y-110504795D01*
X124526769Y-110402471D01*
X124657003Y-110272237D01*
X124759327Y-110119098D01*
X124829809Y-109948938D01*
X124865741Y-109768298D01*
X124865741Y-109584120D01*
X124829809Y-109403480D01*
X124759327Y-109233320D01*
X124657003Y-109080181D01*
X124526769Y-108949947D01*
X124373630Y-108847623D01*
X124203470Y-108777141D01*
X124110360Y-108758620D01*
X129028241Y-108758620D01*
X129028241Y-108942798D01*
X129064173Y-109123438D01*
X129134655Y-109293598D01*
X129236979Y-109446737D01*
X129367213Y-109576971D01*
X129520352Y-109679295D01*
X129690512Y-109749777D01*
X129871152Y-109785709D01*
X130055330Y-109785709D01*
X130235970Y-109749777D01*
X130329297Y-109711120D01*
X134679741Y-109711120D01*
X134679741Y-109895298D01*
X134715673Y-110075938D01*
X134786155Y-110246098D01*
X134888479Y-110399237D01*
X135018713Y-110529471D01*
X135171852Y-110631795D01*
X135342012Y-110702277D01*
X135522652Y-110738209D01*
X135706830Y-110738209D01*
X135887470Y-110702277D01*
X136057630Y-110631795D01*
X136210769Y-110529471D01*
X136341003Y-110399237D01*
X136443327Y-110246098D01*
X136513809Y-110075938D01*
X136549741Y-109895298D01*
X136549741Y-109711120D01*
X136513809Y-109530480D01*
X136443327Y-109360320D01*
X136341003Y-109207181D01*
X136320442Y-109186620D01*
X194336241Y-109186620D01*
X194336241Y-109370798D01*
X194372173Y-109551438D01*
X194442655Y-109721598D01*
X194544979Y-109874737D01*
X194675213Y-110004971D01*
X194828352Y-110107295D01*
X194998512Y-110177777D01*
X195179152Y-110213709D01*
X195363330Y-110213709D01*
X195543970Y-110177777D01*
X195714130Y-110107295D01*
X195867269Y-110004971D01*
X195997503Y-109874737D01*
X196099827Y-109721598D01*
X196170309Y-109551438D01*
X196206241Y-109370798D01*
X196206241Y-109186620D01*
X196170309Y-109005980D01*
X196099827Y-108835820D01*
X195997503Y-108682681D01*
X195867269Y-108552447D01*
X195714130Y-108450123D01*
X195543970Y-108379641D01*
X195363330Y-108343709D01*
X195179152Y-108343709D01*
X194998512Y-108379641D01*
X194828352Y-108450123D01*
X194675213Y-108552447D01*
X194544979Y-108682681D01*
X194442655Y-108835820D01*
X194372173Y-109005980D01*
X194336241Y-109186620D01*
X136320442Y-109186620D01*
X136210769Y-109076947D01*
X136057630Y-108974623D01*
X135887470Y-108904141D01*
X135706830Y-108868209D01*
X135522652Y-108868209D01*
X135342012Y-108904141D01*
X135171852Y-108974623D01*
X135018713Y-109076947D01*
X134888479Y-109207181D01*
X134786155Y-109360320D01*
X134715673Y-109530480D01*
X134679741Y-109711120D01*
X130329297Y-109711120D01*
X130406130Y-109679295D01*
X130559269Y-109576971D01*
X130689503Y-109446737D01*
X130791827Y-109293598D01*
X130862309Y-109123438D01*
X130898241Y-108942798D01*
X130898241Y-108758620D01*
X130862309Y-108577980D01*
X130791827Y-108407820D01*
X130689503Y-108254681D01*
X130559269Y-108124447D01*
X130406130Y-108022123D01*
X130235970Y-107951641D01*
X130055330Y-107915709D01*
X129871152Y-107915709D01*
X129690512Y-107951641D01*
X129520352Y-108022123D01*
X129367213Y-108124447D01*
X129236979Y-108254681D01*
X129134655Y-108407820D01*
X129064173Y-108577980D01*
X129028241Y-108758620D01*
X124110360Y-108758620D01*
X124022830Y-108741209D01*
X123838652Y-108741209D01*
X123658012Y-108777141D01*
X123487852Y-108847623D01*
X123334713Y-108949947D01*
X123204479Y-109080181D01*
X123102155Y-109233320D01*
X123031673Y-109403480D01*
X122995741Y-109584120D01*
X119519098Y-109584120D01*
X119484553Y-109410456D01*
X119414071Y-109240296D01*
X119311747Y-109087157D01*
X119181513Y-108956923D01*
X119028374Y-108854599D01*
X118858214Y-108784117D01*
X118677574Y-108748185D01*
X118493396Y-108748185D01*
X118312756Y-108784117D01*
X118142596Y-108854599D01*
X117989457Y-108956923D01*
X117859223Y-109087157D01*
X117756899Y-109240296D01*
X117686417Y-109410456D01*
X117650485Y-109591096D01*
X117650485Y-109775274D01*
X117686417Y-109955914D01*
X117756899Y-110126074D01*
X117859223Y-110279213D01*
X117883306Y-110303296D01*
X117872202Y-110310716D01*
X117741968Y-110440950D01*
X117639644Y-110594089D01*
X117569162Y-110764249D01*
X117534904Y-110936474D01*
X117518852Y-110943123D01*
X117365713Y-111045447D01*
X117235479Y-111175681D01*
X117133155Y-111328820D01*
X117062673Y-111498980D01*
X117026741Y-111679620D01*
X105382385Y-111679620D01*
X105487252Y-111426452D01*
X105546241Y-111129893D01*
X105546241Y-110827525D01*
X105487252Y-110530966D01*
X105371540Y-110251614D01*
X105203553Y-110000204D01*
X104989746Y-109786397D01*
X104738336Y-109618410D01*
X104458984Y-109502698D01*
X104162425Y-109443709D01*
X103860057Y-109443709D01*
X103563498Y-109502698D01*
X103284146Y-109618410D01*
X103032736Y-109786397D01*
X102818929Y-110000204D01*
X102650942Y-110251614D01*
X102535230Y-110530966D01*
X102476241Y-110827525D01*
X91886241Y-110827525D01*
X91886241Y-107683656D01*
X99016241Y-107683656D01*
X99016241Y-108133762D01*
X99104052Y-108575219D01*
X99276300Y-108991062D01*
X99526366Y-109365312D01*
X99844638Y-109683584D01*
X100218888Y-109933650D01*
X100634731Y-110105898D01*
X101076188Y-110193709D01*
X101526294Y-110193709D01*
X101967751Y-110105898D01*
X102383594Y-109933650D01*
X102757844Y-109683584D01*
X103076116Y-109365312D01*
X103269348Y-109076120D01*
X106803241Y-109076120D01*
X106803241Y-109260298D01*
X106839173Y-109440938D01*
X106909655Y-109611098D01*
X107011979Y-109764237D01*
X107142213Y-109894471D01*
X107295352Y-109996795D01*
X107465512Y-110067277D01*
X107646152Y-110103209D01*
X107830330Y-110103209D01*
X108010970Y-110067277D01*
X108181130Y-109996795D01*
X108334269Y-109894471D01*
X108464503Y-109764237D01*
X108542423Y-109647620D01*
X110295741Y-109647620D01*
X110295741Y-109831798D01*
X110331673Y-110012438D01*
X110402155Y-110182598D01*
X110504479Y-110335737D01*
X110634713Y-110465971D01*
X110787852Y-110568295D01*
X110958012Y-110638777D01*
X111138652Y-110674709D01*
X111322830Y-110674709D01*
X111503470Y-110638777D01*
X111673630Y-110568295D01*
X111826769Y-110465971D01*
X111957003Y-110335737D01*
X112059327Y-110182598D01*
X112129809Y-110012438D01*
X112165741Y-109831798D01*
X112165741Y-109647620D01*
X112129809Y-109466980D01*
X112059327Y-109296820D01*
X111957003Y-109143681D01*
X111826769Y-109013447D01*
X111730497Y-108949120D01*
X112899241Y-108949120D01*
X112899241Y-109133298D01*
X112935173Y-109313938D01*
X113005655Y-109484098D01*
X113107979Y-109637237D01*
X113238213Y-109767471D01*
X113391352Y-109869795D01*
X113561512Y-109940277D01*
X113742152Y-109976209D01*
X113926330Y-109976209D01*
X114106970Y-109940277D01*
X114277130Y-109869795D01*
X114430269Y-109767471D01*
X114560503Y-109637237D01*
X114662827Y-109484098D01*
X114733309Y-109313938D01*
X114769241Y-109133298D01*
X114769241Y-108949120D01*
X114733309Y-108768480D01*
X114662827Y-108598320D01*
X114560503Y-108445181D01*
X114430269Y-108314947D01*
X114277130Y-108212623D01*
X114106970Y-108142141D01*
X113926330Y-108106209D01*
X113742152Y-108106209D01*
X113561512Y-108142141D01*
X113391352Y-108212623D01*
X113238213Y-108314947D01*
X113107979Y-108445181D01*
X113005655Y-108598320D01*
X112935173Y-108768480D01*
X112899241Y-108949120D01*
X111730497Y-108949120D01*
X111673630Y-108911123D01*
X111503470Y-108840641D01*
X111322830Y-108804709D01*
X111138652Y-108804709D01*
X110958012Y-108840641D01*
X110787852Y-108911123D01*
X110634713Y-109013447D01*
X110504479Y-109143681D01*
X110402155Y-109296820D01*
X110331673Y-109466980D01*
X110295741Y-109647620D01*
X108542423Y-109647620D01*
X108566827Y-109611098D01*
X108637309Y-109440938D01*
X108673241Y-109260298D01*
X108673241Y-109076120D01*
X108637309Y-108895480D01*
X108566827Y-108725320D01*
X108464503Y-108572181D01*
X108334269Y-108441947D01*
X108181130Y-108339623D01*
X108010970Y-108269141D01*
X107830330Y-108233209D01*
X107646152Y-108233209D01*
X107465512Y-108269141D01*
X107295352Y-108339623D01*
X107142213Y-108441947D01*
X107011979Y-108572181D01*
X106909655Y-108725320D01*
X106839173Y-108895480D01*
X106803241Y-109076120D01*
X103269348Y-109076120D01*
X103326182Y-108991062D01*
X103498430Y-108575219D01*
X103586241Y-108133762D01*
X103586241Y-107683656D01*
X103498430Y-107242199D01*
X103326182Y-106826356D01*
X103259541Y-106726620D01*
X109914741Y-106726620D01*
X109914741Y-106910798D01*
X109950673Y-107091438D01*
X110021155Y-107261598D01*
X110123479Y-107414737D01*
X110253713Y-107544971D01*
X110406852Y-107647295D01*
X110577012Y-107717777D01*
X110757652Y-107753709D01*
X110941830Y-107753709D01*
X111122470Y-107717777D01*
X111292630Y-107647295D01*
X111445769Y-107544971D01*
X111576003Y-107414737D01*
X111678327Y-107261598D01*
X111742106Y-107107620D01*
X131695241Y-107107620D01*
X131695241Y-107291798D01*
X131731173Y-107472438D01*
X131801655Y-107642598D01*
X131903979Y-107795737D01*
X132034213Y-107925971D01*
X132187352Y-108028295D01*
X132357512Y-108098777D01*
X132538152Y-108134709D01*
X132722330Y-108134709D01*
X132902970Y-108098777D01*
X133073130Y-108028295D01*
X133226269Y-107925971D01*
X133356503Y-107795737D01*
X133458827Y-107642598D01*
X133529309Y-107472438D01*
X133565241Y-107291798D01*
X133565241Y-107286077D01*
X155232334Y-107286077D01*
X155232334Y-107470255D01*
X155268266Y-107650895D01*
X155338748Y-107821055D01*
X155441072Y-107974194D01*
X155571306Y-108104428D01*
X155724445Y-108206752D01*
X155894605Y-108277234D01*
X156075245Y-108313166D01*
X156259423Y-108313166D01*
X156440063Y-108277234D01*
X156610223Y-108206752D01*
X156763362Y-108104428D01*
X156893596Y-107974194D01*
X156952110Y-107886620D01*
X182136241Y-107886620D01*
X182136241Y-108070798D01*
X182172173Y-108251438D01*
X182242655Y-108421598D01*
X182344979Y-108574737D01*
X182475213Y-108704971D01*
X182628352Y-108807295D01*
X182798512Y-108877777D01*
X182979152Y-108913709D01*
X183163330Y-108913709D01*
X183343970Y-108877777D01*
X183514130Y-108807295D01*
X183667269Y-108704971D01*
X183797503Y-108574737D01*
X183899827Y-108421598D01*
X183970309Y-108251438D01*
X184006241Y-108070798D01*
X184006241Y-107886620D01*
X187136241Y-107886620D01*
X187136241Y-108070798D01*
X187172173Y-108251438D01*
X187242655Y-108421598D01*
X187344979Y-108574737D01*
X187475213Y-108704971D01*
X187628352Y-108807295D01*
X187798512Y-108877777D01*
X187979152Y-108913709D01*
X188163330Y-108913709D01*
X188343970Y-108877777D01*
X188514130Y-108807295D01*
X188667269Y-108704971D01*
X188797503Y-108574737D01*
X188899827Y-108421598D01*
X188970309Y-108251438D01*
X189006241Y-108070798D01*
X189006241Y-107886620D01*
X188970309Y-107705980D01*
X188899827Y-107535820D01*
X188797503Y-107382681D01*
X188667269Y-107252447D01*
X188514130Y-107150123D01*
X188343970Y-107079641D01*
X188163330Y-107043709D01*
X187979152Y-107043709D01*
X187798512Y-107079641D01*
X187628352Y-107150123D01*
X187475213Y-107252447D01*
X187344979Y-107382681D01*
X187242655Y-107535820D01*
X187172173Y-107705980D01*
X187136241Y-107886620D01*
X184006241Y-107886620D01*
X183970309Y-107705980D01*
X183899827Y-107535820D01*
X183797503Y-107382681D01*
X183667269Y-107252447D01*
X183514130Y-107150123D01*
X183343970Y-107079641D01*
X183163330Y-107043709D01*
X182979152Y-107043709D01*
X182798512Y-107079641D01*
X182628352Y-107150123D01*
X182475213Y-107252447D01*
X182344979Y-107382681D01*
X182242655Y-107535820D01*
X182172173Y-107705980D01*
X182136241Y-107886620D01*
X156952110Y-107886620D01*
X156995920Y-107821055D01*
X157038282Y-107718782D01*
X157140555Y-107676420D01*
X157293694Y-107574096D01*
X157423928Y-107443862D01*
X157526252Y-107290723D01*
X157596734Y-107120563D01*
X157632666Y-106939923D01*
X157632666Y-106755745D01*
X157596734Y-106575105D01*
X157526252Y-106404945D01*
X157423928Y-106251806D01*
X157293694Y-106121572D01*
X157140555Y-106019248D01*
X156970395Y-105948766D01*
X156789755Y-105912834D01*
X156605577Y-105912834D01*
X156424937Y-105948766D01*
X156254777Y-106019248D01*
X156101638Y-106121572D01*
X155971404Y-106251806D01*
X155869080Y-106404945D01*
X155826718Y-106507218D01*
X155724445Y-106549580D01*
X155571306Y-106651904D01*
X155441072Y-106782138D01*
X155338748Y-106935277D01*
X155268266Y-107105437D01*
X155232334Y-107286077D01*
X133565241Y-107286077D01*
X133565241Y-107107620D01*
X133529309Y-106926980D01*
X133458827Y-106756820D01*
X133356503Y-106603681D01*
X133226269Y-106473447D01*
X133073130Y-106371123D01*
X132902970Y-106300641D01*
X132722330Y-106264709D01*
X132538152Y-106264709D01*
X132357512Y-106300641D01*
X132187352Y-106371123D01*
X132034213Y-106473447D01*
X131903979Y-106603681D01*
X131801655Y-106756820D01*
X131731173Y-106926980D01*
X131695241Y-107107620D01*
X111742106Y-107107620D01*
X111748809Y-107091438D01*
X111784741Y-106910798D01*
X111784741Y-106726620D01*
X111748809Y-106545980D01*
X111678327Y-106375820D01*
X111576003Y-106222681D01*
X111445769Y-106092447D01*
X111292630Y-105990123D01*
X111122470Y-105919641D01*
X110941830Y-105883709D01*
X110757652Y-105883709D01*
X110577012Y-105919641D01*
X110406852Y-105990123D01*
X110253713Y-106092447D01*
X110123479Y-106222681D01*
X110021155Y-106375820D01*
X109950673Y-106545980D01*
X109914741Y-106726620D01*
X103259541Y-106726620D01*
X103076116Y-106452106D01*
X102757844Y-106133834D01*
X102383594Y-105883768D01*
X102118881Y-105774120D01*
X183574741Y-105774120D01*
X183574741Y-105958298D01*
X183610673Y-106138938D01*
X183681155Y-106309098D01*
X183783479Y-106462237D01*
X183913713Y-106592471D01*
X184066852Y-106694795D01*
X184237012Y-106765277D01*
X184417652Y-106801209D01*
X184601830Y-106801209D01*
X184774255Y-106766911D01*
X195375500Y-106766911D01*
X195375500Y-106951089D01*
X195411432Y-107131729D01*
X195481914Y-107301889D01*
X195584238Y-107455028D01*
X195714472Y-107585262D01*
X195867611Y-107687586D01*
X196037771Y-107758068D01*
X196218411Y-107794000D01*
X196402589Y-107794000D01*
X196583229Y-107758068D01*
X196753389Y-107687586D01*
X196906528Y-107585262D01*
X197036762Y-107455028D01*
X197139086Y-107301889D01*
X197209568Y-107131729D01*
X197245500Y-106951089D01*
X197245500Y-106766911D01*
X197209568Y-106586271D01*
X197139086Y-106416111D01*
X197036762Y-106262972D01*
X196906528Y-106132738D01*
X196753389Y-106030414D01*
X196583229Y-105959932D01*
X196402589Y-105924000D01*
X196218411Y-105924000D01*
X196037771Y-105959932D01*
X195867611Y-106030414D01*
X195714472Y-106132738D01*
X195584238Y-106262972D01*
X195481914Y-106416111D01*
X195411432Y-106586271D01*
X195375500Y-106766911D01*
X184774255Y-106766911D01*
X184782470Y-106765277D01*
X184952630Y-106694795D01*
X185105769Y-106592471D01*
X185236003Y-106462237D01*
X185338327Y-106309098D01*
X185408809Y-106138938D01*
X185444741Y-105958298D01*
X185444741Y-105774120D01*
X185408809Y-105593480D01*
X185338327Y-105423320D01*
X185236003Y-105270181D01*
X185105769Y-105139947D01*
X184952630Y-105037623D01*
X184782470Y-104967141D01*
X184601830Y-104931209D01*
X184417652Y-104931209D01*
X184237012Y-104967141D01*
X184066852Y-105037623D01*
X183913713Y-105139947D01*
X183783479Y-105270181D01*
X183681155Y-105423320D01*
X183610673Y-105593480D01*
X183574741Y-105774120D01*
X102118881Y-105774120D01*
X101967751Y-105711520D01*
X101526294Y-105623709D01*
X101076188Y-105623709D01*
X100634731Y-105711520D01*
X100218888Y-105883768D01*
X99844638Y-106133834D01*
X99526366Y-106452106D01*
X99276300Y-106826356D01*
X99104052Y-107242199D01*
X99016241Y-107683656D01*
X91886241Y-107683656D01*
X91886241Y-101728709D01*
X94059540Y-101728709D01*
X94086281Y-102000216D01*
X94165477Y-102261290D01*
X94294084Y-102501897D01*
X94467160Y-102712790D01*
X94678053Y-102885866D01*
X94918660Y-103014473D01*
X95179734Y-103093669D01*
X95383204Y-103113709D01*
X96719278Y-103113709D01*
X96922748Y-103093669D01*
X97183822Y-103014473D01*
X97424429Y-102885866D01*
X97635322Y-102712790D01*
X97808398Y-102501897D01*
X97937005Y-102261290D01*
X98016201Y-102000216D01*
X98042942Y-101728709D01*
X99759540Y-101728709D01*
X99786281Y-102000216D01*
X99865477Y-102261290D01*
X99994084Y-102501897D01*
X100167160Y-102712790D01*
X100378053Y-102885866D01*
X100618660Y-103014473D01*
X100879734Y-103093669D01*
X101083204Y-103113709D01*
X103019278Y-103113709D01*
X103222748Y-103093669D01*
X103483822Y-103014473D01*
X103724429Y-102885866D01*
X103935322Y-102712790D01*
X104108398Y-102501897D01*
X104130751Y-102460077D01*
X149644334Y-102460077D01*
X149644334Y-102644255D01*
X149680266Y-102824895D01*
X149750748Y-102995055D01*
X149853072Y-103148194D01*
X149983306Y-103278428D01*
X150136445Y-103380752D01*
X150306605Y-103451234D01*
X150487245Y-103487166D01*
X150671423Y-103487166D01*
X150852063Y-103451234D01*
X151022223Y-103380752D01*
X151175362Y-103278428D01*
X151305596Y-103148194D01*
X151407920Y-102995055D01*
X151450282Y-102892782D01*
X151552555Y-102850420D01*
X151705694Y-102748096D01*
X151835928Y-102617862D01*
X151938252Y-102464723D01*
X152008734Y-102294563D01*
X152044666Y-102113923D01*
X152044666Y-101929745D01*
X152008734Y-101749105D01*
X151938252Y-101578945D01*
X151835928Y-101425806D01*
X151705694Y-101295572D01*
X151692297Y-101286620D01*
X195136241Y-101286620D01*
X195136241Y-101470798D01*
X195172173Y-101651438D01*
X195242655Y-101821598D01*
X195344979Y-101974737D01*
X195475213Y-102104971D01*
X195628352Y-102207295D01*
X195798512Y-102277777D01*
X195979152Y-102313709D01*
X196163330Y-102313709D01*
X196343970Y-102277777D01*
X196514130Y-102207295D01*
X196667269Y-102104971D01*
X196797503Y-101974737D01*
X196899827Y-101821598D01*
X196970309Y-101651438D01*
X197006241Y-101470798D01*
X197006241Y-101286620D01*
X196970309Y-101105980D01*
X196899827Y-100935820D01*
X196797503Y-100782681D01*
X196667269Y-100652447D01*
X196514130Y-100550123D01*
X196343970Y-100479641D01*
X196163330Y-100443709D01*
X195979152Y-100443709D01*
X195798512Y-100479641D01*
X195628352Y-100550123D01*
X195475213Y-100652447D01*
X195344979Y-100782681D01*
X195242655Y-100935820D01*
X195172173Y-101105980D01*
X195136241Y-101286620D01*
X151692297Y-101286620D01*
X151552555Y-101193248D01*
X151382395Y-101122766D01*
X151201755Y-101086834D01*
X151017577Y-101086834D01*
X150836937Y-101122766D01*
X150666777Y-101193248D01*
X150513638Y-101295572D01*
X150383404Y-101425806D01*
X150281080Y-101578945D01*
X150238718Y-101681218D01*
X150136445Y-101723580D01*
X149983306Y-101825904D01*
X149853072Y-101956138D01*
X149750748Y-102109277D01*
X149680266Y-102279437D01*
X149644334Y-102460077D01*
X104130751Y-102460077D01*
X104237005Y-102261290D01*
X104316201Y-102000216D01*
X104342942Y-101728709D01*
X104316201Y-101457202D01*
X104237005Y-101196128D01*
X104108398Y-100955521D01*
X104050211Y-100884620D01*
X132584241Y-100884620D01*
X132584241Y-101068798D01*
X132620173Y-101249438D01*
X132690655Y-101419598D01*
X132792979Y-101572737D01*
X132923213Y-101702971D01*
X133076352Y-101805295D01*
X133246512Y-101875777D01*
X133427152Y-101911709D01*
X133611330Y-101911709D01*
X133791970Y-101875777D01*
X133962130Y-101805295D01*
X134115269Y-101702971D01*
X134245503Y-101572737D01*
X134347827Y-101419598D01*
X134418309Y-101249438D01*
X134439991Y-101140437D01*
X134461673Y-101249438D01*
X134532155Y-101419598D01*
X134634479Y-101572737D01*
X134764713Y-101702971D01*
X134917852Y-101805295D01*
X135088012Y-101875777D01*
X135268652Y-101911709D01*
X135452830Y-101911709D01*
X135633470Y-101875777D01*
X135803630Y-101805295D01*
X135956769Y-101702971D01*
X136087003Y-101572737D01*
X136189327Y-101419598D01*
X136259809Y-101249438D01*
X136295741Y-101068798D01*
X136295741Y-100884620D01*
X136259809Y-100703980D01*
X136189327Y-100533820D01*
X136087003Y-100380681D01*
X135956769Y-100250447D01*
X135803630Y-100148123D01*
X135633470Y-100077641D01*
X135452830Y-100041709D01*
X135268652Y-100041709D01*
X135088012Y-100077641D01*
X134917852Y-100148123D01*
X134764713Y-100250447D01*
X134634479Y-100380681D01*
X134532155Y-100533820D01*
X134461673Y-100703980D01*
X134439991Y-100812981D01*
X134418309Y-100703980D01*
X134347827Y-100533820D01*
X134245503Y-100380681D01*
X134115269Y-100250447D01*
X133962130Y-100148123D01*
X133791970Y-100077641D01*
X133611330Y-100041709D01*
X133427152Y-100041709D01*
X133246512Y-100077641D01*
X133076352Y-100148123D01*
X132923213Y-100250447D01*
X132792979Y-100380681D01*
X132690655Y-100533820D01*
X132620173Y-100703980D01*
X132584241Y-100884620D01*
X104050211Y-100884620D01*
X103935322Y-100744628D01*
X103724429Y-100571552D01*
X103483822Y-100442945D01*
X103222748Y-100363749D01*
X103019278Y-100343709D01*
X101083204Y-100343709D01*
X100879734Y-100363749D01*
X100618660Y-100442945D01*
X100378053Y-100571552D01*
X100167160Y-100744628D01*
X99994084Y-100955521D01*
X99865477Y-101196128D01*
X99786281Y-101457202D01*
X99759540Y-101728709D01*
X98042942Y-101728709D01*
X98016201Y-101457202D01*
X97937005Y-101196128D01*
X97808398Y-100955521D01*
X97635322Y-100744628D01*
X97424429Y-100571552D01*
X97183822Y-100442945D01*
X96922748Y-100363749D01*
X96719278Y-100343709D01*
X95383204Y-100343709D01*
X95179734Y-100363749D01*
X94918660Y-100442945D01*
X94678053Y-100571552D01*
X94467160Y-100744628D01*
X94294084Y-100955521D01*
X94165477Y-101196128D01*
X94086281Y-101457202D01*
X94059540Y-101728709D01*
X91886241Y-101728709D01*
X91886241Y-98417120D01*
X104254241Y-98417120D01*
X104254241Y-98601298D01*
X104290173Y-98781938D01*
X104360655Y-98952098D01*
X104462979Y-99105237D01*
X104593213Y-99235471D01*
X104746352Y-99337795D01*
X104916512Y-99408277D01*
X105097152Y-99444209D01*
X105281330Y-99444209D01*
X105461970Y-99408277D01*
X105632130Y-99337795D01*
X105753617Y-99256620D01*
X116586241Y-99256620D01*
X116586241Y-99440798D01*
X116622173Y-99621438D01*
X116692655Y-99791598D01*
X116794979Y-99944737D01*
X116925213Y-100074971D01*
X117078352Y-100177295D01*
X117248512Y-100247777D01*
X117429152Y-100283709D01*
X117613330Y-100283709D01*
X117793970Y-100247777D01*
X117964130Y-100177295D01*
X118117269Y-100074971D01*
X118247503Y-99944737D01*
X118349827Y-99791598D01*
X118420309Y-99621438D01*
X118456241Y-99440798D01*
X118456241Y-99256620D01*
X118420309Y-99075980D01*
X118349827Y-98905820D01*
X118247503Y-98752681D01*
X118117269Y-98622447D01*
X118079787Y-98597403D01*
X118170240Y-98536964D01*
X118300474Y-98406730D01*
X118402798Y-98253591D01*
X118473280Y-98083431D01*
X118509212Y-97902791D01*
X118509212Y-97718613D01*
X118473280Y-97537973D01*
X118402798Y-97367813D01*
X118300474Y-97214674D01*
X118175417Y-97089617D01*
X118227269Y-97054971D01*
X118357503Y-96924737D01*
X118459827Y-96771598D01*
X118530309Y-96601438D01*
X118566241Y-96420798D01*
X118566241Y-96312620D01*
X187638741Y-96312620D01*
X187638741Y-96496798D01*
X187674673Y-96677438D01*
X187745155Y-96847598D01*
X187847479Y-97000737D01*
X187977713Y-97130971D01*
X188130852Y-97233295D01*
X188301012Y-97303777D01*
X188481652Y-97339709D01*
X188665830Y-97339709D01*
X188846470Y-97303777D01*
X189016630Y-97233295D01*
X189169769Y-97130971D01*
X189300003Y-97000737D01*
X189402327Y-96847598D01*
X189472809Y-96677438D01*
X189508741Y-96496798D01*
X189508741Y-96312620D01*
X189472809Y-96131980D01*
X189402327Y-95961820D01*
X189300003Y-95808681D01*
X189169769Y-95678447D01*
X189016630Y-95576123D01*
X188846470Y-95505641D01*
X188665830Y-95469709D01*
X188481652Y-95469709D01*
X188301012Y-95505641D01*
X188130852Y-95576123D01*
X187977713Y-95678447D01*
X187847479Y-95808681D01*
X187745155Y-95961820D01*
X187674673Y-96131980D01*
X187638741Y-96312620D01*
X118566241Y-96312620D01*
X118566241Y-96236620D01*
X118530309Y-96055980D01*
X118459827Y-95885820D01*
X118357503Y-95732681D01*
X118227269Y-95602447D01*
X118181743Y-95572027D01*
X118207269Y-95554971D01*
X118337503Y-95424737D01*
X118439827Y-95271598D01*
X118510309Y-95101438D01*
X118546241Y-94920798D01*
X118546241Y-94736620D01*
X118510309Y-94555980D01*
X118439827Y-94385820D01*
X118337503Y-94232681D01*
X118207269Y-94102447D01*
X118054130Y-94000123D01*
X117883970Y-93929641D01*
X117703330Y-93893709D01*
X117519152Y-93893709D01*
X117338512Y-93929641D01*
X117168352Y-94000123D01*
X117015213Y-94102447D01*
X116884979Y-94232681D01*
X116782655Y-94385820D01*
X116712173Y-94555980D01*
X116676241Y-94736620D01*
X116676241Y-94920798D01*
X116712173Y-95101438D01*
X116782655Y-95271598D01*
X116884979Y-95424737D01*
X117015213Y-95554971D01*
X117060739Y-95585391D01*
X117035213Y-95602447D01*
X116904979Y-95732681D01*
X116802655Y-95885820D01*
X116732173Y-96055980D01*
X116696241Y-96236620D01*
X116696241Y-96420798D01*
X116732173Y-96601438D01*
X116802655Y-96771598D01*
X116904979Y-96924737D01*
X117030036Y-97049794D01*
X116978184Y-97084440D01*
X116847950Y-97214674D01*
X116745626Y-97367813D01*
X116675144Y-97537973D01*
X116639212Y-97718613D01*
X116639212Y-97902791D01*
X116675144Y-98083431D01*
X116745626Y-98253591D01*
X116847950Y-98406730D01*
X116978184Y-98536964D01*
X117015666Y-98562008D01*
X116925213Y-98622447D01*
X116794979Y-98752681D01*
X116692655Y-98905820D01*
X116622173Y-99075980D01*
X116586241Y-99256620D01*
X105753617Y-99256620D01*
X105785269Y-99235471D01*
X105915503Y-99105237D01*
X106017827Y-98952098D01*
X106088309Y-98781938D01*
X106124241Y-98601298D01*
X106124241Y-98417120D01*
X106088309Y-98236480D01*
X106017827Y-98066320D01*
X105915503Y-97913181D01*
X105785269Y-97782947D01*
X105632130Y-97680623D01*
X105461970Y-97610141D01*
X105281330Y-97574209D01*
X105097152Y-97574209D01*
X104916512Y-97610141D01*
X104746352Y-97680623D01*
X104593213Y-97782947D01*
X104462979Y-97913181D01*
X104360655Y-98066320D01*
X104290173Y-98236480D01*
X104254241Y-98417120D01*
X91886241Y-98417120D01*
X91886241Y-95432620D01*
X99428241Y-95432620D01*
X99428241Y-95616798D01*
X99464173Y-95797438D01*
X99534655Y-95967598D01*
X99636979Y-96120737D01*
X99767213Y-96250971D01*
X99773181Y-96254959D01*
X99767213Y-96258947D01*
X99636979Y-96389181D01*
X99534655Y-96542320D01*
X99464173Y-96712480D01*
X99428241Y-96893120D01*
X99428241Y-97077298D01*
X99464173Y-97257938D01*
X99534655Y-97428098D01*
X99636979Y-97581237D01*
X99767213Y-97711471D01*
X99920352Y-97813795D01*
X100090512Y-97884277D01*
X100271152Y-97920209D01*
X100455330Y-97920209D01*
X100635970Y-97884277D01*
X100806130Y-97813795D01*
X100959269Y-97711471D01*
X101089503Y-97581237D01*
X101191827Y-97428098D01*
X101262309Y-97257938D01*
X101298241Y-97077298D01*
X101298241Y-96893120D01*
X101262309Y-96712480D01*
X101191827Y-96542320D01*
X101089503Y-96389181D01*
X100959269Y-96258947D01*
X100953301Y-96254959D01*
X100959269Y-96250971D01*
X101089503Y-96120737D01*
X101191827Y-95967598D01*
X101262309Y-95797438D01*
X101298241Y-95616798D01*
X101298241Y-95432620D01*
X101262309Y-95251980D01*
X101191827Y-95081820D01*
X101089503Y-94928681D01*
X100959269Y-94798447D01*
X100806130Y-94696123D01*
X100635970Y-94625641D01*
X100455330Y-94589709D01*
X100271152Y-94589709D01*
X100090512Y-94625641D01*
X99920352Y-94696123D01*
X99767213Y-94798447D01*
X99636979Y-94928681D01*
X99534655Y-95081820D01*
X99464173Y-95251980D01*
X99428241Y-95432620D01*
X91886241Y-95432620D01*
X91886241Y-93908620D01*
X104571741Y-93908620D01*
X104571741Y-94092798D01*
X104607673Y-94273438D01*
X104678155Y-94443598D01*
X104780479Y-94596737D01*
X104910713Y-94726971D01*
X105063852Y-94829295D01*
X105234012Y-94899777D01*
X105414652Y-94935709D01*
X105598830Y-94935709D01*
X105779470Y-94899777D01*
X105949630Y-94829295D01*
X106102769Y-94726971D01*
X106233003Y-94596737D01*
X106335327Y-94443598D01*
X106405809Y-94273438D01*
X106441741Y-94092798D01*
X106441741Y-93908620D01*
X106405809Y-93727980D01*
X106335327Y-93557820D01*
X106233003Y-93404681D01*
X106102769Y-93274447D01*
X105949630Y-93172123D01*
X105779470Y-93101641D01*
X105598830Y-93065709D01*
X105414652Y-93065709D01*
X105234012Y-93101641D01*
X105063852Y-93172123D01*
X104910713Y-93274447D01*
X104780479Y-93404681D01*
X104678155Y-93557820D01*
X104607673Y-93727980D01*
X104571741Y-93908620D01*
X91886241Y-93908620D01*
X91886241Y-89886620D01*
X99516241Y-89886620D01*
X99516241Y-90070798D01*
X99552173Y-90251438D01*
X99622655Y-90421598D01*
X99671629Y-90494893D01*
X99661655Y-90509820D01*
X99591173Y-90679980D01*
X99555241Y-90860620D01*
X99555241Y-91044798D01*
X99591173Y-91225438D01*
X99661655Y-91395598D01*
X99763979Y-91548737D01*
X99894213Y-91678971D01*
X100047352Y-91781295D01*
X100217512Y-91851777D01*
X100398152Y-91887709D01*
X100582330Y-91887709D01*
X100762970Y-91851777D01*
X100933130Y-91781295D01*
X101086269Y-91678971D01*
X101216503Y-91548737D01*
X101318827Y-91395598D01*
X101389309Y-91225438D01*
X101425241Y-91044798D01*
X101425241Y-90860620D01*
X101389309Y-90679980D01*
X101318827Y-90509820D01*
X101269853Y-90436525D01*
X101279827Y-90421598D01*
X101294315Y-90386620D01*
X103916241Y-90386620D01*
X103916241Y-90570798D01*
X103952173Y-90751438D01*
X104022655Y-90921598D01*
X104060815Y-90978709D01*
X104022655Y-91035820D01*
X103952173Y-91205980D01*
X103916241Y-91386620D01*
X103916241Y-91570798D01*
X103952173Y-91751438D01*
X104022655Y-91921598D01*
X104124979Y-92074737D01*
X104255213Y-92204971D01*
X104408352Y-92307295D01*
X104578512Y-92377777D01*
X104759152Y-92413709D01*
X104943330Y-92413709D01*
X105123970Y-92377777D01*
X105294130Y-92307295D01*
X105447269Y-92204971D01*
X105577503Y-92074737D01*
X105679827Y-91921598D01*
X105750309Y-91751438D01*
X105786241Y-91570798D01*
X105786241Y-91386620D01*
X105750309Y-91205980D01*
X105700869Y-91086620D01*
X107016241Y-91086620D01*
X107016241Y-91270798D01*
X107052173Y-91451438D01*
X107122655Y-91621598D01*
X107224979Y-91774737D01*
X107355213Y-91904971D01*
X107508352Y-92007295D01*
X107678512Y-92077777D01*
X107859152Y-92113709D01*
X108043330Y-92113709D01*
X108223970Y-92077777D01*
X108394130Y-92007295D01*
X108547269Y-91904971D01*
X108677503Y-91774737D01*
X108779827Y-91621598D01*
X108850309Y-91451438D01*
X108886241Y-91270798D01*
X108886241Y-91086620D01*
X108850309Y-90905980D01*
X108779827Y-90735820D01*
X108677503Y-90582681D01*
X108547269Y-90452447D01*
X108394130Y-90350123D01*
X108223970Y-90279641D01*
X108043330Y-90243709D01*
X107859152Y-90243709D01*
X107678512Y-90279641D01*
X107508352Y-90350123D01*
X107355213Y-90452447D01*
X107224979Y-90582681D01*
X107122655Y-90735820D01*
X107052173Y-90905980D01*
X107016241Y-91086620D01*
X105700869Y-91086620D01*
X105679827Y-91035820D01*
X105641667Y-90978709D01*
X105679827Y-90921598D01*
X105750309Y-90751438D01*
X105786241Y-90570798D01*
X105786241Y-90386620D01*
X105750309Y-90205980D01*
X105679827Y-90035820D01*
X105577503Y-89882681D01*
X105447269Y-89752447D01*
X105294130Y-89650123D01*
X105123970Y-89579641D01*
X104943330Y-89543709D01*
X104759152Y-89543709D01*
X104578512Y-89579641D01*
X104408352Y-89650123D01*
X104255213Y-89752447D01*
X104124979Y-89882681D01*
X104022655Y-90035820D01*
X103952173Y-90205980D01*
X103916241Y-90386620D01*
X101294315Y-90386620D01*
X101350309Y-90251438D01*
X101386241Y-90070798D01*
X101386241Y-89886620D01*
X101350309Y-89705980D01*
X101279827Y-89535820D01*
X101177503Y-89382681D01*
X101047269Y-89252447D01*
X100894130Y-89150123D01*
X100723970Y-89079641D01*
X100543330Y-89043709D01*
X100359152Y-89043709D01*
X100178512Y-89079641D01*
X100008352Y-89150123D01*
X99855213Y-89252447D01*
X99724979Y-89382681D01*
X99622655Y-89535820D01*
X99552173Y-89705980D01*
X99516241Y-89886620D01*
X91886241Y-89886620D01*
X91886241Y-87228709D01*
X94059540Y-87228709D01*
X94086281Y-87500216D01*
X94165477Y-87761290D01*
X94294084Y-88001897D01*
X94467160Y-88212790D01*
X94678053Y-88385866D01*
X94918660Y-88514473D01*
X95179734Y-88593669D01*
X95383204Y-88613709D01*
X96719278Y-88613709D01*
X96922748Y-88593669D01*
X97183822Y-88514473D01*
X97424429Y-88385866D01*
X97635322Y-88212790D01*
X97808398Y-88001897D01*
X97937005Y-87761290D01*
X98016201Y-87500216D01*
X98042942Y-87228709D01*
X99759540Y-87228709D01*
X99786281Y-87500216D01*
X99865477Y-87761290D01*
X99994084Y-88001897D01*
X100167160Y-88212790D01*
X100378053Y-88385866D01*
X100618660Y-88514473D01*
X100879734Y-88593669D01*
X101083204Y-88613709D01*
X103019278Y-88613709D01*
X103222748Y-88593669D01*
X103483822Y-88514473D01*
X103724429Y-88385866D01*
X103935322Y-88212790D01*
X104108398Y-88001897D01*
X104237005Y-87761290D01*
X104316201Y-87500216D01*
X104342942Y-87228709D01*
X104316201Y-86957202D01*
X104294791Y-86886620D01*
X105516241Y-86886620D01*
X105516241Y-87070798D01*
X105552173Y-87251438D01*
X105622655Y-87421598D01*
X105724979Y-87574737D01*
X105855213Y-87704971D01*
X106008352Y-87807295D01*
X106178512Y-87877777D01*
X106183197Y-87878709D01*
X106178512Y-87879641D01*
X106008352Y-87950123D01*
X105855213Y-88052447D01*
X105724979Y-88182681D01*
X105622655Y-88335820D01*
X105552173Y-88505980D01*
X105516241Y-88686620D01*
X105516241Y-88870798D01*
X105552173Y-89051438D01*
X105622655Y-89221598D01*
X105724979Y-89374737D01*
X105855213Y-89504971D01*
X106008352Y-89607295D01*
X106178512Y-89677777D01*
X106359152Y-89713709D01*
X106543330Y-89713709D01*
X106723970Y-89677777D01*
X106894130Y-89607295D01*
X107047269Y-89504971D01*
X107177503Y-89374737D01*
X107279827Y-89221598D01*
X107350309Y-89051438D01*
X107386241Y-88870798D01*
X107386241Y-88686620D01*
X107350309Y-88505980D01*
X107279827Y-88335820D01*
X107177503Y-88182681D01*
X107047269Y-88052447D01*
X106894130Y-87950123D01*
X106723970Y-87879641D01*
X106719285Y-87878709D01*
X106723970Y-87877777D01*
X106894130Y-87807295D01*
X107047269Y-87704971D01*
X107177503Y-87574737D01*
X107279827Y-87421598D01*
X107350309Y-87251438D01*
X107386241Y-87070798D01*
X107386241Y-86886620D01*
X107350309Y-86705980D01*
X107279827Y-86535820D01*
X107177503Y-86382681D01*
X107047269Y-86252447D01*
X106894130Y-86150123D01*
X106723970Y-86079641D01*
X106543330Y-86043709D01*
X106359152Y-86043709D01*
X106178512Y-86079641D01*
X106008352Y-86150123D01*
X105855213Y-86252447D01*
X105724979Y-86382681D01*
X105622655Y-86535820D01*
X105552173Y-86705980D01*
X105516241Y-86886620D01*
X104294791Y-86886620D01*
X104237005Y-86696128D01*
X104108398Y-86455521D01*
X103935322Y-86244628D01*
X103724429Y-86071552D01*
X103483822Y-85942945D01*
X103222748Y-85863749D01*
X103019278Y-85843709D01*
X101083204Y-85843709D01*
X100879734Y-85863749D01*
X100618660Y-85942945D01*
X100378053Y-86071552D01*
X100167160Y-86244628D01*
X99994084Y-86455521D01*
X99865477Y-86696128D01*
X99786281Y-86957202D01*
X99759540Y-87228709D01*
X98042942Y-87228709D01*
X98016201Y-86957202D01*
X97937005Y-86696128D01*
X97808398Y-86455521D01*
X97635322Y-86244628D01*
X97424429Y-86071552D01*
X97183822Y-85942945D01*
X96922748Y-85863749D01*
X96719278Y-85843709D01*
X95383204Y-85843709D01*
X95179734Y-85863749D01*
X94918660Y-85942945D01*
X94678053Y-86071552D01*
X94467160Y-86244628D01*
X94294084Y-86455521D01*
X94165477Y-86696128D01*
X94086281Y-86957202D01*
X94059540Y-87228709D01*
X91886241Y-87228709D01*
X91886241Y-85213709D01*
X199816242Y-85213709D01*
X199816242Y-95664063D01*
G37*
X199816242Y-95664063D02*
X199684630Y-95576123D01*
X199514470Y-95505641D01*
X199333830Y-95469709D01*
X199149652Y-95469709D01*
X198969012Y-95505641D01*
X198798852Y-95576123D01*
X198645713Y-95678447D01*
X198515479Y-95808681D01*
X198413155Y-95961820D01*
X198342673Y-96131980D01*
X198306741Y-96312620D01*
X198306741Y-96496798D01*
X198342673Y-96677438D01*
X198413155Y-96847598D01*
X198515479Y-97000737D01*
X198645713Y-97130971D01*
X198798852Y-97233295D01*
X198969012Y-97303777D01*
X199149652Y-97339709D01*
X199333830Y-97339709D01*
X199514470Y-97303777D01*
X199684630Y-97233295D01*
X199816242Y-97145355D01*
X199816241Y-112174063D01*
X199684630Y-112086123D01*
X199514470Y-112015641D01*
X199333830Y-111979709D01*
X199149652Y-111979709D01*
X198969012Y-112015641D01*
X198798852Y-112086123D01*
X198645713Y-112188447D01*
X198515479Y-112318681D01*
X198413155Y-112471820D01*
X198342673Y-112641980D01*
X198306741Y-112822620D01*
X198306741Y-113006798D01*
X198342673Y-113187438D01*
X198413155Y-113357598D01*
X198515479Y-113510737D01*
X198645713Y-113640971D01*
X198798852Y-113743295D01*
X198969012Y-113813777D01*
X199149652Y-113849709D01*
X199333830Y-113849709D01*
X199514470Y-113813777D01*
X199684630Y-113743295D01*
X199816241Y-113655355D01*
X199816241Y-123743709D01*
X91886241Y-123743709D01*
X91886241Y-120823656D01*
X99016241Y-120823656D01*
X99016241Y-121273762D01*
X99104052Y-121715219D01*
X99276300Y-122131062D01*
X99526366Y-122505312D01*
X99844638Y-122823584D01*
X100218888Y-123073650D01*
X100634731Y-123245898D01*
X101076188Y-123333709D01*
X101526294Y-123333709D01*
X101967751Y-123245898D01*
X102383594Y-123073650D01*
X102757844Y-122823584D01*
X103076116Y-122505312D01*
X103308770Y-122157120D01*
X119630241Y-122157120D01*
X119630241Y-122341298D01*
X119666173Y-122521938D01*
X119736655Y-122692098D01*
X119838979Y-122845237D01*
X119969213Y-122975471D01*
X120122352Y-123077795D01*
X120292512Y-123148277D01*
X120473152Y-123184209D01*
X120657330Y-123184209D01*
X120837970Y-123148277D01*
X121008130Y-123077795D01*
X121161269Y-122975471D01*
X121291503Y-122845237D01*
X121393827Y-122692098D01*
X121464309Y-122521938D01*
X121500241Y-122341298D01*
X121500241Y-122157120D01*
X121464309Y-121976480D01*
X121393827Y-121806320D01*
X121291503Y-121653181D01*
X121161269Y-121522947D01*
X121008130Y-121420623D01*
X120837970Y-121350141D01*
X120657330Y-121314209D01*
X120473152Y-121314209D01*
X120292512Y-121350141D01*
X120122352Y-121420623D01*
X119969213Y-121522947D01*
X119838979Y-121653181D01*
X119736655Y-121806320D01*
X119666173Y-121976480D01*
X119630241Y-122157120D01*
X103308770Y-122157120D01*
X103326182Y-122131062D01*
X103498430Y-121715219D01*
X103586241Y-121273762D01*
X103586241Y-120823656D01*
X103498430Y-120382199D01*
X103326182Y-119966356D01*
X103076116Y-119592106D01*
X102757844Y-119273834D01*
X102383594Y-119023768D01*
X101967751Y-118851520D01*
X101526294Y-118763709D01*
X101076188Y-118763709D01*
X100634731Y-118851520D01*
X100218888Y-119023768D01*
X99844638Y-119273834D01*
X99526366Y-119592106D01*
X99276300Y-119966356D01*
X99104052Y-120382199D01*
X99016241Y-120823656D01*
X91886241Y-120823656D01*
X91886241Y-110827525D01*
X102476241Y-110827525D01*
X102476241Y-111129893D01*
X102535230Y-111426452D01*
X102650942Y-111705804D01*
X102818929Y-111957214D01*
X103032736Y-112171021D01*
X103119072Y-112228709D01*
X103032736Y-112286397D01*
X102818929Y-112500204D01*
X102650942Y-112751614D01*
X102535230Y-113030966D01*
X102476241Y-113327525D01*
X102476241Y-113629893D01*
X102535230Y-113926452D01*
X102650942Y-114205804D01*
X102818929Y-114457214D01*
X102840424Y-114478709D01*
X102818929Y-114500204D01*
X102650942Y-114751614D01*
X102535230Y-115030966D01*
X102476241Y-115327525D01*
X102476241Y-115629893D01*
X102535230Y-115926452D01*
X102650942Y-116205804D01*
X102818929Y-116457214D01*
X103032736Y-116671021D01*
X103119072Y-116728709D01*
X103032736Y-116786397D01*
X102818929Y-117000204D01*
X102650942Y-117251614D01*
X102535230Y-117530966D01*
X102476241Y-117827525D01*
X102476241Y-118129893D01*
X102535230Y-118426452D01*
X102650942Y-118705804D01*
X102818929Y-118957214D01*
X103032736Y-119171021D01*
X103284146Y-119339008D01*
X103563498Y-119454720D01*
X103860057Y-119513709D01*
X104162425Y-119513709D01*
X104458984Y-119454720D01*
X104738336Y-119339008D01*
X104989746Y-119171021D01*
X105115147Y-119045620D01*
X109089241Y-119045620D01*
X109089241Y-119229798D01*
X109125173Y-119410438D01*
X109195655Y-119580598D01*
X109297979Y-119733737D01*
X109428213Y-119863971D01*
X109581352Y-119966295D01*
X109751512Y-120036777D01*
X109932152Y-120072709D01*
X110116330Y-120072709D01*
X110296970Y-120036777D01*
X110467130Y-119966295D01*
X110620269Y-119863971D01*
X110750503Y-119733737D01*
X110852827Y-119580598D01*
X110916606Y-119426620D01*
X123376741Y-119426620D01*
X123376741Y-119610798D01*
X123412673Y-119791438D01*
X123483155Y-119961598D01*
X123585479Y-120114737D01*
X123715713Y-120244971D01*
X123868852Y-120347295D01*
X124039012Y-120417777D01*
X124219652Y-120453709D01*
X124403830Y-120453709D01*
X124584470Y-120417777D01*
X124754630Y-120347295D01*
X124907769Y-120244971D01*
X125038003Y-120114737D01*
X125140327Y-119961598D01*
X125210809Y-119791438D01*
X125246741Y-119610798D01*
X125246741Y-119426620D01*
X125210809Y-119245980D01*
X125140327Y-119075820D01*
X125038003Y-118922681D01*
X124907769Y-118792447D01*
X124754630Y-118690123D01*
X124584470Y-118619641D01*
X124403830Y-118583709D01*
X124219652Y-118583709D01*
X124039012Y-118619641D01*
X123868852Y-118690123D01*
X123715713Y-118792447D01*
X123585479Y-118922681D01*
X123483155Y-119075820D01*
X123412673Y-119245980D01*
X123376741Y-119426620D01*
X110916606Y-119426620D01*
X110923309Y-119410438D01*
X110959241Y-119229798D01*
X110959241Y-119045620D01*
X110923309Y-118864980D01*
X110852827Y-118694820D01*
X110750503Y-118541681D01*
X110620269Y-118411447D01*
X110467130Y-118309123D01*
X110296970Y-118238641D01*
X110116330Y-118202709D01*
X109932152Y-118202709D01*
X109751512Y-118238641D01*
X109581352Y-118309123D01*
X109428213Y-118411447D01*
X109297979Y-118541681D01*
X109195655Y-118694820D01*
X109125173Y-118864980D01*
X109089241Y-119045620D01*
X105115147Y-119045620D01*
X105203553Y-118957214D01*
X105371540Y-118705804D01*
X105487252Y-118426452D01*
X105546241Y-118129893D01*
X105546241Y-117827525D01*
X105487252Y-117530966D01*
X105371540Y-117251614D01*
X105254947Y-117077120D01*
X106803241Y-117077120D01*
X106803241Y-117261298D01*
X106839173Y-117441938D01*
X106909655Y-117612098D01*
X107011979Y-117765237D01*
X107142213Y-117895471D01*
X107295352Y-117997795D01*
X107465512Y-118068277D01*
X107646152Y-118104209D01*
X107830330Y-118104209D01*
X108010970Y-118068277D01*
X108181130Y-117997795D01*
X108323569Y-117902620D01*
X111756241Y-117902620D01*
X111756241Y-118086798D01*
X111792173Y-118267438D01*
X111862655Y-118437598D01*
X111964979Y-118590737D01*
X112095213Y-118720971D01*
X112248352Y-118823295D01*
X112418512Y-118893777D01*
X112599152Y-118929709D01*
X112783330Y-118929709D01*
X112963970Y-118893777D01*
X113134130Y-118823295D01*
X113287269Y-118720971D01*
X113417503Y-118590737D01*
X113519827Y-118437598D01*
X113590309Y-118267438D01*
X113626241Y-118086798D01*
X113626241Y-118017676D01*
X126016241Y-118017676D01*
X126016241Y-118339742D01*
X126079073Y-118655621D01*
X126202323Y-118953172D01*
X126381254Y-119220961D01*
X126608989Y-119448696D01*
X126609008Y-119448709D01*
X126608989Y-119448722D01*
X126381254Y-119676457D01*
X126202323Y-119944246D01*
X126079073Y-120241797D01*
X126016241Y-120557676D01*
X126016241Y-120879742D01*
X126079073Y-121195621D01*
X126202323Y-121493172D01*
X126381254Y-121760961D01*
X126608989Y-121988696D01*
X126876778Y-122167627D01*
X127174329Y-122290877D01*
X127490208Y-122353709D01*
X127812274Y-122353709D01*
X128128153Y-122290877D01*
X128425704Y-122167627D01*
X128693493Y-121988696D01*
X128921228Y-121760961D01*
X128921241Y-121760942D01*
X128921254Y-121760961D01*
X129148989Y-121988696D01*
X129416778Y-122167627D01*
X129714329Y-122290877D01*
X130030208Y-122353709D01*
X130352274Y-122353709D01*
X130668153Y-122290877D01*
X130965704Y-122167627D01*
X131233493Y-121988696D01*
X131461228Y-121760961D01*
X131461241Y-121760942D01*
X131461254Y-121760961D01*
X131688989Y-121988696D01*
X131956778Y-122167627D01*
X132254329Y-122290877D01*
X132570208Y-122353709D01*
X132892274Y-122353709D01*
X133208153Y-122290877D01*
X133505704Y-122167627D01*
X133773493Y-121988696D01*
X134001228Y-121760961D01*
X134001241Y-121760942D01*
X134001254Y-121760961D01*
X134228989Y-121988696D01*
X134496778Y-122167627D01*
X134794329Y-122290877D01*
X135110208Y-122353709D01*
X135432274Y-122353709D01*
X135748153Y-122290877D01*
X136045704Y-122167627D01*
X136313493Y-121988696D01*
X136541228Y-121760961D01*
X136541241Y-121760942D01*
X136541254Y-121760961D01*
X136768989Y-121988696D01*
X137036778Y-122167627D01*
X137334329Y-122290877D01*
X137650208Y-122353709D01*
X137972274Y-122353709D01*
X138288153Y-122290877D01*
X138585704Y-122167627D01*
X138853493Y-121988696D01*
X138988067Y-121854122D01*
X139395433Y-121854122D01*
X139491197Y-122118523D01*
X139780812Y-122259413D01*
X140092349Y-122341093D01*
X140413836Y-122360427D01*
X140732916Y-122316670D01*
X141037329Y-122211504D01*
X141211285Y-122118523D01*
X141307049Y-121854122D01*
X140351241Y-120898314D01*
X139395433Y-121854122D01*
X138988067Y-121854122D01*
X139081228Y-121760961D01*
X139153961Y-121652109D01*
X139215828Y-121674517D01*
X140171636Y-120718709D01*
X140530846Y-120718709D01*
X141486654Y-121674517D01*
X141751055Y-121578753D01*
X141891945Y-121289138D01*
X141973625Y-120977601D01*
X141992959Y-120656114D01*
X141949202Y-120337034D01*
X141844036Y-120032621D01*
X141751055Y-119858665D01*
X141486654Y-119762901D01*
X140530846Y-120718709D01*
X140171636Y-120718709D01*
X139215828Y-119762901D01*
X139153961Y-119785309D01*
X139081228Y-119676457D01*
X138853493Y-119448722D01*
X138853474Y-119448709D01*
X138853493Y-119448696D01*
X138988067Y-119314122D01*
X139395433Y-119314122D01*
X139444179Y-119448709D01*
X139395433Y-119583296D01*
X140351241Y-120539104D01*
X141307049Y-119583296D01*
X141258303Y-119448709D01*
X141307049Y-119314122D01*
X140351241Y-118358314D01*
X139395433Y-119314122D01*
X138988067Y-119314122D01*
X139081228Y-119220961D01*
X139153961Y-119112109D01*
X139215828Y-119134517D01*
X140171636Y-118178709D01*
X140530846Y-118178709D01*
X141486654Y-119134517D01*
X141751055Y-119038753D01*
X141891945Y-118749138D01*
X141973625Y-118437601D01*
X141992959Y-118116114D01*
X141979460Y-118017676D01*
X149016241Y-118017676D01*
X149016241Y-118339742D01*
X149079073Y-118655621D01*
X149202323Y-118953172D01*
X149381254Y-119220961D01*
X149608989Y-119448696D01*
X149609008Y-119448709D01*
X149608989Y-119448722D01*
X149381254Y-119676457D01*
X149202323Y-119944246D01*
X149079073Y-120241797D01*
X149016241Y-120557676D01*
X149016241Y-120879742D01*
X149079073Y-121195621D01*
X149202323Y-121493172D01*
X149381254Y-121760961D01*
X149608989Y-121988696D01*
X149876778Y-122167627D01*
X150174329Y-122290877D01*
X150490208Y-122353709D01*
X150812274Y-122353709D01*
X151128153Y-122290877D01*
X151425704Y-122167627D01*
X151693493Y-121988696D01*
X151921228Y-121760961D01*
X151921241Y-121760942D01*
X151921254Y-121760961D01*
X152148989Y-121988696D01*
X152416778Y-122167627D01*
X152714329Y-122290877D01*
X153030208Y-122353709D01*
X153352274Y-122353709D01*
X153668153Y-122290877D01*
X153965704Y-122167627D01*
X154233493Y-121988696D01*
X154461228Y-121760961D01*
X154461241Y-121760942D01*
X154461254Y-121760961D01*
X154688989Y-121988696D01*
X154956778Y-122167627D01*
X155254329Y-122290877D01*
X155570208Y-122353709D01*
X155892274Y-122353709D01*
X156208153Y-122290877D01*
X156505704Y-122167627D01*
X156773493Y-121988696D01*
X157001228Y-121760961D01*
X157001241Y-121760942D01*
X157001254Y-121760961D01*
X157228989Y-121988696D01*
X157496778Y-122167627D01*
X157794329Y-122290877D01*
X158110208Y-122353709D01*
X158432274Y-122353709D01*
X158748153Y-122290877D01*
X159045704Y-122167627D01*
X159313493Y-121988696D01*
X159541228Y-121760961D01*
X159541241Y-121760942D01*
X159541254Y-121760961D01*
X159768989Y-121988696D01*
X160036778Y-122167627D01*
X160334329Y-122290877D01*
X160650208Y-122353709D01*
X160972274Y-122353709D01*
X161288153Y-122290877D01*
X161585704Y-122167627D01*
X161853493Y-121988696D01*
X161988067Y-121854122D01*
X162395433Y-121854122D01*
X162491197Y-122118523D01*
X162780812Y-122259413D01*
X163092349Y-122341093D01*
X163413836Y-122360427D01*
X163732916Y-122316670D01*
X164037329Y-122211504D01*
X164211285Y-122118523D01*
X164307049Y-121854122D01*
X163351241Y-120898314D01*
X162395433Y-121854122D01*
X161988067Y-121854122D01*
X162081228Y-121760961D01*
X162153961Y-121652109D01*
X162215828Y-121674517D01*
X163171636Y-120718709D01*
X163530846Y-120718709D01*
X164486654Y-121674517D01*
X164751055Y-121578753D01*
X164891945Y-121289138D01*
X164973625Y-120977601D01*
X164992959Y-120656114D01*
X164949202Y-120337034D01*
X164844036Y-120032621D01*
X164751055Y-119858665D01*
X164486654Y-119762901D01*
X163530846Y-120718709D01*
X163171636Y-120718709D01*
X162215828Y-119762901D01*
X162153961Y-119785309D01*
X162081228Y-119676457D01*
X161853493Y-119448722D01*
X161853474Y-119448709D01*
X161853493Y-119448696D01*
X161988067Y-119314122D01*
X162395433Y-119314122D01*
X162444179Y-119448709D01*
X162395433Y-119583296D01*
X163351241Y-120539104D01*
X164307049Y-119583296D01*
X164258303Y-119448709D01*
X164307049Y-119314122D01*
X163351241Y-118358314D01*
X162395433Y-119314122D01*
X161988067Y-119314122D01*
X162081228Y-119220961D01*
X162153961Y-119112109D01*
X162215828Y-119134517D01*
X163171636Y-118178709D01*
X163530846Y-118178709D01*
X164486654Y-119134517D01*
X164751055Y-119038753D01*
X164891945Y-118749138D01*
X164973625Y-118437601D01*
X164992959Y-118116114D01*
X164979460Y-118017676D01*
X172016241Y-118017676D01*
X172016241Y-118339742D01*
X172079073Y-118655621D01*
X172202323Y-118953172D01*
X172381254Y-119220961D01*
X172608989Y-119448696D01*
X172609008Y-119448709D01*
X172608989Y-119448722D01*
X172381254Y-119676457D01*
X172202323Y-119944246D01*
X172079073Y-120241797D01*
X172016241Y-120557676D01*
X172016241Y-120879742D01*
X172079073Y-121195621D01*
X172202323Y-121493172D01*
X172381254Y-121760961D01*
X172608989Y-121988696D01*
X172876778Y-122167627D01*
X173174329Y-122290877D01*
X173490208Y-122353709D01*
X173812274Y-122353709D01*
X174128153Y-122290877D01*
X174425704Y-122167627D01*
X174693493Y-121988696D01*
X174921228Y-121760961D01*
X174921241Y-121760942D01*
X174921254Y-121760961D01*
X175148989Y-121988696D01*
X175416778Y-122167627D01*
X175714329Y-122290877D01*
X176030208Y-122353709D01*
X176352274Y-122353709D01*
X176668153Y-122290877D01*
X176965704Y-122167627D01*
X177233493Y-121988696D01*
X177461228Y-121760961D01*
X177461241Y-121760942D01*
X177461254Y-121760961D01*
X177688989Y-121988696D01*
X177956778Y-122167627D01*
X178254329Y-122290877D01*
X178570208Y-122353709D01*
X178892274Y-122353709D01*
X179208153Y-122290877D01*
X179505704Y-122167627D01*
X179773493Y-121988696D01*
X180001228Y-121760961D01*
X180001241Y-121760942D01*
X180001254Y-121760961D01*
X180228989Y-121988696D01*
X180496778Y-122167627D01*
X180794329Y-122290877D01*
X181110208Y-122353709D01*
X181432274Y-122353709D01*
X181748153Y-122290877D01*
X182045704Y-122167627D01*
X182313493Y-121988696D01*
X182541228Y-121760961D01*
X182541241Y-121760942D01*
X182541254Y-121760961D01*
X182768989Y-121988696D01*
X183036778Y-122167627D01*
X183334329Y-122290877D01*
X183650208Y-122353709D01*
X183972274Y-122353709D01*
X184288153Y-122290877D01*
X184585704Y-122167627D01*
X184853493Y-121988696D01*
X184988067Y-121854122D01*
X185395433Y-121854122D01*
X185491197Y-122118523D01*
X185780812Y-122259413D01*
X186092349Y-122341093D01*
X186413836Y-122360427D01*
X186732916Y-122316670D01*
X187037329Y-122211504D01*
X187211285Y-122118523D01*
X187307049Y-121854122D01*
X186351241Y-120898314D01*
X185395433Y-121854122D01*
X184988067Y-121854122D01*
X185081228Y-121760961D01*
X185153961Y-121652109D01*
X185215828Y-121674517D01*
X186171636Y-120718709D01*
X186530846Y-120718709D01*
X187486654Y-121674517D01*
X187751055Y-121578753D01*
X187891945Y-121289138D01*
X187973625Y-120977601D01*
X187992959Y-120656114D01*
X187949202Y-120337034D01*
X187844036Y-120032621D01*
X187751055Y-119858665D01*
X187486654Y-119762901D01*
X186530846Y-120718709D01*
X186171636Y-120718709D01*
X185215828Y-119762901D01*
X185153961Y-119785309D01*
X185081228Y-119676457D01*
X184853493Y-119448722D01*
X184853474Y-119448709D01*
X184853493Y-119448696D01*
X184988067Y-119314122D01*
X185395433Y-119314122D01*
X185444179Y-119448709D01*
X185395433Y-119583296D01*
X186351241Y-120539104D01*
X187307049Y-119583296D01*
X187258303Y-119448709D01*
X187307049Y-119314122D01*
X186351241Y-118358314D01*
X185395433Y-119314122D01*
X184988067Y-119314122D01*
X185081228Y-119220961D01*
X185153961Y-119112109D01*
X185215828Y-119134517D01*
X186171636Y-118178709D01*
X186530846Y-118178709D01*
X187486654Y-119134517D01*
X187751055Y-119038753D01*
X187891945Y-118749138D01*
X187973625Y-118437601D01*
X187992959Y-118116114D01*
X187949202Y-117797034D01*
X187844036Y-117492621D01*
X187751055Y-117318665D01*
X187486654Y-117222901D01*
X186530846Y-118178709D01*
X186171636Y-118178709D01*
X185215828Y-117222901D01*
X185153961Y-117245309D01*
X185081228Y-117136457D01*
X184988067Y-117043296D01*
X185395433Y-117043296D01*
X186351241Y-117999104D01*
X187307049Y-117043296D01*
X187211285Y-116778895D01*
X186921670Y-116638005D01*
X186610133Y-116556325D01*
X186288646Y-116536991D01*
X185969566Y-116580748D01*
X185665153Y-116685914D01*
X185491197Y-116778895D01*
X185395433Y-117043296D01*
X184988067Y-117043296D01*
X184853493Y-116908722D01*
X184585704Y-116729791D01*
X184288153Y-116606541D01*
X183972274Y-116543709D01*
X183650208Y-116543709D01*
X183334329Y-116606541D01*
X183036778Y-116729791D01*
X182768989Y-116908722D01*
X182541254Y-117136457D01*
X182541241Y-117136476D01*
X182541228Y-117136457D01*
X182313493Y-116908722D01*
X182045704Y-116729791D01*
X181748153Y-116606541D01*
X181432274Y-116543709D01*
X181110208Y-116543709D01*
X180794329Y-116606541D01*
X180496778Y-116729791D01*
X180228989Y-116908722D01*
X180001254Y-117136457D01*
X180001241Y-117136476D01*
X180001228Y-117136457D01*
X179773493Y-116908722D01*
X179505704Y-116729791D01*
X179208153Y-116606541D01*
X178892274Y-116543709D01*
X178570208Y-116543709D01*
X178254329Y-116606541D01*
X177956778Y-116729791D01*
X177688989Y-116908722D01*
X177461254Y-117136457D01*
X177461241Y-117136476D01*
X177461228Y-117136457D01*
X177233493Y-116908722D01*
X176965704Y-116729791D01*
X176668153Y-116606541D01*
X176352274Y-116543709D01*
X176030208Y-116543709D01*
X175714329Y-116606541D01*
X175416778Y-116729791D01*
X175148989Y-116908722D01*
X174921254Y-117136457D01*
X174921241Y-117136476D01*
X174921228Y-117136457D01*
X174693493Y-116908722D01*
X174425704Y-116729791D01*
X174128153Y-116606541D01*
X173812274Y-116543709D01*
X173490208Y-116543709D01*
X173174329Y-116606541D01*
X172876778Y-116729791D01*
X172608989Y-116908722D01*
X172381254Y-117136457D01*
X172202323Y-117404246D01*
X172079073Y-117701797D01*
X172016241Y-118017676D01*
X164979460Y-118017676D01*
X164949202Y-117797034D01*
X164844036Y-117492621D01*
X164751055Y-117318665D01*
X164486654Y-117222901D01*
X163530846Y-118178709D01*
X163171636Y-118178709D01*
X162215828Y-117222901D01*
X162153961Y-117245309D01*
X162081228Y-117136457D01*
X161988067Y-117043296D01*
X162395433Y-117043296D01*
X163351241Y-117999104D01*
X164307049Y-117043296D01*
X164211285Y-116778895D01*
X163921670Y-116638005D01*
X163610133Y-116556325D01*
X163288646Y-116536991D01*
X162969566Y-116580748D01*
X162665153Y-116685914D01*
X162491197Y-116778895D01*
X162395433Y-117043296D01*
X161988067Y-117043296D01*
X161853493Y-116908722D01*
X161585704Y-116729791D01*
X161288153Y-116606541D01*
X160972274Y-116543709D01*
X160650208Y-116543709D01*
X160334329Y-116606541D01*
X160036778Y-116729791D01*
X159768989Y-116908722D01*
X159541254Y-117136457D01*
X159541241Y-117136476D01*
X159541228Y-117136457D01*
X159313493Y-116908722D01*
X159045704Y-116729791D01*
X158748153Y-116606541D01*
X158432274Y-116543709D01*
X158110208Y-116543709D01*
X157794329Y-116606541D01*
X157496778Y-116729791D01*
X157228989Y-116908722D01*
X157001254Y-117136457D01*
X157001241Y-117136476D01*
X157001228Y-117136457D01*
X156773493Y-116908722D01*
X156505704Y-116729791D01*
X156208153Y-116606541D01*
X155892274Y-116543709D01*
X155570208Y-116543709D01*
X155254329Y-116606541D01*
X154956778Y-116729791D01*
X154688989Y-116908722D01*
X154461254Y-117136457D01*
X154461241Y-117136476D01*
X154461228Y-117136457D01*
X154233493Y-116908722D01*
X153965704Y-116729791D01*
X153668153Y-116606541D01*
X153352274Y-116543709D01*
X153030208Y-116543709D01*
X152714329Y-116606541D01*
X152416778Y-116729791D01*
X152148989Y-116908722D01*
X151921254Y-117136457D01*
X151921241Y-117136476D01*
X151921228Y-117136457D01*
X151693493Y-116908722D01*
X151425704Y-116729791D01*
X151128153Y-116606541D01*
X150812274Y-116543709D01*
X150490208Y-116543709D01*
X150174329Y-116606541D01*
X149876778Y-116729791D01*
X149608989Y-116908722D01*
X149381254Y-117136457D01*
X149202323Y-117404246D01*
X149079073Y-117701797D01*
X149016241Y-118017676D01*
X141979460Y-118017676D01*
X141949202Y-117797034D01*
X141844036Y-117492621D01*
X141751055Y-117318665D01*
X141486654Y-117222901D01*
X140530846Y-118178709D01*
X140171636Y-118178709D01*
X139215828Y-117222901D01*
X139153961Y-117245309D01*
X139081228Y-117136457D01*
X138988067Y-117043296D01*
X139395433Y-117043296D01*
X140351241Y-117999104D01*
X141307049Y-117043296D01*
X141211285Y-116778895D01*
X140921670Y-116638005D01*
X140610133Y-116556325D01*
X140288646Y-116536991D01*
X139969566Y-116580748D01*
X139665153Y-116685914D01*
X139491197Y-116778895D01*
X139395433Y-117043296D01*
X138988067Y-117043296D01*
X138853493Y-116908722D01*
X138585704Y-116729791D01*
X138288153Y-116606541D01*
X137972274Y-116543709D01*
X137650208Y-116543709D01*
X137334329Y-116606541D01*
X137036778Y-116729791D01*
X136768989Y-116908722D01*
X136541254Y-117136457D01*
X136541241Y-117136476D01*
X136541228Y-117136457D01*
X136313493Y-116908722D01*
X136045704Y-116729791D01*
X135748153Y-116606541D01*
X135432274Y-116543709D01*
X135110208Y-116543709D01*
X134794329Y-116606541D01*
X134496778Y-116729791D01*
X134228989Y-116908722D01*
X134001254Y-117136457D01*
X134001241Y-117136476D01*
X134001228Y-117136457D01*
X133773493Y-116908722D01*
X133505704Y-116729791D01*
X133208153Y-116606541D01*
X132892274Y-116543709D01*
X132570208Y-116543709D01*
X132254329Y-116606541D01*
X131956778Y-116729791D01*
X131688989Y-116908722D01*
X131461254Y-117136457D01*
X131461241Y-117136476D01*
X131461228Y-117136457D01*
X131233493Y-116908722D01*
X130965704Y-116729791D01*
X130668153Y-116606541D01*
X130352274Y-116543709D01*
X130030208Y-116543709D01*
X129714329Y-116606541D01*
X129416778Y-116729791D01*
X129148989Y-116908722D01*
X128921254Y-117136457D01*
X128921241Y-117136476D01*
X128921228Y-117136457D01*
X128693493Y-116908722D01*
X128425704Y-116729791D01*
X128128153Y-116606541D01*
X127812274Y-116543709D01*
X127490208Y-116543709D01*
X127174329Y-116606541D01*
X126876778Y-116729791D01*
X126608989Y-116908722D01*
X126381254Y-117136457D01*
X126202323Y-117404246D01*
X126079073Y-117701797D01*
X126016241Y-118017676D01*
X113626241Y-118017676D01*
X113626241Y-117902620D01*
X113590309Y-117721980D01*
X113519827Y-117551820D01*
X113417503Y-117398681D01*
X113287269Y-117268447D01*
X113134130Y-117166123D01*
X112963970Y-117095641D01*
X112783330Y-117059709D01*
X112599152Y-117059709D01*
X112418512Y-117095641D01*
X112248352Y-117166123D01*
X112095213Y-117268447D01*
X111964979Y-117398681D01*
X111862655Y-117551820D01*
X111792173Y-117721980D01*
X111756241Y-117902620D01*
X108323569Y-117902620D01*
X108334269Y-117895471D01*
X108464503Y-117765237D01*
X108566827Y-117612098D01*
X108637309Y-117441938D01*
X108673241Y-117261298D01*
X108673241Y-117077120D01*
X108637309Y-116896480D01*
X108566827Y-116726320D01*
X108464503Y-116573181D01*
X108334269Y-116442947D01*
X108181130Y-116340623D01*
X108010970Y-116270141D01*
X107830330Y-116234209D01*
X107646152Y-116234209D01*
X107465512Y-116270141D01*
X107295352Y-116340623D01*
X107142213Y-116442947D01*
X107011979Y-116573181D01*
X106909655Y-116726320D01*
X106839173Y-116896480D01*
X106803241Y-117077120D01*
X105254947Y-117077120D01*
X105203553Y-117000204D01*
X104989746Y-116786397D01*
X104903410Y-116728709D01*
X104989746Y-116671021D01*
X105203553Y-116457214D01*
X105371540Y-116205804D01*
X105487252Y-115926452D01*
X105546241Y-115629893D01*
X105546241Y-115327525D01*
X105487252Y-115030966D01*
X105371540Y-114751614D01*
X105355508Y-114727620D01*
X122741741Y-114727620D01*
X122741741Y-114911798D01*
X122777673Y-115092438D01*
X122848155Y-115262598D01*
X122950479Y-115415737D01*
X123080713Y-115545971D01*
X123233852Y-115648295D01*
X123404012Y-115718777D01*
X123584652Y-115754709D01*
X123768830Y-115754709D01*
X123949470Y-115718777D01*
X124119630Y-115648295D01*
X124272769Y-115545971D01*
X124403003Y-115415737D01*
X124505327Y-115262598D01*
X124575809Y-115092438D01*
X124611741Y-114911798D01*
X124611741Y-114894911D01*
X146486500Y-114894911D01*
X146486500Y-115079089D01*
X146522432Y-115259729D01*
X146592914Y-115429889D01*
X146695238Y-115583028D01*
X146825472Y-115713262D01*
X146978611Y-115815586D01*
X147148771Y-115886068D01*
X147329411Y-115922000D01*
X147513589Y-115922000D01*
X147694229Y-115886068D01*
X147796500Y-115843706D01*
X147898771Y-115886068D01*
X148079411Y-115922000D01*
X148263589Y-115922000D01*
X148444229Y-115886068D01*
X148614389Y-115815586D01*
X148767528Y-115713262D01*
X148897762Y-115583028D01*
X149000086Y-115429889D01*
X149070568Y-115259729D01*
X149106500Y-115079089D01*
X149106500Y-114894911D01*
X165028500Y-114894911D01*
X165028500Y-115079089D01*
X165064432Y-115259729D01*
X165134914Y-115429889D01*
X165237238Y-115583028D01*
X165367472Y-115713262D01*
X165520611Y-115815586D01*
X165690771Y-115886068D01*
X165871411Y-115922000D01*
X166055589Y-115922000D01*
X166236229Y-115886068D01*
X166338500Y-115843706D01*
X166440771Y-115886068D01*
X166621411Y-115922000D01*
X166805589Y-115922000D01*
X166986229Y-115886068D01*
X167156389Y-115815586D01*
X167309528Y-115713262D01*
X167439762Y-115583028D01*
X167542086Y-115429889D01*
X167612568Y-115259729D01*
X167648500Y-115079089D01*
X167648500Y-114894911D01*
X167612568Y-114714271D01*
X167542086Y-114544111D01*
X167439762Y-114390972D01*
X167309528Y-114260738D01*
X167156389Y-114158414D01*
X166986229Y-114087932D01*
X166805589Y-114052000D01*
X166621411Y-114052000D01*
X166440771Y-114087932D01*
X166338500Y-114130294D01*
X166236229Y-114087932D01*
X166055589Y-114052000D01*
X165871411Y-114052000D01*
X165690771Y-114087932D01*
X165520611Y-114158414D01*
X165367472Y-114260738D01*
X165237238Y-114390972D01*
X165134914Y-114544111D01*
X165064432Y-114714271D01*
X165028500Y-114894911D01*
X149106500Y-114894911D01*
X149070568Y-114714271D01*
X149000086Y-114544111D01*
X148897762Y-114390972D01*
X148767528Y-114260738D01*
X148614389Y-114158414D01*
X148444229Y-114087932D01*
X148263589Y-114052000D01*
X148079411Y-114052000D01*
X147898771Y-114087932D01*
X147796500Y-114130294D01*
X147694229Y-114087932D01*
X147513589Y-114052000D01*
X147329411Y-114052000D01*
X147148771Y-114087932D01*
X146978611Y-114158414D01*
X146825472Y-114260738D01*
X146695238Y-114390972D01*
X146592914Y-114544111D01*
X146522432Y-114714271D01*
X146486500Y-114894911D01*
X124611741Y-114894911D01*
X124611741Y-114727620D01*
X124575809Y-114546980D01*
X124505327Y-114376820D01*
X124403003Y-114223681D01*
X124272769Y-114093447D01*
X124119630Y-113991123D01*
X123949470Y-113920641D01*
X123768830Y-113884709D01*
X123584652Y-113884709D01*
X123404012Y-113920641D01*
X123233852Y-113991123D01*
X123080713Y-114093447D01*
X122950479Y-114223681D01*
X122848155Y-114376820D01*
X122777673Y-114546980D01*
X122741741Y-114727620D01*
X105355508Y-114727620D01*
X105203553Y-114500204D01*
X105182058Y-114478709D01*
X105203553Y-114457214D01*
X105371540Y-114205804D01*
X105487252Y-113926452D01*
X105546241Y-113629893D01*
X105546241Y-113327525D01*
X105494905Y-113069437D01*
X114224809Y-113069437D01*
X114224809Y-113253615D01*
X114260741Y-113434255D01*
X114331223Y-113604415D01*
X114433547Y-113757554D01*
X114563781Y-113887788D01*
X114716920Y-113990112D01*
X114887080Y-114060594D01*
X115067720Y-114096526D01*
X115251898Y-114096526D01*
X115432538Y-114060594D01*
X115602698Y-113990112D01*
X115755837Y-113887788D01*
X115886071Y-113757554D01*
X115988395Y-113604415D01*
X116058877Y-113434255D01*
X116094809Y-113253615D01*
X116094809Y-113076640D01*
X134171741Y-113076640D01*
X134171741Y-113260818D01*
X134207673Y-113441458D01*
X134278155Y-113611618D01*
X134380479Y-113764757D01*
X134510713Y-113894991D01*
X134663852Y-113997315D01*
X134834012Y-114067797D01*
X135014652Y-114103729D01*
X135198830Y-114103729D01*
X135379470Y-114067797D01*
X135549630Y-113997315D01*
X135702769Y-113894991D01*
X135833003Y-113764757D01*
X135935327Y-113611618D01*
X136005809Y-113441458D01*
X136041741Y-113260818D01*
X136041741Y-113203620D01*
X136267241Y-113203620D01*
X136267241Y-113387798D01*
X136303173Y-113568438D01*
X136373655Y-113738598D01*
X136475979Y-113891737D01*
X136606213Y-114021971D01*
X136759352Y-114124295D01*
X136929512Y-114194777D01*
X137110152Y-114230709D01*
X137294330Y-114230709D01*
X137474970Y-114194777D01*
X137645130Y-114124295D01*
X137798269Y-114021971D01*
X137928503Y-113891737D01*
X138030827Y-113738598D01*
X138101309Y-113568438D01*
X138137241Y-113387798D01*
X138137241Y-113203620D01*
X138101309Y-113022980D01*
X138030827Y-112852820D01*
X138010649Y-112822620D01*
X190686741Y-112822620D01*
X190686741Y-113006798D01*
X190722673Y-113187438D01*
X190793155Y-113357598D01*
X190895479Y-113510737D01*
X191025713Y-113640971D01*
X191178852Y-113743295D01*
X191349012Y-113813777D01*
X191529652Y-113849709D01*
X191713830Y-113849709D01*
X191894470Y-113813777D01*
X192064630Y-113743295D01*
X192217769Y-113640971D01*
X192348003Y-113510737D01*
X192450327Y-113357598D01*
X192520809Y-113187438D01*
X192556741Y-113006798D01*
X192556741Y-112822620D01*
X192520809Y-112641980D01*
X192450327Y-112471820D01*
X192348003Y-112318681D01*
X192217769Y-112188447D01*
X192064630Y-112086123D01*
X191894470Y-112015641D01*
X191713830Y-111979709D01*
X191529652Y-111979709D01*
X191349012Y-112015641D01*
X191178852Y-112086123D01*
X191025713Y-112188447D01*
X190895479Y-112318681D01*
X190793155Y-112471820D01*
X190722673Y-112641980D01*
X190686741Y-112822620D01*
X138010649Y-112822620D01*
X137928503Y-112699681D01*
X137798269Y-112569447D01*
X137645130Y-112467123D01*
X137474970Y-112396641D01*
X137294330Y-112360709D01*
X137110152Y-112360709D01*
X136929512Y-112396641D01*
X136759352Y-112467123D01*
X136606213Y-112569447D01*
X136475979Y-112699681D01*
X136373655Y-112852820D01*
X136303173Y-113022980D01*
X136267241Y-113203620D01*
X136041741Y-113203620D01*
X136041741Y-113076640D01*
X136005809Y-112896000D01*
X135935327Y-112725840D01*
X135833003Y-112572701D01*
X135702769Y-112442467D01*
X135549630Y-112340143D01*
X135379470Y-112269661D01*
X135198830Y-112233729D01*
X135014652Y-112233729D01*
X134834012Y-112269661D01*
X134663852Y-112340143D01*
X134510713Y-112442467D01*
X134380479Y-112572701D01*
X134278155Y-112725840D01*
X134207673Y-112896000D01*
X134171741Y-113076640D01*
X116094809Y-113076640D01*
X116094809Y-113069437D01*
X116058877Y-112888797D01*
X115988395Y-112718637D01*
X115886071Y-112565498D01*
X115755837Y-112435264D01*
X115602698Y-112332940D01*
X115432538Y-112262458D01*
X115251898Y-112226526D01*
X115067720Y-112226526D01*
X114887080Y-112262458D01*
X114716920Y-112332940D01*
X114563781Y-112435264D01*
X114433547Y-112565498D01*
X114331223Y-112718637D01*
X114260741Y-112888797D01*
X114224809Y-113069437D01*
X105494905Y-113069437D01*
X105487252Y-113030966D01*
X105371540Y-112751614D01*
X105203553Y-112500204D01*
X104989746Y-112286397D01*
X104903410Y-112228709D01*
X104989746Y-112171021D01*
X105203553Y-111957214D01*
X105371540Y-111705804D01*
X105382385Y-111679620D01*
X117026741Y-111679620D01*
X117026741Y-111863798D01*
X117062673Y-112044438D01*
X117133155Y-112214598D01*
X117235479Y-112367737D01*
X117365713Y-112497971D01*
X117518852Y-112600295D01*
X117689012Y-112670777D01*
X117869652Y-112706709D01*
X118053830Y-112706709D01*
X118234470Y-112670777D01*
X118404630Y-112600295D01*
X118557769Y-112497971D01*
X118688003Y-112367737D01*
X118790327Y-112214598D01*
X118860809Y-112044438D01*
X118895067Y-111872213D01*
X118911119Y-111865564D01*
X119064258Y-111763240D01*
X119142328Y-111685170D01*
X120798067Y-111685170D01*
X120798067Y-111869348D01*
X120833999Y-112049988D01*
X120904481Y-112220148D01*
X121006805Y-112373287D01*
X121137039Y-112503521D01*
X121290178Y-112605845D01*
X121460338Y-112676327D01*
X121640978Y-112712259D01*
X121825156Y-112712259D01*
X122005796Y-112676327D01*
X122175956Y-112605845D01*
X122329095Y-112503521D01*
X122459329Y-112373287D01*
X122561653Y-112220148D01*
X122632135Y-112049988D01*
X122659857Y-111910620D01*
X131286241Y-111910620D01*
X131286241Y-112094798D01*
X131322173Y-112275438D01*
X131392655Y-112445598D01*
X131494979Y-112598737D01*
X131625213Y-112728971D01*
X131778352Y-112831295D01*
X131948512Y-112901777D01*
X132129152Y-112937709D01*
X132313330Y-112937709D01*
X132493970Y-112901777D01*
X132664130Y-112831295D01*
X132817269Y-112728971D01*
X132947503Y-112598737D01*
X133049827Y-112445598D01*
X133120309Y-112275438D01*
X133156241Y-112094798D01*
X133156241Y-111910620D01*
X133120309Y-111729980D01*
X133049827Y-111559820D01*
X132947503Y-111406681D01*
X132817269Y-111276447D01*
X132664130Y-111174123D01*
X132493970Y-111103641D01*
X132313330Y-111067709D01*
X132129152Y-111067709D01*
X131948512Y-111103641D01*
X131778352Y-111174123D01*
X131625213Y-111276447D01*
X131494979Y-111406681D01*
X131392655Y-111559820D01*
X131322173Y-111729980D01*
X131286241Y-111910620D01*
X122659857Y-111910620D01*
X122668067Y-111869348D01*
X122668067Y-111685170D01*
X122638996Y-111539020D01*
X122639516Y-111538500D01*
X122741840Y-111385361D01*
X122812322Y-111215201D01*
X122848254Y-111034561D01*
X122848254Y-110850383D01*
X122812322Y-110669743D01*
X122741840Y-110499583D01*
X122639516Y-110346444D01*
X122509282Y-110216210D01*
X122356143Y-110113886D01*
X122185983Y-110043404D01*
X122005343Y-110007472D01*
X121821165Y-110007472D01*
X121640525Y-110043404D01*
X121470365Y-110113886D01*
X121317226Y-110216210D01*
X121186992Y-110346444D01*
X121084668Y-110499583D01*
X121014186Y-110669743D01*
X120978254Y-110850383D01*
X120978254Y-111034561D01*
X121007325Y-111180711D01*
X121006805Y-111181231D01*
X120904481Y-111334370D01*
X120833999Y-111504530D01*
X120798067Y-111685170D01*
X119142328Y-111685170D01*
X119194492Y-111633006D01*
X119296816Y-111479867D01*
X119367298Y-111309707D01*
X119403230Y-111129067D01*
X119403230Y-110944889D01*
X119367298Y-110764249D01*
X119296816Y-110594089D01*
X119194492Y-110440950D01*
X119170409Y-110416867D01*
X119181513Y-110409447D01*
X119311747Y-110279213D01*
X119414071Y-110126074D01*
X119484553Y-109955914D01*
X119520485Y-109775274D01*
X119520485Y-109591096D01*
X119519098Y-109584120D01*
X122995741Y-109584120D01*
X122995741Y-109768298D01*
X123031673Y-109948938D01*
X123102155Y-110119098D01*
X123204479Y-110272237D01*
X123334713Y-110402471D01*
X123487852Y-110504795D01*
X123658012Y-110575277D01*
X123838652Y-110611209D01*
X124022830Y-110611209D01*
X124203470Y-110575277D01*
X124373630Y-110504795D01*
X124526769Y-110402471D01*
X124657003Y-110272237D01*
X124759327Y-110119098D01*
X124829809Y-109948938D01*
X124865741Y-109768298D01*
X124865741Y-109584120D01*
X124829809Y-109403480D01*
X124759327Y-109233320D01*
X124657003Y-109080181D01*
X124526769Y-108949947D01*
X124373630Y-108847623D01*
X124203470Y-108777141D01*
X124110360Y-108758620D01*
X129028241Y-108758620D01*
X129028241Y-108942798D01*
X129064173Y-109123438D01*
X129134655Y-109293598D01*
X129236979Y-109446737D01*
X129367213Y-109576971D01*
X129520352Y-109679295D01*
X129690512Y-109749777D01*
X129871152Y-109785709D01*
X130055330Y-109785709D01*
X130235970Y-109749777D01*
X130329297Y-109711120D01*
X134679741Y-109711120D01*
X134679741Y-109895298D01*
X134715673Y-110075938D01*
X134786155Y-110246098D01*
X134888479Y-110399237D01*
X135018713Y-110529471D01*
X135171852Y-110631795D01*
X135342012Y-110702277D01*
X135522652Y-110738209D01*
X135706830Y-110738209D01*
X135887470Y-110702277D01*
X136057630Y-110631795D01*
X136210769Y-110529471D01*
X136341003Y-110399237D01*
X136443327Y-110246098D01*
X136513809Y-110075938D01*
X136549741Y-109895298D01*
X136549741Y-109711120D01*
X136513809Y-109530480D01*
X136443327Y-109360320D01*
X136341003Y-109207181D01*
X136320442Y-109186620D01*
X194336241Y-109186620D01*
X194336241Y-109370798D01*
X194372173Y-109551438D01*
X194442655Y-109721598D01*
X194544979Y-109874737D01*
X194675213Y-110004971D01*
X194828352Y-110107295D01*
X194998512Y-110177777D01*
X195179152Y-110213709D01*
X195363330Y-110213709D01*
X195543970Y-110177777D01*
X195714130Y-110107295D01*
X195867269Y-110004971D01*
X195997503Y-109874737D01*
X196099827Y-109721598D01*
X196170309Y-109551438D01*
X196206241Y-109370798D01*
X196206241Y-109186620D01*
X196170309Y-109005980D01*
X196099827Y-108835820D01*
X195997503Y-108682681D01*
X195867269Y-108552447D01*
X195714130Y-108450123D01*
X195543970Y-108379641D01*
X195363330Y-108343709D01*
X195179152Y-108343709D01*
X194998512Y-108379641D01*
X194828352Y-108450123D01*
X194675213Y-108552447D01*
X194544979Y-108682681D01*
X194442655Y-108835820D01*
X194372173Y-109005980D01*
X194336241Y-109186620D01*
X136320442Y-109186620D01*
X136210769Y-109076947D01*
X136057630Y-108974623D01*
X135887470Y-108904141D01*
X135706830Y-108868209D01*
X135522652Y-108868209D01*
X135342012Y-108904141D01*
X135171852Y-108974623D01*
X135018713Y-109076947D01*
X134888479Y-109207181D01*
X134786155Y-109360320D01*
X134715673Y-109530480D01*
X134679741Y-109711120D01*
X130329297Y-109711120D01*
X130406130Y-109679295D01*
X130559269Y-109576971D01*
X130689503Y-109446737D01*
X130791827Y-109293598D01*
X130862309Y-109123438D01*
X130898241Y-108942798D01*
X130898241Y-108758620D01*
X130862309Y-108577980D01*
X130791827Y-108407820D01*
X130689503Y-108254681D01*
X130559269Y-108124447D01*
X130406130Y-108022123D01*
X130235970Y-107951641D01*
X130055330Y-107915709D01*
X129871152Y-107915709D01*
X129690512Y-107951641D01*
X129520352Y-108022123D01*
X129367213Y-108124447D01*
X129236979Y-108254681D01*
X129134655Y-108407820D01*
X129064173Y-108577980D01*
X129028241Y-108758620D01*
X124110360Y-108758620D01*
X124022830Y-108741209D01*
X123838652Y-108741209D01*
X123658012Y-108777141D01*
X123487852Y-108847623D01*
X123334713Y-108949947D01*
X123204479Y-109080181D01*
X123102155Y-109233320D01*
X123031673Y-109403480D01*
X122995741Y-109584120D01*
X119519098Y-109584120D01*
X119484553Y-109410456D01*
X119414071Y-109240296D01*
X119311747Y-109087157D01*
X119181513Y-108956923D01*
X119028374Y-108854599D01*
X118858214Y-108784117D01*
X118677574Y-108748185D01*
X118493396Y-108748185D01*
X118312756Y-108784117D01*
X118142596Y-108854599D01*
X117989457Y-108956923D01*
X117859223Y-109087157D01*
X117756899Y-109240296D01*
X117686417Y-109410456D01*
X117650485Y-109591096D01*
X117650485Y-109775274D01*
X117686417Y-109955914D01*
X117756899Y-110126074D01*
X117859223Y-110279213D01*
X117883306Y-110303296D01*
X117872202Y-110310716D01*
X117741968Y-110440950D01*
X117639644Y-110594089D01*
X117569162Y-110764249D01*
X117534904Y-110936474D01*
X117518852Y-110943123D01*
X117365713Y-111045447D01*
X117235479Y-111175681D01*
X117133155Y-111328820D01*
X117062673Y-111498980D01*
X117026741Y-111679620D01*
X105382385Y-111679620D01*
X105487252Y-111426452D01*
X105546241Y-111129893D01*
X105546241Y-110827525D01*
X105487252Y-110530966D01*
X105371540Y-110251614D01*
X105203553Y-110000204D01*
X104989746Y-109786397D01*
X104738336Y-109618410D01*
X104458984Y-109502698D01*
X104162425Y-109443709D01*
X103860057Y-109443709D01*
X103563498Y-109502698D01*
X103284146Y-109618410D01*
X103032736Y-109786397D01*
X102818929Y-110000204D01*
X102650942Y-110251614D01*
X102535230Y-110530966D01*
X102476241Y-110827525D01*
X91886241Y-110827525D01*
X91886241Y-107683656D01*
X99016241Y-107683656D01*
X99016241Y-108133762D01*
X99104052Y-108575219D01*
X99276300Y-108991062D01*
X99526366Y-109365312D01*
X99844638Y-109683584D01*
X100218888Y-109933650D01*
X100634731Y-110105898D01*
X101076188Y-110193709D01*
X101526294Y-110193709D01*
X101967751Y-110105898D01*
X102383594Y-109933650D01*
X102757844Y-109683584D01*
X103076116Y-109365312D01*
X103269348Y-109076120D01*
X106803241Y-109076120D01*
X106803241Y-109260298D01*
X106839173Y-109440938D01*
X106909655Y-109611098D01*
X107011979Y-109764237D01*
X107142213Y-109894471D01*
X107295352Y-109996795D01*
X107465512Y-110067277D01*
X107646152Y-110103209D01*
X107830330Y-110103209D01*
X108010970Y-110067277D01*
X108181130Y-109996795D01*
X108334269Y-109894471D01*
X108464503Y-109764237D01*
X108542423Y-109647620D01*
X110295741Y-109647620D01*
X110295741Y-109831798D01*
X110331673Y-110012438D01*
X110402155Y-110182598D01*
X110504479Y-110335737D01*
X110634713Y-110465971D01*
X110787852Y-110568295D01*
X110958012Y-110638777D01*
X111138652Y-110674709D01*
X111322830Y-110674709D01*
X111503470Y-110638777D01*
X111673630Y-110568295D01*
X111826769Y-110465971D01*
X111957003Y-110335737D01*
X112059327Y-110182598D01*
X112129809Y-110012438D01*
X112165741Y-109831798D01*
X112165741Y-109647620D01*
X112129809Y-109466980D01*
X112059327Y-109296820D01*
X111957003Y-109143681D01*
X111826769Y-109013447D01*
X111730497Y-108949120D01*
X112899241Y-108949120D01*
X112899241Y-109133298D01*
X112935173Y-109313938D01*
X113005655Y-109484098D01*
X113107979Y-109637237D01*
X113238213Y-109767471D01*
X113391352Y-109869795D01*
X113561512Y-109940277D01*
X113742152Y-109976209D01*
X113926330Y-109976209D01*
X114106970Y-109940277D01*
X114277130Y-109869795D01*
X114430269Y-109767471D01*
X114560503Y-109637237D01*
X114662827Y-109484098D01*
X114733309Y-109313938D01*
X114769241Y-109133298D01*
X114769241Y-108949120D01*
X114733309Y-108768480D01*
X114662827Y-108598320D01*
X114560503Y-108445181D01*
X114430269Y-108314947D01*
X114277130Y-108212623D01*
X114106970Y-108142141D01*
X113926330Y-108106209D01*
X113742152Y-108106209D01*
X113561512Y-108142141D01*
X113391352Y-108212623D01*
X113238213Y-108314947D01*
X113107979Y-108445181D01*
X113005655Y-108598320D01*
X112935173Y-108768480D01*
X112899241Y-108949120D01*
X111730497Y-108949120D01*
X111673630Y-108911123D01*
X111503470Y-108840641D01*
X111322830Y-108804709D01*
X111138652Y-108804709D01*
X110958012Y-108840641D01*
X110787852Y-108911123D01*
X110634713Y-109013447D01*
X110504479Y-109143681D01*
X110402155Y-109296820D01*
X110331673Y-109466980D01*
X110295741Y-109647620D01*
X108542423Y-109647620D01*
X108566827Y-109611098D01*
X108637309Y-109440938D01*
X108673241Y-109260298D01*
X108673241Y-109076120D01*
X108637309Y-108895480D01*
X108566827Y-108725320D01*
X108464503Y-108572181D01*
X108334269Y-108441947D01*
X108181130Y-108339623D01*
X108010970Y-108269141D01*
X107830330Y-108233209D01*
X107646152Y-108233209D01*
X107465512Y-108269141D01*
X107295352Y-108339623D01*
X107142213Y-108441947D01*
X107011979Y-108572181D01*
X106909655Y-108725320D01*
X106839173Y-108895480D01*
X106803241Y-109076120D01*
X103269348Y-109076120D01*
X103326182Y-108991062D01*
X103498430Y-108575219D01*
X103586241Y-108133762D01*
X103586241Y-107683656D01*
X103498430Y-107242199D01*
X103326182Y-106826356D01*
X103259541Y-106726620D01*
X109914741Y-106726620D01*
X109914741Y-106910798D01*
X109950673Y-107091438D01*
X110021155Y-107261598D01*
X110123479Y-107414737D01*
X110253713Y-107544971D01*
X110406852Y-107647295D01*
X110577012Y-107717777D01*
X110757652Y-107753709D01*
X110941830Y-107753709D01*
X111122470Y-107717777D01*
X111292630Y-107647295D01*
X111445769Y-107544971D01*
X111576003Y-107414737D01*
X111678327Y-107261598D01*
X111742106Y-107107620D01*
X131695241Y-107107620D01*
X131695241Y-107291798D01*
X131731173Y-107472438D01*
X131801655Y-107642598D01*
X131903979Y-107795737D01*
X132034213Y-107925971D01*
X132187352Y-108028295D01*
X132357512Y-108098777D01*
X132538152Y-108134709D01*
X132722330Y-108134709D01*
X132902970Y-108098777D01*
X133073130Y-108028295D01*
X133226269Y-107925971D01*
X133356503Y-107795737D01*
X133458827Y-107642598D01*
X133529309Y-107472438D01*
X133565241Y-107291798D01*
X133565241Y-107286077D01*
X155232334Y-107286077D01*
X155232334Y-107470255D01*
X155268266Y-107650895D01*
X155338748Y-107821055D01*
X155441072Y-107974194D01*
X155571306Y-108104428D01*
X155724445Y-108206752D01*
X155894605Y-108277234D01*
X156075245Y-108313166D01*
X156259423Y-108313166D01*
X156440063Y-108277234D01*
X156610223Y-108206752D01*
X156763362Y-108104428D01*
X156893596Y-107974194D01*
X156952110Y-107886620D01*
X182136241Y-107886620D01*
X182136241Y-108070798D01*
X182172173Y-108251438D01*
X182242655Y-108421598D01*
X182344979Y-108574737D01*
X182475213Y-108704971D01*
X182628352Y-108807295D01*
X182798512Y-108877777D01*
X182979152Y-108913709D01*
X183163330Y-108913709D01*
X183343970Y-108877777D01*
X183514130Y-108807295D01*
X183667269Y-108704971D01*
X183797503Y-108574737D01*
X183899827Y-108421598D01*
X183970309Y-108251438D01*
X184006241Y-108070798D01*
X184006241Y-107886620D01*
X187136241Y-107886620D01*
X187136241Y-108070798D01*
X187172173Y-108251438D01*
X187242655Y-108421598D01*
X187344979Y-108574737D01*
X187475213Y-108704971D01*
X187628352Y-108807295D01*
X187798512Y-108877777D01*
X187979152Y-108913709D01*
X188163330Y-108913709D01*
X188343970Y-108877777D01*
X188514130Y-108807295D01*
X188667269Y-108704971D01*
X188797503Y-108574737D01*
X188899827Y-108421598D01*
X188970309Y-108251438D01*
X189006241Y-108070798D01*
X189006241Y-107886620D01*
X188970309Y-107705980D01*
X188899827Y-107535820D01*
X188797503Y-107382681D01*
X188667269Y-107252447D01*
X188514130Y-107150123D01*
X188343970Y-107079641D01*
X188163330Y-107043709D01*
X187979152Y-107043709D01*
X187798512Y-107079641D01*
X187628352Y-107150123D01*
X187475213Y-107252447D01*
X187344979Y-107382681D01*
X187242655Y-107535820D01*
X187172173Y-107705980D01*
X187136241Y-107886620D01*
X184006241Y-107886620D01*
X183970309Y-107705980D01*
X183899827Y-107535820D01*
X183797503Y-107382681D01*
X183667269Y-107252447D01*
X183514130Y-107150123D01*
X183343970Y-107079641D01*
X183163330Y-107043709D01*
X182979152Y-107043709D01*
X182798512Y-107079641D01*
X182628352Y-107150123D01*
X182475213Y-107252447D01*
X182344979Y-107382681D01*
X182242655Y-107535820D01*
X182172173Y-107705980D01*
X182136241Y-107886620D01*
X156952110Y-107886620D01*
X156995920Y-107821055D01*
X157038282Y-107718782D01*
X157140555Y-107676420D01*
X157293694Y-107574096D01*
X157423928Y-107443862D01*
X157526252Y-107290723D01*
X157596734Y-107120563D01*
X157632666Y-106939923D01*
X157632666Y-106755745D01*
X157596734Y-106575105D01*
X157526252Y-106404945D01*
X157423928Y-106251806D01*
X157293694Y-106121572D01*
X157140555Y-106019248D01*
X156970395Y-105948766D01*
X156789755Y-105912834D01*
X156605577Y-105912834D01*
X156424937Y-105948766D01*
X156254777Y-106019248D01*
X156101638Y-106121572D01*
X155971404Y-106251806D01*
X155869080Y-106404945D01*
X155826718Y-106507218D01*
X155724445Y-106549580D01*
X155571306Y-106651904D01*
X155441072Y-106782138D01*
X155338748Y-106935277D01*
X155268266Y-107105437D01*
X155232334Y-107286077D01*
X133565241Y-107286077D01*
X133565241Y-107107620D01*
X133529309Y-106926980D01*
X133458827Y-106756820D01*
X133356503Y-106603681D01*
X133226269Y-106473447D01*
X133073130Y-106371123D01*
X132902970Y-106300641D01*
X132722330Y-106264709D01*
X132538152Y-106264709D01*
X132357512Y-106300641D01*
X132187352Y-106371123D01*
X132034213Y-106473447D01*
X131903979Y-106603681D01*
X131801655Y-106756820D01*
X131731173Y-106926980D01*
X131695241Y-107107620D01*
X111742106Y-107107620D01*
X111748809Y-107091438D01*
X111784741Y-106910798D01*
X111784741Y-106726620D01*
X111748809Y-106545980D01*
X111678327Y-106375820D01*
X111576003Y-106222681D01*
X111445769Y-106092447D01*
X111292630Y-105990123D01*
X111122470Y-105919641D01*
X110941830Y-105883709D01*
X110757652Y-105883709D01*
X110577012Y-105919641D01*
X110406852Y-105990123D01*
X110253713Y-106092447D01*
X110123479Y-106222681D01*
X110021155Y-106375820D01*
X109950673Y-106545980D01*
X109914741Y-106726620D01*
X103259541Y-106726620D01*
X103076116Y-106452106D01*
X102757844Y-106133834D01*
X102383594Y-105883768D01*
X102118881Y-105774120D01*
X183574741Y-105774120D01*
X183574741Y-105958298D01*
X183610673Y-106138938D01*
X183681155Y-106309098D01*
X183783479Y-106462237D01*
X183913713Y-106592471D01*
X184066852Y-106694795D01*
X184237012Y-106765277D01*
X184417652Y-106801209D01*
X184601830Y-106801209D01*
X184774255Y-106766911D01*
X195375500Y-106766911D01*
X195375500Y-106951089D01*
X195411432Y-107131729D01*
X195481914Y-107301889D01*
X195584238Y-107455028D01*
X195714472Y-107585262D01*
X195867611Y-107687586D01*
X196037771Y-107758068D01*
X196218411Y-107794000D01*
X196402589Y-107794000D01*
X196583229Y-107758068D01*
X196753389Y-107687586D01*
X196906528Y-107585262D01*
X197036762Y-107455028D01*
X197139086Y-107301889D01*
X197209568Y-107131729D01*
X197245500Y-106951089D01*
X197245500Y-106766911D01*
X197209568Y-106586271D01*
X197139086Y-106416111D01*
X197036762Y-106262972D01*
X196906528Y-106132738D01*
X196753389Y-106030414D01*
X196583229Y-105959932D01*
X196402589Y-105924000D01*
X196218411Y-105924000D01*
X196037771Y-105959932D01*
X195867611Y-106030414D01*
X195714472Y-106132738D01*
X195584238Y-106262972D01*
X195481914Y-106416111D01*
X195411432Y-106586271D01*
X195375500Y-106766911D01*
X184774255Y-106766911D01*
X184782470Y-106765277D01*
X184952630Y-106694795D01*
X185105769Y-106592471D01*
X185236003Y-106462237D01*
X185338327Y-106309098D01*
X185408809Y-106138938D01*
X185444741Y-105958298D01*
X185444741Y-105774120D01*
X185408809Y-105593480D01*
X185338327Y-105423320D01*
X185236003Y-105270181D01*
X185105769Y-105139947D01*
X184952630Y-105037623D01*
X184782470Y-104967141D01*
X184601830Y-104931209D01*
X184417652Y-104931209D01*
X184237012Y-104967141D01*
X184066852Y-105037623D01*
X183913713Y-105139947D01*
X183783479Y-105270181D01*
X183681155Y-105423320D01*
X183610673Y-105593480D01*
X183574741Y-105774120D01*
X102118881Y-105774120D01*
X101967751Y-105711520D01*
X101526294Y-105623709D01*
X101076188Y-105623709D01*
X100634731Y-105711520D01*
X100218888Y-105883768D01*
X99844638Y-106133834D01*
X99526366Y-106452106D01*
X99276300Y-106826356D01*
X99104052Y-107242199D01*
X99016241Y-107683656D01*
X91886241Y-107683656D01*
X91886241Y-101728709D01*
X94059540Y-101728709D01*
X94086281Y-102000216D01*
X94165477Y-102261290D01*
X94294084Y-102501897D01*
X94467160Y-102712790D01*
X94678053Y-102885866D01*
X94918660Y-103014473D01*
X95179734Y-103093669D01*
X95383204Y-103113709D01*
X96719278Y-103113709D01*
X96922748Y-103093669D01*
X97183822Y-103014473D01*
X97424429Y-102885866D01*
X97635322Y-102712790D01*
X97808398Y-102501897D01*
X97937005Y-102261290D01*
X98016201Y-102000216D01*
X98042942Y-101728709D01*
X99759540Y-101728709D01*
X99786281Y-102000216D01*
X99865477Y-102261290D01*
X99994084Y-102501897D01*
X100167160Y-102712790D01*
X100378053Y-102885866D01*
X100618660Y-103014473D01*
X100879734Y-103093669D01*
X101083204Y-103113709D01*
X103019278Y-103113709D01*
X103222748Y-103093669D01*
X103483822Y-103014473D01*
X103724429Y-102885866D01*
X103935322Y-102712790D01*
X104108398Y-102501897D01*
X104130751Y-102460077D01*
X149644334Y-102460077D01*
X149644334Y-102644255D01*
X149680266Y-102824895D01*
X149750748Y-102995055D01*
X149853072Y-103148194D01*
X149983306Y-103278428D01*
X150136445Y-103380752D01*
X150306605Y-103451234D01*
X150487245Y-103487166D01*
X150671423Y-103487166D01*
X150852063Y-103451234D01*
X151022223Y-103380752D01*
X151175362Y-103278428D01*
X151305596Y-103148194D01*
X151407920Y-102995055D01*
X151450282Y-102892782D01*
X151552555Y-102850420D01*
X151705694Y-102748096D01*
X151835928Y-102617862D01*
X151938252Y-102464723D01*
X152008734Y-102294563D01*
X152044666Y-102113923D01*
X152044666Y-101929745D01*
X152008734Y-101749105D01*
X151938252Y-101578945D01*
X151835928Y-101425806D01*
X151705694Y-101295572D01*
X151692297Y-101286620D01*
X195136241Y-101286620D01*
X195136241Y-101470798D01*
X195172173Y-101651438D01*
X195242655Y-101821598D01*
X195344979Y-101974737D01*
X195475213Y-102104971D01*
X195628352Y-102207295D01*
X195798512Y-102277777D01*
X195979152Y-102313709D01*
X196163330Y-102313709D01*
X196343970Y-102277777D01*
X196514130Y-102207295D01*
X196667269Y-102104971D01*
X196797503Y-101974737D01*
X196899827Y-101821598D01*
X196970309Y-101651438D01*
X197006241Y-101470798D01*
X197006241Y-101286620D01*
X196970309Y-101105980D01*
X196899827Y-100935820D01*
X196797503Y-100782681D01*
X196667269Y-100652447D01*
X196514130Y-100550123D01*
X196343970Y-100479641D01*
X196163330Y-100443709D01*
X195979152Y-100443709D01*
X195798512Y-100479641D01*
X195628352Y-100550123D01*
X195475213Y-100652447D01*
X195344979Y-100782681D01*
X195242655Y-100935820D01*
X195172173Y-101105980D01*
X195136241Y-101286620D01*
X151692297Y-101286620D01*
X151552555Y-101193248D01*
X151382395Y-101122766D01*
X151201755Y-101086834D01*
X151017577Y-101086834D01*
X150836937Y-101122766D01*
X150666777Y-101193248D01*
X150513638Y-101295572D01*
X150383404Y-101425806D01*
X150281080Y-101578945D01*
X150238718Y-101681218D01*
X150136445Y-101723580D01*
X149983306Y-101825904D01*
X149853072Y-101956138D01*
X149750748Y-102109277D01*
X149680266Y-102279437D01*
X149644334Y-102460077D01*
X104130751Y-102460077D01*
X104237005Y-102261290D01*
X104316201Y-102000216D01*
X104342942Y-101728709D01*
X104316201Y-101457202D01*
X104237005Y-101196128D01*
X104108398Y-100955521D01*
X104050211Y-100884620D01*
X132584241Y-100884620D01*
X132584241Y-101068798D01*
X132620173Y-101249438D01*
X132690655Y-101419598D01*
X132792979Y-101572737D01*
X132923213Y-101702971D01*
X133076352Y-101805295D01*
X133246512Y-101875777D01*
X133427152Y-101911709D01*
X133611330Y-101911709D01*
X133791970Y-101875777D01*
X133962130Y-101805295D01*
X134115269Y-101702971D01*
X134245503Y-101572737D01*
X134347827Y-101419598D01*
X134418309Y-101249438D01*
X134439991Y-101140437D01*
X134461673Y-101249438D01*
X134532155Y-101419598D01*
X134634479Y-101572737D01*
X134764713Y-101702971D01*
X134917852Y-101805295D01*
X135088012Y-101875777D01*
X135268652Y-101911709D01*
X135452830Y-101911709D01*
X135633470Y-101875777D01*
X135803630Y-101805295D01*
X135956769Y-101702971D01*
X136087003Y-101572737D01*
X136189327Y-101419598D01*
X136259809Y-101249438D01*
X136295741Y-101068798D01*
X136295741Y-100884620D01*
X136259809Y-100703980D01*
X136189327Y-100533820D01*
X136087003Y-100380681D01*
X135956769Y-100250447D01*
X135803630Y-100148123D01*
X135633470Y-100077641D01*
X135452830Y-100041709D01*
X135268652Y-100041709D01*
X135088012Y-100077641D01*
X134917852Y-100148123D01*
X134764713Y-100250447D01*
X134634479Y-100380681D01*
X134532155Y-100533820D01*
X134461673Y-100703980D01*
X134439991Y-100812981D01*
X134418309Y-100703980D01*
X134347827Y-100533820D01*
X134245503Y-100380681D01*
X134115269Y-100250447D01*
X133962130Y-100148123D01*
X133791970Y-100077641D01*
X133611330Y-100041709D01*
X133427152Y-100041709D01*
X133246512Y-100077641D01*
X133076352Y-100148123D01*
X132923213Y-100250447D01*
X132792979Y-100380681D01*
X132690655Y-100533820D01*
X132620173Y-100703980D01*
X132584241Y-100884620D01*
X104050211Y-100884620D01*
X103935322Y-100744628D01*
X103724429Y-100571552D01*
X103483822Y-100442945D01*
X103222748Y-100363749D01*
X103019278Y-100343709D01*
X101083204Y-100343709D01*
X100879734Y-100363749D01*
X100618660Y-100442945D01*
X100378053Y-100571552D01*
X100167160Y-100744628D01*
X99994084Y-100955521D01*
X99865477Y-101196128D01*
X99786281Y-101457202D01*
X99759540Y-101728709D01*
X98042942Y-101728709D01*
X98016201Y-101457202D01*
X97937005Y-101196128D01*
X97808398Y-100955521D01*
X97635322Y-100744628D01*
X97424429Y-100571552D01*
X97183822Y-100442945D01*
X96922748Y-100363749D01*
X96719278Y-100343709D01*
X95383204Y-100343709D01*
X95179734Y-100363749D01*
X94918660Y-100442945D01*
X94678053Y-100571552D01*
X94467160Y-100744628D01*
X94294084Y-100955521D01*
X94165477Y-101196128D01*
X94086281Y-101457202D01*
X94059540Y-101728709D01*
X91886241Y-101728709D01*
X91886241Y-98417120D01*
X104254241Y-98417120D01*
X104254241Y-98601298D01*
X104290173Y-98781938D01*
X104360655Y-98952098D01*
X104462979Y-99105237D01*
X104593213Y-99235471D01*
X104746352Y-99337795D01*
X104916512Y-99408277D01*
X105097152Y-99444209D01*
X105281330Y-99444209D01*
X105461970Y-99408277D01*
X105632130Y-99337795D01*
X105753617Y-99256620D01*
X116586241Y-99256620D01*
X116586241Y-99440798D01*
X116622173Y-99621438D01*
X116692655Y-99791598D01*
X116794979Y-99944737D01*
X116925213Y-100074971D01*
X117078352Y-100177295D01*
X117248512Y-100247777D01*
X117429152Y-100283709D01*
X117613330Y-100283709D01*
X117793970Y-100247777D01*
X117964130Y-100177295D01*
X118117269Y-100074971D01*
X118247503Y-99944737D01*
X118349827Y-99791598D01*
X118420309Y-99621438D01*
X118456241Y-99440798D01*
X118456241Y-99256620D01*
X118420309Y-99075980D01*
X118349827Y-98905820D01*
X118247503Y-98752681D01*
X118117269Y-98622447D01*
X118079787Y-98597403D01*
X118170240Y-98536964D01*
X118300474Y-98406730D01*
X118402798Y-98253591D01*
X118473280Y-98083431D01*
X118509212Y-97902791D01*
X118509212Y-97718613D01*
X118473280Y-97537973D01*
X118402798Y-97367813D01*
X118300474Y-97214674D01*
X118175417Y-97089617D01*
X118227269Y-97054971D01*
X118357503Y-96924737D01*
X118459827Y-96771598D01*
X118530309Y-96601438D01*
X118566241Y-96420798D01*
X118566241Y-96312620D01*
X187638741Y-96312620D01*
X187638741Y-96496798D01*
X187674673Y-96677438D01*
X187745155Y-96847598D01*
X187847479Y-97000737D01*
X187977713Y-97130971D01*
X188130852Y-97233295D01*
X188301012Y-97303777D01*
X188481652Y-97339709D01*
X188665830Y-97339709D01*
X188846470Y-97303777D01*
X189016630Y-97233295D01*
X189169769Y-97130971D01*
X189300003Y-97000737D01*
X189402327Y-96847598D01*
X189472809Y-96677438D01*
X189508741Y-96496798D01*
X189508741Y-96312620D01*
X189472809Y-96131980D01*
X189402327Y-95961820D01*
X189300003Y-95808681D01*
X189169769Y-95678447D01*
X189016630Y-95576123D01*
X188846470Y-95505641D01*
X188665830Y-95469709D01*
X188481652Y-95469709D01*
X188301012Y-95505641D01*
X188130852Y-95576123D01*
X187977713Y-95678447D01*
X187847479Y-95808681D01*
X187745155Y-95961820D01*
X187674673Y-96131980D01*
X187638741Y-96312620D01*
X118566241Y-96312620D01*
X118566241Y-96236620D01*
X118530309Y-96055980D01*
X118459827Y-95885820D01*
X118357503Y-95732681D01*
X118227269Y-95602447D01*
X118181743Y-95572027D01*
X118207269Y-95554971D01*
X118337503Y-95424737D01*
X118439827Y-95271598D01*
X118510309Y-95101438D01*
X118546241Y-94920798D01*
X118546241Y-94736620D01*
X118510309Y-94555980D01*
X118439827Y-94385820D01*
X118337503Y-94232681D01*
X118207269Y-94102447D01*
X118054130Y-94000123D01*
X117883970Y-93929641D01*
X117703330Y-93893709D01*
X117519152Y-93893709D01*
X117338512Y-93929641D01*
X117168352Y-94000123D01*
X117015213Y-94102447D01*
X116884979Y-94232681D01*
X116782655Y-94385820D01*
X116712173Y-94555980D01*
X116676241Y-94736620D01*
X116676241Y-94920798D01*
X116712173Y-95101438D01*
X116782655Y-95271598D01*
X116884979Y-95424737D01*
X117015213Y-95554971D01*
X117060739Y-95585391D01*
X117035213Y-95602447D01*
X116904979Y-95732681D01*
X116802655Y-95885820D01*
X116732173Y-96055980D01*
X116696241Y-96236620D01*
X116696241Y-96420798D01*
X116732173Y-96601438D01*
X116802655Y-96771598D01*
X116904979Y-96924737D01*
X117030036Y-97049794D01*
X116978184Y-97084440D01*
X116847950Y-97214674D01*
X116745626Y-97367813D01*
X116675144Y-97537973D01*
X116639212Y-97718613D01*
X116639212Y-97902791D01*
X116675144Y-98083431D01*
X116745626Y-98253591D01*
X116847950Y-98406730D01*
X116978184Y-98536964D01*
X117015666Y-98562008D01*
X116925213Y-98622447D01*
X116794979Y-98752681D01*
X116692655Y-98905820D01*
X116622173Y-99075980D01*
X116586241Y-99256620D01*
X105753617Y-99256620D01*
X105785269Y-99235471D01*
X105915503Y-99105237D01*
X106017827Y-98952098D01*
X106088309Y-98781938D01*
X106124241Y-98601298D01*
X106124241Y-98417120D01*
X106088309Y-98236480D01*
X106017827Y-98066320D01*
X105915503Y-97913181D01*
X105785269Y-97782947D01*
X105632130Y-97680623D01*
X105461970Y-97610141D01*
X105281330Y-97574209D01*
X105097152Y-97574209D01*
X104916512Y-97610141D01*
X104746352Y-97680623D01*
X104593213Y-97782947D01*
X104462979Y-97913181D01*
X104360655Y-98066320D01*
X104290173Y-98236480D01*
X104254241Y-98417120D01*
X91886241Y-98417120D01*
X91886241Y-95432620D01*
X99428241Y-95432620D01*
X99428241Y-95616798D01*
X99464173Y-95797438D01*
X99534655Y-95967598D01*
X99636979Y-96120737D01*
X99767213Y-96250971D01*
X99773181Y-96254959D01*
X99767213Y-96258947D01*
X99636979Y-96389181D01*
X99534655Y-96542320D01*
X99464173Y-96712480D01*
X99428241Y-96893120D01*
X99428241Y-97077298D01*
X99464173Y-97257938D01*
X99534655Y-97428098D01*
X99636979Y-97581237D01*
X99767213Y-97711471D01*
X99920352Y-97813795D01*
X100090512Y-97884277D01*
X100271152Y-97920209D01*
X100455330Y-97920209D01*
X100635970Y-97884277D01*
X100806130Y-97813795D01*
X100959269Y-97711471D01*
X101089503Y-97581237D01*
X101191827Y-97428098D01*
X101262309Y-97257938D01*
X101298241Y-97077298D01*
X101298241Y-96893120D01*
X101262309Y-96712480D01*
X101191827Y-96542320D01*
X101089503Y-96389181D01*
X100959269Y-96258947D01*
X100953301Y-96254959D01*
X100959269Y-96250971D01*
X101089503Y-96120737D01*
X101191827Y-95967598D01*
X101262309Y-95797438D01*
X101298241Y-95616798D01*
X101298241Y-95432620D01*
X101262309Y-95251980D01*
X101191827Y-95081820D01*
X101089503Y-94928681D01*
X100959269Y-94798447D01*
X100806130Y-94696123D01*
X100635970Y-94625641D01*
X100455330Y-94589709D01*
X100271152Y-94589709D01*
X100090512Y-94625641D01*
X99920352Y-94696123D01*
X99767213Y-94798447D01*
X99636979Y-94928681D01*
X99534655Y-95081820D01*
X99464173Y-95251980D01*
X99428241Y-95432620D01*
X91886241Y-95432620D01*
X91886241Y-93908620D01*
X104571741Y-93908620D01*
X104571741Y-94092798D01*
X104607673Y-94273438D01*
X104678155Y-94443598D01*
X104780479Y-94596737D01*
X104910713Y-94726971D01*
X105063852Y-94829295D01*
X105234012Y-94899777D01*
X105414652Y-94935709D01*
X105598830Y-94935709D01*
X105779470Y-94899777D01*
X105949630Y-94829295D01*
X106102769Y-94726971D01*
X106233003Y-94596737D01*
X106335327Y-94443598D01*
X106405809Y-94273438D01*
X106441741Y-94092798D01*
X106441741Y-93908620D01*
X106405809Y-93727980D01*
X106335327Y-93557820D01*
X106233003Y-93404681D01*
X106102769Y-93274447D01*
X105949630Y-93172123D01*
X105779470Y-93101641D01*
X105598830Y-93065709D01*
X105414652Y-93065709D01*
X105234012Y-93101641D01*
X105063852Y-93172123D01*
X104910713Y-93274447D01*
X104780479Y-93404681D01*
X104678155Y-93557820D01*
X104607673Y-93727980D01*
X104571741Y-93908620D01*
X91886241Y-93908620D01*
X91886241Y-89886620D01*
X99516241Y-89886620D01*
X99516241Y-90070798D01*
X99552173Y-90251438D01*
X99622655Y-90421598D01*
X99671629Y-90494893D01*
X99661655Y-90509820D01*
X99591173Y-90679980D01*
X99555241Y-90860620D01*
X99555241Y-91044798D01*
X99591173Y-91225438D01*
X99661655Y-91395598D01*
X99763979Y-91548737D01*
X99894213Y-91678971D01*
X100047352Y-91781295D01*
X100217512Y-91851777D01*
X100398152Y-91887709D01*
X100582330Y-91887709D01*
X100762970Y-91851777D01*
X100933130Y-91781295D01*
X101086269Y-91678971D01*
X101216503Y-91548737D01*
X101318827Y-91395598D01*
X101389309Y-91225438D01*
X101425241Y-91044798D01*
X101425241Y-90860620D01*
X101389309Y-90679980D01*
X101318827Y-90509820D01*
X101269853Y-90436525D01*
X101279827Y-90421598D01*
X101294315Y-90386620D01*
X103916241Y-90386620D01*
X103916241Y-90570798D01*
X103952173Y-90751438D01*
X104022655Y-90921598D01*
X104060815Y-90978709D01*
X104022655Y-91035820D01*
X103952173Y-91205980D01*
X103916241Y-91386620D01*
X103916241Y-91570798D01*
X103952173Y-91751438D01*
X104022655Y-91921598D01*
X104124979Y-92074737D01*
X104255213Y-92204971D01*
X104408352Y-92307295D01*
X104578512Y-92377777D01*
X104759152Y-92413709D01*
X104943330Y-92413709D01*
X105123970Y-92377777D01*
X105294130Y-92307295D01*
X105447269Y-92204971D01*
X105577503Y-92074737D01*
X105679827Y-91921598D01*
X105750309Y-91751438D01*
X105786241Y-91570798D01*
X105786241Y-91386620D01*
X105750309Y-91205980D01*
X105700869Y-91086620D01*
X107016241Y-91086620D01*
X107016241Y-91270798D01*
X107052173Y-91451438D01*
X107122655Y-91621598D01*
X107224979Y-91774737D01*
X107355213Y-91904971D01*
X107508352Y-92007295D01*
X107678512Y-92077777D01*
X107859152Y-92113709D01*
X108043330Y-92113709D01*
X108223970Y-92077777D01*
X108394130Y-92007295D01*
X108547269Y-91904971D01*
X108677503Y-91774737D01*
X108779827Y-91621598D01*
X108850309Y-91451438D01*
X108886241Y-91270798D01*
X108886241Y-91086620D01*
X108850309Y-90905980D01*
X108779827Y-90735820D01*
X108677503Y-90582681D01*
X108547269Y-90452447D01*
X108394130Y-90350123D01*
X108223970Y-90279641D01*
X108043330Y-90243709D01*
X107859152Y-90243709D01*
X107678512Y-90279641D01*
X107508352Y-90350123D01*
X107355213Y-90452447D01*
X107224979Y-90582681D01*
X107122655Y-90735820D01*
X107052173Y-90905980D01*
X107016241Y-91086620D01*
X105700869Y-91086620D01*
X105679827Y-91035820D01*
X105641667Y-90978709D01*
X105679827Y-90921598D01*
X105750309Y-90751438D01*
X105786241Y-90570798D01*
X105786241Y-90386620D01*
X105750309Y-90205980D01*
X105679827Y-90035820D01*
X105577503Y-89882681D01*
X105447269Y-89752447D01*
X105294130Y-89650123D01*
X105123970Y-89579641D01*
X104943330Y-89543709D01*
X104759152Y-89543709D01*
X104578512Y-89579641D01*
X104408352Y-89650123D01*
X104255213Y-89752447D01*
X104124979Y-89882681D01*
X104022655Y-90035820D01*
X103952173Y-90205980D01*
X103916241Y-90386620D01*
X101294315Y-90386620D01*
X101350309Y-90251438D01*
X101386241Y-90070798D01*
X101386241Y-89886620D01*
X101350309Y-89705980D01*
X101279827Y-89535820D01*
X101177503Y-89382681D01*
X101047269Y-89252447D01*
X100894130Y-89150123D01*
X100723970Y-89079641D01*
X100543330Y-89043709D01*
X100359152Y-89043709D01*
X100178512Y-89079641D01*
X100008352Y-89150123D01*
X99855213Y-89252447D01*
X99724979Y-89382681D01*
X99622655Y-89535820D01*
X99552173Y-89705980D01*
X99516241Y-89886620D01*
X91886241Y-89886620D01*
X91886241Y-87228709D01*
X94059540Y-87228709D01*
X94086281Y-87500216D01*
X94165477Y-87761290D01*
X94294084Y-88001897D01*
X94467160Y-88212790D01*
X94678053Y-88385866D01*
X94918660Y-88514473D01*
X95179734Y-88593669D01*
X95383204Y-88613709D01*
X96719278Y-88613709D01*
X96922748Y-88593669D01*
X97183822Y-88514473D01*
X97424429Y-88385866D01*
X97635322Y-88212790D01*
X97808398Y-88001897D01*
X97937005Y-87761290D01*
X98016201Y-87500216D01*
X98042942Y-87228709D01*
X99759540Y-87228709D01*
X99786281Y-87500216D01*
X99865477Y-87761290D01*
X99994084Y-88001897D01*
X100167160Y-88212790D01*
X100378053Y-88385866D01*
X100618660Y-88514473D01*
X100879734Y-88593669D01*
X101083204Y-88613709D01*
X103019278Y-88613709D01*
X103222748Y-88593669D01*
X103483822Y-88514473D01*
X103724429Y-88385866D01*
X103935322Y-88212790D01*
X104108398Y-88001897D01*
X104237005Y-87761290D01*
X104316201Y-87500216D01*
X104342942Y-87228709D01*
X104316201Y-86957202D01*
X104294791Y-86886620D01*
X105516241Y-86886620D01*
X105516241Y-87070798D01*
X105552173Y-87251438D01*
X105622655Y-87421598D01*
X105724979Y-87574737D01*
X105855213Y-87704971D01*
X106008352Y-87807295D01*
X106178512Y-87877777D01*
X106183197Y-87878709D01*
X106178512Y-87879641D01*
X106008352Y-87950123D01*
X105855213Y-88052447D01*
X105724979Y-88182681D01*
X105622655Y-88335820D01*
X105552173Y-88505980D01*
X105516241Y-88686620D01*
X105516241Y-88870798D01*
X105552173Y-89051438D01*
X105622655Y-89221598D01*
X105724979Y-89374737D01*
X105855213Y-89504971D01*
X106008352Y-89607295D01*
X106178512Y-89677777D01*
X106359152Y-89713709D01*
X106543330Y-89713709D01*
X106723970Y-89677777D01*
X106894130Y-89607295D01*
X107047269Y-89504971D01*
X107177503Y-89374737D01*
X107279827Y-89221598D01*
X107350309Y-89051438D01*
X107386241Y-88870798D01*
X107386241Y-88686620D01*
X107350309Y-88505980D01*
X107279827Y-88335820D01*
X107177503Y-88182681D01*
X107047269Y-88052447D01*
X106894130Y-87950123D01*
X106723970Y-87879641D01*
X106719285Y-87878709D01*
X106723970Y-87877777D01*
X106894130Y-87807295D01*
X107047269Y-87704971D01*
X107177503Y-87574737D01*
X107279827Y-87421598D01*
X107350309Y-87251438D01*
X107386241Y-87070798D01*
X107386241Y-86886620D01*
X107350309Y-86705980D01*
X107279827Y-86535820D01*
X107177503Y-86382681D01*
X107047269Y-86252447D01*
X106894130Y-86150123D01*
X106723970Y-86079641D01*
X106543330Y-86043709D01*
X106359152Y-86043709D01*
X106178512Y-86079641D01*
X106008352Y-86150123D01*
X105855213Y-86252447D01*
X105724979Y-86382681D01*
X105622655Y-86535820D01*
X105552173Y-86705980D01*
X105516241Y-86886620D01*
X104294791Y-86886620D01*
X104237005Y-86696128D01*
X104108398Y-86455521D01*
X103935322Y-86244628D01*
X103724429Y-86071552D01*
X103483822Y-85942945D01*
X103222748Y-85863749D01*
X103019278Y-85843709D01*
X101083204Y-85843709D01*
X100879734Y-85863749D01*
X100618660Y-85942945D01*
X100378053Y-86071552D01*
X100167160Y-86244628D01*
X99994084Y-86455521D01*
X99865477Y-86696128D01*
X99786281Y-86957202D01*
X99759540Y-87228709D01*
X98042942Y-87228709D01*
X98016201Y-86957202D01*
X97937005Y-86696128D01*
X97808398Y-86455521D01*
X97635322Y-86244628D01*
X97424429Y-86071552D01*
X97183822Y-85942945D01*
X96922748Y-85863749D01*
X96719278Y-85843709D01*
X95383204Y-85843709D01*
X95179734Y-85863749D01*
X94918660Y-85942945D01*
X94678053Y-86071552D01*
X94467160Y-86244628D01*
X94294084Y-86455521D01*
X94165477Y-86696128D01*
X94086281Y-86957202D01*
X94059540Y-87228709D01*
X91886241Y-87228709D01*
X91886241Y-85213709D01*
X199816242Y-85213709D01*
X199816242Y-95664063D01*
M02*
