G04 #@! TF.GenerationSoftware,KiCad,Pcbnew,5.1.4+dfsg1-1~bpo10+1*
G04 #@! TF.CreationDate,2020-02-14T17:19:22+01:00*
G04 #@! TF.ProjectId,arty-a7-expansion,61727479-2d61-4372-9d65-7870616e7369,rev?*
G04 #@! TF.SameCoordinates,Original*
G04 #@! TF.FileFunction,Legend,Top*
G04 #@! TF.FilePolarity,Positive*
%FSLAX46Y46*%
G04 Gerber Fmt 4.6, Leading zero omitted, Abs format (unit mm)*
G04 Created by KiCad (PCBNEW 5.1.4+dfsg1-1~bpo10+1) date 2020-02-14 17:19:22*
%MOMM*%
%LPD*%
G04 APERTURE LIST*
%ADD10C,0.250000*%
%ADD11C,0.400000*%
%ADD12C,0.150000*%
%ADD13C,0.120000*%
%ADD14C,0.100000*%
%ADD15C,0.200000*%
G04 APERTURE END LIST*
D10*
X186714098Y-115201089D02*
X186714098Y-115915375D01*
X186666479Y-116058232D01*
X186571241Y-116153470D01*
X186428383Y-116201089D01*
X186333145Y-116201089D01*
X187190288Y-116201089D02*
X187190288Y-115201089D01*
X187428383Y-115201089D01*
X187571241Y-115248709D01*
X187666479Y-115343947D01*
X187714098Y-115439185D01*
X187761717Y-115629661D01*
X187761717Y-115772518D01*
X187714098Y-115962994D01*
X187666479Y-116058232D01*
X187571241Y-116153470D01*
X187428383Y-116201089D01*
X187190288Y-116201089D01*
X163754098Y-115311089D02*
X163754098Y-116025375D01*
X163706479Y-116168232D01*
X163611241Y-116263470D01*
X163468383Y-116311089D01*
X163373145Y-116311089D01*
X164801717Y-116215851D02*
X164754098Y-116263470D01*
X164611241Y-116311089D01*
X164516002Y-116311089D01*
X164373145Y-116263470D01*
X164277907Y-116168232D01*
X164230288Y-116072994D01*
X164182669Y-115882518D01*
X164182669Y-115739661D01*
X164230288Y-115549185D01*
X164277907Y-115453947D01*
X164373145Y-115358709D01*
X164516002Y-115311089D01*
X164611241Y-115311089D01*
X164754098Y-115358709D01*
X164801717Y-115406328D01*
X140684098Y-115311089D02*
X140684098Y-116025375D01*
X140636479Y-116168232D01*
X140541241Y-116263470D01*
X140398383Y-116311089D01*
X140303145Y-116311089D01*
X141493621Y-115787280D02*
X141636479Y-115834899D01*
X141684098Y-115882518D01*
X141731717Y-115977756D01*
X141731717Y-116120613D01*
X141684098Y-116215851D01*
X141636479Y-116263470D01*
X141541241Y-116311089D01*
X141160288Y-116311089D01*
X141160288Y-115311089D01*
X141493621Y-115311089D01*
X141588860Y-115358709D01*
X141636479Y-115406328D01*
X141684098Y-115501566D01*
X141684098Y-115596804D01*
X141636479Y-115692042D01*
X141588860Y-115739661D01*
X141493621Y-115787280D01*
X141160288Y-115787280D01*
D11*
X114563741Y-121308709D02*
G75*
G03X114563741Y-121308709I-100000J0D01*
G01*
D12*
X118963741Y-121608709D02*
X115163741Y-121608709D01*
X118963741Y-118508709D02*
X118963741Y-121608709D01*
X115163741Y-118508709D02*
X118963741Y-118508709D01*
X115163741Y-121608709D02*
X115163741Y-118508709D01*
X114391241Y-108918709D02*
X114391241Y-109318709D01*
X114791241Y-108918709D02*
X114391241Y-108918709D01*
X119691241Y-108918709D02*
X119691241Y-109318709D01*
X119291241Y-108918709D02*
X119691241Y-108918709D01*
X114391241Y-114218709D02*
X114391241Y-113818709D01*
X114791241Y-114218709D02*
X114391241Y-114218709D01*
X119691241Y-113568709D02*
X120091241Y-113568709D01*
X119691241Y-114218709D02*
X119691241Y-113568709D01*
X119041241Y-114218709D02*
X119691241Y-114218709D01*
D13*
X136913241Y-107148709D02*
X136913241Y-108648709D01*
X133693241Y-105648709D02*
X133693241Y-108648709D01*
X124926241Y-108643709D02*
X124326241Y-108643709D01*
X124926241Y-108043709D02*
X124326241Y-108043709D01*
X126628241Y-106319209D02*
X126028241Y-106319209D01*
X126628241Y-105719209D02*
X126028241Y-105719209D01*
X125911241Y-103280209D02*
X126511241Y-103280209D01*
X125911241Y-103880209D02*
X126511241Y-103880209D01*
X194624575Y-115582012D02*
X194624575Y-116182012D01*
X194024575Y-115582012D02*
X194024575Y-116182012D01*
X173961031Y-111778709D02*
X173961031Y-112378709D01*
X173361031Y-111778709D02*
X173361031Y-112378709D01*
X176497769Y-111778709D02*
X176497769Y-112378709D01*
X175897769Y-111778709D02*
X175897769Y-112378709D01*
X181571241Y-111778709D02*
X181571241Y-112378709D01*
X180971241Y-111778709D02*
X180971241Y-112378709D01*
X179034505Y-111778709D02*
X179034505Y-112378709D01*
X178434505Y-111778709D02*
X178434505Y-112378709D01*
X196871241Y-115582012D02*
X196871241Y-116182012D01*
X196271241Y-115582012D02*
X196271241Y-116182012D01*
X192377909Y-115582012D02*
X192377909Y-116182012D01*
X191777909Y-115582012D02*
X191777909Y-116182012D01*
D14*
X104236241Y-121153709D02*
X103511241Y-121153709D01*
X104236241Y-120203709D02*
X104236241Y-121153709D01*
X104236241Y-107803709D02*
X103436241Y-107803709D01*
X104236241Y-108828709D02*
X104236241Y-107803709D01*
X91756241Y-121153709D02*
X91756241Y-120453709D01*
X92406241Y-121153709D02*
X91756241Y-121153709D01*
X91756241Y-107803709D02*
X92431241Y-107803709D01*
X91756241Y-108778709D02*
X91756241Y-107803709D01*
X92651241Y-101678709D02*
X91801241Y-101678709D01*
X91801241Y-101678709D02*
X91801241Y-100978709D01*
X91801241Y-87978709D02*
X91801241Y-87278709D01*
X91801241Y-87278709D02*
X92651241Y-87278709D01*
X104401241Y-98728709D02*
X104401241Y-100628709D01*
X104401241Y-100628709D02*
X103451241Y-101578709D01*
X103651241Y-87278709D02*
X104401241Y-87278709D01*
X104401241Y-87278709D02*
X104401241Y-87978709D01*
D12*
X187371241Y-111403709D02*
X200731241Y-111403709D01*
X187371241Y-97663709D02*
X187371241Y-111403709D01*
X200731241Y-97663709D02*
X187371241Y-97663709D01*
X200731241Y-111403709D02*
X200731241Y-97663709D01*
D15*
X116951241Y-100328709D02*
G75*
G03X116951241Y-100328709I-100000J0D01*
G01*
D12*
X115451241Y-94028709D02*
X115451241Y-99978709D01*
D13*
X108038241Y-111281209D02*
X108038241Y-111881209D01*
X107438241Y-111281209D02*
X107438241Y-111881209D01*
X107428000Y-114461500D02*
X107428000Y-113861500D01*
X108028000Y-114461500D02*
X108028000Y-113861500D01*
X133171241Y-103168709D02*
X133171241Y-102568709D01*
X133771241Y-103168709D02*
X133771241Y-102568709D01*
X129598241Y-103168709D02*
X129598241Y-102568709D01*
X130198241Y-103168709D02*
X130198241Y-102568709D01*
X131384741Y-103168709D02*
X131384741Y-102568709D01*
X131984741Y-103168709D02*
X131984741Y-102568709D01*
X143366241Y-108978709D02*
X143366241Y-109578709D01*
X142766241Y-108978709D02*
X142766241Y-109578709D01*
D14*
X149251241Y-122078709D02*
X149251241Y-121678709D01*
X149251241Y-122078709D02*
X149651241Y-122078709D01*
X149241241Y-117138709D02*
X149241241Y-117568709D01*
X149601241Y-116778709D02*
X150051241Y-116778709D01*
X164751241Y-116778709D02*
X164351241Y-116778709D01*
X164751241Y-116778709D02*
X164751241Y-117178709D01*
X164751241Y-122078709D02*
X164751241Y-121678709D01*
X164751241Y-122078709D02*
X164351241Y-122078709D01*
X149601241Y-116778709D02*
X149241241Y-117138709D01*
X172251241Y-122078709D02*
X172251241Y-121678709D01*
X172251241Y-122078709D02*
X172651241Y-122078709D01*
X172241241Y-117138709D02*
X172241241Y-117568709D01*
X172601241Y-116778709D02*
X173051241Y-116778709D01*
X187751241Y-116778709D02*
X187351241Y-116778709D01*
X187751241Y-116778709D02*
X187751241Y-117178709D01*
X187751241Y-122078709D02*
X187751241Y-121678709D01*
X187751241Y-122078709D02*
X187351241Y-122078709D01*
X172601241Y-116778709D02*
X172241241Y-117138709D01*
X126251241Y-122078709D02*
X126251241Y-121678709D01*
X126251241Y-122078709D02*
X126651241Y-122078709D01*
X126241241Y-117138709D02*
X126241241Y-117568709D01*
X126601241Y-116778709D02*
X127051241Y-116778709D01*
X141751241Y-116778709D02*
X141351241Y-116778709D01*
X141751241Y-116778709D02*
X141751241Y-117178709D01*
X141751241Y-122078709D02*
X141751241Y-121678709D01*
X141751241Y-122078709D02*
X141351241Y-122078709D01*
X126601241Y-116778709D02*
X126241241Y-117138709D01*
D12*
X116697350Y-122643799D02*
X116697350Y-123119989D01*
X116364017Y-122119989D02*
X116697350Y-122643799D01*
X117030683Y-122119989D01*
X117887826Y-123119989D02*
X117316398Y-123119989D01*
X117602112Y-123119989D02*
X117602112Y-122119989D01*
X117506874Y-122262847D01*
X117411636Y-122358085D01*
X117316398Y-122405704D01*
X118779336Y-116021089D02*
X118779336Y-116830613D01*
X118826955Y-116925851D01*
X118874574Y-116973470D01*
X118969812Y-117021089D01*
X119160288Y-117021089D01*
X119255526Y-116973470D01*
X119303145Y-116925851D01*
X119350764Y-116830613D01*
X119350764Y-116021089D01*
X119779336Y-116116328D02*
X119826955Y-116068709D01*
X119922193Y-116021089D01*
X120160288Y-116021089D01*
X120255526Y-116068709D01*
X120303145Y-116116328D01*
X120350764Y-116211566D01*
X120350764Y-116306804D01*
X120303145Y-116449661D01*
X119731717Y-117021089D01*
X120350764Y-117021089D01*
X135512436Y-103565289D02*
X135512436Y-104374813D01*
X135560055Y-104470051D01*
X135607674Y-104517670D01*
X135702912Y-104565289D01*
X135893388Y-104565289D01*
X135988626Y-104517670D01*
X136036245Y-104470051D01*
X136083864Y-104374813D01*
X136083864Y-103565289D01*
X137083864Y-104565289D02*
X136512436Y-104565289D01*
X136798150Y-104565289D02*
X136798150Y-103565289D01*
X136702912Y-103708147D01*
X136607674Y-103803385D01*
X136512436Y-103851004D01*
X108476574Y-88108575D02*
X108876574Y-88108575D01*
X108676574Y-88808575D02*
X108676574Y-88108575D01*
X109109907Y-88808575D02*
X109109907Y-88108575D01*
X109376574Y-88108575D01*
X109443241Y-88141909D01*
X109476574Y-88175242D01*
X109509907Y-88241909D01*
X109509907Y-88341909D01*
X109476574Y-88408575D01*
X109443241Y-88441909D01*
X109376574Y-88475242D01*
X109109907Y-88475242D01*
X110176574Y-88808575D02*
X109776574Y-88808575D01*
X109976574Y-88808575D02*
X109976574Y-88108575D01*
X109909907Y-88208575D01*
X109843241Y-88275242D01*
X109776574Y-88308575D01*
X110809907Y-88108575D02*
X110476574Y-88108575D01*
X110443241Y-88441909D01*
X110476574Y-88408575D01*
X110543241Y-88375242D01*
X110709907Y-88375242D01*
X110776574Y-88408575D01*
X110809907Y-88441909D01*
X110843241Y-88508575D01*
X110843241Y-88675242D01*
X110809907Y-88741909D01*
X110776574Y-88775242D01*
X110709907Y-88808575D01*
X110543241Y-88808575D01*
X110476574Y-88775242D01*
X110443241Y-88741909D01*
X108463874Y-89543675D02*
X108863874Y-89543675D01*
X108663874Y-90243675D02*
X108663874Y-89543675D01*
X109097207Y-90243675D02*
X109097207Y-89543675D01*
X109363874Y-89543675D01*
X109430541Y-89577009D01*
X109463874Y-89610342D01*
X109497207Y-89677009D01*
X109497207Y-89777009D01*
X109463874Y-89843675D01*
X109430541Y-89877009D01*
X109363874Y-89910342D01*
X109097207Y-89910342D01*
X110163874Y-90243675D02*
X109763874Y-90243675D01*
X109963874Y-90243675D02*
X109963874Y-89543675D01*
X109897207Y-89643675D01*
X109830541Y-89710342D01*
X109763874Y-89743675D01*
X110763874Y-89777009D02*
X110763874Y-90243675D01*
X110597207Y-89510342D02*
X110430541Y-90010342D01*
X110863874Y-90010342D01*
X108438474Y-86609975D02*
X108838474Y-86609975D01*
X108638474Y-87309975D02*
X108638474Y-86609975D01*
X109071807Y-87309975D02*
X109071807Y-86609975D01*
X109338474Y-86609975D01*
X109405141Y-86643309D01*
X109438474Y-86676642D01*
X109471807Y-86743309D01*
X109471807Y-86843309D01*
X109438474Y-86909975D01*
X109405141Y-86943309D01*
X109338474Y-86976642D01*
X109071807Y-86976642D01*
X110138474Y-87309975D02*
X109738474Y-87309975D01*
X109938474Y-87309975D02*
X109938474Y-86609975D01*
X109871807Y-86709975D01*
X109805141Y-86776642D01*
X109738474Y-86809975D01*
X110371807Y-86609975D02*
X110805141Y-86609975D01*
X110571807Y-86876642D01*
X110671807Y-86876642D01*
X110738474Y-86909975D01*
X110771807Y-86943309D01*
X110805141Y-87009975D01*
X110805141Y-87176642D01*
X110771807Y-87243309D01*
X110738474Y-87276642D01*
X110671807Y-87309975D01*
X110471807Y-87309975D01*
X110405141Y-87276642D01*
X110371807Y-87243309D01*
X107727274Y-92540875D02*
X108127274Y-92540875D01*
X107927274Y-93240875D02*
X107927274Y-92540875D01*
X108360607Y-93240875D02*
X108360607Y-92540875D01*
X108627274Y-92540875D01*
X108693941Y-92574209D01*
X108727274Y-92607542D01*
X108760607Y-92674209D01*
X108760607Y-92774209D01*
X108727274Y-92840875D01*
X108693941Y-92874209D01*
X108627274Y-92907542D01*
X108360607Y-92907542D01*
X109427274Y-93240875D02*
X109027274Y-93240875D01*
X109227274Y-93240875D02*
X109227274Y-92540875D01*
X109160607Y-92640875D01*
X109093941Y-92707542D01*
X109027274Y-92740875D01*
X109693941Y-92607542D02*
X109727274Y-92574209D01*
X109793941Y-92540875D01*
X109960607Y-92540875D01*
X110027274Y-92574209D01*
X110060607Y-92607542D01*
X110093941Y-92674209D01*
X110093941Y-92740875D01*
X110060607Y-92840875D01*
X109660607Y-93240875D01*
X110093941Y-93240875D01*
X108133674Y-93937875D02*
X108533674Y-93937875D01*
X108333674Y-94637875D02*
X108333674Y-93937875D01*
X108767007Y-94637875D02*
X108767007Y-93937875D01*
X109033674Y-93937875D01*
X109100341Y-93971209D01*
X109133674Y-94004542D01*
X109167007Y-94071209D01*
X109167007Y-94171209D01*
X109133674Y-94237875D01*
X109100341Y-94271209D01*
X109033674Y-94304542D01*
X108767007Y-94304542D01*
X109833674Y-94637875D02*
X109433674Y-94637875D01*
X109633674Y-94637875D02*
X109633674Y-93937875D01*
X109567007Y-94037875D01*
X109500341Y-94104542D01*
X109433674Y-94137875D01*
X110500341Y-94637875D02*
X110100341Y-94637875D01*
X110300341Y-94637875D02*
X110300341Y-93937875D01*
X110233674Y-94037875D01*
X110167007Y-94104542D01*
X110100341Y-94137875D01*
X114527574Y-106578875D02*
X114927574Y-106578875D01*
X114727574Y-107278875D02*
X114727574Y-106578875D01*
X115160907Y-107278875D02*
X115160907Y-106578875D01*
X115427574Y-106578875D01*
X115494241Y-106612209D01*
X115527574Y-106645542D01*
X115560907Y-106712209D01*
X115560907Y-106812209D01*
X115527574Y-106878875D01*
X115494241Y-106912209D01*
X115427574Y-106945542D01*
X115160907Y-106945542D01*
X116227574Y-107278875D02*
X115827574Y-107278875D01*
X116027574Y-107278875D02*
X116027574Y-106578875D01*
X115960907Y-106678875D01*
X115894241Y-106745542D01*
X115827574Y-106778875D01*
X116660907Y-106578875D02*
X116727574Y-106578875D01*
X116794241Y-106612209D01*
X116827574Y-106645542D01*
X116860907Y-106712209D01*
X116894241Y-106845542D01*
X116894241Y-107012209D01*
X116860907Y-107145542D01*
X116827574Y-107212209D01*
X116794241Y-107245542D01*
X116727574Y-107278875D01*
X116660907Y-107278875D01*
X116594241Y-107245542D01*
X116560907Y-107212209D01*
X116527574Y-107145542D01*
X116494241Y-107012209D01*
X116494241Y-106845542D01*
X116527574Y-106712209D01*
X116560907Y-106645542D01*
X116594241Y-106612209D01*
X116660907Y-106578875D01*
X127306907Y-114452875D02*
X127706907Y-114452875D01*
X127506907Y-115152875D02*
X127506907Y-114452875D01*
X127940241Y-115152875D02*
X127940241Y-114452875D01*
X128206907Y-114452875D01*
X128273574Y-114486209D01*
X128306907Y-114519542D01*
X128340241Y-114586209D01*
X128340241Y-114686209D01*
X128306907Y-114752875D01*
X128273574Y-114786209D01*
X128206907Y-114819542D01*
X127940241Y-114819542D01*
X128673574Y-115152875D02*
X128806907Y-115152875D01*
X128873574Y-115119542D01*
X128906907Y-115086209D01*
X128973574Y-114986209D01*
X129006907Y-114852875D01*
X129006907Y-114586209D01*
X128973574Y-114519542D01*
X128940241Y-114486209D01*
X128873574Y-114452875D01*
X128740241Y-114452875D01*
X128673574Y-114486209D01*
X128640241Y-114519542D01*
X128606907Y-114586209D01*
X128606907Y-114752875D01*
X128640241Y-114819542D01*
X128673574Y-114852875D01*
X128740241Y-114886209D01*
X128873574Y-114886209D01*
X128940241Y-114852875D01*
X128973574Y-114819542D01*
X129006907Y-114752875D01*
X128830907Y-113576575D02*
X129230907Y-113576575D01*
X129030907Y-114276575D02*
X129030907Y-113576575D01*
X129464241Y-114276575D02*
X129464241Y-113576575D01*
X129730907Y-113576575D01*
X129797574Y-113609909D01*
X129830907Y-113643242D01*
X129864241Y-113709909D01*
X129864241Y-113809909D01*
X129830907Y-113876575D01*
X129797574Y-113909909D01*
X129730907Y-113943242D01*
X129464241Y-113943242D01*
X130264241Y-113876575D02*
X130197574Y-113843242D01*
X130164241Y-113809909D01*
X130130907Y-113743242D01*
X130130907Y-113709909D01*
X130164241Y-113643242D01*
X130197574Y-113609909D01*
X130264241Y-113576575D01*
X130397574Y-113576575D01*
X130464241Y-113609909D01*
X130497574Y-113643242D01*
X130530907Y-113709909D01*
X130530907Y-113743242D01*
X130497574Y-113809909D01*
X130464241Y-113843242D01*
X130397574Y-113876575D01*
X130264241Y-113876575D01*
X130197574Y-113909909D01*
X130164241Y-113943242D01*
X130130907Y-114009909D01*
X130130907Y-114143242D01*
X130164241Y-114209909D01*
X130197574Y-114243242D01*
X130264241Y-114276575D01*
X130397574Y-114276575D01*
X130464241Y-114243242D01*
X130497574Y-114209909D01*
X130530907Y-114143242D01*
X130530907Y-114009909D01*
X130497574Y-113943242D01*
X130464241Y-113909909D01*
X130397574Y-113876575D01*
X122678307Y-118017075D02*
X123078307Y-118017075D01*
X122878307Y-118717075D02*
X122878307Y-118017075D01*
X123311641Y-118717075D02*
X123311641Y-118017075D01*
X123578307Y-118017075D01*
X123644974Y-118050409D01*
X123678307Y-118083742D01*
X123711641Y-118150409D01*
X123711641Y-118250409D01*
X123678307Y-118317075D01*
X123644974Y-118350409D01*
X123578307Y-118383742D01*
X123311641Y-118383742D01*
X123944974Y-118017075D02*
X124411641Y-118017075D01*
X124111641Y-118717075D01*
X130799407Y-112674875D02*
X131199407Y-112674875D01*
X130999407Y-113374875D02*
X130999407Y-112674875D01*
X131432741Y-113374875D02*
X131432741Y-112674875D01*
X131699407Y-112674875D01*
X131766074Y-112708209D01*
X131799407Y-112741542D01*
X131832741Y-112808209D01*
X131832741Y-112908209D01*
X131799407Y-112974875D01*
X131766074Y-113008209D01*
X131699407Y-113041542D01*
X131432741Y-113041542D01*
X132432741Y-112674875D02*
X132299407Y-112674875D01*
X132232741Y-112708209D01*
X132199407Y-112741542D01*
X132132741Y-112841542D01*
X132099407Y-112974875D01*
X132099407Y-113241542D01*
X132132741Y-113308209D01*
X132166074Y-113341542D01*
X132232741Y-113374875D01*
X132366074Y-113374875D01*
X132432741Y-113341542D01*
X132466074Y-113308209D01*
X132499407Y-113241542D01*
X132499407Y-113074875D01*
X132466074Y-113008209D01*
X132432741Y-112974875D01*
X132366074Y-112941542D01*
X132232741Y-112941542D01*
X132166074Y-112974875D01*
X132132741Y-113008209D01*
X132099407Y-113074875D01*
X124481707Y-110689175D02*
X124881707Y-110689175D01*
X124681707Y-111389175D02*
X124681707Y-110689175D01*
X125115041Y-111389175D02*
X125115041Y-110689175D01*
X125381707Y-110689175D01*
X125448374Y-110722509D01*
X125481707Y-110755842D01*
X125515041Y-110822509D01*
X125515041Y-110922509D01*
X125481707Y-110989175D01*
X125448374Y-111022509D01*
X125381707Y-111055842D01*
X125115041Y-111055842D01*
X126148374Y-110689175D02*
X125815041Y-110689175D01*
X125781707Y-111022509D01*
X125815041Y-110989175D01*
X125881707Y-110955842D01*
X126048374Y-110955842D01*
X126115041Y-110989175D01*
X126148374Y-111022509D01*
X126181707Y-111089175D01*
X126181707Y-111255842D01*
X126148374Y-111322509D01*
X126115041Y-111355842D01*
X126048374Y-111389175D01*
X125881707Y-111389175D01*
X125815041Y-111355842D01*
X125781707Y-111322509D01*
X121509907Y-106650575D02*
X121909907Y-106650575D01*
X121709907Y-107350575D02*
X121709907Y-106650575D01*
X122143241Y-107350575D02*
X122143241Y-106650575D01*
X122409907Y-106650575D01*
X122476574Y-106683909D01*
X122509907Y-106717242D01*
X122543241Y-106783909D01*
X122543241Y-106883909D01*
X122509907Y-106950575D01*
X122476574Y-106983909D01*
X122409907Y-107017242D01*
X122143241Y-107017242D01*
X123143241Y-106883909D02*
X123143241Y-107350575D01*
X122976574Y-106617242D02*
X122809907Y-107117242D01*
X123243241Y-107117242D01*
X128029707Y-102862642D02*
X128029707Y-102462642D01*
X128729707Y-102662642D02*
X128029707Y-102662642D01*
X128729707Y-102229309D02*
X128029707Y-102229309D01*
X128029707Y-101962642D01*
X128063041Y-101895975D01*
X128096374Y-101862642D01*
X128163041Y-101829309D01*
X128263041Y-101829309D01*
X128329707Y-101862642D01*
X128363041Y-101895975D01*
X128396374Y-101962642D01*
X128396374Y-102229309D01*
X128029707Y-101595975D02*
X128029707Y-101162642D01*
X128296374Y-101395975D01*
X128296374Y-101295975D01*
X128329707Y-101229309D01*
X128363041Y-101195975D01*
X128429707Y-101162642D01*
X128596374Y-101162642D01*
X128663041Y-101195975D01*
X128696374Y-101229309D01*
X128729707Y-101295975D01*
X128729707Y-101495975D01*
X128696374Y-101562642D01*
X128663041Y-101595975D01*
X130989907Y-105321575D02*
X131389907Y-105321575D01*
X131189907Y-106021575D02*
X131189907Y-105321575D01*
X131623241Y-106021575D02*
X131623241Y-105321575D01*
X131889907Y-105321575D01*
X131956574Y-105354909D01*
X131989907Y-105388242D01*
X132023241Y-105454909D01*
X132023241Y-105554909D01*
X131989907Y-105621575D01*
X131956574Y-105654909D01*
X131889907Y-105688242D01*
X131623241Y-105688242D01*
X132289907Y-105388242D02*
X132323241Y-105354909D01*
X132389907Y-105321575D01*
X132556574Y-105321575D01*
X132623241Y-105354909D01*
X132656574Y-105388242D01*
X132689907Y-105454909D01*
X132689907Y-105521575D01*
X132656574Y-105621575D01*
X132256574Y-106021575D01*
X132689907Y-106021575D01*
X130989907Y-107226575D02*
X131389907Y-107226575D01*
X131189907Y-107926575D02*
X131189907Y-107226575D01*
X131623241Y-107926575D02*
X131623241Y-107226575D01*
X131889907Y-107226575D01*
X131956574Y-107259909D01*
X131989907Y-107293242D01*
X132023241Y-107359909D01*
X132023241Y-107459909D01*
X131989907Y-107526575D01*
X131956574Y-107559909D01*
X131889907Y-107593242D01*
X131623241Y-107593242D01*
X132689907Y-107926575D02*
X132289907Y-107926575D01*
X132489907Y-107926575D02*
X132489907Y-107226575D01*
X132423241Y-107326575D01*
X132356574Y-107393242D01*
X132289907Y-107426575D01*
X126716083Y-108807089D02*
X126382750Y-108330899D01*
X126144655Y-108807089D02*
X126144655Y-107807089D01*
X126525607Y-107807089D01*
X126620845Y-107854709D01*
X126668464Y-107902328D01*
X126716083Y-107997566D01*
X126716083Y-108140423D01*
X126668464Y-108235661D01*
X126620845Y-108283280D01*
X126525607Y-108330899D01*
X126144655Y-108330899D01*
X127097036Y-107902328D02*
X127144655Y-107854709D01*
X127239893Y-107807089D01*
X127477988Y-107807089D01*
X127573226Y-107854709D01*
X127620845Y-107902328D01*
X127668464Y-107997566D01*
X127668464Y-108092804D01*
X127620845Y-108235661D01*
X127049417Y-108807089D01*
X127668464Y-108807089D01*
X128001798Y-107807089D02*
X128620845Y-107807089D01*
X128287512Y-108188042D01*
X128430369Y-108188042D01*
X128525607Y-108235661D01*
X128573226Y-108283280D01*
X128620845Y-108378518D01*
X128620845Y-108616613D01*
X128573226Y-108711851D01*
X128525607Y-108759470D01*
X128430369Y-108807089D01*
X128144655Y-108807089D01*
X128049417Y-108759470D01*
X128001798Y-108711851D01*
X119985083Y-95700689D02*
X119651750Y-95224499D01*
X119413655Y-95700689D02*
X119413655Y-94700689D01*
X119794607Y-94700689D01*
X119889845Y-94748309D01*
X119937464Y-94795928D01*
X119985083Y-94891166D01*
X119985083Y-95034023D01*
X119937464Y-95129261D01*
X119889845Y-95176880D01*
X119794607Y-95224499D01*
X119413655Y-95224499D01*
X120366036Y-94795928D02*
X120413655Y-94748309D01*
X120508893Y-94700689D01*
X120746988Y-94700689D01*
X120842226Y-94748309D01*
X120889845Y-94795928D01*
X120937464Y-94891166D01*
X120937464Y-94986404D01*
X120889845Y-95129261D01*
X120318417Y-95700689D01*
X120937464Y-95700689D01*
X121556512Y-94700689D02*
X121651750Y-94700689D01*
X121746988Y-94748309D01*
X121794607Y-94795928D01*
X121842226Y-94891166D01*
X121889845Y-95081642D01*
X121889845Y-95319737D01*
X121842226Y-95510213D01*
X121794607Y-95605451D01*
X121746988Y-95653070D01*
X121651750Y-95700689D01*
X121556512Y-95700689D01*
X121461274Y-95653070D01*
X121413655Y-95605451D01*
X121366036Y-95510213D01*
X121318417Y-95319737D01*
X121318417Y-95081642D01*
X121366036Y-94891166D01*
X121413655Y-94795928D01*
X121461274Y-94748309D01*
X121556512Y-94700689D01*
X119985083Y-97046889D02*
X119651750Y-96570699D01*
X119413655Y-97046889D02*
X119413655Y-96046889D01*
X119794607Y-96046889D01*
X119889845Y-96094509D01*
X119937464Y-96142128D01*
X119985083Y-96237366D01*
X119985083Y-96380223D01*
X119937464Y-96475461D01*
X119889845Y-96523080D01*
X119794607Y-96570699D01*
X119413655Y-96570699D01*
X120937464Y-97046889D02*
X120366036Y-97046889D01*
X120651750Y-97046889D02*
X120651750Y-96046889D01*
X120556512Y-96189747D01*
X120461274Y-96284985D01*
X120366036Y-96332604D01*
X121413655Y-97046889D02*
X121604131Y-97046889D01*
X121699369Y-96999270D01*
X121746988Y-96951651D01*
X121842226Y-96808794D01*
X121889845Y-96618318D01*
X121889845Y-96237366D01*
X121842226Y-96142128D01*
X121794607Y-96094509D01*
X121699369Y-96046889D01*
X121508893Y-96046889D01*
X121413655Y-96094509D01*
X121366036Y-96142128D01*
X121318417Y-96237366D01*
X121318417Y-96475461D01*
X121366036Y-96570699D01*
X121413655Y-96618318D01*
X121508893Y-96665937D01*
X121699369Y-96665937D01*
X121794607Y-96618318D01*
X121842226Y-96570699D01*
X121889845Y-96475461D01*
X119985083Y-98354989D02*
X119651750Y-97878799D01*
X119413655Y-98354989D02*
X119413655Y-97354989D01*
X119794607Y-97354989D01*
X119889845Y-97402609D01*
X119937464Y-97450228D01*
X119985083Y-97545466D01*
X119985083Y-97688323D01*
X119937464Y-97783561D01*
X119889845Y-97831180D01*
X119794607Y-97878799D01*
X119413655Y-97878799D01*
X120937464Y-98354989D02*
X120366036Y-98354989D01*
X120651750Y-98354989D02*
X120651750Y-97354989D01*
X120556512Y-97497847D01*
X120461274Y-97593085D01*
X120366036Y-97640704D01*
X121508893Y-97783561D02*
X121413655Y-97735942D01*
X121366036Y-97688323D01*
X121318417Y-97593085D01*
X121318417Y-97545466D01*
X121366036Y-97450228D01*
X121413655Y-97402609D01*
X121508893Y-97354989D01*
X121699369Y-97354989D01*
X121794607Y-97402609D01*
X121842226Y-97450228D01*
X121889845Y-97545466D01*
X121889845Y-97593085D01*
X121842226Y-97688323D01*
X121794607Y-97735942D01*
X121699369Y-97783561D01*
X121508893Y-97783561D01*
X121413655Y-97831180D01*
X121366036Y-97878799D01*
X121318417Y-97974037D01*
X121318417Y-98164513D01*
X121366036Y-98259751D01*
X121413655Y-98307370D01*
X121508893Y-98354989D01*
X121699369Y-98354989D01*
X121794607Y-98307370D01*
X121842226Y-98259751D01*
X121889845Y-98164513D01*
X121889845Y-97974037D01*
X121842226Y-97878799D01*
X121794607Y-97831180D01*
X121699369Y-97783561D01*
X119985083Y-99726589D02*
X119651750Y-99250399D01*
X119413655Y-99726589D02*
X119413655Y-98726589D01*
X119794607Y-98726589D01*
X119889845Y-98774209D01*
X119937464Y-98821828D01*
X119985083Y-98917066D01*
X119985083Y-99059923D01*
X119937464Y-99155161D01*
X119889845Y-99202780D01*
X119794607Y-99250399D01*
X119413655Y-99250399D01*
X120937464Y-99726589D02*
X120366036Y-99726589D01*
X120651750Y-99726589D02*
X120651750Y-98726589D01*
X120556512Y-98869447D01*
X120461274Y-98964685D01*
X120366036Y-99012304D01*
X121270798Y-98726589D02*
X121937464Y-98726589D01*
X121508893Y-99726589D01*
X119985083Y-102444389D02*
X119651750Y-101968199D01*
X119413655Y-102444389D02*
X119413655Y-101444389D01*
X119794607Y-101444389D01*
X119889845Y-101492009D01*
X119937464Y-101539628D01*
X119985083Y-101634866D01*
X119985083Y-101777723D01*
X119937464Y-101872961D01*
X119889845Y-101920580D01*
X119794607Y-101968199D01*
X119413655Y-101968199D01*
X120937464Y-102444389D02*
X120366036Y-102444389D01*
X120651750Y-102444389D02*
X120651750Y-101444389D01*
X120556512Y-101587247D01*
X120461274Y-101682485D01*
X120366036Y-101730104D01*
X121794607Y-101444389D02*
X121604131Y-101444389D01*
X121508893Y-101492009D01*
X121461274Y-101539628D01*
X121366036Y-101682485D01*
X121318417Y-101872961D01*
X121318417Y-102253913D01*
X121366036Y-102349151D01*
X121413655Y-102396770D01*
X121508893Y-102444389D01*
X121699369Y-102444389D01*
X121794607Y-102396770D01*
X121842226Y-102349151D01*
X121889845Y-102253913D01*
X121889845Y-102015818D01*
X121842226Y-101920580D01*
X121794607Y-101872961D01*
X121699369Y-101825342D01*
X121508893Y-101825342D01*
X121413655Y-101872961D01*
X121366036Y-101920580D01*
X121318417Y-102015818D01*
X119985083Y-101085489D02*
X119651750Y-100609299D01*
X119413655Y-101085489D02*
X119413655Y-100085489D01*
X119794607Y-100085489D01*
X119889845Y-100133109D01*
X119937464Y-100180728D01*
X119985083Y-100275966D01*
X119985083Y-100418823D01*
X119937464Y-100514061D01*
X119889845Y-100561680D01*
X119794607Y-100609299D01*
X119413655Y-100609299D01*
X120937464Y-101085489D02*
X120366036Y-101085489D01*
X120651750Y-101085489D02*
X120651750Y-100085489D01*
X120556512Y-100228347D01*
X120461274Y-100323585D01*
X120366036Y-100371204D01*
X121842226Y-100085489D02*
X121366036Y-100085489D01*
X121318417Y-100561680D01*
X121366036Y-100514061D01*
X121461274Y-100466442D01*
X121699369Y-100466442D01*
X121794607Y-100514061D01*
X121842226Y-100561680D01*
X121889845Y-100656918D01*
X121889845Y-100895013D01*
X121842226Y-100990251D01*
X121794607Y-101037870D01*
X121699369Y-101085489D01*
X121461274Y-101085489D01*
X121366036Y-101037870D01*
X121318417Y-100990251D01*
X119985083Y-94316389D02*
X119651750Y-93840199D01*
X119413655Y-94316389D02*
X119413655Y-93316389D01*
X119794607Y-93316389D01*
X119889845Y-93364009D01*
X119937464Y-93411628D01*
X119985083Y-93506866D01*
X119985083Y-93649723D01*
X119937464Y-93744961D01*
X119889845Y-93792580D01*
X119794607Y-93840199D01*
X119413655Y-93840199D01*
X120937464Y-94316389D02*
X120366036Y-94316389D01*
X120651750Y-94316389D02*
X120651750Y-93316389D01*
X120556512Y-93459247D01*
X120461274Y-93554485D01*
X120366036Y-93602104D01*
X121794607Y-93649723D02*
X121794607Y-94316389D01*
X121556512Y-93268770D02*
X121318417Y-93983056D01*
X121937464Y-93983056D01*
X119985083Y-92970189D02*
X119651750Y-92493999D01*
X119413655Y-92970189D02*
X119413655Y-91970189D01*
X119794607Y-91970189D01*
X119889845Y-92017809D01*
X119937464Y-92065428D01*
X119985083Y-92160666D01*
X119985083Y-92303523D01*
X119937464Y-92398761D01*
X119889845Y-92446380D01*
X119794607Y-92493999D01*
X119413655Y-92493999D01*
X120937464Y-92970189D02*
X120366036Y-92970189D01*
X120651750Y-92970189D02*
X120651750Y-91970189D01*
X120556512Y-92113047D01*
X120461274Y-92208285D01*
X120366036Y-92255904D01*
X121270798Y-91970189D02*
X121889845Y-91970189D01*
X121556512Y-92351142D01*
X121699369Y-92351142D01*
X121794607Y-92398761D01*
X121842226Y-92446380D01*
X121889845Y-92541618D01*
X121889845Y-92779713D01*
X121842226Y-92874951D01*
X121794607Y-92922570D01*
X121699369Y-92970189D01*
X121413655Y-92970189D01*
X121318417Y-92922570D01*
X121270798Y-92874951D01*
X190498521Y-119208366D02*
X190022331Y-119541699D01*
X190498521Y-119779794D02*
X189498521Y-119779794D01*
X189498521Y-119398842D01*
X189546141Y-119303604D01*
X189593760Y-119255985D01*
X189688998Y-119208366D01*
X189831855Y-119208366D01*
X189927093Y-119255985D01*
X189974712Y-119303604D01*
X190022331Y-119398842D01*
X190022331Y-119779794D01*
X190498521Y-118255985D02*
X190498521Y-118827413D01*
X190498521Y-118541699D02*
X189498521Y-118541699D01*
X189641379Y-118636937D01*
X189736617Y-118732175D01*
X189784236Y-118827413D01*
X189593760Y-117875032D02*
X189546141Y-117827413D01*
X189498521Y-117732175D01*
X189498521Y-117494080D01*
X189546141Y-117398842D01*
X189593760Y-117351223D01*
X189688998Y-117303604D01*
X189784236Y-117303604D01*
X189927093Y-117351223D01*
X190498521Y-117922651D01*
X190498521Y-117303604D01*
X122918783Y-105212989D02*
X122585450Y-104736799D01*
X122347355Y-105212989D02*
X122347355Y-104212989D01*
X122728307Y-104212989D01*
X122823545Y-104260609D01*
X122871164Y-104308228D01*
X122918783Y-104403466D01*
X122918783Y-104546323D01*
X122871164Y-104641561D01*
X122823545Y-104689180D01*
X122728307Y-104736799D01*
X122347355Y-104736799D01*
X123871164Y-105212989D02*
X123299736Y-105212989D01*
X123585450Y-105212989D02*
X123585450Y-104212989D01*
X123490212Y-104355847D01*
X123394974Y-104451085D01*
X123299736Y-104498704D01*
X124823545Y-105212989D02*
X124252117Y-105212989D01*
X124537831Y-105212989D02*
X124537831Y-104212989D01*
X124442593Y-104355847D01*
X124347355Y-104451085D01*
X124252117Y-104498704D01*
X109710783Y-113874389D02*
X109377450Y-113398199D01*
X109139355Y-113874389D02*
X109139355Y-112874389D01*
X109520307Y-112874389D01*
X109615545Y-112922009D01*
X109663164Y-112969628D01*
X109710783Y-113064866D01*
X109710783Y-113207723D01*
X109663164Y-113302961D01*
X109615545Y-113350580D01*
X109520307Y-113398199D01*
X109139355Y-113398199D01*
X110663164Y-113874389D02*
X110091736Y-113874389D01*
X110377450Y-113874389D02*
X110377450Y-112874389D01*
X110282212Y-113017247D01*
X110186974Y-113112485D01*
X110091736Y-113160104D01*
X111282212Y-112874389D02*
X111377450Y-112874389D01*
X111472688Y-112922009D01*
X111520307Y-112969628D01*
X111567926Y-113064866D01*
X111615545Y-113255342D01*
X111615545Y-113493437D01*
X111567926Y-113683913D01*
X111520307Y-113779151D01*
X111472688Y-113826770D01*
X111377450Y-113874389D01*
X111282212Y-113874389D01*
X111186974Y-113826770D01*
X111139355Y-113779151D01*
X111091736Y-113683913D01*
X111044117Y-113493437D01*
X111044117Y-113255342D01*
X111091736Y-113064866D01*
X111139355Y-112969628D01*
X111186974Y-112922009D01*
X111282212Y-112874389D01*
X109615474Y-110356489D02*
X109282141Y-109880299D01*
X109044045Y-110356489D02*
X109044045Y-109356489D01*
X109424998Y-109356489D01*
X109520236Y-109404109D01*
X109567855Y-109451728D01*
X109615474Y-109546966D01*
X109615474Y-109689823D01*
X109567855Y-109785061D01*
X109520236Y-109832680D01*
X109424998Y-109880299D01*
X109044045Y-109880299D01*
X110091664Y-110356489D02*
X110282141Y-110356489D01*
X110377379Y-110308870D01*
X110424998Y-110261251D01*
X110520236Y-110118394D01*
X110567855Y-109927918D01*
X110567855Y-109546966D01*
X110520236Y-109451728D01*
X110472617Y-109404109D01*
X110377379Y-109356489D01*
X110186902Y-109356489D01*
X110091664Y-109404109D01*
X110044045Y-109451728D01*
X109996426Y-109546966D01*
X109996426Y-109785061D01*
X110044045Y-109880299D01*
X110091664Y-109927918D01*
X110186902Y-109975537D01*
X110377379Y-109975537D01*
X110472617Y-109927918D01*
X110520236Y-109880299D01*
X110567855Y-109785061D01*
X126061974Y-102622189D02*
X125728641Y-102145999D01*
X125490545Y-102622189D02*
X125490545Y-101622189D01*
X125871498Y-101622189D01*
X125966736Y-101669809D01*
X126014355Y-101717428D01*
X126061974Y-101812666D01*
X126061974Y-101955523D01*
X126014355Y-102050761D01*
X125966736Y-102098380D01*
X125871498Y-102145999D01*
X125490545Y-102145999D01*
X126633402Y-102050761D02*
X126538164Y-102003142D01*
X126490545Y-101955523D01*
X126442926Y-101860285D01*
X126442926Y-101812666D01*
X126490545Y-101717428D01*
X126538164Y-101669809D01*
X126633402Y-101622189D01*
X126823879Y-101622189D01*
X126919117Y-101669809D01*
X126966736Y-101717428D01*
X127014355Y-101812666D01*
X127014355Y-101860285D01*
X126966736Y-101955523D01*
X126919117Y-102003142D01*
X126823879Y-102050761D01*
X126633402Y-102050761D01*
X126538164Y-102098380D01*
X126490545Y-102145999D01*
X126442926Y-102241237D01*
X126442926Y-102431713D01*
X126490545Y-102526951D01*
X126538164Y-102574570D01*
X126633402Y-102622189D01*
X126823879Y-102622189D01*
X126919117Y-102574570D01*
X126966736Y-102526951D01*
X127014355Y-102431713D01*
X127014355Y-102241237D01*
X126966736Y-102145999D01*
X126919117Y-102098380D01*
X126823879Y-102050761D01*
X194918121Y-118503575D02*
X194441931Y-118836909D01*
X194918121Y-119075004D02*
X193918121Y-119075004D01*
X193918121Y-118694051D01*
X193965741Y-118598813D01*
X194013360Y-118551194D01*
X194108598Y-118503575D01*
X194251455Y-118503575D01*
X194346693Y-118551194D01*
X194394312Y-118598813D01*
X194441931Y-118694051D01*
X194441931Y-119075004D01*
X193918121Y-118170242D02*
X193918121Y-117503575D01*
X194918121Y-117932147D01*
X174077421Y-114541175D02*
X173601231Y-114874509D01*
X174077421Y-115112604D02*
X173077421Y-115112604D01*
X173077421Y-114731651D01*
X173125041Y-114636413D01*
X173172660Y-114588794D01*
X173267898Y-114541175D01*
X173410755Y-114541175D01*
X173505993Y-114588794D01*
X173553612Y-114636413D01*
X173601231Y-114731651D01*
X173601231Y-115112604D01*
X173077421Y-113684032D02*
X173077421Y-113874509D01*
X173125041Y-113969747D01*
X173172660Y-114017366D01*
X173315517Y-114112604D01*
X173505993Y-114160223D01*
X173886945Y-114160223D01*
X173982183Y-114112604D01*
X174029802Y-114064985D01*
X174077421Y-113969747D01*
X174077421Y-113779270D01*
X174029802Y-113684032D01*
X173982183Y-113636413D01*
X173886945Y-113588794D01*
X173648850Y-113588794D01*
X173553612Y-113636413D01*
X173505993Y-113684032D01*
X173458374Y-113779270D01*
X173458374Y-113969747D01*
X173505993Y-114064985D01*
X173553612Y-114112604D01*
X173648850Y-114160223D01*
X176642821Y-114642775D02*
X176166631Y-114976109D01*
X176642821Y-115214204D02*
X175642821Y-115214204D01*
X175642821Y-114833251D01*
X175690441Y-114738013D01*
X175738060Y-114690394D01*
X175833298Y-114642775D01*
X175976155Y-114642775D01*
X176071393Y-114690394D01*
X176119012Y-114738013D01*
X176166631Y-114833251D01*
X176166631Y-115214204D01*
X175642821Y-113738013D02*
X175642821Y-114214204D01*
X176119012Y-114261823D01*
X176071393Y-114214204D01*
X176023774Y-114118966D01*
X176023774Y-113880870D01*
X176071393Y-113785632D01*
X176119012Y-113738013D01*
X176214250Y-113690394D01*
X176452345Y-113690394D01*
X176547583Y-113738013D01*
X176595202Y-113785632D01*
X176642821Y-113880870D01*
X176642821Y-114118966D01*
X176595202Y-114214204D01*
X176547583Y-114261823D01*
X181646621Y-114655475D02*
X181170431Y-114988809D01*
X181646621Y-115226904D02*
X180646621Y-115226904D01*
X180646621Y-114845951D01*
X180694241Y-114750713D01*
X180741860Y-114703094D01*
X180837098Y-114655475D01*
X180979955Y-114655475D01*
X181075193Y-114703094D01*
X181122812Y-114750713D01*
X181170431Y-114845951D01*
X181170431Y-115226904D01*
X180979955Y-113798332D02*
X181646621Y-113798332D01*
X180599002Y-114036428D02*
X181313288Y-114274523D01*
X181313288Y-113655475D01*
X179195521Y-114757075D02*
X178719331Y-115090409D01*
X179195521Y-115328504D02*
X178195521Y-115328504D01*
X178195521Y-114947551D01*
X178243141Y-114852313D01*
X178290760Y-114804694D01*
X178385998Y-114757075D01*
X178528855Y-114757075D01*
X178624093Y-114804694D01*
X178671712Y-114852313D01*
X178719331Y-114947551D01*
X178719331Y-115328504D01*
X178195521Y-114423742D02*
X178195521Y-113804694D01*
X178576474Y-114138028D01*
X178576474Y-113995170D01*
X178624093Y-113899932D01*
X178671712Y-113852313D01*
X178766950Y-113804694D01*
X179005045Y-113804694D01*
X179100283Y-113852313D01*
X179147902Y-113899932D01*
X179195521Y-113995170D01*
X179195521Y-114280885D01*
X179147902Y-114376123D01*
X179100283Y-114423742D01*
X197102521Y-118503575D02*
X196626331Y-118836909D01*
X197102521Y-119075004D02*
X196102521Y-119075004D01*
X196102521Y-118694051D01*
X196150141Y-118598813D01*
X196197760Y-118551194D01*
X196292998Y-118503575D01*
X196435855Y-118503575D01*
X196531093Y-118551194D01*
X196578712Y-118598813D01*
X196626331Y-118694051D01*
X196626331Y-119075004D01*
X196197760Y-118122623D02*
X196150141Y-118075004D01*
X196102521Y-117979766D01*
X196102521Y-117741670D01*
X196150141Y-117646432D01*
X196197760Y-117598813D01*
X196292998Y-117551194D01*
X196388236Y-117551194D01*
X196531093Y-117598813D01*
X197102521Y-118170242D01*
X197102521Y-117551194D01*
X192606721Y-118503575D02*
X192130531Y-118836909D01*
X192606721Y-119075004D02*
X191606721Y-119075004D01*
X191606721Y-118694051D01*
X191654341Y-118598813D01*
X191701960Y-118551194D01*
X191797198Y-118503575D01*
X191940055Y-118503575D01*
X192035293Y-118551194D01*
X192082912Y-118598813D01*
X192130531Y-118694051D01*
X192130531Y-119075004D01*
X192606721Y-117551194D02*
X192606721Y-118122623D01*
X192606721Y-117836909D02*
X191606721Y-117836909D01*
X191749579Y-117932147D01*
X191844817Y-118027385D01*
X191892436Y-118122623D01*
X139727174Y-104666889D02*
X139250983Y-104666889D01*
X139250983Y-103666889D01*
X140584317Y-104666889D02*
X140012888Y-104666889D01*
X140298602Y-104666889D02*
X140298602Y-103666889D01*
X140203364Y-103809747D01*
X140108126Y-103904985D01*
X140012888Y-103952604D01*
X105729321Y-122556442D02*
X106443607Y-122556442D01*
X106586464Y-122604061D01*
X106681702Y-122699299D01*
X106729321Y-122842156D01*
X106729321Y-122937394D01*
X105729321Y-121604061D02*
X105729321Y-122080251D01*
X106205512Y-122127870D01*
X106157893Y-122080251D01*
X106110274Y-121985013D01*
X106110274Y-121746918D01*
X106157893Y-121651680D01*
X106205512Y-121604061D01*
X106300750Y-121556442D01*
X106538845Y-121556442D01*
X106634083Y-121604061D01*
X106681702Y-121651680D01*
X106729321Y-121746918D01*
X106729321Y-121985013D01*
X106681702Y-122080251D01*
X106634083Y-122127870D01*
X90253621Y-94812042D02*
X90967907Y-94812042D01*
X91110764Y-94859661D01*
X91206002Y-94954899D01*
X91253621Y-95097756D01*
X91253621Y-95192994D01*
X90586955Y-93907280D02*
X91253621Y-93907280D01*
X90206002Y-94145375D02*
X90920288Y-94383470D01*
X90920288Y-93764423D01*
X186829907Y-96275489D02*
X186829907Y-96989775D01*
X186782288Y-97132632D01*
X186687050Y-97227870D01*
X186544193Y-97275489D01*
X186448955Y-97275489D01*
X187258479Y-96370728D02*
X187306098Y-96323109D01*
X187401336Y-96275489D01*
X187639431Y-96275489D01*
X187734669Y-96323109D01*
X187782288Y-96370728D01*
X187829907Y-96465966D01*
X187829907Y-96561204D01*
X187782288Y-96704061D01*
X187210860Y-97275489D01*
X187829907Y-97275489D01*
X114533650Y-93198789D02*
X114533650Y-92198789D01*
X115581269Y-93103551D02*
X115533650Y-93151170D01*
X115390793Y-93198789D01*
X115295555Y-93198789D01*
X115152698Y-93151170D01*
X115057460Y-93055932D01*
X115009841Y-92960694D01*
X114962221Y-92770218D01*
X114962221Y-92627361D01*
X115009841Y-92436885D01*
X115057460Y-92341647D01*
X115152698Y-92246409D01*
X115295555Y-92198789D01*
X115390793Y-92198789D01*
X115533650Y-92246409D01*
X115581269Y-92294028D01*
X116533650Y-93198789D02*
X115962221Y-93198789D01*
X116247936Y-93198789D02*
X116247936Y-92198789D01*
X116152698Y-92341647D01*
X116057460Y-92436885D01*
X115962221Y-92484504D01*
X106678521Y-112191604D02*
X105678521Y-112191604D01*
X105678521Y-111953509D01*
X105726141Y-111810651D01*
X105821379Y-111715413D01*
X105916617Y-111667794D01*
X106107093Y-111620175D01*
X106249950Y-111620175D01*
X106440426Y-111667794D01*
X106535664Y-111715413D01*
X106630902Y-111810651D01*
X106678521Y-111953509D01*
X106678521Y-112191604D01*
X105773760Y-111239223D02*
X105726141Y-111191604D01*
X105678521Y-111096366D01*
X105678521Y-110858270D01*
X105726141Y-110763032D01*
X105773760Y-110715413D01*
X105868998Y-110667794D01*
X105964236Y-110667794D01*
X106107093Y-110715413D01*
X106678521Y-111286842D01*
X106678521Y-110667794D01*
X106730380Y-114649595D02*
X105730380Y-114649595D01*
X105730380Y-114411500D01*
X105778000Y-114268642D01*
X105873238Y-114173404D01*
X105968476Y-114125785D01*
X106158952Y-114078166D01*
X106301809Y-114078166D01*
X106492285Y-114125785D01*
X106587523Y-114173404D01*
X106682761Y-114268642D01*
X106730380Y-114411500D01*
X106730380Y-114649595D01*
X106730380Y-113125785D02*
X106730380Y-113697214D01*
X106730380Y-113411500D02*
X105730380Y-113411500D01*
X105873238Y-113506738D01*
X105968476Y-113601976D01*
X106016095Y-113697214D01*
X107424783Y-116865251D02*
X107377164Y-116912870D01*
X107234307Y-116960489D01*
X107139069Y-116960489D01*
X106996212Y-116912870D01*
X106900974Y-116817632D01*
X106853355Y-116722394D01*
X106805736Y-116531918D01*
X106805736Y-116389061D01*
X106853355Y-116198585D01*
X106900974Y-116103347D01*
X106996212Y-116008109D01*
X107139069Y-115960489D01*
X107234307Y-115960489D01*
X107377164Y-116008109D01*
X107424783Y-116055728D01*
X108377164Y-116960489D02*
X107805736Y-116960489D01*
X108091450Y-116960489D02*
X108091450Y-115960489D01*
X107996212Y-116103347D01*
X107900974Y-116198585D01*
X107805736Y-116246204D01*
X108853355Y-116960489D02*
X109043831Y-116960489D01*
X109139069Y-116912870D01*
X109186688Y-116865251D01*
X109281926Y-116722394D01*
X109329545Y-116531918D01*
X109329545Y-116150966D01*
X109281926Y-116055728D01*
X109234307Y-116008109D01*
X109139069Y-115960489D01*
X108948593Y-115960489D01*
X108853355Y-116008109D01*
X108805736Y-116055728D01*
X108758117Y-116150966D01*
X108758117Y-116389061D01*
X108805736Y-116484299D01*
X108853355Y-116531918D01*
X108948593Y-116579537D01*
X109139069Y-116579537D01*
X109234307Y-116531918D01*
X109281926Y-116484299D01*
X109329545Y-116389061D01*
X107437483Y-118440051D02*
X107389864Y-118487670D01*
X107247007Y-118535289D01*
X107151769Y-118535289D01*
X107008912Y-118487670D01*
X106913674Y-118392432D01*
X106866055Y-118297194D01*
X106818436Y-118106718D01*
X106818436Y-117963861D01*
X106866055Y-117773385D01*
X106913674Y-117678147D01*
X107008912Y-117582909D01*
X107151769Y-117535289D01*
X107247007Y-117535289D01*
X107389864Y-117582909D01*
X107437483Y-117630528D01*
X108389864Y-118535289D02*
X107818436Y-118535289D01*
X108104150Y-118535289D02*
X108104150Y-117535289D01*
X108008912Y-117678147D01*
X107913674Y-117773385D01*
X107818436Y-117821004D01*
X108961293Y-117963861D02*
X108866055Y-117916242D01*
X108818436Y-117868623D01*
X108770817Y-117773385D01*
X108770817Y-117725766D01*
X108818436Y-117630528D01*
X108866055Y-117582909D01*
X108961293Y-117535289D01*
X109151769Y-117535289D01*
X109247007Y-117582909D01*
X109294626Y-117630528D01*
X109342245Y-117725766D01*
X109342245Y-117773385D01*
X109294626Y-117868623D01*
X109247007Y-117916242D01*
X109151769Y-117963861D01*
X108961293Y-117963861D01*
X108866055Y-118011480D01*
X108818436Y-118059099D01*
X108770817Y-118154337D01*
X108770817Y-118344813D01*
X108818436Y-118440051D01*
X108866055Y-118487670D01*
X108961293Y-118535289D01*
X109151769Y-118535289D01*
X109247007Y-118487670D01*
X109294626Y-118440051D01*
X109342245Y-118344813D01*
X109342245Y-118154337D01*
X109294626Y-118059099D01*
X109247007Y-118011480D01*
X109151769Y-117963861D01*
X122118383Y-120701566D02*
X122166002Y-120749185D01*
X122213621Y-120892042D01*
X122213621Y-120987280D01*
X122166002Y-121130137D01*
X122070764Y-121225375D01*
X121975526Y-121272994D01*
X121785050Y-121320613D01*
X121642193Y-121320613D01*
X121451717Y-121272994D01*
X121356479Y-121225375D01*
X121261241Y-121130137D01*
X121213621Y-120987280D01*
X121213621Y-120892042D01*
X121261241Y-120749185D01*
X121308860Y-120701566D01*
X122213621Y-119749185D02*
X122213621Y-120320613D01*
X122213621Y-120034899D02*
X121213621Y-120034899D01*
X121356479Y-120130137D01*
X121451717Y-120225375D01*
X121499336Y-120320613D01*
X121213621Y-119415851D02*
X121213621Y-118749185D01*
X122213621Y-119177756D01*
X113009483Y-123132666D02*
X113057102Y-123180285D01*
X113104721Y-123323142D01*
X113104721Y-123418380D01*
X113057102Y-123561237D01*
X112961864Y-123656475D01*
X112866626Y-123704094D01*
X112676150Y-123751713D01*
X112533293Y-123751713D01*
X112342817Y-123704094D01*
X112247579Y-123656475D01*
X112152341Y-123561237D01*
X112104721Y-123418380D01*
X112104721Y-123323142D01*
X112152341Y-123180285D01*
X112199960Y-123132666D01*
X113104721Y-122180285D02*
X113104721Y-122751713D01*
X113104721Y-122465999D02*
X112104721Y-122465999D01*
X112247579Y-122561237D01*
X112342817Y-122656475D01*
X112390436Y-122751713D01*
X112104721Y-121323142D02*
X112104721Y-121513618D01*
X112152341Y-121608856D01*
X112199960Y-121656475D01*
X112342817Y-121751713D01*
X112533293Y-121799332D01*
X112914245Y-121799332D01*
X113009483Y-121751713D01*
X113057102Y-121704094D01*
X113104721Y-121608856D01*
X113104721Y-121418380D01*
X113057102Y-121323142D01*
X113009483Y-121275523D01*
X112914245Y-121227904D01*
X112676150Y-121227904D01*
X112580912Y-121275523D01*
X112533293Y-121323142D01*
X112485674Y-121418380D01*
X112485674Y-121608856D01*
X112533293Y-121704094D01*
X112580912Y-121751713D01*
X112676150Y-121799332D01*
X108718383Y-105965851D02*
X108670764Y-106013470D01*
X108527907Y-106061089D01*
X108432669Y-106061089D01*
X108289812Y-106013470D01*
X108194574Y-105918232D01*
X108146955Y-105822994D01*
X108099336Y-105632518D01*
X108099336Y-105489661D01*
X108146955Y-105299185D01*
X108194574Y-105203947D01*
X108289812Y-105108709D01*
X108432669Y-105061089D01*
X108527907Y-105061089D01*
X108670764Y-105108709D01*
X108718383Y-105156328D01*
X109670764Y-106061089D02*
X109099336Y-106061089D01*
X109385050Y-106061089D02*
X109385050Y-105061089D01*
X109289812Y-105203947D01*
X109194574Y-105299185D01*
X109099336Y-105346804D01*
X110575526Y-105061089D02*
X110099336Y-105061089D01*
X110051717Y-105537280D01*
X110099336Y-105489661D01*
X110194574Y-105442042D01*
X110432669Y-105442042D01*
X110527907Y-105489661D01*
X110575526Y-105537280D01*
X110623145Y-105632518D01*
X110623145Y-105870613D01*
X110575526Y-105965851D01*
X110527907Y-106013470D01*
X110432669Y-106061089D01*
X110194574Y-106061089D01*
X110099336Y-106013470D01*
X110051717Y-105965851D01*
X133913683Y-100717166D02*
X133961302Y-100764785D01*
X134008921Y-100907642D01*
X134008921Y-101002880D01*
X133961302Y-101145737D01*
X133866064Y-101240975D01*
X133770826Y-101288594D01*
X133580350Y-101336213D01*
X133437493Y-101336213D01*
X133247017Y-101288594D01*
X133151779Y-101240975D01*
X133056541Y-101145737D01*
X133008921Y-101002880D01*
X133008921Y-100907642D01*
X133056541Y-100764785D01*
X133104160Y-100717166D01*
X134008921Y-99764785D02*
X134008921Y-100336213D01*
X134008921Y-100050499D02*
X133008921Y-100050499D01*
X133151779Y-100145737D01*
X133247017Y-100240975D01*
X133294636Y-100336213D01*
X133342255Y-98907642D02*
X134008921Y-98907642D01*
X132961302Y-99145737D02*
X133675588Y-99383832D01*
X133675588Y-98764785D01*
X130332283Y-100755266D02*
X130379902Y-100802885D01*
X130427521Y-100945742D01*
X130427521Y-101040980D01*
X130379902Y-101183837D01*
X130284664Y-101279075D01*
X130189426Y-101326694D01*
X129998950Y-101374313D01*
X129856093Y-101374313D01*
X129665617Y-101326694D01*
X129570379Y-101279075D01*
X129475141Y-101183837D01*
X129427521Y-101040980D01*
X129427521Y-100945742D01*
X129475141Y-100802885D01*
X129522760Y-100755266D01*
X130427521Y-99802885D02*
X130427521Y-100374313D01*
X130427521Y-100088599D02*
X129427521Y-100088599D01*
X129570379Y-100183837D01*
X129665617Y-100279075D01*
X129713236Y-100374313D01*
X129427521Y-99469551D02*
X129427521Y-98850504D01*
X129808474Y-99183837D01*
X129808474Y-99040980D01*
X129856093Y-98945742D01*
X129903712Y-98898123D01*
X129998950Y-98850504D01*
X130237045Y-98850504D01*
X130332283Y-98898123D01*
X130379902Y-98945742D01*
X130427521Y-99040980D01*
X130427521Y-99326694D01*
X130379902Y-99421932D01*
X130332283Y-99469551D01*
X132122983Y-100717166D02*
X132170602Y-100764785D01*
X132218221Y-100907642D01*
X132218221Y-101002880D01*
X132170602Y-101145737D01*
X132075364Y-101240975D01*
X131980126Y-101288594D01*
X131789650Y-101336213D01*
X131646793Y-101336213D01*
X131456317Y-101288594D01*
X131361079Y-101240975D01*
X131265841Y-101145737D01*
X131218221Y-101002880D01*
X131218221Y-100907642D01*
X131265841Y-100764785D01*
X131313460Y-100717166D01*
X132218221Y-99764785D02*
X132218221Y-100336213D01*
X132218221Y-100050499D02*
X131218221Y-100050499D01*
X131361079Y-100145737D01*
X131456317Y-100240975D01*
X131503936Y-100336213D01*
X131313460Y-99383832D02*
X131265841Y-99336213D01*
X131218221Y-99240975D01*
X131218221Y-99002880D01*
X131265841Y-98907642D01*
X131313460Y-98860023D01*
X131408698Y-98812404D01*
X131503936Y-98812404D01*
X131646793Y-98860023D01*
X132218221Y-99431451D01*
X132218221Y-98812404D01*
X132440483Y-111334366D02*
X132488102Y-111381985D01*
X132535721Y-111524842D01*
X132535721Y-111620080D01*
X132488102Y-111762937D01*
X132392864Y-111858175D01*
X132297626Y-111905794D01*
X132107150Y-111953413D01*
X131964293Y-111953413D01*
X131773817Y-111905794D01*
X131678579Y-111858175D01*
X131583341Y-111762937D01*
X131535721Y-111620080D01*
X131535721Y-111524842D01*
X131583341Y-111381985D01*
X131630960Y-111334366D01*
X132535721Y-110381985D02*
X132535721Y-110953413D01*
X132535721Y-110667699D02*
X131535721Y-110667699D01*
X131678579Y-110762937D01*
X131773817Y-110858175D01*
X131821436Y-110953413D01*
X132535721Y-109429604D02*
X132535721Y-110001032D01*
X132535721Y-109715318D02*
X131535721Y-109715318D01*
X131678579Y-109810556D01*
X131773817Y-109905794D01*
X131821436Y-110001032D01*
X145623383Y-109921566D02*
X145671002Y-109969185D01*
X145718621Y-110112042D01*
X145718621Y-110207280D01*
X145671002Y-110350137D01*
X145575764Y-110445375D01*
X145480526Y-110492994D01*
X145290050Y-110540613D01*
X145147193Y-110540613D01*
X144956717Y-110492994D01*
X144861479Y-110445375D01*
X144766241Y-110350137D01*
X144718621Y-110207280D01*
X144718621Y-110112042D01*
X144766241Y-109969185D01*
X144813860Y-109921566D01*
X145718621Y-108969185D02*
X145718621Y-109540613D01*
X145718621Y-109254899D02*
X144718621Y-109254899D01*
X144861479Y-109350137D01*
X144956717Y-109445375D01*
X145004336Y-109540613D01*
X144718621Y-108350137D02*
X144718621Y-108254899D01*
X144766241Y-108159661D01*
X144813860Y-108112042D01*
X144909098Y-108064423D01*
X145099574Y-108016804D01*
X145337669Y-108016804D01*
X145528145Y-108064423D01*
X145623383Y-108112042D01*
X145671002Y-108159661D01*
X145718621Y-108254899D01*
X145718621Y-108350137D01*
X145671002Y-108445375D01*
X145623383Y-108492994D01*
X145528145Y-108540613D01*
X145337669Y-108588232D01*
X145099574Y-108588232D01*
X144909098Y-108540613D01*
X144813860Y-108492994D01*
X144766241Y-108445375D01*
X144718621Y-108350137D01*
X186004574Y-106205851D02*
X185956955Y-106253470D01*
X185814098Y-106301089D01*
X185718860Y-106301089D01*
X185576002Y-106253470D01*
X185480764Y-106158232D01*
X185433145Y-106062994D01*
X185385526Y-105872518D01*
X185385526Y-105729661D01*
X185433145Y-105539185D01*
X185480764Y-105443947D01*
X185576002Y-105348709D01*
X185718860Y-105301089D01*
X185814098Y-105301089D01*
X185956955Y-105348709D01*
X186004574Y-105396328D01*
X186956955Y-106301089D02*
X186385526Y-106301089D01*
X186671241Y-106301089D02*
X186671241Y-105301089D01*
X186576002Y-105443947D01*
X186480764Y-105539185D01*
X186385526Y-105586804D01*
M02*
