G04 #@! TF.GenerationSoftware,KiCad,Pcbnew,5.1.5+dfsg1-2~bpo10+1*
G04 #@! TF.CreationDate,2020-02-17T17:21:56+01:00*
G04 #@! TF.ProjectId,arty-a7-expansion,61727479-2d61-4372-9d65-7870616e7369,rev?*
G04 #@! TF.SameCoordinates,Original*
G04 #@! TF.FileFunction,Paste,Top*
G04 #@! TF.FilePolarity,Positive*
%FSLAX46Y46*%
G04 Gerber Fmt 4.6, Leading zero omitted, Abs format (unit mm)*
G04 Created by KiCad (PCBNEW 5.1.5+dfsg1-2~bpo10+1) date 2020-02-17 17:21:56*
%MOMM*%
%LPD*%
G04 APERTURE LIST*
%ADD10C,0.100000*%
%ADD11R,1.300000X1.100000*%
%ADD12R,0.270000X1.450000*%
%ADD13R,1.450000X0.270000*%
%ADD14R,3.400000X1.000000*%
%ADD15R,2.600000X0.280000*%
%ADD16R,1.500000X0.800000*%
%ADD17R,1.400000X1.000000*%
%ADD18R,1.000000X1.400000*%
%ADD19R,1.500000X1.500000*%
%ADD20R,1.500000X1.300000*%
%ADD21R,1.750000X0.700000*%
%ADD22R,1.450000X0.300000*%
%ADD23R,0.800000X0.600000*%
G04 APERTURE END LIST*
D10*
G36*
X120768199Y-120259419D02*
G01*
X120782517Y-120261543D01*
X120796558Y-120265060D01*
X120810187Y-120269937D01*
X120823272Y-120276126D01*
X120835688Y-120283567D01*
X120847314Y-120292190D01*
X120858039Y-120301911D01*
X120867760Y-120312636D01*
X120876383Y-120324262D01*
X120883824Y-120336678D01*
X120890013Y-120349763D01*
X120894890Y-120363392D01*
X120898407Y-120377433D01*
X120900531Y-120391751D01*
X120901241Y-120406209D01*
X120901241Y-120701209D01*
X120900531Y-120715667D01*
X120898407Y-120729985D01*
X120894890Y-120744026D01*
X120890013Y-120757655D01*
X120883824Y-120770740D01*
X120876383Y-120783156D01*
X120867760Y-120794782D01*
X120858039Y-120805507D01*
X120847314Y-120815228D01*
X120835688Y-120823851D01*
X120823272Y-120831292D01*
X120810187Y-120837481D01*
X120796558Y-120842358D01*
X120782517Y-120845875D01*
X120768199Y-120847999D01*
X120753741Y-120848709D01*
X120408741Y-120848709D01*
X120394283Y-120847999D01*
X120379965Y-120845875D01*
X120365924Y-120842358D01*
X120352295Y-120837481D01*
X120339210Y-120831292D01*
X120326794Y-120823851D01*
X120315168Y-120815228D01*
X120304443Y-120805507D01*
X120294722Y-120794782D01*
X120286099Y-120783156D01*
X120278658Y-120770740D01*
X120272469Y-120757655D01*
X120267592Y-120744026D01*
X120264075Y-120729985D01*
X120261951Y-120715667D01*
X120261241Y-120701209D01*
X120261241Y-120406209D01*
X120261951Y-120391751D01*
X120264075Y-120377433D01*
X120267592Y-120363392D01*
X120272469Y-120349763D01*
X120278658Y-120336678D01*
X120286099Y-120324262D01*
X120294722Y-120312636D01*
X120304443Y-120301911D01*
X120315168Y-120292190D01*
X120326794Y-120283567D01*
X120339210Y-120276126D01*
X120352295Y-120269937D01*
X120365924Y-120265060D01*
X120379965Y-120261543D01*
X120394283Y-120259419D01*
X120408741Y-120258709D01*
X120753741Y-120258709D01*
X120768199Y-120259419D01*
G37*
G36*
X120768199Y-119289419D02*
G01*
X120782517Y-119291543D01*
X120796558Y-119295060D01*
X120810187Y-119299937D01*
X120823272Y-119306126D01*
X120835688Y-119313567D01*
X120847314Y-119322190D01*
X120858039Y-119331911D01*
X120867760Y-119342636D01*
X120876383Y-119354262D01*
X120883824Y-119366678D01*
X120890013Y-119379763D01*
X120894890Y-119393392D01*
X120898407Y-119407433D01*
X120900531Y-119421751D01*
X120901241Y-119436209D01*
X120901241Y-119731209D01*
X120900531Y-119745667D01*
X120898407Y-119759985D01*
X120894890Y-119774026D01*
X120890013Y-119787655D01*
X120883824Y-119800740D01*
X120876383Y-119813156D01*
X120867760Y-119824782D01*
X120858039Y-119835507D01*
X120847314Y-119845228D01*
X120835688Y-119853851D01*
X120823272Y-119861292D01*
X120810187Y-119867481D01*
X120796558Y-119872358D01*
X120782517Y-119875875D01*
X120768199Y-119877999D01*
X120753741Y-119878709D01*
X120408741Y-119878709D01*
X120394283Y-119877999D01*
X120379965Y-119875875D01*
X120365924Y-119872358D01*
X120352295Y-119867481D01*
X120339210Y-119861292D01*
X120326794Y-119853851D01*
X120315168Y-119845228D01*
X120304443Y-119835507D01*
X120294722Y-119824782D01*
X120286099Y-119813156D01*
X120278658Y-119800740D01*
X120272469Y-119787655D01*
X120267592Y-119774026D01*
X120264075Y-119759985D01*
X120261951Y-119745667D01*
X120261241Y-119731209D01*
X120261241Y-119436209D01*
X120261951Y-119421751D01*
X120264075Y-119407433D01*
X120267592Y-119393392D01*
X120272469Y-119379763D01*
X120278658Y-119366678D01*
X120286099Y-119354262D01*
X120294722Y-119342636D01*
X120304443Y-119331911D01*
X120315168Y-119322190D01*
X120326794Y-119313567D01*
X120339210Y-119306126D01*
X120352295Y-119299937D01*
X120365924Y-119295060D01*
X120379965Y-119291543D01*
X120394283Y-119289419D01*
X120408741Y-119288709D01*
X120753741Y-119288709D01*
X120768199Y-119289419D01*
G37*
G36*
X113843199Y-119204419D02*
G01*
X113857517Y-119206543D01*
X113871558Y-119210060D01*
X113885187Y-119214937D01*
X113898272Y-119221126D01*
X113910688Y-119228567D01*
X113922314Y-119237190D01*
X113933039Y-119246911D01*
X113942760Y-119257636D01*
X113951383Y-119269262D01*
X113958824Y-119281678D01*
X113965013Y-119294763D01*
X113969890Y-119308392D01*
X113973407Y-119322433D01*
X113975531Y-119336751D01*
X113976241Y-119351209D01*
X113976241Y-119646209D01*
X113975531Y-119660667D01*
X113973407Y-119674985D01*
X113969890Y-119689026D01*
X113965013Y-119702655D01*
X113958824Y-119715740D01*
X113951383Y-119728156D01*
X113942760Y-119739782D01*
X113933039Y-119750507D01*
X113922314Y-119760228D01*
X113910688Y-119768851D01*
X113898272Y-119776292D01*
X113885187Y-119782481D01*
X113871558Y-119787358D01*
X113857517Y-119790875D01*
X113843199Y-119792999D01*
X113828741Y-119793709D01*
X113483741Y-119793709D01*
X113469283Y-119792999D01*
X113454965Y-119790875D01*
X113440924Y-119787358D01*
X113427295Y-119782481D01*
X113414210Y-119776292D01*
X113401794Y-119768851D01*
X113390168Y-119760228D01*
X113379443Y-119750507D01*
X113369722Y-119739782D01*
X113361099Y-119728156D01*
X113353658Y-119715740D01*
X113347469Y-119702655D01*
X113342592Y-119689026D01*
X113339075Y-119674985D01*
X113336951Y-119660667D01*
X113336241Y-119646209D01*
X113336241Y-119351209D01*
X113336951Y-119336751D01*
X113339075Y-119322433D01*
X113342592Y-119308392D01*
X113347469Y-119294763D01*
X113353658Y-119281678D01*
X113361099Y-119269262D01*
X113369722Y-119257636D01*
X113379443Y-119246911D01*
X113390168Y-119237190D01*
X113401794Y-119228567D01*
X113414210Y-119221126D01*
X113427295Y-119214937D01*
X113440924Y-119210060D01*
X113454965Y-119206543D01*
X113469283Y-119204419D01*
X113483741Y-119203709D01*
X113828741Y-119203709D01*
X113843199Y-119204419D01*
G37*
G36*
X113843199Y-120174419D02*
G01*
X113857517Y-120176543D01*
X113871558Y-120180060D01*
X113885187Y-120184937D01*
X113898272Y-120191126D01*
X113910688Y-120198567D01*
X113922314Y-120207190D01*
X113933039Y-120216911D01*
X113942760Y-120227636D01*
X113951383Y-120239262D01*
X113958824Y-120251678D01*
X113965013Y-120264763D01*
X113969890Y-120278392D01*
X113973407Y-120292433D01*
X113975531Y-120306751D01*
X113976241Y-120321209D01*
X113976241Y-120616209D01*
X113975531Y-120630667D01*
X113973407Y-120644985D01*
X113969890Y-120659026D01*
X113965013Y-120672655D01*
X113958824Y-120685740D01*
X113951383Y-120698156D01*
X113942760Y-120709782D01*
X113933039Y-120720507D01*
X113922314Y-120730228D01*
X113910688Y-120738851D01*
X113898272Y-120746292D01*
X113885187Y-120752481D01*
X113871558Y-120757358D01*
X113857517Y-120760875D01*
X113843199Y-120762999D01*
X113828741Y-120763709D01*
X113483741Y-120763709D01*
X113469283Y-120762999D01*
X113454965Y-120760875D01*
X113440924Y-120757358D01*
X113427295Y-120752481D01*
X113414210Y-120746292D01*
X113401794Y-120738851D01*
X113390168Y-120730228D01*
X113379443Y-120720507D01*
X113369722Y-120709782D01*
X113361099Y-120698156D01*
X113353658Y-120685740D01*
X113347469Y-120672655D01*
X113342592Y-120659026D01*
X113339075Y-120644985D01*
X113336951Y-120630667D01*
X113336241Y-120616209D01*
X113336241Y-120321209D01*
X113336951Y-120306751D01*
X113339075Y-120292433D01*
X113342592Y-120278392D01*
X113347469Y-120264763D01*
X113353658Y-120251678D01*
X113361099Y-120239262D01*
X113369722Y-120227636D01*
X113379443Y-120216911D01*
X113390168Y-120207190D01*
X113401794Y-120198567D01*
X113414210Y-120191126D01*
X113427295Y-120184937D01*
X113440924Y-120180060D01*
X113454965Y-120176543D01*
X113469283Y-120174419D01*
X113483741Y-120173709D01*
X113828741Y-120173709D01*
X113843199Y-120174419D01*
G37*
G36*
X124073199Y-108009419D02*
G01*
X124087517Y-108011543D01*
X124101558Y-108015060D01*
X124115187Y-108019937D01*
X124128272Y-108026126D01*
X124140688Y-108033567D01*
X124152314Y-108042190D01*
X124163039Y-108051911D01*
X124172760Y-108062636D01*
X124181383Y-108074262D01*
X124188824Y-108086678D01*
X124195013Y-108099763D01*
X124199890Y-108113392D01*
X124203407Y-108127433D01*
X124205531Y-108141751D01*
X124206241Y-108156209D01*
X124206241Y-108501209D01*
X124205531Y-108515667D01*
X124203407Y-108529985D01*
X124199890Y-108544026D01*
X124195013Y-108557655D01*
X124188824Y-108570740D01*
X124181383Y-108583156D01*
X124172760Y-108594782D01*
X124163039Y-108605507D01*
X124152314Y-108615228D01*
X124140688Y-108623851D01*
X124128272Y-108631292D01*
X124115187Y-108637481D01*
X124101558Y-108642358D01*
X124087517Y-108645875D01*
X124073199Y-108647999D01*
X124058741Y-108648709D01*
X123763741Y-108648709D01*
X123749283Y-108647999D01*
X123734965Y-108645875D01*
X123720924Y-108642358D01*
X123707295Y-108637481D01*
X123694210Y-108631292D01*
X123681794Y-108623851D01*
X123670168Y-108615228D01*
X123659443Y-108605507D01*
X123649722Y-108594782D01*
X123641099Y-108583156D01*
X123633658Y-108570740D01*
X123627469Y-108557655D01*
X123622592Y-108544026D01*
X123619075Y-108529985D01*
X123616951Y-108515667D01*
X123616241Y-108501209D01*
X123616241Y-108156209D01*
X123616951Y-108141751D01*
X123619075Y-108127433D01*
X123622592Y-108113392D01*
X123627469Y-108099763D01*
X123633658Y-108086678D01*
X123641099Y-108074262D01*
X123649722Y-108062636D01*
X123659443Y-108051911D01*
X123670168Y-108042190D01*
X123681794Y-108033567D01*
X123694210Y-108026126D01*
X123707295Y-108019937D01*
X123720924Y-108015060D01*
X123734965Y-108011543D01*
X123749283Y-108009419D01*
X123763741Y-108008709D01*
X124058741Y-108008709D01*
X124073199Y-108009419D01*
G37*
G36*
X125043199Y-108009419D02*
G01*
X125057517Y-108011543D01*
X125071558Y-108015060D01*
X125085187Y-108019937D01*
X125098272Y-108026126D01*
X125110688Y-108033567D01*
X125122314Y-108042190D01*
X125133039Y-108051911D01*
X125142760Y-108062636D01*
X125151383Y-108074262D01*
X125158824Y-108086678D01*
X125165013Y-108099763D01*
X125169890Y-108113392D01*
X125173407Y-108127433D01*
X125175531Y-108141751D01*
X125176241Y-108156209D01*
X125176241Y-108501209D01*
X125175531Y-108515667D01*
X125173407Y-108529985D01*
X125169890Y-108544026D01*
X125165013Y-108557655D01*
X125158824Y-108570740D01*
X125151383Y-108583156D01*
X125142760Y-108594782D01*
X125133039Y-108605507D01*
X125122314Y-108615228D01*
X125110688Y-108623851D01*
X125098272Y-108631292D01*
X125085187Y-108637481D01*
X125071558Y-108642358D01*
X125057517Y-108645875D01*
X125043199Y-108647999D01*
X125028741Y-108648709D01*
X124733741Y-108648709D01*
X124719283Y-108647999D01*
X124704965Y-108645875D01*
X124690924Y-108642358D01*
X124677295Y-108637481D01*
X124664210Y-108631292D01*
X124651794Y-108623851D01*
X124640168Y-108615228D01*
X124629443Y-108605507D01*
X124619722Y-108594782D01*
X124611099Y-108583156D01*
X124603658Y-108570740D01*
X124597469Y-108557655D01*
X124592592Y-108544026D01*
X124589075Y-108529985D01*
X124586951Y-108515667D01*
X124586241Y-108501209D01*
X124586241Y-108156209D01*
X124586951Y-108141751D01*
X124589075Y-108127433D01*
X124592592Y-108113392D01*
X124597469Y-108099763D01*
X124603658Y-108086678D01*
X124611099Y-108074262D01*
X124619722Y-108062636D01*
X124629443Y-108051911D01*
X124640168Y-108042190D01*
X124651794Y-108033567D01*
X124664210Y-108026126D01*
X124677295Y-108019937D01*
X124690924Y-108015060D01*
X124704965Y-108011543D01*
X124719283Y-108009419D01*
X124733741Y-108008709D01*
X125028741Y-108008709D01*
X125043199Y-108009419D01*
G37*
G36*
X126218199Y-105724419D02*
G01*
X126232517Y-105726543D01*
X126246558Y-105730060D01*
X126260187Y-105734937D01*
X126273272Y-105741126D01*
X126285688Y-105748567D01*
X126297314Y-105757190D01*
X126308039Y-105766911D01*
X126317760Y-105777636D01*
X126326383Y-105789262D01*
X126333824Y-105801678D01*
X126340013Y-105814763D01*
X126344890Y-105828392D01*
X126348407Y-105842433D01*
X126350531Y-105856751D01*
X126351241Y-105871209D01*
X126351241Y-106216209D01*
X126350531Y-106230667D01*
X126348407Y-106244985D01*
X126344890Y-106259026D01*
X126340013Y-106272655D01*
X126333824Y-106285740D01*
X126326383Y-106298156D01*
X126317760Y-106309782D01*
X126308039Y-106320507D01*
X126297314Y-106330228D01*
X126285688Y-106338851D01*
X126273272Y-106346292D01*
X126260187Y-106352481D01*
X126246558Y-106357358D01*
X126232517Y-106360875D01*
X126218199Y-106362999D01*
X126203741Y-106363709D01*
X125908741Y-106363709D01*
X125894283Y-106362999D01*
X125879965Y-106360875D01*
X125865924Y-106357358D01*
X125852295Y-106352481D01*
X125839210Y-106346292D01*
X125826794Y-106338851D01*
X125815168Y-106330228D01*
X125804443Y-106320507D01*
X125794722Y-106309782D01*
X125786099Y-106298156D01*
X125778658Y-106285740D01*
X125772469Y-106272655D01*
X125767592Y-106259026D01*
X125764075Y-106244985D01*
X125761951Y-106230667D01*
X125761241Y-106216209D01*
X125761241Y-105871209D01*
X125761951Y-105856751D01*
X125764075Y-105842433D01*
X125767592Y-105828392D01*
X125772469Y-105814763D01*
X125778658Y-105801678D01*
X125786099Y-105789262D01*
X125794722Y-105777636D01*
X125804443Y-105766911D01*
X125815168Y-105757190D01*
X125826794Y-105748567D01*
X125839210Y-105741126D01*
X125852295Y-105734937D01*
X125865924Y-105730060D01*
X125879965Y-105726543D01*
X125894283Y-105724419D01*
X125908741Y-105723709D01*
X126203741Y-105723709D01*
X126218199Y-105724419D01*
G37*
G36*
X127188199Y-105724419D02*
G01*
X127202517Y-105726543D01*
X127216558Y-105730060D01*
X127230187Y-105734937D01*
X127243272Y-105741126D01*
X127255688Y-105748567D01*
X127267314Y-105757190D01*
X127278039Y-105766911D01*
X127287760Y-105777636D01*
X127296383Y-105789262D01*
X127303824Y-105801678D01*
X127310013Y-105814763D01*
X127314890Y-105828392D01*
X127318407Y-105842433D01*
X127320531Y-105856751D01*
X127321241Y-105871209D01*
X127321241Y-106216209D01*
X127320531Y-106230667D01*
X127318407Y-106244985D01*
X127314890Y-106259026D01*
X127310013Y-106272655D01*
X127303824Y-106285740D01*
X127296383Y-106298156D01*
X127287760Y-106309782D01*
X127278039Y-106320507D01*
X127267314Y-106330228D01*
X127255688Y-106338851D01*
X127243272Y-106346292D01*
X127230187Y-106352481D01*
X127216558Y-106357358D01*
X127202517Y-106360875D01*
X127188199Y-106362999D01*
X127173741Y-106363709D01*
X126878741Y-106363709D01*
X126864283Y-106362999D01*
X126849965Y-106360875D01*
X126835924Y-106357358D01*
X126822295Y-106352481D01*
X126809210Y-106346292D01*
X126796794Y-106338851D01*
X126785168Y-106330228D01*
X126774443Y-106320507D01*
X126764722Y-106309782D01*
X126756099Y-106298156D01*
X126748658Y-106285740D01*
X126742469Y-106272655D01*
X126737592Y-106259026D01*
X126734075Y-106244985D01*
X126731951Y-106230667D01*
X126731241Y-106216209D01*
X126731241Y-105871209D01*
X126731951Y-105856751D01*
X126734075Y-105842433D01*
X126737592Y-105828392D01*
X126742469Y-105814763D01*
X126748658Y-105801678D01*
X126756099Y-105789262D01*
X126764722Y-105777636D01*
X126774443Y-105766911D01*
X126785168Y-105757190D01*
X126796794Y-105748567D01*
X126809210Y-105741126D01*
X126822295Y-105734937D01*
X126835924Y-105730060D01*
X126849965Y-105726543D01*
X126864283Y-105724419D01*
X126878741Y-105723709D01*
X127173741Y-105723709D01*
X127188199Y-105724419D01*
G37*
G36*
X126828199Y-103264419D02*
G01*
X126842517Y-103266543D01*
X126856558Y-103270060D01*
X126870187Y-103274937D01*
X126883272Y-103281126D01*
X126895688Y-103288567D01*
X126907314Y-103297190D01*
X126918039Y-103306911D01*
X126927760Y-103317636D01*
X126936383Y-103329262D01*
X126943824Y-103341678D01*
X126950013Y-103354763D01*
X126954890Y-103368392D01*
X126958407Y-103382433D01*
X126960531Y-103396751D01*
X126961241Y-103411209D01*
X126961241Y-103756209D01*
X126960531Y-103770667D01*
X126958407Y-103784985D01*
X126954890Y-103799026D01*
X126950013Y-103812655D01*
X126943824Y-103825740D01*
X126936383Y-103838156D01*
X126927760Y-103849782D01*
X126918039Y-103860507D01*
X126907314Y-103870228D01*
X126895688Y-103878851D01*
X126883272Y-103886292D01*
X126870187Y-103892481D01*
X126856558Y-103897358D01*
X126842517Y-103900875D01*
X126828199Y-103902999D01*
X126813741Y-103903709D01*
X126518741Y-103903709D01*
X126504283Y-103902999D01*
X126489965Y-103900875D01*
X126475924Y-103897358D01*
X126462295Y-103892481D01*
X126449210Y-103886292D01*
X126436794Y-103878851D01*
X126425168Y-103870228D01*
X126414443Y-103860507D01*
X126404722Y-103849782D01*
X126396099Y-103838156D01*
X126388658Y-103825740D01*
X126382469Y-103812655D01*
X126377592Y-103799026D01*
X126374075Y-103784985D01*
X126371951Y-103770667D01*
X126371241Y-103756209D01*
X126371241Y-103411209D01*
X126371951Y-103396751D01*
X126374075Y-103382433D01*
X126377592Y-103368392D01*
X126382469Y-103354763D01*
X126388658Y-103341678D01*
X126396099Y-103329262D01*
X126404722Y-103317636D01*
X126414443Y-103306911D01*
X126425168Y-103297190D01*
X126436794Y-103288567D01*
X126449210Y-103281126D01*
X126462295Y-103274937D01*
X126475924Y-103270060D01*
X126489965Y-103266543D01*
X126504283Y-103264419D01*
X126518741Y-103263709D01*
X126813741Y-103263709D01*
X126828199Y-103264419D01*
G37*
G36*
X125858199Y-103264419D02*
G01*
X125872517Y-103266543D01*
X125886558Y-103270060D01*
X125900187Y-103274937D01*
X125913272Y-103281126D01*
X125925688Y-103288567D01*
X125937314Y-103297190D01*
X125948039Y-103306911D01*
X125957760Y-103317636D01*
X125966383Y-103329262D01*
X125973824Y-103341678D01*
X125980013Y-103354763D01*
X125984890Y-103368392D01*
X125988407Y-103382433D01*
X125990531Y-103396751D01*
X125991241Y-103411209D01*
X125991241Y-103756209D01*
X125990531Y-103770667D01*
X125988407Y-103784985D01*
X125984890Y-103799026D01*
X125980013Y-103812655D01*
X125973824Y-103825740D01*
X125966383Y-103838156D01*
X125957760Y-103849782D01*
X125948039Y-103860507D01*
X125937314Y-103870228D01*
X125925688Y-103878851D01*
X125913272Y-103886292D01*
X125900187Y-103892481D01*
X125886558Y-103897358D01*
X125872517Y-103900875D01*
X125858199Y-103902999D01*
X125843741Y-103903709D01*
X125548741Y-103903709D01*
X125534283Y-103902999D01*
X125519965Y-103900875D01*
X125505924Y-103897358D01*
X125492295Y-103892481D01*
X125479210Y-103886292D01*
X125466794Y-103878851D01*
X125455168Y-103870228D01*
X125444443Y-103860507D01*
X125434722Y-103849782D01*
X125426099Y-103838156D01*
X125418658Y-103825740D01*
X125412469Y-103812655D01*
X125407592Y-103799026D01*
X125404075Y-103784985D01*
X125401951Y-103770667D01*
X125401241Y-103756209D01*
X125401241Y-103411209D01*
X125401951Y-103396751D01*
X125404075Y-103382433D01*
X125407592Y-103368392D01*
X125412469Y-103354763D01*
X125418658Y-103341678D01*
X125426099Y-103329262D01*
X125434722Y-103317636D01*
X125444443Y-103306911D01*
X125455168Y-103297190D01*
X125466794Y-103288567D01*
X125479210Y-103281126D01*
X125492295Y-103274937D01*
X125505924Y-103270060D01*
X125519965Y-103266543D01*
X125534283Y-103264419D01*
X125548741Y-103263709D01*
X125843741Y-103263709D01*
X125858199Y-103264419D01*
G37*
G36*
X194513199Y-115304419D02*
G01*
X194527517Y-115306543D01*
X194541558Y-115310060D01*
X194555187Y-115314937D01*
X194568272Y-115321126D01*
X194580688Y-115328567D01*
X194592314Y-115337190D01*
X194603039Y-115346911D01*
X194612760Y-115357636D01*
X194621383Y-115369262D01*
X194628824Y-115381678D01*
X194635013Y-115394763D01*
X194639890Y-115408392D01*
X194643407Y-115422433D01*
X194645531Y-115436751D01*
X194646241Y-115451209D01*
X194646241Y-115746209D01*
X194645531Y-115760667D01*
X194643407Y-115774985D01*
X194639890Y-115789026D01*
X194635013Y-115802655D01*
X194628824Y-115815740D01*
X194621383Y-115828156D01*
X194612760Y-115839782D01*
X194603039Y-115850507D01*
X194592314Y-115860228D01*
X194580688Y-115868851D01*
X194568272Y-115876292D01*
X194555187Y-115882481D01*
X194541558Y-115887358D01*
X194527517Y-115890875D01*
X194513199Y-115892999D01*
X194498741Y-115893709D01*
X194153741Y-115893709D01*
X194139283Y-115892999D01*
X194124965Y-115890875D01*
X194110924Y-115887358D01*
X194097295Y-115882481D01*
X194084210Y-115876292D01*
X194071794Y-115868851D01*
X194060168Y-115860228D01*
X194049443Y-115850507D01*
X194039722Y-115839782D01*
X194031099Y-115828156D01*
X194023658Y-115815740D01*
X194017469Y-115802655D01*
X194012592Y-115789026D01*
X194009075Y-115774985D01*
X194006951Y-115760667D01*
X194006241Y-115746209D01*
X194006241Y-115451209D01*
X194006951Y-115436751D01*
X194009075Y-115422433D01*
X194012592Y-115408392D01*
X194017469Y-115394763D01*
X194023658Y-115381678D01*
X194031099Y-115369262D01*
X194039722Y-115357636D01*
X194049443Y-115346911D01*
X194060168Y-115337190D01*
X194071794Y-115328567D01*
X194084210Y-115321126D01*
X194097295Y-115314937D01*
X194110924Y-115310060D01*
X194124965Y-115306543D01*
X194139283Y-115304419D01*
X194153741Y-115303709D01*
X194498741Y-115303709D01*
X194513199Y-115304419D01*
G37*
G36*
X194513199Y-116274419D02*
G01*
X194527517Y-116276543D01*
X194541558Y-116280060D01*
X194555187Y-116284937D01*
X194568272Y-116291126D01*
X194580688Y-116298567D01*
X194592314Y-116307190D01*
X194603039Y-116316911D01*
X194612760Y-116327636D01*
X194621383Y-116339262D01*
X194628824Y-116351678D01*
X194635013Y-116364763D01*
X194639890Y-116378392D01*
X194643407Y-116392433D01*
X194645531Y-116406751D01*
X194646241Y-116421209D01*
X194646241Y-116716209D01*
X194645531Y-116730667D01*
X194643407Y-116744985D01*
X194639890Y-116759026D01*
X194635013Y-116772655D01*
X194628824Y-116785740D01*
X194621383Y-116798156D01*
X194612760Y-116809782D01*
X194603039Y-116820507D01*
X194592314Y-116830228D01*
X194580688Y-116838851D01*
X194568272Y-116846292D01*
X194555187Y-116852481D01*
X194541558Y-116857358D01*
X194527517Y-116860875D01*
X194513199Y-116862999D01*
X194498741Y-116863709D01*
X194153741Y-116863709D01*
X194139283Y-116862999D01*
X194124965Y-116860875D01*
X194110924Y-116857358D01*
X194097295Y-116852481D01*
X194084210Y-116846292D01*
X194071794Y-116838851D01*
X194060168Y-116830228D01*
X194049443Y-116820507D01*
X194039722Y-116809782D01*
X194031099Y-116798156D01*
X194023658Y-116785740D01*
X194017469Y-116772655D01*
X194012592Y-116759026D01*
X194009075Y-116744985D01*
X194006951Y-116730667D01*
X194006241Y-116716209D01*
X194006241Y-116421209D01*
X194006951Y-116406751D01*
X194009075Y-116392433D01*
X194012592Y-116378392D01*
X194017469Y-116364763D01*
X194023658Y-116351678D01*
X194031099Y-116339262D01*
X194039722Y-116327636D01*
X194049443Y-116316911D01*
X194060168Y-116307190D01*
X194071794Y-116298567D01*
X194084210Y-116291126D01*
X194097295Y-116284937D01*
X194110924Y-116280060D01*
X194124965Y-116276543D01*
X194139283Y-116274419D01*
X194153741Y-116273709D01*
X194498741Y-116273709D01*
X194513199Y-116274419D01*
G37*
G36*
X173863199Y-111339419D02*
G01*
X173877517Y-111341543D01*
X173891558Y-111345060D01*
X173905187Y-111349937D01*
X173918272Y-111356126D01*
X173930688Y-111363567D01*
X173942314Y-111372190D01*
X173953039Y-111381911D01*
X173962760Y-111392636D01*
X173971383Y-111404262D01*
X173978824Y-111416678D01*
X173985013Y-111429763D01*
X173989890Y-111443392D01*
X173993407Y-111457433D01*
X173995531Y-111471751D01*
X173996241Y-111486209D01*
X173996241Y-111781209D01*
X173995531Y-111795667D01*
X173993407Y-111809985D01*
X173989890Y-111824026D01*
X173985013Y-111837655D01*
X173978824Y-111850740D01*
X173971383Y-111863156D01*
X173962760Y-111874782D01*
X173953039Y-111885507D01*
X173942314Y-111895228D01*
X173930688Y-111903851D01*
X173918272Y-111911292D01*
X173905187Y-111917481D01*
X173891558Y-111922358D01*
X173877517Y-111925875D01*
X173863199Y-111927999D01*
X173848741Y-111928709D01*
X173503741Y-111928709D01*
X173489283Y-111927999D01*
X173474965Y-111925875D01*
X173460924Y-111922358D01*
X173447295Y-111917481D01*
X173434210Y-111911292D01*
X173421794Y-111903851D01*
X173410168Y-111895228D01*
X173399443Y-111885507D01*
X173389722Y-111874782D01*
X173381099Y-111863156D01*
X173373658Y-111850740D01*
X173367469Y-111837655D01*
X173362592Y-111824026D01*
X173359075Y-111809985D01*
X173356951Y-111795667D01*
X173356241Y-111781209D01*
X173356241Y-111486209D01*
X173356951Y-111471751D01*
X173359075Y-111457433D01*
X173362592Y-111443392D01*
X173367469Y-111429763D01*
X173373658Y-111416678D01*
X173381099Y-111404262D01*
X173389722Y-111392636D01*
X173399443Y-111381911D01*
X173410168Y-111372190D01*
X173421794Y-111363567D01*
X173434210Y-111356126D01*
X173447295Y-111349937D01*
X173460924Y-111345060D01*
X173474965Y-111341543D01*
X173489283Y-111339419D01*
X173503741Y-111338709D01*
X173848741Y-111338709D01*
X173863199Y-111339419D01*
G37*
G36*
X173863199Y-112309419D02*
G01*
X173877517Y-112311543D01*
X173891558Y-112315060D01*
X173905187Y-112319937D01*
X173918272Y-112326126D01*
X173930688Y-112333567D01*
X173942314Y-112342190D01*
X173953039Y-112351911D01*
X173962760Y-112362636D01*
X173971383Y-112374262D01*
X173978824Y-112386678D01*
X173985013Y-112399763D01*
X173989890Y-112413392D01*
X173993407Y-112427433D01*
X173995531Y-112441751D01*
X173996241Y-112456209D01*
X173996241Y-112751209D01*
X173995531Y-112765667D01*
X173993407Y-112779985D01*
X173989890Y-112794026D01*
X173985013Y-112807655D01*
X173978824Y-112820740D01*
X173971383Y-112833156D01*
X173962760Y-112844782D01*
X173953039Y-112855507D01*
X173942314Y-112865228D01*
X173930688Y-112873851D01*
X173918272Y-112881292D01*
X173905187Y-112887481D01*
X173891558Y-112892358D01*
X173877517Y-112895875D01*
X173863199Y-112897999D01*
X173848741Y-112898709D01*
X173503741Y-112898709D01*
X173489283Y-112897999D01*
X173474965Y-112895875D01*
X173460924Y-112892358D01*
X173447295Y-112887481D01*
X173434210Y-112881292D01*
X173421794Y-112873851D01*
X173410168Y-112865228D01*
X173399443Y-112855507D01*
X173389722Y-112844782D01*
X173381099Y-112833156D01*
X173373658Y-112820740D01*
X173367469Y-112807655D01*
X173362592Y-112794026D01*
X173359075Y-112779985D01*
X173356951Y-112765667D01*
X173356241Y-112751209D01*
X173356241Y-112456209D01*
X173356951Y-112441751D01*
X173359075Y-112427433D01*
X173362592Y-112413392D01*
X173367469Y-112399763D01*
X173373658Y-112386678D01*
X173381099Y-112374262D01*
X173389722Y-112362636D01*
X173399443Y-112351911D01*
X173410168Y-112342190D01*
X173421794Y-112333567D01*
X173434210Y-112326126D01*
X173447295Y-112319937D01*
X173460924Y-112315060D01*
X173474965Y-112311543D01*
X173489283Y-112309419D01*
X173503741Y-112308709D01*
X173848741Y-112308709D01*
X173863199Y-112309419D01*
G37*
G36*
X176398199Y-111339419D02*
G01*
X176412517Y-111341543D01*
X176426558Y-111345060D01*
X176440187Y-111349937D01*
X176453272Y-111356126D01*
X176465688Y-111363567D01*
X176477314Y-111372190D01*
X176488039Y-111381911D01*
X176497760Y-111392636D01*
X176506383Y-111404262D01*
X176513824Y-111416678D01*
X176520013Y-111429763D01*
X176524890Y-111443392D01*
X176528407Y-111457433D01*
X176530531Y-111471751D01*
X176531241Y-111486209D01*
X176531241Y-111781209D01*
X176530531Y-111795667D01*
X176528407Y-111809985D01*
X176524890Y-111824026D01*
X176520013Y-111837655D01*
X176513824Y-111850740D01*
X176506383Y-111863156D01*
X176497760Y-111874782D01*
X176488039Y-111885507D01*
X176477314Y-111895228D01*
X176465688Y-111903851D01*
X176453272Y-111911292D01*
X176440187Y-111917481D01*
X176426558Y-111922358D01*
X176412517Y-111925875D01*
X176398199Y-111927999D01*
X176383741Y-111928709D01*
X176038741Y-111928709D01*
X176024283Y-111927999D01*
X176009965Y-111925875D01*
X175995924Y-111922358D01*
X175982295Y-111917481D01*
X175969210Y-111911292D01*
X175956794Y-111903851D01*
X175945168Y-111895228D01*
X175934443Y-111885507D01*
X175924722Y-111874782D01*
X175916099Y-111863156D01*
X175908658Y-111850740D01*
X175902469Y-111837655D01*
X175897592Y-111824026D01*
X175894075Y-111809985D01*
X175891951Y-111795667D01*
X175891241Y-111781209D01*
X175891241Y-111486209D01*
X175891951Y-111471751D01*
X175894075Y-111457433D01*
X175897592Y-111443392D01*
X175902469Y-111429763D01*
X175908658Y-111416678D01*
X175916099Y-111404262D01*
X175924722Y-111392636D01*
X175934443Y-111381911D01*
X175945168Y-111372190D01*
X175956794Y-111363567D01*
X175969210Y-111356126D01*
X175982295Y-111349937D01*
X175995924Y-111345060D01*
X176009965Y-111341543D01*
X176024283Y-111339419D01*
X176038741Y-111338709D01*
X176383741Y-111338709D01*
X176398199Y-111339419D01*
G37*
G36*
X176398199Y-112309419D02*
G01*
X176412517Y-112311543D01*
X176426558Y-112315060D01*
X176440187Y-112319937D01*
X176453272Y-112326126D01*
X176465688Y-112333567D01*
X176477314Y-112342190D01*
X176488039Y-112351911D01*
X176497760Y-112362636D01*
X176506383Y-112374262D01*
X176513824Y-112386678D01*
X176520013Y-112399763D01*
X176524890Y-112413392D01*
X176528407Y-112427433D01*
X176530531Y-112441751D01*
X176531241Y-112456209D01*
X176531241Y-112751209D01*
X176530531Y-112765667D01*
X176528407Y-112779985D01*
X176524890Y-112794026D01*
X176520013Y-112807655D01*
X176513824Y-112820740D01*
X176506383Y-112833156D01*
X176497760Y-112844782D01*
X176488039Y-112855507D01*
X176477314Y-112865228D01*
X176465688Y-112873851D01*
X176453272Y-112881292D01*
X176440187Y-112887481D01*
X176426558Y-112892358D01*
X176412517Y-112895875D01*
X176398199Y-112897999D01*
X176383741Y-112898709D01*
X176038741Y-112898709D01*
X176024283Y-112897999D01*
X176009965Y-112895875D01*
X175995924Y-112892358D01*
X175982295Y-112887481D01*
X175969210Y-112881292D01*
X175956794Y-112873851D01*
X175945168Y-112865228D01*
X175934443Y-112855507D01*
X175924722Y-112844782D01*
X175916099Y-112833156D01*
X175908658Y-112820740D01*
X175902469Y-112807655D01*
X175897592Y-112794026D01*
X175894075Y-112779985D01*
X175891951Y-112765667D01*
X175891241Y-112751209D01*
X175891241Y-112456209D01*
X175891951Y-112441751D01*
X175894075Y-112427433D01*
X175897592Y-112413392D01*
X175902469Y-112399763D01*
X175908658Y-112386678D01*
X175916099Y-112374262D01*
X175924722Y-112362636D01*
X175934443Y-112351911D01*
X175945168Y-112342190D01*
X175956794Y-112333567D01*
X175969210Y-112326126D01*
X175982295Y-112319937D01*
X175995924Y-112315060D01*
X176009965Y-112311543D01*
X176024283Y-112309419D01*
X176038741Y-112308709D01*
X176383741Y-112308709D01*
X176398199Y-112309419D01*
G37*
G36*
X181468199Y-111339419D02*
G01*
X181482517Y-111341543D01*
X181496558Y-111345060D01*
X181510187Y-111349937D01*
X181523272Y-111356126D01*
X181535688Y-111363567D01*
X181547314Y-111372190D01*
X181558039Y-111381911D01*
X181567760Y-111392636D01*
X181576383Y-111404262D01*
X181583824Y-111416678D01*
X181590013Y-111429763D01*
X181594890Y-111443392D01*
X181598407Y-111457433D01*
X181600531Y-111471751D01*
X181601241Y-111486209D01*
X181601241Y-111781209D01*
X181600531Y-111795667D01*
X181598407Y-111809985D01*
X181594890Y-111824026D01*
X181590013Y-111837655D01*
X181583824Y-111850740D01*
X181576383Y-111863156D01*
X181567760Y-111874782D01*
X181558039Y-111885507D01*
X181547314Y-111895228D01*
X181535688Y-111903851D01*
X181523272Y-111911292D01*
X181510187Y-111917481D01*
X181496558Y-111922358D01*
X181482517Y-111925875D01*
X181468199Y-111927999D01*
X181453741Y-111928709D01*
X181108741Y-111928709D01*
X181094283Y-111927999D01*
X181079965Y-111925875D01*
X181065924Y-111922358D01*
X181052295Y-111917481D01*
X181039210Y-111911292D01*
X181026794Y-111903851D01*
X181015168Y-111895228D01*
X181004443Y-111885507D01*
X180994722Y-111874782D01*
X180986099Y-111863156D01*
X180978658Y-111850740D01*
X180972469Y-111837655D01*
X180967592Y-111824026D01*
X180964075Y-111809985D01*
X180961951Y-111795667D01*
X180961241Y-111781209D01*
X180961241Y-111486209D01*
X180961951Y-111471751D01*
X180964075Y-111457433D01*
X180967592Y-111443392D01*
X180972469Y-111429763D01*
X180978658Y-111416678D01*
X180986099Y-111404262D01*
X180994722Y-111392636D01*
X181004443Y-111381911D01*
X181015168Y-111372190D01*
X181026794Y-111363567D01*
X181039210Y-111356126D01*
X181052295Y-111349937D01*
X181065924Y-111345060D01*
X181079965Y-111341543D01*
X181094283Y-111339419D01*
X181108741Y-111338709D01*
X181453741Y-111338709D01*
X181468199Y-111339419D01*
G37*
G36*
X181468199Y-112309419D02*
G01*
X181482517Y-112311543D01*
X181496558Y-112315060D01*
X181510187Y-112319937D01*
X181523272Y-112326126D01*
X181535688Y-112333567D01*
X181547314Y-112342190D01*
X181558039Y-112351911D01*
X181567760Y-112362636D01*
X181576383Y-112374262D01*
X181583824Y-112386678D01*
X181590013Y-112399763D01*
X181594890Y-112413392D01*
X181598407Y-112427433D01*
X181600531Y-112441751D01*
X181601241Y-112456209D01*
X181601241Y-112751209D01*
X181600531Y-112765667D01*
X181598407Y-112779985D01*
X181594890Y-112794026D01*
X181590013Y-112807655D01*
X181583824Y-112820740D01*
X181576383Y-112833156D01*
X181567760Y-112844782D01*
X181558039Y-112855507D01*
X181547314Y-112865228D01*
X181535688Y-112873851D01*
X181523272Y-112881292D01*
X181510187Y-112887481D01*
X181496558Y-112892358D01*
X181482517Y-112895875D01*
X181468199Y-112897999D01*
X181453741Y-112898709D01*
X181108741Y-112898709D01*
X181094283Y-112897999D01*
X181079965Y-112895875D01*
X181065924Y-112892358D01*
X181052295Y-112887481D01*
X181039210Y-112881292D01*
X181026794Y-112873851D01*
X181015168Y-112865228D01*
X181004443Y-112855507D01*
X180994722Y-112844782D01*
X180986099Y-112833156D01*
X180978658Y-112820740D01*
X180972469Y-112807655D01*
X180967592Y-112794026D01*
X180964075Y-112779985D01*
X180961951Y-112765667D01*
X180961241Y-112751209D01*
X180961241Y-112456209D01*
X180961951Y-112441751D01*
X180964075Y-112427433D01*
X180967592Y-112413392D01*
X180972469Y-112399763D01*
X180978658Y-112386678D01*
X180986099Y-112374262D01*
X180994722Y-112362636D01*
X181004443Y-112351911D01*
X181015168Y-112342190D01*
X181026794Y-112333567D01*
X181039210Y-112326126D01*
X181052295Y-112319937D01*
X181065924Y-112315060D01*
X181079965Y-112311543D01*
X181094283Y-112309419D01*
X181108741Y-112308709D01*
X181453741Y-112308709D01*
X181468199Y-112309419D01*
G37*
G36*
X178933199Y-111339419D02*
G01*
X178947517Y-111341543D01*
X178961558Y-111345060D01*
X178975187Y-111349937D01*
X178988272Y-111356126D01*
X179000688Y-111363567D01*
X179012314Y-111372190D01*
X179023039Y-111381911D01*
X179032760Y-111392636D01*
X179041383Y-111404262D01*
X179048824Y-111416678D01*
X179055013Y-111429763D01*
X179059890Y-111443392D01*
X179063407Y-111457433D01*
X179065531Y-111471751D01*
X179066241Y-111486209D01*
X179066241Y-111781209D01*
X179065531Y-111795667D01*
X179063407Y-111809985D01*
X179059890Y-111824026D01*
X179055013Y-111837655D01*
X179048824Y-111850740D01*
X179041383Y-111863156D01*
X179032760Y-111874782D01*
X179023039Y-111885507D01*
X179012314Y-111895228D01*
X179000688Y-111903851D01*
X178988272Y-111911292D01*
X178975187Y-111917481D01*
X178961558Y-111922358D01*
X178947517Y-111925875D01*
X178933199Y-111927999D01*
X178918741Y-111928709D01*
X178573741Y-111928709D01*
X178559283Y-111927999D01*
X178544965Y-111925875D01*
X178530924Y-111922358D01*
X178517295Y-111917481D01*
X178504210Y-111911292D01*
X178491794Y-111903851D01*
X178480168Y-111895228D01*
X178469443Y-111885507D01*
X178459722Y-111874782D01*
X178451099Y-111863156D01*
X178443658Y-111850740D01*
X178437469Y-111837655D01*
X178432592Y-111824026D01*
X178429075Y-111809985D01*
X178426951Y-111795667D01*
X178426241Y-111781209D01*
X178426241Y-111486209D01*
X178426951Y-111471751D01*
X178429075Y-111457433D01*
X178432592Y-111443392D01*
X178437469Y-111429763D01*
X178443658Y-111416678D01*
X178451099Y-111404262D01*
X178459722Y-111392636D01*
X178469443Y-111381911D01*
X178480168Y-111372190D01*
X178491794Y-111363567D01*
X178504210Y-111356126D01*
X178517295Y-111349937D01*
X178530924Y-111345060D01*
X178544965Y-111341543D01*
X178559283Y-111339419D01*
X178573741Y-111338709D01*
X178918741Y-111338709D01*
X178933199Y-111339419D01*
G37*
G36*
X178933199Y-112309419D02*
G01*
X178947517Y-112311543D01*
X178961558Y-112315060D01*
X178975187Y-112319937D01*
X178988272Y-112326126D01*
X179000688Y-112333567D01*
X179012314Y-112342190D01*
X179023039Y-112351911D01*
X179032760Y-112362636D01*
X179041383Y-112374262D01*
X179048824Y-112386678D01*
X179055013Y-112399763D01*
X179059890Y-112413392D01*
X179063407Y-112427433D01*
X179065531Y-112441751D01*
X179066241Y-112456209D01*
X179066241Y-112751209D01*
X179065531Y-112765667D01*
X179063407Y-112779985D01*
X179059890Y-112794026D01*
X179055013Y-112807655D01*
X179048824Y-112820740D01*
X179041383Y-112833156D01*
X179032760Y-112844782D01*
X179023039Y-112855507D01*
X179012314Y-112865228D01*
X179000688Y-112873851D01*
X178988272Y-112881292D01*
X178975187Y-112887481D01*
X178961558Y-112892358D01*
X178947517Y-112895875D01*
X178933199Y-112897999D01*
X178918741Y-112898709D01*
X178573741Y-112898709D01*
X178559283Y-112897999D01*
X178544965Y-112895875D01*
X178530924Y-112892358D01*
X178517295Y-112887481D01*
X178504210Y-112881292D01*
X178491794Y-112873851D01*
X178480168Y-112865228D01*
X178469443Y-112855507D01*
X178459722Y-112844782D01*
X178451099Y-112833156D01*
X178443658Y-112820740D01*
X178437469Y-112807655D01*
X178432592Y-112794026D01*
X178429075Y-112779985D01*
X178426951Y-112765667D01*
X178426241Y-112751209D01*
X178426241Y-112456209D01*
X178426951Y-112441751D01*
X178429075Y-112427433D01*
X178432592Y-112413392D01*
X178437469Y-112399763D01*
X178443658Y-112386678D01*
X178451099Y-112374262D01*
X178459722Y-112362636D01*
X178469443Y-112351911D01*
X178480168Y-112342190D01*
X178491794Y-112333567D01*
X178504210Y-112326126D01*
X178517295Y-112319937D01*
X178530924Y-112315060D01*
X178544965Y-112311543D01*
X178559283Y-112309419D01*
X178573741Y-112308709D01*
X178918741Y-112308709D01*
X178933199Y-112309419D01*
G37*
G36*
X196768199Y-115304419D02*
G01*
X196782517Y-115306543D01*
X196796558Y-115310060D01*
X196810187Y-115314937D01*
X196823272Y-115321126D01*
X196835688Y-115328567D01*
X196847314Y-115337190D01*
X196858039Y-115346911D01*
X196867760Y-115357636D01*
X196876383Y-115369262D01*
X196883824Y-115381678D01*
X196890013Y-115394763D01*
X196894890Y-115408392D01*
X196898407Y-115422433D01*
X196900531Y-115436751D01*
X196901241Y-115451209D01*
X196901241Y-115746209D01*
X196900531Y-115760667D01*
X196898407Y-115774985D01*
X196894890Y-115789026D01*
X196890013Y-115802655D01*
X196883824Y-115815740D01*
X196876383Y-115828156D01*
X196867760Y-115839782D01*
X196858039Y-115850507D01*
X196847314Y-115860228D01*
X196835688Y-115868851D01*
X196823272Y-115876292D01*
X196810187Y-115882481D01*
X196796558Y-115887358D01*
X196782517Y-115890875D01*
X196768199Y-115892999D01*
X196753741Y-115893709D01*
X196408741Y-115893709D01*
X196394283Y-115892999D01*
X196379965Y-115890875D01*
X196365924Y-115887358D01*
X196352295Y-115882481D01*
X196339210Y-115876292D01*
X196326794Y-115868851D01*
X196315168Y-115860228D01*
X196304443Y-115850507D01*
X196294722Y-115839782D01*
X196286099Y-115828156D01*
X196278658Y-115815740D01*
X196272469Y-115802655D01*
X196267592Y-115789026D01*
X196264075Y-115774985D01*
X196261951Y-115760667D01*
X196261241Y-115746209D01*
X196261241Y-115451209D01*
X196261951Y-115436751D01*
X196264075Y-115422433D01*
X196267592Y-115408392D01*
X196272469Y-115394763D01*
X196278658Y-115381678D01*
X196286099Y-115369262D01*
X196294722Y-115357636D01*
X196304443Y-115346911D01*
X196315168Y-115337190D01*
X196326794Y-115328567D01*
X196339210Y-115321126D01*
X196352295Y-115314937D01*
X196365924Y-115310060D01*
X196379965Y-115306543D01*
X196394283Y-115304419D01*
X196408741Y-115303709D01*
X196753741Y-115303709D01*
X196768199Y-115304419D01*
G37*
G36*
X196768199Y-116274419D02*
G01*
X196782517Y-116276543D01*
X196796558Y-116280060D01*
X196810187Y-116284937D01*
X196823272Y-116291126D01*
X196835688Y-116298567D01*
X196847314Y-116307190D01*
X196858039Y-116316911D01*
X196867760Y-116327636D01*
X196876383Y-116339262D01*
X196883824Y-116351678D01*
X196890013Y-116364763D01*
X196894890Y-116378392D01*
X196898407Y-116392433D01*
X196900531Y-116406751D01*
X196901241Y-116421209D01*
X196901241Y-116716209D01*
X196900531Y-116730667D01*
X196898407Y-116744985D01*
X196894890Y-116759026D01*
X196890013Y-116772655D01*
X196883824Y-116785740D01*
X196876383Y-116798156D01*
X196867760Y-116809782D01*
X196858039Y-116820507D01*
X196847314Y-116830228D01*
X196835688Y-116838851D01*
X196823272Y-116846292D01*
X196810187Y-116852481D01*
X196796558Y-116857358D01*
X196782517Y-116860875D01*
X196768199Y-116862999D01*
X196753741Y-116863709D01*
X196408741Y-116863709D01*
X196394283Y-116862999D01*
X196379965Y-116860875D01*
X196365924Y-116857358D01*
X196352295Y-116852481D01*
X196339210Y-116846292D01*
X196326794Y-116838851D01*
X196315168Y-116830228D01*
X196304443Y-116820507D01*
X196294722Y-116809782D01*
X196286099Y-116798156D01*
X196278658Y-116785740D01*
X196272469Y-116772655D01*
X196267592Y-116759026D01*
X196264075Y-116744985D01*
X196261951Y-116730667D01*
X196261241Y-116716209D01*
X196261241Y-116421209D01*
X196261951Y-116406751D01*
X196264075Y-116392433D01*
X196267592Y-116378392D01*
X196272469Y-116364763D01*
X196278658Y-116351678D01*
X196286099Y-116339262D01*
X196294722Y-116327636D01*
X196304443Y-116316911D01*
X196315168Y-116307190D01*
X196326794Y-116298567D01*
X196339210Y-116291126D01*
X196352295Y-116284937D01*
X196365924Y-116280060D01*
X196379965Y-116276543D01*
X196394283Y-116274419D01*
X196408741Y-116273709D01*
X196753741Y-116273709D01*
X196768199Y-116274419D01*
G37*
G36*
X192258199Y-115304419D02*
G01*
X192272517Y-115306543D01*
X192286558Y-115310060D01*
X192300187Y-115314937D01*
X192313272Y-115321126D01*
X192325688Y-115328567D01*
X192337314Y-115337190D01*
X192348039Y-115346911D01*
X192357760Y-115357636D01*
X192366383Y-115369262D01*
X192373824Y-115381678D01*
X192380013Y-115394763D01*
X192384890Y-115408392D01*
X192388407Y-115422433D01*
X192390531Y-115436751D01*
X192391241Y-115451209D01*
X192391241Y-115746209D01*
X192390531Y-115760667D01*
X192388407Y-115774985D01*
X192384890Y-115789026D01*
X192380013Y-115802655D01*
X192373824Y-115815740D01*
X192366383Y-115828156D01*
X192357760Y-115839782D01*
X192348039Y-115850507D01*
X192337314Y-115860228D01*
X192325688Y-115868851D01*
X192313272Y-115876292D01*
X192300187Y-115882481D01*
X192286558Y-115887358D01*
X192272517Y-115890875D01*
X192258199Y-115892999D01*
X192243741Y-115893709D01*
X191898741Y-115893709D01*
X191884283Y-115892999D01*
X191869965Y-115890875D01*
X191855924Y-115887358D01*
X191842295Y-115882481D01*
X191829210Y-115876292D01*
X191816794Y-115868851D01*
X191805168Y-115860228D01*
X191794443Y-115850507D01*
X191784722Y-115839782D01*
X191776099Y-115828156D01*
X191768658Y-115815740D01*
X191762469Y-115802655D01*
X191757592Y-115789026D01*
X191754075Y-115774985D01*
X191751951Y-115760667D01*
X191751241Y-115746209D01*
X191751241Y-115451209D01*
X191751951Y-115436751D01*
X191754075Y-115422433D01*
X191757592Y-115408392D01*
X191762469Y-115394763D01*
X191768658Y-115381678D01*
X191776099Y-115369262D01*
X191784722Y-115357636D01*
X191794443Y-115346911D01*
X191805168Y-115337190D01*
X191816794Y-115328567D01*
X191829210Y-115321126D01*
X191842295Y-115314937D01*
X191855924Y-115310060D01*
X191869965Y-115306543D01*
X191884283Y-115304419D01*
X191898741Y-115303709D01*
X192243741Y-115303709D01*
X192258199Y-115304419D01*
G37*
G36*
X192258199Y-116274419D02*
G01*
X192272517Y-116276543D01*
X192286558Y-116280060D01*
X192300187Y-116284937D01*
X192313272Y-116291126D01*
X192325688Y-116298567D01*
X192337314Y-116307190D01*
X192348039Y-116316911D01*
X192357760Y-116327636D01*
X192366383Y-116339262D01*
X192373824Y-116351678D01*
X192380013Y-116364763D01*
X192384890Y-116378392D01*
X192388407Y-116392433D01*
X192390531Y-116406751D01*
X192391241Y-116421209D01*
X192391241Y-116716209D01*
X192390531Y-116730667D01*
X192388407Y-116744985D01*
X192384890Y-116759026D01*
X192380013Y-116772655D01*
X192373824Y-116785740D01*
X192366383Y-116798156D01*
X192357760Y-116809782D01*
X192348039Y-116820507D01*
X192337314Y-116830228D01*
X192325688Y-116838851D01*
X192313272Y-116846292D01*
X192300187Y-116852481D01*
X192286558Y-116857358D01*
X192272517Y-116860875D01*
X192258199Y-116862999D01*
X192243741Y-116863709D01*
X191898741Y-116863709D01*
X191884283Y-116862999D01*
X191869965Y-116860875D01*
X191855924Y-116857358D01*
X191842295Y-116852481D01*
X191829210Y-116846292D01*
X191816794Y-116838851D01*
X191805168Y-116830228D01*
X191794443Y-116820507D01*
X191784722Y-116809782D01*
X191776099Y-116798156D01*
X191768658Y-116785740D01*
X191762469Y-116772655D01*
X191757592Y-116759026D01*
X191754075Y-116744985D01*
X191751951Y-116730667D01*
X191751241Y-116716209D01*
X191751241Y-116421209D01*
X191751951Y-116406751D01*
X191754075Y-116392433D01*
X191757592Y-116378392D01*
X191762469Y-116364763D01*
X191768658Y-116351678D01*
X191776099Y-116339262D01*
X191784722Y-116327636D01*
X191794443Y-116316911D01*
X191805168Y-116307190D01*
X191816794Y-116298567D01*
X191829210Y-116291126D01*
X191842295Y-116284937D01*
X191855924Y-116280060D01*
X191869965Y-116276543D01*
X191884283Y-116274419D01*
X191898741Y-116273709D01*
X192243741Y-116273709D01*
X192258199Y-116274419D01*
G37*
D11*
X118351241Y-120933709D03*
X118351241Y-119133709D03*
X116051241Y-120933709D03*
X116051241Y-119133709D03*
D12*
X118791241Y-114728709D03*
X118291241Y-114728709D03*
X117791241Y-114728709D03*
X117291241Y-114728709D03*
X116791241Y-114728709D03*
X116291241Y-114728709D03*
X115791241Y-114728709D03*
X115291241Y-114728709D03*
D13*
X113881241Y-113318709D03*
X113881241Y-112818709D03*
X113881241Y-112318709D03*
X113881241Y-111818709D03*
X113881241Y-111318709D03*
X113881241Y-110818709D03*
X113881241Y-110318709D03*
X113881241Y-109818709D03*
D12*
X115291241Y-108408709D03*
X115791241Y-108408709D03*
X116291241Y-108408709D03*
X116791241Y-108408709D03*
X117291241Y-108408709D03*
X117791241Y-108408709D03*
X118291241Y-108408709D03*
X118791241Y-108408709D03*
D13*
X120201241Y-109818709D03*
X120201241Y-110318709D03*
X120201241Y-110818709D03*
X120201241Y-111318709D03*
X120201241Y-111818709D03*
X120201241Y-112318709D03*
X120201241Y-112818709D03*
X120201241Y-113318709D03*
D10*
G36*
X136100003Y-107209287D02*
G01*
X136111652Y-107211015D01*
X136123075Y-107213876D01*
X136134163Y-107217843D01*
X136144809Y-107222878D01*
X136154909Y-107228933D01*
X136164368Y-107235948D01*
X136173094Y-107243856D01*
X136181002Y-107252582D01*
X136188017Y-107262041D01*
X136194072Y-107272141D01*
X136199107Y-107282787D01*
X136203074Y-107293875D01*
X136205935Y-107305298D01*
X136207663Y-107316947D01*
X136208241Y-107328709D01*
X136208241Y-107568709D01*
X136207663Y-107580471D01*
X136205935Y-107592120D01*
X136203074Y-107603543D01*
X136199107Y-107614631D01*
X136194072Y-107625277D01*
X136188017Y-107635377D01*
X136181002Y-107644836D01*
X136173094Y-107653562D01*
X136164368Y-107661470D01*
X136154909Y-107668485D01*
X136144809Y-107674540D01*
X136134163Y-107679575D01*
X136123075Y-107683542D01*
X136111652Y-107686403D01*
X136100003Y-107688131D01*
X136088241Y-107688709D01*
X135518241Y-107688709D01*
X135506479Y-107688131D01*
X135494830Y-107686403D01*
X135483407Y-107683542D01*
X135472319Y-107679575D01*
X135461673Y-107674540D01*
X135451573Y-107668485D01*
X135442114Y-107661470D01*
X135433388Y-107653562D01*
X135425480Y-107644836D01*
X135418465Y-107635377D01*
X135412410Y-107625277D01*
X135407375Y-107614631D01*
X135403408Y-107603543D01*
X135400547Y-107592120D01*
X135398819Y-107580471D01*
X135398241Y-107568709D01*
X135398241Y-107328709D01*
X135398819Y-107316947D01*
X135400547Y-107305298D01*
X135403408Y-107293875D01*
X135407375Y-107282787D01*
X135412410Y-107272141D01*
X135418465Y-107262041D01*
X135425480Y-107252582D01*
X135433388Y-107243856D01*
X135442114Y-107235948D01*
X135451573Y-107228933D01*
X135461673Y-107222878D01*
X135472319Y-107217843D01*
X135483407Y-107213876D01*
X135494830Y-107211015D01*
X135506479Y-107209287D01*
X135518241Y-107208709D01*
X136088241Y-107208709D01*
X136100003Y-107209287D01*
G37*
G36*
X135100003Y-106609287D02*
G01*
X135111652Y-106611015D01*
X135123075Y-106613876D01*
X135134163Y-106617843D01*
X135144809Y-106622878D01*
X135154909Y-106628933D01*
X135164368Y-106635948D01*
X135173094Y-106643856D01*
X135181002Y-106652582D01*
X135188017Y-106662041D01*
X135194072Y-106672141D01*
X135199107Y-106682787D01*
X135203074Y-106693875D01*
X135205935Y-106705298D01*
X135207663Y-106716947D01*
X135208241Y-106728709D01*
X135208241Y-106968709D01*
X135207663Y-106980471D01*
X135205935Y-106992120D01*
X135203074Y-107003543D01*
X135199107Y-107014631D01*
X135194072Y-107025277D01*
X135188017Y-107035377D01*
X135181002Y-107044836D01*
X135173094Y-107053562D01*
X135164368Y-107061470D01*
X135154909Y-107068485D01*
X135144809Y-107074540D01*
X135134163Y-107079575D01*
X135123075Y-107083542D01*
X135111652Y-107086403D01*
X135100003Y-107088131D01*
X135088241Y-107088709D01*
X134518241Y-107088709D01*
X134506479Y-107088131D01*
X134494830Y-107086403D01*
X134483407Y-107083542D01*
X134472319Y-107079575D01*
X134461673Y-107074540D01*
X134451573Y-107068485D01*
X134442114Y-107061470D01*
X134433388Y-107053562D01*
X134425480Y-107044836D01*
X134418465Y-107035377D01*
X134412410Y-107025277D01*
X134407375Y-107014631D01*
X134403408Y-107003543D01*
X134400547Y-106992120D01*
X134398819Y-106980471D01*
X134398241Y-106968709D01*
X134398241Y-106728709D01*
X134398819Y-106716947D01*
X134400547Y-106705298D01*
X134403408Y-106693875D01*
X134407375Y-106682787D01*
X134412410Y-106672141D01*
X134418465Y-106662041D01*
X134425480Y-106652582D01*
X134433388Y-106643856D01*
X134442114Y-106635948D01*
X134451573Y-106628933D01*
X134461673Y-106622878D01*
X134472319Y-106617843D01*
X134483407Y-106613876D01*
X134494830Y-106611015D01*
X134506479Y-106609287D01*
X134518241Y-106608709D01*
X135088241Y-106608709D01*
X135100003Y-106609287D01*
G37*
G36*
X135371867Y-108149010D02*
G01*
X135377934Y-108149910D01*
X135383884Y-108151400D01*
X135389659Y-108153467D01*
X135395203Y-108156089D01*
X135400464Y-108159242D01*
X135405391Y-108162896D01*
X135409935Y-108167015D01*
X135414054Y-108171559D01*
X135417708Y-108176486D01*
X135420861Y-108181747D01*
X135423483Y-108187291D01*
X135425550Y-108193066D01*
X135427040Y-108199016D01*
X135427940Y-108205083D01*
X135428241Y-108211209D01*
X135428241Y-108961209D01*
X135427940Y-108967335D01*
X135427040Y-108973402D01*
X135425550Y-108979352D01*
X135423483Y-108985127D01*
X135420861Y-108990671D01*
X135417708Y-108995932D01*
X135414054Y-109000859D01*
X135409935Y-109005403D01*
X135405391Y-109009522D01*
X135400464Y-109013176D01*
X135395203Y-109016329D01*
X135389659Y-109018951D01*
X135383884Y-109021018D01*
X135377934Y-109022508D01*
X135371867Y-109023408D01*
X135365741Y-109023709D01*
X135240741Y-109023709D01*
X135234615Y-109023408D01*
X135228548Y-109022508D01*
X135222598Y-109021018D01*
X135216823Y-109018951D01*
X135211279Y-109016329D01*
X135206018Y-109013176D01*
X135201091Y-109009522D01*
X135196547Y-109005403D01*
X135192428Y-109000859D01*
X135188774Y-108995932D01*
X135185621Y-108990671D01*
X135182999Y-108985127D01*
X135180932Y-108979352D01*
X135179442Y-108973402D01*
X135178542Y-108967335D01*
X135178241Y-108961209D01*
X135178241Y-108211209D01*
X135178542Y-108205083D01*
X135179442Y-108199016D01*
X135180932Y-108193066D01*
X135182999Y-108187291D01*
X135185621Y-108181747D01*
X135188774Y-108176486D01*
X135192428Y-108171559D01*
X135196547Y-108167015D01*
X135201091Y-108162896D01*
X135206018Y-108159242D01*
X135211279Y-108156089D01*
X135216823Y-108153467D01*
X135222598Y-108151400D01*
X135228548Y-108149910D01*
X135234615Y-108149010D01*
X135240741Y-108148709D01*
X135365741Y-108148709D01*
X135371867Y-108149010D01*
G37*
G36*
X135871867Y-108149010D02*
G01*
X135877934Y-108149910D01*
X135883884Y-108151400D01*
X135889659Y-108153467D01*
X135895203Y-108156089D01*
X135900464Y-108159242D01*
X135905391Y-108162896D01*
X135909935Y-108167015D01*
X135914054Y-108171559D01*
X135917708Y-108176486D01*
X135920861Y-108181747D01*
X135923483Y-108187291D01*
X135925550Y-108193066D01*
X135927040Y-108199016D01*
X135927940Y-108205083D01*
X135928241Y-108211209D01*
X135928241Y-108961209D01*
X135927940Y-108967335D01*
X135927040Y-108973402D01*
X135925550Y-108979352D01*
X135923483Y-108985127D01*
X135920861Y-108990671D01*
X135917708Y-108995932D01*
X135914054Y-109000859D01*
X135909935Y-109005403D01*
X135905391Y-109009522D01*
X135900464Y-109013176D01*
X135895203Y-109016329D01*
X135889659Y-109018951D01*
X135883884Y-109021018D01*
X135877934Y-109022508D01*
X135871867Y-109023408D01*
X135865741Y-109023709D01*
X135740741Y-109023709D01*
X135734615Y-109023408D01*
X135728548Y-109022508D01*
X135722598Y-109021018D01*
X135716823Y-109018951D01*
X135711279Y-109016329D01*
X135706018Y-109013176D01*
X135701091Y-109009522D01*
X135696547Y-109005403D01*
X135692428Y-109000859D01*
X135688774Y-108995932D01*
X135685621Y-108990671D01*
X135682999Y-108985127D01*
X135680932Y-108979352D01*
X135679442Y-108973402D01*
X135678542Y-108967335D01*
X135678241Y-108961209D01*
X135678241Y-108211209D01*
X135678542Y-108205083D01*
X135679442Y-108199016D01*
X135680932Y-108193066D01*
X135682999Y-108187291D01*
X135685621Y-108181747D01*
X135688774Y-108176486D01*
X135692428Y-108171559D01*
X135696547Y-108167015D01*
X135701091Y-108162896D01*
X135706018Y-108159242D01*
X135711279Y-108156089D01*
X135716823Y-108153467D01*
X135722598Y-108151400D01*
X135728548Y-108149910D01*
X135734615Y-108149010D01*
X135740741Y-108148709D01*
X135865741Y-108148709D01*
X135871867Y-108149010D01*
G37*
G36*
X136371867Y-108149010D02*
G01*
X136377934Y-108149910D01*
X136383884Y-108151400D01*
X136389659Y-108153467D01*
X136395203Y-108156089D01*
X136400464Y-108159242D01*
X136405391Y-108162896D01*
X136409935Y-108167015D01*
X136414054Y-108171559D01*
X136417708Y-108176486D01*
X136420861Y-108181747D01*
X136423483Y-108187291D01*
X136425550Y-108193066D01*
X136427040Y-108199016D01*
X136427940Y-108205083D01*
X136428241Y-108211209D01*
X136428241Y-108961209D01*
X136427940Y-108967335D01*
X136427040Y-108973402D01*
X136425550Y-108979352D01*
X136423483Y-108985127D01*
X136420861Y-108990671D01*
X136417708Y-108995932D01*
X136414054Y-109000859D01*
X136409935Y-109005403D01*
X136405391Y-109009522D01*
X136400464Y-109013176D01*
X136395203Y-109016329D01*
X136389659Y-109018951D01*
X136383884Y-109021018D01*
X136377934Y-109022508D01*
X136371867Y-109023408D01*
X136365741Y-109023709D01*
X136240741Y-109023709D01*
X136234615Y-109023408D01*
X136228548Y-109022508D01*
X136222598Y-109021018D01*
X136216823Y-109018951D01*
X136211279Y-109016329D01*
X136206018Y-109013176D01*
X136201091Y-109009522D01*
X136196547Y-109005403D01*
X136192428Y-109000859D01*
X136188774Y-108995932D01*
X136185621Y-108990671D01*
X136182999Y-108985127D01*
X136180932Y-108979352D01*
X136179442Y-108973402D01*
X136178542Y-108967335D01*
X136178241Y-108961209D01*
X136178241Y-108211209D01*
X136178542Y-108205083D01*
X136179442Y-108199016D01*
X136180932Y-108193066D01*
X136182999Y-108187291D01*
X136185621Y-108181747D01*
X136188774Y-108176486D01*
X136192428Y-108171559D01*
X136196547Y-108167015D01*
X136201091Y-108162896D01*
X136206018Y-108159242D01*
X136211279Y-108156089D01*
X136216823Y-108153467D01*
X136222598Y-108151400D01*
X136228548Y-108149910D01*
X136234615Y-108149010D01*
X136240741Y-108148709D01*
X136365741Y-108148709D01*
X136371867Y-108149010D01*
G37*
G36*
X134371867Y-108149010D02*
G01*
X134377934Y-108149910D01*
X134383884Y-108151400D01*
X134389659Y-108153467D01*
X134395203Y-108156089D01*
X134400464Y-108159242D01*
X134405391Y-108162896D01*
X134409935Y-108167015D01*
X134414054Y-108171559D01*
X134417708Y-108176486D01*
X134420861Y-108181747D01*
X134423483Y-108187291D01*
X134425550Y-108193066D01*
X134427040Y-108199016D01*
X134427940Y-108205083D01*
X134428241Y-108211209D01*
X134428241Y-108961209D01*
X134427940Y-108967335D01*
X134427040Y-108973402D01*
X134425550Y-108979352D01*
X134423483Y-108985127D01*
X134420861Y-108990671D01*
X134417708Y-108995932D01*
X134414054Y-109000859D01*
X134409935Y-109005403D01*
X134405391Y-109009522D01*
X134400464Y-109013176D01*
X134395203Y-109016329D01*
X134389659Y-109018951D01*
X134383884Y-109021018D01*
X134377934Y-109022508D01*
X134371867Y-109023408D01*
X134365741Y-109023709D01*
X134240741Y-109023709D01*
X134234615Y-109023408D01*
X134228548Y-109022508D01*
X134222598Y-109021018D01*
X134216823Y-109018951D01*
X134211279Y-109016329D01*
X134206018Y-109013176D01*
X134201091Y-109009522D01*
X134196547Y-109005403D01*
X134192428Y-109000859D01*
X134188774Y-108995932D01*
X134185621Y-108990671D01*
X134182999Y-108985127D01*
X134180932Y-108979352D01*
X134179442Y-108973402D01*
X134178542Y-108967335D01*
X134178241Y-108961209D01*
X134178241Y-108211209D01*
X134178542Y-108205083D01*
X134179442Y-108199016D01*
X134180932Y-108193066D01*
X134182999Y-108187291D01*
X134185621Y-108181747D01*
X134188774Y-108176486D01*
X134192428Y-108171559D01*
X134196547Y-108167015D01*
X134201091Y-108162896D01*
X134206018Y-108159242D01*
X134211279Y-108156089D01*
X134216823Y-108153467D01*
X134222598Y-108151400D01*
X134228548Y-108149910D01*
X134234615Y-108149010D01*
X134240741Y-108148709D01*
X134365741Y-108148709D01*
X134371867Y-108149010D01*
G37*
G36*
X134871867Y-108149010D02*
G01*
X134877934Y-108149910D01*
X134883884Y-108151400D01*
X134889659Y-108153467D01*
X134895203Y-108156089D01*
X134900464Y-108159242D01*
X134905391Y-108162896D01*
X134909935Y-108167015D01*
X134914054Y-108171559D01*
X134917708Y-108176486D01*
X134920861Y-108181747D01*
X134923483Y-108187291D01*
X134925550Y-108193066D01*
X134927040Y-108199016D01*
X134927940Y-108205083D01*
X134928241Y-108211209D01*
X134928241Y-108961209D01*
X134927940Y-108967335D01*
X134927040Y-108973402D01*
X134925550Y-108979352D01*
X134923483Y-108985127D01*
X134920861Y-108990671D01*
X134917708Y-108995932D01*
X134914054Y-109000859D01*
X134909935Y-109005403D01*
X134905391Y-109009522D01*
X134900464Y-109013176D01*
X134895203Y-109016329D01*
X134889659Y-109018951D01*
X134883884Y-109021018D01*
X134877934Y-109022508D01*
X134871867Y-109023408D01*
X134865741Y-109023709D01*
X134740741Y-109023709D01*
X134734615Y-109023408D01*
X134728548Y-109022508D01*
X134722598Y-109021018D01*
X134716823Y-109018951D01*
X134711279Y-109016329D01*
X134706018Y-109013176D01*
X134701091Y-109009522D01*
X134696547Y-109005403D01*
X134692428Y-109000859D01*
X134688774Y-108995932D01*
X134685621Y-108990671D01*
X134682999Y-108985127D01*
X134680932Y-108979352D01*
X134679442Y-108973402D01*
X134678542Y-108967335D01*
X134678241Y-108961209D01*
X134678241Y-108211209D01*
X134678542Y-108205083D01*
X134679442Y-108199016D01*
X134680932Y-108193066D01*
X134682999Y-108187291D01*
X134685621Y-108181747D01*
X134688774Y-108176486D01*
X134692428Y-108171559D01*
X134696547Y-108167015D01*
X134701091Y-108162896D01*
X134706018Y-108159242D01*
X134711279Y-108156089D01*
X134716823Y-108153467D01*
X134722598Y-108151400D01*
X134728548Y-108149910D01*
X134734615Y-108149010D01*
X134740741Y-108148709D01*
X134865741Y-108148709D01*
X134871867Y-108149010D01*
G37*
G36*
X134871867Y-105274010D02*
G01*
X134877934Y-105274910D01*
X134883884Y-105276400D01*
X134889659Y-105278467D01*
X134895203Y-105281089D01*
X134900464Y-105284242D01*
X134905391Y-105287896D01*
X134909935Y-105292015D01*
X134914054Y-105296559D01*
X134917708Y-105301486D01*
X134920861Y-105306747D01*
X134923483Y-105312291D01*
X134925550Y-105318066D01*
X134927040Y-105324016D01*
X134927940Y-105330083D01*
X134928241Y-105336209D01*
X134928241Y-106086209D01*
X134927940Y-106092335D01*
X134927040Y-106098402D01*
X134925550Y-106104352D01*
X134923483Y-106110127D01*
X134920861Y-106115671D01*
X134917708Y-106120932D01*
X134914054Y-106125859D01*
X134909935Y-106130403D01*
X134905391Y-106134522D01*
X134900464Y-106138176D01*
X134895203Y-106141329D01*
X134889659Y-106143951D01*
X134883884Y-106146018D01*
X134877934Y-106147508D01*
X134871867Y-106148408D01*
X134865741Y-106148709D01*
X134740741Y-106148709D01*
X134734615Y-106148408D01*
X134728548Y-106147508D01*
X134722598Y-106146018D01*
X134716823Y-106143951D01*
X134711279Y-106141329D01*
X134706018Y-106138176D01*
X134701091Y-106134522D01*
X134696547Y-106130403D01*
X134692428Y-106125859D01*
X134688774Y-106120932D01*
X134685621Y-106115671D01*
X134682999Y-106110127D01*
X134680932Y-106104352D01*
X134679442Y-106098402D01*
X134678542Y-106092335D01*
X134678241Y-106086209D01*
X134678241Y-105336209D01*
X134678542Y-105330083D01*
X134679442Y-105324016D01*
X134680932Y-105318066D01*
X134682999Y-105312291D01*
X134685621Y-105306747D01*
X134688774Y-105301486D01*
X134692428Y-105296559D01*
X134696547Y-105292015D01*
X134701091Y-105287896D01*
X134706018Y-105284242D01*
X134711279Y-105281089D01*
X134716823Y-105278467D01*
X134722598Y-105276400D01*
X134728548Y-105274910D01*
X134734615Y-105274010D01*
X134740741Y-105273709D01*
X134865741Y-105273709D01*
X134871867Y-105274010D01*
G37*
G36*
X134371867Y-105274010D02*
G01*
X134377934Y-105274910D01*
X134383884Y-105276400D01*
X134389659Y-105278467D01*
X134395203Y-105281089D01*
X134400464Y-105284242D01*
X134405391Y-105287896D01*
X134409935Y-105292015D01*
X134414054Y-105296559D01*
X134417708Y-105301486D01*
X134420861Y-105306747D01*
X134423483Y-105312291D01*
X134425550Y-105318066D01*
X134427040Y-105324016D01*
X134427940Y-105330083D01*
X134428241Y-105336209D01*
X134428241Y-106086209D01*
X134427940Y-106092335D01*
X134427040Y-106098402D01*
X134425550Y-106104352D01*
X134423483Y-106110127D01*
X134420861Y-106115671D01*
X134417708Y-106120932D01*
X134414054Y-106125859D01*
X134409935Y-106130403D01*
X134405391Y-106134522D01*
X134400464Y-106138176D01*
X134395203Y-106141329D01*
X134389659Y-106143951D01*
X134383884Y-106146018D01*
X134377934Y-106147508D01*
X134371867Y-106148408D01*
X134365741Y-106148709D01*
X134240741Y-106148709D01*
X134234615Y-106148408D01*
X134228548Y-106147508D01*
X134222598Y-106146018D01*
X134216823Y-106143951D01*
X134211279Y-106141329D01*
X134206018Y-106138176D01*
X134201091Y-106134522D01*
X134196547Y-106130403D01*
X134192428Y-106125859D01*
X134188774Y-106120932D01*
X134185621Y-106115671D01*
X134182999Y-106110127D01*
X134180932Y-106104352D01*
X134179442Y-106098402D01*
X134178542Y-106092335D01*
X134178241Y-106086209D01*
X134178241Y-105336209D01*
X134178542Y-105330083D01*
X134179442Y-105324016D01*
X134180932Y-105318066D01*
X134182999Y-105312291D01*
X134185621Y-105306747D01*
X134188774Y-105301486D01*
X134192428Y-105296559D01*
X134196547Y-105292015D01*
X134201091Y-105287896D01*
X134206018Y-105284242D01*
X134211279Y-105281089D01*
X134216823Y-105278467D01*
X134222598Y-105276400D01*
X134228548Y-105274910D01*
X134234615Y-105274010D01*
X134240741Y-105273709D01*
X134365741Y-105273709D01*
X134371867Y-105274010D01*
G37*
G36*
X136100003Y-106609287D02*
G01*
X136111652Y-106611015D01*
X136123075Y-106613876D01*
X136134163Y-106617843D01*
X136144809Y-106622878D01*
X136154909Y-106628933D01*
X136164368Y-106635948D01*
X136173094Y-106643856D01*
X136181002Y-106652582D01*
X136188017Y-106662041D01*
X136194072Y-106672141D01*
X136199107Y-106682787D01*
X136203074Y-106693875D01*
X136205935Y-106705298D01*
X136207663Y-106716947D01*
X136208241Y-106728709D01*
X136208241Y-106968709D01*
X136207663Y-106980471D01*
X136205935Y-106992120D01*
X136203074Y-107003543D01*
X136199107Y-107014631D01*
X136194072Y-107025277D01*
X136188017Y-107035377D01*
X136181002Y-107044836D01*
X136173094Y-107053562D01*
X136164368Y-107061470D01*
X136154909Y-107068485D01*
X136144809Y-107074540D01*
X136134163Y-107079575D01*
X136123075Y-107083542D01*
X136111652Y-107086403D01*
X136100003Y-107088131D01*
X136088241Y-107088709D01*
X135518241Y-107088709D01*
X135506479Y-107088131D01*
X135494830Y-107086403D01*
X135483407Y-107083542D01*
X135472319Y-107079575D01*
X135461673Y-107074540D01*
X135451573Y-107068485D01*
X135442114Y-107061470D01*
X135433388Y-107053562D01*
X135425480Y-107044836D01*
X135418465Y-107035377D01*
X135412410Y-107025277D01*
X135407375Y-107014631D01*
X135403408Y-107003543D01*
X135400547Y-106992120D01*
X135398819Y-106980471D01*
X135398241Y-106968709D01*
X135398241Y-106728709D01*
X135398819Y-106716947D01*
X135400547Y-106705298D01*
X135403408Y-106693875D01*
X135407375Y-106682787D01*
X135412410Y-106672141D01*
X135418465Y-106662041D01*
X135425480Y-106652582D01*
X135433388Y-106643856D01*
X135442114Y-106635948D01*
X135451573Y-106628933D01*
X135461673Y-106622878D01*
X135472319Y-106617843D01*
X135483407Y-106613876D01*
X135494830Y-106611015D01*
X135506479Y-106609287D01*
X135518241Y-106608709D01*
X136088241Y-106608709D01*
X136100003Y-106609287D01*
G37*
G36*
X135100003Y-107209287D02*
G01*
X135111652Y-107211015D01*
X135123075Y-107213876D01*
X135134163Y-107217843D01*
X135144809Y-107222878D01*
X135154909Y-107228933D01*
X135164368Y-107235948D01*
X135173094Y-107243856D01*
X135181002Y-107252582D01*
X135188017Y-107262041D01*
X135194072Y-107272141D01*
X135199107Y-107282787D01*
X135203074Y-107293875D01*
X135205935Y-107305298D01*
X135207663Y-107316947D01*
X135208241Y-107328709D01*
X135208241Y-107568709D01*
X135207663Y-107580471D01*
X135205935Y-107592120D01*
X135203074Y-107603543D01*
X135199107Y-107614631D01*
X135194072Y-107625277D01*
X135188017Y-107635377D01*
X135181002Y-107644836D01*
X135173094Y-107653562D01*
X135164368Y-107661470D01*
X135154909Y-107668485D01*
X135144809Y-107674540D01*
X135134163Y-107679575D01*
X135123075Y-107683542D01*
X135111652Y-107686403D01*
X135100003Y-107688131D01*
X135088241Y-107688709D01*
X134518241Y-107688709D01*
X134506479Y-107688131D01*
X134494830Y-107686403D01*
X134483407Y-107683542D01*
X134472319Y-107679575D01*
X134461673Y-107674540D01*
X134451573Y-107668485D01*
X134442114Y-107661470D01*
X134433388Y-107653562D01*
X134425480Y-107644836D01*
X134418465Y-107635377D01*
X134412410Y-107625277D01*
X134407375Y-107614631D01*
X134403408Y-107603543D01*
X134400547Y-107592120D01*
X134398819Y-107580471D01*
X134398241Y-107568709D01*
X134398241Y-107328709D01*
X134398819Y-107316947D01*
X134400547Y-107305298D01*
X134403408Y-107293875D01*
X134407375Y-107282787D01*
X134412410Y-107272141D01*
X134418465Y-107262041D01*
X134425480Y-107252582D01*
X134433388Y-107243856D01*
X134442114Y-107235948D01*
X134451573Y-107228933D01*
X134461673Y-107222878D01*
X134472319Y-107217843D01*
X134483407Y-107213876D01*
X134494830Y-107211015D01*
X134506479Y-107209287D01*
X134518241Y-107208709D01*
X135088241Y-107208709D01*
X135100003Y-107209287D01*
G37*
G36*
X136371867Y-105274010D02*
G01*
X136377934Y-105274910D01*
X136383884Y-105276400D01*
X136389659Y-105278467D01*
X136395203Y-105281089D01*
X136400464Y-105284242D01*
X136405391Y-105287896D01*
X136409935Y-105292015D01*
X136414054Y-105296559D01*
X136417708Y-105301486D01*
X136420861Y-105306747D01*
X136423483Y-105312291D01*
X136425550Y-105318066D01*
X136427040Y-105324016D01*
X136427940Y-105330083D01*
X136428241Y-105336209D01*
X136428241Y-106086209D01*
X136427940Y-106092335D01*
X136427040Y-106098402D01*
X136425550Y-106104352D01*
X136423483Y-106110127D01*
X136420861Y-106115671D01*
X136417708Y-106120932D01*
X136414054Y-106125859D01*
X136409935Y-106130403D01*
X136405391Y-106134522D01*
X136400464Y-106138176D01*
X136395203Y-106141329D01*
X136389659Y-106143951D01*
X136383884Y-106146018D01*
X136377934Y-106147508D01*
X136371867Y-106148408D01*
X136365741Y-106148709D01*
X136240741Y-106148709D01*
X136234615Y-106148408D01*
X136228548Y-106147508D01*
X136222598Y-106146018D01*
X136216823Y-106143951D01*
X136211279Y-106141329D01*
X136206018Y-106138176D01*
X136201091Y-106134522D01*
X136196547Y-106130403D01*
X136192428Y-106125859D01*
X136188774Y-106120932D01*
X136185621Y-106115671D01*
X136182999Y-106110127D01*
X136180932Y-106104352D01*
X136179442Y-106098402D01*
X136178542Y-106092335D01*
X136178241Y-106086209D01*
X136178241Y-105336209D01*
X136178542Y-105330083D01*
X136179442Y-105324016D01*
X136180932Y-105318066D01*
X136182999Y-105312291D01*
X136185621Y-105306747D01*
X136188774Y-105301486D01*
X136192428Y-105296559D01*
X136196547Y-105292015D01*
X136201091Y-105287896D01*
X136206018Y-105284242D01*
X136211279Y-105281089D01*
X136216823Y-105278467D01*
X136222598Y-105276400D01*
X136228548Y-105274910D01*
X136234615Y-105274010D01*
X136240741Y-105273709D01*
X136365741Y-105273709D01*
X136371867Y-105274010D01*
G37*
G36*
X135871867Y-105274010D02*
G01*
X135877934Y-105274910D01*
X135883884Y-105276400D01*
X135889659Y-105278467D01*
X135895203Y-105281089D01*
X135900464Y-105284242D01*
X135905391Y-105287896D01*
X135909935Y-105292015D01*
X135914054Y-105296559D01*
X135917708Y-105301486D01*
X135920861Y-105306747D01*
X135923483Y-105312291D01*
X135925550Y-105318066D01*
X135927040Y-105324016D01*
X135927940Y-105330083D01*
X135928241Y-105336209D01*
X135928241Y-106086209D01*
X135927940Y-106092335D01*
X135927040Y-106098402D01*
X135925550Y-106104352D01*
X135923483Y-106110127D01*
X135920861Y-106115671D01*
X135917708Y-106120932D01*
X135914054Y-106125859D01*
X135909935Y-106130403D01*
X135905391Y-106134522D01*
X135900464Y-106138176D01*
X135895203Y-106141329D01*
X135889659Y-106143951D01*
X135883884Y-106146018D01*
X135877934Y-106147508D01*
X135871867Y-106148408D01*
X135865741Y-106148709D01*
X135740741Y-106148709D01*
X135734615Y-106148408D01*
X135728548Y-106147508D01*
X135722598Y-106146018D01*
X135716823Y-106143951D01*
X135711279Y-106141329D01*
X135706018Y-106138176D01*
X135701091Y-106134522D01*
X135696547Y-106130403D01*
X135692428Y-106125859D01*
X135688774Y-106120932D01*
X135685621Y-106115671D01*
X135682999Y-106110127D01*
X135680932Y-106104352D01*
X135679442Y-106098402D01*
X135678542Y-106092335D01*
X135678241Y-106086209D01*
X135678241Y-105336209D01*
X135678542Y-105330083D01*
X135679442Y-105324016D01*
X135680932Y-105318066D01*
X135682999Y-105312291D01*
X135685621Y-105306747D01*
X135688774Y-105301486D01*
X135692428Y-105296559D01*
X135696547Y-105292015D01*
X135701091Y-105287896D01*
X135706018Y-105284242D01*
X135711279Y-105281089D01*
X135716823Y-105278467D01*
X135722598Y-105276400D01*
X135728548Y-105274910D01*
X135734615Y-105274010D01*
X135740741Y-105273709D01*
X135865741Y-105273709D01*
X135871867Y-105274010D01*
G37*
G36*
X135371867Y-105274010D02*
G01*
X135377934Y-105274910D01*
X135383884Y-105276400D01*
X135389659Y-105278467D01*
X135395203Y-105281089D01*
X135400464Y-105284242D01*
X135405391Y-105287896D01*
X135409935Y-105292015D01*
X135414054Y-105296559D01*
X135417708Y-105301486D01*
X135420861Y-105306747D01*
X135423483Y-105312291D01*
X135425550Y-105318066D01*
X135427040Y-105324016D01*
X135427940Y-105330083D01*
X135428241Y-105336209D01*
X135428241Y-106086209D01*
X135427940Y-106092335D01*
X135427040Y-106098402D01*
X135425550Y-106104352D01*
X135423483Y-106110127D01*
X135420861Y-106115671D01*
X135417708Y-106120932D01*
X135414054Y-106125859D01*
X135409935Y-106130403D01*
X135405391Y-106134522D01*
X135400464Y-106138176D01*
X135395203Y-106141329D01*
X135389659Y-106143951D01*
X135383884Y-106146018D01*
X135377934Y-106147508D01*
X135371867Y-106148408D01*
X135365741Y-106148709D01*
X135240741Y-106148709D01*
X135234615Y-106148408D01*
X135228548Y-106147508D01*
X135222598Y-106146018D01*
X135216823Y-106143951D01*
X135211279Y-106141329D01*
X135206018Y-106138176D01*
X135201091Y-106134522D01*
X135196547Y-106130403D01*
X135192428Y-106125859D01*
X135188774Y-106120932D01*
X135185621Y-106115671D01*
X135182999Y-106110127D01*
X135180932Y-106104352D01*
X135179442Y-106098402D01*
X135178542Y-106092335D01*
X135178241Y-106086209D01*
X135178241Y-105336209D01*
X135178542Y-105330083D01*
X135179442Y-105324016D01*
X135180932Y-105318066D01*
X135182999Y-105312291D01*
X135185621Y-105306747D01*
X135188774Y-105301486D01*
X135192428Y-105296559D01*
X135196547Y-105292015D01*
X135201091Y-105287896D01*
X135206018Y-105284242D01*
X135211279Y-105281089D01*
X135216823Y-105278467D01*
X135222598Y-105276400D01*
X135228548Y-105274910D01*
X135234615Y-105274010D01*
X135240741Y-105273709D01*
X135365741Y-105273709D01*
X135371867Y-105274010D01*
G37*
G36*
X122883200Y-95116561D02*
G01*
X122897518Y-95118685D01*
X122911559Y-95122202D01*
X122925188Y-95127079D01*
X122938273Y-95133268D01*
X122950689Y-95140709D01*
X122962315Y-95149332D01*
X122973040Y-95159053D01*
X122982761Y-95169778D01*
X122991384Y-95181404D01*
X122998825Y-95193820D01*
X123005014Y-95206905D01*
X123009891Y-95220534D01*
X123013408Y-95234575D01*
X123015532Y-95248893D01*
X123016242Y-95263351D01*
X123016242Y-95608351D01*
X123015532Y-95622809D01*
X123013408Y-95637127D01*
X123009891Y-95651168D01*
X123005014Y-95664797D01*
X122998825Y-95677882D01*
X122991384Y-95690298D01*
X122982761Y-95701924D01*
X122973040Y-95712649D01*
X122962315Y-95722370D01*
X122950689Y-95730993D01*
X122938273Y-95738434D01*
X122925188Y-95744623D01*
X122911559Y-95749500D01*
X122897518Y-95753017D01*
X122883200Y-95755141D01*
X122868742Y-95755851D01*
X122573742Y-95755851D01*
X122559284Y-95755141D01*
X122544966Y-95753017D01*
X122530925Y-95749500D01*
X122517296Y-95744623D01*
X122504211Y-95738434D01*
X122491795Y-95730993D01*
X122480169Y-95722370D01*
X122469444Y-95712649D01*
X122459723Y-95701924D01*
X122451100Y-95690298D01*
X122443659Y-95677882D01*
X122437470Y-95664797D01*
X122432593Y-95651168D01*
X122429076Y-95637127D01*
X122426952Y-95622809D01*
X122426242Y-95608351D01*
X122426242Y-95263351D01*
X122426952Y-95248893D01*
X122429076Y-95234575D01*
X122432593Y-95220534D01*
X122437470Y-95206905D01*
X122443659Y-95193820D01*
X122451100Y-95181404D01*
X122459723Y-95169778D01*
X122469444Y-95159053D01*
X122480169Y-95149332D01*
X122491795Y-95140709D01*
X122504211Y-95133268D01*
X122517296Y-95127079D01*
X122530925Y-95122202D01*
X122544966Y-95118685D01*
X122559284Y-95116561D01*
X122573742Y-95115851D01*
X122868742Y-95115851D01*
X122883200Y-95116561D01*
G37*
G36*
X123853200Y-95116561D02*
G01*
X123867518Y-95118685D01*
X123881559Y-95122202D01*
X123895188Y-95127079D01*
X123908273Y-95133268D01*
X123920689Y-95140709D01*
X123932315Y-95149332D01*
X123943040Y-95159053D01*
X123952761Y-95169778D01*
X123961384Y-95181404D01*
X123968825Y-95193820D01*
X123975014Y-95206905D01*
X123979891Y-95220534D01*
X123983408Y-95234575D01*
X123985532Y-95248893D01*
X123986242Y-95263351D01*
X123986242Y-95608351D01*
X123985532Y-95622809D01*
X123983408Y-95637127D01*
X123979891Y-95651168D01*
X123975014Y-95664797D01*
X123968825Y-95677882D01*
X123961384Y-95690298D01*
X123952761Y-95701924D01*
X123943040Y-95712649D01*
X123932315Y-95722370D01*
X123920689Y-95730993D01*
X123908273Y-95738434D01*
X123895188Y-95744623D01*
X123881559Y-95749500D01*
X123867518Y-95753017D01*
X123853200Y-95755141D01*
X123838742Y-95755851D01*
X123543742Y-95755851D01*
X123529284Y-95755141D01*
X123514966Y-95753017D01*
X123500925Y-95749500D01*
X123487296Y-95744623D01*
X123474211Y-95738434D01*
X123461795Y-95730993D01*
X123450169Y-95722370D01*
X123439444Y-95712649D01*
X123429723Y-95701924D01*
X123421100Y-95690298D01*
X123413659Y-95677882D01*
X123407470Y-95664797D01*
X123402593Y-95651168D01*
X123399076Y-95637127D01*
X123396952Y-95622809D01*
X123396242Y-95608351D01*
X123396242Y-95263351D01*
X123396952Y-95248893D01*
X123399076Y-95234575D01*
X123402593Y-95220534D01*
X123407470Y-95206905D01*
X123413659Y-95193820D01*
X123421100Y-95181404D01*
X123429723Y-95169778D01*
X123439444Y-95159053D01*
X123450169Y-95149332D01*
X123461795Y-95140709D01*
X123474211Y-95133268D01*
X123487296Y-95127079D01*
X123500925Y-95122202D01*
X123514966Y-95118685D01*
X123529284Y-95116561D01*
X123543742Y-95115851D01*
X123838742Y-95115851D01*
X123853200Y-95116561D01*
G37*
G36*
X122883200Y-96345132D02*
G01*
X122897518Y-96347256D01*
X122911559Y-96350773D01*
X122925188Y-96355650D01*
X122938273Y-96361839D01*
X122950689Y-96369280D01*
X122962315Y-96377903D01*
X122973040Y-96387624D01*
X122982761Y-96398349D01*
X122991384Y-96409975D01*
X122998825Y-96422391D01*
X123005014Y-96435476D01*
X123009891Y-96449105D01*
X123013408Y-96463146D01*
X123015532Y-96477464D01*
X123016242Y-96491922D01*
X123016242Y-96836922D01*
X123015532Y-96851380D01*
X123013408Y-96865698D01*
X123009891Y-96879739D01*
X123005014Y-96893368D01*
X122998825Y-96906453D01*
X122991384Y-96918869D01*
X122982761Y-96930495D01*
X122973040Y-96941220D01*
X122962315Y-96950941D01*
X122950689Y-96959564D01*
X122938273Y-96967005D01*
X122925188Y-96973194D01*
X122911559Y-96978071D01*
X122897518Y-96981588D01*
X122883200Y-96983712D01*
X122868742Y-96984422D01*
X122573742Y-96984422D01*
X122559284Y-96983712D01*
X122544966Y-96981588D01*
X122530925Y-96978071D01*
X122517296Y-96973194D01*
X122504211Y-96967005D01*
X122491795Y-96959564D01*
X122480169Y-96950941D01*
X122469444Y-96941220D01*
X122459723Y-96930495D01*
X122451100Y-96918869D01*
X122443659Y-96906453D01*
X122437470Y-96893368D01*
X122432593Y-96879739D01*
X122429076Y-96865698D01*
X122426952Y-96851380D01*
X122426242Y-96836922D01*
X122426242Y-96491922D01*
X122426952Y-96477464D01*
X122429076Y-96463146D01*
X122432593Y-96449105D01*
X122437470Y-96435476D01*
X122443659Y-96422391D01*
X122451100Y-96409975D01*
X122459723Y-96398349D01*
X122469444Y-96387624D01*
X122480169Y-96377903D01*
X122491795Y-96369280D01*
X122504211Y-96361839D01*
X122517296Y-96355650D01*
X122530925Y-96350773D01*
X122544966Y-96347256D01*
X122559284Y-96345132D01*
X122573742Y-96344422D01*
X122868742Y-96344422D01*
X122883200Y-96345132D01*
G37*
G36*
X123853200Y-96345132D02*
G01*
X123867518Y-96347256D01*
X123881559Y-96350773D01*
X123895188Y-96355650D01*
X123908273Y-96361839D01*
X123920689Y-96369280D01*
X123932315Y-96377903D01*
X123943040Y-96387624D01*
X123952761Y-96398349D01*
X123961384Y-96409975D01*
X123968825Y-96422391D01*
X123975014Y-96435476D01*
X123979891Y-96449105D01*
X123983408Y-96463146D01*
X123985532Y-96477464D01*
X123986242Y-96491922D01*
X123986242Y-96836922D01*
X123985532Y-96851380D01*
X123983408Y-96865698D01*
X123979891Y-96879739D01*
X123975014Y-96893368D01*
X123968825Y-96906453D01*
X123961384Y-96918869D01*
X123952761Y-96930495D01*
X123943040Y-96941220D01*
X123932315Y-96950941D01*
X123920689Y-96959564D01*
X123908273Y-96967005D01*
X123895188Y-96973194D01*
X123881559Y-96978071D01*
X123867518Y-96981588D01*
X123853200Y-96983712D01*
X123838742Y-96984422D01*
X123543742Y-96984422D01*
X123529284Y-96983712D01*
X123514966Y-96981588D01*
X123500925Y-96978071D01*
X123487296Y-96973194D01*
X123474211Y-96967005D01*
X123461795Y-96959564D01*
X123450169Y-96950941D01*
X123439444Y-96941220D01*
X123429723Y-96930495D01*
X123421100Y-96918869D01*
X123413659Y-96906453D01*
X123407470Y-96893368D01*
X123402593Y-96879739D01*
X123399076Y-96865698D01*
X123396952Y-96851380D01*
X123396242Y-96836922D01*
X123396242Y-96491922D01*
X123396952Y-96477464D01*
X123399076Y-96463146D01*
X123402593Y-96449105D01*
X123407470Y-96435476D01*
X123413659Y-96422391D01*
X123421100Y-96409975D01*
X123429723Y-96398349D01*
X123439444Y-96387624D01*
X123450169Y-96377903D01*
X123461795Y-96369280D01*
X123474211Y-96361839D01*
X123487296Y-96355650D01*
X123500925Y-96350773D01*
X123514966Y-96347256D01*
X123529284Y-96345132D01*
X123543742Y-96344422D01*
X123838742Y-96344422D01*
X123853200Y-96345132D01*
G37*
G36*
X122883200Y-97573703D02*
G01*
X122897518Y-97575827D01*
X122911559Y-97579344D01*
X122925188Y-97584221D01*
X122938273Y-97590410D01*
X122950689Y-97597851D01*
X122962315Y-97606474D01*
X122973040Y-97616195D01*
X122982761Y-97626920D01*
X122991384Y-97638546D01*
X122998825Y-97650962D01*
X123005014Y-97664047D01*
X123009891Y-97677676D01*
X123013408Y-97691717D01*
X123015532Y-97706035D01*
X123016242Y-97720493D01*
X123016242Y-98065493D01*
X123015532Y-98079951D01*
X123013408Y-98094269D01*
X123009891Y-98108310D01*
X123005014Y-98121939D01*
X122998825Y-98135024D01*
X122991384Y-98147440D01*
X122982761Y-98159066D01*
X122973040Y-98169791D01*
X122962315Y-98179512D01*
X122950689Y-98188135D01*
X122938273Y-98195576D01*
X122925188Y-98201765D01*
X122911559Y-98206642D01*
X122897518Y-98210159D01*
X122883200Y-98212283D01*
X122868742Y-98212993D01*
X122573742Y-98212993D01*
X122559284Y-98212283D01*
X122544966Y-98210159D01*
X122530925Y-98206642D01*
X122517296Y-98201765D01*
X122504211Y-98195576D01*
X122491795Y-98188135D01*
X122480169Y-98179512D01*
X122469444Y-98169791D01*
X122459723Y-98159066D01*
X122451100Y-98147440D01*
X122443659Y-98135024D01*
X122437470Y-98121939D01*
X122432593Y-98108310D01*
X122429076Y-98094269D01*
X122426952Y-98079951D01*
X122426242Y-98065493D01*
X122426242Y-97720493D01*
X122426952Y-97706035D01*
X122429076Y-97691717D01*
X122432593Y-97677676D01*
X122437470Y-97664047D01*
X122443659Y-97650962D01*
X122451100Y-97638546D01*
X122459723Y-97626920D01*
X122469444Y-97616195D01*
X122480169Y-97606474D01*
X122491795Y-97597851D01*
X122504211Y-97590410D01*
X122517296Y-97584221D01*
X122530925Y-97579344D01*
X122544966Y-97575827D01*
X122559284Y-97573703D01*
X122573742Y-97572993D01*
X122868742Y-97572993D01*
X122883200Y-97573703D01*
G37*
G36*
X123853200Y-97573703D02*
G01*
X123867518Y-97575827D01*
X123881559Y-97579344D01*
X123895188Y-97584221D01*
X123908273Y-97590410D01*
X123920689Y-97597851D01*
X123932315Y-97606474D01*
X123943040Y-97616195D01*
X123952761Y-97626920D01*
X123961384Y-97638546D01*
X123968825Y-97650962D01*
X123975014Y-97664047D01*
X123979891Y-97677676D01*
X123983408Y-97691717D01*
X123985532Y-97706035D01*
X123986242Y-97720493D01*
X123986242Y-98065493D01*
X123985532Y-98079951D01*
X123983408Y-98094269D01*
X123979891Y-98108310D01*
X123975014Y-98121939D01*
X123968825Y-98135024D01*
X123961384Y-98147440D01*
X123952761Y-98159066D01*
X123943040Y-98169791D01*
X123932315Y-98179512D01*
X123920689Y-98188135D01*
X123908273Y-98195576D01*
X123895188Y-98201765D01*
X123881559Y-98206642D01*
X123867518Y-98210159D01*
X123853200Y-98212283D01*
X123838742Y-98212993D01*
X123543742Y-98212993D01*
X123529284Y-98212283D01*
X123514966Y-98210159D01*
X123500925Y-98206642D01*
X123487296Y-98201765D01*
X123474211Y-98195576D01*
X123461795Y-98188135D01*
X123450169Y-98179512D01*
X123439444Y-98169791D01*
X123429723Y-98159066D01*
X123421100Y-98147440D01*
X123413659Y-98135024D01*
X123407470Y-98121939D01*
X123402593Y-98108310D01*
X123399076Y-98094269D01*
X123396952Y-98079951D01*
X123396242Y-98065493D01*
X123396242Y-97720493D01*
X123396952Y-97706035D01*
X123399076Y-97691717D01*
X123402593Y-97677676D01*
X123407470Y-97664047D01*
X123413659Y-97650962D01*
X123421100Y-97638546D01*
X123429723Y-97626920D01*
X123439444Y-97616195D01*
X123450169Y-97606474D01*
X123461795Y-97597851D01*
X123474211Y-97590410D01*
X123487296Y-97584221D01*
X123500925Y-97579344D01*
X123514966Y-97575827D01*
X123529284Y-97573703D01*
X123543742Y-97572993D01*
X123838742Y-97572993D01*
X123853200Y-97573703D01*
G37*
G36*
X122883200Y-98802274D02*
G01*
X122897518Y-98804398D01*
X122911559Y-98807915D01*
X122925188Y-98812792D01*
X122938273Y-98818981D01*
X122950689Y-98826422D01*
X122962315Y-98835045D01*
X122973040Y-98844766D01*
X122982761Y-98855491D01*
X122991384Y-98867117D01*
X122998825Y-98879533D01*
X123005014Y-98892618D01*
X123009891Y-98906247D01*
X123013408Y-98920288D01*
X123015532Y-98934606D01*
X123016242Y-98949064D01*
X123016242Y-99294064D01*
X123015532Y-99308522D01*
X123013408Y-99322840D01*
X123009891Y-99336881D01*
X123005014Y-99350510D01*
X122998825Y-99363595D01*
X122991384Y-99376011D01*
X122982761Y-99387637D01*
X122973040Y-99398362D01*
X122962315Y-99408083D01*
X122950689Y-99416706D01*
X122938273Y-99424147D01*
X122925188Y-99430336D01*
X122911559Y-99435213D01*
X122897518Y-99438730D01*
X122883200Y-99440854D01*
X122868742Y-99441564D01*
X122573742Y-99441564D01*
X122559284Y-99440854D01*
X122544966Y-99438730D01*
X122530925Y-99435213D01*
X122517296Y-99430336D01*
X122504211Y-99424147D01*
X122491795Y-99416706D01*
X122480169Y-99408083D01*
X122469444Y-99398362D01*
X122459723Y-99387637D01*
X122451100Y-99376011D01*
X122443659Y-99363595D01*
X122437470Y-99350510D01*
X122432593Y-99336881D01*
X122429076Y-99322840D01*
X122426952Y-99308522D01*
X122426242Y-99294064D01*
X122426242Y-98949064D01*
X122426952Y-98934606D01*
X122429076Y-98920288D01*
X122432593Y-98906247D01*
X122437470Y-98892618D01*
X122443659Y-98879533D01*
X122451100Y-98867117D01*
X122459723Y-98855491D01*
X122469444Y-98844766D01*
X122480169Y-98835045D01*
X122491795Y-98826422D01*
X122504211Y-98818981D01*
X122517296Y-98812792D01*
X122530925Y-98807915D01*
X122544966Y-98804398D01*
X122559284Y-98802274D01*
X122573742Y-98801564D01*
X122868742Y-98801564D01*
X122883200Y-98802274D01*
G37*
G36*
X123853200Y-98802274D02*
G01*
X123867518Y-98804398D01*
X123881559Y-98807915D01*
X123895188Y-98812792D01*
X123908273Y-98818981D01*
X123920689Y-98826422D01*
X123932315Y-98835045D01*
X123943040Y-98844766D01*
X123952761Y-98855491D01*
X123961384Y-98867117D01*
X123968825Y-98879533D01*
X123975014Y-98892618D01*
X123979891Y-98906247D01*
X123983408Y-98920288D01*
X123985532Y-98934606D01*
X123986242Y-98949064D01*
X123986242Y-99294064D01*
X123985532Y-99308522D01*
X123983408Y-99322840D01*
X123979891Y-99336881D01*
X123975014Y-99350510D01*
X123968825Y-99363595D01*
X123961384Y-99376011D01*
X123952761Y-99387637D01*
X123943040Y-99398362D01*
X123932315Y-99408083D01*
X123920689Y-99416706D01*
X123908273Y-99424147D01*
X123895188Y-99430336D01*
X123881559Y-99435213D01*
X123867518Y-99438730D01*
X123853200Y-99440854D01*
X123838742Y-99441564D01*
X123543742Y-99441564D01*
X123529284Y-99440854D01*
X123514966Y-99438730D01*
X123500925Y-99435213D01*
X123487296Y-99430336D01*
X123474211Y-99424147D01*
X123461795Y-99416706D01*
X123450169Y-99408083D01*
X123439444Y-99398362D01*
X123429723Y-99387637D01*
X123421100Y-99376011D01*
X123413659Y-99363595D01*
X123407470Y-99350510D01*
X123402593Y-99336881D01*
X123399076Y-99322840D01*
X123396952Y-99308522D01*
X123396242Y-99294064D01*
X123396242Y-98949064D01*
X123396952Y-98934606D01*
X123399076Y-98920288D01*
X123402593Y-98906247D01*
X123407470Y-98892618D01*
X123413659Y-98879533D01*
X123421100Y-98867117D01*
X123429723Y-98855491D01*
X123439444Y-98844766D01*
X123450169Y-98835045D01*
X123461795Y-98826422D01*
X123474211Y-98818981D01*
X123487296Y-98812792D01*
X123500925Y-98807915D01*
X123514966Y-98804398D01*
X123529284Y-98802274D01*
X123543742Y-98801564D01*
X123838742Y-98801564D01*
X123853200Y-98802274D01*
G37*
G36*
X122883200Y-101259419D02*
G01*
X122897518Y-101261543D01*
X122911559Y-101265060D01*
X122925188Y-101269937D01*
X122938273Y-101276126D01*
X122950689Y-101283567D01*
X122962315Y-101292190D01*
X122973040Y-101301911D01*
X122982761Y-101312636D01*
X122991384Y-101324262D01*
X122998825Y-101336678D01*
X123005014Y-101349763D01*
X123009891Y-101363392D01*
X123013408Y-101377433D01*
X123015532Y-101391751D01*
X123016242Y-101406209D01*
X123016242Y-101751209D01*
X123015532Y-101765667D01*
X123013408Y-101779985D01*
X123009891Y-101794026D01*
X123005014Y-101807655D01*
X122998825Y-101820740D01*
X122991384Y-101833156D01*
X122982761Y-101844782D01*
X122973040Y-101855507D01*
X122962315Y-101865228D01*
X122950689Y-101873851D01*
X122938273Y-101881292D01*
X122925188Y-101887481D01*
X122911559Y-101892358D01*
X122897518Y-101895875D01*
X122883200Y-101897999D01*
X122868742Y-101898709D01*
X122573742Y-101898709D01*
X122559284Y-101897999D01*
X122544966Y-101895875D01*
X122530925Y-101892358D01*
X122517296Y-101887481D01*
X122504211Y-101881292D01*
X122491795Y-101873851D01*
X122480169Y-101865228D01*
X122469444Y-101855507D01*
X122459723Y-101844782D01*
X122451100Y-101833156D01*
X122443659Y-101820740D01*
X122437470Y-101807655D01*
X122432593Y-101794026D01*
X122429076Y-101779985D01*
X122426952Y-101765667D01*
X122426242Y-101751209D01*
X122426242Y-101406209D01*
X122426952Y-101391751D01*
X122429076Y-101377433D01*
X122432593Y-101363392D01*
X122437470Y-101349763D01*
X122443659Y-101336678D01*
X122451100Y-101324262D01*
X122459723Y-101312636D01*
X122469444Y-101301911D01*
X122480169Y-101292190D01*
X122491795Y-101283567D01*
X122504211Y-101276126D01*
X122517296Y-101269937D01*
X122530925Y-101265060D01*
X122544966Y-101261543D01*
X122559284Y-101259419D01*
X122573742Y-101258709D01*
X122868742Y-101258709D01*
X122883200Y-101259419D01*
G37*
G36*
X123853200Y-101259419D02*
G01*
X123867518Y-101261543D01*
X123881559Y-101265060D01*
X123895188Y-101269937D01*
X123908273Y-101276126D01*
X123920689Y-101283567D01*
X123932315Y-101292190D01*
X123943040Y-101301911D01*
X123952761Y-101312636D01*
X123961384Y-101324262D01*
X123968825Y-101336678D01*
X123975014Y-101349763D01*
X123979891Y-101363392D01*
X123983408Y-101377433D01*
X123985532Y-101391751D01*
X123986242Y-101406209D01*
X123986242Y-101751209D01*
X123985532Y-101765667D01*
X123983408Y-101779985D01*
X123979891Y-101794026D01*
X123975014Y-101807655D01*
X123968825Y-101820740D01*
X123961384Y-101833156D01*
X123952761Y-101844782D01*
X123943040Y-101855507D01*
X123932315Y-101865228D01*
X123920689Y-101873851D01*
X123908273Y-101881292D01*
X123895188Y-101887481D01*
X123881559Y-101892358D01*
X123867518Y-101895875D01*
X123853200Y-101897999D01*
X123838742Y-101898709D01*
X123543742Y-101898709D01*
X123529284Y-101897999D01*
X123514966Y-101895875D01*
X123500925Y-101892358D01*
X123487296Y-101887481D01*
X123474211Y-101881292D01*
X123461795Y-101873851D01*
X123450169Y-101865228D01*
X123439444Y-101855507D01*
X123429723Y-101844782D01*
X123421100Y-101833156D01*
X123413659Y-101820740D01*
X123407470Y-101807655D01*
X123402593Y-101794026D01*
X123399076Y-101779985D01*
X123396952Y-101765667D01*
X123396242Y-101751209D01*
X123396242Y-101406209D01*
X123396952Y-101391751D01*
X123399076Y-101377433D01*
X123402593Y-101363392D01*
X123407470Y-101349763D01*
X123413659Y-101336678D01*
X123421100Y-101324262D01*
X123429723Y-101312636D01*
X123439444Y-101301911D01*
X123450169Y-101292190D01*
X123461795Y-101283567D01*
X123474211Y-101276126D01*
X123487296Y-101269937D01*
X123500925Y-101265060D01*
X123514966Y-101261543D01*
X123529284Y-101259419D01*
X123543742Y-101258709D01*
X123838742Y-101258709D01*
X123853200Y-101259419D01*
G37*
G36*
X122883200Y-100030845D02*
G01*
X122897518Y-100032969D01*
X122911559Y-100036486D01*
X122925188Y-100041363D01*
X122938273Y-100047552D01*
X122950689Y-100054993D01*
X122962315Y-100063616D01*
X122973040Y-100073337D01*
X122982761Y-100084062D01*
X122991384Y-100095688D01*
X122998825Y-100108104D01*
X123005014Y-100121189D01*
X123009891Y-100134818D01*
X123013408Y-100148859D01*
X123015532Y-100163177D01*
X123016242Y-100177635D01*
X123016242Y-100522635D01*
X123015532Y-100537093D01*
X123013408Y-100551411D01*
X123009891Y-100565452D01*
X123005014Y-100579081D01*
X122998825Y-100592166D01*
X122991384Y-100604582D01*
X122982761Y-100616208D01*
X122973040Y-100626933D01*
X122962315Y-100636654D01*
X122950689Y-100645277D01*
X122938273Y-100652718D01*
X122925188Y-100658907D01*
X122911559Y-100663784D01*
X122897518Y-100667301D01*
X122883200Y-100669425D01*
X122868742Y-100670135D01*
X122573742Y-100670135D01*
X122559284Y-100669425D01*
X122544966Y-100667301D01*
X122530925Y-100663784D01*
X122517296Y-100658907D01*
X122504211Y-100652718D01*
X122491795Y-100645277D01*
X122480169Y-100636654D01*
X122469444Y-100626933D01*
X122459723Y-100616208D01*
X122451100Y-100604582D01*
X122443659Y-100592166D01*
X122437470Y-100579081D01*
X122432593Y-100565452D01*
X122429076Y-100551411D01*
X122426952Y-100537093D01*
X122426242Y-100522635D01*
X122426242Y-100177635D01*
X122426952Y-100163177D01*
X122429076Y-100148859D01*
X122432593Y-100134818D01*
X122437470Y-100121189D01*
X122443659Y-100108104D01*
X122451100Y-100095688D01*
X122459723Y-100084062D01*
X122469444Y-100073337D01*
X122480169Y-100063616D01*
X122491795Y-100054993D01*
X122504211Y-100047552D01*
X122517296Y-100041363D01*
X122530925Y-100036486D01*
X122544966Y-100032969D01*
X122559284Y-100030845D01*
X122573742Y-100030135D01*
X122868742Y-100030135D01*
X122883200Y-100030845D01*
G37*
G36*
X123853200Y-100030845D02*
G01*
X123867518Y-100032969D01*
X123881559Y-100036486D01*
X123895188Y-100041363D01*
X123908273Y-100047552D01*
X123920689Y-100054993D01*
X123932315Y-100063616D01*
X123943040Y-100073337D01*
X123952761Y-100084062D01*
X123961384Y-100095688D01*
X123968825Y-100108104D01*
X123975014Y-100121189D01*
X123979891Y-100134818D01*
X123983408Y-100148859D01*
X123985532Y-100163177D01*
X123986242Y-100177635D01*
X123986242Y-100522635D01*
X123985532Y-100537093D01*
X123983408Y-100551411D01*
X123979891Y-100565452D01*
X123975014Y-100579081D01*
X123968825Y-100592166D01*
X123961384Y-100604582D01*
X123952761Y-100616208D01*
X123943040Y-100626933D01*
X123932315Y-100636654D01*
X123920689Y-100645277D01*
X123908273Y-100652718D01*
X123895188Y-100658907D01*
X123881559Y-100663784D01*
X123867518Y-100667301D01*
X123853200Y-100669425D01*
X123838742Y-100670135D01*
X123543742Y-100670135D01*
X123529284Y-100669425D01*
X123514966Y-100667301D01*
X123500925Y-100663784D01*
X123487296Y-100658907D01*
X123474211Y-100652718D01*
X123461795Y-100645277D01*
X123450169Y-100636654D01*
X123439444Y-100626933D01*
X123429723Y-100616208D01*
X123421100Y-100604582D01*
X123413659Y-100592166D01*
X123407470Y-100579081D01*
X123402593Y-100565452D01*
X123399076Y-100551411D01*
X123396952Y-100537093D01*
X123396242Y-100522635D01*
X123396242Y-100177635D01*
X123396952Y-100163177D01*
X123399076Y-100148859D01*
X123402593Y-100134818D01*
X123407470Y-100121189D01*
X123413659Y-100108104D01*
X123421100Y-100095688D01*
X123429723Y-100084062D01*
X123439444Y-100073337D01*
X123450169Y-100063616D01*
X123461795Y-100054993D01*
X123474211Y-100047552D01*
X123487296Y-100041363D01*
X123500925Y-100036486D01*
X123514966Y-100032969D01*
X123529284Y-100030845D01*
X123543742Y-100030135D01*
X123838742Y-100030135D01*
X123853200Y-100030845D01*
G37*
G36*
X122883200Y-93887990D02*
G01*
X122897518Y-93890114D01*
X122911559Y-93893631D01*
X122925188Y-93898508D01*
X122938273Y-93904697D01*
X122950689Y-93912138D01*
X122962315Y-93920761D01*
X122973040Y-93930482D01*
X122982761Y-93941207D01*
X122991384Y-93952833D01*
X122998825Y-93965249D01*
X123005014Y-93978334D01*
X123009891Y-93991963D01*
X123013408Y-94006004D01*
X123015532Y-94020322D01*
X123016242Y-94034780D01*
X123016242Y-94379780D01*
X123015532Y-94394238D01*
X123013408Y-94408556D01*
X123009891Y-94422597D01*
X123005014Y-94436226D01*
X122998825Y-94449311D01*
X122991384Y-94461727D01*
X122982761Y-94473353D01*
X122973040Y-94484078D01*
X122962315Y-94493799D01*
X122950689Y-94502422D01*
X122938273Y-94509863D01*
X122925188Y-94516052D01*
X122911559Y-94520929D01*
X122897518Y-94524446D01*
X122883200Y-94526570D01*
X122868742Y-94527280D01*
X122573742Y-94527280D01*
X122559284Y-94526570D01*
X122544966Y-94524446D01*
X122530925Y-94520929D01*
X122517296Y-94516052D01*
X122504211Y-94509863D01*
X122491795Y-94502422D01*
X122480169Y-94493799D01*
X122469444Y-94484078D01*
X122459723Y-94473353D01*
X122451100Y-94461727D01*
X122443659Y-94449311D01*
X122437470Y-94436226D01*
X122432593Y-94422597D01*
X122429076Y-94408556D01*
X122426952Y-94394238D01*
X122426242Y-94379780D01*
X122426242Y-94034780D01*
X122426952Y-94020322D01*
X122429076Y-94006004D01*
X122432593Y-93991963D01*
X122437470Y-93978334D01*
X122443659Y-93965249D01*
X122451100Y-93952833D01*
X122459723Y-93941207D01*
X122469444Y-93930482D01*
X122480169Y-93920761D01*
X122491795Y-93912138D01*
X122504211Y-93904697D01*
X122517296Y-93898508D01*
X122530925Y-93893631D01*
X122544966Y-93890114D01*
X122559284Y-93887990D01*
X122573742Y-93887280D01*
X122868742Y-93887280D01*
X122883200Y-93887990D01*
G37*
G36*
X123853200Y-93887990D02*
G01*
X123867518Y-93890114D01*
X123881559Y-93893631D01*
X123895188Y-93898508D01*
X123908273Y-93904697D01*
X123920689Y-93912138D01*
X123932315Y-93920761D01*
X123943040Y-93930482D01*
X123952761Y-93941207D01*
X123961384Y-93952833D01*
X123968825Y-93965249D01*
X123975014Y-93978334D01*
X123979891Y-93991963D01*
X123983408Y-94006004D01*
X123985532Y-94020322D01*
X123986242Y-94034780D01*
X123986242Y-94379780D01*
X123985532Y-94394238D01*
X123983408Y-94408556D01*
X123979891Y-94422597D01*
X123975014Y-94436226D01*
X123968825Y-94449311D01*
X123961384Y-94461727D01*
X123952761Y-94473353D01*
X123943040Y-94484078D01*
X123932315Y-94493799D01*
X123920689Y-94502422D01*
X123908273Y-94509863D01*
X123895188Y-94516052D01*
X123881559Y-94520929D01*
X123867518Y-94524446D01*
X123853200Y-94526570D01*
X123838742Y-94527280D01*
X123543742Y-94527280D01*
X123529284Y-94526570D01*
X123514966Y-94524446D01*
X123500925Y-94520929D01*
X123487296Y-94516052D01*
X123474211Y-94509863D01*
X123461795Y-94502422D01*
X123450169Y-94493799D01*
X123439444Y-94484078D01*
X123429723Y-94473353D01*
X123421100Y-94461727D01*
X123413659Y-94449311D01*
X123407470Y-94436226D01*
X123402593Y-94422597D01*
X123399076Y-94408556D01*
X123396952Y-94394238D01*
X123396242Y-94379780D01*
X123396242Y-94034780D01*
X123396952Y-94020322D01*
X123399076Y-94006004D01*
X123402593Y-93991963D01*
X123407470Y-93978334D01*
X123413659Y-93965249D01*
X123421100Y-93952833D01*
X123429723Y-93941207D01*
X123439444Y-93930482D01*
X123450169Y-93920761D01*
X123461795Y-93912138D01*
X123474211Y-93904697D01*
X123487296Y-93898508D01*
X123500925Y-93893631D01*
X123514966Y-93890114D01*
X123529284Y-93887990D01*
X123543742Y-93887280D01*
X123838742Y-93887280D01*
X123853200Y-93887990D01*
G37*
G36*
X122883200Y-92659419D02*
G01*
X122897518Y-92661543D01*
X122911559Y-92665060D01*
X122925188Y-92669937D01*
X122938273Y-92676126D01*
X122950689Y-92683567D01*
X122962315Y-92692190D01*
X122973040Y-92701911D01*
X122982761Y-92712636D01*
X122991384Y-92724262D01*
X122998825Y-92736678D01*
X123005014Y-92749763D01*
X123009891Y-92763392D01*
X123013408Y-92777433D01*
X123015532Y-92791751D01*
X123016242Y-92806209D01*
X123016242Y-93151209D01*
X123015532Y-93165667D01*
X123013408Y-93179985D01*
X123009891Y-93194026D01*
X123005014Y-93207655D01*
X122998825Y-93220740D01*
X122991384Y-93233156D01*
X122982761Y-93244782D01*
X122973040Y-93255507D01*
X122962315Y-93265228D01*
X122950689Y-93273851D01*
X122938273Y-93281292D01*
X122925188Y-93287481D01*
X122911559Y-93292358D01*
X122897518Y-93295875D01*
X122883200Y-93297999D01*
X122868742Y-93298709D01*
X122573742Y-93298709D01*
X122559284Y-93297999D01*
X122544966Y-93295875D01*
X122530925Y-93292358D01*
X122517296Y-93287481D01*
X122504211Y-93281292D01*
X122491795Y-93273851D01*
X122480169Y-93265228D01*
X122469444Y-93255507D01*
X122459723Y-93244782D01*
X122451100Y-93233156D01*
X122443659Y-93220740D01*
X122437470Y-93207655D01*
X122432593Y-93194026D01*
X122429076Y-93179985D01*
X122426952Y-93165667D01*
X122426242Y-93151209D01*
X122426242Y-92806209D01*
X122426952Y-92791751D01*
X122429076Y-92777433D01*
X122432593Y-92763392D01*
X122437470Y-92749763D01*
X122443659Y-92736678D01*
X122451100Y-92724262D01*
X122459723Y-92712636D01*
X122469444Y-92701911D01*
X122480169Y-92692190D01*
X122491795Y-92683567D01*
X122504211Y-92676126D01*
X122517296Y-92669937D01*
X122530925Y-92665060D01*
X122544966Y-92661543D01*
X122559284Y-92659419D01*
X122573742Y-92658709D01*
X122868742Y-92658709D01*
X122883200Y-92659419D01*
G37*
G36*
X123853200Y-92659419D02*
G01*
X123867518Y-92661543D01*
X123881559Y-92665060D01*
X123895188Y-92669937D01*
X123908273Y-92676126D01*
X123920689Y-92683567D01*
X123932315Y-92692190D01*
X123943040Y-92701911D01*
X123952761Y-92712636D01*
X123961384Y-92724262D01*
X123968825Y-92736678D01*
X123975014Y-92749763D01*
X123979891Y-92763392D01*
X123983408Y-92777433D01*
X123985532Y-92791751D01*
X123986242Y-92806209D01*
X123986242Y-93151209D01*
X123985532Y-93165667D01*
X123983408Y-93179985D01*
X123979891Y-93194026D01*
X123975014Y-93207655D01*
X123968825Y-93220740D01*
X123961384Y-93233156D01*
X123952761Y-93244782D01*
X123943040Y-93255507D01*
X123932315Y-93265228D01*
X123920689Y-93273851D01*
X123908273Y-93281292D01*
X123895188Y-93287481D01*
X123881559Y-93292358D01*
X123867518Y-93295875D01*
X123853200Y-93297999D01*
X123838742Y-93298709D01*
X123543742Y-93298709D01*
X123529284Y-93297999D01*
X123514966Y-93295875D01*
X123500925Y-93292358D01*
X123487296Y-93287481D01*
X123474211Y-93281292D01*
X123461795Y-93273851D01*
X123450169Y-93265228D01*
X123439444Y-93255507D01*
X123429723Y-93244782D01*
X123421100Y-93233156D01*
X123413659Y-93220740D01*
X123407470Y-93207655D01*
X123402593Y-93194026D01*
X123399076Y-93179985D01*
X123396952Y-93165667D01*
X123396242Y-93151209D01*
X123396242Y-92806209D01*
X123396952Y-92791751D01*
X123399076Y-92777433D01*
X123402593Y-92763392D01*
X123407470Y-92749763D01*
X123413659Y-92736678D01*
X123421100Y-92724262D01*
X123429723Y-92712636D01*
X123439444Y-92701911D01*
X123450169Y-92692190D01*
X123461795Y-92683567D01*
X123474211Y-92676126D01*
X123487296Y-92669937D01*
X123500925Y-92665060D01*
X123514966Y-92661543D01*
X123529284Y-92659419D01*
X123543742Y-92658709D01*
X123838742Y-92658709D01*
X123853200Y-92659419D01*
G37*
G36*
X190248199Y-115304419D02*
G01*
X190262517Y-115306543D01*
X190276558Y-115310060D01*
X190290187Y-115314937D01*
X190303272Y-115321126D01*
X190315688Y-115328567D01*
X190327314Y-115337190D01*
X190338039Y-115346911D01*
X190347760Y-115357636D01*
X190356383Y-115369262D01*
X190363824Y-115381678D01*
X190370013Y-115394763D01*
X190374890Y-115408392D01*
X190378407Y-115422433D01*
X190380531Y-115436751D01*
X190381241Y-115451209D01*
X190381241Y-115746209D01*
X190380531Y-115760667D01*
X190378407Y-115774985D01*
X190374890Y-115789026D01*
X190370013Y-115802655D01*
X190363824Y-115815740D01*
X190356383Y-115828156D01*
X190347760Y-115839782D01*
X190338039Y-115850507D01*
X190327314Y-115860228D01*
X190315688Y-115868851D01*
X190303272Y-115876292D01*
X190290187Y-115882481D01*
X190276558Y-115887358D01*
X190262517Y-115890875D01*
X190248199Y-115892999D01*
X190233741Y-115893709D01*
X189888741Y-115893709D01*
X189874283Y-115892999D01*
X189859965Y-115890875D01*
X189845924Y-115887358D01*
X189832295Y-115882481D01*
X189819210Y-115876292D01*
X189806794Y-115868851D01*
X189795168Y-115860228D01*
X189784443Y-115850507D01*
X189774722Y-115839782D01*
X189766099Y-115828156D01*
X189758658Y-115815740D01*
X189752469Y-115802655D01*
X189747592Y-115789026D01*
X189744075Y-115774985D01*
X189741951Y-115760667D01*
X189741241Y-115746209D01*
X189741241Y-115451209D01*
X189741951Y-115436751D01*
X189744075Y-115422433D01*
X189747592Y-115408392D01*
X189752469Y-115394763D01*
X189758658Y-115381678D01*
X189766099Y-115369262D01*
X189774722Y-115357636D01*
X189784443Y-115346911D01*
X189795168Y-115337190D01*
X189806794Y-115328567D01*
X189819210Y-115321126D01*
X189832295Y-115314937D01*
X189845924Y-115310060D01*
X189859965Y-115306543D01*
X189874283Y-115304419D01*
X189888741Y-115303709D01*
X190233741Y-115303709D01*
X190248199Y-115304419D01*
G37*
G36*
X190248199Y-116274419D02*
G01*
X190262517Y-116276543D01*
X190276558Y-116280060D01*
X190290187Y-116284937D01*
X190303272Y-116291126D01*
X190315688Y-116298567D01*
X190327314Y-116307190D01*
X190338039Y-116316911D01*
X190347760Y-116327636D01*
X190356383Y-116339262D01*
X190363824Y-116351678D01*
X190370013Y-116364763D01*
X190374890Y-116378392D01*
X190378407Y-116392433D01*
X190380531Y-116406751D01*
X190381241Y-116421209D01*
X190381241Y-116716209D01*
X190380531Y-116730667D01*
X190378407Y-116744985D01*
X190374890Y-116759026D01*
X190370013Y-116772655D01*
X190363824Y-116785740D01*
X190356383Y-116798156D01*
X190347760Y-116809782D01*
X190338039Y-116820507D01*
X190327314Y-116830228D01*
X190315688Y-116838851D01*
X190303272Y-116846292D01*
X190290187Y-116852481D01*
X190276558Y-116857358D01*
X190262517Y-116860875D01*
X190248199Y-116862999D01*
X190233741Y-116863709D01*
X189888741Y-116863709D01*
X189874283Y-116862999D01*
X189859965Y-116860875D01*
X189845924Y-116857358D01*
X189832295Y-116852481D01*
X189819210Y-116846292D01*
X189806794Y-116838851D01*
X189795168Y-116830228D01*
X189784443Y-116820507D01*
X189774722Y-116809782D01*
X189766099Y-116798156D01*
X189758658Y-116785740D01*
X189752469Y-116772655D01*
X189747592Y-116759026D01*
X189744075Y-116744985D01*
X189741951Y-116730667D01*
X189741241Y-116716209D01*
X189741241Y-116421209D01*
X189741951Y-116406751D01*
X189744075Y-116392433D01*
X189747592Y-116378392D01*
X189752469Y-116364763D01*
X189758658Y-116351678D01*
X189766099Y-116339262D01*
X189774722Y-116327636D01*
X189784443Y-116316911D01*
X189795168Y-116307190D01*
X189806794Y-116298567D01*
X189819210Y-116291126D01*
X189832295Y-116284937D01*
X189845924Y-116280060D01*
X189859965Y-116276543D01*
X189874283Y-116274419D01*
X189888741Y-116273709D01*
X190233741Y-116273709D01*
X190248199Y-116274419D01*
G37*
G36*
X111359458Y-111810210D02*
G01*
X111373776Y-111812334D01*
X111387817Y-111815851D01*
X111401446Y-111820728D01*
X111414531Y-111826917D01*
X111426947Y-111834358D01*
X111438573Y-111842981D01*
X111449298Y-111852702D01*
X111459019Y-111863427D01*
X111467642Y-111875053D01*
X111475083Y-111887469D01*
X111481272Y-111900554D01*
X111486149Y-111914183D01*
X111489666Y-111928224D01*
X111491790Y-111942542D01*
X111492500Y-111957000D01*
X111492500Y-112302000D01*
X111491790Y-112316458D01*
X111489666Y-112330776D01*
X111486149Y-112344817D01*
X111481272Y-112358446D01*
X111475083Y-112371531D01*
X111467642Y-112383947D01*
X111459019Y-112395573D01*
X111449298Y-112406298D01*
X111438573Y-112416019D01*
X111426947Y-112424642D01*
X111414531Y-112432083D01*
X111401446Y-112438272D01*
X111387817Y-112443149D01*
X111373776Y-112446666D01*
X111359458Y-112448790D01*
X111345000Y-112449500D01*
X111050000Y-112449500D01*
X111035542Y-112448790D01*
X111021224Y-112446666D01*
X111007183Y-112443149D01*
X110993554Y-112438272D01*
X110980469Y-112432083D01*
X110968053Y-112424642D01*
X110956427Y-112416019D01*
X110945702Y-112406298D01*
X110935981Y-112395573D01*
X110927358Y-112383947D01*
X110919917Y-112371531D01*
X110913728Y-112358446D01*
X110908851Y-112344817D01*
X110905334Y-112330776D01*
X110903210Y-112316458D01*
X110902500Y-112302000D01*
X110902500Y-111957000D01*
X110903210Y-111942542D01*
X110905334Y-111928224D01*
X110908851Y-111914183D01*
X110913728Y-111900554D01*
X110919917Y-111887469D01*
X110927358Y-111875053D01*
X110935981Y-111863427D01*
X110945702Y-111852702D01*
X110956427Y-111842981D01*
X110968053Y-111834358D01*
X110980469Y-111826917D01*
X110993554Y-111820728D01*
X111007183Y-111815851D01*
X111021224Y-111812334D01*
X111035542Y-111810210D01*
X111050000Y-111809500D01*
X111345000Y-111809500D01*
X111359458Y-111810210D01*
G37*
G36*
X110389458Y-111810210D02*
G01*
X110403776Y-111812334D01*
X110417817Y-111815851D01*
X110431446Y-111820728D01*
X110444531Y-111826917D01*
X110456947Y-111834358D01*
X110468573Y-111842981D01*
X110479298Y-111852702D01*
X110489019Y-111863427D01*
X110497642Y-111875053D01*
X110505083Y-111887469D01*
X110511272Y-111900554D01*
X110516149Y-111914183D01*
X110519666Y-111928224D01*
X110521790Y-111942542D01*
X110522500Y-111957000D01*
X110522500Y-112302000D01*
X110521790Y-112316458D01*
X110519666Y-112330776D01*
X110516149Y-112344817D01*
X110511272Y-112358446D01*
X110505083Y-112371531D01*
X110497642Y-112383947D01*
X110489019Y-112395573D01*
X110479298Y-112406298D01*
X110468573Y-112416019D01*
X110456947Y-112424642D01*
X110444531Y-112432083D01*
X110431446Y-112438272D01*
X110417817Y-112443149D01*
X110403776Y-112446666D01*
X110389458Y-112448790D01*
X110375000Y-112449500D01*
X110080000Y-112449500D01*
X110065542Y-112448790D01*
X110051224Y-112446666D01*
X110037183Y-112443149D01*
X110023554Y-112438272D01*
X110010469Y-112432083D01*
X109998053Y-112424642D01*
X109986427Y-112416019D01*
X109975702Y-112406298D01*
X109965981Y-112395573D01*
X109957358Y-112383947D01*
X109949917Y-112371531D01*
X109943728Y-112358446D01*
X109938851Y-112344817D01*
X109935334Y-112330776D01*
X109933210Y-112316458D01*
X109932500Y-112302000D01*
X109932500Y-111957000D01*
X109933210Y-111942542D01*
X109935334Y-111928224D01*
X109938851Y-111914183D01*
X109943728Y-111900554D01*
X109949917Y-111887469D01*
X109957358Y-111875053D01*
X109965981Y-111863427D01*
X109975702Y-111852702D01*
X109986427Y-111842981D01*
X109998053Y-111834358D01*
X110010469Y-111826917D01*
X110023554Y-111820728D01*
X110037183Y-111815851D01*
X110051224Y-111812334D01*
X110065542Y-111810210D01*
X110080000Y-111809500D01*
X110375000Y-111809500D01*
X110389458Y-111810210D01*
G37*
G36*
X111359458Y-110730710D02*
G01*
X111373776Y-110732834D01*
X111387817Y-110736351D01*
X111401446Y-110741228D01*
X111414531Y-110747417D01*
X111426947Y-110754858D01*
X111438573Y-110763481D01*
X111449298Y-110773202D01*
X111459019Y-110783927D01*
X111467642Y-110795553D01*
X111475083Y-110807969D01*
X111481272Y-110821054D01*
X111486149Y-110834683D01*
X111489666Y-110848724D01*
X111491790Y-110863042D01*
X111492500Y-110877500D01*
X111492500Y-111222500D01*
X111491790Y-111236958D01*
X111489666Y-111251276D01*
X111486149Y-111265317D01*
X111481272Y-111278946D01*
X111475083Y-111292031D01*
X111467642Y-111304447D01*
X111459019Y-111316073D01*
X111449298Y-111326798D01*
X111438573Y-111336519D01*
X111426947Y-111345142D01*
X111414531Y-111352583D01*
X111401446Y-111358772D01*
X111387817Y-111363649D01*
X111373776Y-111367166D01*
X111359458Y-111369290D01*
X111345000Y-111370000D01*
X111050000Y-111370000D01*
X111035542Y-111369290D01*
X111021224Y-111367166D01*
X111007183Y-111363649D01*
X110993554Y-111358772D01*
X110980469Y-111352583D01*
X110968053Y-111345142D01*
X110956427Y-111336519D01*
X110945702Y-111326798D01*
X110935981Y-111316073D01*
X110927358Y-111304447D01*
X110919917Y-111292031D01*
X110913728Y-111278946D01*
X110908851Y-111265317D01*
X110905334Y-111251276D01*
X110903210Y-111236958D01*
X110902500Y-111222500D01*
X110902500Y-110877500D01*
X110903210Y-110863042D01*
X110905334Y-110848724D01*
X110908851Y-110834683D01*
X110913728Y-110821054D01*
X110919917Y-110807969D01*
X110927358Y-110795553D01*
X110935981Y-110783927D01*
X110945702Y-110773202D01*
X110956427Y-110763481D01*
X110968053Y-110754858D01*
X110980469Y-110747417D01*
X110993554Y-110741228D01*
X111007183Y-110736351D01*
X111021224Y-110732834D01*
X111035542Y-110730710D01*
X111050000Y-110730000D01*
X111345000Y-110730000D01*
X111359458Y-110730710D01*
G37*
G36*
X110389458Y-110730710D02*
G01*
X110403776Y-110732834D01*
X110417817Y-110736351D01*
X110431446Y-110741228D01*
X110444531Y-110747417D01*
X110456947Y-110754858D01*
X110468573Y-110763481D01*
X110479298Y-110773202D01*
X110489019Y-110783927D01*
X110497642Y-110795553D01*
X110505083Y-110807969D01*
X110511272Y-110821054D01*
X110516149Y-110834683D01*
X110519666Y-110848724D01*
X110521790Y-110863042D01*
X110522500Y-110877500D01*
X110522500Y-111222500D01*
X110521790Y-111236958D01*
X110519666Y-111251276D01*
X110516149Y-111265317D01*
X110511272Y-111278946D01*
X110505083Y-111292031D01*
X110497642Y-111304447D01*
X110489019Y-111316073D01*
X110479298Y-111326798D01*
X110468573Y-111336519D01*
X110456947Y-111345142D01*
X110444531Y-111352583D01*
X110431446Y-111358772D01*
X110417817Y-111363649D01*
X110403776Y-111367166D01*
X110389458Y-111369290D01*
X110375000Y-111370000D01*
X110080000Y-111370000D01*
X110065542Y-111369290D01*
X110051224Y-111367166D01*
X110037183Y-111363649D01*
X110023554Y-111358772D01*
X110010469Y-111352583D01*
X109998053Y-111345142D01*
X109986427Y-111336519D01*
X109975702Y-111326798D01*
X109965981Y-111316073D01*
X109957358Y-111304447D01*
X109949917Y-111292031D01*
X109943728Y-111278946D01*
X109938851Y-111265317D01*
X109935334Y-111251276D01*
X109933210Y-111236958D01*
X109932500Y-111222500D01*
X109932500Y-110877500D01*
X109933210Y-110863042D01*
X109935334Y-110848724D01*
X109938851Y-110834683D01*
X109943728Y-110821054D01*
X109949917Y-110807969D01*
X109957358Y-110795553D01*
X109965981Y-110783927D01*
X109975702Y-110773202D01*
X109986427Y-110763481D01*
X109998053Y-110754858D01*
X110010469Y-110747417D01*
X110023554Y-110741228D01*
X110037183Y-110736351D01*
X110051224Y-110732834D01*
X110065542Y-110730710D01*
X110080000Y-110730000D01*
X110375000Y-110730000D01*
X110389458Y-110730710D01*
G37*
D14*
X139796241Y-108363709D03*
X139796241Y-105993709D03*
D15*
X102851241Y-89978709D03*
X102851241Y-90478709D03*
X102851241Y-90978709D03*
X102851241Y-91478709D03*
X102851241Y-91978709D03*
X102851241Y-92478709D03*
X102851241Y-92978709D03*
X102851241Y-93478709D03*
X102851241Y-93978709D03*
X102851241Y-98978709D03*
X102851241Y-98478709D03*
X102851241Y-97978709D03*
X102851241Y-97478709D03*
X102851241Y-96978709D03*
X102851241Y-96478709D03*
X102851241Y-95978709D03*
X102851241Y-95478709D03*
X102851241Y-94978709D03*
X102851241Y-94478709D03*
D16*
X190971241Y-98603709D03*
X191621241Y-110453709D03*
D17*
X188571241Y-99053709D03*
D18*
X190051241Y-110153709D03*
D19*
X199231241Y-98903709D03*
D20*
X199231241Y-110253709D03*
D21*
X199355459Y-109053375D03*
X199355459Y-107953375D03*
X199355459Y-106853375D03*
X199355459Y-105753375D03*
X199355459Y-104653375D03*
X199355459Y-103553375D03*
X199355459Y-102453375D03*
X199355459Y-101353375D03*
D22*
X114551241Y-95578709D03*
X114551241Y-97078709D03*
X114551241Y-98578709D03*
X116401241Y-94328709D03*
X116401241Y-94828709D03*
X116401241Y-95328709D03*
X116401241Y-95828709D03*
X116401241Y-96328709D03*
X116401241Y-96828709D03*
X116401241Y-97328709D03*
X116401241Y-97828709D03*
X116401241Y-98328709D03*
X116401241Y-98828709D03*
X116401241Y-99328709D03*
X116401241Y-99828709D03*
D23*
X107738241Y-112281209D03*
X107738241Y-110881209D03*
X107728000Y-113461500D03*
X107728000Y-114861500D03*
D10*
G36*
X111171199Y-117672919D02*
G01*
X111185517Y-117675043D01*
X111199558Y-117678560D01*
X111213187Y-117683437D01*
X111226272Y-117689626D01*
X111238688Y-117697067D01*
X111250314Y-117705690D01*
X111261039Y-117715411D01*
X111270760Y-117726136D01*
X111279383Y-117737762D01*
X111286824Y-117750178D01*
X111293013Y-117763263D01*
X111297890Y-117776892D01*
X111301407Y-117790933D01*
X111303531Y-117805251D01*
X111304241Y-117819709D01*
X111304241Y-118164709D01*
X111303531Y-118179167D01*
X111301407Y-118193485D01*
X111297890Y-118207526D01*
X111293013Y-118221155D01*
X111286824Y-118234240D01*
X111279383Y-118246656D01*
X111270760Y-118258282D01*
X111261039Y-118269007D01*
X111250314Y-118278728D01*
X111238688Y-118287351D01*
X111226272Y-118294792D01*
X111213187Y-118300981D01*
X111199558Y-118305858D01*
X111185517Y-118309375D01*
X111171199Y-118311499D01*
X111156741Y-118312209D01*
X110861741Y-118312209D01*
X110847283Y-118311499D01*
X110832965Y-118309375D01*
X110818924Y-118305858D01*
X110805295Y-118300981D01*
X110792210Y-118294792D01*
X110779794Y-118287351D01*
X110768168Y-118278728D01*
X110757443Y-118269007D01*
X110747722Y-118258282D01*
X110739099Y-118246656D01*
X110731658Y-118234240D01*
X110725469Y-118221155D01*
X110720592Y-118207526D01*
X110717075Y-118193485D01*
X110714951Y-118179167D01*
X110714241Y-118164709D01*
X110714241Y-117819709D01*
X110714951Y-117805251D01*
X110717075Y-117790933D01*
X110720592Y-117776892D01*
X110725469Y-117763263D01*
X110731658Y-117750178D01*
X110739099Y-117737762D01*
X110747722Y-117726136D01*
X110757443Y-117715411D01*
X110768168Y-117705690D01*
X110779794Y-117697067D01*
X110792210Y-117689626D01*
X110805295Y-117683437D01*
X110818924Y-117678560D01*
X110832965Y-117675043D01*
X110847283Y-117672919D01*
X110861741Y-117672209D01*
X111156741Y-117672209D01*
X111171199Y-117672919D01*
G37*
G36*
X110201199Y-117672919D02*
G01*
X110215517Y-117675043D01*
X110229558Y-117678560D01*
X110243187Y-117683437D01*
X110256272Y-117689626D01*
X110268688Y-117697067D01*
X110280314Y-117705690D01*
X110291039Y-117715411D01*
X110300760Y-117726136D01*
X110309383Y-117737762D01*
X110316824Y-117750178D01*
X110323013Y-117763263D01*
X110327890Y-117776892D01*
X110331407Y-117790933D01*
X110333531Y-117805251D01*
X110334241Y-117819709D01*
X110334241Y-118164709D01*
X110333531Y-118179167D01*
X110331407Y-118193485D01*
X110327890Y-118207526D01*
X110323013Y-118221155D01*
X110316824Y-118234240D01*
X110309383Y-118246656D01*
X110300760Y-118258282D01*
X110291039Y-118269007D01*
X110280314Y-118278728D01*
X110268688Y-118287351D01*
X110256272Y-118294792D01*
X110243187Y-118300981D01*
X110229558Y-118305858D01*
X110215517Y-118309375D01*
X110201199Y-118311499D01*
X110186741Y-118312209D01*
X109891741Y-118312209D01*
X109877283Y-118311499D01*
X109862965Y-118309375D01*
X109848924Y-118305858D01*
X109835295Y-118300981D01*
X109822210Y-118294792D01*
X109809794Y-118287351D01*
X109798168Y-118278728D01*
X109787443Y-118269007D01*
X109777722Y-118258282D01*
X109769099Y-118246656D01*
X109761658Y-118234240D01*
X109755469Y-118221155D01*
X109750592Y-118207526D01*
X109747075Y-118193485D01*
X109744951Y-118179167D01*
X109744241Y-118164709D01*
X109744241Y-117819709D01*
X109744951Y-117805251D01*
X109747075Y-117790933D01*
X109750592Y-117776892D01*
X109755469Y-117763263D01*
X109761658Y-117750178D01*
X109769099Y-117737762D01*
X109777722Y-117726136D01*
X109787443Y-117715411D01*
X109798168Y-117705690D01*
X109809794Y-117697067D01*
X109822210Y-117689626D01*
X109835295Y-117683437D01*
X109848924Y-117678560D01*
X109862965Y-117675043D01*
X109877283Y-117672919D01*
X109891741Y-117672209D01*
X110186741Y-117672209D01*
X110201199Y-117672919D01*
G37*
G36*
X110201199Y-116149753D02*
G01*
X110215517Y-116151877D01*
X110229558Y-116155394D01*
X110243187Y-116160271D01*
X110256272Y-116166460D01*
X110268688Y-116173901D01*
X110280314Y-116182524D01*
X110291039Y-116192245D01*
X110300760Y-116202970D01*
X110309383Y-116214596D01*
X110316824Y-116227012D01*
X110323013Y-116240097D01*
X110327890Y-116253726D01*
X110331407Y-116267767D01*
X110333531Y-116282085D01*
X110334241Y-116296543D01*
X110334241Y-116641543D01*
X110333531Y-116656001D01*
X110331407Y-116670319D01*
X110327890Y-116684360D01*
X110323013Y-116697989D01*
X110316824Y-116711074D01*
X110309383Y-116723490D01*
X110300760Y-116735116D01*
X110291039Y-116745841D01*
X110280314Y-116755562D01*
X110268688Y-116764185D01*
X110256272Y-116771626D01*
X110243187Y-116777815D01*
X110229558Y-116782692D01*
X110215517Y-116786209D01*
X110201199Y-116788333D01*
X110186741Y-116789043D01*
X109891741Y-116789043D01*
X109877283Y-116788333D01*
X109862965Y-116786209D01*
X109848924Y-116782692D01*
X109835295Y-116777815D01*
X109822210Y-116771626D01*
X109809794Y-116764185D01*
X109798168Y-116755562D01*
X109787443Y-116745841D01*
X109777722Y-116735116D01*
X109769099Y-116723490D01*
X109761658Y-116711074D01*
X109755469Y-116697989D01*
X109750592Y-116684360D01*
X109747075Y-116670319D01*
X109744951Y-116656001D01*
X109744241Y-116641543D01*
X109744241Y-116296543D01*
X109744951Y-116282085D01*
X109747075Y-116267767D01*
X109750592Y-116253726D01*
X109755469Y-116240097D01*
X109761658Y-116227012D01*
X109769099Y-116214596D01*
X109777722Y-116202970D01*
X109787443Y-116192245D01*
X109798168Y-116182524D01*
X109809794Y-116173901D01*
X109822210Y-116166460D01*
X109835295Y-116160271D01*
X109848924Y-116155394D01*
X109862965Y-116151877D01*
X109877283Y-116149753D01*
X109891741Y-116149043D01*
X110186741Y-116149043D01*
X110201199Y-116149753D01*
G37*
G36*
X111171199Y-116149753D02*
G01*
X111185517Y-116151877D01*
X111199558Y-116155394D01*
X111213187Y-116160271D01*
X111226272Y-116166460D01*
X111238688Y-116173901D01*
X111250314Y-116182524D01*
X111261039Y-116192245D01*
X111270760Y-116202970D01*
X111279383Y-116214596D01*
X111286824Y-116227012D01*
X111293013Y-116240097D01*
X111297890Y-116253726D01*
X111301407Y-116267767D01*
X111303531Y-116282085D01*
X111304241Y-116296543D01*
X111304241Y-116641543D01*
X111303531Y-116656001D01*
X111301407Y-116670319D01*
X111297890Y-116684360D01*
X111293013Y-116697989D01*
X111286824Y-116711074D01*
X111279383Y-116723490D01*
X111270760Y-116735116D01*
X111261039Y-116745841D01*
X111250314Y-116755562D01*
X111238688Y-116764185D01*
X111226272Y-116771626D01*
X111213187Y-116777815D01*
X111199558Y-116782692D01*
X111185517Y-116786209D01*
X111171199Y-116788333D01*
X111156741Y-116789043D01*
X110861741Y-116789043D01*
X110847283Y-116788333D01*
X110832965Y-116786209D01*
X110818924Y-116782692D01*
X110805295Y-116777815D01*
X110792210Y-116771626D01*
X110779794Y-116764185D01*
X110768168Y-116755562D01*
X110757443Y-116745841D01*
X110747722Y-116735116D01*
X110739099Y-116723490D01*
X110731658Y-116711074D01*
X110725469Y-116697989D01*
X110720592Y-116684360D01*
X110717075Y-116670319D01*
X110714951Y-116656001D01*
X110714241Y-116641543D01*
X110714241Y-116296543D01*
X110714951Y-116282085D01*
X110717075Y-116267767D01*
X110720592Y-116253726D01*
X110725469Y-116240097D01*
X110731658Y-116227012D01*
X110739099Y-116214596D01*
X110747722Y-116202970D01*
X110757443Y-116192245D01*
X110768168Y-116182524D01*
X110779794Y-116173901D01*
X110792210Y-116166460D01*
X110805295Y-116160271D01*
X110818924Y-116155394D01*
X110832965Y-116151877D01*
X110847283Y-116149753D01*
X110861741Y-116149043D01*
X111156741Y-116149043D01*
X111171199Y-116149753D01*
G37*
G36*
X110008199Y-106459419D02*
G01*
X110022517Y-106461543D01*
X110036558Y-106465060D01*
X110050187Y-106469937D01*
X110063272Y-106476126D01*
X110075688Y-106483567D01*
X110087314Y-106492190D01*
X110098039Y-106501911D01*
X110107760Y-106512636D01*
X110116383Y-106524262D01*
X110123824Y-106536678D01*
X110130013Y-106549763D01*
X110134890Y-106563392D01*
X110138407Y-106577433D01*
X110140531Y-106591751D01*
X110141241Y-106606209D01*
X110141241Y-106951209D01*
X110140531Y-106965667D01*
X110138407Y-106979985D01*
X110134890Y-106994026D01*
X110130013Y-107007655D01*
X110123824Y-107020740D01*
X110116383Y-107033156D01*
X110107760Y-107044782D01*
X110098039Y-107055507D01*
X110087314Y-107065228D01*
X110075688Y-107073851D01*
X110063272Y-107081292D01*
X110050187Y-107087481D01*
X110036558Y-107092358D01*
X110022517Y-107095875D01*
X110008199Y-107097999D01*
X109993741Y-107098709D01*
X109698741Y-107098709D01*
X109684283Y-107097999D01*
X109669965Y-107095875D01*
X109655924Y-107092358D01*
X109642295Y-107087481D01*
X109629210Y-107081292D01*
X109616794Y-107073851D01*
X109605168Y-107065228D01*
X109594443Y-107055507D01*
X109584722Y-107044782D01*
X109576099Y-107033156D01*
X109568658Y-107020740D01*
X109562469Y-107007655D01*
X109557592Y-106994026D01*
X109554075Y-106979985D01*
X109551951Y-106965667D01*
X109551241Y-106951209D01*
X109551241Y-106606209D01*
X109551951Y-106591751D01*
X109554075Y-106577433D01*
X109557592Y-106563392D01*
X109562469Y-106549763D01*
X109568658Y-106536678D01*
X109576099Y-106524262D01*
X109584722Y-106512636D01*
X109594443Y-106501911D01*
X109605168Y-106492190D01*
X109616794Y-106483567D01*
X109629210Y-106476126D01*
X109642295Y-106469937D01*
X109655924Y-106465060D01*
X109669965Y-106461543D01*
X109684283Y-106459419D01*
X109698741Y-106458709D01*
X109993741Y-106458709D01*
X110008199Y-106459419D01*
G37*
G36*
X109038199Y-106459419D02*
G01*
X109052517Y-106461543D01*
X109066558Y-106465060D01*
X109080187Y-106469937D01*
X109093272Y-106476126D01*
X109105688Y-106483567D01*
X109117314Y-106492190D01*
X109128039Y-106501911D01*
X109137760Y-106512636D01*
X109146383Y-106524262D01*
X109153824Y-106536678D01*
X109160013Y-106549763D01*
X109164890Y-106563392D01*
X109168407Y-106577433D01*
X109170531Y-106591751D01*
X109171241Y-106606209D01*
X109171241Y-106951209D01*
X109170531Y-106965667D01*
X109168407Y-106979985D01*
X109164890Y-106994026D01*
X109160013Y-107007655D01*
X109153824Y-107020740D01*
X109146383Y-107033156D01*
X109137760Y-107044782D01*
X109128039Y-107055507D01*
X109117314Y-107065228D01*
X109105688Y-107073851D01*
X109093272Y-107081292D01*
X109080187Y-107087481D01*
X109066558Y-107092358D01*
X109052517Y-107095875D01*
X109038199Y-107097999D01*
X109023741Y-107098709D01*
X108728741Y-107098709D01*
X108714283Y-107097999D01*
X108699965Y-107095875D01*
X108685924Y-107092358D01*
X108672295Y-107087481D01*
X108659210Y-107081292D01*
X108646794Y-107073851D01*
X108635168Y-107065228D01*
X108624443Y-107055507D01*
X108614722Y-107044782D01*
X108606099Y-107033156D01*
X108598658Y-107020740D01*
X108592469Y-107007655D01*
X108587592Y-106994026D01*
X108584075Y-106979985D01*
X108581951Y-106965667D01*
X108581241Y-106951209D01*
X108581241Y-106606209D01*
X108581951Y-106591751D01*
X108584075Y-106577433D01*
X108587592Y-106563392D01*
X108592469Y-106549763D01*
X108598658Y-106536678D01*
X108606099Y-106524262D01*
X108614722Y-106512636D01*
X108624443Y-106501911D01*
X108635168Y-106492190D01*
X108646794Y-106483567D01*
X108659210Y-106476126D01*
X108672295Y-106469937D01*
X108685924Y-106465060D01*
X108699965Y-106461543D01*
X108714283Y-106459419D01*
X108728741Y-106458709D01*
X109023741Y-106458709D01*
X109038199Y-106459419D01*
G37*
D23*
X133471241Y-103568709D03*
X133471241Y-102168709D03*
X129898241Y-103568709D03*
X129898241Y-102168709D03*
X131684741Y-103568709D03*
X131684741Y-102168709D03*
D10*
G36*
X133448199Y-110959419D02*
G01*
X133462517Y-110961543D01*
X133476558Y-110965060D01*
X133490187Y-110969937D01*
X133503272Y-110976126D01*
X133515688Y-110983567D01*
X133527314Y-110992190D01*
X133538039Y-111001911D01*
X133547760Y-111012636D01*
X133556383Y-111024262D01*
X133563824Y-111036678D01*
X133570013Y-111049763D01*
X133574890Y-111063392D01*
X133578407Y-111077433D01*
X133580531Y-111091751D01*
X133581241Y-111106209D01*
X133581241Y-111401209D01*
X133580531Y-111415667D01*
X133578407Y-111429985D01*
X133574890Y-111444026D01*
X133570013Y-111457655D01*
X133563824Y-111470740D01*
X133556383Y-111483156D01*
X133547760Y-111494782D01*
X133538039Y-111505507D01*
X133527314Y-111515228D01*
X133515688Y-111523851D01*
X133503272Y-111531292D01*
X133490187Y-111537481D01*
X133476558Y-111542358D01*
X133462517Y-111545875D01*
X133448199Y-111547999D01*
X133433741Y-111548709D01*
X133088741Y-111548709D01*
X133074283Y-111547999D01*
X133059965Y-111545875D01*
X133045924Y-111542358D01*
X133032295Y-111537481D01*
X133019210Y-111531292D01*
X133006794Y-111523851D01*
X132995168Y-111515228D01*
X132984443Y-111505507D01*
X132974722Y-111494782D01*
X132966099Y-111483156D01*
X132958658Y-111470740D01*
X132952469Y-111457655D01*
X132947592Y-111444026D01*
X132944075Y-111429985D01*
X132941951Y-111415667D01*
X132941241Y-111401209D01*
X132941241Y-111106209D01*
X132941951Y-111091751D01*
X132944075Y-111077433D01*
X132947592Y-111063392D01*
X132952469Y-111049763D01*
X132958658Y-111036678D01*
X132966099Y-111024262D01*
X132974722Y-111012636D01*
X132984443Y-111001911D01*
X132995168Y-110992190D01*
X133006794Y-110983567D01*
X133019210Y-110976126D01*
X133032295Y-110969937D01*
X133045924Y-110965060D01*
X133059965Y-110961543D01*
X133074283Y-110959419D01*
X133088741Y-110958709D01*
X133433741Y-110958709D01*
X133448199Y-110959419D01*
G37*
G36*
X133448199Y-109989419D02*
G01*
X133462517Y-109991543D01*
X133476558Y-109995060D01*
X133490187Y-109999937D01*
X133503272Y-110006126D01*
X133515688Y-110013567D01*
X133527314Y-110022190D01*
X133538039Y-110031911D01*
X133547760Y-110042636D01*
X133556383Y-110054262D01*
X133563824Y-110066678D01*
X133570013Y-110079763D01*
X133574890Y-110093392D01*
X133578407Y-110107433D01*
X133580531Y-110121751D01*
X133581241Y-110136209D01*
X133581241Y-110431209D01*
X133580531Y-110445667D01*
X133578407Y-110459985D01*
X133574890Y-110474026D01*
X133570013Y-110487655D01*
X133563824Y-110500740D01*
X133556383Y-110513156D01*
X133547760Y-110524782D01*
X133538039Y-110535507D01*
X133527314Y-110545228D01*
X133515688Y-110553851D01*
X133503272Y-110561292D01*
X133490187Y-110567481D01*
X133476558Y-110572358D01*
X133462517Y-110575875D01*
X133448199Y-110577999D01*
X133433741Y-110578709D01*
X133088741Y-110578709D01*
X133074283Y-110577999D01*
X133059965Y-110575875D01*
X133045924Y-110572358D01*
X133032295Y-110567481D01*
X133019210Y-110561292D01*
X133006794Y-110553851D01*
X132995168Y-110545228D01*
X132984443Y-110535507D01*
X132974722Y-110524782D01*
X132966099Y-110513156D01*
X132958658Y-110500740D01*
X132952469Y-110487655D01*
X132947592Y-110474026D01*
X132944075Y-110459985D01*
X132941951Y-110445667D01*
X132941241Y-110431209D01*
X132941241Y-110136209D01*
X132941951Y-110121751D01*
X132944075Y-110107433D01*
X132947592Y-110093392D01*
X132952469Y-110079763D01*
X132958658Y-110066678D01*
X132966099Y-110054262D01*
X132974722Y-110042636D01*
X132984443Y-110031911D01*
X132995168Y-110022190D01*
X133006794Y-110013567D01*
X133019210Y-110006126D01*
X133032295Y-109999937D01*
X133045924Y-109995060D01*
X133059965Y-109991543D01*
X133074283Y-109989419D01*
X133088741Y-109988709D01*
X133433741Y-109988709D01*
X133448199Y-109989419D01*
G37*
D23*
X143066241Y-108578709D03*
X143066241Y-109978709D03*
D10*
G36*
X185848199Y-104359419D02*
G01*
X185862517Y-104361543D01*
X185876558Y-104365060D01*
X185890187Y-104369937D01*
X185903272Y-104376126D01*
X185915688Y-104383567D01*
X185927314Y-104392190D01*
X185938039Y-104401911D01*
X185947760Y-104412636D01*
X185956383Y-104424262D01*
X185963824Y-104436678D01*
X185970013Y-104449763D01*
X185974890Y-104463392D01*
X185978407Y-104477433D01*
X185980531Y-104491751D01*
X185981241Y-104506209D01*
X185981241Y-104851209D01*
X185980531Y-104865667D01*
X185978407Y-104879985D01*
X185974890Y-104894026D01*
X185970013Y-104907655D01*
X185963824Y-104920740D01*
X185956383Y-104933156D01*
X185947760Y-104944782D01*
X185938039Y-104955507D01*
X185927314Y-104965228D01*
X185915688Y-104973851D01*
X185903272Y-104981292D01*
X185890187Y-104987481D01*
X185876558Y-104992358D01*
X185862517Y-104995875D01*
X185848199Y-104997999D01*
X185833741Y-104998709D01*
X185538741Y-104998709D01*
X185524283Y-104997999D01*
X185509965Y-104995875D01*
X185495924Y-104992358D01*
X185482295Y-104987481D01*
X185469210Y-104981292D01*
X185456794Y-104973851D01*
X185445168Y-104965228D01*
X185434443Y-104955507D01*
X185424722Y-104944782D01*
X185416099Y-104933156D01*
X185408658Y-104920740D01*
X185402469Y-104907655D01*
X185397592Y-104894026D01*
X185394075Y-104879985D01*
X185391951Y-104865667D01*
X185391241Y-104851209D01*
X185391241Y-104506209D01*
X185391951Y-104491751D01*
X185394075Y-104477433D01*
X185397592Y-104463392D01*
X185402469Y-104449763D01*
X185408658Y-104436678D01*
X185416099Y-104424262D01*
X185424722Y-104412636D01*
X185434443Y-104401911D01*
X185445168Y-104392190D01*
X185456794Y-104383567D01*
X185469210Y-104376126D01*
X185482295Y-104369937D01*
X185495924Y-104365060D01*
X185509965Y-104361543D01*
X185524283Y-104359419D01*
X185538741Y-104358709D01*
X185833741Y-104358709D01*
X185848199Y-104359419D01*
G37*
G36*
X186818199Y-104359419D02*
G01*
X186832517Y-104361543D01*
X186846558Y-104365060D01*
X186860187Y-104369937D01*
X186873272Y-104376126D01*
X186885688Y-104383567D01*
X186897314Y-104392190D01*
X186908039Y-104401911D01*
X186917760Y-104412636D01*
X186926383Y-104424262D01*
X186933824Y-104436678D01*
X186940013Y-104449763D01*
X186944890Y-104463392D01*
X186948407Y-104477433D01*
X186950531Y-104491751D01*
X186951241Y-104506209D01*
X186951241Y-104851209D01*
X186950531Y-104865667D01*
X186948407Y-104879985D01*
X186944890Y-104894026D01*
X186940013Y-104907655D01*
X186933824Y-104920740D01*
X186926383Y-104933156D01*
X186917760Y-104944782D01*
X186908039Y-104955507D01*
X186897314Y-104965228D01*
X186885688Y-104973851D01*
X186873272Y-104981292D01*
X186860187Y-104987481D01*
X186846558Y-104992358D01*
X186832517Y-104995875D01*
X186818199Y-104997999D01*
X186803741Y-104998709D01*
X186508741Y-104998709D01*
X186494283Y-104997999D01*
X186479965Y-104995875D01*
X186465924Y-104992358D01*
X186452295Y-104987481D01*
X186439210Y-104981292D01*
X186426794Y-104973851D01*
X186415168Y-104965228D01*
X186404443Y-104955507D01*
X186394722Y-104944782D01*
X186386099Y-104933156D01*
X186378658Y-104920740D01*
X186372469Y-104907655D01*
X186367592Y-104894026D01*
X186364075Y-104879985D01*
X186361951Y-104865667D01*
X186361241Y-104851209D01*
X186361241Y-104506209D01*
X186361951Y-104491751D01*
X186364075Y-104477433D01*
X186367592Y-104463392D01*
X186372469Y-104449763D01*
X186378658Y-104436678D01*
X186386099Y-104424262D01*
X186394722Y-104412636D01*
X186404443Y-104401911D01*
X186415168Y-104392190D01*
X186426794Y-104383567D01*
X186439210Y-104376126D01*
X186452295Y-104369937D01*
X186465924Y-104365060D01*
X186479965Y-104361543D01*
X186494283Y-104359419D01*
X186508741Y-104358709D01*
X186803741Y-104358709D01*
X186818199Y-104359419D01*
G37*
M02*
