M48
; DRILL file {KiCad 5.1.5+dfsg1-2~bpo10+1} date Thu 13 Feb 2020 18:12:35 CET
; FORMAT={-:-/ absolute / inch / decimal}
; #@! TF.CreationDate,2020-02-13T18:12:35+01:00
; #@! TF.GenerationSoftware,Kicad,Pcbnew,5.1.5+dfsg1-2~bpo10+1
; #@! TF.FileFunction,Plated,1,4,PTH
FMAT,2
INCH
T1C0.0098
T2C0.0354
T3C0.0362
T4C0.0402
T5C0.0906
%
G90
G05
T1
X3.9513Y-3.7608
X3.9513Y-3.8183
X3.9548Y-3.5425
X3.9563Y-3.5808
X4.128Y-3.5622
X4.128Y-3.6015
X4.1413Y-3.8783
X4.1538Y-3.7008
X4.191Y-3.4244
X4.191Y-3.4952
X4.2417Y-4.298
X4.2417Y-4.613
X4.25Y-3.5897
X4.3317Y-4.6905
X4.3642Y-4.2055
X4.3717Y-4.6905
X4.3792Y-4.3205
X4.4167Y-4.463
X4.4367Y-4.6455
X4.4626Y-3.7629
X4.4626Y-3.8811
X4.4817Y-4.293
X4.5339Y-4.4552
X4.5827Y-3.7334
X4.5827Y-3.7925
X4.5827Y-3.8515
X4.5827Y-3.9106
X4.6442Y-4.4005
X4.6641Y-4.3715
X4.6687Y-4.3182
X4.7467Y-4.813
X4.7926Y-4.4007
X4.7997Y-4.3678
X4.8117Y-4.5205
X4.8692Y-4.5205
X4.8792Y-4.318
X4.8942Y-4.7055
X5.0017Y-4.2255
X5.1167Y-4.2855
X5.2056Y-4.4096
X5.2217Y-4.2205
X5.2567Y-3.9755
X5.3192Y-4.4555
X5.3292Y-3.9755
X5.3392Y-4.323
X5.4017Y-4.4605
X5.4667Y-4.363
X5.804Y-4.527
X5.8335Y-4.527
X5.9283Y-4.0375
X5.9492Y-4.0166
X6.1483Y-4.2275
X6.1692Y-4.2066
X6.534Y-4.527
X6.5635Y-4.527
X6.8517Y-4.3355
X6.9492Y-4.3355
X7.0492Y-4.3355
X7.1517Y-4.3355
X7.2075Y-4.2511
X7.2642Y-4.168
X7.3492Y-4.1655
X7.4044Y-4.2511
X7.4242Y-3.7955
X7.5442Y-4.4455
X7.5617Y-4.483
X7.6517Y-4.483
X7.6878Y-4.3023
X7.7193Y-3.9913
X7.7288Y-4.207
X7.7392Y-4.483
X7.8442Y-3.7955
X7.8442Y-4.4455
T3
X4.0949Y-4.3692
X4.0949Y-4.4677
X4.0949Y-4.5464
X4.0949Y-4.6448
T4
X5.0256Y-4.6527
X5.0256Y-4.7527
X5.1256Y-4.6527
X5.1256Y-4.7527
X5.2256Y-4.6527
X5.2256Y-4.7527
X5.3256Y-4.6527
X5.3256Y-4.7527
X5.4256Y-4.6527
X5.4256Y-4.7527
X5.5256Y-4.6527
X5.5256Y-4.7527
X6.8367Y-4.6527
X6.8367Y-4.7527
X6.9367Y-4.6527
X6.9367Y-4.7527
X7.0367Y-4.6527
X7.0367Y-4.7527
X7.1367Y-4.6527
X7.1367Y-4.7527
X7.2367Y-4.6527
X7.2367Y-4.7527
X7.3367Y-4.6527
X7.3367Y-4.7527
X5.9312Y-4.6527
X5.9312Y-4.7527
X6.0312Y-4.6527
X6.0312Y-4.7527
X6.1312Y-4.6527
X6.1312Y-4.7527
X6.2312Y-4.6527
X6.2312Y-4.7527
X6.3312Y-4.6527
X6.3312Y-4.7527
X6.4312Y-4.6527
X6.4312Y-4.7527
T5
X3.9882Y-4.2484
X3.9882Y-4.7657
T2
G00X3.7579Y-3.4342
M15
G01X3.8052Y-3.4342
M16
G05
G00X3.7579Y-4.0051
M15
G01X3.8052Y-4.0051
M16
G05
G00X3.9823Y-3.4342
M15
G01X4.0532Y-3.4342
M16
G05
G00X3.9823Y-4.0051
M15
G01X4.0532Y-4.0051
M16
G05
T0
M30
