%FSLAX45Y45*%
G04 Gerber Fmt 4.5, Leading zero omitted, Abs format (unit mm)*
G04 Created by KiCad (PCBNEW 5.1.5+dfsg1-2~bpo10+1) date 2020-02-13 18:12:34*
%MOMM*%
%LPD*%
G04 APERTURE LIST*
%TA.AperFunction,Profile*%
%ADD10C,0.200000*%
%TD*%
%ADD11C,0.200000*%
%ADD12C,0.300000*%
G04 APERTURE END LIST*
D10*
X20055124Y-12447871D02*
X20055124Y-8447871D01*
X9115124Y-12447871D02*
X20055124Y-12447871D01*
X9115124Y-8447871D02*
X9115124Y-12447871D01*
X20055124Y-8447871D02*
X9115124Y-8447871D01*
D11*
D12*
X9391553Y-12923585D02*
X9391553Y-12623585D01*
X9462981Y-12623585D01*
X9505838Y-12637871D01*
X9534410Y-12666442D01*
X9548695Y-12695014D01*
X9562981Y-12752157D01*
X9562981Y-12795014D01*
X9548695Y-12852157D01*
X9534410Y-12880728D01*
X9505838Y-12909299D01*
X9462981Y-12923585D01*
X9391553Y-12923585D01*
X9691553Y-12923585D02*
X9691553Y-12723585D01*
X9691553Y-12780728D02*
X9705838Y-12752157D01*
X9720124Y-12737871D01*
X9748695Y-12723585D01*
X9777267Y-12723585D01*
X9877267Y-12923585D02*
X9877267Y-12723585D01*
X9877267Y-12623585D02*
X9862981Y-12637871D01*
X9877267Y-12652157D01*
X9891553Y-12637871D01*
X9877267Y-12623585D01*
X9877267Y-12652157D01*
X10062981Y-12923585D02*
X10034410Y-12909299D01*
X10020124Y-12880728D01*
X10020124Y-12623585D01*
X10220124Y-12923585D02*
X10191553Y-12909299D01*
X10177267Y-12880728D01*
X10177267Y-12623585D01*
X10562981Y-12923585D02*
X10562981Y-12623585D01*
X10662981Y-12837871D01*
X10762981Y-12623585D01*
X10762981Y-12923585D01*
X11034410Y-12923585D02*
X11034410Y-12766442D01*
X11020124Y-12737871D01*
X10991553Y-12723585D01*
X10934410Y-12723585D01*
X10905838Y-12737871D01*
X11034410Y-12909299D02*
X11005838Y-12923585D01*
X10934410Y-12923585D01*
X10905838Y-12909299D01*
X10891553Y-12880728D01*
X10891553Y-12852157D01*
X10905838Y-12823585D01*
X10934410Y-12809299D01*
X11005838Y-12809299D01*
X11034410Y-12795014D01*
X11177267Y-12723585D02*
X11177267Y-13023585D01*
X11177267Y-12737871D02*
X11205838Y-12723585D01*
X11262981Y-12723585D01*
X11291552Y-12737871D01*
X11305838Y-12752157D01*
X11320124Y-12780728D01*
X11320124Y-12866442D01*
X11305838Y-12895014D01*
X11291552Y-12909299D01*
X11262981Y-12923585D01*
X11205838Y-12923585D01*
X11177267Y-12909299D01*
X11448695Y-12895014D02*
X11462981Y-12909299D01*
X11448695Y-12923585D01*
X11434410Y-12909299D01*
X11448695Y-12895014D01*
X11448695Y-12923585D01*
X11448695Y-12737871D02*
X11462981Y-12752157D01*
X11448695Y-12766442D01*
X11434410Y-12752157D01*
X11448695Y-12737871D01*
X11448695Y-12766442D01*
M02*
