G04 #@! TF.GenerationSoftware,KiCad,Pcbnew,5.0.2+dfsg1-1*
G04 #@! TF.CreationDate,2019-08-26T09:35:30+01:00*
G04 #@! TF.ProjectId,HDMI_SD_expansion,48444d49-5f53-4445-9f65-7870616e7369,rev?*
G04 #@! TF.SameCoordinates,Original*
G04 #@! TF.FileFunction,Soldermask,Top*
G04 #@! TF.FilePolarity,Negative*
%FSLAX46Y46*%
G04 Gerber Fmt 4.6, Leading zero omitted, Abs format (unit mm)*
G04 Created by KiCad (PCBNEW 5.0.2+dfsg1-1) date Mon 26 Aug 2019 09:35:30 BST*
%MOMM*%
%LPD*%
G01*
G04 APERTURE LIST*
%ADD10C,0.100000*%
G04 APERTURE END LIST*
D10*
G36*
X157411000Y-123011000D02*
X156109000Y-123011000D01*
X156109000Y-122389000D01*
X157411000Y-122389000D01*
X157411000Y-123011000D01*
X157411000Y-123011000D01*
G37*
G36*
X163801000Y-122921000D02*
X162499000Y-122921000D01*
X162499000Y-121929000D01*
X163801000Y-121929000D01*
X163801000Y-122921000D01*
X163801000Y-122921000D01*
G37*
G36*
X126891000Y-122911000D02*
X117509000Y-122911000D01*
X117509000Y-120209000D01*
X126891000Y-120209000D01*
X126891000Y-122911000D01*
X126891000Y-122911000D01*
G37*
G36*
X130951000Y-121951000D02*
X129549000Y-121951000D01*
X129549000Y-119649000D01*
X130951000Y-119649000D01*
X130951000Y-121951000D01*
X130951000Y-121951000D01*
G37*
G36*
X114851000Y-121951000D02*
X113449000Y-121951000D01*
X113449000Y-119649000D01*
X114851000Y-119649000D01*
X114851000Y-121951000D01*
X114851000Y-121951000D01*
G37*
G36*
X151450151Y-120723345D02*
X150713345Y-121460151D01*
X149509849Y-120256655D01*
X150246655Y-119519849D01*
X151450151Y-120723345D01*
X151450151Y-120723345D01*
G37*
G36*
X164111000Y-120386000D02*
X163409000Y-120386000D01*
X163409000Y-119834000D01*
X164111000Y-119834000D01*
X164111000Y-120386000D01*
X164111000Y-120386000D01*
G37*
G36*
X156851000Y-120386000D02*
X156149000Y-120386000D01*
X156149000Y-119834000D01*
X156851000Y-119834000D01*
X156851000Y-120386000D01*
X156851000Y-120386000D01*
G37*
G36*
X164111000Y-117846000D02*
X163409000Y-117846000D01*
X163409000Y-117294000D01*
X164111000Y-117294000D01*
X164111000Y-117846000D01*
X164111000Y-117846000D01*
G37*
G36*
X156851000Y-117846000D02*
X156149000Y-117846000D01*
X156149000Y-117294000D01*
X156851000Y-117294000D01*
X156851000Y-117846000D01*
X156851000Y-117846000D01*
G37*
G36*
X130951000Y-115591000D02*
X129549000Y-115591000D01*
X129549000Y-114089000D01*
X130951000Y-114089000D01*
X130951000Y-115591000D01*
X130951000Y-115591000D01*
G37*
G36*
X114851000Y-115591000D02*
X113449000Y-115591000D01*
X113449000Y-114089000D01*
X114851000Y-114089000D01*
X114851000Y-115591000D01*
X114851000Y-115591000D01*
G37*
G36*
X164111000Y-115306000D02*
X163409000Y-115306000D01*
X163409000Y-114754000D01*
X164111000Y-114754000D01*
X164111000Y-115306000D01*
X164111000Y-115306000D01*
G37*
G36*
X156851000Y-115306000D02*
X156149000Y-115306000D01*
X156149000Y-114754000D01*
X156851000Y-114754000D01*
X156851000Y-115306000D01*
X156851000Y-115306000D01*
G37*
G36*
X156851000Y-112766000D02*
X156149000Y-112766000D01*
X156149000Y-112214000D01*
X156851000Y-112214000D01*
X156851000Y-112766000D01*
X156851000Y-112766000D01*
G37*
G36*
X164111000Y-112766000D02*
X163409000Y-112766000D01*
X163409000Y-112214000D01*
X164111000Y-112214000D01*
X164111000Y-112766000D01*
X164111000Y-112766000D01*
G37*
G36*
X150321000Y-112521000D02*
X149279000Y-112521000D01*
X149279000Y-110319000D01*
X150321000Y-110319000D01*
X150321000Y-112521000D01*
X150321000Y-112521000D01*
G37*
G36*
X163801000Y-110671000D02*
X162499000Y-110671000D01*
X162499000Y-109679000D01*
X163801000Y-109679000D01*
X163801000Y-110671000D01*
X163801000Y-110671000D01*
G37*
G36*
X157411000Y-110211000D02*
X156109000Y-110211000D01*
X156109000Y-109589000D01*
X157411000Y-109589000D01*
X157411000Y-110211000D01*
X157411000Y-110211000D01*
G37*
G36*
X163006565Y-95989389D02*
X163197834Y-96068615D01*
X163369976Y-96183637D01*
X163516363Y-96330024D01*
X163631385Y-96502166D01*
X163710611Y-96693435D01*
X163751000Y-96896484D01*
X163751000Y-97103516D01*
X163710611Y-97306565D01*
X163631385Y-97497834D01*
X163516363Y-97669976D01*
X163369976Y-97816363D01*
X163197834Y-97931385D01*
X163006565Y-98010611D01*
X162803516Y-98051000D01*
X162596484Y-98051000D01*
X162393435Y-98010611D01*
X162202166Y-97931385D01*
X162030024Y-97816363D01*
X161883637Y-97669976D01*
X161768615Y-97497834D01*
X161689389Y-97306565D01*
X161649000Y-97103516D01*
X161649000Y-96896484D01*
X161689389Y-96693435D01*
X161768615Y-96502166D01*
X161883637Y-96330024D01*
X162030024Y-96183637D01*
X162202166Y-96068615D01*
X162393435Y-95989389D01*
X162596484Y-95949000D01*
X162803516Y-95949000D01*
X163006565Y-95989389D01*
X163006565Y-95989389D01*
G37*
G36*
X150306565Y-95989389D02*
X150497834Y-96068615D01*
X150669976Y-96183637D01*
X150816363Y-96330024D01*
X150931385Y-96502166D01*
X151010611Y-96693435D01*
X151051000Y-96896484D01*
X151051000Y-97103516D01*
X151010611Y-97306565D01*
X150931385Y-97497834D01*
X150816363Y-97669976D01*
X150669976Y-97816363D01*
X150497834Y-97931385D01*
X150306565Y-98010611D01*
X150103516Y-98051000D01*
X149896484Y-98051000D01*
X149693435Y-98010611D01*
X149502166Y-97931385D01*
X149330024Y-97816363D01*
X149183637Y-97669976D01*
X149068615Y-97497834D01*
X148989389Y-97306565D01*
X148949000Y-97103516D01*
X148949000Y-96896484D01*
X148989389Y-96693435D01*
X149068615Y-96502166D01*
X149183637Y-96330024D01*
X149330024Y-96183637D01*
X149502166Y-96068615D01*
X149693435Y-95989389D01*
X149896484Y-95949000D01*
X150103516Y-95949000D01*
X150306565Y-95989389D01*
X150306565Y-95989389D01*
G37*
G36*
X157926565Y-95989389D02*
X158117834Y-96068615D01*
X158289976Y-96183637D01*
X158436363Y-96330024D01*
X158551385Y-96502166D01*
X158630611Y-96693435D01*
X158671000Y-96896484D01*
X158671000Y-97103516D01*
X158630611Y-97306565D01*
X158551385Y-97497834D01*
X158436363Y-97669976D01*
X158289976Y-97816363D01*
X158117834Y-97931385D01*
X157926565Y-98010611D01*
X157723516Y-98051000D01*
X157516484Y-98051000D01*
X157313435Y-98010611D01*
X157122166Y-97931385D01*
X156950024Y-97816363D01*
X156803637Y-97669976D01*
X156688615Y-97497834D01*
X156609389Y-97306565D01*
X156569000Y-97103516D01*
X156569000Y-96896484D01*
X156609389Y-96693435D01*
X156688615Y-96502166D01*
X156803637Y-96330024D01*
X156950024Y-96183637D01*
X157122166Y-96068615D01*
X157313435Y-95989389D01*
X157516484Y-95949000D01*
X157723516Y-95949000D01*
X157926565Y-95989389D01*
X157926565Y-95989389D01*
G37*
G36*
X155386565Y-95989389D02*
X155577834Y-96068615D01*
X155749976Y-96183637D01*
X155896363Y-96330024D01*
X156011385Y-96502166D01*
X156090611Y-96693435D01*
X156131000Y-96896484D01*
X156131000Y-97103516D01*
X156090611Y-97306565D01*
X156011385Y-97497834D01*
X155896363Y-97669976D01*
X155749976Y-97816363D01*
X155577834Y-97931385D01*
X155386565Y-98010611D01*
X155183516Y-98051000D01*
X154976484Y-98051000D01*
X154773435Y-98010611D01*
X154582166Y-97931385D01*
X154410024Y-97816363D01*
X154263637Y-97669976D01*
X154148615Y-97497834D01*
X154069389Y-97306565D01*
X154029000Y-97103516D01*
X154029000Y-96896484D01*
X154069389Y-96693435D01*
X154148615Y-96502166D01*
X154263637Y-96330024D01*
X154410024Y-96183637D01*
X154582166Y-96068615D01*
X154773435Y-95989389D01*
X154976484Y-95949000D01*
X155183516Y-95949000D01*
X155386565Y-95989389D01*
X155386565Y-95989389D01*
G37*
G36*
X152846565Y-95989389D02*
X153037834Y-96068615D01*
X153209976Y-96183637D01*
X153356363Y-96330024D01*
X153471385Y-96502166D01*
X153550611Y-96693435D01*
X153591000Y-96896484D01*
X153591000Y-97103516D01*
X153550611Y-97306565D01*
X153471385Y-97497834D01*
X153356363Y-97669976D01*
X153209976Y-97816363D01*
X153037834Y-97931385D01*
X152846565Y-98010611D01*
X152643516Y-98051000D01*
X152436484Y-98051000D01*
X152233435Y-98010611D01*
X152042166Y-97931385D01*
X151870024Y-97816363D01*
X151723637Y-97669976D01*
X151608615Y-97497834D01*
X151529389Y-97306565D01*
X151489000Y-97103516D01*
X151489000Y-96896484D01*
X151529389Y-96693435D01*
X151608615Y-96502166D01*
X151723637Y-96330024D01*
X151870024Y-96183637D01*
X152042166Y-96068615D01*
X152233435Y-95989389D01*
X152436484Y-95949000D01*
X152643516Y-95949000D01*
X152846565Y-95989389D01*
X152846565Y-95989389D01*
G37*
G36*
X160466565Y-95989389D02*
X160657834Y-96068615D01*
X160829976Y-96183637D01*
X160976363Y-96330024D01*
X161091385Y-96502166D01*
X161170611Y-96693435D01*
X161211000Y-96896484D01*
X161211000Y-97103516D01*
X161170611Y-97306565D01*
X161091385Y-97497834D01*
X160976363Y-97669976D01*
X160829976Y-97816363D01*
X160657834Y-97931385D01*
X160466565Y-98010611D01*
X160263516Y-98051000D01*
X160056484Y-98051000D01*
X159853435Y-98010611D01*
X159662166Y-97931385D01*
X159490024Y-97816363D01*
X159343637Y-97669976D01*
X159228615Y-97497834D01*
X159149389Y-97306565D01*
X159109000Y-97103516D01*
X159109000Y-96896484D01*
X159149389Y-96693435D01*
X159228615Y-96502166D01*
X159343637Y-96330024D01*
X159490024Y-96183637D01*
X159662166Y-96068615D01*
X159853435Y-95989389D01*
X160056484Y-95949000D01*
X160263516Y-95949000D01*
X160466565Y-95989389D01*
X160466565Y-95989389D01*
G37*
G36*
X129306565Y-95889389D02*
X129497834Y-95968615D01*
X129669976Y-96083637D01*
X129816363Y-96230024D01*
X129931385Y-96402166D01*
X130010611Y-96593435D01*
X130051000Y-96796484D01*
X130051000Y-97003516D01*
X130010611Y-97206565D01*
X129931385Y-97397834D01*
X129816363Y-97569976D01*
X129669976Y-97716363D01*
X129497834Y-97831385D01*
X129306565Y-97910611D01*
X129103516Y-97951000D01*
X128896484Y-97951000D01*
X128693435Y-97910611D01*
X128502166Y-97831385D01*
X128330024Y-97716363D01*
X128183637Y-97569976D01*
X128068615Y-97397834D01*
X127989389Y-97206565D01*
X127949000Y-97003516D01*
X127949000Y-96796484D01*
X127989389Y-96593435D01*
X128068615Y-96402166D01*
X128183637Y-96230024D01*
X128330024Y-96083637D01*
X128502166Y-95968615D01*
X128693435Y-95889389D01*
X128896484Y-95849000D01*
X129103516Y-95849000D01*
X129306565Y-95889389D01*
X129306565Y-95889389D01*
G37*
G36*
X126766565Y-95889389D02*
X126957834Y-95968615D01*
X127129976Y-96083637D01*
X127276363Y-96230024D01*
X127391385Y-96402166D01*
X127470611Y-96593435D01*
X127511000Y-96796484D01*
X127511000Y-97003516D01*
X127470611Y-97206565D01*
X127391385Y-97397834D01*
X127276363Y-97569976D01*
X127129976Y-97716363D01*
X126957834Y-97831385D01*
X126766565Y-97910611D01*
X126563516Y-97951000D01*
X126356484Y-97951000D01*
X126153435Y-97910611D01*
X125962166Y-97831385D01*
X125790024Y-97716363D01*
X125643637Y-97569976D01*
X125528615Y-97397834D01*
X125449389Y-97206565D01*
X125409000Y-97003516D01*
X125409000Y-96796484D01*
X125449389Y-96593435D01*
X125528615Y-96402166D01*
X125643637Y-96230024D01*
X125790024Y-96083637D01*
X125962166Y-95968615D01*
X126153435Y-95889389D01*
X126356484Y-95849000D01*
X126563516Y-95849000D01*
X126766565Y-95889389D01*
X126766565Y-95889389D01*
G37*
G36*
X124226565Y-95889389D02*
X124417834Y-95968615D01*
X124589976Y-96083637D01*
X124736363Y-96230024D01*
X124851385Y-96402166D01*
X124930611Y-96593435D01*
X124971000Y-96796484D01*
X124971000Y-97003516D01*
X124930611Y-97206565D01*
X124851385Y-97397834D01*
X124736363Y-97569976D01*
X124589976Y-97716363D01*
X124417834Y-97831385D01*
X124226565Y-97910611D01*
X124023516Y-97951000D01*
X123816484Y-97951000D01*
X123613435Y-97910611D01*
X123422166Y-97831385D01*
X123250024Y-97716363D01*
X123103637Y-97569976D01*
X122988615Y-97397834D01*
X122909389Y-97206565D01*
X122869000Y-97003516D01*
X122869000Y-96796484D01*
X122909389Y-96593435D01*
X122988615Y-96402166D01*
X123103637Y-96230024D01*
X123250024Y-96083637D01*
X123422166Y-95968615D01*
X123613435Y-95889389D01*
X123816484Y-95849000D01*
X124023516Y-95849000D01*
X124226565Y-95889389D01*
X124226565Y-95889389D01*
G37*
G36*
X119146565Y-95889389D02*
X119337834Y-95968615D01*
X119509976Y-96083637D01*
X119656363Y-96230024D01*
X119771385Y-96402166D01*
X119850611Y-96593435D01*
X119891000Y-96796484D01*
X119891000Y-97003516D01*
X119850611Y-97206565D01*
X119771385Y-97397834D01*
X119656363Y-97569976D01*
X119509976Y-97716363D01*
X119337834Y-97831385D01*
X119146565Y-97910611D01*
X118943516Y-97951000D01*
X118736484Y-97951000D01*
X118533435Y-97910611D01*
X118342166Y-97831385D01*
X118170024Y-97716363D01*
X118023637Y-97569976D01*
X117908615Y-97397834D01*
X117829389Y-97206565D01*
X117789000Y-97003516D01*
X117789000Y-96796484D01*
X117829389Y-96593435D01*
X117908615Y-96402166D01*
X118023637Y-96230024D01*
X118170024Y-96083637D01*
X118342166Y-95968615D01*
X118533435Y-95889389D01*
X118736484Y-95849000D01*
X118943516Y-95849000D01*
X119146565Y-95889389D01*
X119146565Y-95889389D01*
G37*
G36*
X116606565Y-95889389D02*
X116797834Y-95968615D01*
X116969976Y-96083637D01*
X117116363Y-96230024D01*
X117231385Y-96402166D01*
X117310611Y-96593435D01*
X117351000Y-96796484D01*
X117351000Y-97003516D01*
X117310611Y-97206565D01*
X117231385Y-97397834D01*
X117116363Y-97569976D01*
X116969976Y-97716363D01*
X116797834Y-97831385D01*
X116606565Y-97910611D01*
X116403516Y-97951000D01*
X116196484Y-97951000D01*
X115993435Y-97910611D01*
X115802166Y-97831385D01*
X115630024Y-97716363D01*
X115483637Y-97569976D01*
X115368615Y-97397834D01*
X115289389Y-97206565D01*
X115249000Y-97003516D01*
X115249000Y-96796484D01*
X115289389Y-96593435D01*
X115368615Y-96402166D01*
X115483637Y-96230024D01*
X115630024Y-96083637D01*
X115802166Y-95968615D01*
X115993435Y-95889389D01*
X116196484Y-95849000D01*
X116403516Y-95849000D01*
X116606565Y-95889389D01*
X116606565Y-95889389D01*
G37*
G36*
X121686565Y-95889389D02*
X121877834Y-95968615D01*
X122049976Y-96083637D01*
X122196363Y-96230024D01*
X122311385Y-96402166D01*
X122390611Y-96593435D01*
X122431000Y-96796484D01*
X122431000Y-97003516D01*
X122390611Y-97206565D01*
X122311385Y-97397834D01*
X122196363Y-97569976D01*
X122049976Y-97716363D01*
X121877834Y-97831385D01*
X121686565Y-97910611D01*
X121483516Y-97951000D01*
X121276484Y-97951000D01*
X121073435Y-97910611D01*
X120882166Y-97831385D01*
X120710024Y-97716363D01*
X120563637Y-97569976D01*
X120448615Y-97397834D01*
X120369389Y-97206565D01*
X120329000Y-97003516D01*
X120329000Y-96796484D01*
X120369389Y-96593435D01*
X120448615Y-96402166D01*
X120563637Y-96230024D01*
X120710024Y-96083637D01*
X120882166Y-95968615D01*
X121073435Y-95889389D01*
X121276484Y-95849000D01*
X121483516Y-95849000D01*
X121686565Y-95889389D01*
X121686565Y-95889389D01*
G37*
G36*
X150306565Y-93449389D02*
X150497834Y-93528615D01*
X150669976Y-93643637D01*
X150816363Y-93790024D01*
X150931385Y-93962166D01*
X151010611Y-94153435D01*
X151051000Y-94356484D01*
X151051000Y-94563516D01*
X151010611Y-94766565D01*
X150931385Y-94957834D01*
X150816363Y-95129976D01*
X150669976Y-95276363D01*
X150497834Y-95391385D01*
X150306565Y-95470611D01*
X150103516Y-95511000D01*
X149896484Y-95511000D01*
X149693435Y-95470611D01*
X149502166Y-95391385D01*
X149330024Y-95276363D01*
X149183637Y-95129976D01*
X149068615Y-94957834D01*
X148989389Y-94766565D01*
X148949000Y-94563516D01*
X148949000Y-94356484D01*
X148989389Y-94153435D01*
X149068615Y-93962166D01*
X149183637Y-93790024D01*
X149330024Y-93643637D01*
X149502166Y-93528615D01*
X149693435Y-93449389D01*
X149896484Y-93409000D01*
X150103516Y-93409000D01*
X150306565Y-93449389D01*
X150306565Y-93449389D01*
G37*
G36*
X152846565Y-93449389D02*
X153037834Y-93528615D01*
X153209976Y-93643637D01*
X153356363Y-93790024D01*
X153471385Y-93962166D01*
X153550611Y-94153435D01*
X153591000Y-94356484D01*
X153591000Y-94563516D01*
X153550611Y-94766565D01*
X153471385Y-94957834D01*
X153356363Y-95129976D01*
X153209976Y-95276363D01*
X153037834Y-95391385D01*
X152846565Y-95470611D01*
X152643516Y-95511000D01*
X152436484Y-95511000D01*
X152233435Y-95470611D01*
X152042166Y-95391385D01*
X151870024Y-95276363D01*
X151723637Y-95129976D01*
X151608615Y-94957834D01*
X151529389Y-94766565D01*
X151489000Y-94563516D01*
X151489000Y-94356484D01*
X151529389Y-94153435D01*
X151608615Y-93962166D01*
X151723637Y-93790024D01*
X151870024Y-93643637D01*
X152042166Y-93528615D01*
X152233435Y-93449389D01*
X152436484Y-93409000D01*
X152643516Y-93409000D01*
X152846565Y-93449389D01*
X152846565Y-93449389D01*
G37*
G36*
X155386565Y-93449389D02*
X155577834Y-93528615D01*
X155749976Y-93643637D01*
X155896363Y-93790024D01*
X156011385Y-93962166D01*
X156090611Y-94153435D01*
X156131000Y-94356484D01*
X156131000Y-94563516D01*
X156090611Y-94766565D01*
X156011385Y-94957834D01*
X155896363Y-95129976D01*
X155749976Y-95276363D01*
X155577834Y-95391385D01*
X155386565Y-95470611D01*
X155183516Y-95511000D01*
X154976484Y-95511000D01*
X154773435Y-95470611D01*
X154582166Y-95391385D01*
X154410024Y-95276363D01*
X154263637Y-95129976D01*
X154148615Y-94957834D01*
X154069389Y-94766565D01*
X154029000Y-94563516D01*
X154029000Y-94356484D01*
X154069389Y-94153435D01*
X154148615Y-93962166D01*
X154263637Y-93790024D01*
X154410024Y-93643637D01*
X154582166Y-93528615D01*
X154773435Y-93449389D01*
X154976484Y-93409000D01*
X155183516Y-93409000D01*
X155386565Y-93449389D01*
X155386565Y-93449389D01*
G37*
G36*
X157926565Y-93449389D02*
X158117834Y-93528615D01*
X158289976Y-93643637D01*
X158436363Y-93790024D01*
X158551385Y-93962166D01*
X158630611Y-94153435D01*
X158671000Y-94356484D01*
X158671000Y-94563516D01*
X158630611Y-94766565D01*
X158551385Y-94957834D01*
X158436363Y-95129976D01*
X158289976Y-95276363D01*
X158117834Y-95391385D01*
X157926565Y-95470611D01*
X157723516Y-95511000D01*
X157516484Y-95511000D01*
X157313435Y-95470611D01*
X157122166Y-95391385D01*
X156950024Y-95276363D01*
X156803637Y-95129976D01*
X156688615Y-94957834D01*
X156609389Y-94766565D01*
X156569000Y-94563516D01*
X156569000Y-94356484D01*
X156609389Y-94153435D01*
X156688615Y-93962166D01*
X156803637Y-93790024D01*
X156950024Y-93643637D01*
X157122166Y-93528615D01*
X157313435Y-93449389D01*
X157516484Y-93409000D01*
X157723516Y-93409000D01*
X157926565Y-93449389D01*
X157926565Y-93449389D01*
G37*
G36*
X160466565Y-93449389D02*
X160657834Y-93528615D01*
X160829976Y-93643637D01*
X160976363Y-93790024D01*
X161091385Y-93962166D01*
X161170611Y-94153435D01*
X161211000Y-94356484D01*
X161211000Y-94563516D01*
X161170611Y-94766565D01*
X161091385Y-94957834D01*
X160976363Y-95129976D01*
X160829976Y-95276363D01*
X160657834Y-95391385D01*
X160466565Y-95470611D01*
X160263516Y-95511000D01*
X160056484Y-95511000D01*
X159853435Y-95470611D01*
X159662166Y-95391385D01*
X159490024Y-95276363D01*
X159343637Y-95129976D01*
X159228615Y-94957834D01*
X159149389Y-94766565D01*
X159109000Y-94563516D01*
X159109000Y-94356484D01*
X159149389Y-94153435D01*
X159228615Y-93962166D01*
X159343637Y-93790024D01*
X159490024Y-93643637D01*
X159662166Y-93528615D01*
X159853435Y-93449389D01*
X160056484Y-93409000D01*
X160263516Y-93409000D01*
X160466565Y-93449389D01*
X160466565Y-93449389D01*
G37*
G36*
X163006565Y-93449389D02*
X163197834Y-93528615D01*
X163369976Y-93643637D01*
X163516363Y-93790024D01*
X163631385Y-93962166D01*
X163710611Y-94153435D01*
X163751000Y-94356484D01*
X163751000Y-94563516D01*
X163710611Y-94766565D01*
X163631385Y-94957834D01*
X163516363Y-95129976D01*
X163369976Y-95276363D01*
X163197834Y-95391385D01*
X163006565Y-95470611D01*
X162803516Y-95511000D01*
X162596484Y-95511000D01*
X162393435Y-95470611D01*
X162202166Y-95391385D01*
X162030024Y-95276363D01*
X161883637Y-95129976D01*
X161768615Y-94957834D01*
X161689389Y-94766565D01*
X161649000Y-94563516D01*
X161649000Y-94356484D01*
X161689389Y-94153435D01*
X161768615Y-93962166D01*
X161883637Y-93790024D01*
X162030024Y-93643637D01*
X162202166Y-93528615D01*
X162393435Y-93449389D01*
X162596484Y-93409000D01*
X162803516Y-93409000D01*
X163006565Y-93449389D01*
X163006565Y-93449389D01*
G37*
G36*
X126766565Y-93349389D02*
X126957834Y-93428615D01*
X127129976Y-93543637D01*
X127276363Y-93690024D01*
X127391385Y-93862166D01*
X127470611Y-94053435D01*
X127511000Y-94256484D01*
X127511000Y-94463516D01*
X127470611Y-94666565D01*
X127391385Y-94857834D01*
X127276363Y-95029976D01*
X127129976Y-95176363D01*
X126957834Y-95291385D01*
X126766565Y-95370611D01*
X126563516Y-95411000D01*
X126356484Y-95411000D01*
X126153435Y-95370611D01*
X125962166Y-95291385D01*
X125790024Y-95176363D01*
X125643637Y-95029976D01*
X125528615Y-94857834D01*
X125449389Y-94666565D01*
X125409000Y-94463516D01*
X125409000Y-94256484D01*
X125449389Y-94053435D01*
X125528615Y-93862166D01*
X125643637Y-93690024D01*
X125790024Y-93543637D01*
X125962166Y-93428615D01*
X126153435Y-93349389D01*
X126356484Y-93309000D01*
X126563516Y-93309000D01*
X126766565Y-93349389D01*
X126766565Y-93349389D01*
G37*
G36*
X124226565Y-93349389D02*
X124417834Y-93428615D01*
X124589976Y-93543637D01*
X124736363Y-93690024D01*
X124851385Y-93862166D01*
X124930611Y-94053435D01*
X124971000Y-94256484D01*
X124971000Y-94463516D01*
X124930611Y-94666565D01*
X124851385Y-94857834D01*
X124736363Y-95029976D01*
X124589976Y-95176363D01*
X124417834Y-95291385D01*
X124226565Y-95370611D01*
X124023516Y-95411000D01*
X123816484Y-95411000D01*
X123613435Y-95370611D01*
X123422166Y-95291385D01*
X123250024Y-95176363D01*
X123103637Y-95029976D01*
X122988615Y-94857834D01*
X122909389Y-94666565D01*
X122869000Y-94463516D01*
X122869000Y-94256484D01*
X122909389Y-94053435D01*
X122988615Y-93862166D01*
X123103637Y-93690024D01*
X123250024Y-93543637D01*
X123422166Y-93428615D01*
X123613435Y-93349389D01*
X123816484Y-93309000D01*
X124023516Y-93309000D01*
X124226565Y-93349389D01*
X124226565Y-93349389D01*
G37*
G36*
X121686565Y-93349389D02*
X121877834Y-93428615D01*
X122049976Y-93543637D01*
X122196363Y-93690024D01*
X122311385Y-93862166D01*
X122390611Y-94053435D01*
X122431000Y-94256484D01*
X122431000Y-94463516D01*
X122390611Y-94666565D01*
X122311385Y-94857834D01*
X122196363Y-95029976D01*
X122049976Y-95176363D01*
X121877834Y-95291385D01*
X121686565Y-95370611D01*
X121483516Y-95411000D01*
X121276484Y-95411000D01*
X121073435Y-95370611D01*
X120882166Y-95291385D01*
X120710024Y-95176363D01*
X120563637Y-95029976D01*
X120448615Y-94857834D01*
X120369389Y-94666565D01*
X120329000Y-94463516D01*
X120329000Y-94256484D01*
X120369389Y-94053435D01*
X120448615Y-93862166D01*
X120563637Y-93690024D01*
X120710024Y-93543637D01*
X120882166Y-93428615D01*
X121073435Y-93349389D01*
X121276484Y-93309000D01*
X121483516Y-93309000D01*
X121686565Y-93349389D01*
X121686565Y-93349389D01*
G37*
G36*
X119146565Y-93349389D02*
X119337834Y-93428615D01*
X119509976Y-93543637D01*
X119656363Y-93690024D01*
X119771385Y-93862166D01*
X119850611Y-94053435D01*
X119891000Y-94256484D01*
X119891000Y-94463516D01*
X119850611Y-94666565D01*
X119771385Y-94857834D01*
X119656363Y-95029976D01*
X119509976Y-95176363D01*
X119337834Y-95291385D01*
X119146565Y-95370611D01*
X118943516Y-95411000D01*
X118736484Y-95411000D01*
X118533435Y-95370611D01*
X118342166Y-95291385D01*
X118170024Y-95176363D01*
X118023637Y-95029976D01*
X117908615Y-94857834D01*
X117829389Y-94666565D01*
X117789000Y-94463516D01*
X117789000Y-94256484D01*
X117829389Y-94053435D01*
X117908615Y-93862166D01*
X118023637Y-93690024D01*
X118170024Y-93543637D01*
X118342166Y-93428615D01*
X118533435Y-93349389D01*
X118736484Y-93309000D01*
X118943516Y-93309000D01*
X119146565Y-93349389D01*
X119146565Y-93349389D01*
G37*
G36*
X116606565Y-93349389D02*
X116797834Y-93428615D01*
X116969976Y-93543637D01*
X117116363Y-93690024D01*
X117231385Y-93862166D01*
X117310611Y-94053435D01*
X117351000Y-94256484D01*
X117351000Y-94463516D01*
X117310611Y-94666565D01*
X117231385Y-94857834D01*
X117116363Y-95029976D01*
X116969976Y-95176363D01*
X116797834Y-95291385D01*
X116606565Y-95370611D01*
X116403516Y-95411000D01*
X116196484Y-95411000D01*
X115993435Y-95370611D01*
X115802166Y-95291385D01*
X115630024Y-95176363D01*
X115483637Y-95029976D01*
X115368615Y-94857834D01*
X115289389Y-94666565D01*
X115249000Y-94463516D01*
X115249000Y-94256484D01*
X115289389Y-94053435D01*
X115368615Y-93862166D01*
X115483637Y-93690024D01*
X115630024Y-93543637D01*
X115802166Y-93428615D01*
X115993435Y-93349389D01*
X116196484Y-93309000D01*
X116403516Y-93309000D01*
X116606565Y-93349389D01*
X116606565Y-93349389D01*
G37*
G36*
X129306565Y-93349389D02*
X129497834Y-93428615D01*
X129669976Y-93543637D01*
X129816363Y-93690024D01*
X129931385Y-93862166D01*
X130010611Y-94053435D01*
X130051000Y-94256484D01*
X130051000Y-94463516D01*
X130010611Y-94666565D01*
X129931385Y-94857834D01*
X129816363Y-95029976D01*
X129669976Y-95176363D01*
X129497834Y-95291385D01*
X129306565Y-95370611D01*
X129103516Y-95411000D01*
X128896484Y-95411000D01*
X128693435Y-95370611D01*
X128502166Y-95291385D01*
X128330024Y-95176363D01*
X128183637Y-95029976D01*
X128068615Y-94857834D01*
X127989389Y-94666565D01*
X127949000Y-94463516D01*
X127949000Y-94256484D01*
X127989389Y-94053435D01*
X128068615Y-93862166D01*
X128183637Y-93690024D01*
X128330024Y-93543637D01*
X128502166Y-93428615D01*
X128693435Y-93349389D01*
X128896484Y-93309000D01*
X129103516Y-93309000D01*
X129306565Y-93349389D01*
X129306565Y-93349389D01*
G37*
G36*
X158151000Y-82351000D02*
X157449000Y-82351000D01*
X157449000Y-81449000D01*
X158151000Y-81449000D01*
X158151000Y-82351000D01*
X158151000Y-82351000D01*
G37*
G36*
X159551000Y-82351000D02*
X158849000Y-82351000D01*
X158849000Y-81449000D01*
X159551000Y-81449000D01*
X159551000Y-82351000D01*
X159551000Y-82351000D01*
G37*
G36*
X135826001Y-81346001D02*
X135124001Y-81346001D01*
X135124001Y-80444001D01*
X135826001Y-80444001D01*
X135826001Y-81346001D01*
X135826001Y-81346001D01*
G37*
G36*
X137226001Y-81346001D02*
X136524001Y-81346001D01*
X136524001Y-80444001D01*
X137226001Y-80444001D01*
X137226001Y-81346001D01*
X137226001Y-81346001D01*
G37*
G36*
X139776001Y-81346001D02*
X139074001Y-81346001D01*
X139074001Y-80444001D01*
X139776001Y-80444001D01*
X139776001Y-81346001D01*
X139776001Y-81346001D01*
G37*
G36*
X138376001Y-81346001D02*
X137674001Y-81346001D01*
X137674001Y-80444001D01*
X138376001Y-80444001D01*
X138376001Y-81346001D01*
X138376001Y-81346001D01*
G37*
G36*
X142326001Y-80906001D02*
X141624001Y-80906001D01*
X141624001Y-80004001D01*
X142326001Y-80004001D01*
X142326001Y-80906001D01*
X142326001Y-80906001D01*
G37*
G36*
X140926001Y-80906001D02*
X140224001Y-80906001D01*
X140224001Y-80004001D01*
X140926001Y-80004001D01*
X140926001Y-80906001D01*
X140926001Y-80906001D01*
G37*
G36*
X138526001Y-79856001D02*
X137224001Y-79856001D01*
X137224001Y-78554001D01*
X138526001Y-78554001D01*
X138526001Y-79856001D01*
X138526001Y-79856001D01*
G37*
G36*
X136426001Y-79856001D02*
X135124001Y-79856001D01*
X135124001Y-78554001D01*
X136426001Y-78554001D01*
X136426001Y-79856001D01*
X136426001Y-79856001D01*
G37*
G36*
X139676001Y-79436001D02*
X138974001Y-79436001D01*
X138974001Y-78534001D01*
X139676001Y-78534001D01*
X139676001Y-79436001D01*
X139676001Y-79436001D01*
G37*
G36*
X141076001Y-79436001D02*
X140374001Y-79436001D01*
X140374001Y-78534001D01*
X141076001Y-78534001D01*
X141076001Y-79436001D01*
X141076001Y-79436001D01*
G37*
G36*
X142226001Y-78256001D02*
X141524001Y-78256001D01*
X141524001Y-77354001D01*
X142226001Y-77354001D01*
X142226001Y-78256001D01*
X142226001Y-78256001D01*
G37*
G36*
X143626001Y-78256001D02*
X142924001Y-78256001D01*
X142924001Y-77354001D01*
X143626001Y-77354001D01*
X143626001Y-78256001D01*
X143626001Y-78256001D01*
G37*
G36*
X138576001Y-77851001D02*
X135274001Y-77851001D01*
X135274001Y-77249001D01*
X138576001Y-77249001D01*
X138576001Y-77851001D01*
X138576001Y-77851001D01*
G37*
G36*
X141276001Y-76786001D02*
X140574001Y-76786001D01*
X140574001Y-75884001D01*
X141276001Y-75884001D01*
X141276001Y-76786001D01*
X141276001Y-76786001D01*
G37*
G36*
X139876001Y-76786001D02*
X139174001Y-76786001D01*
X139174001Y-75884001D01*
X139876001Y-75884001D01*
X139876001Y-76786001D01*
X139876001Y-76786001D01*
G37*
G36*
X138576001Y-76601001D02*
X135274001Y-76601001D01*
X135274001Y-75999001D01*
X138576001Y-75999001D01*
X138576001Y-76601001D01*
X138576001Y-76601001D01*
G37*
M02*
