G04 #@! TF.GenerationSoftware,KiCad,Pcbnew,5.0.2+dfsg1-1*
G04 #@! TF.CreationDate,2019-08-26T09:35:30+01:00*
G04 #@! TF.ProjectId,HDMI_SD_expansion,48444d49-5f53-4445-9f65-7870616e7369,rev?*
G04 #@! TF.SameCoordinates,Original*
G04 #@! TF.FileFunction,Paste,Top*
G04 #@! TF.FilePolarity,Positive*
%FSLAX46Y46*%
G04 Gerber Fmt 4.6, Leading zero omitted, Abs format (unit mm)*
G04 Created by KiCad (PCBNEW 5.0.2+dfsg1-1) date Mon 26 Aug 2019 09:35:30 BST*
%MOMM*%
%LPD*%
G01*
G04 APERTURE LIST*
%ADD10R,0.600000X0.800000*%
%ADD11R,1.200000X1.200000*%
%ADD12R,0.200000X0.500000*%
%ADD13R,0.280000X2.600000*%
%ADD14R,1.300000X2.200000*%
%ADD15R,1.300000X1.400000*%
%ADD16R,0.600000X0.450000*%
%ADD17R,1.200000X0.890000*%
%ADD18R,1.200000X0.520000*%
%ADD19R,0.940000X2.100000*%
%ADD20C,0.940000*%
%ADD21C,0.100000*%
G04 APERTURE END LIST*
D10*
G04 #@! TO.C,R7*
X141975001Y-80455001D03*
X140575001Y-80455001D03*
G04 #@! TD*
G04 #@! TO.C,R6*
X141875001Y-77805001D03*
X143275001Y-77805001D03*
G04 #@! TD*
G04 #@! TO.C,R5*
X139425001Y-80895001D03*
X138025001Y-80895001D03*
G04 #@! TD*
G04 #@! TO.C,R4*
X157800000Y-81900000D03*
X159200000Y-81900000D03*
G04 #@! TD*
G04 #@! TO.C,R3*
X140725001Y-78985001D03*
X139325001Y-78985001D03*
G04 #@! TD*
G04 #@! TO.C,R2*
X135475001Y-80895001D03*
X136875001Y-80895001D03*
G04 #@! TD*
G04 #@! TO.C,R1*
X140925001Y-76335001D03*
X139525001Y-76335001D03*
G04 #@! TD*
D11*
G04 #@! TO.C,C1*
X137875001Y-79205001D03*
X135775001Y-79205001D03*
G04 #@! TD*
D12*
G04 #@! TO.C,D1*
X135425001Y-76300001D03*
X135425001Y-77550001D03*
X135925001Y-76300001D03*
X135925001Y-77550001D03*
X136425001Y-76300001D03*
X136425001Y-77550001D03*
X136925001Y-76300001D03*
X136925001Y-77550001D03*
X137425001Y-76300001D03*
X137425001Y-77550001D03*
X137925001Y-76300001D03*
X137925001Y-77550001D03*
X138425001Y-76300001D03*
X138425001Y-77550001D03*
G04 #@! TD*
D13*
G04 #@! TO.C,J4*
X122200000Y-121560000D03*
X121700000Y-121560000D03*
X121200000Y-121560000D03*
X120700000Y-121560000D03*
X120200000Y-121560000D03*
X119700000Y-121560000D03*
X119200000Y-121560000D03*
X118700000Y-121560000D03*
X118200000Y-121560000D03*
X117700000Y-121560000D03*
X122700000Y-121560000D03*
X123200000Y-121560000D03*
X123700000Y-121560000D03*
X124200000Y-121560000D03*
X124700000Y-121560000D03*
X125200000Y-121560000D03*
X125700000Y-121560000D03*
X126200000Y-121560000D03*
X126700000Y-121560000D03*
D14*
X114150000Y-120800000D03*
X130250000Y-120800000D03*
D15*
X130250000Y-114840000D03*
X114150000Y-114840000D03*
G04 #@! TD*
D16*
G04 #@! TO.C,J2*
X156500000Y-115030000D03*
X156500000Y-117570000D03*
X156500000Y-112490000D03*
X156500000Y-120110000D03*
X163760000Y-120110000D03*
X163760000Y-117570000D03*
X163760000Y-115030000D03*
X163760000Y-112490000D03*
D17*
X163150000Y-122425000D03*
D18*
X156760000Y-122700000D03*
X156760000Y-109900000D03*
D17*
X163150000Y-110175000D03*
D19*
X149800000Y-111420000D03*
D20*
X150480000Y-120490000D03*
D21*
G36*
X149581974Y-120256655D02*
X150246655Y-119591974D01*
X151378026Y-120723345D01*
X150713345Y-121388026D01*
X149581974Y-120256655D01*
X149581974Y-120256655D01*
G37*
G04 #@! TD*
M02*
