G04 #@! TF.GenerationSoftware,KiCad,Pcbnew,5.0.2+dfsg1-1*
G04 #@! TF.CreationDate,2019-08-26T09:35:30+01:00*
G04 #@! TF.ProjectId,HDMI_SD_expansion,48444d49-5f53-4445-9f65-7870616e7369,rev?*
G04 #@! TF.SameCoordinates,Original*
G04 #@! TF.FileFunction,Legend,Top*
G04 #@! TF.FilePolarity,Positive*
%FSLAX46Y46*%
G04 Gerber Fmt 4.6, Leading zero omitted, Abs format (unit mm)*
G04 Created by KiCad (PCBNEW 5.0.2+dfsg1-1) date Mon 26 Aug 2019 09:35:30 BST*
%MOMM*%
%LPD*%
G01*
G04 APERTURE LIST*
%ADD10C,0.120000*%
%ADD11C,0.150000*%
%ADD12C,0.100000*%
G04 APERTURE END LIST*
D10*
G04 #@! TO.C,R7*
X140975001Y-80755001D02*
X141575001Y-80755001D01*
X140975001Y-80155001D02*
X141575001Y-80155001D01*
G04 #@! TO.C,R6*
X142275001Y-77505001D02*
X142875001Y-77505001D01*
X142275001Y-78105001D02*
X142875001Y-78105001D01*
G04 #@! TO.C,R5*
X138425001Y-81195001D02*
X139025001Y-81195001D01*
X138425001Y-80595001D02*
X139025001Y-80595001D01*
G04 #@! TO.C,R4*
X158200000Y-81600000D02*
X158800000Y-81600000D01*
X158200000Y-82200000D02*
X158800000Y-82200000D01*
G04 #@! TO.C,R3*
X139725001Y-79285001D02*
X140325001Y-79285001D01*
X139725001Y-78685001D02*
X140325001Y-78685001D01*
G04 #@! TO.C,R2*
X135875001Y-80595001D02*
X136475001Y-80595001D01*
X135875001Y-81195001D02*
X136475001Y-81195001D01*
G04 #@! TO.C,R1*
X139925001Y-76635001D02*
X140525001Y-76635001D01*
X139925001Y-76035001D02*
X140525001Y-76035001D01*
G04 #@! TO.C,C1*
X136505001Y-80005001D02*
X137105001Y-80005001D01*
X136525001Y-78405001D02*
X137125001Y-78405001D01*
D11*
G04 #@! TO.C,D1*
X135325001Y-78075001D02*
X135075001Y-77825001D01*
X135075001Y-77825001D02*
X135075001Y-75775001D01*
X135075001Y-75775001D02*
X138775001Y-75775001D01*
X138775001Y-75775001D02*
X138775001Y-78075001D01*
X138775001Y-78075001D02*
X135325001Y-78075001D01*
D12*
G04 #@! TO.C,J4*
X129400000Y-123100000D02*
X128700000Y-123100000D01*
X129400000Y-122350000D02*
X129400000Y-123100000D01*
X116050000Y-123100000D02*
X115100000Y-122150000D01*
X117950000Y-123100000D02*
X116050000Y-123100000D01*
X129400000Y-110500000D02*
X129400000Y-111350000D01*
X128700000Y-110500000D02*
X129400000Y-110500000D01*
X115000000Y-110500000D02*
X115700000Y-110500000D01*
X115000000Y-111350000D02*
X115000000Y-110500000D01*
G04 #@! TO.C,J2*
X150200000Y-122825000D02*
X149400000Y-122825000D01*
X149400000Y-122825000D02*
X149400000Y-122175000D01*
X149400000Y-109750000D02*
X149400000Y-110275000D01*
X163825000Y-122675000D02*
X163825000Y-121300000D01*
X162425000Y-122825000D02*
X161375000Y-122825000D01*
X150325000Y-109750000D02*
X149400000Y-109750000D01*
X162475000Y-109775000D02*
X161550000Y-109775000D01*
X163825000Y-109900000D02*
X163825000Y-110800000D01*
G04 #@! TO.C,J3*
X114900000Y-93000000D02*
X114900000Y-93400000D01*
X114900000Y-93000000D02*
X115300000Y-93000000D01*
X114890000Y-97940000D02*
X114890000Y-97510000D01*
X115250000Y-98300000D02*
X115700000Y-98300000D01*
X130400000Y-98300000D02*
X130000000Y-98300000D01*
X130400000Y-98300000D02*
X130400000Y-97900000D01*
X130400000Y-93000000D02*
X130400000Y-93400000D01*
X130400000Y-93000000D02*
X130000000Y-93000000D01*
X115250000Y-98300000D02*
X114890000Y-97940000D01*
G04 #@! TO.C,J1*
X148950000Y-98400000D02*
X148590000Y-98040000D01*
X164100000Y-93100000D02*
X163700000Y-93100000D01*
X164100000Y-93100000D02*
X164100000Y-93500000D01*
X164100000Y-98400000D02*
X164100000Y-98000000D01*
X164100000Y-98400000D02*
X163700000Y-98400000D01*
X148950000Y-98400000D02*
X149400000Y-98400000D01*
X148590000Y-98040000D02*
X148590000Y-97610000D01*
X148600000Y-93100000D02*
X149000000Y-93100000D01*
X148600000Y-93100000D02*
X148600000Y-93500000D01*
G04 #@! TO.C,R7*
D11*
X141108334Y-78707381D02*
X140775001Y-78231191D01*
X140536905Y-78707381D02*
X140536905Y-77707381D01*
X140917858Y-77707381D01*
X141013096Y-77755001D01*
X141060715Y-77802620D01*
X141108334Y-77897858D01*
X141108334Y-78040715D01*
X141060715Y-78135953D01*
X141013096Y-78183572D01*
X140917858Y-78231191D01*
X140536905Y-78231191D01*
X141441667Y-77707381D02*
X142108334Y-77707381D01*
X141679762Y-78707381D01*
G04 #@! TO.C,R6*
X142408334Y-76057381D02*
X142075001Y-75581191D01*
X141836905Y-76057381D02*
X141836905Y-75057381D01*
X142217858Y-75057381D01*
X142313096Y-75105001D01*
X142360715Y-75152620D01*
X142408334Y-75247858D01*
X142408334Y-75390715D01*
X142360715Y-75485953D01*
X142313096Y-75533572D01*
X142217858Y-75581191D01*
X141836905Y-75581191D01*
X143265477Y-75057381D02*
X143075001Y-75057381D01*
X142979762Y-75105001D01*
X142932143Y-75152620D01*
X142836905Y-75295477D01*
X142789286Y-75485953D01*
X142789286Y-75866905D01*
X142836905Y-75962143D01*
X142884524Y-76009762D01*
X142979762Y-76057381D01*
X143170239Y-76057381D01*
X143265477Y-76009762D01*
X143313096Y-75962143D01*
X143360715Y-75866905D01*
X143360715Y-75628810D01*
X143313096Y-75533572D01*
X143265477Y-75485953D01*
X143170239Y-75438334D01*
X142979762Y-75438334D01*
X142884524Y-75485953D01*
X142836905Y-75533572D01*
X142789286Y-75628810D01*
G04 #@! TO.C,R5*
X138558334Y-79147381D02*
X138225001Y-78671191D01*
X137986905Y-79147381D02*
X137986905Y-78147381D01*
X138367858Y-78147381D01*
X138463096Y-78195001D01*
X138510715Y-78242620D01*
X138558334Y-78337858D01*
X138558334Y-78480715D01*
X138510715Y-78575953D01*
X138463096Y-78623572D01*
X138367858Y-78671191D01*
X137986905Y-78671191D01*
X139463096Y-78147381D02*
X138986905Y-78147381D01*
X138939286Y-78623572D01*
X138986905Y-78575953D01*
X139082143Y-78528334D01*
X139320239Y-78528334D01*
X139415477Y-78575953D01*
X139463096Y-78623572D01*
X139510715Y-78718810D01*
X139510715Y-78956905D01*
X139463096Y-79052143D01*
X139415477Y-79099762D01*
X139320239Y-79147381D01*
X139082143Y-79147381D01*
X138986905Y-79099762D01*
X138939286Y-79052143D01*
G04 #@! TO.C,R4*
X158333333Y-80152380D02*
X158000000Y-79676190D01*
X157761904Y-80152380D02*
X157761904Y-79152380D01*
X158142857Y-79152380D01*
X158238095Y-79200000D01*
X158285714Y-79247619D01*
X158333333Y-79342857D01*
X158333333Y-79485714D01*
X158285714Y-79580952D01*
X158238095Y-79628571D01*
X158142857Y-79676190D01*
X157761904Y-79676190D01*
X159190476Y-79485714D02*
X159190476Y-80152380D01*
X158952380Y-79104761D02*
X158714285Y-79819047D01*
X159333333Y-79819047D01*
G04 #@! TO.C,R3*
X139858334Y-77237381D02*
X139525001Y-76761191D01*
X139286905Y-77237381D02*
X139286905Y-76237381D01*
X139667858Y-76237381D01*
X139763096Y-76285001D01*
X139810715Y-76332620D01*
X139858334Y-76427858D01*
X139858334Y-76570715D01*
X139810715Y-76665953D01*
X139763096Y-76713572D01*
X139667858Y-76761191D01*
X139286905Y-76761191D01*
X140191667Y-76237381D02*
X140810715Y-76237381D01*
X140477381Y-76618334D01*
X140620239Y-76618334D01*
X140715477Y-76665953D01*
X140763096Y-76713572D01*
X140810715Y-76808810D01*
X140810715Y-77046905D01*
X140763096Y-77142143D01*
X140715477Y-77189762D01*
X140620239Y-77237381D01*
X140334524Y-77237381D01*
X140239286Y-77189762D01*
X140191667Y-77142143D01*
G04 #@! TO.C,R2*
X136008334Y-79147381D02*
X135675001Y-78671191D01*
X135436905Y-79147381D02*
X135436905Y-78147381D01*
X135817858Y-78147381D01*
X135913096Y-78195001D01*
X135960715Y-78242620D01*
X136008334Y-78337858D01*
X136008334Y-78480715D01*
X135960715Y-78575953D01*
X135913096Y-78623572D01*
X135817858Y-78671191D01*
X135436905Y-78671191D01*
X136389286Y-78242620D02*
X136436905Y-78195001D01*
X136532143Y-78147381D01*
X136770239Y-78147381D01*
X136865477Y-78195001D01*
X136913096Y-78242620D01*
X136960715Y-78337858D01*
X136960715Y-78433096D01*
X136913096Y-78575953D01*
X136341667Y-79147381D01*
X136960715Y-79147381D01*
G04 #@! TO.C,R1*
X140058334Y-74587381D02*
X139725001Y-74111191D01*
X139486905Y-74587381D02*
X139486905Y-73587381D01*
X139867858Y-73587381D01*
X139963096Y-73635001D01*
X140010715Y-73682620D01*
X140058334Y-73777858D01*
X140058334Y-73920715D01*
X140010715Y-74015953D01*
X139963096Y-74063572D01*
X139867858Y-74111191D01*
X139486905Y-74111191D01*
X141010715Y-74587381D02*
X140439286Y-74587381D01*
X140725001Y-74587381D02*
X140725001Y-73587381D01*
X140629762Y-73730239D01*
X140534524Y-73825477D01*
X140439286Y-73873096D01*
G04 #@! TO.C,C1*
X136658334Y-77722143D02*
X136610715Y-77769762D01*
X136467858Y-77817381D01*
X136372620Y-77817381D01*
X136229762Y-77769762D01*
X136134524Y-77674524D01*
X136086905Y-77579286D01*
X136039286Y-77388810D01*
X136039286Y-77245953D01*
X136086905Y-77055477D01*
X136134524Y-76960239D01*
X136229762Y-76865001D01*
X136372620Y-76817381D01*
X136467858Y-76817381D01*
X136610715Y-76865001D01*
X136658334Y-76912620D01*
X137610715Y-77817381D02*
X137039286Y-77817381D01*
X137325001Y-77817381D02*
X137325001Y-76817381D01*
X137229762Y-76960239D01*
X137134524Y-77055477D01*
X137039286Y-77103096D01*
G04 #@! TO.C,D1*
X134486905Y-75077381D02*
X134486905Y-74077381D01*
X134725001Y-74077381D01*
X134867858Y-74125001D01*
X134963096Y-74220239D01*
X135010715Y-74315477D01*
X135058334Y-74505953D01*
X135058334Y-74648810D01*
X135010715Y-74839286D01*
X134963096Y-74934524D01*
X134867858Y-75029762D01*
X134725001Y-75077381D01*
X134486905Y-75077381D01*
X136010715Y-75077381D02*
X135439286Y-75077381D01*
X135725001Y-75077381D02*
X135725001Y-74077381D01*
X135629762Y-74220239D01*
X135534524Y-74315477D01*
X135439286Y-74363096D01*
G04 #@! TO.C,J4*
X121866666Y-108952380D02*
X121866666Y-109666666D01*
X121819047Y-109809523D01*
X121723809Y-109904761D01*
X121580952Y-109952380D01*
X121485714Y-109952380D01*
X122771428Y-109285714D02*
X122771428Y-109952380D01*
X122533333Y-108904761D02*
X122295238Y-109619047D01*
X122914285Y-109619047D01*
G04 #@! TO.C,J2*
X156176666Y-108072380D02*
X156176666Y-108786666D01*
X156129047Y-108929523D01*
X156033809Y-109024761D01*
X155890952Y-109072380D01*
X155795714Y-109072380D01*
X156605238Y-108167619D02*
X156652857Y-108120000D01*
X156748095Y-108072380D01*
X156986190Y-108072380D01*
X157081428Y-108120000D01*
X157129047Y-108167619D01*
X157176666Y-108262857D01*
X157176666Y-108358095D01*
X157129047Y-108500952D01*
X156557619Y-109072380D01*
X157176666Y-109072380D01*
G04 #@! TO.C,J3*
X112822380Y-95883333D02*
X113536666Y-95883333D01*
X113679523Y-95930952D01*
X113774761Y-96026190D01*
X113822380Y-96169047D01*
X113822380Y-96264285D01*
X112822380Y-95502380D02*
X112822380Y-94883333D01*
X113203333Y-95216666D01*
X113203333Y-95073809D01*
X113250952Y-94978571D01*
X113298571Y-94930952D01*
X113393809Y-94883333D01*
X113631904Y-94883333D01*
X113727142Y-94930952D01*
X113774761Y-94978571D01*
X113822380Y-95073809D01*
X113822380Y-95359523D01*
X113774761Y-95454761D01*
X113727142Y-95502380D01*
G04 #@! TO.C,J1*
X146522380Y-95983333D02*
X147236666Y-95983333D01*
X147379523Y-96030952D01*
X147474761Y-96126190D01*
X147522380Y-96269047D01*
X147522380Y-96364285D01*
X147522380Y-94983333D02*
X147522380Y-95554761D01*
X147522380Y-95269047D02*
X146522380Y-95269047D01*
X146665238Y-95364285D01*
X146760476Y-95459523D01*
X146808095Y-95554761D01*
G04 #@! TD*
M02*
