M48
;DRILL file {KiCad 5.0.2+dfsg1-1} date Mon 16 Sep 2019 14:47:52 BST
;FORMAT={-:-/ absolute / metric / decimal}
FMAT,2
METRIC,TZ
T1C0.250
T2C0.920
T3C1.020
T4C1.300
T5C2.300
%
G90
G05
T1
X94.149Y-87.324
X94.213Y-103.39
X100.245Y-96.405
X100.245Y-97.865
X100.372Y-91.833
X105.071Y-99.389
X105.389Y-94.881
X107.738Y-109.168
X107.738Y-117.169
X110.024Y-119.138
X110.85Y-106.819
X111.04Y-119.138
X111.231Y-109.74
X112.183Y-113.359
X112.691Y-117.995
X113.834Y-109.041
X115.16Y-113.162
X117.962Y-111.772
X118.468Y-111.037
X118.585Y-109.683
X120.565Y-122.249
X121.733Y-111.777
X121.913Y-110.942
X122.216Y-114.82
X123.677Y-114.82
X123.931Y-109.676
X124.312Y-119.519
X127.042Y-107.327
X129.963Y-108.851
X131.741Y-112.026
X132.63Y-107.2
X133.519Y-100.977
X135.107Y-113.169
X135.361Y-100.977
X135.615Y-109.803
X137.202Y-113.296
X138.853Y-110.819
X147.421Y-114.987
X148.171Y-114.987
X150.579Y-102.552
X151.11Y-102.022
X156.167Y-107.378
X156.698Y-106.848
X165.963Y-114.987
X166.713Y-114.987
X174.032Y-110.121
X176.509Y-110.121
X179.049Y-110.121
X181.652Y-110.121
X183.071Y-107.979
X184.51Y-105.866
X186.669Y-105.803
X188.071Y-107.979
X188.574Y-96.405
X191.622Y-112.915
X192.066Y-113.867
X194.352Y-113.867
X195.271Y-109.279
X196.071Y-101.379
X196.31Y-106.859
X196.575Y-113.867
X199.242Y-96.405
X199.242Y-112.915
T2
X104.151Y-110.995
X104.151Y-113.495
X104.151Y-115.495
X104.151Y-117.995
T3
X127.651Y-116.979
X127.651Y-119.519
X130.191Y-116.979
X130.191Y-119.519
X132.731Y-116.979
X132.731Y-119.519
X135.271Y-116.979
X135.271Y-119.519
X137.811Y-116.979
X137.811Y-119.519
X140.351Y-116.979
X140.351Y-119.519
X173.651Y-116.979
X173.651Y-119.519
X176.191Y-116.979
X176.191Y-119.519
X178.731Y-116.979
X178.731Y-119.519
X181.271Y-116.979
X181.271Y-119.519
X183.811Y-116.979
X183.811Y-119.519
X186.351Y-116.979
X186.351Y-119.519
X150.651Y-116.979
X150.651Y-119.519
X153.191Y-116.979
X153.191Y-119.519
X155.731Y-116.979
X155.731Y-119.519
X158.271Y-116.979
X158.271Y-119.519
X160.811Y-116.979
X160.811Y-119.519
X163.351Y-116.979
X163.351Y-119.519
T4
X96.789Y-90.849
X96.789Y-99.849
T5
X101.441Y-107.925
X101.441Y-121.065
T0
M30
