G04 #@! TF.GenerationSoftware,KiCad,Pcbnew,5.0.2+dfsg1-1*
G04 #@! TF.CreationDate,2019-09-16T14:47:23+01:00*
G04 #@! TF.ProjectId,HDMI_SD_expansion,48444d49-5f53-4445-9f65-7870616e7369,rev?*
G04 #@! TF.SameCoordinates,Original*
G04 #@! TF.FileFunction,Copper,L3,Inr*
G04 #@! TF.FilePolarity,Positive*
%FSLAX46Y46*%
G04 Gerber Fmt 4.6, Leading zero omitted, Abs format (unit mm)*
G04 Created by KiCad (PCBNEW 5.0.2+dfsg1-1) date Mon 16 Sep 2019 14:47:23 BST*
%MOMM*%
%LPD*%
G01*
G04 APERTURE LIST*
G04 #@! TA.AperFunction,ViaPad*
%ADD10C,1.900000*%
G04 #@! TD*
G04 #@! TA.AperFunction,ViaPad*
%ADD11C,3.300000*%
G04 #@! TD*
G04 #@! TA.AperFunction,ViaPad*
%ADD12C,1.300000*%
G04 #@! TD*
G04 #@! TA.AperFunction,ViaPad*
%ADD13C,2.000000*%
G04 #@! TD*
G04 #@! TA.AperFunction,ViaPad*
%ADD14C,0.600000*%
G04 #@! TD*
G04 #@! TA.AperFunction,Conductor*
%ADD15C,0.254000*%
G04 #@! TD*
G04 APERTURE END LIST*
D10*
G04 #@! TO.N,GND*
G04 #@! TO.C,J5*
X104151500Y-117995000D03*
G04 #@! TO.N,/Data+*
X104151500Y-115495000D03*
G04 #@! TO.N,/Data-*
X104151500Y-113495000D03*
G04 #@! TO.N,+5V*
X104151500Y-110995000D03*
D11*
G04 #@! TO.N,Net-(J5-PadSH)*
X101441500Y-121065000D03*
X101441500Y-107925000D03*
G04 #@! TD*
D12*
G04 #@! TO.N,*
G04 #@! TO.C,J4*
X96789241Y-99848709D03*
X96789241Y-90848709D03*
G04 #@! TD*
D13*
G04 #@! TO.N,/TDMS_D0_P*
G04 #@! TO.C,J3*
X150651241Y-116978709D03*
G04 #@! TO.N,/TDMS_D0_N*
X153191241Y-116978709D03*
G04 #@! TO.N,/TDMS_D1_P*
X155731241Y-116978709D03*
G04 #@! TO.N,/TDMS_D1_N*
X158271241Y-116978709D03*
G04 #@! TO.N,GND*
X160811241Y-116978709D03*
G04 #@! TO.N,+3V3*
X163351241Y-116978709D03*
X163351241Y-119518709D03*
G04 #@! TO.N,GND*
X160811241Y-119518709D03*
G04 #@! TO.N,/TDMS_CLK_N*
X158271241Y-119518709D03*
G04 #@! TO.N,/TDMS_CLK_P*
X155731241Y-119518709D03*
G04 #@! TO.N,/TDMS_D2_N*
X153191241Y-119518709D03*
G04 #@! TO.N,/TDMS_D2_P*
X150651241Y-119518709D03*
G04 #@! TD*
G04 #@! TO.N,/DAT1*
G04 #@! TO.C,J1*
X173651241Y-119518709D03*
G04 #@! TO.N,/DAT2*
X176191241Y-119518709D03*
G04 #@! TO.N,/CD*
X178731241Y-119518709D03*
G04 #@! TO.N,/NC_EN*
X181271241Y-119518709D03*
G04 #@! TO.N,GND*
X183811241Y-119518709D03*
G04 #@! TO.N,+3V3*
X186351241Y-119518709D03*
X186351241Y-116978709D03*
G04 #@! TO.N,GND*
X183811241Y-116978709D03*
G04 #@! TO.N,/SCK*
X181271241Y-116978709D03*
G04 #@! TO.N,/MISO_DAT0*
X178731241Y-116978709D03*
G04 #@! TO.N,/MOSI_CMD*
X176191241Y-116978709D03*
G04 #@! TO.N,/CD_DAT3*
X173651241Y-116978709D03*
G04 #@! TD*
G04 #@! TO.N,/SS_USB*
G04 #@! TO.C,J6*
X127651241Y-116978709D03*
G04 #@! TO.N,/MOSI_USB*
X130191241Y-116978709D03*
G04 #@! TO.N,/MISO_USB*
X132731241Y-116978709D03*
G04 #@! TO.N,/SCK_USB*
X135271241Y-116978709D03*
G04 #@! TO.N,GND*
X137811241Y-116978709D03*
G04 #@! TO.N,+3V3*
X140351241Y-116978709D03*
X140351241Y-119518709D03*
G04 #@! TO.N,GND*
X137811241Y-119518709D03*
G04 #@! TO.N,Net-(J6-Pad8)*
X135271241Y-119518709D03*
G04 #@! TO.N,/INT_USB*
X132731241Y-119518709D03*
G04 #@! TO.N,/RST_USB*
X130191241Y-119518709D03*
G04 #@! TO.N,/GPX_USB*
X127651241Y-119518709D03*
G04 #@! TD*
D14*
G04 #@! TO.N,GND*
X199241741Y-112914709D03*
X199241741Y-96404709D03*
X188573741Y-96404709D03*
X184509741Y-105866209D03*
X191621741Y-112914709D03*
X120565241Y-122249209D03*
X135360741Y-100976709D03*
X133519241Y-100976709D03*
X110024241Y-119137709D03*
X107738241Y-117169209D03*
X107738241Y-109168209D03*
X112691241Y-117994709D03*
X132630241Y-107199709D03*
X131741241Y-112025709D03*
X137202241Y-113295709D03*
X135106741Y-113168729D03*
X123676741Y-114819709D03*
X111230741Y-109739709D03*
X110849741Y-106818709D03*
X94149241Y-87324209D03*
X94212741Y-103389709D03*
X105071241Y-99389209D03*
X100245241Y-97865209D03*
X100245241Y-96404709D03*
X105388741Y-94880709D03*
X100372241Y-91832709D03*
X196310500Y-106859000D03*
G04 #@! TO.N,/TDMS_D1_N*
X156697666Y-106847834D03*
G04 #@! TO.N,/TDMS_D1_P*
X156167334Y-107378166D03*
G04 #@! TO.N,/TDMS_D0_P*
X150579334Y-102552166D03*
G04 #@! TO.N,/TDMS_D0_N*
X151109666Y-102021834D03*
G04 #@! TO.N,/TDMS_CLK_N*
X165963500Y-114987000D03*
G04 #@! TO.N,/TDMS_CLK_P*
X166713500Y-114987000D03*
G04 #@! TO.N,/TDMS_D2_N*
X147421500Y-114987000D03*
G04 #@! TO.N,/TDMS_D2_P*
X148171500Y-114987000D03*
G04 #@! TO.N,/DAT2*
X196071241Y-101378709D03*
X195271241Y-109278709D03*
G04 #@! TO.N,+3V3*
X196574741Y-113867209D03*
X194352241Y-113867209D03*
X192066241Y-113867209D03*
X181652241Y-110120709D03*
X176508741Y-110120709D03*
X174032241Y-110120709D03*
X179048741Y-110120709D03*
X186668741Y-105802709D03*
X112183241Y-113359209D03*
X111040241Y-119137709D03*
X138853241Y-110819209D03*
X127042241Y-107326709D03*
X122216241Y-114819709D03*
G04 #@! TO.N,/MISO_DAT0*
X188071241Y-107978709D03*
X183071241Y-107978709D03*
G04 #@! TO.N,Net-(TP1-Pad1)*
X135614741Y-109803209D03*
X129963241Y-108850709D03*
G04 #@! TO.N,/RST_USB*
X118585485Y-109683185D03*
X123930741Y-109676209D03*
G04 #@! TO.N,/MISO_USB*
X118468230Y-111036978D03*
X121913254Y-110942472D03*
G04 #@! TO.N,/MOSI_USB*
X117961741Y-111771709D03*
X121733067Y-111777259D03*
G04 #@! TO.N,/GPX_USB*
X113834241Y-109041209D03*
X124311741Y-119518709D03*
G04 #@! TO.N,/INT_USB*
X115159809Y-113161526D03*
G04 #@! TD*
D15*
G04 #@! TO.N,+3V3*
G36*
X199916242Y-95756920D02*
X199771376Y-95612054D01*
X199427724Y-95469709D01*
X199055758Y-95469709D01*
X198712106Y-95612054D01*
X198449086Y-95875074D01*
X198306741Y-96218726D01*
X198306741Y-96590692D01*
X198449086Y-96934344D01*
X198712106Y-97197364D01*
X199055758Y-97339709D01*
X199427724Y-97339709D01*
X199771376Y-97197364D01*
X199916242Y-97052498D01*
X199916241Y-112266919D01*
X199771376Y-112122054D01*
X199427724Y-111979709D01*
X199055758Y-111979709D01*
X198712106Y-112122054D01*
X198449086Y-112385074D01*
X198306741Y-112728726D01*
X198306741Y-113100692D01*
X198449086Y-113444344D01*
X198712106Y-113707364D01*
X199055758Y-113849709D01*
X199427724Y-113849709D01*
X199771376Y-113707364D01*
X199916241Y-113562499D01*
X199916241Y-123743709D01*
X92386241Y-123743709D01*
X92386241Y-120610485D01*
X99156500Y-120610485D01*
X99156500Y-121519515D01*
X99504370Y-122359349D01*
X100147151Y-123002130D01*
X100986985Y-123350000D01*
X101896015Y-123350000D01*
X102735849Y-123002130D01*
X103378630Y-122359349D01*
X103501287Y-122063226D01*
X119630241Y-122063226D01*
X119630241Y-122435192D01*
X119772586Y-122778844D01*
X120035606Y-123041864D01*
X120379258Y-123184209D01*
X120751224Y-123184209D01*
X121094876Y-123041864D01*
X121357896Y-122778844D01*
X121500241Y-122435192D01*
X121500241Y-122063226D01*
X121357896Y-121719574D01*
X121094876Y-121456554D01*
X120751224Y-121314209D01*
X120379258Y-121314209D01*
X120035606Y-121456554D01*
X119772586Y-121719574D01*
X119630241Y-122063226D01*
X103501287Y-122063226D01*
X103726500Y-121519515D01*
X103726500Y-120610485D01*
X103378630Y-119770651D01*
X102735849Y-119127870D01*
X101896015Y-118780000D01*
X100986985Y-118780000D01*
X100147151Y-119127870D01*
X99504370Y-119770651D01*
X99156500Y-120610485D01*
X92386241Y-120610485D01*
X92386241Y-110679724D01*
X102566500Y-110679724D01*
X102566500Y-111310276D01*
X102807802Y-111892830D01*
X103159972Y-112245000D01*
X102807802Y-112597170D01*
X102566500Y-113179724D01*
X102566500Y-113810276D01*
X102807802Y-114392830D01*
X102909972Y-114495000D01*
X102807802Y-114597170D01*
X102566500Y-115179724D01*
X102566500Y-115810276D01*
X102807802Y-116392830D01*
X103159972Y-116745000D01*
X102807802Y-117097170D01*
X102566500Y-117679724D01*
X102566500Y-118310276D01*
X102807802Y-118892830D01*
X103253670Y-119338698D01*
X103836224Y-119580000D01*
X104466776Y-119580000D01*
X105049330Y-119338698D01*
X105436302Y-118951726D01*
X109089241Y-118951726D01*
X109089241Y-119323692D01*
X109231586Y-119667344D01*
X109494606Y-119930364D01*
X109838258Y-120072709D01*
X110210224Y-120072709D01*
X110553876Y-119930364D01*
X110816896Y-119667344D01*
X110955499Y-119332726D01*
X123376741Y-119332726D01*
X123376741Y-119704692D01*
X123519086Y-120048344D01*
X123782106Y-120311364D01*
X124125758Y-120453709D01*
X124497724Y-120453709D01*
X124841376Y-120311364D01*
X125104396Y-120048344D01*
X125246741Y-119704692D01*
X125246741Y-119332726D01*
X125104396Y-118989074D01*
X124841376Y-118726054D01*
X124497724Y-118583709D01*
X124125758Y-118583709D01*
X123782106Y-118726054D01*
X123519086Y-118989074D01*
X123376741Y-119332726D01*
X110955499Y-119332726D01*
X110959241Y-119323692D01*
X110959241Y-118951726D01*
X110816896Y-118608074D01*
X110553876Y-118345054D01*
X110210224Y-118202709D01*
X109838258Y-118202709D01*
X109494606Y-118345054D01*
X109231586Y-118608074D01*
X109089241Y-118951726D01*
X105436302Y-118951726D01*
X105495198Y-118892830D01*
X105736500Y-118310276D01*
X105736500Y-117679724D01*
X105495198Y-117097170D01*
X105381254Y-116983226D01*
X106803241Y-116983226D01*
X106803241Y-117355192D01*
X106945586Y-117698844D01*
X107208606Y-117961864D01*
X107552258Y-118104209D01*
X107924224Y-118104209D01*
X108267876Y-117961864D01*
X108421014Y-117808726D01*
X111756241Y-117808726D01*
X111756241Y-118180692D01*
X111898586Y-118524344D01*
X112161606Y-118787364D01*
X112505258Y-118929709D01*
X112877224Y-118929709D01*
X113220876Y-118787364D01*
X113483896Y-118524344D01*
X113626241Y-118180692D01*
X113626241Y-117808726D01*
X113483896Y-117465074D01*
X113220876Y-117202054D01*
X112877224Y-117059709D01*
X112505258Y-117059709D01*
X112161606Y-117202054D01*
X111898586Y-117465074D01*
X111756241Y-117808726D01*
X108421014Y-117808726D01*
X108530896Y-117698844D01*
X108673241Y-117355192D01*
X108673241Y-116983226D01*
X108536659Y-116653487D01*
X126016241Y-116653487D01*
X126016241Y-117303931D01*
X126265155Y-117904862D01*
X126609002Y-118248709D01*
X126265155Y-118592556D01*
X126016241Y-119193487D01*
X126016241Y-119843931D01*
X126265155Y-120444862D01*
X126725088Y-120904795D01*
X127326019Y-121153709D01*
X127976463Y-121153709D01*
X128577394Y-120904795D01*
X128921241Y-120560948D01*
X129265088Y-120904795D01*
X129866019Y-121153709D01*
X130516463Y-121153709D01*
X131117394Y-120904795D01*
X131461241Y-120560948D01*
X131805088Y-120904795D01*
X132406019Y-121153709D01*
X133056463Y-121153709D01*
X133657394Y-120904795D01*
X134001241Y-120560948D01*
X134345088Y-120904795D01*
X134946019Y-121153709D01*
X135596463Y-121153709D01*
X136197394Y-120904795D01*
X136541241Y-120560948D01*
X136885088Y-120904795D01*
X137486019Y-121153709D01*
X138136463Y-121153709D01*
X138737394Y-120904795D01*
X138970948Y-120671241D01*
X139378314Y-120671241D01*
X139476977Y-120938096D01*
X140086702Y-121164617D01*
X140736701Y-121140565D01*
X141225505Y-120938096D01*
X141324168Y-120671241D01*
X140351241Y-119698314D01*
X139378314Y-120671241D01*
X138970948Y-120671241D01*
X139163552Y-120478637D01*
X139198709Y-120491636D01*
X140171636Y-119518709D01*
X140530846Y-119518709D01*
X141503773Y-120491636D01*
X141770628Y-120392973D01*
X141997149Y-119783248D01*
X141973097Y-119133249D01*
X141770628Y-118644445D01*
X141503773Y-118545782D01*
X140530846Y-119518709D01*
X140171636Y-119518709D01*
X139198709Y-118545782D01*
X139163552Y-118558781D01*
X138853480Y-118248709D01*
X138970948Y-118131241D01*
X139378314Y-118131241D01*
X139421745Y-118248709D01*
X139378314Y-118366177D01*
X140351241Y-119339104D01*
X141324168Y-118366177D01*
X141280737Y-118248709D01*
X141324168Y-118131241D01*
X140351241Y-117158314D01*
X139378314Y-118131241D01*
X138970948Y-118131241D01*
X139163552Y-117938637D01*
X139198709Y-117951636D01*
X140171636Y-116978709D01*
X140530846Y-116978709D01*
X141503773Y-117951636D01*
X141770628Y-117852973D01*
X141997149Y-117243248D01*
X141975326Y-116653487D01*
X149016241Y-116653487D01*
X149016241Y-117303931D01*
X149265155Y-117904862D01*
X149609002Y-118248709D01*
X149265155Y-118592556D01*
X149016241Y-119193487D01*
X149016241Y-119843931D01*
X149265155Y-120444862D01*
X149725088Y-120904795D01*
X150326019Y-121153709D01*
X150976463Y-121153709D01*
X151577394Y-120904795D01*
X151921241Y-120560948D01*
X152265088Y-120904795D01*
X152866019Y-121153709D01*
X153516463Y-121153709D01*
X154117394Y-120904795D01*
X154461241Y-120560948D01*
X154805088Y-120904795D01*
X155406019Y-121153709D01*
X156056463Y-121153709D01*
X156657394Y-120904795D01*
X157001241Y-120560948D01*
X157345088Y-120904795D01*
X157946019Y-121153709D01*
X158596463Y-121153709D01*
X159197394Y-120904795D01*
X159541241Y-120560948D01*
X159885088Y-120904795D01*
X160486019Y-121153709D01*
X161136463Y-121153709D01*
X161737394Y-120904795D01*
X161970948Y-120671241D01*
X162378314Y-120671241D01*
X162476977Y-120938096D01*
X163086702Y-121164617D01*
X163736701Y-121140565D01*
X164225505Y-120938096D01*
X164324168Y-120671241D01*
X163351241Y-119698314D01*
X162378314Y-120671241D01*
X161970948Y-120671241D01*
X162163552Y-120478637D01*
X162198709Y-120491636D01*
X163171636Y-119518709D01*
X163530846Y-119518709D01*
X164503773Y-120491636D01*
X164770628Y-120392973D01*
X164997149Y-119783248D01*
X164973097Y-119133249D01*
X164770628Y-118644445D01*
X164503773Y-118545782D01*
X163530846Y-119518709D01*
X163171636Y-119518709D01*
X162198709Y-118545782D01*
X162163552Y-118558781D01*
X161853480Y-118248709D01*
X161970948Y-118131241D01*
X162378314Y-118131241D01*
X162421745Y-118248709D01*
X162378314Y-118366177D01*
X163351241Y-119339104D01*
X164324168Y-118366177D01*
X164280737Y-118248709D01*
X164324168Y-118131241D01*
X163351241Y-117158314D01*
X162378314Y-118131241D01*
X161970948Y-118131241D01*
X162163552Y-117938637D01*
X162198709Y-117951636D01*
X163171636Y-116978709D01*
X163530846Y-116978709D01*
X164503773Y-117951636D01*
X164770628Y-117852973D01*
X164997149Y-117243248D01*
X164975326Y-116653487D01*
X172016241Y-116653487D01*
X172016241Y-117303931D01*
X172265155Y-117904862D01*
X172609002Y-118248709D01*
X172265155Y-118592556D01*
X172016241Y-119193487D01*
X172016241Y-119843931D01*
X172265155Y-120444862D01*
X172725088Y-120904795D01*
X173326019Y-121153709D01*
X173976463Y-121153709D01*
X174577394Y-120904795D01*
X174921241Y-120560948D01*
X175265088Y-120904795D01*
X175866019Y-121153709D01*
X176516463Y-121153709D01*
X177117394Y-120904795D01*
X177461241Y-120560948D01*
X177805088Y-120904795D01*
X178406019Y-121153709D01*
X179056463Y-121153709D01*
X179657394Y-120904795D01*
X180001241Y-120560948D01*
X180345088Y-120904795D01*
X180946019Y-121153709D01*
X181596463Y-121153709D01*
X182197394Y-120904795D01*
X182541241Y-120560948D01*
X182885088Y-120904795D01*
X183486019Y-121153709D01*
X184136463Y-121153709D01*
X184737394Y-120904795D01*
X184970948Y-120671241D01*
X185378314Y-120671241D01*
X185476977Y-120938096D01*
X186086702Y-121164617D01*
X186736701Y-121140565D01*
X187225505Y-120938096D01*
X187324168Y-120671241D01*
X186351241Y-119698314D01*
X185378314Y-120671241D01*
X184970948Y-120671241D01*
X185163552Y-120478637D01*
X185198709Y-120491636D01*
X186171636Y-119518709D01*
X186530846Y-119518709D01*
X187503773Y-120491636D01*
X187770628Y-120392973D01*
X187997149Y-119783248D01*
X187973097Y-119133249D01*
X187770628Y-118644445D01*
X187503773Y-118545782D01*
X186530846Y-119518709D01*
X186171636Y-119518709D01*
X185198709Y-118545782D01*
X185163552Y-118558781D01*
X184853480Y-118248709D01*
X184970948Y-118131241D01*
X185378314Y-118131241D01*
X185421745Y-118248709D01*
X185378314Y-118366177D01*
X186351241Y-119339104D01*
X187324168Y-118366177D01*
X187280737Y-118248709D01*
X187324168Y-118131241D01*
X186351241Y-117158314D01*
X185378314Y-118131241D01*
X184970948Y-118131241D01*
X185163552Y-117938637D01*
X185198709Y-117951636D01*
X186171636Y-116978709D01*
X186530846Y-116978709D01*
X187503773Y-117951636D01*
X187770628Y-117852973D01*
X187997149Y-117243248D01*
X187973097Y-116593249D01*
X187770628Y-116104445D01*
X187503773Y-116005782D01*
X186530846Y-116978709D01*
X186171636Y-116978709D01*
X185198709Y-116005782D01*
X185163552Y-116018781D01*
X184970948Y-115826177D01*
X185378314Y-115826177D01*
X186351241Y-116799104D01*
X187324168Y-115826177D01*
X187225505Y-115559322D01*
X186615780Y-115332801D01*
X185965781Y-115356853D01*
X185476977Y-115559322D01*
X185378314Y-115826177D01*
X184970948Y-115826177D01*
X184737394Y-115592623D01*
X184136463Y-115343709D01*
X183486019Y-115343709D01*
X182885088Y-115592623D01*
X182541241Y-115936470D01*
X182197394Y-115592623D01*
X181596463Y-115343709D01*
X180946019Y-115343709D01*
X180345088Y-115592623D01*
X180001241Y-115936470D01*
X179657394Y-115592623D01*
X179056463Y-115343709D01*
X178406019Y-115343709D01*
X177805088Y-115592623D01*
X177461241Y-115936470D01*
X177117394Y-115592623D01*
X176516463Y-115343709D01*
X175866019Y-115343709D01*
X175265088Y-115592623D01*
X174921241Y-115936470D01*
X174577394Y-115592623D01*
X173976463Y-115343709D01*
X173326019Y-115343709D01*
X172725088Y-115592623D01*
X172265155Y-116052556D01*
X172016241Y-116653487D01*
X164975326Y-116653487D01*
X164973097Y-116593249D01*
X164770628Y-116104445D01*
X164503773Y-116005782D01*
X163530846Y-116978709D01*
X163171636Y-116978709D01*
X162198709Y-116005782D01*
X162163552Y-116018781D01*
X161970948Y-115826177D01*
X162378314Y-115826177D01*
X163351241Y-116799104D01*
X164324168Y-115826177D01*
X164225505Y-115559322D01*
X163615780Y-115332801D01*
X162965781Y-115356853D01*
X162476977Y-115559322D01*
X162378314Y-115826177D01*
X161970948Y-115826177D01*
X161737394Y-115592623D01*
X161136463Y-115343709D01*
X160486019Y-115343709D01*
X159885088Y-115592623D01*
X159541241Y-115936470D01*
X159197394Y-115592623D01*
X158596463Y-115343709D01*
X157946019Y-115343709D01*
X157345088Y-115592623D01*
X157001241Y-115936470D01*
X156657394Y-115592623D01*
X156056463Y-115343709D01*
X155406019Y-115343709D01*
X154805088Y-115592623D01*
X154461241Y-115936470D01*
X154117394Y-115592623D01*
X153516463Y-115343709D01*
X152866019Y-115343709D01*
X152265088Y-115592623D01*
X151921241Y-115936470D01*
X151577394Y-115592623D01*
X150976463Y-115343709D01*
X150326019Y-115343709D01*
X149725088Y-115592623D01*
X149265155Y-116052556D01*
X149016241Y-116653487D01*
X141975326Y-116653487D01*
X141973097Y-116593249D01*
X141770628Y-116104445D01*
X141503773Y-116005782D01*
X140530846Y-116978709D01*
X140171636Y-116978709D01*
X139198709Y-116005782D01*
X139163552Y-116018781D01*
X138970948Y-115826177D01*
X139378314Y-115826177D01*
X140351241Y-116799104D01*
X141324168Y-115826177D01*
X141225505Y-115559322D01*
X140615780Y-115332801D01*
X139965781Y-115356853D01*
X139476977Y-115559322D01*
X139378314Y-115826177D01*
X138970948Y-115826177D01*
X138737394Y-115592623D01*
X138136463Y-115343709D01*
X137486019Y-115343709D01*
X136885088Y-115592623D01*
X136541241Y-115936470D01*
X136197394Y-115592623D01*
X135596463Y-115343709D01*
X134946019Y-115343709D01*
X134345088Y-115592623D01*
X134001241Y-115936470D01*
X133657394Y-115592623D01*
X133056463Y-115343709D01*
X132406019Y-115343709D01*
X131805088Y-115592623D01*
X131461241Y-115936470D01*
X131117394Y-115592623D01*
X130516463Y-115343709D01*
X129866019Y-115343709D01*
X129265088Y-115592623D01*
X128921241Y-115936470D01*
X128577394Y-115592623D01*
X127976463Y-115343709D01*
X127326019Y-115343709D01*
X126725088Y-115592623D01*
X126265155Y-116052556D01*
X126016241Y-116653487D01*
X108536659Y-116653487D01*
X108530896Y-116639574D01*
X108267876Y-116376554D01*
X107924224Y-116234209D01*
X107552258Y-116234209D01*
X107208606Y-116376554D01*
X106945586Y-116639574D01*
X106803241Y-116983226D01*
X105381254Y-116983226D01*
X105143028Y-116745000D01*
X105495198Y-116392830D01*
X105736500Y-115810276D01*
X105736500Y-115179724D01*
X105510341Y-114633726D01*
X122741741Y-114633726D01*
X122741741Y-115005692D01*
X122884086Y-115349344D01*
X123147106Y-115612364D01*
X123490758Y-115754709D01*
X123862724Y-115754709D01*
X124206376Y-115612364D01*
X124469396Y-115349344D01*
X124611741Y-115005692D01*
X124611741Y-114801017D01*
X146486500Y-114801017D01*
X146486500Y-115172983D01*
X146628845Y-115516635D01*
X146891865Y-115779655D01*
X147235517Y-115922000D01*
X147607483Y-115922000D01*
X147796500Y-115843707D01*
X147985517Y-115922000D01*
X148357483Y-115922000D01*
X148701135Y-115779655D01*
X148964155Y-115516635D01*
X149106500Y-115172983D01*
X149106500Y-114801017D01*
X165028500Y-114801017D01*
X165028500Y-115172983D01*
X165170845Y-115516635D01*
X165433865Y-115779655D01*
X165777517Y-115922000D01*
X166149483Y-115922000D01*
X166338500Y-115843707D01*
X166527517Y-115922000D01*
X166899483Y-115922000D01*
X167243135Y-115779655D01*
X167506155Y-115516635D01*
X167648500Y-115172983D01*
X167648500Y-114801017D01*
X167506155Y-114457365D01*
X167243135Y-114194345D01*
X166899483Y-114052000D01*
X166527517Y-114052000D01*
X166338500Y-114130293D01*
X166149483Y-114052000D01*
X165777517Y-114052000D01*
X165433865Y-114194345D01*
X165170845Y-114457365D01*
X165028500Y-114801017D01*
X149106500Y-114801017D01*
X148964155Y-114457365D01*
X148701135Y-114194345D01*
X148357483Y-114052000D01*
X147985517Y-114052000D01*
X147796500Y-114130293D01*
X147607483Y-114052000D01*
X147235517Y-114052000D01*
X146891865Y-114194345D01*
X146628845Y-114457365D01*
X146486500Y-114801017D01*
X124611741Y-114801017D01*
X124611741Y-114633726D01*
X124469396Y-114290074D01*
X124206376Y-114027054D01*
X123862724Y-113884709D01*
X123490758Y-113884709D01*
X123147106Y-114027054D01*
X122884086Y-114290074D01*
X122741741Y-114633726D01*
X105510341Y-114633726D01*
X105495198Y-114597170D01*
X105393028Y-114495000D01*
X105495198Y-114392830D01*
X105736500Y-113810276D01*
X105736500Y-113179724D01*
X105651926Y-112975543D01*
X114224809Y-112975543D01*
X114224809Y-113347509D01*
X114367154Y-113691161D01*
X114630174Y-113954181D01*
X114973826Y-114096526D01*
X115345792Y-114096526D01*
X115689444Y-113954181D01*
X115952464Y-113691161D01*
X116094809Y-113347509D01*
X116094809Y-112982746D01*
X134171741Y-112982746D01*
X134171741Y-113354712D01*
X134314086Y-113698364D01*
X134577106Y-113961384D01*
X134920758Y-114103729D01*
X135292724Y-114103729D01*
X135636376Y-113961384D01*
X135899396Y-113698364D01*
X136041741Y-113354712D01*
X136041741Y-113109726D01*
X136267241Y-113109726D01*
X136267241Y-113481692D01*
X136409586Y-113825344D01*
X136672606Y-114088364D01*
X137016258Y-114230709D01*
X137388224Y-114230709D01*
X137731876Y-114088364D01*
X137994896Y-113825344D01*
X138137241Y-113481692D01*
X138137241Y-113109726D01*
X137994896Y-112766074D01*
X137957548Y-112728726D01*
X190686741Y-112728726D01*
X190686741Y-113100692D01*
X190829086Y-113444344D01*
X191092106Y-113707364D01*
X191435758Y-113849709D01*
X191807724Y-113849709D01*
X192151376Y-113707364D01*
X192414396Y-113444344D01*
X192556741Y-113100692D01*
X192556741Y-112728726D01*
X192414396Y-112385074D01*
X192151376Y-112122054D01*
X191807724Y-111979709D01*
X191435758Y-111979709D01*
X191092106Y-112122054D01*
X190829086Y-112385074D01*
X190686741Y-112728726D01*
X137957548Y-112728726D01*
X137731876Y-112503054D01*
X137388224Y-112360709D01*
X137016258Y-112360709D01*
X136672606Y-112503054D01*
X136409586Y-112766074D01*
X136267241Y-113109726D01*
X136041741Y-113109726D01*
X136041741Y-112982746D01*
X135899396Y-112639094D01*
X135636376Y-112376074D01*
X135292724Y-112233729D01*
X134920758Y-112233729D01*
X134577106Y-112376074D01*
X134314086Y-112639094D01*
X134171741Y-112982746D01*
X116094809Y-112982746D01*
X116094809Y-112975543D01*
X115952464Y-112631891D01*
X115689444Y-112368871D01*
X115345792Y-112226526D01*
X114973826Y-112226526D01*
X114630174Y-112368871D01*
X114367154Y-112631891D01*
X114224809Y-112975543D01*
X105651926Y-112975543D01*
X105495198Y-112597170D01*
X105143028Y-112245000D01*
X105495198Y-111892830D01*
X105622404Y-111585726D01*
X117026741Y-111585726D01*
X117026741Y-111957692D01*
X117169086Y-112301344D01*
X117432106Y-112564364D01*
X117775758Y-112706709D01*
X118147724Y-112706709D01*
X118491376Y-112564364D01*
X118754396Y-112301344D01*
X118896741Y-111957692D01*
X118896741Y-111871520D01*
X118997865Y-111829633D01*
X119236222Y-111591276D01*
X120798067Y-111591276D01*
X120798067Y-111963242D01*
X120940412Y-112306894D01*
X121203432Y-112569914D01*
X121547084Y-112712259D01*
X121919050Y-112712259D01*
X122262702Y-112569914D01*
X122525722Y-112306894D01*
X122668067Y-111963242D01*
X122668067Y-111839726D01*
X130806241Y-111839726D01*
X130806241Y-112211692D01*
X130948586Y-112555344D01*
X131211606Y-112818364D01*
X131555258Y-112960709D01*
X131927224Y-112960709D01*
X132270876Y-112818364D01*
X132533896Y-112555344D01*
X132676241Y-112211692D01*
X132676241Y-111839726D01*
X132533896Y-111496074D01*
X132270876Y-111233054D01*
X131927224Y-111090709D01*
X131555258Y-111090709D01*
X131211606Y-111233054D01*
X130948586Y-111496074D01*
X130806241Y-111839726D01*
X122668067Y-111839726D01*
X122668067Y-111591276D01*
X122644247Y-111533769D01*
X122705909Y-111472107D01*
X122848254Y-111128455D01*
X122848254Y-110756489D01*
X122705909Y-110412837D01*
X122442889Y-110149817D01*
X122099237Y-110007472D01*
X121727271Y-110007472D01*
X121383619Y-110149817D01*
X121120599Y-110412837D01*
X120978254Y-110756489D01*
X120978254Y-111128455D01*
X121002074Y-111185962D01*
X120940412Y-111247624D01*
X120798067Y-111591276D01*
X119236222Y-111591276D01*
X119260885Y-111566613D01*
X119403230Y-111222961D01*
X119403230Y-110850995D01*
X119260885Y-110507343D01*
X119172251Y-110418709D01*
X119378140Y-110212820D01*
X119520485Y-109869168D01*
X119520485Y-109497202D01*
X119517596Y-109490226D01*
X122995741Y-109490226D01*
X122995741Y-109862192D01*
X123138086Y-110205844D01*
X123401106Y-110468864D01*
X123744758Y-110611209D01*
X124116724Y-110611209D01*
X124460376Y-110468864D01*
X124723396Y-110205844D01*
X124865741Y-109862192D01*
X124865741Y-109490226D01*
X124723396Y-109146574D01*
X124460376Y-108883554D01*
X124116724Y-108741209D01*
X123744758Y-108741209D01*
X123401106Y-108883554D01*
X123138086Y-109146574D01*
X122995741Y-109490226D01*
X119517596Y-109490226D01*
X119378140Y-109153550D01*
X119115120Y-108890530D01*
X118771468Y-108748185D01*
X118399502Y-108748185D01*
X118055850Y-108890530D01*
X117792830Y-109153550D01*
X117650485Y-109497202D01*
X117650485Y-109869168D01*
X117792830Y-110212820D01*
X117881464Y-110301454D01*
X117675575Y-110507343D01*
X117533230Y-110850995D01*
X117533230Y-110937167D01*
X117432106Y-110979054D01*
X117169086Y-111242074D01*
X117026741Y-111585726D01*
X105622404Y-111585726D01*
X105736500Y-111310276D01*
X105736500Y-110679724D01*
X105495198Y-110097170D01*
X105049330Y-109651302D01*
X104466776Y-109410000D01*
X103836224Y-109410000D01*
X103253670Y-109651302D01*
X102807802Y-110097170D01*
X102566500Y-110679724D01*
X92386241Y-110679724D01*
X92386241Y-107470485D01*
X99156500Y-107470485D01*
X99156500Y-108379515D01*
X99504370Y-109219349D01*
X100147151Y-109862130D01*
X100986985Y-110210000D01*
X101896015Y-110210000D01*
X102735849Y-109862130D01*
X103378630Y-109219349D01*
X103476849Y-108982226D01*
X106803241Y-108982226D01*
X106803241Y-109354192D01*
X106945586Y-109697844D01*
X107208606Y-109960864D01*
X107552258Y-110103209D01*
X107924224Y-110103209D01*
X108267876Y-109960864D01*
X108530896Y-109697844D01*
X108590591Y-109553726D01*
X110295741Y-109553726D01*
X110295741Y-109925692D01*
X110438086Y-110269344D01*
X110701106Y-110532364D01*
X111044758Y-110674709D01*
X111416724Y-110674709D01*
X111760376Y-110532364D01*
X112023396Y-110269344D01*
X112165741Y-109925692D01*
X112165741Y-109553726D01*
X112023396Y-109210074D01*
X111760376Y-108947054D01*
X111538684Y-108855226D01*
X112899241Y-108855226D01*
X112899241Y-109227192D01*
X113041586Y-109570844D01*
X113304606Y-109833864D01*
X113648258Y-109976209D01*
X114020224Y-109976209D01*
X114363876Y-109833864D01*
X114626896Y-109570844D01*
X114769241Y-109227192D01*
X114769241Y-108855226D01*
X114690334Y-108664726D01*
X129028241Y-108664726D01*
X129028241Y-109036692D01*
X129170586Y-109380344D01*
X129433606Y-109643364D01*
X129777258Y-109785709D01*
X130149224Y-109785709D01*
X130492876Y-109643364D01*
X130519014Y-109617226D01*
X134679741Y-109617226D01*
X134679741Y-109989192D01*
X134822086Y-110332844D01*
X135085106Y-110595864D01*
X135428758Y-110738209D01*
X135800724Y-110738209D01*
X136144376Y-110595864D01*
X136407396Y-110332844D01*
X136549741Y-109989192D01*
X136549741Y-109617226D01*
X136407396Y-109273574D01*
X136226548Y-109092726D01*
X194336241Y-109092726D01*
X194336241Y-109464692D01*
X194478586Y-109808344D01*
X194741606Y-110071364D01*
X195085258Y-110213709D01*
X195457224Y-110213709D01*
X195800876Y-110071364D01*
X196063896Y-109808344D01*
X196206241Y-109464692D01*
X196206241Y-109092726D01*
X196063896Y-108749074D01*
X195800876Y-108486054D01*
X195457224Y-108343709D01*
X195085258Y-108343709D01*
X194741606Y-108486054D01*
X194478586Y-108749074D01*
X194336241Y-109092726D01*
X136226548Y-109092726D01*
X136144376Y-109010554D01*
X135800724Y-108868209D01*
X135428758Y-108868209D01*
X135085106Y-109010554D01*
X134822086Y-109273574D01*
X134679741Y-109617226D01*
X130519014Y-109617226D01*
X130755896Y-109380344D01*
X130898241Y-109036692D01*
X130898241Y-108664726D01*
X130755896Y-108321074D01*
X130492876Y-108058054D01*
X130149224Y-107915709D01*
X129777258Y-107915709D01*
X129433606Y-108058054D01*
X129170586Y-108321074D01*
X129028241Y-108664726D01*
X114690334Y-108664726D01*
X114626896Y-108511574D01*
X114363876Y-108248554D01*
X114020224Y-108106209D01*
X113648258Y-108106209D01*
X113304606Y-108248554D01*
X113041586Y-108511574D01*
X112899241Y-108855226D01*
X111538684Y-108855226D01*
X111416724Y-108804709D01*
X111044758Y-108804709D01*
X110701106Y-108947054D01*
X110438086Y-109210074D01*
X110295741Y-109553726D01*
X108590591Y-109553726D01*
X108673241Y-109354192D01*
X108673241Y-108982226D01*
X108530896Y-108638574D01*
X108267876Y-108375554D01*
X107924224Y-108233209D01*
X107552258Y-108233209D01*
X107208606Y-108375554D01*
X106945586Y-108638574D01*
X106803241Y-108982226D01*
X103476849Y-108982226D01*
X103726500Y-108379515D01*
X103726500Y-107470485D01*
X103379490Y-106632726D01*
X109914741Y-106632726D01*
X109914741Y-107004692D01*
X110057086Y-107348344D01*
X110320106Y-107611364D01*
X110663758Y-107753709D01*
X111035724Y-107753709D01*
X111379376Y-107611364D01*
X111642396Y-107348344D01*
X111780999Y-107013726D01*
X131695241Y-107013726D01*
X131695241Y-107385692D01*
X131837586Y-107729344D01*
X132100606Y-107992364D01*
X132444258Y-108134709D01*
X132816224Y-108134709D01*
X133159876Y-107992364D01*
X133422896Y-107729344D01*
X133565241Y-107385692D01*
X133565241Y-107192183D01*
X155232334Y-107192183D01*
X155232334Y-107564149D01*
X155374679Y-107907801D01*
X155637699Y-108170821D01*
X155981351Y-108313166D01*
X156353317Y-108313166D01*
X156696969Y-108170821D01*
X156959989Y-107907801D01*
X157007654Y-107792726D01*
X182136241Y-107792726D01*
X182136241Y-108164692D01*
X182278586Y-108508344D01*
X182541606Y-108771364D01*
X182885258Y-108913709D01*
X183257224Y-108913709D01*
X183600876Y-108771364D01*
X183863896Y-108508344D01*
X184006241Y-108164692D01*
X184006241Y-107792726D01*
X187136241Y-107792726D01*
X187136241Y-108164692D01*
X187278586Y-108508344D01*
X187541606Y-108771364D01*
X187885258Y-108913709D01*
X188257224Y-108913709D01*
X188600876Y-108771364D01*
X188863896Y-108508344D01*
X189006241Y-108164692D01*
X189006241Y-107792726D01*
X188863896Y-107449074D01*
X188600876Y-107186054D01*
X188257224Y-107043709D01*
X187885258Y-107043709D01*
X187541606Y-107186054D01*
X187278586Y-107449074D01*
X187136241Y-107792726D01*
X184006241Y-107792726D01*
X183863896Y-107449074D01*
X183600876Y-107186054D01*
X183257224Y-107043709D01*
X182885258Y-107043709D01*
X182541606Y-107186054D01*
X182278586Y-107449074D01*
X182136241Y-107792726D01*
X157007654Y-107792726D01*
X157038283Y-107718783D01*
X157227301Y-107640489D01*
X157490321Y-107377469D01*
X157632666Y-107033817D01*
X157632666Y-106661851D01*
X157490321Y-106318199D01*
X157227301Y-106055179D01*
X156883649Y-105912834D01*
X156511683Y-105912834D01*
X156168031Y-106055179D01*
X155905011Y-106318199D01*
X155826717Y-106507217D01*
X155637699Y-106585511D01*
X155374679Y-106848531D01*
X155232334Y-107192183D01*
X133565241Y-107192183D01*
X133565241Y-107013726D01*
X133422896Y-106670074D01*
X133159876Y-106407054D01*
X132816224Y-106264709D01*
X132444258Y-106264709D01*
X132100606Y-106407054D01*
X131837586Y-106670074D01*
X131695241Y-107013726D01*
X111780999Y-107013726D01*
X111784741Y-107004692D01*
X111784741Y-106632726D01*
X111642396Y-106289074D01*
X111379376Y-106026054D01*
X111035724Y-105883709D01*
X110663758Y-105883709D01*
X110320106Y-106026054D01*
X110057086Y-106289074D01*
X109914741Y-106632726D01*
X103379490Y-106632726D01*
X103378630Y-106630651D01*
X102735849Y-105987870D01*
X101993130Y-105680226D01*
X183574741Y-105680226D01*
X183574741Y-106052192D01*
X183717086Y-106395844D01*
X183980106Y-106658864D01*
X184323758Y-106801209D01*
X184695724Y-106801209D01*
X185005207Y-106673017D01*
X195375500Y-106673017D01*
X195375500Y-107044983D01*
X195517845Y-107388635D01*
X195780865Y-107651655D01*
X196124517Y-107794000D01*
X196496483Y-107794000D01*
X196840135Y-107651655D01*
X197103155Y-107388635D01*
X197245500Y-107044983D01*
X197245500Y-106673017D01*
X197103155Y-106329365D01*
X196840135Y-106066345D01*
X196496483Y-105924000D01*
X196124517Y-105924000D01*
X195780865Y-106066345D01*
X195517845Y-106329365D01*
X195375500Y-106673017D01*
X185005207Y-106673017D01*
X185039376Y-106658864D01*
X185302396Y-106395844D01*
X185444741Y-106052192D01*
X185444741Y-105680226D01*
X185302396Y-105336574D01*
X185039376Y-105073554D01*
X184695724Y-104931209D01*
X184323758Y-104931209D01*
X183980106Y-105073554D01*
X183717086Y-105336574D01*
X183574741Y-105680226D01*
X101993130Y-105680226D01*
X101896015Y-105640000D01*
X100986985Y-105640000D01*
X100147151Y-105987870D01*
X99504370Y-106630651D01*
X99156500Y-107470485D01*
X92386241Y-107470485D01*
X92386241Y-103203726D01*
X93277741Y-103203726D01*
X93277741Y-103575692D01*
X93420086Y-103919344D01*
X93683106Y-104182364D01*
X94026758Y-104324709D01*
X94398724Y-104324709D01*
X94742376Y-104182364D01*
X95005396Y-103919344D01*
X95147741Y-103575692D01*
X95147741Y-103203726D01*
X95005396Y-102860074D01*
X94742376Y-102597054D01*
X94398724Y-102454709D01*
X94026758Y-102454709D01*
X93683106Y-102597054D01*
X93420086Y-102860074D01*
X93277741Y-103203726D01*
X92386241Y-103203726D01*
X92386241Y-102366183D01*
X149644334Y-102366183D01*
X149644334Y-102738149D01*
X149786679Y-103081801D01*
X150049699Y-103344821D01*
X150393351Y-103487166D01*
X150765317Y-103487166D01*
X151108969Y-103344821D01*
X151371989Y-103081801D01*
X151450283Y-102892783D01*
X151639301Y-102814489D01*
X151902321Y-102551469D01*
X152044666Y-102207817D01*
X152044666Y-101835851D01*
X151902321Y-101492199D01*
X151639301Y-101229179D01*
X151551296Y-101192726D01*
X195136241Y-101192726D01*
X195136241Y-101564692D01*
X195278586Y-101908344D01*
X195541606Y-102171364D01*
X195885258Y-102313709D01*
X196257224Y-102313709D01*
X196600876Y-102171364D01*
X196863896Y-101908344D01*
X197006241Y-101564692D01*
X197006241Y-101192726D01*
X196863896Y-100849074D01*
X196600876Y-100586054D01*
X196257224Y-100443709D01*
X195885258Y-100443709D01*
X195541606Y-100586054D01*
X195278586Y-100849074D01*
X195136241Y-101192726D01*
X151551296Y-101192726D01*
X151295649Y-101086834D01*
X150923683Y-101086834D01*
X150580031Y-101229179D01*
X150317011Y-101492199D01*
X150238717Y-101681217D01*
X150049699Y-101759511D01*
X149786679Y-102022531D01*
X149644334Y-102366183D01*
X92386241Y-102366183D01*
X92386241Y-99593107D01*
X95504241Y-99593107D01*
X95504241Y-100104311D01*
X95699870Y-100576603D01*
X96061347Y-100938080D01*
X96533639Y-101133709D01*
X97044843Y-101133709D01*
X97517135Y-100938080D01*
X97664489Y-100790726D01*
X132584241Y-100790726D01*
X132584241Y-101162692D01*
X132726586Y-101506344D01*
X132989606Y-101769364D01*
X133333258Y-101911709D01*
X133705224Y-101911709D01*
X134048876Y-101769364D01*
X134311896Y-101506344D01*
X134439991Y-101197095D01*
X134568086Y-101506344D01*
X134831106Y-101769364D01*
X135174758Y-101911709D01*
X135546724Y-101911709D01*
X135890376Y-101769364D01*
X136153396Y-101506344D01*
X136295741Y-101162692D01*
X136295741Y-100790726D01*
X136153396Y-100447074D01*
X135890376Y-100184054D01*
X135546724Y-100041709D01*
X135174758Y-100041709D01*
X134831106Y-100184054D01*
X134568086Y-100447074D01*
X134439991Y-100756323D01*
X134311896Y-100447074D01*
X134048876Y-100184054D01*
X133705224Y-100041709D01*
X133333258Y-100041709D01*
X132989606Y-100184054D01*
X132726586Y-100447074D01*
X132584241Y-100790726D01*
X97664489Y-100790726D01*
X97878612Y-100576603D01*
X98074241Y-100104311D01*
X98074241Y-99593107D01*
X97912748Y-99203226D01*
X104136241Y-99203226D01*
X104136241Y-99575192D01*
X104278586Y-99918844D01*
X104541606Y-100181864D01*
X104885258Y-100324209D01*
X105257224Y-100324209D01*
X105600876Y-100181864D01*
X105863896Y-99918844D01*
X106006241Y-99575192D01*
X106006241Y-99203226D01*
X105863896Y-98859574D01*
X105600876Y-98596554D01*
X105257224Y-98454209D01*
X104885258Y-98454209D01*
X104541606Y-98596554D01*
X104278586Y-98859574D01*
X104136241Y-99203226D01*
X97912748Y-99203226D01*
X97878612Y-99120815D01*
X97517135Y-98759338D01*
X97044843Y-98563709D01*
X96533639Y-98563709D01*
X96061347Y-98759338D01*
X95699870Y-99120815D01*
X95504241Y-99593107D01*
X92386241Y-99593107D01*
X92386241Y-96218726D01*
X99310241Y-96218726D01*
X99310241Y-96590692D01*
X99452586Y-96934344D01*
X99653201Y-97134959D01*
X99452586Y-97335574D01*
X99310241Y-97679226D01*
X99310241Y-98051192D01*
X99452586Y-98394844D01*
X99715606Y-98657864D01*
X100059258Y-98800209D01*
X100431224Y-98800209D01*
X100774876Y-98657864D01*
X101037896Y-98394844D01*
X101180241Y-98051192D01*
X101180241Y-97679226D01*
X101037896Y-97335574D01*
X100837281Y-97134959D01*
X101037896Y-96934344D01*
X101180241Y-96590692D01*
X101180241Y-96218726D01*
X187638741Y-96218726D01*
X187638741Y-96590692D01*
X187781086Y-96934344D01*
X188044106Y-97197364D01*
X188387758Y-97339709D01*
X188759724Y-97339709D01*
X189103376Y-97197364D01*
X189366396Y-96934344D01*
X189508741Y-96590692D01*
X189508741Y-96218726D01*
X189366396Y-95875074D01*
X189103376Y-95612054D01*
X188759724Y-95469709D01*
X188387758Y-95469709D01*
X188044106Y-95612054D01*
X187781086Y-95875074D01*
X187638741Y-96218726D01*
X101180241Y-96218726D01*
X101037896Y-95875074D01*
X100774876Y-95612054D01*
X100431224Y-95469709D01*
X100059258Y-95469709D01*
X99715606Y-95612054D01*
X99452586Y-95875074D01*
X99310241Y-96218726D01*
X92386241Y-96218726D01*
X92386241Y-94694726D01*
X104453741Y-94694726D01*
X104453741Y-95066692D01*
X104596086Y-95410344D01*
X104859106Y-95673364D01*
X105202758Y-95815709D01*
X105574724Y-95815709D01*
X105918376Y-95673364D01*
X106181396Y-95410344D01*
X106323741Y-95066692D01*
X106323741Y-94694726D01*
X106181396Y-94351074D01*
X105918376Y-94088054D01*
X105574724Y-93945709D01*
X105202758Y-93945709D01*
X104859106Y-94088054D01*
X104596086Y-94351074D01*
X104453741Y-94694726D01*
X92386241Y-94694726D01*
X92386241Y-90593107D01*
X95504241Y-90593107D01*
X95504241Y-91104311D01*
X95699870Y-91576603D01*
X96061347Y-91938080D01*
X96533639Y-92133709D01*
X97044843Y-92133709D01*
X97517135Y-91938080D01*
X97808489Y-91646726D01*
X99437241Y-91646726D01*
X99437241Y-92018692D01*
X99579586Y-92362344D01*
X99842606Y-92625364D01*
X100186258Y-92767709D01*
X100558224Y-92767709D01*
X100901876Y-92625364D01*
X101164896Y-92362344D01*
X101307241Y-92018692D01*
X101307241Y-91646726D01*
X101164896Y-91303074D01*
X100901876Y-91040054D01*
X100558224Y-90897709D01*
X100186258Y-90897709D01*
X99842606Y-91040054D01*
X99579586Y-91303074D01*
X99437241Y-91646726D01*
X97808489Y-91646726D01*
X97878612Y-91576603D01*
X98074241Y-91104311D01*
X98074241Y-90593107D01*
X97878612Y-90120815D01*
X97517135Y-89759338D01*
X97044843Y-89563709D01*
X96533639Y-89563709D01*
X96061347Y-89759338D01*
X95699870Y-90120815D01*
X95504241Y-90593107D01*
X92386241Y-90593107D01*
X92386241Y-87138226D01*
X93214241Y-87138226D01*
X93214241Y-87510192D01*
X93356586Y-87853844D01*
X93619606Y-88116864D01*
X93963258Y-88259209D01*
X94335224Y-88259209D01*
X94678876Y-88116864D01*
X94941896Y-87853844D01*
X95084241Y-87510192D01*
X95084241Y-87138226D01*
X94941896Y-86794574D01*
X94678876Y-86531554D01*
X94335224Y-86389209D01*
X93963258Y-86389209D01*
X93619606Y-86531554D01*
X93356586Y-86794574D01*
X93214241Y-87138226D01*
X92386241Y-87138226D01*
X92386241Y-85213709D01*
X199916242Y-85213709D01*
X199916242Y-95756920D01*
X199916242Y-95756920D01*
G37*
X199916242Y-95756920D02*
X199771376Y-95612054D01*
X199427724Y-95469709D01*
X199055758Y-95469709D01*
X198712106Y-95612054D01*
X198449086Y-95875074D01*
X198306741Y-96218726D01*
X198306741Y-96590692D01*
X198449086Y-96934344D01*
X198712106Y-97197364D01*
X199055758Y-97339709D01*
X199427724Y-97339709D01*
X199771376Y-97197364D01*
X199916242Y-97052498D01*
X199916241Y-112266919D01*
X199771376Y-112122054D01*
X199427724Y-111979709D01*
X199055758Y-111979709D01*
X198712106Y-112122054D01*
X198449086Y-112385074D01*
X198306741Y-112728726D01*
X198306741Y-113100692D01*
X198449086Y-113444344D01*
X198712106Y-113707364D01*
X199055758Y-113849709D01*
X199427724Y-113849709D01*
X199771376Y-113707364D01*
X199916241Y-113562499D01*
X199916241Y-123743709D01*
X92386241Y-123743709D01*
X92386241Y-120610485D01*
X99156500Y-120610485D01*
X99156500Y-121519515D01*
X99504370Y-122359349D01*
X100147151Y-123002130D01*
X100986985Y-123350000D01*
X101896015Y-123350000D01*
X102735849Y-123002130D01*
X103378630Y-122359349D01*
X103501287Y-122063226D01*
X119630241Y-122063226D01*
X119630241Y-122435192D01*
X119772586Y-122778844D01*
X120035606Y-123041864D01*
X120379258Y-123184209D01*
X120751224Y-123184209D01*
X121094876Y-123041864D01*
X121357896Y-122778844D01*
X121500241Y-122435192D01*
X121500241Y-122063226D01*
X121357896Y-121719574D01*
X121094876Y-121456554D01*
X120751224Y-121314209D01*
X120379258Y-121314209D01*
X120035606Y-121456554D01*
X119772586Y-121719574D01*
X119630241Y-122063226D01*
X103501287Y-122063226D01*
X103726500Y-121519515D01*
X103726500Y-120610485D01*
X103378630Y-119770651D01*
X102735849Y-119127870D01*
X101896015Y-118780000D01*
X100986985Y-118780000D01*
X100147151Y-119127870D01*
X99504370Y-119770651D01*
X99156500Y-120610485D01*
X92386241Y-120610485D01*
X92386241Y-110679724D01*
X102566500Y-110679724D01*
X102566500Y-111310276D01*
X102807802Y-111892830D01*
X103159972Y-112245000D01*
X102807802Y-112597170D01*
X102566500Y-113179724D01*
X102566500Y-113810276D01*
X102807802Y-114392830D01*
X102909972Y-114495000D01*
X102807802Y-114597170D01*
X102566500Y-115179724D01*
X102566500Y-115810276D01*
X102807802Y-116392830D01*
X103159972Y-116745000D01*
X102807802Y-117097170D01*
X102566500Y-117679724D01*
X102566500Y-118310276D01*
X102807802Y-118892830D01*
X103253670Y-119338698D01*
X103836224Y-119580000D01*
X104466776Y-119580000D01*
X105049330Y-119338698D01*
X105436302Y-118951726D01*
X109089241Y-118951726D01*
X109089241Y-119323692D01*
X109231586Y-119667344D01*
X109494606Y-119930364D01*
X109838258Y-120072709D01*
X110210224Y-120072709D01*
X110553876Y-119930364D01*
X110816896Y-119667344D01*
X110955499Y-119332726D01*
X123376741Y-119332726D01*
X123376741Y-119704692D01*
X123519086Y-120048344D01*
X123782106Y-120311364D01*
X124125758Y-120453709D01*
X124497724Y-120453709D01*
X124841376Y-120311364D01*
X125104396Y-120048344D01*
X125246741Y-119704692D01*
X125246741Y-119332726D01*
X125104396Y-118989074D01*
X124841376Y-118726054D01*
X124497724Y-118583709D01*
X124125758Y-118583709D01*
X123782106Y-118726054D01*
X123519086Y-118989074D01*
X123376741Y-119332726D01*
X110955499Y-119332726D01*
X110959241Y-119323692D01*
X110959241Y-118951726D01*
X110816896Y-118608074D01*
X110553876Y-118345054D01*
X110210224Y-118202709D01*
X109838258Y-118202709D01*
X109494606Y-118345054D01*
X109231586Y-118608074D01*
X109089241Y-118951726D01*
X105436302Y-118951726D01*
X105495198Y-118892830D01*
X105736500Y-118310276D01*
X105736500Y-117679724D01*
X105495198Y-117097170D01*
X105381254Y-116983226D01*
X106803241Y-116983226D01*
X106803241Y-117355192D01*
X106945586Y-117698844D01*
X107208606Y-117961864D01*
X107552258Y-118104209D01*
X107924224Y-118104209D01*
X108267876Y-117961864D01*
X108421014Y-117808726D01*
X111756241Y-117808726D01*
X111756241Y-118180692D01*
X111898586Y-118524344D01*
X112161606Y-118787364D01*
X112505258Y-118929709D01*
X112877224Y-118929709D01*
X113220876Y-118787364D01*
X113483896Y-118524344D01*
X113626241Y-118180692D01*
X113626241Y-117808726D01*
X113483896Y-117465074D01*
X113220876Y-117202054D01*
X112877224Y-117059709D01*
X112505258Y-117059709D01*
X112161606Y-117202054D01*
X111898586Y-117465074D01*
X111756241Y-117808726D01*
X108421014Y-117808726D01*
X108530896Y-117698844D01*
X108673241Y-117355192D01*
X108673241Y-116983226D01*
X108536659Y-116653487D01*
X126016241Y-116653487D01*
X126016241Y-117303931D01*
X126265155Y-117904862D01*
X126609002Y-118248709D01*
X126265155Y-118592556D01*
X126016241Y-119193487D01*
X126016241Y-119843931D01*
X126265155Y-120444862D01*
X126725088Y-120904795D01*
X127326019Y-121153709D01*
X127976463Y-121153709D01*
X128577394Y-120904795D01*
X128921241Y-120560948D01*
X129265088Y-120904795D01*
X129866019Y-121153709D01*
X130516463Y-121153709D01*
X131117394Y-120904795D01*
X131461241Y-120560948D01*
X131805088Y-120904795D01*
X132406019Y-121153709D01*
X133056463Y-121153709D01*
X133657394Y-120904795D01*
X134001241Y-120560948D01*
X134345088Y-120904795D01*
X134946019Y-121153709D01*
X135596463Y-121153709D01*
X136197394Y-120904795D01*
X136541241Y-120560948D01*
X136885088Y-120904795D01*
X137486019Y-121153709D01*
X138136463Y-121153709D01*
X138737394Y-120904795D01*
X138970948Y-120671241D01*
X139378314Y-120671241D01*
X139476977Y-120938096D01*
X140086702Y-121164617D01*
X140736701Y-121140565D01*
X141225505Y-120938096D01*
X141324168Y-120671241D01*
X140351241Y-119698314D01*
X139378314Y-120671241D01*
X138970948Y-120671241D01*
X139163552Y-120478637D01*
X139198709Y-120491636D01*
X140171636Y-119518709D01*
X140530846Y-119518709D01*
X141503773Y-120491636D01*
X141770628Y-120392973D01*
X141997149Y-119783248D01*
X141973097Y-119133249D01*
X141770628Y-118644445D01*
X141503773Y-118545782D01*
X140530846Y-119518709D01*
X140171636Y-119518709D01*
X139198709Y-118545782D01*
X139163552Y-118558781D01*
X138853480Y-118248709D01*
X138970948Y-118131241D01*
X139378314Y-118131241D01*
X139421745Y-118248709D01*
X139378314Y-118366177D01*
X140351241Y-119339104D01*
X141324168Y-118366177D01*
X141280737Y-118248709D01*
X141324168Y-118131241D01*
X140351241Y-117158314D01*
X139378314Y-118131241D01*
X138970948Y-118131241D01*
X139163552Y-117938637D01*
X139198709Y-117951636D01*
X140171636Y-116978709D01*
X140530846Y-116978709D01*
X141503773Y-117951636D01*
X141770628Y-117852973D01*
X141997149Y-117243248D01*
X141975326Y-116653487D01*
X149016241Y-116653487D01*
X149016241Y-117303931D01*
X149265155Y-117904862D01*
X149609002Y-118248709D01*
X149265155Y-118592556D01*
X149016241Y-119193487D01*
X149016241Y-119843931D01*
X149265155Y-120444862D01*
X149725088Y-120904795D01*
X150326019Y-121153709D01*
X150976463Y-121153709D01*
X151577394Y-120904795D01*
X151921241Y-120560948D01*
X152265088Y-120904795D01*
X152866019Y-121153709D01*
X153516463Y-121153709D01*
X154117394Y-120904795D01*
X154461241Y-120560948D01*
X154805088Y-120904795D01*
X155406019Y-121153709D01*
X156056463Y-121153709D01*
X156657394Y-120904795D01*
X157001241Y-120560948D01*
X157345088Y-120904795D01*
X157946019Y-121153709D01*
X158596463Y-121153709D01*
X159197394Y-120904795D01*
X159541241Y-120560948D01*
X159885088Y-120904795D01*
X160486019Y-121153709D01*
X161136463Y-121153709D01*
X161737394Y-120904795D01*
X161970948Y-120671241D01*
X162378314Y-120671241D01*
X162476977Y-120938096D01*
X163086702Y-121164617D01*
X163736701Y-121140565D01*
X164225505Y-120938096D01*
X164324168Y-120671241D01*
X163351241Y-119698314D01*
X162378314Y-120671241D01*
X161970948Y-120671241D01*
X162163552Y-120478637D01*
X162198709Y-120491636D01*
X163171636Y-119518709D01*
X163530846Y-119518709D01*
X164503773Y-120491636D01*
X164770628Y-120392973D01*
X164997149Y-119783248D01*
X164973097Y-119133249D01*
X164770628Y-118644445D01*
X164503773Y-118545782D01*
X163530846Y-119518709D01*
X163171636Y-119518709D01*
X162198709Y-118545782D01*
X162163552Y-118558781D01*
X161853480Y-118248709D01*
X161970948Y-118131241D01*
X162378314Y-118131241D01*
X162421745Y-118248709D01*
X162378314Y-118366177D01*
X163351241Y-119339104D01*
X164324168Y-118366177D01*
X164280737Y-118248709D01*
X164324168Y-118131241D01*
X163351241Y-117158314D01*
X162378314Y-118131241D01*
X161970948Y-118131241D01*
X162163552Y-117938637D01*
X162198709Y-117951636D01*
X163171636Y-116978709D01*
X163530846Y-116978709D01*
X164503773Y-117951636D01*
X164770628Y-117852973D01*
X164997149Y-117243248D01*
X164975326Y-116653487D01*
X172016241Y-116653487D01*
X172016241Y-117303931D01*
X172265155Y-117904862D01*
X172609002Y-118248709D01*
X172265155Y-118592556D01*
X172016241Y-119193487D01*
X172016241Y-119843931D01*
X172265155Y-120444862D01*
X172725088Y-120904795D01*
X173326019Y-121153709D01*
X173976463Y-121153709D01*
X174577394Y-120904795D01*
X174921241Y-120560948D01*
X175265088Y-120904795D01*
X175866019Y-121153709D01*
X176516463Y-121153709D01*
X177117394Y-120904795D01*
X177461241Y-120560948D01*
X177805088Y-120904795D01*
X178406019Y-121153709D01*
X179056463Y-121153709D01*
X179657394Y-120904795D01*
X180001241Y-120560948D01*
X180345088Y-120904795D01*
X180946019Y-121153709D01*
X181596463Y-121153709D01*
X182197394Y-120904795D01*
X182541241Y-120560948D01*
X182885088Y-120904795D01*
X183486019Y-121153709D01*
X184136463Y-121153709D01*
X184737394Y-120904795D01*
X184970948Y-120671241D01*
X185378314Y-120671241D01*
X185476977Y-120938096D01*
X186086702Y-121164617D01*
X186736701Y-121140565D01*
X187225505Y-120938096D01*
X187324168Y-120671241D01*
X186351241Y-119698314D01*
X185378314Y-120671241D01*
X184970948Y-120671241D01*
X185163552Y-120478637D01*
X185198709Y-120491636D01*
X186171636Y-119518709D01*
X186530846Y-119518709D01*
X187503773Y-120491636D01*
X187770628Y-120392973D01*
X187997149Y-119783248D01*
X187973097Y-119133249D01*
X187770628Y-118644445D01*
X187503773Y-118545782D01*
X186530846Y-119518709D01*
X186171636Y-119518709D01*
X185198709Y-118545782D01*
X185163552Y-118558781D01*
X184853480Y-118248709D01*
X184970948Y-118131241D01*
X185378314Y-118131241D01*
X185421745Y-118248709D01*
X185378314Y-118366177D01*
X186351241Y-119339104D01*
X187324168Y-118366177D01*
X187280737Y-118248709D01*
X187324168Y-118131241D01*
X186351241Y-117158314D01*
X185378314Y-118131241D01*
X184970948Y-118131241D01*
X185163552Y-117938637D01*
X185198709Y-117951636D01*
X186171636Y-116978709D01*
X186530846Y-116978709D01*
X187503773Y-117951636D01*
X187770628Y-117852973D01*
X187997149Y-117243248D01*
X187973097Y-116593249D01*
X187770628Y-116104445D01*
X187503773Y-116005782D01*
X186530846Y-116978709D01*
X186171636Y-116978709D01*
X185198709Y-116005782D01*
X185163552Y-116018781D01*
X184970948Y-115826177D01*
X185378314Y-115826177D01*
X186351241Y-116799104D01*
X187324168Y-115826177D01*
X187225505Y-115559322D01*
X186615780Y-115332801D01*
X185965781Y-115356853D01*
X185476977Y-115559322D01*
X185378314Y-115826177D01*
X184970948Y-115826177D01*
X184737394Y-115592623D01*
X184136463Y-115343709D01*
X183486019Y-115343709D01*
X182885088Y-115592623D01*
X182541241Y-115936470D01*
X182197394Y-115592623D01*
X181596463Y-115343709D01*
X180946019Y-115343709D01*
X180345088Y-115592623D01*
X180001241Y-115936470D01*
X179657394Y-115592623D01*
X179056463Y-115343709D01*
X178406019Y-115343709D01*
X177805088Y-115592623D01*
X177461241Y-115936470D01*
X177117394Y-115592623D01*
X176516463Y-115343709D01*
X175866019Y-115343709D01*
X175265088Y-115592623D01*
X174921241Y-115936470D01*
X174577394Y-115592623D01*
X173976463Y-115343709D01*
X173326019Y-115343709D01*
X172725088Y-115592623D01*
X172265155Y-116052556D01*
X172016241Y-116653487D01*
X164975326Y-116653487D01*
X164973097Y-116593249D01*
X164770628Y-116104445D01*
X164503773Y-116005782D01*
X163530846Y-116978709D01*
X163171636Y-116978709D01*
X162198709Y-116005782D01*
X162163552Y-116018781D01*
X161970948Y-115826177D01*
X162378314Y-115826177D01*
X163351241Y-116799104D01*
X164324168Y-115826177D01*
X164225505Y-115559322D01*
X163615780Y-115332801D01*
X162965781Y-115356853D01*
X162476977Y-115559322D01*
X162378314Y-115826177D01*
X161970948Y-115826177D01*
X161737394Y-115592623D01*
X161136463Y-115343709D01*
X160486019Y-115343709D01*
X159885088Y-115592623D01*
X159541241Y-115936470D01*
X159197394Y-115592623D01*
X158596463Y-115343709D01*
X157946019Y-115343709D01*
X157345088Y-115592623D01*
X157001241Y-115936470D01*
X156657394Y-115592623D01*
X156056463Y-115343709D01*
X155406019Y-115343709D01*
X154805088Y-115592623D01*
X154461241Y-115936470D01*
X154117394Y-115592623D01*
X153516463Y-115343709D01*
X152866019Y-115343709D01*
X152265088Y-115592623D01*
X151921241Y-115936470D01*
X151577394Y-115592623D01*
X150976463Y-115343709D01*
X150326019Y-115343709D01*
X149725088Y-115592623D01*
X149265155Y-116052556D01*
X149016241Y-116653487D01*
X141975326Y-116653487D01*
X141973097Y-116593249D01*
X141770628Y-116104445D01*
X141503773Y-116005782D01*
X140530846Y-116978709D01*
X140171636Y-116978709D01*
X139198709Y-116005782D01*
X139163552Y-116018781D01*
X138970948Y-115826177D01*
X139378314Y-115826177D01*
X140351241Y-116799104D01*
X141324168Y-115826177D01*
X141225505Y-115559322D01*
X140615780Y-115332801D01*
X139965781Y-115356853D01*
X139476977Y-115559322D01*
X139378314Y-115826177D01*
X138970948Y-115826177D01*
X138737394Y-115592623D01*
X138136463Y-115343709D01*
X137486019Y-115343709D01*
X136885088Y-115592623D01*
X136541241Y-115936470D01*
X136197394Y-115592623D01*
X135596463Y-115343709D01*
X134946019Y-115343709D01*
X134345088Y-115592623D01*
X134001241Y-115936470D01*
X133657394Y-115592623D01*
X133056463Y-115343709D01*
X132406019Y-115343709D01*
X131805088Y-115592623D01*
X131461241Y-115936470D01*
X131117394Y-115592623D01*
X130516463Y-115343709D01*
X129866019Y-115343709D01*
X129265088Y-115592623D01*
X128921241Y-115936470D01*
X128577394Y-115592623D01*
X127976463Y-115343709D01*
X127326019Y-115343709D01*
X126725088Y-115592623D01*
X126265155Y-116052556D01*
X126016241Y-116653487D01*
X108536659Y-116653487D01*
X108530896Y-116639574D01*
X108267876Y-116376554D01*
X107924224Y-116234209D01*
X107552258Y-116234209D01*
X107208606Y-116376554D01*
X106945586Y-116639574D01*
X106803241Y-116983226D01*
X105381254Y-116983226D01*
X105143028Y-116745000D01*
X105495198Y-116392830D01*
X105736500Y-115810276D01*
X105736500Y-115179724D01*
X105510341Y-114633726D01*
X122741741Y-114633726D01*
X122741741Y-115005692D01*
X122884086Y-115349344D01*
X123147106Y-115612364D01*
X123490758Y-115754709D01*
X123862724Y-115754709D01*
X124206376Y-115612364D01*
X124469396Y-115349344D01*
X124611741Y-115005692D01*
X124611741Y-114801017D01*
X146486500Y-114801017D01*
X146486500Y-115172983D01*
X146628845Y-115516635D01*
X146891865Y-115779655D01*
X147235517Y-115922000D01*
X147607483Y-115922000D01*
X147796500Y-115843707D01*
X147985517Y-115922000D01*
X148357483Y-115922000D01*
X148701135Y-115779655D01*
X148964155Y-115516635D01*
X149106500Y-115172983D01*
X149106500Y-114801017D01*
X165028500Y-114801017D01*
X165028500Y-115172983D01*
X165170845Y-115516635D01*
X165433865Y-115779655D01*
X165777517Y-115922000D01*
X166149483Y-115922000D01*
X166338500Y-115843707D01*
X166527517Y-115922000D01*
X166899483Y-115922000D01*
X167243135Y-115779655D01*
X167506155Y-115516635D01*
X167648500Y-115172983D01*
X167648500Y-114801017D01*
X167506155Y-114457365D01*
X167243135Y-114194345D01*
X166899483Y-114052000D01*
X166527517Y-114052000D01*
X166338500Y-114130293D01*
X166149483Y-114052000D01*
X165777517Y-114052000D01*
X165433865Y-114194345D01*
X165170845Y-114457365D01*
X165028500Y-114801017D01*
X149106500Y-114801017D01*
X148964155Y-114457365D01*
X148701135Y-114194345D01*
X148357483Y-114052000D01*
X147985517Y-114052000D01*
X147796500Y-114130293D01*
X147607483Y-114052000D01*
X147235517Y-114052000D01*
X146891865Y-114194345D01*
X146628845Y-114457365D01*
X146486500Y-114801017D01*
X124611741Y-114801017D01*
X124611741Y-114633726D01*
X124469396Y-114290074D01*
X124206376Y-114027054D01*
X123862724Y-113884709D01*
X123490758Y-113884709D01*
X123147106Y-114027054D01*
X122884086Y-114290074D01*
X122741741Y-114633726D01*
X105510341Y-114633726D01*
X105495198Y-114597170D01*
X105393028Y-114495000D01*
X105495198Y-114392830D01*
X105736500Y-113810276D01*
X105736500Y-113179724D01*
X105651926Y-112975543D01*
X114224809Y-112975543D01*
X114224809Y-113347509D01*
X114367154Y-113691161D01*
X114630174Y-113954181D01*
X114973826Y-114096526D01*
X115345792Y-114096526D01*
X115689444Y-113954181D01*
X115952464Y-113691161D01*
X116094809Y-113347509D01*
X116094809Y-112982746D01*
X134171741Y-112982746D01*
X134171741Y-113354712D01*
X134314086Y-113698364D01*
X134577106Y-113961384D01*
X134920758Y-114103729D01*
X135292724Y-114103729D01*
X135636376Y-113961384D01*
X135899396Y-113698364D01*
X136041741Y-113354712D01*
X136041741Y-113109726D01*
X136267241Y-113109726D01*
X136267241Y-113481692D01*
X136409586Y-113825344D01*
X136672606Y-114088364D01*
X137016258Y-114230709D01*
X137388224Y-114230709D01*
X137731876Y-114088364D01*
X137994896Y-113825344D01*
X138137241Y-113481692D01*
X138137241Y-113109726D01*
X137994896Y-112766074D01*
X137957548Y-112728726D01*
X190686741Y-112728726D01*
X190686741Y-113100692D01*
X190829086Y-113444344D01*
X191092106Y-113707364D01*
X191435758Y-113849709D01*
X191807724Y-113849709D01*
X192151376Y-113707364D01*
X192414396Y-113444344D01*
X192556741Y-113100692D01*
X192556741Y-112728726D01*
X192414396Y-112385074D01*
X192151376Y-112122054D01*
X191807724Y-111979709D01*
X191435758Y-111979709D01*
X191092106Y-112122054D01*
X190829086Y-112385074D01*
X190686741Y-112728726D01*
X137957548Y-112728726D01*
X137731876Y-112503054D01*
X137388224Y-112360709D01*
X137016258Y-112360709D01*
X136672606Y-112503054D01*
X136409586Y-112766074D01*
X136267241Y-113109726D01*
X136041741Y-113109726D01*
X136041741Y-112982746D01*
X135899396Y-112639094D01*
X135636376Y-112376074D01*
X135292724Y-112233729D01*
X134920758Y-112233729D01*
X134577106Y-112376074D01*
X134314086Y-112639094D01*
X134171741Y-112982746D01*
X116094809Y-112982746D01*
X116094809Y-112975543D01*
X115952464Y-112631891D01*
X115689444Y-112368871D01*
X115345792Y-112226526D01*
X114973826Y-112226526D01*
X114630174Y-112368871D01*
X114367154Y-112631891D01*
X114224809Y-112975543D01*
X105651926Y-112975543D01*
X105495198Y-112597170D01*
X105143028Y-112245000D01*
X105495198Y-111892830D01*
X105622404Y-111585726D01*
X117026741Y-111585726D01*
X117026741Y-111957692D01*
X117169086Y-112301344D01*
X117432106Y-112564364D01*
X117775758Y-112706709D01*
X118147724Y-112706709D01*
X118491376Y-112564364D01*
X118754396Y-112301344D01*
X118896741Y-111957692D01*
X118896741Y-111871520D01*
X118997865Y-111829633D01*
X119236222Y-111591276D01*
X120798067Y-111591276D01*
X120798067Y-111963242D01*
X120940412Y-112306894D01*
X121203432Y-112569914D01*
X121547084Y-112712259D01*
X121919050Y-112712259D01*
X122262702Y-112569914D01*
X122525722Y-112306894D01*
X122668067Y-111963242D01*
X122668067Y-111839726D01*
X130806241Y-111839726D01*
X130806241Y-112211692D01*
X130948586Y-112555344D01*
X131211606Y-112818364D01*
X131555258Y-112960709D01*
X131927224Y-112960709D01*
X132270876Y-112818364D01*
X132533896Y-112555344D01*
X132676241Y-112211692D01*
X132676241Y-111839726D01*
X132533896Y-111496074D01*
X132270876Y-111233054D01*
X131927224Y-111090709D01*
X131555258Y-111090709D01*
X131211606Y-111233054D01*
X130948586Y-111496074D01*
X130806241Y-111839726D01*
X122668067Y-111839726D01*
X122668067Y-111591276D01*
X122644247Y-111533769D01*
X122705909Y-111472107D01*
X122848254Y-111128455D01*
X122848254Y-110756489D01*
X122705909Y-110412837D01*
X122442889Y-110149817D01*
X122099237Y-110007472D01*
X121727271Y-110007472D01*
X121383619Y-110149817D01*
X121120599Y-110412837D01*
X120978254Y-110756489D01*
X120978254Y-111128455D01*
X121002074Y-111185962D01*
X120940412Y-111247624D01*
X120798067Y-111591276D01*
X119236222Y-111591276D01*
X119260885Y-111566613D01*
X119403230Y-111222961D01*
X119403230Y-110850995D01*
X119260885Y-110507343D01*
X119172251Y-110418709D01*
X119378140Y-110212820D01*
X119520485Y-109869168D01*
X119520485Y-109497202D01*
X119517596Y-109490226D01*
X122995741Y-109490226D01*
X122995741Y-109862192D01*
X123138086Y-110205844D01*
X123401106Y-110468864D01*
X123744758Y-110611209D01*
X124116724Y-110611209D01*
X124460376Y-110468864D01*
X124723396Y-110205844D01*
X124865741Y-109862192D01*
X124865741Y-109490226D01*
X124723396Y-109146574D01*
X124460376Y-108883554D01*
X124116724Y-108741209D01*
X123744758Y-108741209D01*
X123401106Y-108883554D01*
X123138086Y-109146574D01*
X122995741Y-109490226D01*
X119517596Y-109490226D01*
X119378140Y-109153550D01*
X119115120Y-108890530D01*
X118771468Y-108748185D01*
X118399502Y-108748185D01*
X118055850Y-108890530D01*
X117792830Y-109153550D01*
X117650485Y-109497202D01*
X117650485Y-109869168D01*
X117792830Y-110212820D01*
X117881464Y-110301454D01*
X117675575Y-110507343D01*
X117533230Y-110850995D01*
X117533230Y-110937167D01*
X117432106Y-110979054D01*
X117169086Y-111242074D01*
X117026741Y-111585726D01*
X105622404Y-111585726D01*
X105736500Y-111310276D01*
X105736500Y-110679724D01*
X105495198Y-110097170D01*
X105049330Y-109651302D01*
X104466776Y-109410000D01*
X103836224Y-109410000D01*
X103253670Y-109651302D01*
X102807802Y-110097170D01*
X102566500Y-110679724D01*
X92386241Y-110679724D01*
X92386241Y-107470485D01*
X99156500Y-107470485D01*
X99156500Y-108379515D01*
X99504370Y-109219349D01*
X100147151Y-109862130D01*
X100986985Y-110210000D01*
X101896015Y-110210000D01*
X102735849Y-109862130D01*
X103378630Y-109219349D01*
X103476849Y-108982226D01*
X106803241Y-108982226D01*
X106803241Y-109354192D01*
X106945586Y-109697844D01*
X107208606Y-109960864D01*
X107552258Y-110103209D01*
X107924224Y-110103209D01*
X108267876Y-109960864D01*
X108530896Y-109697844D01*
X108590591Y-109553726D01*
X110295741Y-109553726D01*
X110295741Y-109925692D01*
X110438086Y-110269344D01*
X110701106Y-110532364D01*
X111044758Y-110674709D01*
X111416724Y-110674709D01*
X111760376Y-110532364D01*
X112023396Y-110269344D01*
X112165741Y-109925692D01*
X112165741Y-109553726D01*
X112023396Y-109210074D01*
X111760376Y-108947054D01*
X111538684Y-108855226D01*
X112899241Y-108855226D01*
X112899241Y-109227192D01*
X113041586Y-109570844D01*
X113304606Y-109833864D01*
X113648258Y-109976209D01*
X114020224Y-109976209D01*
X114363876Y-109833864D01*
X114626896Y-109570844D01*
X114769241Y-109227192D01*
X114769241Y-108855226D01*
X114690334Y-108664726D01*
X129028241Y-108664726D01*
X129028241Y-109036692D01*
X129170586Y-109380344D01*
X129433606Y-109643364D01*
X129777258Y-109785709D01*
X130149224Y-109785709D01*
X130492876Y-109643364D01*
X130519014Y-109617226D01*
X134679741Y-109617226D01*
X134679741Y-109989192D01*
X134822086Y-110332844D01*
X135085106Y-110595864D01*
X135428758Y-110738209D01*
X135800724Y-110738209D01*
X136144376Y-110595864D01*
X136407396Y-110332844D01*
X136549741Y-109989192D01*
X136549741Y-109617226D01*
X136407396Y-109273574D01*
X136226548Y-109092726D01*
X194336241Y-109092726D01*
X194336241Y-109464692D01*
X194478586Y-109808344D01*
X194741606Y-110071364D01*
X195085258Y-110213709D01*
X195457224Y-110213709D01*
X195800876Y-110071364D01*
X196063896Y-109808344D01*
X196206241Y-109464692D01*
X196206241Y-109092726D01*
X196063896Y-108749074D01*
X195800876Y-108486054D01*
X195457224Y-108343709D01*
X195085258Y-108343709D01*
X194741606Y-108486054D01*
X194478586Y-108749074D01*
X194336241Y-109092726D01*
X136226548Y-109092726D01*
X136144376Y-109010554D01*
X135800724Y-108868209D01*
X135428758Y-108868209D01*
X135085106Y-109010554D01*
X134822086Y-109273574D01*
X134679741Y-109617226D01*
X130519014Y-109617226D01*
X130755896Y-109380344D01*
X130898241Y-109036692D01*
X130898241Y-108664726D01*
X130755896Y-108321074D01*
X130492876Y-108058054D01*
X130149224Y-107915709D01*
X129777258Y-107915709D01*
X129433606Y-108058054D01*
X129170586Y-108321074D01*
X129028241Y-108664726D01*
X114690334Y-108664726D01*
X114626896Y-108511574D01*
X114363876Y-108248554D01*
X114020224Y-108106209D01*
X113648258Y-108106209D01*
X113304606Y-108248554D01*
X113041586Y-108511574D01*
X112899241Y-108855226D01*
X111538684Y-108855226D01*
X111416724Y-108804709D01*
X111044758Y-108804709D01*
X110701106Y-108947054D01*
X110438086Y-109210074D01*
X110295741Y-109553726D01*
X108590591Y-109553726D01*
X108673241Y-109354192D01*
X108673241Y-108982226D01*
X108530896Y-108638574D01*
X108267876Y-108375554D01*
X107924224Y-108233209D01*
X107552258Y-108233209D01*
X107208606Y-108375554D01*
X106945586Y-108638574D01*
X106803241Y-108982226D01*
X103476849Y-108982226D01*
X103726500Y-108379515D01*
X103726500Y-107470485D01*
X103379490Y-106632726D01*
X109914741Y-106632726D01*
X109914741Y-107004692D01*
X110057086Y-107348344D01*
X110320106Y-107611364D01*
X110663758Y-107753709D01*
X111035724Y-107753709D01*
X111379376Y-107611364D01*
X111642396Y-107348344D01*
X111780999Y-107013726D01*
X131695241Y-107013726D01*
X131695241Y-107385692D01*
X131837586Y-107729344D01*
X132100606Y-107992364D01*
X132444258Y-108134709D01*
X132816224Y-108134709D01*
X133159876Y-107992364D01*
X133422896Y-107729344D01*
X133565241Y-107385692D01*
X133565241Y-107192183D01*
X155232334Y-107192183D01*
X155232334Y-107564149D01*
X155374679Y-107907801D01*
X155637699Y-108170821D01*
X155981351Y-108313166D01*
X156353317Y-108313166D01*
X156696969Y-108170821D01*
X156959989Y-107907801D01*
X157007654Y-107792726D01*
X182136241Y-107792726D01*
X182136241Y-108164692D01*
X182278586Y-108508344D01*
X182541606Y-108771364D01*
X182885258Y-108913709D01*
X183257224Y-108913709D01*
X183600876Y-108771364D01*
X183863896Y-108508344D01*
X184006241Y-108164692D01*
X184006241Y-107792726D01*
X187136241Y-107792726D01*
X187136241Y-108164692D01*
X187278586Y-108508344D01*
X187541606Y-108771364D01*
X187885258Y-108913709D01*
X188257224Y-108913709D01*
X188600876Y-108771364D01*
X188863896Y-108508344D01*
X189006241Y-108164692D01*
X189006241Y-107792726D01*
X188863896Y-107449074D01*
X188600876Y-107186054D01*
X188257224Y-107043709D01*
X187885258Y-107043709D01*
X187541606Y-107186054D01*
X187278586Y-107449074D01*
X187136241Y-107792726D01*
X184006241Y-107792726D01*
X183863896Y-107449074D01*
X183600876Y-107186054D01*
X183257224Y-107043709D01*
X182885258Y-107043709D01*
X182541606Y-107186054D01*
X182278586Y-107449074D01*
X182136241Y-107792726D01*
X157007654Y-107792726D01*
X157038283Y-107718783D01*
X157227301Y-107640489D01*
X157490321Y-107377469D01*
X157632666Y-107033817D01*
X157632666Y-106661851D01*
X157490321Y-106318199D01*
X157227301Y-106055179D01*
X156883649Y-105912834D01*
X156511683Y-105912834D01*
X156168031Y-106055179D01*
X155905011Y-106318199D01*
X155826717Y-106507217D01*
X155637699Y-106585511D01*
X155374679Y-106848531D01*
X155232334Y-107192183D01*
X133565241Y-107192183D01*
X133565241Y-107013726D01*
X133422896Y-106670074D01*
X133159876Y-106407054D01*
X132816224Y-106264709D01*
X132444258Y-106264709D01*
X132100606Y-106407054D01*
X131837586Y-106670074D01*
X131695241Y-107013726D01*
X111780999Y-107013726D01*
X111784741Y-107004692D01*
X111784741Y-106632726D01*
X111642396Y-106289074D01*
X111379376Y-106026054D01*
X111035724Y-105883709D01*
X110663758Y-105883709D01*
X110320106Y-106026054D01*
X110057086Y-106289074D01*
X109914741Y-106632726D01*
X103379490Y-106632726D01*
X103378630Y-106630651D01*
X102735849Y-105987870D01*
X101993130Y-105680226D01*
X183574741Y-105680226D01*
X183574741Y-106052192D01*
X183717086Y-106395844D01*
X183980106Y-106658864D01*
X184323758Y-106801209D01*
X184695724Y-106801209D01*
X185005207Y-106673017D01*
X195375500Y-106673017D01*
X195375500Y-107044983D01*
X195517845Y-107388635D01*
X195780865Y-107651655D01*
X196124517Y-107794000D01*
X196496483Y-107794000D01*
X196840135Y-107651655D01*
X197103155Y-107388635D01*
X197245500Y-107044983D01*
X197245500Y-106673017D01*
X197103155Y-106329365D01*
X196840135Y-106066345D01*
X196496483Y-105924000D01*
X196124517Y-105924000D01*
X195780865Y-106066345D01*
X195517845Y-106329365D01*
X195375500Y-106673017D01*
X185005207Y-106673017D01*
X185039376Y-106658864D01*
X185302396Y-106395844D01*
X185444741Y-106052192D01*
X185444741Y-105680226D01*
X185302396Y-105336574D01*
X185039376Y-105073554D01*
X184695724Y-104931209D01*
X184323758Y-104931209D01*
X183980106Y-105073554D01*
X183717086Y-105336574D01*
X183574741Y-105680226D01*
X101993130Y-105680226D01*
X101896015Y-105640000D01*
X100986985Y-105640000D01*
X100147151Y-105987870D01*
X99504370Y-106630651D01*
X99156500Y-107470485D01*
X92386241Y-107470485D01*
X92386241Y-103203726D01*
X93277741Y-103203726D01*
X93277741Y-103575692D01*
X93420086Y-103919344D01*
X93683106Y-104182364D01*
X94026758Y-104324709D01*
X94398724Y-104324709D01*
X94742376Y-104182364D01*
X95005396Y-103919344D01*
X95147741Y-103575692D01*
X95147741Y-103203726D01*
X95005396Y-102860074D01*
X94742376Y-102597054D01*
X94398724Y-102454709D01*
X94026758Y-102454709D01*
X93683106Y-102597054D01*
X93420086Y-102860074D01*
X93277741Y-103203726D01*
X92386241Y-103203726D01*
X92386241Y-102366183D01*
X149644334Y-102366183D01*
X149644334Y-102738149D01*
X149786679Y-103081801D01*
X150049699Y-103344821D01*
X150393351Y-103487166D01*
X150765317Y-103487166D01*
X151108969Y-103344821D01*
X151371989Y-103081801D01*
X151450283Y-102892783D01*
X151639301Y-102814489D01*
X151902321Y-102551469D01*
X152044666Y-102207817D01*
X152044666Y-101835851D01*
X151902321Y-101492199D01*
X151639301Y-101229179D01*
X151551296Y-101192726D01*
X195136241Y-101192726D01*
X195136241Y-101564692D01*
X195278586Y-101908344D01*
X195541606Y-102171364D01*
X195885258Y-102313709D01*
X196257224Y-102313709D01*
X196600876Y-102171364D01*
X196863896Y-101908344D01*
X197006241Y-101564692D01*
X197006241Y-101192726D01*
X196863896Y-100849074D01*
X196600876Y-100586054D01*
X196257224Y-100443709D01*
X195885258Y-100443709D01*
X195541606Y-100586054D01*
X195278586Y-100849074D01*
X195136241Y-101192726D01*
X151551296Y-101192726D01*
X151295649Y-101086834D01*
X150923683Y-101086834D01*
X150580031Y-101229179D01*
X150317011Y-101492199D01*
X150238717Y-101681217D01*
X150049699Y-101759511D01*
X149786679Y-102022531D01*
X149644334Y-102366183D01*
X92386241Y-102366183D01*
X92386241Y-99593107D01*
X95504241Y-99593107D01*
X95504241Y-100104311D01*
X95699870Y-100576603D01*
X96061347Y-100938080D01*
X96533639Y-101133709D01*
X97044843Y-101133709D01*
X97517135Y-100938080D01*
X97664489Y-100790726D01*
X132584241Y-100790726D01*
X132584241Y-101162692D01*
X132726586Y-101506344D01*
X132989606Y-101769364D01*
X133333258Y-101911709D01*
X133705224Y-101911709D01*
X134048876Y-101769364D01*
X134311896Y-101506344D01*
X134439991Y-101197095D01*
X134568086Y-101506344D01*
X134831106Y-101769364D01*
X135174758Y-101911709D01*
X135546724Y-101911709D01*
X135890376Y-101769364D01*
X136153396Y-101506344D01*
X136295741Y-101162692D01*
X136295741Y-100790726D01*
X136153396Y-100447074D01*
X135890376Y-100184054D01*
X135546724Y-100041709D01*
X135174758Y-100041709D01*
X134831106Y-100184054D01*
X134568086Y-100447074D01*
X134439991Y-100756323D01*
X134311896Y-100447074D01*
X134048876Y-100184054D01*
X133705224Y-100041709D01*
X133333258Y-100041709D01*
X132989606Y-100184054D01*
X132726586Y-100447074D01*
X132584241Y-100790726D01*
X97664489Y-100790726D01*
X97878612Y-100576603D01*
X98074241Y-100104311D01*
X98074241Y-99593107D01*
X97912748Y-99203226D01*
X104136241Y-99203226D01*
X104136241Y-99575192D01*
X104278586Y-99918844D01*
X104541606Y-100181864D01*
X104885258Y-100324209D01*
X105257224Y-100324209D01*
X105600876Y-100181864D01*
X105863896Y-99918844D01*
X106006241Y-99575192D01*
X106006241Y-99203226D01*
X105863896Y-98859574D01*
X105600876Y-98596554D01*
X105257224Y-98454209D01*
X104885258Y-98454209D01*
X104541606Y-98596554D01*
X104278586Y-98859574D01*
X104136241Y-99203226D01*
X97912748Y-99203226D01*
X97878612Y-99120815D01*
X97517135Y-98759338D01*
X97044843Y-98563709D01*
X96533639Y-98563709D01*
X96061347Y-98759338D01*
X95699870Y-99120815D01*
X95504241Y-99593107D01*
X92386241Y-99593107D01*
X92386241Y-96218726D01*
X99310241Y-96218726D01*
X99310241Y-96590692D01*
X99452586Y-96934344D01*
X99653201Y-97134959D01*
X99452586Y-97335574D01*
X99310241Y-97679226D01*
X99310241Y-98051192D01*
X99452586Y-98394844D01*
X99715606Y-98657864D01*
X100059258Y-98800209D01*
X100431224Y-98800209D01*
X100774876Y-98657864D01*
X101037896Y-98394844D01*
X101180241Y-98051192D01*
X101180241Y-97679226D01*
X101037896Y-97335574D01*
X100837281Y-97134959D01*
X101037896Y-96934344D01*
X101180241Y-96590692D01*
X101180241Y-96218726D01*
X187638741Y-96218726D01*
X187638741Y-96590692D01*
X187781086Y-96934344D01*
X188044106Y-97197364D01*
X188387758Y-97339709D01*
X188759724Y-97339709D01*
X189103376Y-97197364D01*
X189366396Y-96934344D01*
X189508741Y-96590692D01*
X189508741Y-96218726D01*
X189366396Y-95875074D01*
X189103376Y-95612054D01*
X188759724Y-95469709D01*
X188387758Y-95469709D01*
X188044106Y-95612054D01*
X187781086Y-95875074D01*
X187638741Y-96218726D01*
X101180241Y-96218726D01*
X101037896Y-95875074D01*
X100774876Y-95612054D01*
X100431224Y-95469709D01*
X100059258Y-95469709D01*
X99715606Y-95612054D01*
X99452586Y-95875074D01*
X99310241Y-96218726D01*
X92386241Y-96218726D01*
X92386241Y-94694726D01*
X104453741Y-94694726D01*
X104453741Y-95066692D01*
X104596086Y-95410344D01*
X104859106Y-95673364D01*
X105202758Y-95815709D01*
X105574724Y-95815709D01*
X105918376Y-95673364D01*
X106181396Y-95410344D01*
X106323741Y-95066692D01*
X106323741Y-94694726D01*
X106181396Y-94351074D01*
X105918376Y-94088054D01*
X105574724Y-93945709D01*
X105202758Y-93945709D01*
X104859106Y-94088054D01*
X104596086Y-94351074D01*
X104453741Y-94694726D01*
X92386241Y-94694726D01*
X92386241Y-90593107D01*
X95504241Y-90593107D01*
X95504241Y-91104311D01*
X95699870Y-91576603D01*
X96061347Y-91938080D01*
X96533639Y-92133709D01*
X97044843Y-92133709D01*
X97517135Y-91938080D01*
X97808489Y-91646726D01*
X99437241Y-91646726D01*
X99437241Y-92018692D01*
X99579586Y-92362344D01*
X99842606Y-92625364D01*
X100186258Y-92767709D01*
X100558224Y-92767709D01*
X100901876Y-92625364D01*
X101164896Y-92362344D01*
X101307241Y-92018692D01*
X101307241Y-91646726D01*
X101164896Y-91303074D01*
X100901876Y-91040054D01*
X100558224Y-90897709D01*
X100186258Y-90897709D01*
X99842606Y-91040054D01*
X99579586Y-91303074D01*
X99437241Y-91646726D01*
X97808489Y-91646726D01*
X97878612Y-91576603D01*
X98074241Y-91104311D01*
X98074241Y-90593107D01*
X97878612Y-90120815D01*
X97517135Y-89759338D01*
X97044843Y-89563709D01*
X96533639Y-89563709D01*
X96061347Y-89759338D01*
X95699870Y-90120815D01*
X95504241Y-90593107D01*
X92386241Y-90593107D01*
X92386241Y-87138226D01*
X93214241Y-87138226D01*
X93214241Y-87510192D01*
X93356586Y-87853844D01*
X93619606Y-88116864D01*
X93963258Y-88259209D01*
X94335224Y-88259209D01*
X94678876Y-88116864D01*
X94941896Y-87853844D01*
X95084241Y-87510192D01*
X95084241Y-87138226D01*
X94941896Y-86794574D01*
X94678876Y-86531554D01*
X94335224Y-86389209D01*
X93963258Y-86389209D01*
X93619606Y-86531554D01*
X93356586Y-86794574D01*
X93214241Y-87138226D01*
X92386241Y-87138226D01*
X92386241Y-85213709D01*
X199916242Y-85213709D01*
X199916242Y-95756920D01*
G04 #@! TD*
M02*
