G04 #@! TF.GenerationSoftware,KiCad,Pcbnew,5.0.2+dfsg1-1~bpo9+1*
G04 #@! TF.CreationDate,2019-09-17T17:26:26+02:00*
G04 #@! TF.ProjectId,HDMI_SD_expansion,48444d49-5f53-4445-9f65-7870616e7369,rev?*
G04 #@! TF.SameCoordinates,Original*
G04 #@! TF.FileFunction,Copper,L3,Inr*
G04 #@! TF.FilePolarity,Positive*
%FSLAX46Y46*%
G04 Gerber Fmt 4.6, Leading zero omitted, Abs format (unit mm)*
G04 Created by KiCad (PCBNEW 5.0.2+dfsg1-1~bpo9+1) date Tue 17 Sep 2019 05:26:26 PM CEST*
%MOMM*%
%LPD*%
G01*
G04 APERTURE LIST*
G04 #@! TA.AperFunction,ViaPad*
%ADD10C,2.000000*%
G04 #@! TD*
G04 #@! TA.AperFunction,ViaPad*
%ADD11C,1.800000*%
G04 #@! TD*
G04 #@! TA.AperFunction,ViaPad*
%ADD12C,3.300000*%
G04 #@! TD*
G04 #@! TA.AperFunction,ViaPad*
%ADD13C,1.300000*%
G04 #@! TD*
G04 #@! TA.AperFunction,ViaPad*
%ADD14C,0.600000*%
G04 #@! TD*
G04 #@! TA.AperFunction,Conductor*
%ADD15C,0.254000*%
G04 #@! TD*
G04 APERTURE END LIST*
D10*
G04 #@! TO.N,/TDMS_D2_P*
G04 #@! TO.C,JC1*
X150651241Y-120718709D03*
G04 #@! TO.N,/TDMS_D2_N*
X153191241Y-120718709D03*
G04 #@! TO.N,/TDMS_CLK_P*
X155731241Y-120718709D03*
G04 #@! TO.N,/TDMS_CLK_N*
X158271241Y-120718709D03*
G04 #@! TO.N,GND*
X160811241Y-120718709D03*
G04 #@! TO.N,+3V3*
X163351241Y-120718709D03*
X163351241Y-118178709D03*
G04 #@! TO.N,GND*
X160811241Y-118178709D03*
G04 #@! TO.N,/TDMS_D1_N*
X158271241Y-118178709D03*
G04 #@! TO.N,/TDMS_D1_P*
X155731241Y-118178709D03*
G04 #@! TO.N,/TDMS_D0_N*
X153191241Y-118178709D03*
G04 #@! TO.N,/TDMS_D0_P*
X150651241Y-118178709D03*
G04 #@! TD*
G04 #@! TO.N,/DAT1*
G04 #@! TO.C,JD1*
X173651241Y-120718709D03*
G04 #@! TO.N,/DAT2*
X176191241Y-120718709D03*
G04 #@! TO.N,/CD*
X178731241Y-120718709D03*
G04 #@! TO.N,/NC_EN*
X181271241Y-120718709D03*
G04 #@! TO.N,GND*
X183811241Y-120718709D03*
G04 #@! TO.N,+3V3*
X186351241Y-120718709D03*
X186351241Y-118178709D03*
G04 #@! TO.N,GND*
X183811241Y-118178709D03*
G04 #@! TO.N,/SCK*
X181271241Y-118178709D03*
G04 #@! TO.N,/MISO_DAT0*
X178731241Y-118178709D03*
G04 #@! TO.N,/MOSI_CMD*
X176191241Y-118178709D03*
G04 #@! TO.N,/CD_DAT3*
X173651241Y-118178709D03*
G04 #@! TD*
G04 #@! TO.N,/GPX_USB*
G04 #@! TO.C,JB1*
X127651241Y-120718709D03*
G04 #@! TO.N,/RST_USB*
X130191241Y-120718709D03*
G04 #@! TO.N,/INT_USB*
X132731241Y-120718709D03*
G04 #@! TO.N,Net-(JB1-Pad10)*
X135271241Y-120718709D03*
G04 #@! TO.N,GND*
X137811241Y-120718709D03*
G04 #@! TO.N,+3V3*
X140351241Y-120718709D03*
X140351241Y-118178709D03*
G04 #@! TO.N,GND*
X137811241Y-118178709D03*
G04 #@! TO.N,/SCK_USB*
X135271241Y-118178709D03*
G04 #@! TO.N,/MISO_USB*
X132731241Y-118178709D03*
G04 #@! TO.N,/MOSI_USB*
X130191241Y-118178709D03*
G04 #@! TO.N,/SS_USB*
X127651241Y-118178709D03*
G04 #@! TD*
D11*
G04 #@! TO.N,GND*
G04 #@! TO.C,J5*
X104011241Y-117978709D03*
G04 #@! TO.N,/Data+*
X104011241Y-115478709D03*
G04 #@! TO.N,/Data-*
X104011241Y-113478709D03*
G04 #@! TO.N,+5V*
X104011241Y-110978709D03*
D12*
G04 #@! TO.N,GND*
X101301241Y-121048709D03*
X101301241Y-107908709D03*
G04 #@! TD*
D13*
G04 #@! TO.N,*
G04 #@! TO.C,J4*
X96901241Y-98978709D03*
X96901241Y-89978709D03*
G04 #@! TD*
D14*
G04 #@! TO.N,GND*
X199241741Y-112914709D03*
X199241741Y-96404709D03*
X188573741Y-96404709D03*
X184509741Y-105866209D03*
X191621741Y-112914709D03*
X120565241Y-122249209D03*
X135360741Y-100976709D03*
X133519241Y-100976709D03*
X110024241Y-119137709D03*
X107738241Y-117169209D03*
X107738241Y-109168209D03*
X112691241Y-117994709D03*
X132630241Y-107199709D03*
X137202241Y-113295709D03*
X135106741Y-113168729D03*
X123676741Y-114819709D03*
X111230741Y-109739709D03*
X110849741Y-106818709D03*
X94269241Y-86494209D03*
X94372741Y-102549709D03*
X105189241Y-98509209D03*
X100363241Y-96985209D03*
X100363241Y-95524709D03*
X105506741Y-94000709D03*
X100490241Y-90952709D03*
X196310500Y-106859000D03*
X132221241Y-112002709D03*
G04 #@! TO.N,/TDMS_D1_N*
X156697666Y-106847834D03*
G04 #@! TO.N,/TDMS_D1_P*
X156167334Y-107378166D03*
G04 #@! TO.N,/TDMS_D0_P*
X150579334Y-102552166D03*
G04 #@! TO.N,/TDMS_D0_N*
X151109666Y-102021834D03*
G04 #@! TO.N,/TDMS_CLK_N*
X165963500Y-114987000D03*
G04 #@! TO.N,/TDMS_CLK_P*
X166713500Y-114987000D03*
G04 #@! TO.N,/TDMS_D2_N*
X147421500Y-114987000D03*
G04 #@! TO.N,/TDMS_D2_P*
X148171500Y-114987000D03*
G04 #@! TO.N,/DAT2*
X196071241Y-101378709D03*
X195271241Y-109278709D03*
G04 #@! TO.N,+3V3*
X196574741Y-113867209D03*
X194352241Y-113867209D03*
X192066241Y-113867209D03*
X181652241Y-110120709D03*
X176508741Y-110120709D03*
X174032241Y-110120709D03*
X179048741Y-110120709D03*
X186668741Y-105802709D03*
X112183241Y-113359209D03*
X111040241Y-119137709D03*
X138853241Y-110819209D03*
X127042241Y-107326709D03*
X122216241Y-114819709D03*
G04 #@! TO.N,/MISO_DAT0*
X188071241Y-107978709D03*
X183071241Y-107978709D03*
G04 #@! TO.N,Net-(TP1-Pad1)*
X135614741Y-109803209D03*
X129963241Y-108850709D03*
G04 #@! TO.N,/RST_USB*
X118585485Y-109683185D03*
X123930741Y-109676209D03*
G04 #@! TO.N,/MISO_USB*
X118468230Y-111036978D03*
X121913254Y-110942472D03*
G04 #@! TO.N,/MOSI_USB*
X117961741Y-111771709D03*
X121733067Y-111777259D03*
G04 #@! TO.N,/GPX_USB*
X113834241Y-109041209D03*
X124311741Y-119518709D03*
G04 #@! TO.N,/INT_USB*
X115159809Y-113161526D03*
G04 #@! TO.N,Net-(J4-Pad16)*
X104851241Y-91478709D03*
X107951241Y-91178709D03*
G04 #@! TO.N,Net-(J4-Pad18)*
X104851241Y-90478709D03*
X106451241Y-88778709D03*
G04 #@! TO.N,Net-(J4-Pad19)*
X100451241Y-89978709D03*
X106451241Y-86978709D03*
G04 #@! TD*
D15*
G04 #@! TO.N,+3V3*
G36*
X199916242Y-95756920D02*
X199771376Y-95612054D01*
X199427724Y-95469709D01*
X199055758Y-95469709D01*
X198712106Y-95612054D01*
X198449086Y-95875074D01*
X198306741Y-96218726D01*
X198306741Y-96590692D01*
X198449086Y-96934344D01*
X198712106Y-97197364D01*
X199055758Y-97339709D01*
X199427724Y-97339709D01*
X199771376Y-97197364D01*
X199916242Y-97052498D01*
X199916241Y-112266919D01*
X199771376Y-112122054D01*
X199427724Y-111979709D01*
X199055758Y-111979709D01*
X198712106Y-112122054D01*
X198449086Y-112385074D01*
X198306741Y-112728726D01*
X198306741Y-113100692D01*
X198449086Y-113444344D01*
X198712106Y-113707364D01*
X199055758Y-113849709D01*
X199427724Y-113849709D01*
X199771376Y-113707364D01*
X199916241Y-113562499D01*
X199916241Y-123743709D01*
X92386241Y-123743709D01*
X92386241Y-120594194D01*
X99016241Y-120594194D01*
X99016241Y-121503224D01*
X99364111Y-122343058D01*
X100006892Y-122985839D01*
X100846726Y-123333709D01*
X101755756Y-123333709D01*
X102595590Y-122985839D01*
X103238371Y-122343058D01*
X103354280Y-122063226D01*
X119630241Y-122063226D01*
X119630241Y-122435192D01*
X119772586Y-122778844D01*
X120035606Y-123041864D01*
X120379258Y-123184209D01*
X120751224Y-123184209D01*
X121094876Y-123041864D01*
X121357896Y-122778844D01*
X121500241Y-122435192D01*
X121500241Y-122063226D01*
X121357896Y-121719574D01*
X121094876Y-121456554D01*
X120751224Y-121314209D01*
X120379258Y-121314209D01*
X120035606Y-121456554D01*
X119772586Y-121719574D01*
X119630241Y-122063226D01*
X103354280Y-122063226D01*
X103586241Y-121503224D01*
X103586241Y-120594194D01*
X103238371Y-119754360D01*
X102595590Y-119111579D01*
X101755756Y-118763709D01*
X100846726Y-118763709D01*
X100006892Y-119111579D01*
X99364111Y-119754360D01*
X99016241Y-120594194D01*
X92386241Y-120594194D01*
X92386241Y-110673379D01*
X102476241Y-110673379D01*
X102476241Y-111284039D01*
X102709931Y-111848216D01*
X103090424Y-112228709D01*
X102709931Y-112609202D01*
X102476241Y-113173379D01*
X102476241Y-113784039D01*
X102709931Y-114348216D01*
X102840424Y-114478709D01*
X102709931Y-114609202D01*
X102476241Y-115173379D01*
X102476241Y-115784039D01*
X102709931Y-116348216D01*
X103090424Y-116728709D01*
X102709931Y-117109202D01*
X102476241Y-117673379D01*
X102476241Y-118284039D01*
X102709931Y-118848216D01*
X103141734Y-119280019D01*
X103705911Y-119513709D01*
X104316571Y-119513709D01*
X104880748Y-119280019D01*
X105209041Y-118951726D01*
X109089241Y-118951726D01*
X109089241Y-119323692D01*
X109231586Y-119667344D01*
X109494606Y-119930364D01*
X109838258Y-120072709D01*
X110210224Y-120072709D01*
X110553876Y-119930364D01*
X110816896Y-119667344D01*
X110955499Y-119332726D01*
X123376741Y-119332726D01*
X123376741Y-119704692D01*
X123519086Y-120048344D01*
X123782106Y-120311364D01*
X124125758Y-120453709D01*
X124497724Y-120453709D01*
X124841376Y-120311364D01*
X125104396Y-120048344D01*
X125246741Y-119704692D01*
X125246741Y-119332726D01*
X125104396Y-118989074D01*
X124841376Y-118726054D01*
X124497724Y-118583709D01*
X124125758Y-118583709D01*
X123782106Y-118726054D01*
X123519086Y-118989074D01*
X123376741Y-119332726D01*
X110955499Y-119332726D01*
X110959241Y-119323692D01*
X110959241Y-118951726D01*
X110816896Y-118608074D01*
X110553876Y-118345054D01*
X110210224Y-118202709D01*
X109838258Y-118202709D01*
X109494606Y-118345054D01*
X109231586Y-118608074D01*
X109089241Y-118951726D01*
X105209041Y-118951726D01*
X105312551Y-118848216D01*
X105546241Y-118284039D01*
X105546241Y-117673379D01*
X105312551Y-117109202D01*
X105186575Y-116983226D01*
X106803241Y-116983226D01*
X106803241Y-117355192D01*
X106945586Y-117698844D01*
X107208606Y-117961864D01*
X107552258Y-118104209D01*
X107924224Y-118104209D01*
X108267876Y-117961864D01*
X108421014Y-117808726D01*
X111756241Y-117808726D01*
X111756241Y-118180692D01*
X111898586Y-118524344D01*
X112161606Y-118787364D01*
X112505258Y-118929709D01*
X112877224Y-118929709D01*
X113220876Y-118787364D01*
X113483896Y-118524344D01*
X113626241Y-118180692D01*
X113626241Y-117853487D01*
X126016241Y-117853487D01*
X126016241Y-118503931D01*
X126265155Y-119104862D01*
X126609002Y-119448709D01*
X126265155Y-119792556D01*
X126016241Y-120393487D01*
X126016241Y-121043931D01*
X126265155Y-121644862D01*
X126725088Y-122104795D01*
X127326019Y-122353709D01*
X127976463Y-122353709D01*
X128577394Y-122104795D01*
X128921241Y-121760948D01*
X129265088Y-122104795D01*
X129866019Y-122353709D01*
X130516463Y-122353709D01*
X131117394Y-122104795D01*
X131461241Y-121760948D01*
X131805088Y-122104795D01*
X132406019Y-122353709D01*
X133056463Y-122353709D01*
X133657394Y-122104795D01*
X134001241Y-121760948D01*
X134345088Y-122104795D01*
X134946019Y-122353709D01*
X135596463Y-122353709D01*
X136197394Y-122104795D01*
X136541241Y-121760948D01*
X136885088Y-122104795D01*
X137486019Y-122353709D01*
X138136463Y-122353709D01*
X138737394Y-122104795D01*
X138970948Y-121871241D01*
X139378314Y-121871241D01*
X139476977Y-122138096D01*
X140086702Y-122364617D01*
X140736701Y-122340565D01*
X141225505Y-122138096D01*
X141324168Y-121871241D01*
X140351241Y-120898314D01*
X139378314Y-121871241D01*
X138970948Y-121871241D01*
X139163552Y-121678637D01*
X139198709Y-121691636D01*
X140171636Y-120718709D01*
X140530846Y-120718709D01*
X141503773Y-121691636D01*
X141770628Y-121592973D01*
X141997149Y-120983248D01*
X141973097Y-120333249D01*
X141770628Y-119844445D01*
X141503773Y-119745782D01*
X140530846Y-120718709D01*
X140171636Y-120718709D01*
X139198709Y-119745782D01*
X139163552Y-119758781D01*
X138853480Y-119448709D01*
X138970948Y-119331241D01*
X139378314Y-119331241D01*
X139421745Y-119448709D01*
X139378314Y-119566177D01*
X140351241Y-120539104D01*
X141324168Y-119566177D01*
X141280737Y-119448709D01*
X141324168Y-119331241D01*
X140351241Y-118358314D01*
X139378314Y-119331241D01*
X138970948Y-119331241D01*
X139163552Y-119138637D01*
X139198709Y-119151636D01*
X140171636Y-118178709D01*
X140530846Y-118178709D01*
X141503773Y-119151636D01*
X141770628Y-119052973D01*
X141997149Y-118443248D01*
X141975326Y-117853487D01*
X149016241Y-117853487D01*
X149016241Y-118503931D01*
X149265155Y-119104862D01*
X149609002Y-119448709D01*
X149265155Y-119792556D01*
X149016241Y-120393487D01*
X149016241Y-121043931D01*
X149265155Y-121644862D01*
X149725088Y-122104795D01*
X150326019Y-122353709D01*
X150976463Y-122353709D01*
X151577394Y-122104795D01*
X151921241Y-121760948D01*
X152265088Y-122104795D01*
X152866019Y-122353709D01*
X153516463Y-122353709D01*
X154117394Y-122104795D01*
X154461241Y-121760948D01*
X154805088Y-122104795D01*
X155406019Y-122353709D01*
X156056463Y-122353709D01*
X156657394Y-122104795D01*
X157001241Y-121760948D01*
X157345088Y-122104795D01*
X157946019Y-122353709D01*
X158596463Y-122353709D01*
X159197394Y-122104795D01*
X159541241Y-121760948D01*
X159885088Y-122104795D01*
X160486019Y-122353709D01*
X161136463Y-122353709D01*
X161737394Y-122104795D01*
X161970948Y-121871241D01*
X162378314Y-121871241D01*
X162476977Y-122138096D01*
X163086702Y-122364617D01*
X163736701Y-122340565D01*
X164225505Y-122138096D01*
X164324168Y-121871241D01*
X163351241Y-120898314D01*
X162378314Y-121871241D01*
X161970948Y-121871241D01*
X162163552Y-121678637D01*
X162198709Y-121691636D01*
X163171636Y-120718709D01*
X163530846Y-120718709D01*
X164503773Y-121691636D01*
X164770628Y-121592973D01*
X164997149Y-120983248D01*
X164973097Y-120333249D01*
X164770628Y-119844445D01*
X164503773Y-119745782D01*
X163530846Y-120718709D01*
X163171636Y-120718709D01*
X162198709Y-119745782D01*
X162163552Y-119758781D01*
X161853480Y-119448709D01*
X161970948Y-119331241D01*
X162378314Y-119331241D01*
X162421745Y-119448709D01*
X162378314Y-119566177D01*
X163351241Y-120539104D01*
X164324168Y-119566177D01*
X164280737Y-119448709D01*
X164324168Y-119331241D01*
X163351241Y-118358314D01*
X162378314Y-119331241D01*
X161970948Y-119331241D01*
X162163552Y-119138637D01*
X162198709Y-119151636D01*
X163171636Y-118178709D01*
X163530846Y-118178709D01*
X164503773Y-119151636D01*
X164770628Y-119052973D01*
X164997149Y-118443248D01*
X164975326Y-117853487D01*
X172016241Y-117853487D01*
X172016241Y-118503931D01*
X172265155Y-119104862D01*
X172609002Y-119448709D01*
X172265155Y-119792556D01*
X172016241Y-120393487D01*
X172016241Y-121043931D01*
X172265155Y-121644862D01*
X172725088Y-122104795D01*
X173326019Y-122353709D01*
X173976463Y-122353709D01*
X174577394Y-122104795D01*
X174921241Y-121760948D01*
X175265088Y-122104795D01*
X175866019Y-122353709D01*
X176516463Y-122353709D01*
X177117394Y-122104795D01*
X177461241Y-121760948D01*
X177805088Y-122104795D01*
X178406019Y-122353709D01*
X179056463Y-122353709D01*
X179657394Y-122104795D01*
X180001241Y-121760948D01*
X180345088Y-122104795D01*
X180946019Y-122353709D01*
X181596463Y-122353709D01*
X182197394Y-122104795D01*
X182541241Y-121760948D01*
X182885088Y-122104795D01*
X183486019Y-122353709D01*
X184136463Y-122353709D01*
X184737394Y-122104795D01*
X184970948Y-121871241D01*
X185378314Y-121871241D01*
X185476977Y-122138096D01*
X186086702Y-122364617D01*
X186736701Y-122340565D01*
X187225505Y-122138096D01*
X187324168Y-121871241D01*
X186351241Y-120898314D01*
X185378314Y-121871241D01*
X184970948Y-121871241D01*
X185163552Y-121678637D01*
X185198709Y-121691636D01*
X186171636Y-120718709D01*
X186530846Y-120718709D01*
X187503773Y-121691636D01*
X187770628Y-121592973D01*
X187997149Y-120983248D01*
X187973097Y-120333249D01*
X187770628Y-119844445D01*
X187503773Y-119745782D01*
X186530846Y-120718709D01*
X186171636Y-120718709D01*
X185198709Y-119745782D01*
X185163552Y-119758781D01*
X184853480Y-119448709D01*
X184970948Y-119331241D01*
X185378314Y-119331241D01*
X185421745Y-119448709D01*
X185378314Y-119566177D01*
X186351241Y-120539104D01*
X187324168Y-119566177D01*
X187280737Y-119448709D01*
X187324168Y-119331241D01*
X186351241Y-118358314D01*
X185378314Y-119331241D01*
X184970948Y-119331241D01*
X185163552Y-119138637D01*
X185198709Y-119151636D01*
X186171636Y-118178709D01*
X186530846Y-118178709D01*
X187503773Y-119151636D01*
X187770628Y-119052973D01*
X187997149Y-118443248D01*
X187973097Y-117793249D01*
X187770628Y-117304445D01*
X187503773Y-117205782D01*
X186530846Y-118178709D01*
X186171636Y-118178709D01*
X185198709Y-117205782D01*
X185163552Y-117218781D01*
X184970948Y-117026177D01*
X185378314Y-117026177D01*
X186351241Y-117999104D01*
X187324168Y-117026177D01*
X187225505Y-116759322D01*
X186615780Y-116532801D01*
X185965781Y-116556853D01*
X185476977Y-116759322D01*
X185378314Y-117026177D01*
X184970948Y-117026177D01*
X184737394Y-116792623D01*
X184136463Y-116543709D01*
X183486019Y-116543709D01*
X182885088Y-116792623D01*
X182541241Y-117136470D01*
X182197394Y-116792623D01*
X181596463Y-116543709D01*
X180946019Y-116543709D01*
X180345088Y-116792623D01*
X180001241Y-117136470D01*
X179657394Y-116792623D01*
X179056463Y-116543709D01*
X178406019Y-116543709D01*
X177805088Y-116792623D01*
X177461241Y-117136470D01*
X177117394Y-116792623D01*
X176516463Y-116543709D01*
X175866019Y-116543709D01*
X175265088Y-116792623D01*
X174921241Y-117136470D01*
X174577394Y-116792623D01*
X173976463Y-116543709D01*
X173326019Y-116543709D01*
X172725088Y-116792623D01*
X172265155Y-117252556D01*
X172016241Y-117853487D01*
X164975326Y-117853487D01*
X164973097Y-117793249D01*
X164770628Y-117304445D01*
X164503773Y-117205782D01*
X163530846Y-118178709D01*
X163171636Y-118178709D01*
X162198709Y-117205782D01*
X162163552Y-117218781D01*
X161970948Y-117026177D01*
X162378314Y-117026177D01*
X163351241Y-117999104D01*
X164324168Y-117026177D01*
X164225505Y-116759322D01*
X163615780Y-116532801D01*
X162965781Y-116556853D01*
X162476977Y-116759322D01*
X162378314Y-117026177D01*
X161970948Y-117026177D01*
X161737394Y-116792623D01*
X161136463Y-116543709D01*
X160486019Y-116543709D01*
X159885088Y-116792623D01*
X159541241Y-117136470D01*
X159197394Y-116792623D01*
X158596463Y-116543709D01*
X157946019Y-116543709D01*
X157345088Y-116792623D01*
X157001241Y-117136470D01*
X156657394Y-116792623D01*
X156056463Y-116543709D01*
X155406019Y-116543709D01*
X154805088Y-116792623D01*
X154461241Y-117136470D01*
X154117394Y-116792623D01*
X153516463Y-116543709D01*
X152866019Y-116543709D01*
X152265088Y-116792623D01*
X151921241Y-117136470D01*
X151577394Y-116792623D01*
X150976463Y-116543709D01*
X150326019Y-116543709D01*
X149725088Y-116792623D01*
X149265155Y-117252556D01*
X149016241Y-117853487D01*
X141975326Y-117853487D01*
X141973097Y-117793249D01*
X141770628Y-117304445D01*
X141503773Y-117205782D01*
X140530846Y-118178709D01*
X140171636Y-118178709D01*
X139198709Y-117205782D01*
X139163552Y-117218781D01*
X138970948Y-117026177D01*
X139378314Y-117026177D01*
X140351241Y-117999104D01*
X141324168Y-117026177D01*
X141225505Y-116759322D01*
X140615780Y-116532801D01*
X139965781Y-116556853D01*
X139476977Y-116759322D01*
X139378314Y-117026177D01*
X138970948Y-117026177D01*
X138737394Y-116792623D01*
X138136463Y-116543709D01*
X137486019Y-116543709D01*
X136885088Y-116792623D01*
X136541241Y-117136470D01*
X136197394Y-116792623D01*
X135596463Y-116543709D01*
X134946019Y-116543709D01*
X134345088Y-116792623D01*
X134001241Y-117136470D01*
X133657394Y-116792623D01*
X133056463Y-116543709D01*
X132406019Y-116543709D01*
X131805088Y-116792623D01*
X131461241Y-117136470D01*
X131117394Y-116792623D01*
X130516463Y-116543709D01*
X129866019Y-116543709D01*
X129265088Y-116792623D01*
X128921241Y-117136470D01*
X128577394Y-116792623D01*
X127976463Y-116543709D01*
X127326019Y-116543709D01*
X126725088Y-116792623D01*
X126265155Y-117252556D01*
X126016241Y-117853487D01*
X113626241Y-117853487D01*
X113626241Y-117808726D01*
X113483896Y-117465074D01*
X113220876Y-117202054D01*
X112877224Y-117059709D01*
X112505258Y-117059709D01*
X112161606Y-117202054D01*
X111898586Y-117465074D01*
X111756241Y-117808726D01*
X108421014Y-117808726D01*
X108530896Y-117698844D01*
X108673241Y-117355192D01*
X108673241Y-116983226D01*
X108530896Y-116639574D01*
X108267876Y-116376554D01*
X107924224Y-116234209D01*
X107552258Y-116234209D01*
X107208606Y-116376554D01*
X106945586Y-116639574D01*
X106803241Y-116983226D01*
X105186575Y-116983226D01*
X104932058Y-116728709D01*
X105312551Y-116348216D01*
X105546241Y-115784039D01*
X105546241Y-115173379D01*
X105322710Y-114633726D01*
X122741741Y-114633726D01*
X122741741Y-115005692D01*
X122884086Y-115349344D01*
X123147106Y-115612364D01*
X123490758Y-115754709D01*
X123862724Y-115754709D01*
X124206376Y-115612364D01*
X124469396Y-115349344D01*
X124611741Y-115005692D01*
X124611741Y-114801017D01*
X146486500Y-114801017D01*
X146486500Y-115172983D01*
X146628845Y-115516635D01*
X146891865Y-115779655D01*
X147235517Y-115922000D01*
X147607483Y-115922000D01*
X147796500Y-115843707D01*
X147985517Y-115922000D01*
X148357483Y-115922000D01*
X148701135Y-115779655D01*
X148964155Y-115516635D01*
X149106500Y-115172983D01*
X149106500Y-114801017D01*
X165028500Y-114801017D01*
X165028500Y-115172983D01*
X165170845Y-115516635D01*
X165433865Y-115779655D01*
X165777517Y-115922000D01*
X166149483Y-115922000D01*
X166338500Y-115843707D01*
X166527517Y-115922000D01*
X166899483Y-115922000D01*
X167243135Y-115779655D01*
X167506155Y-115516635D01*
X167648500Y-115172983D01*
X167648500Y-114801017D01*
X167506155Y-114457365D01*
X167243135Y-114194345D01*
X166899483Y-114052000D01*
X166527517Y-114052000D01*
X166338500Y-114130293D01*
X166149483Y-114052000D01*
X165777517Y-114052000D01*
X165433865Y-114194345D01*
X165170845Y-114457365D01*
X165028500Y-114801017D01*
X149106500Y-114801017D01*
X148964155Y-114457365D01*
X148701135Y-114194345D01*
X148357483Y-114052000D01*
X147985517Y-114052000D01*
X147796500Y-114130293D01*
X147607483Y-114052000D01*
X147235517Y-114052000D01*
X146891865Y-114194345D01*
X146628845Y-114457365D01*
X146486500Y-114801017D01*
X124611741Y-114801017D01*
X124611741Y-114633726D01*
X124469396Y-114290074D01*
X124206376Y-114027054D01*
X123862724Y-113884709D01*
X123490758Y-113884709D01*
X123147106Y-114027054D01*
X122884086Y-114290074D01*
X122741741Y-114633726D01*
X105322710Y-114633726D01*
X105312551Y-114609202D01*
X105182058Y-114478709D01*
X105312551Y-114348216D01*
X105546241Y-113784039D01*
X105546241Y-113173379D01*
X105464295Y-112975543D01*
X114224809Y-112975543D01*
X114224809Y-113347509D01*
X114367154Y-113691161D01*
X114630174Y-113954181D01*
X114973826Y-114096526D01*
X115345792Y-114096526D01*
X115689444Y-113954181D01*
X115952464Y-113691161D01*
X116094809Y-113347509D01*
X116094809Y-112982746D01*
X134171741Y-112982746D01*
X134171741Y-113354712D01*
X134314086Y-113698364D01*
X134577106Y-113961384D01*
X134920758Y-114103729D01*
X135292724Y-114103729D01*
X135636376Y-113961384D01*
X135899396Y-113698364D01*
X136041741Y-113354712D01*
X136041741Y-113109726D01*
X136267241Y-113109726D01*
X136267241Y-113481692D01*
X136409586Y-113825344D01*
X136672606Y-114088364D01*
X137016258Y-114230709D01*
X137388224Y-114230709D01*
X137731876Y-114088364D01*
X137994896Y-113825344D01*
X138137241Y-113481692D01*
X138137241Y-113109726D01*
X137994896Y-112766074D01*
X137957548Y-112728726D01*
X190686741Y-112728726D01*
X190686741Y-113100692D01*
X190829086Y-113444344D01*
X191092106Y-113707364D01*
X191435758Y-113849709D01*
X191807724Y-113849709D01*
X192151376Y-113707364D01*
X192414396Y-113444344D01*
X192556741Y-113100692D01*
X192556741Y-112728726D01*
X192414396Y-112385074D01*
X192151376Y-112122054D01*
X191807724Y-111979709D01*
X191435758Y-111979709D01*
X191092106Y-112122054D01*
X190829086Y-112385074D01*
X190686741Y-112728726D01*
X137957548Y-112728726D01*
X137731876Y-112503054D01*
X137388224Y-112360709D01*
X137016258Y-112360709D01*
X136672606Y-112503054D01*
X136409586Y-112766074D01*
X136267241Y-113109726D01*
X136041741Y-113109726D01*
X136041741Y-112982746D01*
X135899396Y-112639094D01*
X135636376Y-112376074D01*
X135292724Y-112233729D01*
X134920758Y-112233729D01*
X134577106Y-112376074D01*
X134314086Y-112639094D01*
X134171741Y-112982746D01*
X116094809Y-112982746D01*
X116094809Y-112975543D01*
X115952464Y-112631891D01*
X115689444Y-112368871D01*
X115345792Y-112226526D01*
X114973826Y-112226526D01*
X114630174Y-112368871D01*
X114367154Y-112631891D01*
X114224809Y-112975543D01*
X105464295Y-112975543D01*
X105312551Y-112609202D01*
X104932058Y-112228709D01*
X105312551Y-111848216D01*
X105421278Y-111585726D01*
X117026741Y-111585726D01*
X117026741Y-111957692D01*
X117169086Y-112301344D01*
X117432106Y-112564364D01*
X117775758Y-112706709D01*
X118147724Y-112706709D01*
X118491376Y-112564364D01*
X118754396Y-112301344D01*
X118896741Y-111957692D01*
X118896741Y-111871520D01*
X118997865Y-111829633D01*
X119236222Y-111591276D01*
X120798067Y-111591276D01*
X120798067Y-111963242D01*
X120940412Y-112306894D01*
X121203432Y-112569914D01*
X121547084Y-112712259D01*
X121919050Y-112712259D01*
X122262702Y-112569914D01*
X122525722Y-112306894D01*
X122668067Y-111963242D01*
X122668067Y-111816726D01*
X131286241Y-111816726D01*
X131286241Y-112188692D01*
X131428586Y-112532344D01*
X131691606Y-112795364D01*
X132035258Y-112937709D01*
X132407224Y-112937709D01*
X132750876Y-112795364D01*
X133013896Y-112532344D01*
X133156241Y-112188692D01*
X133156241Y-111816726D01*
X133013896Y-111473074D01*
X132750876Y-111210054D01*
X132407224Y-111067709D01*
X132035258Y-111067709D01*
X131691606Y-111210054D01*
X131428586Y-111473074D01*
X131286241Y-111816726D01*
X122668067Y-111816726D01*
X122668067Y-111591276D01*
X122644247Y-111533769D01*
X122705909Y-111472107D01*
X122848254Y-111128455D01*
X122848254Y-110756489D01*
X122705909Y-110412837D01*
X122442889Y-110149817D01*
X122099237Y-110007472D01*
X121727271Y-110007472D01*
X121383619Y-110149817D01*
X121120599Y-110412837D01*
X120978254Y-110756489D01*
X120978254Y-111128455D01*
X121002074Y-111185962D01*
X120940412Y-111247624D01*
X120798067Y-111591276D01*
X119236222Y-111591276D01*
X119260885Y-111566613D01*
X119403230Y-111222961D01*
X119403230Y-110850995D01*
X119260885Y-110507343D01*
X119172251Y-110418709D01*
X119378140Y-110212820D01*
X119520485Y-109869168D01*
X119520485Y-109497202D01*
X119517596Y-109490226D01*
X122995741Y-109490226D01*
X122995741Y-109862192D01*
X123138086Y-110205844D01*
X123401106Y-110468864D01*
X123744758Y-110611209D01*
X124116724Y-110611209D01*
X124460376Y-110468864D01*
X124723396Y-110205844D01*
X124865741Y-109862192D01*
X124865741Y-109490226D01*
X124723396Y-109146574D01*
X124460376Y-108883554D01*
X124116724Y-108741209D01*
X123744758Y-108741209D01*
X123401106Y-108883554D01*
X123138086Y-109146574D01*
X122995741Y-109490226D01*
X119517596Y-109490226D01*
X119378140Y-109153550D01*
X119115120Y-108890530D01*
X118771468Y-108748185D01*
X118399502Y-108748185D01*
X118055850Y-108890530D01*
X117792830Y-109153550D01*
X117650485Y-109497202D01*
X117650485Y-109869168D01*
X117792830Y-110212820D01*
X117881464Y-110301454D01*
X117675575Y-110507343D01*
X117533230Y-110850995D01*
X117533230Y-110937167D01*
X117432106Y-110979054D01*
X117169086Y-111242074D01*
X117026741Y-111585726D01*
X105421278Y-111585726D01*
X105546241Y-111284039D01*
X105546241Y-110673379D01*
X105312551Y-110109202D01*
X104880748Y-109677399D01*
X104316571Y-109443709D01*
X103705911Y-109443709D01*
X103141734Y-109677399D01*
X102709931Y-110109202D01*
X102476241Y-110673379D01*
X92386241Y-110673379D01*
X92386241Y-107454194D01*
X99016241Y-107454194D01*
X99016241Y-108363224D01*
X99364111Y-109203058D01*
X100006892Y-109845839D01*
X100846726Y-110193709D01*
X101755756Y-110193709D01*
X102595590Y-109845839D01*
X103238371Y-109203058D01*
X103329842Y-108982226D01*
X106803241Y-108982226D01*
X106803241Y-109354192D01*
X106945586Y-109697844D01*
X107208606Y-109960864D01*
X107552258Y-110103209D01*
X107924224Y-110103209D01*
X108267876Y-109960864D01*
X108530896Y-109697844D01*
X108590591Y-109553726D01*
X110295741Y-109553726D01*
X110295741Y-109925692D01*
X110438086Y-110269344D01*
X110701106Y-110532364D01*
X111044758Y-110674709D01*
X111416724Y-110674709D01*
X111760376Y-110532364D01*
X112023396Y-110269344D01*
X112165741Y-109925692D01*
X112165741Y-109553726D01*
X112023396Y-109210074D01*
X111760376Y-108947054D01*
X111538684Y-108855226D01*
X112899241Y-108855226D01*
X112899241Y-109227192D01*
X113041586Y-109570844D01*
X113304606Y-109833864D01*
X113648258Y-109976209D01*
X114020224Y-109976209D01*
X114363876Y-109833864D01*
X114626896Y-109570844D01*
X114769241Y-109227192D01*
X114769241Y-108855226D01*
X114690334Y-108664726D01*
X129028241Y-108664726D01*
X129028241Y-109036692D01*
X129170586Y-109380344D01*
X129433606Y-109643364D01*
X129777258Y-109785709D01*
X130149224Y-109785709D01*
X130492876Y-109643364D01*
X130519014Y-109617226D01*
X134679741Y-109617226D01*
X134679741Y-109989192D01*
X134822086Y-110332844D01*
X135085106Y-110595864D01*
X135428758Y-110738209D01*
X135800724Y-110738209D01*
X136144376Y-110595864D01*
X136407396Y-110332844D01*
X136549741Y-109989192D01*
X136549741Y-109617226D01*
X136407396Y-109273574D01*
X136226548Y-109092726D01*
X194336241Y-109092726D01*
X194336241Y-109464692D01*
X194478586Y-109808344D01*
X194741606Y-110071364D01*
X195085258Y-110213709D01*
X195457224Y-110213709D01*
X195800876Y-110071364D01*
X196063896Y-109808344D01*
X196206241Y-109464692D01*
X196206241Y-109092726D01*
X196063896Y-108749074D01*
X195800876Y-108486054D01*
X195457224Y-108343709D01*
X195085258Y-108343709D01*
X194741606Y-108486054D01*
X194478586Y-108749074D01*
X194336241Y-109092726D01*
X136226548Y-109092726D01*
X136144376Y-109010554D01*
X135800724Y-108868209D01*
X135428758Y-108868209D01*
X135085106Y-109010554D01*
X134822086Y-109273574D01*
X134679741Y-109617226D01*
X130519014Y-109617226D01*
X130755896Y-109380344D01*
X130898241Y-109036692D01*
X130898241Y-108664726D01*
X130755896Y-108321074D01*
X130492876Y-108058054D01*
X130149224Y-107915709D01*
X129777258Y-107915709D01*
X129433606Y-108058054D01*
X129170586Y-108321074D01*
X129028241Y-108664726D01*
X114690334Y-108664726D01*
X114626896Y-108511574D01*
X114363876Y-108248554D01*
X114020224Y-108106209D01*
X113648258Y-108106209D01*
X113304606Y-108248554D01*
X113041586Y-108511574D01*
X112899241Y-108855226D01*
X111538684Y-108855226D01*
X111416724Y-108804709D01*
X111044758Y-108804709D01*
X110701106Y-108947054D01*
X110438086Y-109210074D01*
X110295741Y-109553726D01*
X108590591Y-109553726D01*
X108673241Y-109354192D01*
X108673241Y-108982226D01*
X108530896Y-108638574D01*
X108267876Y-108375554D01*
X107924224Y-108233209D01*
X107552258Y-108233209D01*
X107208606Y-108375554D01*
X106945586Y-108638574D01*
X106803241Y-108982226D01*
X103329842Y-108982226D01*
X103586241Y-108363224D01*
X103586241Y-107454194D01*
X103245979Y-106632726D01*
X109914741Y-106632726D01*
X109914741Y-107004692D01*
X110057086Y-107348344D01*
X110320106Y-107611364D01*
X110663758Y-107753709D01*
X111035724Y-107753709D01*
X111379376Y-107611364D01*
X111642396Y-107348344D01*
X111780999Y-107013726D01*
X131695241Y-107013726D01*
X131695241Y-107385692D01*
X131837586Y-107729344D01*
X132100606Y-107992364D01*
X132444258Y-108134709D01*
X132816224Y-108134709D01*
X133159876Y-107992364D01*
X133422896Y-107729344D01*
X133565241Y-107385692D01*
X133565241Y-107192183D01*
X155232334Y-107192183D01*
X155232334Y-107564149D01*
X155374679Y-107907801D01*
X155637699Y-108170821D01*
X155981351Y-108313166D01*
X156353317Y-108313166D01*
X156696969Y-108170821D01*
X156959989Y-107907801D01*
X157007654Y-107792726D01*
X182136241Y-107792726D01*
X182136241Y-108164692D01*
X182278586Y-108508344D01*
X182541606Y-108771364D01*
X182885258Y-108913709D01*
X183257224Y-108913709D01*
X183600876Y-108771364D01*
X183863896Y-108508344D01*
X184006241Y-108164692D01*
X184006241Y-107792726D01*
X187136241Y-107792726D01*
X187136241Y-108164692D01*
X187278586Y-108508344D01*
X187541606Y-108771364D01*
X187885258Y-108913709D01*
X188257224Y-108913709D01*
X188600876Y-108771364D01*
X188863896Y-108508344D01*
X189006241Y-108164692D01*
X189006241Y-107792726D01*
X188863896Y-107449074D01*
X188600876Y-107186054D01*
X188257224Y-107043709D01*
X187885258Y-107043709D01*
X187541606Y-107186054D01*
X187278586Y-107449074D01*
X187136241Y-107792726D01*
X184006241Y-107792726D01*
X183863896Y-107449074D01*
X183600876Y-107186054D01*
X183257224Y-107043709D01*
X182885258Y-107043709D01*
X182541606Y-107186054D01*
X182278586Y-107449074D01*
X182136241Y-107792726D01*
X157007654Y-107792726D01*
X157038283Y-107718783D01*
X157227301Y-107640489D01*
X157490321Y-107377469D01*
X157632666Y-107033817D01*
X157632666Y-106661851D01*
X157490321Y-106318199D01*
X157227301Y-106055179D01*
X156883649Y-105912834D01*
X156511683Y-105912834D01*
X156168031Y-106055179D01*
X155905011Y-106318199D01*
X155826717Y-106507217D01*
X155637699Y-106585511D01*
X155374679Y-106848531D01*
X155232334Y-107192183D01*
X133565241Y-107192183D01*
X133565241Y-107013726D01*
X133422896Y-106670074D01*
X133159876Y-106407054D01*
X132816224Y-106264709D01*
X132444258Y-106264709D01*
X132100606Y-106407054D01*
X131837586Y-106670074D01*
X131695241Y-107013726D01*
X111780999Y-107013726D01*
X111784741Y-107004692D01*
X111784741Y-106632726D01*
X111642396Y-106289074D01*
X111379376Y-106026054D01*
X111035724Y-105883709D01*
X110663758Y-105883709D01*
X110320106Y-106026054D01*
X110057086Y-106289074D01*
X109914741Y-106632726D01*
X103245979Y-106632726D01*
X103238371Y-106614360D01*
X102595590Y-105971579D01*
X101892201Y-105680226D01*
X183574741Y-105680226D01*
X183574741Y-106052192D01*
X183717086Y-106395844D01*
X183980106Y-106658864D01*
X184323758Y-106801209D01*
X184695724Y-106801209D01*
X185005207Y-106673017D01*
X195375500Y-106673017D01*
X195375500Y-107044983D01*
X195517845Y-107388635D01*
X195780865Y-107651655D01*
X196124517Y-107794000D01*
X196496483Y-107794000D01*
X196840135Y-107651655D01*
X197103155Y-107388635D01*
X197245500Y-107044983D01*
X197245500Y-106673017D01*
X197103155Y-106329365D01*
X196840135Y-106066345D01*
X196496483Y-105924000D01*
X196124517Y-105924000D01*
X195780865Y-106066345D01*
X195517845Y-106329365D01*
X195375500Y-106673017D01*
X185005207Y-106673017D01*
X185039376Y-106658864D01*
X185302396Y-106395844D01*
X185444741Y-106052192D01*
X185444741Y-105680226D01*
X185302396Y-105336574D01*
X185039376Y-105073554D01*
X184695724Y-104931209D01*
X184323758Y-104931209D01*
X183980106Y-105073554D01*
X183717086Y-105336574D01*
X183574741Y-105680226D01*
X101892201Y-105680226D01*
X101755756Y-105623709D01*
X100846726Y-105623709D01*
X100006892Y-105971579D01*
X99364111Y-106614360D01*
X99016241Y-107454194D01*
X92386241Y-107454194D01*
X92386241Y-102363726D01*
X93437741Y-102363726D01*
X93437741Y-102735692D01*
X93580086Y-103079344D01*
X93843106Y-103342364D01*
X94186758Y-103484709D01*
X94558724Y-103484709D01*
X94902376Y-103342364D01*
X95165396Y-103079344D01*
X95307741Y-102735692D01*
X95307741Y-102366183D01*
X149644334Y-102366183D01*
X149644334Y-102738149D01*
X149786679Y-103081801D01*
X150049699Y-103344821D01*
X150393351Y-103487166D01*
X150765317Y-103487166D01*
X151108969Y-103344821D01*
X151371989Y-103081801D01*
X151450283Y-102892783D01*
X151639301Y-102814489D01*
X151902321Y-102551469D01*
X152044666Y-102207817D01*
X152044666Y-101835851D01*
X151902321Y-101492199D01*
X151639301Y-101229179D01*
X151551296Y-101192726D01*
X195136241Y-101192726D01*
X195136241Y-101564692D01*
X195278586Y-101908344D01*
X195541606Y-102171364D01*
X195885258Y-102313709D01*
X196257224Y-102313709D01*
X196600876Y-102171364D01*
X196863896Y-101908344D01*
X197006241Y-101564692D01*
X197006241Y-101192726D01*
X196863896Y-100849074D01*
X196600876Y-100586054D01*
X196257224Y-100443709D01*
X195885258Y-100443709D01*
X195541606Y-100586054D01*
X195278586Y-100849074D01*
X195136241Y-101192726D01*
X151551296Y-101192726D01*
X151295649Y-101086834D01*
X150923683Y-101086834D01*
X150580031Y-101229179D01*
X150317011Y-101492199D01*
X150238717Y-101681217D01*
X150049699Y-101759511D01*
X149786679Y-102022531D01*
X149644334Y-102366183D01*
X95307741Y-102366183D01*
X95307741Y-102363726D01*
X95165396Y-102020074D01*
X94902376Y-101757054D01*
X94558724Y-101614709D01*
X94186758Y-101614709D01*
X93843106Y-101757054D01*
X93580086Y-102020074D01*
X93437741Y-102363726D01*
X92386241Y-102363726D01*
X92386241Y-100790726D01*
X132584241Y-100790726D01*
X132584241Y-101162692D01*
X132726586Y-101506344D01*
X132989606Y-101769364D01*
X133333258Y-101911709D01*
X133705224Y-101911709D01*
X134048876Y-101769364D01*
X134311896Y-101506344D01*
X134439991Y-101197095D01*
X134568086Y-101506344D01*
X134831106Y-101769364D01*
X135174758Y-101911709D01*
X135546724Y-101911709D01*
X135890376Y-101769364D01*
X136153396Y-101506344D01*
X136295741Y-101162692D01*
X136295741Y-100790726D01*
X136153396Y-100447074D01*
X135890376Y-100184054D01*
X135546724Y-100041709D01*
X135174758Y-100041709D01*
X134831106Y-100184054D01*
X134568086Y-100447074D01*
X134439991Y-100756323D01*
X134311896Y-100447074D01*
X134048876Y-100184054D01*
X133705224Y-100041709D01*
X133333258Y-100041709D01*
X132989606Y-100184054D01*
X132726586Y-100447074D01*
X132584241Y-100790726D01*
X92386241Y-100790726D01*
X92386241Y-98723107D01*
X95616241Y-98723107D01*
X95616241Y-99234311D01*
X95811870Y-99706603D01*
X96173347Y-100068080D01*
X96645639Y-100263709D01*
X97156843Y-100263709D01*
X97629135Y-100068080D01*
X97990612Y-99706603D01*
X98186241Y-99234311D01*
X98186241Y-98723107D01*
X98020606Y-98323226D01*
X104254241Y-98323226D01*
X104254241Y-98695192D01*
X104396586Y-99038844D01*
X104659606Y-99301864D01*
X105003258Y-99444209D01*
X105375224Y-99444209D01*
X105718876Y-99301864D01*
X105981896Y-99038844D01*
X106124241Y-98695192D01*
X106124241Y-98323226D01*
X105981896Y-97979574D01*
X105718876Y-97716554D01*
X105375224Y-97574209D01*
X105003258Y-97574209D01*
X104659606Y-97716554D01*
X104396586Y-97979574D01*
X104254241Y-98323226D01*
X98020606Y-98323226D01*
X97990612Y-98250815D01*
X97629135Y-97889338D01*
X97156843Y-97693709D01*
X96645639Y-97693709D01*
X96173347Y-97889338D01*
X95811870Y-98250815D01*
X95616241Y-98723107D01*
X92386241Y-98723107D01*
X92386241Y-95338726D01*
X99428241Y-95338726D01*
X99428241Y-95710692D01*
X99570586Y-96054344D01*
X99771201Y-96254959D01*
X99570586Y-96455574D01*
X99428241Y-96799226D01*
X99428241Y-97171192D01*
X99570586Y-97514844D01*
X99833606Y-97777864D01*
X100177258Y-97920209D01*
X100549224Y-97920209D01*
X100892876Y-97777864D01*
X101155896Y-97514844D01*
X101298241Y-97171192D01*
X101298241Y-96799226D01*
X101155896Y-96455574D01*
X100955281Y-96254959D01*
X100991514Y-96218726D01*
X187638741Y-96218726D01*
X187638741Y-96590692D01*
X187781086Y-96934344D01*
X188044106Y-97197364D01*
X188387758Y-97339709D01*
X188759724Y-97339709D01*
X189103376Y-97197364D01*
X189366396Y-96934344D01*
X189508741Y-96590692D01*
X189508741Y-96218726D01*
X189366396Y-95875074D01*
X189103376Y-95612054D01*
X188759724Y-95469709D01*
X188387758Y-95469709D01*
X188044106Y-95612054D01*
X187781086Y-95875074D01*
X187638741Y-96218726D01*
X100991514Y-96218726D01*
X101155896Y-96054344D01*
X101298241Y-95710692D01*
X101298241Y-95338726D01*
X101155896Y-94995074D01*
X100892876Y-94732054D01*
X100549224Y-94589709D01*
X100177258Y-94589709D01*
X99833606Y-94732054D01*
X99570586Y-94995074D01*
X99428241Y-95338726D01*
X92386241Y-95338726D01*
X92386241Y-93814726D01*
X104571741Y-93814726D01*
X104571741Y-94186692D01*
X104714086Y-94530344D01*
X104977106Y-94793364D01*
X105320758Y-94935709D01*
X105692724Y-94935709D01*
X106036376Y-94793364D01*
X106299396Y-94530344D01*
X106441741Y-94186692D01*
X106441741Y-93814726D01*
X106299396Y-93471074D01*
X106036376Y-93208054D01*
X105692724Y-93065709D01*
X105320758Y-93065709D01*
X104977106Y-93208054D01*
X104714086Y-93471074D01*
X104571741Y-93814726D01*
X92386241Y-93814726D01*
X92386241Y-89723107D01*
X95616241Y-89723107D01*
X95616241Y-90234311D01*
X95811870Y-90706603D01*
X96173347Y-91068080D01*
X96645639Y-91263709D01*
X97156843Y-91263709D01*
X97629135Y-91068080D01*
X97990612Y-90706603D01*
X98186241Y-90234311D01*
X98186241Y-89792726D01*
X99516241Y-89792726D01*
X99516241Y-90164692D01*
X99658586Y-90508344D01*
X99661188Y-90510946D01*
X99555241Y-90766726D01*
X99555241Y-91138692D01*
X99697586Y-91482344D01*
X99960606Y-91745364D01*
X100304258Y-91887709D01*
X100676224Y-91887709D01*
X101019876Y-91745364D01*
X101282896Y-91482344D01*
X101425241Y-91138692D01*
X101425241Y-90766726D01*
X101282896Y-90423074D01*
X101280294Y-90420472D01*
X101333207Y-90292726D01*
X103916241Y-90292726D01*
X103916241Y-90664692D01*
X104046311Y-90978709D01*
X103916241Y-91292726D01*
X103916241Y-91664692D01*
X104058586Y-92008344D01*
X104321606Y-92271364D01*
X104665258Y-92413709D01*
X105037224Y-92413709D01*
X105380876Y-92271364D01*
X105643896Y-92008344D01*
X105786241Y-91664692D01*
X105786241Y-91292726D01*
X105661978Y-90992726D01*
X107016241Y-90992726D01*
X107016241Y-91364692D01*
X107158586Y-91708344D01*
X107421606Y-91971364D01*
X107765258Y-92113709D01*
X108137224Y-92113709D01*
X108480876Y-91971364D01*
X108743896Y-91708344D01*
X108886241Y-91364692D01*
X108886241Y-90992726D01*
X108743896Y-90649074D01*
X108480876Y-90386054D01*
X108137224Y-90243709D01*
X107765258Y-90243709D01*
X107421606Y-90386054D01*
X107158586Y-90649074D01*
X107016241Y-90992726D01*
X105661978Y-90992726D01*
X105656171Y-90978709D01*
X105786241Y-90664692D01*
X105786241Y-90292726D01*
X105643896Y-89949074D01*
X105380876Y-89686054D01*
X105037224Y-89543709D01*
X104665258Y-89543709D01*
X104321606Y-89686054D01*
X104058586Y-89949074D01*
X103916241Y-90292726D01*
X101333207Y-90292726D01*
X101386241Y-90164692D01*
X101386241Y-89792726D01*
X101243896Y-89449074D01*
X100980876Y-89186054D01*
X100637224Y-89043709D01*
X100265258Y-89043709D01*
X99921606Y-89186054D01*
X99658586Y-89449074D01*
X99516241Y-89792726D01*
X98186241Y-89792726D01*
X98186241Y-89723107D01*
X97990612Y-89250815D01*
X97629135Y-88889338D01*
X97156843Y-88693709D01*
X96645639Y-88693709D01*
X96173347Y-88889338D01*
X95811870Y-89250815D01*
X95616241Y-89723107D01*
X92386241Y-89723107D01*
X92386241Y-86308226D01*
X93334241Y-86308226D01*
X93334241Y-86680192D01*
X93476586Y-87023844D01*
X93739606Y-87286864D01*
X94083258Y-87429209D01*
X94455224Y-87429209D01*
X94798876Y-87286864D01*
X95061896Y-87023844D01*
X95157627Y-86792726D01*
X105516241Y-86792726D01*
X105516241Y-87164692D01*
X105658586Y-87508344D01*
X105921606Y-87771364D01*
X106180760Y-87878709D01*
X105921606Y-87986054D01*
X105658586Y-88249074D01*
X105516241Y-88592726D01*
X105516241Y-88964692D01*
X105658586Y-89308344D01*
X105921606Y-89571364D01*
X106265258Y-89713709D01*
X106637224Y-89713709D01*
X106980876Y-89571364D01*
X107243896Y-89308344D01*
X107386241Y-88964692D01*
X107386241Y-88592726D01*
X107243896Y-88249074D01*
X106980876Y-87986054D01*
X106721722Y-87878709D01*
X106980876Y-87771364D01*
X107243896Y-87508344D01*
X107386241Y-87164692D01*
X107386241Y-86792726D01*
X107243896Y-86449074D01*
X106980876Y-86186054D01*
X106637224Y-86043709D01*
X106265258Y-86043709D01*
X105921606Y-86186054D01*
X105658586Y-86449074D01*
X105516241Y-86792726D01*
X95157627Y-86792726D01*
X95204241Y-86680192D01*
X95204241Y-86308226D01*
X95061896Y-85964574D01*
X94798876Y-85701554D01*
X94455224Y-85559209D01*
X94083258Y-85559209D01*
X93739606Y-85701554D01*
X93476586Y-85964574D01*
X93334241Y-86308226D01*
X92386241Y-86308226D01*
X92386241Y-85213709D01*
X199916242Y-85213709D01*
X199916242Y-95756920D01*
X199916242Y-95756920D01*
G37*
X199916242Y-95756920D02*
X199771376Y-95612054D01*
X199427724Y-95469709D01*
X199055758Y-95469709D01*
X198712106Y-95612054D01*
X198449086Y-95875074D01*
X198306741Y-96218726D01*
X198306741Y-96590692D01*
X198449086Y-96934344D01*
X198712106Y-97197364D01*
X199055758Y-97339709D01*
X199427724Y-97339709D01*
X199771376Y-97197364D01*
X199916242Y-97052498D01*
X199916241Y-112266919D01*
X199771376Y-112122054D01*
X199427724Y-111979709D01*
X199055758Y-111979709D01*
X198712106Y-112122054D01*
X198449086Y-112385074D01*
X198306741Y-112728726D01*
X198306741Y-113100692D01*
X198449086Y-113444344D01*
X198712106Y-113707364D01*
X199055758Y-113849709D01*
X199427724Y-113849709D01*
X199771376Y-113707364D01*
X199916241Y-113562499D01*
X199916241Y-123743709D01*
X92386241Y-123743709D01*
X92386241Y-120594194D01*
X99016241Y-120594194D01*
X99016241Y-121503224D01*
X99364111Y-122343058D01*
X100006892Y-122985839D01*
X100846726Y-123333709D01*
X101755756Y-123333709D01*
X102595590Y-122985839D01*
X103238371Y-122343058D01*
X103354280Y-122063226D01*
X119630241Y-122063226D01*
X119630241Y-122435192D01*
X119772586Y-122778844D01*
X120035606Y-123041864D01*
X120379258Y-123184209D01*
X120751224Y-123184209D01*
X121094876Y-123041864D01*
X121357896Y-122778844D01*
X121500241Y-122435192D01*
X121500241Y-122063226D01*
X121357896Y-121719574D01*
X121094876Y-121456554D01*
X120751224Y-121314209D01*
X120379258Y-121314209D01*
X120035606Y-121456554D01*
X119772586Y-121719574D01*
X119630241Y-122063226D01*
X103354280Y-122063226D01*
X103586241Y-121503224D01*
X103586241Y-120594194D01*
X103238371Y-119754360D01*
X102595590Y-119111579D01*
X101755756Y-118763709D01*
X100846726Y-118763709D01*
X100006892Y-119111579D01*
X99364111Y-119754360D01*
X99016241Y-120594194D01*
X92386241Y-120594194D01*
X92386241Y-110673379D01*
X102476241Y-110673379D01*
X102476241Y-111284039D01*
X102709931Y-111848216D01*
X103090424Y-112228709D01*
X102709931Y-112609202D01*
X102476241Y-113173379D01*
X102476241Y-113784039D01*
X102709931Y-114348216D01*
X102840424Y-114478709D01*
X102709931Y-114609202D01*
X102476241Y-115173379D01*
X102476241Y-115784039D01*
X102709931Y-116348216D01*
X103090424Y-116728709D01*
X102709931Y-117109202D01*
X102476241Y-117673379D01*
X102476241Y-118284039D01*
X102709931Y-118848216D01*
X103141734Y-119280019D01*
X103705911Y-119513709D01*
X104316571Y-119513709D01*
X104880748Y-119280019D01*
X105209041Y-118951726D01*
X109089241Y-118951726D01*
X109089241Y-119323692D01*
X109231586Y-119667344D01*
X109494606Y-119930364D01*
X109838258Y-120072709D01*
X110210224Y-120072709D01*
X110553876Y-119930364D01*
X110816896Y-119667344D01*
X110955499Y-119332726D01*
X123376741Y-119332726D01*
X123376741Y-119704692D01*
X123519086Y-120048344D01*
X123782106Y-120311364D01*
X124125758Y-120453709D01*
X124497724Y-120453709D01*
X124841376Y-120311364D01*
X125104396Y-120048344D01*
X125246741Y-119704692D01*
X125246741Y-119332726D01*
X125104396Y-118989074D01*
X124841376Y-118726054D01*
X124497724Y-118583709D01*
X124125758Y-118583709D01*
X123782106Y-118726054D01*
X123519086Y-118989074D01*
X123376741Y-119332726D01*
X110955499Y-119332726D01*
X110959241Y-119323692D01*
X110959241Y-118951726D01*
X110816896Y-118608074D01*
X110553876Y-118345054D01*
X110210224Y-118202709D01*
X109838258Y-118202709D01*
X109494606Y-118345054D01*
X109231586Y-118608074D01*
X109089241Y-118951726D01*
X105209041Y-118951726D01*
X105312551Y-118848216D01*
X105546241Y-118284039D01*
X105546241Y-117673379D01*
X105312551Y-117109202D01*
X105186575Y-116983226D01*
X106803241Y-116983226D01*
X106803241Y-117355192D01*
X106945586Y-117698844D01*
X107208606Y-117961864D01*
X107552258Y-118104209D01*
X107924224Y-118104209D01*
X108267876Y-117961864D01*
X108421014Y-117808726D01*
X111756241Y-117808726D01*
X111756241Y-118180692D01*
X111898586Y-118524344D01*
X112161606Y-118787364D01*
X112505258Y-118929709D01*
X112877224Y-118929709D01*
X113220876Y-118787364D01*
X113483896Y-118524344D01*
X113626241Y-118180692D01*
X113626241Y-117853487D01*
X126016241Y-117853487D01*
X126016241Y-118503931D01*
X126265155Y-119104862D01*
X126609002Y-119448709D01*
X126265155Y-119792556D01*
X126016241Y-120393487D01*
X126016241Y-121043931D01*
X126265155Y-121644862D01*
X126725088Y-122104795D01*
X127326019Y-122353709D01*
X127976463Y-122353709D01*
X128577394Y-122104795D01*
X128921241Y-121760948D01*
X129265088Y-122104795D01*
X129866019Y-122353709D01*
X130516463Y-122353709D01*
X131117394Y-122104795D01*
X131461241Y-121760948D01*
X131805088Y-122104795D01*
X132406019Y-122353709D01*
X133056463Y-122353709D01*
X133657394Y-122104795D01*
X134001241Y-121760948D01*
X134345088Y-122104795D01*
X134946019Y-122353709D01*
X135596463Y-122353709D01*
X136197394Y-122104795D01*
X136541241Y-121760948D01*
X136885088Y-122104795D01*
X137486019Y-122353709D01*
X138136463Y-122353709D01*
X138737394Y-122104795D01*
X138970948Y-121871241D01*
X139378314Y-121871241D01*
X139476977Y-122138096D01*
X140086702Y-122364617D01*
X140736701Y-122340565D01*
X141225505Y-122138096D01*
X141324168Y-121871241D01*
X140351241Y-120898314D01*
X139378314Y-121871241D01*
X138970948Y-121871241D01*
X139163552Y-121678637D01*
X139198709Y-121691636D01*
X140171636Y-120718709D01*
X140530846Y-120718709D01*
X141503773Y-121691636D01*
X141770628Y-121592973D01*
X141997149Y-120983248D01*
X141973097Y-120333249D01*
X141770628Y-119844445D01*
X141503773Y-119745782D01*
X140530846Y-120718709D01*
X140171636Y-120718709D01*
X139198709Y-119745782D01*
X139163552Y-119758781D01*
X138853480Y-119448709D01*
X138970948Y-119331241D01*
X139378314Y-119331241D01*
X139421745Y-119448709D01*
X139378314Y-119566177D01*
X140351241Y-120539104D01*
X141324168Y-119566177D01*
X141280737Y-119448709D01*
X141324168Y-119331241D01*
X140351241Y-118358314D01*
X139378314Y-119331241D01*
X138970948Y-119331241D01*
X139163552Y-119138637D01*
X139198709Y-119151636D01*
X140171636Y-118178709D01*
X140530846Y-118178709D01*
X141503773Y-119151636D01*
X141770628Y-119052973D01*
X141997149Y-118443248D01*
X141975326Y-117853487D01*
X149016241Y-117853487D01*
X149016241Y-118503931D01*
X149265155Y-119104862D01*
X149609002Y-119448709D01*
X149265155Y-119792556D01*
X149016241Y-120393487D01*
X149016241Y-121043931D01*
X149265155Y-121644862D01*
X149725088Y-122104795D01*
X150326019Y-122353709D01*
X150976463Y-122353709D01*
X151577394Y-122104795D01*
X151921241Y-121760948D01*
X152265088Y-122104795D01*
X152866019Y-122353709D01*
X153516463Y-122353709D01*
X154117394Y-122104795D01*
X154461241Y-121760948D01*
X154805088Y-122104795D01*
X155406019Y-122353709D01*
X156056463Y-122353709D01*
X156657394Y-122104795D01*
X157001241Y-121760948D01*
X157345088Y-122104795D01*
X157946019Y-122353709D01*
X158596463Y-122353709D01*
X159197394Y-122104795D01*
X159541241Y-121760948D01*
X159885088Y-122104795D01*
X160486019Y-122353709D01*
X161136463Y-122353709D01*
X161737394Y-122104795D01*
X161970948Y-121871241D01*
X162378314Y-121871241D01*
X162476977Y-122138096D01*
X163086702Y-122364617D01*
X163736701Y-122340565D01*
X164225505Y-122138096D01*
X164324168Y-121871241D01*
X163351241Y-120898314D01*
X162378314Y-121871241D01*
X161970948Y-121871241D01*
X162163552Y-121678637D01*
X162198709Y-121691636D01*
X163171636Y-120718709D01*
X163530846Y-120718709D01*
X164503773Y-121691636D01*
X164770628Y-121592973D01*
X164997149Y-120983248D01*
X164973097Y-120333249D01*
X164770628Y-119844445D01*
X164503773Y-119745782D01*
X163530846Y-120718709D01*
X163171636Y-120718709D01*
X162198709Y-119745782D01*
X162163552Y-119758781D01*
X161853480Y-119448709D01*
X161970948Y-119331241D01*
X162378314Y-119331241D01*
X162421745Y-119448709D01*
X162378314Y-119566177D01*
X163351241Y-120539104D01*
X164324168Y-119566177D01*
X164280737Y-119448709D01*
X164324168Y-119331241D01*
X163351241Y-118358314D01*
X162378314Y-119331241D01*
X161970948Y-119331241D01*
X162163552Y-119138637D01*
X162198709Y-119151636D01*
X163171636Y-118178709D01*
X163530846Y-118178709D01*
X164503773Y-119151636D01*
X164770628Y-119052973D01*
X164997149Y-118443248D01*
X164975326Y-117853487D01*
X172016241Y-117853487D01*
X172016241Y-118503931D01*
X172265155Y-119104862D01*
X172609002Y-119448709D01*
X172265155Y-119792556D01*
X172016241Y-120393487D01*
X172016241Y-121043931D01*
X172265155Y-121644862D01*
X172725088Y-122104795D01*
X173326019Y-122353709D01*
X173976463Y-122353709D01*
X174577394Y-122104795D01*
X174921241Y-121760948D01*
X175265088Y-122104795D01*
X175866019Y-122353709D01*
X176516463Y-122353709D01*
X177117394Y-122104795D01*
X177461241Y-121760948D01*
X177805088Y-122104795D01*
X178406019Y-122353709D01*
X179056463Y-122353709D01*
X179657394Y-122104795D01*
X180001241Y-121760948D01*
X180345088Y-122104795D01*
X180946019Y-122353709D01*
X181596463Y-122353709D01*
X182197394Y-122104795D01*
X182541241Y-121760948D01*
X182885088Y-122104795D01*
X183486019Y-122353709D01*
X184136463Y-122353709D01*
X184737394Y-122104795D01*
X184970948Y-121871241D01*
X185378314Y-121871241D01*
X185476977Y-122138096D01*
X186086702Y-122364617D01*
X186736701Y-122340565D01*
X187225505Y-122138096D01*
X187324168Y-121871241D01*
X186351241Y-120898314D01*
X185378314Y-121871241D01*
X184970948Y-121871241D01*
X185163552Y-121678637D01*
X185198709Y-121691636D01*
X186171636Y-120718709D01*
X186530846Y-120718709D01*
X187503773Y-121691636D01*
X187770628Y-121592973D01*
X187997149Y-120983248D01*
X187973097Y-120333249D01*
X187770628Y-119844445D01*
X187503773Y-119745782D01*
X186530846Y-120718709D01*
X186171636Y-120718709D01*
X185198709Y-119745782D01*
X185163552Y-119758781D01*
X184853480Y-119448709D01*
X184970948Y-119331241D01*
X185378314Y-119331241D01*
X185421745Y-119448709D01*
X185378314Y-119566177D01*
X186351241Y-120539104D01*
X187324168Y-119566177D01*
X187280737Y-119448709D01*
X187324168Y-119331241D01*
X186351241Y-118358314D01*
X185378314Y-119331241D01*
X184970948Y-119331241D01*
X185163552Y-119138637D01*
X185198709Y-119151636D01*
X186171636Y-118178709D01*
X186530846Y-118178709D01*
X187503773Y-119151636D01*
X187770628Y-119052973D01*
X187997149Y-118443248D01*
X187973097Y-117793249D01*
X187770628Y-117304445D01*
X187503773Y-117205782D01*
X186530846Y-118178709D01*
X186171636Y-118178709D01*
X185198709Y-117205782D01*
X185163552Y-117218781D01*
X184970948Y-117026177D01*
X185378314Y-117026177D01*
X186351241Y-117999104D01*
X187324168Y-117026177D01*
X187225505Y-116759322D01*
X186615780Y-116532801D01*
X185965781Y-116556853D01*
X185476977Y-116759322D01*
X185378314Y-117026177D01*
X184970948Y-117026177D01*
X184737394Y-116792623D01*
X184136463Y-116543709D01*
X183486019Y-116543709D01*
X182885088Y-116792623D01*
X182541241Y-117136470D01*
X182197394Y-116792623D01*
X181596463Y-116543709D01*
X180946019Y-116543709D01*
X180345088Y-116792623D01*
X180001241Y-117136470D01*
X179657394Y-116792623D01*
X179056463Y-116543709D01*
X178406019Y-116543709D01*
X177805088Y-116792623D01*
X177461241Y-117136470D01*
X177117394Y-116792623D01*
X176516463Y-116543709D01*
X175866019Y-116543709D01*
X175265088Y-116792623D01*
X174921241Y-117136470D01*
X174577394Y-116792623D01*
X173976463Y-116543709D01*
X173326019Y-116543709D01*
X172725088Y-116792623D01*
X172265155Y-117252556D01*
X172016241Y-117853487D01*
X164975326Y-117853487D01*
X164973097Y-117793249D01*
X164770628Y-117304445D01*
X164503773Y-117205782D01*
X163530846Y-118178709D01*
X163171636Y-118178709D01*
X162198709Y-117205782D01*
X162163552Y-117218781D01*
X161970948Y-117026177D01*
X162378314Y-117026177D01*
X163351241Y-117999104D01*
X164324168Y-117026177D01*
X164225505Y-116759322D01*
X163615780Y-116532801D01*
X162965781Y-116556853D01*
X162476977Y-116759322D01*
X162378314Y-117026177D01*
X161970948Y-117026177D01*
X161737394Y-116792623D01*
X161136463Y-116543709D01*
X160486019Y-116543709D01*
X159885088Y-116792623D01*
X159541241Y-117136470D01*
X159197394Y-116792623D01*
X158596463Y-116543709D01*
X157946019Y-116543709D01*
X157345088Y-116792623D01*
X157001241Y-117136470D01*
X156657394Y-116792623D01*
X156056463Y-116543709D01*
X155406019Y-116543709D01*
X154805088Y-116792623D01*
X154461241Y-117136470D01*
X154117394Y-116792623D01*
X153516463Y-116543709D01*
X152866019Y-116543709D01*
X152265088Y-116792623D01*
X151921241Y-117136470D01*
X151577394Y-116792623D01*
X150976463Y-116543709D01*
X150326019Y-116543709D01*
X149725088Y-116792623D01*
X149265155Y-117252556D01*
X149016241Y-117853487D01*
X141975326Y-117853487D01*
X141973097Y-117793249D01*
X141770628Y-117304445D01*
X141503773Y-117205782D01*
X140530846Y-118178709D01*
X140171636Y-118178709D01*
X139198709Y-117205782D01*
X139163552Y-117218781D01*
X138970948Y-117026177D01*
X139378314Y-117026177D01*
X140351241Y-117999104D01*
X141324168Y-117026177D01*
X141225505Y-116759322D01*
X140615780Y-116532801D01*
X139965781Y-116556853D01*
X139476977Y-116759322D01*
X139378314Y-117026177D01*
X138970948Y-117026177D01*
X138737394Y-116792623D01*
X138136463Y-116543709D01*
X137486019Y-116543709D01*
X136885088Y-116792623D01*
X136541241Y-117136470D01*
X136197394Y-116792623D01*
X135596463Y-116543709D01*
X134946019Y-116543709D01*
X134345088Y-116792623D01*
X134001241Y-117136470D01*
X133657394Y-116792623D01*
X133056463Y-116543709D01*
X132406019Y-116543709D01*
X131805088Y-116792623D01*
X131461241Y-117136470D01*
X131117394Y-116792623D01*
X130516463Y-116543709D01*
X129866019Y-116543709D01*
X129265088Y-116792623D01*
X128921241Y-117136470D01*
X128577394Y-116792623D01*
X127976463Y-116543709D01*
X127326019Y-116543709D01*
X126725088Y-116792623D01*
X126265155Y-117252556D01*
X126016241Y-117853487D01*
X113626241Y-117853487D01*
X113626241Y-117808726D01*
X113483896Y-117465074D01*
X113220876Y-117202054D01*
X112877224Y-117059709D01*
X112505258Y-117059709D01*
X112161606Y-117202054D01*
X111898586Y-117465074D01*
X111756241Y-117808726D01*
X108421014Y-117808726D01*
X108530896Y-117698844D01*
X108673241Y-117355192D01*
X108673241Y-116983226D01*
X108530896Y-116639574D01*
X108267876Y-116376554D01*
X107924224Y-116234209D01*
X107552258Y-116234209D01*
X107208606Y-116376554D01*
X106945586Y-116639574D01*
X106803241Y-116983226D01*
X105186575Y-116983226D01*
X104932058Y-116728709D01*
X105312551Y-116348216D01*
X105546241Y-115784039D01*
X105546241Y-115173379D01*
X105322710Y-114633726D01*
X122741741Y-114633726D01*
X122741741Y-115005692D01*
X122884086Y-115349344D01*
X123147106Y-115612364D01*
X123490758Y-115754709D01*
X123862724Y-115754709D01*
X124206376Y-115612364D01*
X124469396Y-115349344D01*
X124611741Y-115005692D01*
X124611741Y-114801017D01*
X146486500Y-114801017D01*
X146486500Y-115172983D01*
X146628845Y-115516635D01*
X146891865Y-115779655D01*
X147235517Y-115922000D01*
X147607483Y-115922000D01*
X147796500Y-115843707D01*
X147985517Y-115922000D01*
X148357483Y-115922000D01*
X148701135Y-115779655D01*
X148964155Y-115516635D01*
X149106500Y-115172983D01*
X149106500Y-114801017D01*
X165028500Y-114801017D01*
X165028500Y-115172983D01*
X165170845Y-115516635D01*
X165433865Y-115779655D01*
X165777517Y-115922000D01*
X166149483Y-115922000D01*
X166338500Y-115843707D01*
X166527517Y-115922000D01*
X166899483Y-115922000D01*
X167243135Y-115779655D01*
X167506155Y-115516635D01*
X167648500Y-115172983D01*
X167648500Y-114801017D01*
X167506155Y-114457365D01*
X167243135Y-114194345D01*
X166899483Y-114052000D01*
X166527517Y-114052000D01*
X166338500Y-114130293D01*
X166149483Y-114052000D01*
X165777517Y-114052000D01*
X165433865Y-114194345D01*
X165170845Y-114457365D01*
X165028500Y-114801017D01*
X149106500Y-114801017D01*
X148964155Y-114457365D01*
X148701135Y-114194345D01*
X148357483Y-114052000D01*
X147985517Y-114052000D01*
X147796500Y-114130293D01*
X147607483Y-114052000D01*
X147235517Y-114052000D01*
X146891865Y-114194345D01*
X146628845Y-114457365D01*
X146486500Y-114801017D01*
X124611741Y-114801017D01*
X124611741Y-114633726D01*
X124469396Y-114290074D01*
X124206376Y-114027054D01*
X123862724Y-113884709D01*
X123490758Y-113884709D01*
X123147106Y-114027054D01*
X122884086Y-114290074D01*
X122741741Y-114633726D01*
X105322710Y-114633726D01*
X105312551Y-114609202D01*
X105182058Y-114478709D01*
X105312551Y-114348216D01*
X105546241Y-113784039D01*
X105546241Y-113173379D01*
X105464295Y-112975543D01*
X114224809Y-112975543D01*
X114224809Y-113347509D01*
X114367154Y-113691161D01*
X114630174Y-113954181D01*
X114973826Y-114096526D01*
X115345792Y-114096526D01*
X115689444Y-113954181D01*
X115952464Y-113691161D01*
X116094809Y-113347509D01*
X116094809Y-112982746D01*
X134171741Y-112982746D01*
X134171741Y-113354712D01*
X134314086Y-113698364D01*
X134577106Y-113961384D01*
X134920758Y-114103729D01*
X135292724Y-114103729D01*
X135636376Y-113961384D01*
X135899396Y-113698364D01*
X136041741Y-113354712D01*
X136041741Y-113109726D01*
X136267241Y-113109726D01*
X136267241Y-113481692D01*
X136409586Y-113825344D01*
X136672606Y-114088364D01*
X137016258Y-114230709D01*
X137388224Y-114230709D01*
X137731876Y-114088364D01*
X137994896Y-113825344D01*
X138137241Y-113481692D01*
X138137241Y-113109726D01*
X137994896Y-112766074D01*
X137957548Y-112728726D01*
X190686741Y-112728726D01*
X190686741Y-113100692D01*
X190829086Y-113444344D01*
X191092106Y-113707364D01*
X191435758Y-113849709D01*
X191807724Y-113849709D01*
X192151376Y-113707364D01*
X192414396Y-113444344D01*
X192556741Y-113100692D01*
X192556741Y-112728726D01*
X192414396Y-112385074D01*
X192151376Y-112122054D01*
X191807724Y-111979709D01*
X191435758Y-111979709D01*
X191092106Y-112122054D01*
X190829086Y-112385074D01*
X190686741Y-112728726D01*
X137957548Y-112728726D01*
X137731876Y-112503054D01*
X137388224Y-112360709D01*
X137016258Y-112360709D01*
X136672606Y-112503054D01*
X136409586Y-112766074D01*
X136267241Y-113109726D01*
X136041741Y-113109726D01*
X136041741Y-112982746D01*
X135899396Y-112639094D01*
X135636376Y-112376074D01*
X135292724Y-112233729D01*
X134920758Y-112233729D01*
X134577106Y-112376074D01*
X134314086Y-112639094D01*
X134171741Y-112982746D01*
X116094809Y-112982746D01*
X116094809Y-112975543D01*
X115952464Y-112631891D01*
X115689444Y-112368871D01*
X115345792Y-112226526D01*
X114973826Y-112226526D01*
X114630174Y-112368871D01*
X114367154Y-112631891D01*
X114224809Y-112975543D01*
X105464295Y-112975543D01*
X105312551Y-112609202D01*
X104932058Y-112228709D01*
X105312551Y-111848216D01*
X105421278Y-111585726D01*
X117026741Y-111585726D01*
X117026741Y-111957692D01*
X117169086Y-112301344D01*
X117432106Y-112564364D01*
X117775758Y-112706709D01*
X118147724Y-112706709D01*
X118491376Y-112564364D01*
X118754396Y-112301344D01*
X118896741Y-111957692D01*
X118896741Y-111871520D01*
X118997865Y-111829633D01*
X119236222Y-111591276D01*
X120798067Y-111591276D01*
X120798067Y-111963242D01*
X120940412Y-112306894D01*
X121203432Y-112569914D01*
X121547084Y-112712259D01*
X121919050Y-112712259D01*
X122262702Y-112569914D01*
X122525722Y-112306894D01*
X122668067Y-111963242D01*
X122668067Y-111816726D01*
X131286241Y-111816726D01*
X131286241Y-112188692D01*
X131428586Y-112532344D01*
X131691606Y-112795364D01*
X132035258Y-112937709D01*
X132407224Y-112937709D01*
X132750876Y-112795364D01*
X133013896Y-112532344D01*
X133156241Y-112188692D01*
X133156241Y-111816726D01*
X133013896Y-111473074D01*
X132750876Y-111210054D01*
X132407224Y-111067709D01*
X132035258Y-111067709D01*
X131691606Y-111210054D01*
X131428586Y-111473074D01*
X131286241Y-111816726D01*
X122668067Y-111816726D01*
X122668067Y-111591276D01*
X122644247Y-111533769D01*
X122705909Y-111472107D01*
X122848254Y-111128455D01*
X122848254Y-110756489D01*
X122705909Y-110412837D01*
X122442889Y-110149817D01*
X122099237Y-110007472D01*
X121727271Y-110007472D01*
X121383619Y-110149817D01*
X121120599Y-110412837D01*
X120978254Y-110756489D01*
X120978254Y-111128455D01*
X121002074Y-111185962D01*
X120940412Y-111247624D01*
X120798067Y-111591276D01*
X119236222Y-111591276D01*
X119260885Y-111566613D01*
X119403230Y-111222961D01*
X119403230Y-110850995D01*
X119260885Y-110507343D01*
X119172251Y-110418709D01*
X119378140Y-110212820D01*
X119520485Y-109869168D01*
X119520485Y-109497202D01*
X119517596Y-109490226D01*
X122995741Y-109490226D01*
X122995741Y-109862192D01*
X123138086Y-110205844D01*
X123401106Y-110468864D01*
X123744758Y-110611209D01*
X124116724Y-110611209D01*
X124460376Y-110468864D01*
X124723396Y-110205844D01*
X124865741Y-109862192D01*
X124865741Y-109490226D01*
X124723396Y-109146574D01*
X124460376Y-108883554D01*
X124116724Y-108741209D01*
X123744758Y-108741209D01*
X123401106Y-108883554D01*
X123138086Y-109146574D01*
X122995741Y-109490226D01*
X119517596Y-109490226D01*
X119378140Y-109153550D01*
X119115120Y-108890530D01*
X118771468Y-108748185D01*
X118399502Y-108748185D01*
X118055850Y-108890530D01*
X117792830Y-109153550D01*
X117650485Y-109497202D01*
X117650485Y-109869168D01*
X117792830Y-110212820D01*
X117881464Y-110301454D01*
X117675575Y-110507343D01*
X117533230Y-110850995D01*
X117533230Y-110937167D01*
X117432106Y-110979054D01*
X117169086Y-111242074D01*
X117026741Y-111585726D01*
X105421278Y-111585726D01*
X105546241Y-111284039D01*
X105546241Y-110673379D01*
X105312551Y-110109202D01*
X104880748Y-109677399D01*
X104316571Y-109443709D01*
X103705911Y-109443709D01*
X103141734Y-109677399D01*
X102709931Y-110109202D01*
X102476241Y-110673379D01*
X92386241Y-110673379D01*
X92386241Y-107454194D01*
X99016241Y-107454194D01*
X99016241Y-108363224D01*
X99364111Y-109203058D01*
X100006892Y-109845839D01*
X100846726Y-110193709D01*
X101755756Y-110193709D01*
X102595590Y-109845839D01*
X103238371Y-109203058D01*
X103329842Y-108982226D01*
X106803241Y-108982226D01*
X106803241Y-109354192D01*
X106945586Y-109697844D01*
X107208606Y-109960864D01*
X107552258Y-110103209D01*
X107924224Y-110103209D01*
X108267876Y-109960864D01*
X108530896Y-109697844D01*
X108590591Y-109553726D01*
X110295741Y-109553726D01*
X110295741Y-109925692D01*
X110438086Y-110269344D01*
X110701106Y-110532364D01*
X111044758Y-110674709D01*
X111416724Y-110674709D01*
X111760376Y-110532364D01*
X112023396Y-110269344D01*
X112165741Y-109925692D01*
X112165741Y-109553726D01*
X112023396Y-109210074D01*
X111760376Y-108947054D01*
X111538684Y-108855226D01*
X112899241Y-108855226D01*
X112899241Y-109227192D01*
X113041586Y-109570844D01*
X113304606Y-109833864D01*
X113648258Y-109976209D01*
X114020224Y-109976209D01*
X114363876Y-109833864D01*
X114626896Y-109570844D01*
X114769241Y-109227192D01*
X114769241Y-108855226D01*
X114690334Y-108664726D01*
X129028241Y-108664726D01*
X129028241Y-109036692D01*
X129170586Y-109380344D01*
X129433606Y-109643364D01*
X129777258Y-109785709D01*
X130149224Y-109785709D01*
X130492876Y-109643364D01*
X130519014Y-109617226D01*
X134679741Y-109617226D01*
X134679741Y-109989192D01*
X134822086Y-110332844D01*
X135085106Y-110595864D01*
X135428758Y-110738209D01*
X135800724Y-110738209D01*
X136144376Y-110595864D01*
X136407396Y-110332844D01*
X136549741Y-109989192D01*
X136549741Y-109617226D01*
X136407396Y-109273574D01*
X136226548Y-109092726D01*
X194336241Y-109092726D01*
X194336241Y-109464692D01*
X194478586Y-109808344D01*
X194741606Y-110071364D01*
X195085258Y-110213709D01*
X195457224Y-110213709D01*
X195800876Y-110071364D01*
X196063896Y-109808344D01*
X196206241Y-109464692D01*
X196206241Y-109092726D01*
X196063896Y-108749074D01*
X195800876Y-108486054D01*
X195457224Y-108343709D01*
X195085258Y-108343709D01*
X194741606Y-108486054D01*
X194478586Y-108749074D01*
X194336241Y-109092726D01*
X136226548Y-109092726D01*
X136144376Y-109010554D01*
X135800724Y-108868209D01*
X135428758Y-108868209D01*
X135085106Y-109010554D01*
X134822086Y-109273574D01*
X134679741Y-109617226D01*
X130519014Y-109617226D01*
X130755896Y-109380344D01*
X130898241Y-109036692D01*
X130898241Y-108664726D01*
X130755896Y-108321074D01*
X130492876Y-108058054D01*
X130149224Y-107915709D01*
X129777258Y-107915709D01*
X129433606Y-108058054D01*
X129170586Y-108321074D01*
X129028241Y-108664726D01*
X114690334Y-108664726D01*
X114626896Y-108511574D01*
X114363876Y-108248554D01*
X114020224Y-108106209D01*
X113648258Y-108106209D01*
X113304606Y-108248554D01*
X113041586Y-108511574D01*
X112899241Y-108855226D01*
X111538684Y-108855226D01*
X111416724Y-108804709D01*
X111044758Y-108804709D01*
X110701106Y-108947054D01*
X110438086Y-109210074D01*
X110295741Y-109553726D01*
X108590591Y-109553726D01*
X108673241Y-109354192D01*
X108673241Y-108982226D01*
X108530896Y-108638574D01*
X108267876Y-108375554D01*
X107924224Y-108233209D01*
X107552258Y-108233209D01*
X107208606Y-108375554D01*
X106945586Y-108638574D01*
X106803241Y-108982226D01*
X103329842Y-108982226D01*
X103586241Y-108363224D01*
X103586241Y-107454194D01*
X103245979Y-106632726D01*
X109914741Y-106632726D01*
X109914741Y-107004692D01*
X110057086Y-107348344D01*
X110320106Y-107611364D01*
X110663758Y-107753709D01*
X111035724Y-107753709D01*
X111379376Y-107611364D01*
X111642396Y-107348344D01*
X111780999Y-107013726D01*
X131695241Y-107013726D01*
X131695241Y-107385692D01*
X131837586Y-107729344D01*
X132100606Y-107992364D01*
X132444258Y-108134709D01*
X132816224Y-108134709D01*
X133159876Y-107992364D01*
X133422896Y-107729344D01*
X133565241Y-107385692D01*
X133565241Y-107192183D01*
X155232334Y-107192183D01*
X155232334Y-107564149D01*
X155374679Y-107907801D01*
X155637699Y-108170821D01*
X155981351Y-108313166D01*
X156353317Y-108313166D01*
X156696969Y-108170821D01*
X156959989Y-107907801D01*
X157007654Y-107792726D01*
X182136241Y-107792726D01*
X182136241Y-108164692D01*
X182278586Y-108508344D01*
X182541606Y-108771364D01*
X182885258Y-108913709D01*
X183257224Y-108913709D01*
X183600876Y-108771364D01*
X183863896Y-108508344D01*
X184006241Y-108164692D01*
X184006241Y-107792726D01*
X187136241Y-107792726D01*
X187136241Y-108164692D01*
X187278586Y-108508344D01*
X187541606Y-108771364D01*
X187885258Y-108913709D01*
X188257224Y-108913709D01*
X188600876Y-108771364D01*
X188863896Y-108508344D01*
X189006241Y-108164692D01*
X189006241Y-107792726D01*
X188863896Y-107449074D01*
X188600876Y-107186054D01*
X188257224Y-107043709D01*
X187885258Y-107043709D01*
X187541606Y-107186054D01*
X187278586Y-107449074D01*
X187136241Y-107792726D01*
X184006241Y-107792726D01*
X183863896Y-107449074D01*
X183600876Y-107186054D01*
X183257224Y-107043709D01*
X182885258Y-107043709D01*
X182541606Y-107186054D01*
X182278586Y-107449074D01*
X182136241Y-107792726D01*
X157007654Y-107792726D01*
X157038283Y-107718783D01*
X157227301Y-107640489D01*
X157490321Y-107377469D01*
X157632666Y-107033817D01*
X157632666Y-106661851D01*
X157490321Y-106318199D01*
X157227301Y-106055179D01*
X156883649Y-105912834D01*
X156511683Y-105912834D01*
X156168031Y-106055179D01*
X155905011Y-106318199D01*
X155826717Y-106507217D01*
X155637699Y-106585511D01*
X155374679Y-106848531D01*
X155232334Y-107192183D01*
X133565241Y-107192183D01*
X133565241Y-107013726D01*
X133422896Y-106670074D01*
X133159876Y-106407054D01*
X132816224Y-106264709D01*
X132444258Y-106264709D01*
X132100606Y-106407054D01*
X131837586Y-106670074D01*
X131695241Y-107013726D01*
X111780999Y-107013726D01*
X111784741Y-107004692D01*
X111784741Y-106632726D01*
X111642396Y-106289074D01*
X111379376Y-106026054D01*
X111035724Y-105883709D01*
X110663758Y-105883709D01*
X110320106Y-106026054D01*
X110057086Y-106289074D01*
X109914741Y-106632726D01*
X103245979Y-106632726D01*
X103238371Y-106614360D01*
X102595590Y-105971579D01*
X101892201Y-105680226D01*
X183574741Y-105680226D01*
X183574741Y-106052192D01*
X183717086Y-106395844D01*
X183980106Y-106658864D01*
X184323758Y-106801209D01*
X184695724Y-106801209D01*
X185005207Y-106673017D01*
X195375500Y-106673017D01*
X195375500Y-107044983D01*
X195517845Y-107388635D01*
X195780865Y-107651655D01*
X196124517Y-107794000D01*
X196496483Y-107794000D01*
X196840135Y-107651655D01*
X197103155Y-107388635D01*
X197245500Y-107044983D01*
X197245500Y-106673017D01*
X197103155Y-106329365D01*
X196840135Y-106066345D01*
X196496483Y-105924000D01*
X196124517Y-105924000D01*
X195780865Y-106066345D01*
X195517845Y-106329365D01*
X195375500Y-106673017D01*
X185005207Y-106673017D01*
X185039376Y-106658864D01*
X185302396Y-106395844D01*
X185444741Y-106052192D01*
X185444741Y-105680226D01*
X185302396Y-105336574D01*
X185039376Y-105073554D01*
X184695724Y-104931209D01*
X184323758Y-104931209D01*
X183980106Y-105073554D01*
X183717086Y-105336574D01*
X183574741Y-105680226D01*
X101892201Y-105680226D01*
X101755756Y-105623709D01*
X100846726Y-105623709D01*
X100006892Y-105971579D01*
X99364111Y-106614360D01*
X99016241Y-107454194D01*
X92386241Y-107454194D01*
X92386241Y-102363726D01*
X93437741Y-102363726D01*
X93437741Y-102735692D01*
X93580086Y-103079344D01*
X93843106Y-103342364D01*
X94186758Y-103484709D01*
X94558724Y-103484709D01*
X94902376Y-103342364D01*
X95165396Y-103079344D01*
X95307741Y-102735692D01*
X95307741Y-102366183D01*
X149644334Y-102366183D01*
X149644334Y-102738149D01*
X149786679Y-103081801D01*
X150049699Y-103344821D01*
X150393351Y-103487166D01*
X150765317Y-103487166D01*
X151108969Y-103344821D01*
X151371989Y-103081801D01*
X151450283Y-102892783D01*
X151639301Y-102814489D01*
X151902321Y-102551469D01*
X152044666Y-102207817D01*
X152044666Y-101835851D01*
X151902321Y-101492199D01*
X151639301Y-101229179D01*
X151551296Y-101192726D01*
X195136241Y-101192726D01*
X195136241Y-101564692D01*
X195278586Y-101908344D01*
X195541606Y-102171364D01*
X195885258Y-102313709D01*
X196257224Y-102313709D01*
X196600876Y-102171364D01*
X196863896Y-101908344D01*
X197006241Y-101564692D01*
X197006241Y-101192726D01*
X196863896Y-100849074D01*
X196600876Y-100586054D01*
X196257224Y-100443709D01*
X195885258Y-100443709D01*
X195541606Y-100586054D01*
X195278586Y-100849074D01*
X195136241Y-101192726D01*
X151551296Y-101192726D01*
X151295649Y-101086834D01*
X150923683Y-101086834D01*
X150580031Y-101229179D01*
X150317011Y-101492199D01*
X150238717Y-101681217D01*
X150049699Y-101759511D01*
X149786679Y-102022531D01*
X149644334Y-102366183D01*
X95307741Y-102366183D01*
X95307741Y-102363726D01*
X95165396Y-102020074D01*
X94902376Y-101757054D01*
X94558724Y-101614709D01*
X94186758Y-101614709D01*
X93843106Y-101757054D01*
X93580086Y-102020074D01*
X93437741Y-102363726D01*
X92386241Y-102363726D01*
X92386241Y-100790726D01*
X132584241Y-100790726D01*
X132584241Y-101162692D01*
X132726586Y-101506344D01*
X132989606Y-101769364D01*
X133333258Y-101911709D01*
X133705224Y-101911709D01*
X134048876Y-101769364D01*
X134311896Y-101506344D01*
X134439991Y-101197095D01*
X134568086Y-101506344D01*
X134831106Y-101769364D01*
X135174758Y-101911709D01*
X135546724Y-101911709D01*
X135890376Y-101769364D01*
X136153396Y-101506344D01*
X136295741Y-101162692D01*
X136295741Y-100790726D01*
X136153396Y-100447074D01*
X135890376Y-100184054D01*
X135546724Y-100041709D01*
X135174758Y-100041709D01*
X134831106Y-100184054D01*
X134568086Y-100447074D01*
X134439991Y-100756323D01*
X134311896Y-100447074D01*
X134048876Y-100184054D01*
X133705224Y-100041709D01*
X133333258Y-100041709D01*
X132989606Y-100184054D01*
X132726586Y-100447074D01*
X132584241Y-100790726D01*
X92386241Y-100790726D01*
X92386241Y-98723107D01*
X95616241Y-98723107D01*
X95616241Y-99234311D01*
X95811870Y-99706603D01*
X96173347Y-100068080D01*
X96645639Y-100263709D01*
X97156843Y-100263709D01*
X97629135Y-100068080D01*
X97990612Y-99706603D01*
X98186241Y-99234311D01*
X98186241Y-98723107D01*
X98020606Y-98323226D01*
X104254241Y-98323226D01*
X104254241Y-98695192D01*
X104396586Y-99038844D01*
X104659606Y-99301864D01*
X105003258Y-99444209D01*
X105375224Y-99444209D01*
X105718876Y-99301864D01*
X105981896Y-99038844D01*
X106124241Y-98695192D01*
X106124241Y-98323226D01*
X105981896Y-97979574D01*
X105718876Y-97716554D01*
X105375224Y-97574209D01*
X105003258Y-97574209D01*
X104659606Y-97716554D01*
X104396586Y-97979574D01*
X104254241Y-98323226D01*
X98020606Y-98323226D01*
X97990612Y-98250815D01*
X97629135Y-97889338D01*
X97156843Y-97693709D01*
X96645639Y-97693709D01*
X96173347Y-97889338D01*
X95811870Y-98250815D01*
X95616241Y-98723107D01*
X92386241Y-98723107D01*
X92386241Y-95338726D01*
X99428241Y-95338726D01*
X99428241Y-95710692D01*
X99570586Y-96054344D01*
X99771201Y-96254959D01*
X99570586Y-96455574D01*
X99428241Y-96799226D01*
X99428241Y-97171192D01*
X99570586Y-97514844D01*
X99833606Y-97777864D01*
X100177258Y-97920209D01*
X100549224Y-97920209D01*
X100892876Y-97777864D01*
X101155896Y-97514844D01*
X101298241Y-97171192D01*
X101298241Y-96799226D01*
X101155896Y-96455574D01*
X100955281Y-96254959D01*
X100991514Y-96218726D01*
X187638741Y-96218726D01*
X187638741Y-96590692D01*
X187781086Y-96934344D01*
X188044106Y-97197364D01*
X188387758Y-97339709D01*
X188759724Y-97339709D01*
X189103376Y-97197364D01*
X189366396Y-96934344D01*
X189508741Y-96590692D01*
X189508741Y-96218726D01*
X189366396Y-95875074D01*
X189103376Y-95612054D01*
X188759724Y-95469709D01*
X188387758Y-95469709D01*
X188044106Y-95612054D01*
X187781086Y-95875074D01*
X187638741Y-96218726D01*
X100991514Y-96218726D01*
X101155896Y-96054344D01*
X101298241Y-95710692D01*
X101298241Y-95338726D01*
X101155896Y-94995074D01*
X100892876Y-94732054D01*
X100549224Y-94589709D01*
X100177258Y-94589709D01*
X99833606Y-94732054D01*
X99570586Y-94995074D01*
X99428241Y-95338726D01*
X92386241Y-95338726D01*
X92386241Y-93814726D01*
X104571741Y-93814726D01*
X104571741Y-94186692D01*
X104714086Y-94530344D01*
X104977106Y-94793364D01*
X105320758Y-94935709D01*
X105692724Y-94935709D01*
X106036376Y-94793364D01*
X106299396Y-94530344D01*
X106441741Y-94186692D01*
X106441741Y-93814726D01*
X106299396Y-93471074D01*
X106036376Y-93208054D01*
X105692724Y-93065709D01*
X105320758Y-93065709D01*
X104977106Y-93208054D01*
X104714086Y-93471074D01*
X104571741Y-93814726D01*
X92386241Y-93814726D01*
X92386241Y-89723107D01*
X95616241Y-89723107D01*
X95616241Y-90234311D01*
X95811870Y-90706603D01*
X96173347Y-91068080D01*
X96645639Y-91263709D01*
X97156843Y-91263709D01*
X97629135Y-91068080D01*
X97990612Y-90706603D01*
X98186241Y-90234311D01*
X98186241Y-89792726D01*
X99516241Y-89792726D01*
X99516241Y-90164692D01*
X99658586Y-90508344D01*
X99661188Y-90510946D01*
X99555241Y-90766726D01*
X99555241Y-91138692D01*
X99697586Y-91482344D01*
X99960606Y-91745364D01*
X100304258Y-91887709D01*
X100676224Y-91887709D01*
X101019876Y-91745364D01*
X101282896Y-91482344D01*
X101425241Y-91138692D01*
X101425241Y-90766726D01*
X101282896Y-90423074D01*
X101280294Y-90420472D01*
X101333207Y-90292726D01*
X103916241Y-90292726D01*
X103916241Y-90664692D01*
X104046311Y-90978709D01*
X103916241Y-91292726D01*
X103916241Y-91664692D01*
X104058586Y-92008344D01*
X104321606Y-92271364D01*
X104665258Y-92413709D01*
X105037224Y-92413709D01*
X105380876Y-92271364D01*
X105643896Y-92008344D01*
X105786241Y-91664692D01*
X105786241Y-91292726D01*
X105661978Y-90992726D01*
X107016241Y-90992726D01*
X107016241Y-91364692D01*
X107158586Y-91708344D01*
X107421606Y-91971364D01*
X107765258Y-92113709D01*
X108137224Y-92113709D01*
X108480876Y-91971364D01*
X108743896Y-91708344D01*
X108886241Y-91364692D01*
X108886241Y-90992726D01*
X108743896Y-90649074D01*
X108480876Y-90386054D01*
X108137224Y-90243709D01*
X107765258Y-90243709D01*
X107421606Y-90386054D01*
X107158586Y-90649074D01*
X107016241Y-90992726D01*
X105661978Y-90992726D01*
X105656171Y-90978709D01*
X105786241Y-90664692D01*
X105786241Y-90292726D01*
X105643896Y-89949074D01*
X105380876Y-89686054D01*
X105037224Y-89543709D01*
X104665258Y-89543709D01*
X104321606Y-89686054D01*
X104058586Y-89949074D01*
X103916241Y-90292726D01*
X101333207Y-90292726D01*
X101386241Y-90164692D01*
X101386241Y-89792726D01*
X101243896Y-89449074D01*
X100980876Y-89186054D01*
X100637224Y-89043709D01*
X100265258Y-89043709D01*
X99921606Y-89186054D01*
X99658586Y-89449074D01*
X99516241Y-89792726D01*
X98186241Y-89792726D01*
X98186241Y-89723107D01*
X97990612Y-89250815D01*
X97629135Y-88889338D01*
X97156843Y-88693709D01*
X96645639Y-88693709D01*
X96173347Y-88889338D01*
X95811870Y-89250815D01*
X95616241Y-89723107D01*
X92386241Y-89723107D01*
X92386241Y-86308226D01*
X93334241Y-86308226D01*
X93334241Y-86680192D01*
X93476586Y-87023844D01*
X93739606Y-87286864D01*
X94083258Y-87429209D01*
X94455224Y-87429209D01*
X94798876Y-87286864D01*
X95061896Y-87023844D01*
X95157627Y-86792726D01*
X105516241Y-86792726D01*
X105516241Y-87164692D01*
X105658586Y-87508344D01*
X105921606Y-87771364D01*
X106180760Y-87878709D01*
X105921606Y-87986054D01*
X105658586Y-88249074D01*
X105516241Y-88592726D01*
X105516241Y-88964692D01*
X105658586Y-89308344D01*
X105921606Y-89571364D01*
X106265258Y-89713709D01*
X106637224Y-89713709D01*
X106980876Y-89571364D01*
X107243896Y-89308344D01*
X107386241Y-88964692D01*
X107386241Y-88592726D01*
X107243896Y-88249074D01*
X106980876Y-87986054D01*
X106721722Y-87878709D01*
X106980876Y-87771364D01*
X107243896Y-87508344D01*
X107386241Y-87164692D01*
X107386241Y-86792726D01*
X107243896Y-86449074D01*
X106980876Y-86186054D01*
X106637224Y-86043709D01*
X106265258Y-86043709D01*
X105921606Y-86186054D01*
X105658586Y-86449074D01*
X105516241Y-86792726D01*
X95157627Y-86792726D01*
X95204241Y-86680192D01*
X95204241Y-86308226D01*
X95061896Y-85964574D01*
X94798876Y-85701554D01*
X94455224Y-85559209D01*
X94083258Y-85559209D01*
X93739606Y-85701554D01*
X93476586Y-85964574D01*
X93334241Y-86308226D01*
X92386241Y-86308226D01*
X92386241Y-85213709D01*
X199916242Y-85213709D01*
X199916242Y-95756920D01*
G04 #@! TD*
M02*
