G04 #@! TF.GenerationSoftware,KiCad,Pcbnew,5.0.2+dfsg1-1*
G04 #@! TF.CreationDate,2019-09-17T15:01:03+01:00*
G04 #@! TF.ProjectId,HDMI_SD_expansion,48444d49-5f53-4445-9f65-7870616e7369,rev?*
G04 #@! TF.SameCoordinates,Original*
G04 #@! TF.FileFunction,Soldermask,Bot*
G04 #@! TF.FilePolarity,Negative*
%FSLAX46Y46*%
G04 Gerber Fmt 4.6, Leading zero omitted, Abs format (unit mm)*
G04 Created by KiCad (PCBNEW 5.0.2+dfsg1-1) date Tue 17 Sep 2019 15:01:03 BST*
%MOMM*%
%LPD*%
G01*
G04 APERTURE LIST*
%ADD10C,0.100000*%
G04 APERTURE END LIST*
D10*
G36*
X101797401Y-119413077D02*
X101797403Y-119413078D01*
X101797404Y-119413078D01*
X101911755Y-119460444D01*
X102106967Y-119541303D01*
X102385568Y-119727458D01*
X102622492Y-119964382D01*
X102808647Y-120242983D01*
X102936873Y-120552549D01*
X103002241Y-120881174D01*
X103002241Y-121216244D01*
X102936873Y-121544869D01*
X102808647Y-121854435D01*
X102622492Y-122133036D01*
X102385568Y-122369960D01*
X102106967Y-122556115D01*
X101911755Y-122636974D01*
X101797404Y-122684340D01*
X101797403Y-122684340D01*
X101797401Y-122684341D01*
X101468776Y-122749709D01*
X101133706Y-122749709D01*
X100805081Y-122684341D01*
X100805079Y-122684340D01*
X100805078Y-122684340D01*
X100690727Y-122636974D01*
X100495515Y-122556115D01*
X100216914Y-122369960D01*
X99979990Y-122133036D01*
X99793835Y-121854435D01*
X99665609Y-121544869D01*
X99600241Y-121216244D01*
X99600241Y-120881174D01*
X99665609Y-120552549D01*
X99793835Y-120242983D01*
X99979990Y-119964382D01*
X100216914Y-119727458D01*
X100495515Y-119541303D01*
X100690727Y-119460444D01*
X100805078Y-119413078D01*
X100805079Y-119413078D01*
X100805081Y-119413077D01*
X101133706Y-119347709D01*
X101468776Y-119347709D01*
X101797401Y-119413077D01*
X101797401Y-119413077D01*
G37*
G36*
X150957806Y-119708098D02*
X151149075Y-119787324D01*
X151321217Y-119902346D01*
X151467604Y-120048733D01*
X151582626Y-120220875D01*
X151661852Y-120412144D01*
X151702241Y-120615193D01*
X151702241Y-120822225D01*
X151661852Y-121025274D01*
X151582626Y-121216543D01*
X151467604Y-121388685D01*
X151321217Y-121535072D01*
X151149075Y-121650094D01*
X150957806Y-121729320D01*
X150754757Y-121769709D01*
X150547725Y-121769709D01*
X150344676Y-121729320D01*
X150153407Y-121650094D01*
X149981265Y-121535072D01*
X149834878Y-121388685D01*
X149719856Y-121216543D01*
X149640630Y-121025274D01*
X149600241Y-120822225D01*
X149600241Y-120615193D01*
X149640630Y-120412144D01*
X149719856Y-120220875D01*
X149834878Y-120048733D01*
X149981265Y-119902346D01*
X150153407Y-119787324D01*
X150344676Y-119708098D01*
X150547725Y-119667709D01*
X150754757Y-119667709D01*
X150957806Y-119708098D01*
X150957806Y-119708098D01*
G37*
G36*
X140657806Y-119708098D02*
X140849075Y-119787324D01*
X141021217Y-119902346D01*
X141167604Y-120048733D01*
X141282626Y-120220875D01*
X141361852Y-120412144D01*
X141402241Y-120615193D01*
X141402241Y-120822225D01*
X141361852Y-121025274D01*
X141282626Y-121216543D01*
X141167604Y-121388685D01*
X141021217Y-121535072D01*
X140849075Y-121650094D01*
X140657806Y-121729320D01*
X140454757Y-121769709D01*
X140247725Y-121769709D01*
X140044676Y-121729320D01*
X139853407Y-121650094D01*
X139681265Y-121535072D01*
X139534878Y-121388685D01*
X139419856Y-121216543D01*
X139340630Y-121025274D01*
X139300241Y-120822225D01*
X139300241Y-120615193D01*
X139340630Y-120412144D01*
X139419856Y-120220875D01*
X139534878Y-120048733D01*
X139681265Y-119902346D01*
X139853407Y-119787324D01*
X140044676Y-119708098D01*
X140247725Y-119667709D01*
X140454757Y-119667709D01*
X140657806Y-119708098D01*
X140657806Y-119708098D01*
G37*
G36*
X138117806Y-119708098D02*
X138309075Y-119787324D01*
X138481217Y-119902346D01*
X138627604Y-120048733D01*
X138742626Y-120220875D01*
X138821852Y-120412144D01*
X138862241Y-120615193D01*
X138862241Y-120822225D01*
X138821852Y-121025274D01*
X138742626Y-121216543D01*
X138627604Y-121388685D01*
X138481217Y-121535072D01*
X138309075Y-121650094D01*
X138117806Y-121729320D01*
X137914757Y-121769709D01*
X137707725Y-121769709D01*
X137504676Y-121729320D01*
X137313407Y-121650094D01*
X137141265Y-121535072D01*
X136994878Y-121388685D01*
X136879856Y-121216543D01*
X136800630Y-121025274D01*
X136760241Y-120822225D01*
X136760241Y-120615193D01*
X136800630Y-120412144D01*
X136879856Y-120220875D01*
X136994878Y-120048733D01*
X137141265Y-119902346D01*
X137313407Y-119787324D01*
X137504676Y-119708098D01*
X137707725Y-119667709D01*
X137914757Y-119667709D01*
X138117806Y-119708098D01*
X138117806Y-119708098D01*
G37*
G36*
X135577806Y-119708098D02*
X135769075Y-119787324D01*
X135941217Y-119902346D01*
X136087604Y-120048733D01*
X136202626Y-120220875D01*
X136281852Y-120412144D01*
X136322241Y-120615193D01*
X136322241Y-120822225D01*
X136281852Y-121025274D01*
X136202626Y-121216543D01*
X136087604Y-121388685D01*
X135941217Y-121535072D01*
X135769075Y-121650094D01*
X135577806Y-121729320D01*
X135374757Y-121769709D01*
X135167725Y-121769709D01*
X134964676Y-121729320D01*
X134773407Y-121650094D01*
X134601265Y-121535072D01*
X134454878Y-121388685D01*
X134339856Y-121216543D01*
X134260630Y-121025274D01*
X134220241Y-120822225D01*
X134220241Y-120615193D01*
X134260630Y-120412144D01*
X134339856Y-120220875D01*
X134454878Y-120048733D01*
X134601265Y-119902346D01*
X134773407Y-119787324D01*
X134964676Y-119708098D01*
X135167725Y-119667709D01*
X135374757Y-119667709D01*
X135577806Y-119708098D01*
X135577806Y-119708098D01*
G37*
G36*
X133037806Y-119708098D02*
X133229075Y-119787324D01*
X133401217Y-119902346D01*
X133547604Y-120048733D01*
X133662626Y-120220875D01*
X133741852Y-120412144D01*
X133782241Y-120615193D01*
X133782241Y-120822225D01*
X133741852Y-121025274D01*
X133662626Y-121216543D01*
X133547604Y-121388685D01*
X133401217Y-121535072D01*
X133229075Y-121650094D01*
X133037806Y-121729320D01*
X132834757Y-121769709D01*
X132627725Y-121769709D01*
X132424676Y-121729320D01*
X132233407Y-121650094D01*
X132061265Y-121535072D01*
X131914878Y-121388685D01*
X131799856Y-121216543D01*
X131720630Y-121025274D01*
X131680241Y-120822225D01*
X131680241Y-120615193D01*
X131720630Y-120412144D01*
X131799856Y-120220875D01*
X131914878Y-120048733D01*
X132061265Y-119902346D01*
X132233407Y-119787324D01*
X132424676Y-119708098D01*
X132627725Y-119667709D01*
X132834757Y-119667709D01*
X133037806Y-119708098D01*
X133037806Y-119708098D01*
G37*
G36*
X130497806Y-119708098D02*
X130689075Y-119787324D01*
X130861217Y-119902346D01*
X131007604Y-120048733D01*
X131122626Y-120220875D01*
X131201852Y-120412144D01*
X131242241Y-120615193D01*
X131242241Y-120822225D01*
X131201852Y-121025274D01*
X131122626Y-121216543D01*
X131007604Y-121388685D01*
X130861217Y-121535072D01*
X130689075Y-121650094D01*
X130497806Y-121729320D01*
X130294757Y-121769709D01*
X130087725Y-121769709D01*
X129884676Y-121729320D01*
X129693407Y-121650094D01*
X129521265Y-121535072D01*
X129374878Y-121388685D01*
X129259856Y-121216543D01*
X129180630Y-121025274D01*
X129140241Y-120822225D01*
X129140241Y-120615193D01*
X129180630Y-120412144D01*
X129259856Y-120220875D01*
X129374878Y-120048733D01*
X129521265Y-119902346D01*
X129693407Y-119787324D01*
X129884676Y-119708098D01*
X130087725Y-119667709D01*
X130294757Y-119667709D01*
X130497806Y-119708098D01*
X130497806Y-119708098D01*
G37*
G36*
X127957806Y-119708098D02*
X128149075Y-119787324D01*
X128321217Y-119902346D01*
X128467604Y-120048733D01*
X128582626Y-120220875D01*
X128661852Y-120412144D01*
X128702241Y-120615193D01*
X128702241Y-120822225D01*
X128661852Y-121025274D01*
X128582626Y-121216543D01*
X128467604Y-121388685D01*
X128321217Y-121535072D01*
X128149075Y-121650094D01*
X127957806Y-121729320D01*
X127754757Y-121769709D01*
X127547725Y-121769709D01*
X127344676Y-121729320D01*
X127153407Y-121650094D01*
X126981265Y-121535072D01*
X126834878Y-121388685D01*
X126719856Y-121216543D01*
X126640630Y-121025274D01*
X126600241Y-120822225D01*
X126600241Y-120615193D01*
X126640630Y-120412144D01*
X126719856Y-120220875D01*
X126834878Y-120048733D01*
X126981265Y-119902346D01*
X127153407Y-119787324D01*
X127344676Y-119708098D01*
X127547725Y-119667709D01*
X127754757Y-119667709D01*
X127957806Y-119708098D01*
X127957806Y-119708098D01*
G37*
G36*
X184117806Y-119708098D02*
X184309075Y-119787324D01*
X184481217Y-119902346D01*
X184627604Y-120048733D01*
X184742626Y-120220875D01*
X184821852Y-120412144D01*
X184862241Y-120615193D01*
X184862241Y-120822225D01*
X184821852Y-121025274D01*
X184742626Y-121216543D01*
X184627604Y-121388685D01*
X184481217Y-121535072D01*
X184309075Y-121650094D01*
X184117806Y-121729320D01*
X183914757Y-121769709D01*
X183707725Y-121769709D01*
X183504676Y-121729320D01*
X183313407Y-121650094D01*
X183141265Y-121535072D01*
X182994878Y-121388685D01*
X182879856Y-121216543D01*
X182800630Y-121025274D01*
X182760241Y-120822225D01*
X182760241Y-120615193D01*
X182800630Y-120412144D01*
X182879856Y-120220875D01*
X182994878Y-120048733D01*
X183141265Y-119902346D01*
X183313407Y-119787324D01*
X183504676Y-119708098D01*
X183707725Y-119667709D01*
X183914757Y-119667709D01*
X184117806Y-119708098D01*
X184117806Y-119708098D01*
G37*
G36*
X181577806Y-119708098D02*
X181769075Y-119787324D01*
X181941217Y-119902346D01*
X182087604Y-120048733D01*
X182202626Y-120220875D01*
X182281852Y-120412144D01*
X182322241Y-120615193D01*
X182322241Y-120822225D01*
X182281852Y-121025274D01*
X182202626Y-121216543D01*
X182087604Y-121388685D01*
X181941217Y-121535072D01*
X181769075Y-121650094D01*
X181577806Y-121729320D01*
X181374757Y-121769709D01*
X181167725Y-121769709D01*
X180964676Y-121729320D01*
X180773407Y-121650094D01*
X180601265Y-121535072D01*
X180454878Y-121388685D01*
X180339856Y-121216543D01*
X180260630Y-121025274D01*
X180220241Y-120822225D01*
X180220241Y-120615193D01*
X180260630Y-120412144D01*
X180339856Y-120220875D01*
X180454878Y-120048733D01*
X180601265Y-119902346D01*
X180773407Y-119787324D01*
X180964676Y-119708098D01*
X181167725Y-119667709D01*
X181374757Y-119667709D01*
X181577806Y-119708098D01*
X181577806Y-119708098D01*
G37*
G36*
X176497806Y-119708098D02*
X176689075Y-119787324D01*
X176861217Y-119902346D01*
X177007604Y-120048733D01*
X177122626Y-120220875D01*
X177201852Y-120412144D01*
X177242241Y-120615193D01*
X177242241Y-120822225D01*
X177201852Y-121025274D01*
X177122626Y-121216543D01*
X177007604Y-121388685D01*
X176861217Y-121535072D01*
X176689075Y-121650094D01*
X176497806Y-121729320D01*
X176294757Y-121769709D01*
X176087725Y-121769709D01*
X175884676Y-121729320D01*
X175693407Y-121650094D01*
X175521265Y-121535072D01*
X175374878Y-121388685D01*
X175259856Y-121216543D01*
X175180630Y-121025274D01*
X175140241Y-120822225D01*
X175140241Y-120615193D01*
X175180630Y-120412144D01*
X175259856Y-120220875D01*
X175374878Y-120048733D01*
X175521265Y-119902346D01*
X175693407Y-119787324D01*
X175884676Y-119708098D01*
X176087725Y-119667709D01*
X176294757Y-119667709D01*
X176497806Y-119708098D01*
X176497806Y-119708098D01*
G37*
G36*
X173957806Y-119708098D02*
X174149075Y-119787324D01*
X174321217Y-119902346D01*
X174467604Y-120048733D01*
X174582626Y-120220875D01*
X174661852Y-120412144D01*
X174702241Y-120615193D01*
X174702241Y-120822225D01*
X174661852Y-121025274D01*
X174582626Y-121216543D01*
X174467604Y-121388685D01*
X174321217Y-121535072D01*
X174149075Y-121650094D01*
X173957806Y-121729320D01*
X173754757Y-121769709D01*
X173547725Y-121769709D01*
X173344676Y-121729320D01*
X173153407Y-121650094D01*
X172981265Y-121535072D01*
X172834878Y-121388685D01*
X172719856Y-121216543D01*
X172640630Y-121025274D01*
X172600241Y-120822225D01*
X172600241Y-120615193D01*
X172640630Y-120412144D01*
X172719856Y-120220875D01*
X172834878Y-120048733D01*
X172981265Y-119902346D01*
X173153407Y-119787324D01*
X173344676Y-119708098D01*
X173547725Y-119667709D01*
X173754757Y-119667709D01*
X173957806Y-119708098D01*
X173957806Y-119708098D01*
G37*
G36*
X163657806Y-119708098D02*
X163849075Y-119787324D01*
X164021217Y-119902346D01*
X164167604Y-120048733D01*
X164282626Y-120220875D01*
X164361852Y-120412144D01*
X164402241Y-120615193D01*
X164402241Y-120822225D01*
X164361852Y-121025274D01*
X164282626Y-121216543D01*
X164167604Y-121388685D01*
X164021217Y-121535072D01*
X163849075Y-121650094D01*
X163657806Y-121729320D01*
X163454757Y-121769709D01*
X163247725Y-121769709D01*
X163044676Y-121729320D01*
X162853407Y-121650094D01*
X162681265Y-121535072D01*
X162534878Y-121388685D01*
X162419856Y-121216543D01*
X162340630Y-121025274D01*
X162300241Y-120822225D01*
X162300241Y-120615193D01*
X162340630Y-120412144D01*
X162419856Y-120220875D01*
X162534878Y-120048733D01*
X162681265Y-119902346D01*
X162853407Y-119787324D01*
X163044676Y-119708098D01*
X163247725Y-119667709D01*
X163454757Y-119667709D01*
X163657806Y-119708098D01*
X163657806Y-119708098D01*
G37*
G36*
X161117806Y-119708098D02*
X161309075Y-119787324D01*
X161481217Y-119902346D01*
X161627604Y-120048733D01*
X161742626Y-120220875D01*
X161821852Y-120412144D01*
X161862241Y-120615193D01*
X161862241Y-120822225D01*
X161821852Y-121025274D01*
X161742626Y-121216543D01*
X161627604Y-121388685D01*
X161481217Y-121535072D01*
X161309075Y-121650094D01*
X161117806Y-121729320D01*
X160914757Y-121769709D01*
X160707725Y-121769709D01*
X160504676Y-121729320D01*
X160313407Y-121650094D01*
X160141265Y-121535072D01*
X159994878Y-121388685D01*
X159879856Y-121216543D01*
X159800630Y-121025274D01*
X159760241Y-120822225D01*
X159760241Y-120615193D01*
X159800630Y-120412144D01*
X159879856Y-120220875D01*
X159994878Y-120048733D01*
X160141265Y-119902346D01*
X160313407Y-119787324D01*
X160504676Y-119708098D01*
X160707725Y-119667709D01*
X160914757Y-119667709D01*
X161117806Y-119708098D01*
X161117806Y-119708098D01*
G37*
G36*
X158577806Y-119708098D02*
X158769075Y-119787324D01*
X158941217Y-119902346D01*
X159087604Y-120048733D01*
X159202626Y-120220875D01*
X159281852Y-120412144D01*
X159322241Y-120615193D01*
X159322241Y-120822225D01*
X159281852Y-121025274D01*
X159202626Y-121216543D01*
X159087604Y-121388685D01*
X158941217Y-121535072D01*
X158769075Y-121650094D01*
X158577806Y-121729320D01*
X158374757Y-121769709D01*
X158167725Y-121769709D01*
X157964676Y-121729320D01*
X157773407Y-121650094D01*
X157601265Y-121535072D01*
X157454878Y-121388685D01*
X157339856Y-121216543D01*
X157260630Y-121025274D01*
X157220241Y-120822225D01*
X157220241Y-120615193D01*
X157260630Y-120412144D01*
X157339856Y-120220875D01*
X157454878Y-120048733D01*
X157601265Y-119902346D01*
X157773407Y-119787324D01*
X157964676Y-119708098D01*
X158167725Y-119667709D01*
X158374757Y-119667709D01*
X158577806Y-119708098D01*
X158577806Y-119708098D01*
G37*
G36*
X156037806Y-119708098D02*
X156229075Y-119787324D01*
X156401217Y-119902346D01*
X156547604Y-120048733D01*
X156662626Y-120220875D01*
X156741852Y-120412144D01*
X156782241Y-120615193D01*
X156782241Y-120822225D01*
X156741852Y-121025274D01*
X156662626Y-121216543D01*
X156547604Y-121388685D01*
X156401217Y-121535072D01*
X156229075Y-121650094D01*
X156037806Y-121729320D01*
X155834757Y-121769709D01*
X155627725Y-121769709D01*
X155424676Y-121729320D01*
X155233407Y-121650094D01*
X155061265Y-121535072D01*
X154914878Y-121388685D01*
X154799856Y-121216543D01*
X154720630Y-121025274D01*
X154680241Y-120822225D01*
X154680241Y-120615193D01*
X154720630Y-120412144D01*
X154799856Y-120220875D01*
X154914878Y-120048733D01*
X155061265Y-119902346D01*
X155233407Y-119787324D01*
X155424676Y-119708098D01*
X155627725Y-119667709D01*
X155834757Y-119667709D01*
X156037806Y-119708098D01*
X156037806Y-119708098D01*
G37*
G36*
X153497806Y-119708098D02*
X153689075Y-119787324D01*
X153861217Y-119902346D01*
X154007604Y-120048733D01*
X154122626Y-120220875D01*
X154201852Y-120412144D01*
X154242241Y-120615193D01*
X154242241Y-120822225D01*
X154201852Y-121025274D01*
X154122626Y-121216543D01*
X154007604Y-121388685D01*
X153861217Y-121535072D01*
X153689075Y-121650094D01*
X153497806Y-121729320D01*
X153294757Y-121769709D01*
X153087725Y-121769709D01*
X152884676Y-121729320D01*
X152693407Y-121650094D01*
X152521265Y-121535072D01*
X152374878Y-121388685D01*
X152259856Y-121216543D01*
X152180630Y-121025274D01*
X152140241Y-120822225D01*
X152140241Y-120615193D01*
X152180630Y-120412144D01*
X152259856Y-120220875D01*
X152374878Y-120048733D01*
X152521265Y-119902346D01*
X152693407Y-119787324D01*
X152884676Y-119708098D01*
X153087725Y-119667709D01*
X153294757Y-119667709D01*
X153497806Y-119708098D01*
X153497806Y-119708098D01*
G37*
G36*
X186657806Y-119708098D02*
X186849075Y-119787324D01*
X187021217Y-119902346D01*
X187167604Y-120048733D01*
X187282626Y-120220875D01*
X187361852Y-120412144D01*
X187402241Y-120615193D01*
X187402241Y-120822225D01*
X187361852Y-121025274D01*
X187282626Y-121216543D01*
X187167604Y-121388685D01*
X187021217Y-121535072D01*
X186849075Y-121650094D01*
X186657806Y-121729320D01*
X186454757Y-121769709D01*
X186247725Y-121769709D01*
X186044676Y-121729320D01*
X185853407Y-121650094D01*
X185681265Y-121535072D01*
X185534878Y-121388685D01*
X185419856Y-121216543D01*
X185340630Y-121025274D01*
X185300241Y-120822225D01*
X185300241Y-120615193D01*
X185340630Y-120412144D01*
X185419856Y-120220875D01*
X185534878Y-120048733D01*
X185681265Y-119902346D01*
X185853407Y-119787324D01*
X186044676Y-119708098D01*
X186247725Y-119667709D01*
X186454757Y-119667709D01*
X186657806Y-119708098D01*
X186657806Y-119708098D01*
G37*
G36*
X179037806Y-119708098D02*
X179229075Y-119787324D01*
X179401217Y-119902346D01*
X179547604Y-120048733D01*
X179662626Y-120220875D01*
X179741852Y-120412144D01*
X179782241Y-120615193D01*
X179782241Y-120822225D01*
X179741852Y-121025274D01*
X179662626Y-121216543D01*
X179547604Y-121388685D01*
X179401217Y-121535072D01*
X179229075Y-121650094D01*
X179037806Y-121729320D01*
X178834757Y-121769709D01*
X178627725Y-121769709D01*
X178424676Y-121729320D01*
X178233407Y-121650094D01*
X178061265Y-121535072D01*
X177914878Y-121388685D01*
X177799856Y-121216543D01*
X177720630Y-121025274D01*
X177680241Y-120822225D01*
X177680241Y-120615193D01*
X177720630Y-120412144D01*
X177799856Y-120220875D01*
X177914878Y-120048733D01*
X178061265Y-119902346D01*
X178233407Y-119787324D01*
X178424676Y-119708098D01*
X178627725Y-119667709D01*
X178834757Y-119667709D01*
X179037806Y-119708098D01*
X179037806Y-119708098D01*
G37*
G36*
X133037806Y-117168098D02*
X133229075Y-117247324D01*
X133401217Y-117362346D01*
X133547604Y-117508733D01*
X133662626Y-117680875D01*
X133741852Y-117872144D01*
X133782241Y-118075193D01*
X133782241Y-118282225D01*
X133741852Y-118485274D01*
X133662626Y-118676543D01*
X133547604Y-118848685D01*
X133401217Y-118995072D01*
X133229075Y-119110094D01*
X133037806Y-119189320D01*
X132834757Y-119229709D01*
X132627725Y-119229709D01*
X132424676Y-119189320D01*
X132233407Y-119110094D01*
X132061265Y-118995072D01*
X131914878Y-118848685D01*
X131799856Y-118676543D01*
X131720630Y-118485274D01*
X131680241Y-118282225D01*
X131680241Y-118075193D01*
X131720630Y-117872144D01*
X131799856Y-117680875D01*
X131914878Y-117508733D01*
X132061265Y-117362346D01*
X132233407Y-117247324D01*
X132424676Y-117168098D01*
X132627725Y-117127709D01*
X132834757Y-117127709D01*
X133037806Y-117168098D01*
X133037806Y-117168098D01*
G37*
G36*
X130497806Y-117168098D02*
X130689075Y-117247324D01*
X130861217Y-117362346D01*
X131007604Y-117508733D01*
X131122626Y-117680875D01*
X131201852Y-117872144D01*
X131242241Y-118075193D01*
X131242241Y-118282225D01*
X131201852Y-118485274D01*
X131122626Y-118676543D01*
X131007604Y-118848685D01*
X130861217Y-118995072D01*
X130689075Y-119110094D01*
X130497806Y-119189320D01*
X130294757Y-119229709D01*
X130087725Y-119229709D01*
X129884676Y-119189320D01*
X129693407Y-119110094D01*
X129521265Y-118995072D01*
X129374878Y-118848685D01*
X129259856Y-118676543D01*
X129180630Y-118485274D01*
X129140241Y-118282225D01*
X129140241Y-118075193D01*
X129180630Y-117872144D01*
X129259856Y-117680875D01*
X129374878Y-117508733D01*
X129521265Y-117362346D01*
X129693407Y-117247324D01*
X129884676Y-117168098D01*
X130087725Y-117127709D01*
X130294757Y-117127709D01*
X130497806Y-117168098D01*
X130497806Y-117168098D01*
G37*
G36*
X127957806Y-117168098D02*
X128149075Y-117247324D01*
X128321217Y-117362346D01*
X128467604Y-117508733D01*
X128582626Y-117680875D01*
X128661852Y-117872144D01*
X128702241Y-118075193D01*
X128702241Y-118282225D01*
X128661852Y-118485274D01*
X128582626Y-118676543D01*
X128467604Y-118848685D01*
X128321217Y-118995072D01*
X128149075Y-119110094D01*
X127957806Y-119189320D01*
X127754757Y-119229709D01*
X127547725Y-119229709D01*
X127344676Y-119189320D01*
X127153407Y-119110094D01*
X126981265Y-118995072D01*
X126834878Y-118848685D01*
X126719856Y-118676543D01*
X126640630Y-118485274D01*
X126600241Y-118282225D01*
X126600241Y-118075193D01*
X126640630Y-117872144D01*
X126719856Y-117680875D01*
X126834878Y-117508733D01*
X126981265Y-117362346D01*
X127153407Y-117247324D01*
X127344676Y-117168098D01*
X127547725Y-117127709D01*
X127754757Y-117127709D01*
X127957806Y-117168098D01*
X127957806Y-117168098D01*
G37*
G36*
X156037806Y-117168098D02*
X156229075Y-117247324D01*
X156401217Y-117362346D01*
X156547604Y-117508733D01*
X156662626Y-117680875D01*
X156741852Y-117872144D01*
X156782241Y-118075193D01*
X156782241Y-118282225D01*
X156741852Y-118485274D01*
X156662626Y-118676543D01*
X156547604Y-118848685D01*
X156401217Y-118995072D01*
X156229075Y-119110094D01*
X156037806Y-119189320D01*
X155834757Y-119229709D01*
X155627725Y-119229709D01*
X155424676Y-119189320D01*
X155233407Y-119110094D01*
X155061265Y-118995072D01*
X154914878Y-118848685D01*
X154799856Y-118676543D01*
X154720630Y-118485274D01*
X154680241Y-118282225D01*
X154680241Y-118075193D01*
X154720630Y-117872144D01*
X154799856Y-117680875D01*
X154914878Y-117508733D01*
X155061265Y-117362346D01*
X155233407Y-117247324D01*
X155424676Y-117168098D01*
X155627725Y-117127709D01*
X155834757Y-117127709D01*
X156037806Y-117168098D01*
X156037806Y-117168098D01*
G37*
G36*
X163657806Y-117168098D02*
X163849075Y-117247324D01*
X164021217Y-117362346D01*
X164167604Y-117508733D01*
X164282626Y-117680875D01*
X164361852Y-117872144D01*
X164402241Y-118075193D01*
X164402241Y-118282225D01*
X164361852Y-118485274D01*
X164282626Y-118676543D01*
X164167604Y-118848685D01*
X164021217Y-118995072D01*
X163849075Y-119110094D01*
X163657806Y-119189320D01*
X163454757Y-119229709D01*
X163247725Y-119229709D01*
X163044676Y-119189320D01*
X162853407Y-119110094D01*
X162681265Y-118995072D01*
X162534878Y-118848685D01*
X162419856Y-118676543D01*
X162340630Y-118485274D01*
X162300241Y-118282225D01*
X162300241Y-118075193D01*
X162340630Y-117872144D01*
X162419856Y-117680875D01*
X162534878Y-117508733D01*
X162681265Y-117362346D01*
X162853407Y-117247324D01*
X163044676Y-117168098D01*
X163247725Y-117127709D01*
X163454757Y-117127709D01*
X163657806Y-117168098D01*
X163657806Y-117168098D01*
G37*
G36*
X161117806Y-117168098D02*
X161309075Y-117247324D01*
X161481217Y-117362346D01*
X161627604Y-117508733D01*
X161742626Y-117680875D01*
X161821852Y-117872144D01*
X161862241Y-118075193D01*
X161862241Y-118282225D01*
X161821852Y-118485274D01*
X161742626Y-118676543D01*
X161627604Y-118848685D01*
X161481217Y-118995072D01*
X161309075Y-119110094D01*
X161117806Y-119189320D01*
X160914757Y-119229709D01*
X160707725Y-119229709D01*
X160504676Y-119189320D01*
X160313407Y-119110094D01*
X160141265Y-118995072D01*
X159994878Y-118848685D01*
X159879856Y-118676543D01*
X159800630Y-118485274D01*
X159760241Y-118282225D01*
X159760241Y-118075193D01*
X159800630Y-117872144D01*
X159879856Y-117680875D01*
X159994878Y-117508733D01*
X160141265Y-117362346D01*
X160313407Y-117247324D01*
X160504676Y-117168098D01*
X160707725Y-117127709D01*
X160914757Y-117127709D01*
X161117806Y-117168098D01*
X161117806Y-117168098D01*
G37*
G36*
X158577806Y-117168098D02*
X158769075Y-117247324D01*
X158941217Y-117362346D01*
X159087604Y-117508733D01*
X159202626Y-117680875D01*
X159281852Y-117872144D01*
X159322241Y-118075193D01*
X159322241Y-118282225D01*
X159281852Y-118485274D01*
X159202626Y-118676543D01*
X159087604Y-118848685D01*
X158941217Y-118995072D01*
X158769075Y-119110094D01*
X158577806Y-119189320D01*
X158374757Y-119229709D01*
X158167725Y-119229709D01*
X157964676Y-119189320D01*
X157773407Y-119110094D01*
X157601265Y-118995072D01*
X157454878Y-118848685D01*
X157339856Y-118676543D01*
X157260630Y-118485274D01*
X157220241Y-118282225D01*
X157220241Y-118075193D01*
X157260630Y-117872144D01*
X157339856Y-117680875D01*
X157454878Y-117508733D01*
X157601265Y-117362346D01*
X157773407Y-117247324D01*
X157964676Y-117168098D01*
X158167725Y-117127709D01*
X158374757Y-117127709D01*
X158577806Y-117168098D01*
X158577806Y-117168098D01*
G37*
G36*
X179037806Y-117168098D02*
X179229075Y-117247324D01*
X179401217Y-117362346D01*
X179547604Y-117508733D01*
X179662626Y-117680875D01*
X179741852Y-117872144D01*
X179782241Y-118075193D01*
X179782241Y-118282225D01*
X179741852Y-118485274D01*
X179662626Y-118676543D01*
X179547604Y-118848685D01*
X179401217Y-118995072D01*
X179229075Y-119110094D01*
X179037806Y-119189320D01*
X178834757Y-119229709D01*
X178627725Y-119229709D01*
X178424676Y-119189320D01*
X178233407Y-119110094D01*
X178061265Y-118995072D01*
X177914878Y-118848685D01*
X177799856Y-118676543D01*
X177720630Y-118485274D01*
X177680241Y-118282225D01*
X177680241Y-118075193D01*
X177720630Y-117872144D01*
X177799856Y-117680875D01*
X177914878Y-117508733D01*
X178061265Y-117362346D01*
X178233407Y-117247324D01*
X178424676Y-117168098D01*
X178627725Y-117127709D01*
X178834757Y-117127709D01*
X179037806Y-117168098D01*
X179037806Y-117168098D01*
G37*
G36*
X153497806Y-117168098D02*
X153689075Y-117247324D01*
X153861217Y-117362346D01*
X154007604Y-117508733D01*
X154122626Y-117680875D01*
X154201852Y-117872144D01*
X154242241Y-118075193D01*
X154242241Y-118282225D01*
X154201852Y-118485274D01*
X154122626Y-118676543D01*
X154007604Y-118848685D01*
X153861217Y-118995072D01*
X153689075Y-119110094D01*
X153497806Y-119189320D01*
X153294757Y-119229709D01*
X153087725Y-119229709D01*
X152884676Y-119189320D01*
X152693407Y-119110094D01*
X152521265Y-118995072D01*
X152374878Y-118848685D01*
X152259856Y-118676543D01*
X152180630Y-118485274D01*
X152140241Y-118282225D01*
X152140241Y-118075193D01*
X152180630Y-117872144D01*
X152259856Y-117680875D01*
X152374878Y-117508733D01*
X152521265Y-117362346D01*
X152693407Y-117247324D01*
X152884676Y-117168098D01*
X153087725Y-117127709D01*
X153294757Y-117127709D01*
X153497806Y-117168098D01*
X153497806Y-117168098D01*
G37*
G36*
X135577806Y-117168098D02*
X135769075Y-117247324D01*
X135941217Y-117362346D01*
X136087604Y-117508733D01*
X136202626Y-117680875D01*
X136281852Y-117872144D01*
X136322241Y-118075193D01*
X136322241Y-118282225D01*
X136281852Y-118485274D01*
X136202626Y-118676543D01*
X136087604Y-118848685D01*
X135941217Y-118995072D01*
X135769075Y-119110094D01*
X135577806Y-119189320D01*
X135374757Y-119229709D01*
X135167725Y-119229709D01*
X134964676Y-119189320D01*
X134773407Y-119110094D01*
X134601265Y-118995072D01*
X134454878Y-118848685D01*
X134339856Y-118676543D01*
X134260630Y-118485274D01*
X134220241Y-118282225D01*
X134220241Y-118075193D01*
X134260630Y-117872144D01*
X134339856Y-117680875D01*
X134454878Y-117508733D01*
X134601265Y-117362346D01*
X134773407Y-117247324D01*
X134964676Y-117168098D01*
X135167725Y-117127709D01*
X135374757Y-117127709D01*
X135577806Y-117168098D01*
X135577806Y-117168098D01*
G37*
G36*
X138117806Y-117168098D02*
X138309075Y-117247324D01*
X138481217Y-117362346D01*
X138627604Y-117508733D01*
X138742626Y-117680875D01*
X138821852Y-117872144D01*
X138862241Y-118075193D01*
X138862241Y-118282225D01*
X138821852Y-118485274D01*
X138742626Y-118676543D01*
X138627604Y-118848685D01*
X138481217Y-118995072D01*
X138309075Y-119110094D01*
X138117806Y-119189320D01*
X137914757Y-119229709D01*
X137707725Y-119229709D01*
X137504676Y-119189320D01*
X137313407Y-119110094D01*
X137141265Y-118995072D01*
X136994878Y-118848685D01*
X136879856Y-118676543D01*
X136800630Y-118485274D01*
X136760241Y-118282225D01*
X136760241Y-118075193D01*
X136800630Y-117872144D01*
X136879856Y-117680875D01*
X136994878Y-117508733D01*
X137141265Y-117362346D01*
X137313407Y-117247324D01*
X137504676Y-117168098D01*
X137707725Y-117127709D01*
X137914757Y-117127709D01*
X138117806Y-117168098D01*
X138117806Y-117168098D01*
G37*
G36*
X140657806Y-117168098D02*
X140849075Y-117247324D01*
X141021217Y-117362346D01*
X141167604Y-117508733D01*
X141282626Y-117680875D01*
X141361852Y-117872144D01*
X141402241Y-118075193D01*
X141402241Y-118282225D01*
X141361852Y-118485274D01*
X141282626Y-118676543D01*
X141167604Y-118848685D01*
X141021217Y-118995072D01*
X140849075Y-119110094D01*
X140657806Y-119189320D01*
X140454757Y-119229709D01*
X140247725Y-119229709D01*
X140044676Y-119189320D01*
X139853407Y-119110094D01*
X139681265Y-118995072D01*
X139534878Y-118848685D01*
X139419856Y-118676543D01*
X139340630Y-118485274D01*
X139300241Y-118282225D01*
X139300241Y-118075193D01*
X139340630Y-117872144D01*
X139419856Y-117680875D01*
X139534878Y-117508733D01*
X139681265Y-117362346D01*
X139853407Y-117247324D01*
X140044676Y-117168098D01*
X140247725Y-117127709D01*
X140454757Y-117127709D01*
X140657806Y-117168098D01*
X140657806Y-117168098D01*
G37*
G36*
X173957806Y-117168098D02*
X174149075Y-117247324D01*
X174321217Y-117362346D01*
X174467604Y-117508733D01*
X174582626Y-117680875D01*
X174661852Y-117872144D01*
X174702241Y-118075193D01*
X174702241Y-118282225D01*
X174661852Y-118485274D01*
X174582626Y-118676543D01*
X174467604Y-118848685D01*
X174321217Y-118995072D01*
X174149075Y-119110094D01*
X173957806Y-119189320D01*
X173754757Y-119229709D01*
X173547725Y-119229709D01*
X173344676Y-119189320D01*
X173153407Y-119110094D01*
X172981265Y-118995072D01*
X172834878Y-118848685D01*
X172719856Y-118676543D01*
X172640630Y-118485274D01*
X172600241Y-118282225D01*
X172600241Y-118075193D01*
X172640630Y-117872144D01*
X172719856Y-117680875D01*
X172834878Y-117508733D01*
X172981265Y-117362346D01*
X173153407Y-117247324D01*
X173344676Y-117168098D01*
X173547725Y-117127709D01*
X173754757Y-117127709D01*
X173957806Y-117168098D01*
X173957806Y-117168098D01*
G37*
G36*
X176497806Y-117168098D02*
X176689075Y-117247324D01*
X176861217Y-117362346D01*
X177007604Y-117508733D01*
X177122626Y-117680875D01*
X177201852Y-117872144D01*
X177242241Y-118075193D01*
X177242241Y-118282225D01*
X177201852Y-118485274D01*
X177122626Y-118676543D01*
X177007604Y-118848685D01*
X176861217Y-118995072D01*
X176689075Y-119110094D01*
X176497806Y-119189320D01*
X176294757Y-119229709D01*
X176087725Y-119229709D01*
X175884676Y-119189320D01*
X175693407Y-119110094D01*
X175521265Y-118995072D01*
X175374878Y-118848685D01*
X175259856Y-118676543D01*
X175180630Y-118485274D01*
X175140241Y-118282225D01*
X175140241Y-118075193D01*
X175180630Y-117872144D01*
X175259856Y-117680875D01*
X175374878Y-117508733D01*
X175521265Y-117362346D01*
X175693407Y-117247324D01*
X175884676Y-117168098D01*
X176087725Y-117127709D01*
X176294757Y-117127709D01*
X176497806Y-117168098D01*
X176497806Y-117168098D01*
G37*
G36*
X181577806Y-117168098D02*
X181769075Y-117247324D01*
X181941217Y-117362346D01*
X182087604Y-117508733D01*
X182202626Y-117680875D01*
X182281852Y-117872144D01*
X182322241Y-118075193D01*
X182322241Y-118282225D01*
X182281852Y-118485274D01*
X182202626Y-118676543D01*
X182087604Y-118848685D01*
X181941217Y-118995072D01*
X181769075Y-119110094D01*
X181577806Y-119189320D01*
X181374757Y-119229709D01*
X181167725Y-119229709D01*
X180964676Y-119189320D01*
X180773407Y-119110094D01*
X180601265Y-118995072D01*
X180454878Y-118848685D01*
X180339856Y-118676543D01*
X180260630Y-118485274D01*
X180220241Y-118282225D01*
X180220241Y-118075193D01*
X180260630Y-117872144D01*
X180339856Y-117680875D01*
X180454878Y-117508733D01*
X180601265Y-117362346D01*
X180773407Y-117247324D01*
X180964676Y-117168098D01*
X181167725Y-117127709D01*
X181374757Y-117127709D01*
X181577806Y-117168098D01*
X181577806Y-117168098D01*
G37*
G36*
X184117806Y-117168098D02*
X184309075Y-117247324D01*
X184481217Y-117362346D01*
X184627604Y-117508733D01*
X184742626Y-117680875D01*
X184821852Y-117872144D01*
X184862241Y-118075193D01*
X184862241Y-118282225D01*
X184821852Y-118485274D01*
X184742626Y-118676543D01*
X184627604Y-118848685D01*
X184481217Y-118995072D01*
X184309075Y-119110094D01*
X184117806Y-119189320D01*
X183914757Y-119229709D01*
X183707725Y-119229709D01*
X183504676Y-119189320D01*
X183313407Y-119110094D01*
X183141265Y-118995072D01*
X182994878Y-118848685D01*
X182879856Y-118676543D01*
X182800630Y-118485274D01*
X182760241Y-118282225D01*
X182760241Y-118075193D01*
X182800630Y-117872144D01*
X182879856Y-117680875D01*
X182994878Y-117508733D01*
X183141265Y-117362346D01*
X183313407Y-117247324D01*
X183504676Y-117168098D01*
X183707725Y-117127709D01*
X183914757Y-117127709D01*
X184117806Y-117168098D01*
X184117806Y-117168098D01*
G37*
G36*
X186657806Y-117168098D02*
X186849075Y-117247324D01*
X187021217Y-117362346D01*
X187167604Y-117508733D01*
X187282626Y-117680875D01*
X187361852Y-117872144D01*
X187402241Y-118075193D01*
X187402241Y-118282225D01*
X187361852Y-118485274D01*
X187282626Y-118676543D01*
X187167604Y-118848685D01*
X187021217Y-118995072D01*
X186849075Y-119110094D01*
X186657806Y-119189320D01*
X186454757Y-119229709D01*
X186247725Y-119229709D01*
X186044676Y-119189320D01*
X185853407Y-119110094D01*
X185681265Y-118995072D01*
X185534878Y-118848685D01*
X185419856Y-118676543D01*
X185340630Y-118485274D01*
X185300241Y-118282225D01*
X185300241Y-118075193D01*
X185340630Y-117872144D01*
X185419856Y-117680875D01*
X185534878Y-117508733D01*
X185681265Y-117362346D01*
X185853407Y-117247324D01*
X186044676Y-117168098D01*
X186247725Y-117127709D01*
X186454757Y-117127709D01*
X186657806Y-117168098D01*
X186657806Y-117168098D01*
G37*
G36*
X150957806Y-117168098D02*
X151149075Y-117247324D01*
X151321217Y-117362346D01*
X151467604Y-117508733D01*
X151582626Y-117680875D01*
X151661852Y-117872144D01*
X151702241Y-118075193D01*
X151702241Y-118282225D01*
X151661852Y-118485274D01*
X151582626Y-118676543D01*
X151467604Y-118848685D01*
X151321217Y-118995072D01*
X151149075Y-119110094D01*
X150957806Y-119189320D01*
X150754757Y-119229709D01*
X150547725Y-119229709D01*
X150344676Y-119189320D01*
X150153407Y-119110094D01*
X149981265Y-118995072D01*
X149834878Y-118848685D01*
X149719856Y-118676543D01*
X149640630Y-118485274D01*
X149600241Y-118282225D01*
X149600241Y-118075193D01*
X149640630Y-117872144D01*
X149719856Y-117680875D01*
X149834878Y-117508733D01*
X149981265Y-117362346D01*
X150153407Y-117247324D01*
X150344676Y-117168098D01*
X150547725Y-117127709D01*
X150754757Y-117127709D01*
X150957806Y-117168098D01*
X150957806Y-117168098D01*
G37*
G36*
X104288637Y-117064255D02*
X104461707Y-117135943D01*
X104617471Y-117240021D01*
X104749929Y-117372479D01*
X104854007Y-117528243D01*
X104925695Y-117701313D01*
X104962241Y-117885042D01*
X104962241Y-118072376D01*
X104925695Y-118256105D01*
X104854007Y-118429175D01*
X104749929Y-118584939D01*
X104617471Y-118717397D01*
X104461707Y-118821475D01*
X104288637Y-118893163D01*
X104104908Y-118929709D01*
X103917574Y-118929709D01*
X103733845Y-118893163D01*
X103560775Y-118821475D01*
X103405011Y-118717397D01*
X103272553Y-118584939D01*
X103168475Y-118429175D01*
X103096787Y-118256105D01*
X103060241Y-118072376D01*
X103060241Y-117885042D01*
X103096787Y-117701313D01*
X103168475Y-117528243D01*
X103272553Y-117372479D01*
X103405011Y-117240021D01*
X103560775Y-117135943D01*
X103733845Y-117064255D01*
X103917574Y-117027709D01*
X104104908Y-117027709D01*
X104288637Y-117064255D01*
X104288637Y-117064255D01*
G37*
G36*
X104288637Y-112564255D02*
X104461707Y-112635943D01*
X104617471Y-112740021D01*
X104749929Y-112872479D01*
X104854007Y-113028243D01*
X104925695Y-113201313D01*
X104962241Y-113385042D01*
X104962241Y-113572376D01*
X104925695Y-113756105D01*
X104854007Y-113929175D01*
X104749929Y-114084939D01*
X104617471Y-114217397D01*
X104461707Y-114321475D01*
X104360916Y-114363224D01*
X104339305Y-114374775D01*
X104320363Y-114390321D01*
X104304817Y-114409263D01*
X104293266Y-114430873D01*
X104286153Y-114454323D01*
X104283751Y-114478709D01*
X104286153Y-114503095D01*
X104293266Y-114526544D01*
X104304817Y-114548155D01*
X104320363Y-114567097D01*
X104339305Y-114582643D01*
X104360916Y-114594194D01*
X104461707Y-114635943D01*
X104617471Y-114740021D01*
X104749929Y-114872479D01*
X104854007Y-115028243D01*
X104925695Y-115201313D01*
X104962241Y-115385042D01*
X104962241Y-115572376D01*
X104925695Y-115756105D01*
X104854007Y-115929175D01*
X104749929Y-116084939D01*
X104617471Y-116217397D01*
X104461707Y-116321475D01*
X104288637Y-116393163D01*
X104104908Y-116429709D01*
X103917574Y-116429709D01*
X103733845Y-116393163D01*
X103560775Y-116321475D01*
X103405011Y-116217397D01*
X103272553Y-116084939D01*
X103168475Y-115929175D01*
X103096787Y-115756105D01*
X103060241Y-115572376D01*
X103060241Y-115385042D01*
X103096787Y-115201313D01*
X103168475Y-115028243D01*
X103272553Y-114872479D01*
X103405011Y-114740021D01*
X103560775Y-114635943D01*
X103661566Y-114594194D01*
X103683177Y-114582643D01*
X103702119Y-114567097D01*
X103717665Y-114548155D01*
X103729216Y-114526545D01*
X103736329Y-114503095D01*
X103738731Y-114478709D01*
X103736329Y-114454323D01*
X103729216Y-114430874D01*
X103717665Y-114409263D01*
X103702119Y-114390321D01*
X103683177Y-114374775D01*
X103661566Y-114363224D01*
X103560775Y-114321475D01*
X103405011Y-114217397D01*
X103272553Y-114084939D01*
X103168475Y-113929175D01*
X103096787Y-113756105D01*
X103060241Y-113572376D01*
X103060241Y-113385042D01*
X103096787Y-113201313D01*
X103168475Y-113028243D01*
X103272553Y-112872479D01*
X103405011Y-112740021D01*
X103560775Y-112635943D01*
X103733845Y-112564255D01*
X103917574Y-112527709D01*
X104104908Y-112527709D01*
X104288637Y-112564255D01*
X104288637Y-112564255D01*
G37*
G36*
X104288637Y-110064255D02*
X104461707Y-110135943D01*
X104617471Y-110240021D01*
X104749929Y-110372479D01*
X104854007Y-110528243D01*
X104925695Y-110701313D01*
X104962241Y-110885042D01*
X104962241Y-111072376D01*
X104925695Y-111256105D01*
X104854007Y-111429175D01*
X104749929Y-111584939D01*
X104617471Y-111717397D01*
X104461707Y-111821475D01*
X104288637Y-111893163D01*
X104104908Y-111929709D01*
X103917574Y-111929709D01*
X103733845Y-111893163D01*
X103560775Y-111821475D01*
X103405011Y-111717397D01*
X103272553Y-111584939D01*
X103168475Y-111429175D01*
X103096787Y-111256105D01*
X103060241Y-111072376D01*
X103060241Y-110885042D01*
X103096787Y-110701313D01*
X103168475Y-110528243D01*
X103272553Y-110372479D01*
X103405011Y-110240021D01*
X103560775Y-110135943D01*
X103733845Y-110064255D01*
X103917574Y-110027709D01*
X104104908Y-110027709D01*
X104288637Y-110064255D01*
X104288637Y-110064255D01*
G37*
G36*
X101797401Y-106273077D02*
X101797403Y-106273078D01*
X101797404Y-106273078D01*
X101911755Y-106320444D01*
X102106967Y-106401303D01*
X102385568Y-106587458D01*
X102622492Y-106824382D01*
X102808647Y-107102983D01*
X102936873Y-107412549D01*
X103002241Y-107741174D01*
X103002241Y-108076244D01*
X102936873Y-108404869D01*
X102808647Y-108714435D01*
X102622492Y-108993036D01*
X102385568Y-109229960D01*
X102106967Y-109416115D01*
X101911755Y-109496974D01*
X101797404Y-109544340D01*
X101797403Y-109544340D01*
X101797401Y-109544341D01*
X101468776Y-109609709D01*
X101133706Y-109609709D01*
X100805081Y-109544341D01*
X100805079Y-109544340D01*
X100805078Y-109544340D01*
X100690727Y-109496974D01*
X100495515Y-109416115D01*
X100216914Y-109229960D01*
X99979990Y-108993036D01*
X99793835Y-108714435D01*
X99665609Y-108404869D01*
X99600241Y-108076244D01*
X99600241Y-107741174D01*
X99665609Y-107412549D01*
X99793835Y-107102983D01*
X99979990Y-106824382D01*
X100216914Y-106587458D01*
X100495515Y-106401303D01*
X100690727Y-106320444D01*
X100805078Y-106273078D01*
X100805079Y-106273078D01*
X100805081Y-106273077D01*
X101133706Y-106207709D01*
X101468776Y-106207709D01*
X101797401Y-106273077D01*
X101797401Y-106273077D01*
G37*
M02*
