G04 #@! TF.GenerationSoftware,KiCad,Pcbnew,5.0.2+dfsg1-1*
G04 #@! TF.CreationDate,2019-09-17T15:28:08+01:00*
G04 #@! TF.ProjectId,HDMI_SD_expansion,48444d49-5f53-4445-9f65-7870616e7369,rev?*
G04 #@! TF.SameCoordinates,Original*
G04 #@! TF.FileFunction,Soldermask,Top*
G04 #@! TF.FilePolarity,Negative*
%FSLAX46Y46*%
G04 Gerber Fmt 4.6, Leading zero omitted, Abs format (unit mm)*
G04 Created by KiCad (PCBNEW 5.0.2+dfsg1-1) date Tue 17 Sep 2019 15:28:08 BST*
%MOMM*%
%LPD*%
G01*
G04 APERTURE LIST*
%ADD10C,0.250000*%
%ADD11C,0.200000*%
%ADD12C,0.002790*%
%ADD13C,0.100000*%
G04 APERTURE END LIST*
D10*
X159648166Y-96548166D02*
X160124357Y-96548166D01*
X159552928Y-96833880D02*
X159886261Y-95833880D01*
X160219595Y-96833880D01*
X160552928Y-96833880D02*
X160552928Y-96167214D01*
X160552928Y-96357690D02*
X160600547Y-96262452D01*
X160648166Y-96214833D01*
X160743404Y-96167214D01*
X160838642Y-96167214D01*
X161029119Y-96167214D02*
X161410071Y-96167214D01*
X161171976Y-95833880D02*
X161171976Y-96691023D01*
X161219595Y-96786261D01*
X161314833Y-96833880D01*
X161410071Y-96833880D01*
X161648166Y-96167214D02*
X161886261Y-96833880D01*
X162124357Y-96167214D02*
X161886261Y-96833880D01*
X161791023Y-97071976D01*
X161743404Y-97119595D01*
X161648166Y-97167214D01*
X163648166Y-96786261D02*
X163552928Y-96833880D01*
X163362452Y-96833880D01*
X163267214Y-96786261D01*
X163219595Y-96691023D01*
X163219595Y-96310071D01*
X163267214Y-96214833D01*
X163362452Y-96167214D01*
X163552928Y-96167214D01*
X163648166Y-96214833D01*
X163695785Y-96310071D01*
X163695785Y-96405309D01*
X163219595Y-96500547D01*
X164029119Y-96833880D02*
X164552928Y-96167214D01*
X164029119Y-96167214D02*
X164552928Y-96833880D01*
X164933880Y-96167214D02*
X164933880Y-97167214D01*
X164933880Y-96214833D02*
X165029119Y-96167214D01*
X165219595Y-96167214D01*
X165314833Y-96214833D01*
X165362452Y-96262452D01*
X165410071Y-96357690D01*
X165410071Y-96643404D01*
X165362452Y-96738642D01*
X165314833Y-96786261D01*
X165219595Y-96833880D01*
X165029119Y-96833880D01*
X164933880Y-96786261D01*
X166267214Y-96833880D02*
X166267214Y-96310071D01*
X166219595Y-96214833D01*
X166124357Y-96167214D01*
X165933880Y-96167214D01*
X165838642Y-96214833D01*
X166267214Y-96786261D02*
X166171976Y-96833880D01*
X165933880Y-96833880D01*
X165838642Y-96786261D01*
X165791023Y-96691023D01*
X165791023Y-96595785D01*
X165838642Y-96500547D01*
X165933880Y-96452928D01*
X166171976Y-96452928D01*
X166267214Y-96405309D01*
X166743404Y-96167214D02*
X166743404Y-96833880D01*
X166743404Y-96262452D02*
X166791023Y-96214833D01*
X166886261Y-96167214D01*
X167029119Y-96167214D01*
X167124357Y-96214833D01*
X167171976Y-96310071D01*
X167171976Y-96833880D01*
X167600547Y-96786261D02*
X167695785Y-96833880D01*
X167886261Y-96833880D01*
X167981500Y-96786261D01*
X168029119Y-96691023D01*
X168029119Y-96643404D01*
X167981500Y-96548166D01*
X167886261Y-96500547D01*
X167743404Y-96500547D01*
X167648166Y-96452928D01*
X167600547Y-96357690D01*
X167600547Y-96310071D01*
X167648166Y-96214833D01*
X167743404Y-96167214D01*
X167886261Y-96167214D01*
X167981500Y-96214833D01*
X168457690Y-96833880D02*
X168457690Y-96167214D01*
X168457690Y-95833880D02*
X168410071Y-95881500D01*
X168457690Y-95929119D01*
X168505309Y-95881500D01*
X168457690Y-95833880D01*
X168457690Y-95929119D01*
X169076738Y-96833880D02*
X168981500Y-96786261D01*
X168933880Y-96738642D01*
X168886261Y-96643404D01*
X168886261Y-96357690D01*
X168933880Y-96262452D01*
X168981500Y-96214833D01*
X169076738Y-96167214D01*
X169219595Y-96167214D01*
X169314833Y-96214833D01*
X169362452Y-96262452D01*
X169410071Y-96357690D01*
X169410071Y-96643404D01*
X169362452Y-96738642D01*
X169314833Y-96786261D01*
X169219595Y-96833880D01*
X169076738Y-96833880D01*
X169838642Y-96167214D02*
X169838642Y-96833880D01*
X169838642Y-96262452D02*
X169886261Y-96214833D01*
X169981500Y-96167214D01*
X170124357Y-96167214D01*
X170219595Y-96214833D01*
X170267214Y-96310071D01*
X170267214Y-96833880D01*
X171505309Y-96833880D02*
X171505309Y-95833880D01*
X171505309Y-96214833D02*
X171600547Y-96167214D01*
X171791023Y-96167214D01*
X171886261Y-96214833D01*
X171933880Y-96262452D01*
X171981500Y-96357690D01*
X171981500Y-96643404D01*
X171933880Y-96738642D01*
X171886261Y-96786261D01*
X171791023Y-96833880D01*
X171600547Y-96833880D01*
X171505309Y-96786261D01*
X172552928Y-96833880D02*
X172457690Y-96786261D01*
X172410071Y-96738642D01*
X172362452Y-96643404D01*
X172362452Y-96357690D01*
X172410071Y-96262452D01*
X172457690Y-96214833D01*
X172552928Y-96167214D01*
X172695785Y-96167214D01*
X172791023Y-96214833D01*
X172838642Y-96262452D01*
X172886261Y-96357690D01*
X172886261Y-96643404D01*
X172838642Y-96738642D01*
X172791023Y-96786261D01*
X172695785Y-96833880D01*
X172552928Y-96833880D01*
X173743404Y-96833880D02*
X173743404Y-96310071D01*
X173695785Y-96214833D01*
X173600547Y-96167214D01*
X173410071Y-96167214D01*
X173314833Y-96214833D01*
X173743404Y-96786261D02*
X173648166Y-96833880D01*
X173410071Y-96833880D01*
X173314833Y-96786261D01*
X173267214Y-96691023D01*
X173267214Y-96595785D01*
X173314833Y-96500547D01*
X173410071Y-96452928D01*
X173648166Y-96452928D01*
X173743404Y-96405309D01*
X174219595Y-96833880D02*
X174219595Y-96167214D01*
X174219595Y-96357690D02*
X174267214Y-96262452D01*
X174314833Y-96214833D01*
X174410071Y-96167214D01*
X174505309Y-96167214D01*
X175267214Y-96833880D02*
X175267214Y-95833880D01*
X175267214Y-96786261D02*
X175171976Y-96833880D01*
X174981500Y-96833880D01*
X174886261Y-96786261D01*
X174838642Y-96738642D01*
X174791023Y-96643404D01*
X174791023Y-96357690D01*
X174838642Y-96262452D01*
X174886261Y-96214833D01*
X174981500Y-96167214D01*
X175171976Y-96167214D01*
X175267214Y-96214833D01*
D11*
X160008119Y-98775404D02*
X159741452Y-98394452D01*
X159550976Y-98775404D02*
X159550976Y-97975404D01*
X159855738Y-97975404D01*
X159931928Y-98013500D01*
X159970023Y-98051595D01*
X160008119Y-98127785D01*
X160008119Y-98242071D01*
X159970023Y-98318261D01*
X159931928Y-98356357D01*
X159855738Y-98394452D01*
X159550976Y-98394452D01*
X160655738Y-98737309D02*
X160579547Y-98775404D01*
X160427166Y-98775404D01*
X160350976Y-98737309D01*
X160312880Y-98661119D01*
X160312880Y-98356357D01*
X160350976Y-98280166D01*
X160427166Y-98242071D01*
X160579547Y-98242071D01*
X160655738Y-98280166D01*
X160693833Y-98356357D01*
X160693833Y-98432547D01*
X160312880Y-98508738D01*
X160960500Y-98242071D02*
X161150976Y-98775404D01*
X161341452Y-98242071D01*
X161646214Y-98699214D02*
X161684309Y-98737309D01*
X161646214Y-98775404D01*
X161608119Y-98737309D01*
X161646214Y-98699214D01*
X161646214Y-98775404D01*
X162446214Y-98775404D02*
X161989071Y-98775404D01*
X162217642Y-98775404D02*
X162217642Y-97975404D01*
X162141452Y-98089690D01*
X162065261Y-98165880D01*
X161989071Y-98203976D01*
X162789071Y-98699214D02*
X162827166Y-98737309D01*
X162789071Y-98775404D01*
X162750976Y-98737309D01*
X162789071Y-98699214D01*
X162789071Y-98775404D01*
X163322404Y-97975404D02*
X163398595Y-97975404D01*
X163474785Y-98013500D01*
X163512880Y-98051595D01*
X163550976Y-98127785D01*
X163589071Y-98280166D01*
X163589071Y-98470642D01*
X163550976Y-98623023D01*
X163512880Y-98699214D01*
X163474785Y-98737309D01*
X163398595Y-98775404D01*
X163322404Y-98775404D01*
X163246214Y-98737309D01*
X163208119Y-98699214D01*
X163170023Y-98623023D01*
X163131928Y-98470642D01*
X163131928Y-98280166D01*
X163170023Y-98127785D01*
X163208119Y-98051595D01*
X163246214Y-98013500D01*
X163322404Y-97975404D01*
X164693833Y-97975404D02*
X164770023Y-97975404D01*
X164846214Y-98013500D01*
X164884309Y-98051595D01*
X164922404Y-98127785D01*
X164960500Y-98280166D01*
X164960500Y-98470642D01*
X164922404Y-98623023D01*
X164884309Y-98699214D01*
X164846214Y-98737309D01*
X164770023Y-98775404D01*
X164693833Y-98775404D01*
X164617642Y-98737309D01*
X164579547Y-98699214D01*
X164541452Y-98623023D01*
X164503357Y-98470642D01*
X164503357Y-98280166D01*
X164541452Y-98127785D01*
X164579547Y-98051595D01*
X164617642Y-98013500D01*
X164693833Y-97975404D01*
X165341452Y-98775404D02*
X165493833Y-98775404D01*
X165570023Y-98737309D01*
X165608119Y-98699214D01*
X165684309Y-98584928D01*
X165722404Y-98432547D01*
X165722404Y-98127785D01*
X165684309Y-98051595D01*
X165646214Y-98013500D01*
X165570023Y-97975404D01*
X165417642Y-97975404D01*
X165341452Y-98013500D01*
X165303357Y-98051595D01*
X165265261Y-98127785D01*
X165265261Y-98318261D01*
X165303357Y-98394452D01*
X165341452Y-98432547D01*
X165417642Y-98470642D01*
X165570023Y-98470642D01*
X165646214Y-98432547D01*
X165684309Y-98394452D01*
X165722404Y-98318261D01*
X166636690Y-97937309D02*
X165950976Y-98965880D01*
X166865261Y-98051595D02*
X166903357Y-98013500D01*
X166979547Y-97975404D01*
X167170023Y-97975404D01*
X167246214Y-98013500D01*
X167284309Y-98051595D01*
X167322404Y-98127785D01*
X167322404Y-98203976D01*
X167284309Y-98318261D01*
X166827166Y-98775404D01*
X167322404Y-98775404D01*
X167817642Y-97975404D02*
X167893833Y-97975404D01*
X167970023Y-98013500D01*
X168008119Y-98051595D01*
X168046214Y-98127785D01*
X168084309Y-98280166D01*
X168084309Y-98470642D01*
X168046214Y-98623023D01*
X168008119Y-98699214D01*
X167970023Y-98737309D01*
X167893833Y-98775404D01*
X167817642Y-98775404D01*
X167741452Y-98737309D01*
X167703357Y-98699214D01*
X167665261Y-98623023D01*
X167627166Y-98470642D01*
X167627166Y-98280166D01*
X167665261Y-98127785D01*
X167703357Y-98051595D01*
X167741452Y-98013500D01*
X167817642Y-97975404D01*
X168846214Y-98775404D02*
X168389071Y-98775404D01*
X168617642Y-98775404D02*
X168617642Y-97975404D01*
X168541452Y-98089690D01*
X168465261Y-98165880D01*
X168389071Y-98203976D01*
X169227166Y-98775404D02*
X169379547Y-98775404D01*
X169455738Y-98737309D01*
X169493833Y-98699214D01*
X169570023Y-98584928D01*
X169608119Y-98432547D01*
X169608119Y-98127785D01*
X169570023Y-98051595D01*
X169531928Y-98013500D01*
X169455738Y-97975404D01*
X169303357Y-97975404D01*
X169227166Y-98013500D01*
X169189071Y-98051595D01*
X169150976Y-98127785D01*
X169150976Y-98318261D01*
X169189071Y-98394452D01*
X169227166Y-98432547D01*
X169303357Y-98470642D01*
X169455738Y-98470642D01*
X169531928Y-98432547D01*
X169570023Y-98394452D01*
X169608119Y-98318261D01*
D12*
G04 #@! TO.C,N1*
G36*
X172742632Y-94445820D02*
X172175704Y-94445820D01*
X172175704Y-91091496D01*
X172742632Y-91091496D01*
X172742632Y-94445820D01*
X172742632Y-94445820D01*
G37*
X172742632Y-94445820D02*
X172175704Y-94445820D01*
X172175704Y-91091496D01*
X172742632Y-91091496D01*
X172742632Y-94445820D01*
G36*
X170559563Y-91061900D02*
X170790071Y-91112118D01*
X170988393Y-91195229D01*
X171153648Y-91310794D01*
X171284951Y-91458380D01*
X171347993Y-91563936D01*
X171372961Y-91614835D01*
X171394176Y-91664050D01*
X171411942Y-91715761D01*
X171426564Y-91774147D01*
X171438348Y-91843387D01*
X171447599Y-91927660D01*
X171454621Y-92031145D01*
X171459719Y-92158022D01*
X171463199Y-92312469D01*
X171465366Y-92498667D01*
X171466525Y-92720793D01*
X171466980Y-92983028D01*
X171467044Y-93195017D01*
X171467044Y-94445820D01*
X170901643Y-94445820D01*
X170894974Y-93140704D01*
X170888305Y-91835589D01*
X170819368Y-91711166D01*
X170725609Y-91587454D01*
X170603634Y-91495825D01*
X170460413Y-91436835D01*
X170302916Y-91411041D01*
X170138113Y-91418999D01*
X169972975Y-91461266D01*
X169814470Y-91538397D01*
X169701299Y-91621922D01*
X169600906Y-91709349D01*
X169600906Y-94445820D01*
X169033978Y-94445820D01*
X169033978Y-93167067D01*
X169033564Y-92846221D01*
X169032301Y-92571070D01*
X169030160Y-92340073D01*
X169027109Y-92151689D01*
X169023119Y-92004376D01*
X169018159Y-91896592D01*
X169012199Y-91826796D01*
X169007015Y-91798320D01*
X168943668Y-91664645D01*
X168843425Y-91557681D01*
X168709219Y-91478731D01*
X168543983Y-91429093D01*
X168350650Y-91410071D01*
X168154787Y-91420232D01*
X168047975Y-91433216D01*
X167971331Y-91445530D01*
X167907983Y-91460877D01*
X167841055Y-91482959D01*
X167799729Y-91498150D01*
X167734768Y-91522423D01*
X167734768Y-94445820D01*
X167191462Y-94445820D01*
X167191462Y-91259068D01*
X167416496Y-91186983D01*
X167669932Y-91115372D01*
X167906692Y-91070663D01*
X168146838Y-91050056D01*
X168396184Y-91050248D01*
X168596272Y-91062043D01*
X168760229Y-91084465D01*
X168898558Y-91120579D01*
X169021762Y-91173453D01*
X169140344Y-91246150D01*
X169189130Y-91281690D01*
X169344272Y-91399116D01*
X169443061Y-91318963D01*
X169634324Y-91192577D01*
X169849085Y-91105338D01*
X170089247Y-91056638D01*
X170297755Y-91045011D01*
X170559563Y-91061900D01*
X170559563Y-91061900D01*
G37*
X170559563Y-91061900D02*
X170790071Y-91112118D01*
X170988393Y-91195229D01*
X171153648Y-91310794D01*
X171284951Y-91458380D01*
X171347993Y-91563936D01*
X171372961Y-91614835D01*
X171394176Y-91664050D01*
X171411942Y-91715761D01*
X171426564Y-91774147D01*
X171438348Y-91843387D01*
X171447599Y-91927660D01*
X171454621Y-92031145D01*
X171459719Y-92158022D01*
X171463199Y-92312469D01*
X171465366Y-92498667D01*
X171466525Y-92720793D01*
X171466980Y-92983028D01*
X171467044Y-93195017D01*
X171467044Y-94445820D01*
X170901643Y-94445820D01*
X170894974Y-93140704D01*
X170888305Y-91835589D01*
X170819368Y-91711166D01*
X170725609Y-91587454D01*
X170603634Y-91495825D01*
X170460413Y-91436835D01*
X170302916Y-91411041D01*
X170138113Y-91418999D01*
X169972975Y-91461266D01*
X169814470Y-91538397D01*
X169701299Y-91621922D01*
X169600906Y-91709349D01*
X169600906Y-94445820D01*
X169033978Y-94445820D01*
X169033978Y-93167067D01*
X169033564Y-92846221D01*
X169032301Y-92571070D01*
X169030160Y-92340073D01*
X169027109Y-92151689D01*
X169023119Y-92004376D01*
X169018159Y-91896592D01*
X169012199Y-91826796D01*
X169007015Y-91798320D01*
X168943668Y-91664645D01*
X168843425Y-91557681D01*
X168709219Y-91478731D01*
X168543983Y-91429093D01*
X168350650Y-91410071D01*
X168154787Y-91420232D01*
X168047975Y-91433216D01*
X167971331Y-91445530D01*
X167907983Y-91460877D01*
X167841055Y-91482959D01*
X167799729Y-91498150D01*
X167734768Y-91522423D01*
X167734768Y-94445820D01*
X167191462Y-94445820D01*
X167191462Y-91259068D01*
X167416496Y-91186983D01*
X167669932Y-91115372D01*
X167906692Y-91070663D01*
X168146838Y-91050056D01*
X168396184Y-91050248D01*
X168596272Y-91062043D01*
X168760229Y-91084465D01*
X168898558Y-91120579D01*
X169021762Y-91173453D01*
X169140344Y-91246150D01*
X169189130Y-91281690D01*
X169344272Y-91399116D01*
X169443061Y-91318963D01*
X169634324Y-91192577D01*
X169849085Y-91105338D01*
X170089247Y-91056638D01*
X170297755Y-91045011D01*
X170559563Y-91061900D01*
G36*
X178841500Y-91060402D02*
X179052657Y-91108481D01*
X179239582Y-91191198D01*
X179408441Y-91310913D01*
X179486579Y-91383919D01*
X179636200Y-91566853D01*
X179754727Y-91782042D01*
X179842692Y-92030850D01*
X179900628Y-92314643D01*
X179920893Y-92498455D01*
X179932346Y-92828820D01*
X179913017Y-93137736D01*
X179863908Y-93422287D01*
X179786024Y-93679553D01*
X179680366Y-93906617D01*
X179547938Y-94100561D01*
X179389743Y-94258467D01*
X179291574Y-94329241D01*
X179136754Y-94406112D01*
X178952499Y-94463401D01*
X178753461Y-94498506D01*
X178554292Y-94508827D01*
X178372857Y-94492344D01*
X178139820Y-94428496D01*
X177933282Y-94325939D01*
X177754119Y-94185654D01*
X177603205Y-94008624D01*
X177481414Y-93795828D01*
X177389621Y-93548249D01*
X177339591Y-93332636D01*
X177297544Y-93012703D01*
X177288722Y-92755735D01*
X177853413Y-92755735D01*
X177863708Y-93019412D01*
X177895260Y-93273026D01*
X177948094Y-93506116D01*
X178019745Y-93702805D01*
X178112208Y-93857837D01*
X178229369Y-93979076D01*
X178365307Y-94064098D01*
X178514098Y-94110477D01*
X178669822Y-94115788D01*
X178826555Y-94077608D01*
X178878662Y-94054468D01*
X179011342Y-93967195D01*
X179121357Y-93847674D01*
X179209820Y-93693507D01*
X179277844Y-93502298D01*
X179326541Y-93271646D01*
X179354753Y-93028500D01*
X179366999Y-92732109D01*
X179354926Y-92456071D01*
X179319484Y-92204513D01*
X179261619Y-91981565D01*
X179182281Y-91791358D01*
X179082417Y-91638021D01*
X179020395Y-91572101D01*
X178885495Y-91476614D01*
X178739180Y-91423269D01*
X178587988Y-91410507D01*
X178438453Y-91436769D01*
X178297112Y-91500496D01*
X178170502Y-91600129D01*
X178065158Y-91734110D01*
X178024293Y-91809683D01*
X177949814Y-92008972D01*
X177896491Y-92240052D01*
X177864349Y-92492461D01*
X177853413Y-92755735D01*
X177288722Y-92755735D01*
X177286866Y-92701669D01*
X177306606Y-92404471D01*
X177355815Y-92126047D01*
X177433543Y-91871333D01*
X177538840Y-91645267D01*
X177670756Y-91452787D01*
X177709802Y-91408307D01*
X177879670Y-91256953D01*
X178071607Y-91146498D01*
X178286988Y-91076382D01*
X178527187Y-91046043D01*
X178599946Y-91044601D01*
X178841500Y-91060402D01*
X178841500Y-91060402D01*
G37*
X178841500Y-91060402D02*
X179052657Y-91108481D01*
X179239582Y-91191198D01*
X179408441Y-91310913D01*
X179486579Y-91383919D01*
X179636200Y-91566853D01*
X179754727Y-91782042D01*
X179842692Y-92030850D01*
X179900628Y-92314643D01*
X179920893Y-92498455D01*
X179932346Y-92828820D01*
X179913017Y-93137736D01*
X179863908Y-93422287D01*
X179786024Y-93679553D01*
X179680366Y-93906617D01*
X179547938Y-94100561D01*
X179389743Y-94258467D01*
X179291574Y-94329241D01*
X179136754Y-94406112D01*
X178952499Y-94463401D01*
X178753461Y-94498506D01*
X178554292Y-94508827D01*
X178372857Y-94492344D01*
X178139820Y-94428496D01*
X177933282Y-94325939D01*
X177754119Y-94185654D01*
X177603205Y-94008624D01*
X177481414Y-93795828D01*
X177389621Y-93548249D01*
X177339591Y-93332636D01*
X177297544Y-93012703D01*
X177288722Y-92755735D01*
X177853413Y-92755735D01*
X177863708Y-93019412D01*
X177895260Y-93273026D01*
X177948094Y-93506116D01*
X178019745Y-93702805D01*
X178112208Y-93857837D01*
X178229369Y-93979076D01*
X178365307Y-94064098D01*
X178514098Y-94110477D01*
X178669822Y-94115788D01*
X178826555Y-94077608D01*
X178878662Y-94054468D01*
X179011342Y-93967195D01*
X179121357Y-93847674D01*
X179209820Y-93693507D01*
X179277844Y-93502298D01*
X179326541Y-93271646D01*
X179354753Y-93028500D01*
X179366999Y-92732109D01*
X179354926Y-92456071D01*
X179319484Y-92204513D01*
X179261619Y-91981565D01*
X179182281Y-91791358D01*
X179082417Y-91638021D01*
X179020395Y-91572101D01*
X178885495Y-91476614D01*
X178739180Y-91423269D01*
X178587988Y-91410507D01*
X178438453Y-91436769D01*
X178297112Y-91500496D01*
X178170502Y-91600129D01*
X178065158Y-91734110D01*
X178024293Y-91809683D01*
X177949814Y-92008972D01*
X177896491Y-92240052D01*
X177864349Y-92492461D01*
X177853413Y-92755735D01*
X177288722Y-92755735D01*
X177286866Y-92701669D01*
X177306606Y-92404471D01*
X177355815Y-92126047D01*
X177433543Y-91871333D01*
X177538840Y-91645267D01*
X177670756Y-91452787D01*
X177709802Y-91408307D01*
X177879670Y-91256953D01*
X178071607Y-91146498D01*
X178286988Y-91076382D01*
X178527187Y-91046043D01*
X178599946Y-91044601D01*
X178841500Y-91060402D01*
G36*
X154195538Y-87979731D02*
X154293271Y-88002134D01*
X154294905Y-88002808D01*
X154325645Y-88018848D01*
X154393667Y-88056477D01*
X154495362Y-88113621D01*
X154627123Y-88188207D01*
X154785339Y-88278157D01*
X154966404Y-88381399D01*
X155166709Y-88495857D01*
X155382645Y-88619458D01*
X155610604Y-88750125D01*
X155846977Y-88885785D01*
X156088157Y-89024362D01*
X156330535Y-89163783D01*
X156570503Y-89301971D01*
X156804452Y-89436854D01*
X157028773Y-89566356D01*
X157239859Y-89688402D01*
X157434101Y-89800918D01*
X157607891Y-89901830D01*
X157757620Y-89989061D01*
X157879681Y-90060538D01*
X157970464Y-90114186D01*
X158026361Y-90147931D01*
X158032749Y-90151926D01*
X158132947Y-90234208D01*
X158209914Y-90332609D01*
X158274157Y-90441891D01*
X158280528Y-92693541D01*
X158281483Y-93124367D01*
X158281799Y-93513100D01*
X158281478Y-93859152D01*
X158280525Y-94161938D01*
X158278945Y-94420870D01*
X158276741Y-94635362D01*
X158273919Y-94804829D01*
X158270483Y-94928683D01*
X158266436Y-95006338D01*
X158262881Y-95034384D01*
X158253236Y-95069947D01*
X158242955Y-95102383D01*
X158229584Y-95133325D01*
X158210671Y-95164406D01*
X158183764Y-95197260D01*
X158146409Y-95233521D01*
X158096154Y-95274822D01*
X158030547Y-95322797D01*
X157947134Y-95379080D01*
X157843463Y-95445303D01*
X157717082Y-95523101D01*
X157565537Y-95614108D01*
X157386376Y-95719956D01*
X157177146Y-95842279D01*
X156935395Y-95982711D01*
X156658670Y-96142885D01*
X156344519Y-96324436D01*
X156204703Y-96405214D01*
X154305661Y-97502405D01*
X154128496Y-97511509D01*
X153951331Y-97520612D01*
X153254482Y-97119845D01*
X152827765Y-96874469D01*
X152440058Y-96651529D01*
X152089461Y-96449827D01*
X151774075Y-96268165D01*
X151492001Y-96105347D01*
X151241341Y-95960175D01*
X151020195Y-95831451D01*
X150826664Y-95717979D01*
X150658849Y-95618561D01*
X150514852Y-95532000D01*
X150392773Y-95457099D01*
X150290713Y-95392659D01*
X150206772Y-95337485D01*
X150139053Y-95290378D01*
X150085656Y-95250141D01*
X150044682Y-95215577D01*
X150014232Y-95185489D01*
X149992407Y-95158678D01*
X149977308Y-95133949D01*
X149967036Y-95110104D01*
X149959692Y-95085945D01*
X149953377Y-95060275D01*
X149946881Y-95034435D01*
X149942357Y-94992987D01*
X149938442Y-94904869D01*
X149935139Y-94770652D01*
X149932453Y-94590907D01*
X149930388Y-94366205D01*
X149928949Y-94097115D01*
X149928139Y-93784210D01*
X149927964Y-93428059D01*
X149928427Y-93029233D01*
X149929098Y-92745036D01*
X151388344Y-92745036D01*
X151388376Y-93052081D01*
X151388647Y-93315492D01*
X151389424Y-93538878D01*
X151390973Y-93725849D01*
X151393559Y-93880014D01*
X151397448Y-94004983D01*
X151402905Y-94104365D01*
X151410196Y-94181771D01*
X151419588Y-94240809D01*
X151431345Y-94285090D01*
X151445733Y-94318223D01*
X151463018Y-94343817D01*
X151483465Y-94365482D01*
X151507341Y-94386828D01*
X151509315Y-94388550D01*
X151540964Y-94410118D01*
X151609059Y-94452277D01*
X151709152Y-94512467D01*
X151836795Y-94588126D01*
X151987537Y-94676694D01*
X152156930Y-94775610D01*
X152340526Y-94882314D01*
X152533875Y-94994246D01*
X152732528Y-95108844D01*
X152932036Y-95223548D01*
X153127951Y-95335797D01*
X153315822Y-95443031D01*
X153491203Y-95542689D01*
X153649643Y-95632210D01*
X153786693Y-95709035D01*
X153897905Y-95770601D01*
X153978830Y-95814350D01*
X154025019Y-95837719D01*
X154032261Y-95840643D01*
X154090831Y-95856611D01*
X154131771Y-95857556D01*
X154180293Y-95841973D01*
X154209069Y-95830108D01*
X154248418Y-95810398D01*
X154323289Y-95769786D01*
X154429205Y-95710862D01*
X154561690Y-95636214D01*
X154716266Y-95548433D01*
X154888456Y-95450108D01*
X155073784Y-95343828D01*
X155267773Y-95232182D01*
X155465947Y-95117759D01*
X155663827Y-95003150D01*
X155856938Y-94890942D01*
X156040803Y-94783726D01*
X156210944Y-94684091D01*
X156362885Y-94594626D01*
X156492149Y-94517921D01*
X156594259Y-94456564D01*
X156664739Y-94413145D01*
X156699111Y-94390254D01*
X156700433Y-94389156D01*
X156724586Y-94367431D01*
X156745290Y-94345719D01*
X156762810Y-94320407D01*
X156777411Y-94287882D01*
X156789360Y-94244531D01*
X156798922Y-94186741D01*
X156806364Y-94110898D01*
X156811950Y-94013390D01*
X156815948Y-93890603D01*
X156818622Y-93738924D01*
X156820239Y-93554741D01*
X156821064Y-93334438D01*
X156821364Y-93074404D01*
X156821404Y-92771026D01*
X156821404Y-92745036D01*
X156821400Y-92436638D01*
X156821179Y-92171897D01*
X156820427Y-91947226D01*
X156818830Y-91759039D01*
X156816075Y-91603749D01*
X156811847Y-91477768D01*
X156805832Y-91377511D01*
X156797717Y-91299390D01*
X156787188Y-91239818D01*
X156773931Y-91195210D01*
X156757632Y-91161977D01*
X156737977Y-91136533D01*
X156714653Y-91115292D01*
X156687344Y-91094667D01*
X156676273Y-91086550D01*
X156641588Y-91064233D01*
X156569842Y-91020696D01*
X156464952Y-90958236D01*
X156330833Y-90879147D01*
X156171401Y-90785725D01*
X155990571Y-90680266D01*
X155792259Y-90565066D01*
X155580381Y-90442420D01*
X155401760Y-90339343D01*
X155146533Y-90192449D01*
X154928823Y-90067645D01*
X154745354Y-89963188D01*
X154592851Y-89877337D01*
X154468039Y-89808348D01*
X154367643Y-89754479D01*
X154288387Y-89713985D01*
X154226997Y-89685125D01*
X154180197Y-89666156D01*
X154144712Y-89655335D01*
X154117267Y-89650918D01*
X154107404Y-89650554D01*
X154082712Y-89652786D01*
X154051383Y-89660625D01*
X154010201Y-89675791D01*
X153955950Y-89700000D01*
X153885414Y-89734969D01*
X153795378Y-89782418D01*
X153682626Y-89844061D01*
X153543942Y-89921618D01*
X153376110Y-90016806D01*
X153175913Y-90131342D01*
X152940138Y-90266943D01*
X152775085Y-90362115D01*
X152552945Y-90490497D01*
X152342193Y-90612697D01*
X152146537Y-90726538D01*
X151969682Y-90829846D01*
X151815333Y-90920445D01*
X151687198Y-90996161D01*
X151588982Y-91054817D01*
X151524390Y-91094240D01*
X151497288Y-91112113D01*
X151475536Y-91131639D01*
X151456891Y-91152299D01*
X151441114Y-91177681D01*
X151427964Y-91211374D01*
X151417203Y-91256965D01*
X151408591Y-91318042D01*
X151401889Y-91398193D01*
X151396858Y-91501006D01*
X151393257Y-91630069D01*
X151390849Y-91788971D01*
X151389392Y-91981298D01*
X151388649Y-92210639D01*
X151388380Y-92480582D01*
X151388344Y-92745036D01*
X149929098Y-92745036D01*
X149929220Y-92693541D01*
X149930239Y-92310789D01*
X149931119Y-91972397D01*
X149932042Y-91675483D01*
X149933190Y-91417164D01*
X149934745Y-91194556D01*
X149936889Y-91004778D01*
X149939804Y-90844947D01*
X149943673Y-90712179D01*
X149948676Y-90603592D01*
X149954996Y-90516303D01*
X149962814Y-90447431D01*
X149972314Y-90394090D01*
X149983676Y-90353401D01*
X149997082Y-90322478D01*
X150012715Y-90298440D01*
X150030757Y-90278404D01*
X150051388Y-90259487D01*
X150074792Y-90238807D01*
X150084723Y-90229629D01*
X150114829Y-90208602D01*
X150182902Y-90165807D01*
X150285946Y-90103015D01*
X150420964Y-90021995D01*
X150584959Y-89924514D01*
X150774934Y-89812343D01*
X150987893Y-89687250D01*
X151220837Y-89551004D01*
X151470772Y-89405374D01*
X151734700Y-89252128D01*
X152009623Y-89093037D01*
X152038961Y-89076091D01*
X152359449Y-88891041D01*
X152641690Y-88728209D01*
X152888336Y-88586159D01*
X153102036Y-88463458D01*
X153285442Y-88358672D01*
X153441205Y-88270367D01*
X153571974Y-88197107D01*
X153680402Y-88137459D01*
X153769139Y-88089989D01*
X153840835Y-88053262D01*
X153898141Y-88025843D01*
X153943708Y-88006300D01*
X153980188Y-87993197D01*
X154010229Y-87985100D01*
X154036484Y-87980574D01*
X154061604Y-87978187D01*
X154068969Y-87977695D01*
X154195538Y-87979731D01*
X154195538Y-87979731D01*
G37*
X154195538Y-87979731D02*
X154293271Y-88002134D01*
X154294905Y-88002808D01*
X154325645Y-88018848D01*
X154393667Y-88056477D01*
X154495362Y-88113621D01*
X154627123Y-88188207D01*
X154785339Y-88278157D01*
X154966404Y-88381399D01*
X155166709Y-88495857D01*
X155382645Y-88619458D01*
X155610604Y-88750125D01*
X155846977Y-88885785D01*
X156088157Y-89024362D01*
X156330535Y-89163783D01*
X156570503Y-89301971D01*
X156804452Y-89436854D01*
X157028773Y-89566356D01*
X157239859Y-89688402D01*
X157434101Y-89800918D01*
X157607891Y-89901830D01*
X157757620Y-89989061D01*
X157879681Y-90060538D01*
X157970464Y-90114186D01*
X158026361Y-90147931D01*
X158032749Y-90151926D01*
X158132947Y-90234208D01*
X158209914Y-90332609D01*
X158274157Y-90441891D01*
X158280528Y-92693541D01*
X158281483Y-93124367D01*
X158281799Y-93513100D01*
X158281478Y-93859152D01*
X158280525Y-94161938D01*
X158278945Y-94420870D01*
X158276741Y-94635362D01*
X158273919Y-94804829D01*
X158270483Y-94928683D01*
X158266436Y-95006338D01*
X158262881Y-95034384D01*
X158253236Y-95069947D01*
X158242955Y-95102383D01*
X158229584Y-95133325D01*
X158210671Y-95164406D01*
X158183764Y-95197260D01*
X158146409Y-95233521D01*
X158096154Y-95274822D01*
X158030547Y-95322797D01*
X157947134Y-95379080D01*
X157843463Y-95445303D01*
X157717082Y-95523101D01*
X157565537Y-95614108D01*
X157386376Y-95719956D01*
X157177146Y-95842279D01*
X156935395Y-95982711D01*
X156658670Y-96142885D01*
X156344519Y-96324436D01*
X156204703Y-96405214D01*
X154305661Y-97502405D01*
X154128496Y-97511509D01*
X153951331Y-97520612D01*
X153254482Y-97119845D01*
X152827765Y-96874469D01*
X152440058Y-96651529D01*
X152089461Y-96449827D01*
X151774075Y-96268165D01*
X151492001Y-96105347D01*
X151241341Y-95960175D01*
X151020195Y-95831451D01*
X150826664Y-95717979D01*
X150658849Y-95618561D01*
X150514852Y-95532000D01*
X150392773Y-95457099D01*
X150290713Y-95392659D01*
X150206772Y-95337485D01*
X150139053Y-95290378D01*
X150085656Y-95250141D01*
X150044682Y-95215577D01*
X150014232Y-95185489D01*
X149992407Y-95158678D01*
X149977308Y-95133949D01*
X149967036Y-95110104D01*
X149959692Y-95085945D01*
X149953377Y-95060275D01*
X149946881Y-95034435D01*
X149942357Y-94992987D01*
X149938442Y-94904869D01*
X149935139Y-94770652D01*
X149932453Y-94590907D01*
X149930388Y-94366205D01*
X149928949Y-94097115D01*
X149928139Y-93784210D01*
X149927964Y-93428059D01*
X149928427Y-93029233D01*
X149929098Y-92745036D01*
X151388344Y-92745036D01*
X151388376Y-93052081D01*
X151388647Y-93315492D01*
X151389424Y-93538878D01*
X151390973Y-93725849D01*
X151393559Y-93880014D01*
X151397448Y-94004983D01*
X151402905Y-94104365D01*
X151410196Y-94181771D01*
X151419588Y-94240809D01*
X151431345Y-94285090D01*
X151445733Y-94318223D01*
X151463018Y-94343817D01*
X151483465Y-94365482D01*
X151507341Y-94386828D01*
X151509315Y-94388550D01*
X151540964Y-94410118D01*
X151609059Y-94452277D01*
X151709152Y-94512467D01*
X151836795Y-94588126D01*
X151987537Y-94676694D01*
X152156930Y-94775610D01*
X152340526Y-94882314D01*
X152533875Y-94994246D01*
X152732528Y-95108844D01*
X152932036Y-95223548D01*
X153127951Y-95335797D01*
X153315822Y-95443031D01*
X153491203Y-95542689D01*
X153649643Y-95632210D01*
X153786693Y-95709035D01*
X153897905Y-95770601D01*
X153978830Y-95814350D01*
X154025019Y-95837719D01*
X154032261Y-95840643D01*
X154090831Y-95856611D01*
X154131771Y-95857556D01*
X154180293Y-95841973D01*
X154209069Y-95830108D01*
X154248418Y-95810398D01*
X154323289Y-95769786D01*
X154429205Y-95710862D01*
X154561690Y-95636214D01*
X154716266Y-95548433D01*
X154888456Y-95450108D01*
X155073784Y-95343828D01*
X155267773Y-95232182D01*
X155465947Y-95117759D01*
X155663827Y-95003150D01*
X155856938Y-94890942D01*
X156040803Y-94783726D01*
X156210944Y-94684091D01*
X156362885Y-94594626D01*
X156492149Y-94517921D01*
X156594259Y-94456564D01*
X156664739Y-94413145D01*
X156699111Y-94390254D01*
X156700433Y-94389156D01*
X156724586Y-94367431D01*
X156745290Y-94345719D01*
X156762810Y-94320407D01*
X156777411Y-94287882D01*
X156789360Y-94244531D01*
X156798922Y-94186741D01*
X156806364Y-94110898D01*
X156811950Y-94013390D01*
X156815948Y-93890603D01*
X156818622Y-93738924D01*
X156820239Y-93554741D01*
X156821064Y-93334438D01*
X156821364Y-93074404D01*
X156821404Y-92771026D01*
X156821404Y-92745036D01*
X156821400Y-92436638D01*
X156821179Y-92171897D01*
X156820427Y-91947226D01*
X156818830Y-91759039D01*
X156816075Y-91603749D01*
X156811847Y-91477768D01*
X156805832Y-91377511D01*
X156797717Y-91299390D01*
X156787188Y-91239818D01*
X156773931Y-91195210D01*
X156757632Y-91161977D01*
X156737977Y-91136533D01*
X156714653Y-91115292D01*
X156687344Y-91094667D01*
X156676273Y-91086550D01*
X156641588Y-91064233D01*
X156569842Y-91020696D01*
X156464952Y-90958236D01*
X156330833Y-90879147D01*
X156171401Y-90785725D01*
X155990571Y-90680266D01*
X155792259Y-90565066D01*
X155580381Y-90442420D01*
X155401760Y-90339343D01*
X155146533Y-90192449D01*
X154928823Y-90067645D01*
X154745354Y-89963188D01*
X154592851Y-89877337D01*
X154468039Y-89808348D01*
X154367643Y-89754479D01*
X154288387Y-89713985D01*
X154226997Y-89685125D01*
X154180197Y-89666156D01*
X154144712Y-89655335D01*
X154117267Y-89650918D01*
X154107404Y-89650554D01*
X154082712Y-89652786D01*
X154051383Y-89660625D01*
X154010201Y-89675791D01*
X153955950Y-89700000D01*
X153885414Y-89734969D01*
X153795378Y-89782418D01*
X153682626Y-89844061D01*
X153543942Y-89921618D01*
X153376110Y-90016806D01*
X153175913Y-90131342D01*
X152940138Y-90266943D01*
X152775085Y-90362115D01*
X152552945Y-90490497D01*
X152342193Y-90612697D01*
X152146537Y-90726538D01*
X151969682Y-90829846D01*
X151815333Y-90920445D01*
X151687198Y-90996161D01*
X151588982Y-91054817D01*
X151524390Y-91094240D01*
X151497288Y-91112113D01*
X151475536Y-91131639D01*
X151456891Y-91152299D01*
X151441114Y-91177681D01*
X151427964Y-91211374D01*
X151417203Y-91256965D01*
X151408591Y-91318042D01*
X151401889Y-91398193D01*
X151396858Y-91501006D01*
X151393257Y-91630069D01*
X151390849Y-91788971D01*
X151389392Y-91981298D01*
X151388649Y-92210639D01*
X151388380Y-92480582D01*
X151388344Y-92745036D01*
X149929098Y-92745036D01*
X149929220Y-92693541D01*
X149930239Y-92310789D01*
X149931119Y-91972397D01*
X149932042Y-91675483D01*
X149933190Y-91417164D01*
X149934745Y-91194556D01*
X149936889Y-91004778D01*
X149939804Y-90844947D01*
X149943673Y-90712179D01*
X149948676Y-90603592D01*
X149954996Y-90516303D01*
X149962814Y-90447431D01*
X149972314Y-90394090D01*
X149983676Y-90353401D01*
X149997082Y-90322478D01*
X150012715Y-90298440D01*
X150030757Y-90278404D01*
X150051388Y-90259487D01*
X150074792Y-90238807D01*
X150084723Y-90229629D01*
X150114829Y-90208602D01*
X150182902Y-90165807D01*
X150285946Y-90103015D01*
X150420964Y-90021995D01*
X150584959Y-89924514D01*
X150774934Y-89812343D01*
X150987893Y-89687250D01*
X151220837Y-89551004D01*
X151470772Y-89405374D01*
X151734700Y-89252128D01*
X152009623Y-89093037D01*
X152038961Y-89076091D01*
X152359449Y-88891041D01*
X152641690Y-88728209D01*
X152888336Y-88586159D01*
X153102036Y-88463458D01*
X153285442Y-88358672D01*
X153441205Y-88270367D01*
X153571974Y-88197107D01*
X153680402Y-88137459D01*
X153769139Y-88089989D01*
X153840835Y-88053262D01*
X153898141Y-88025843D01*
X153943708Y-88006300D01*
X153980188Y-87993197D01*
X154010229Y-87985100D01*
X154036484Y-87980574D01*
X154061604Y-87978187D01*
X154068969Y-87977695D01*
X154195538Y-87979731D01*
G36*
X174644713Y-91048517D02*
X174800259Y-91063588D01*
X174886781Y-91079866D01*
X174975952Y-91105539D01*
X175071706Y-91140406D01*
X175161651Y-91179062D01*
X175233398Y-91216099D01*
X175274554Y-91246111D01*
X175277846Y-91250495D01*
X175275301Y-91279867D01*
X175258286Y-91337578D01*
X175232135Y-91410055D01*
X175202183Y-91483727D01*
X175173765Y-91545023D01*
X175152216Y-91580371D01*
X175146665Y-91584209D01*
X175117510Y-91575700D01*
X175059467Y-91552418D01*
X175000699Y-91526456D01*
X174820084Y-91463726D01*
X174641205Y-91439347D01*
X174472362Y-91453577D01*
X174324373Y-91505363D01*
X174200699Y-91593847D01*
X174087369Y-91723639D01*
X173987944Y-91889291D01*
X173905986Y-92085356D01*
X173871230Y-92198339D01*
X173843800Y-92337569D01*
X173826172Y-92509010D01*
X173818346Y-92698659D01*
X173820322Y-92892512D01*
X173832098Y-93076565D01*
X173853674Y-93236814D01*
X173871294Y-93315604D01*
X173951411Y-93550281D01*
X174052274Y-93742813D01*
X174174173Y-93893640D01*
X174317400Y-94003204D01*
X174328513Y-94009496D01*
X174400819Y-94046192D01*
X174464463Y-94067299D01*
X174537790Y-94076849D01*
X174639141Y-94078870D01*
X174644203Y-94078851D01*
X174750544Y-94074178D01*
X174843884Y-94058314D01*
X174938559Y-94026943D01*
X175048907Y-93975747D01*
X175131448Y-93932176D01*
X175141741Y-93938795D01*
X175159571Y-93969783D01*
X175187159Y-94030006D01*
X175226722Y-94124333D01*
X175280478Y-94257632D01*
X175285534Y-94270317D01*
X175272245Y-94295730D01*
X175224174Y-94331381D01*
X175151150Y-94371960D01*
X175063003Y-94412157D01*
X174969562Y-94446662D01*
X174945194Y-94454169D01*
X174818114Y-94481214D01*
X174665046Y-94498553D01*
X174506305Y-94505006D01*
X174362204Y-94499388D01*
X174301684Y-94491631D01*
X174213182Y-94469174D01*
X174106650Y-94431853D01*
X174006409Y-94388329D01*
X173810339Y-94266324D01*
X173641069Y-94106033D01*
X173499336Y-93908577D01*
X173385879Y-93675076D01*
X173301437Y-93406652D01*
X173273322Y-93275949D01*
X173252815Y-93121254D01*
X173242023Y-92937978D01*
X173240553Y-92739402D01*
X173248008Y-92538811D01*
X173263995Y-92349489D01*
X173288118Y-92184717D01*
X173308421Y-92095449D01*
X173400218Y-91833969D01*
X173521406Y-91606105D01*
X173670472Y-91413561D01*
X173845908Y-91258045D01*
X174046202Y-91141262D01*
X174205578Y-91081938D01*
X174329869Y-91057744D01*
X174482082Y-91046586D01*
X174644713Y-91048517D01*
X174644713Y-91048517D01*
G37*
X174644713Y-91048517D02*
X174800259Y-91063588D01*
X174886781Y-91079866D01*
X174975952Y-91105539D01*
X175071706Y-91140406D01*
X175161651Y-91179062D01*
X175233398Y-91216099D01*
X175274554Y-91246111D01*
X175277846Y-91250495D01*
X175275301Y-91279867D01*
X175258286Y-91337578D01*
X175232135Y-91410055D01*
X175202183Y-91483727D01*
X175173765Y-91545023D01*
X175152216Y-91580371D01*
X175146665Y-91584209D01*
X175117510Y-91575700D01*
X175059467Y-91552418D01*
X175000699Y-91526456D01*
X174820084Y-91463726D01*
X174641205Y-91439347D01*
X174472362Y-91453577D01*
X174324373Y-91505363D01*
X174200699Y-91593847D01*
X174087369Y-91723639D01*
X173987944Y-91889291D01*
X173905986Y-92085356D01*
X173871230Y-92198339D01*
X173843800Y-92337569D01*
X173826172Y-92509010D01*
X173818346Y-92698659D01*
X173820322Y-92892512D01*
X173832098Y-93076565D01*
X173853674Y-93236814D01*
X173871294Y-93315604D01*
X173951411Y-93550281D01*
X174052274Y-93742813D01*
X174174173Y-93893640D01*
X174317400Y-94003204D01*
X174328513Y-94009496D01*
X174400819Y-94046192D01*
X174464463Y-94067299D01*
X174537790Y-94076849D01*
X174639141Y-94078870D01*
X174644203Y-94078851D01*
X174750544Y-94074178D01*
X174843884Y-94058314D01*
X174938559Y-94026943D01*
X175048907Y-93975747D01*
X175131448Y-93932176D01*
X175141741Y-93938795D01*
X175159571Y-93969783D01*
X175187159Y-94030006D01*
X175226722Y-94124333D01*
X175280478Y-94257632D01*
X175285534Y-94270317D01*
X175272245Y-94295730D01*
X175224174Y-94331381D01*
X175151150Y-94371960D01*
X175063003Y-94412157D01*
X174969562Y-94446662D01*
X174945194Y-94454169D01*
X174818114Y-94481214D01*
X174665046Y-94498553D01*
X174506305Y-94505006D01*
X174362204Y-94499388D01*
X174301684Y-94491631D01*
X174213182Y-94469174D01*
X174106650Y-94431853D01*
X174006409Y-94388329D01*
X173810339Y-94266324D01*
X173641069Y-94106033D01*
X173499336Y-93908577D01*
X173385879Y-93675076D01*
X173301437Y-93406652D01*
X173273322Y-93275949D01*
X173252815Y-93121254D01*
X173242023Y-92937978D01*
X173240553Y-92739402D01*
X173248008Y-92538811D01*
X173263995Y-92349489D01*
X173288118Y-92184717D01*
X173308421Y-92095449D01*
X173400218Y-91833969D01*
X173521406Y-91606105D01*
X173670472Y-91413561D01*
X173845908Y-91258045D01*
X174046202Y-91141262D01*
X174205578Y-91081938D01*
X174329869Y-91057744D01*
X174482082Y-91046586D01*
X174644713Y-91048517D01*
G36*
X177171204Y-91047957D02*
X177213646Y-91053925D01*
X177230126Y-91063782D01*
X177230812Y-91067055D01*
X177224117Y-91101742D01*
X177206245Y-91169191D01*
X177180510Y-91257197D01*
X177168772Y-91295375D01*
X177137074Y-91391968D01*
X177112887Y-91450324D01*
X177091994Y-91477972D01*
X177070176Y-91482440D01*
X177064759Y-91481037D01*
X176917902Y-91449707D01*
X176753904Y-91439388D01*
X176591346Y-91449810D01*
X176448813Y-91480705D01*
X176421759Y-91490312D01*
X176356798Y-91515523D01*
X176356798Y-94445820D01*
X175789870Y-94445820D01*
X175789870Y-91261643D01*
X175961129Y-91200276D01*
X176109954Y-91150278D01*
X176246089Y-91113113D01*
X176382502Y-91086568D01*
X176532159Y-91068434D01*
X176708026Y-91056499D01*
X176835144Y-91051271D01*
X176987248Y-91046841D01*
X177097503Y-91045666D01*
X177171204Y-91047957D01*
X177171204Y-91047957D01*
G37*
X177171204Y-91047957D02*
X177213646Y-91053925D01*
X177230126Y-91063782D01*
X177230812Y-91067055D01*
X177224117Y-91101742D01*
X177206245Y-91169191D01*
X177180510Y-91257197D01*
X177168772Y-91295375D01*
X177137074Y-91391968D01*
X177112887Y-91450324D01*
X177091994Y-91477972D01*
X177070176Y-91482440D01*
X177064759Y-91481037D01*
X176917902Y-91449707D01*
X176753904Y-91439388D01*
X176591346Y-91449810D01*
X176448813Y-91480705D01*
X176421759Y-91490312D01*
X176356798Y-91515523D01*
X176356798Y-94445820D01*
X175789870Y-94445820D01*
X175789870Y-91261643D01*
X175961129Y-91200276D01*
X176109954Y-91150278D01*
X176246089Y-91113113D01*
X176382502Y-91086568D01*
X176532159Y-91068434D01*
X176708026Y-91056499D01*
X176835144Y-91051271D01*
X176987248Y-91046841D01*
X177097503Y-91045666D01*
X177171204Y-91047957D01*
G36*
X166117382Y-90192666D02*
X166121695Y-90255174D01*
X166125144Y-90350603D01*
X166127482Y-90471790D01*
X166128458Y-90611574D01*
X166128472Y-90630867D01*
X166128472Y-91091496D01*
X166695400Y-91091496D01*
X166695400Y-91469448D01*
X166128472Y-91469448D01*
X166128472Y-93776973D01*
X166182210Y-93878594D01*
X166251309Y-93975396D01*
X166340169Y-94035307D01*
X166455856Y-94061892D01*
X166547812Y-94063035D01*
X166695499Y-94056057D01*
X166695449Y-94237733D01*
X166691272Y-94349716D01*
X166678960Y-94417604D01*
X166665873Y-94437939D01*
X166630761Y-94446487D01*
X166560144Y-94454503D01*
X166465757Y-94460858D01*
X166400125Y-94463480D01*
X166270581Y-94464664D01*
X166172885Y-94458249D01*
X166092033Y-94442675D01*
X166038825Y-94425992D01*
X165895044Y-94358148D01*
X165780596Y-94263860D01*
X165685908Y-94134474D01*
X165656032Y-94080014D01*
X165573355Y-93919172D01*
X165566640Y-92694310D01*
X165559926Y-91469448D01*
X165183592Y-91469448D01*
X165183592Y-91091496D01*
X165561544Y-91091496D01*
X165561544Y-90337217D01*
X165828992Y-90253728D01*
X165934664Y-90221139D01*
X166023464Y-90194503D01*
X166085928Y-90176609D01*
X166112456Y-90170238D01*
X166117382Y-90192666D01*
X166117382Y-90192666D01*
G37*
X166117382Y-90192666D02*
X166121695Y-90255174D01*
X166125144Y-90350603D01*
X166127482Y-90471790D01*
X166128458Y-90611574D01*
X166128472Y-90630867D01*
X166128472Y-91091496D01*
X166695400Y-91091496D01*
X166695400Y-91469448D01*
X166128472Y-91469448D01*
X166128472Y-93776973D01*
X166182210Y-93878594D01*
X166251309Y-93975396D01*
X166340169Y-94035307D01*
X166455856Y-94061892D01*
X166547812Y-94063035D01*
X166695499Y-94056057D01*
X166695449Y-94237733D01*
X166691272Y-94349716D01*
X166678960Y-94417604D01*
X166665873Y-94437939D01*
X166630761Y-94446487D01*
X166560144Y-94454503D01*
X166465757Y-94460858D01*
X166400125Y-94463480D01*
X166270581Y-94464664D01*
X166172885Y-94458249D01*
X166092033Y-94442675D01*
X166038825Y-94425992D01*
X165895044Y-94358148D01*
X165780596Y-94263860D01*
X165685908Y-94134474D01*
X165656032Y-94080014D01*
X165573355Y-93919172D01*
X165566640Y-92694310D01*
X165559926Y-91469448D01*
X165183592Y-91469448D01*
X165183592Y-91091496D01*
X165561544Y-91091496D01*
X165561544Y-90337217D01*
X165828992Y-90253728D01*
X165934664Y-90221139D01*
X166023464Y-90194503D01*
X166085928Y-90176609D01*
X166112456Y-90170238D01*
X166117382Y-90192666D01*
G36*
X163693893Y-91057250D02*
X163819596Y-91060537D01*
X163916235Y-91066963D01*
X163992883Y-91077236D01*
X164058615Y-91092061D01*
X164084160Y-91099508D01*
X164298342Y-91181490D01*
X164471371Y-91283317D01*
X164605751Y-91406777D01*
X164694121Y-91534912D01*
X164722337Y-91587961D01*
X164746326Y-91638035D01*
X164766432Y-91689320D01*
X164782996Y-91746006D01*
X164796362Y-91812283D01*
X164806872Y-91892338D01*
X164814869Y-91990360D01*
X164820696Y-92110538D01*
X164824694Y-92257060D01*
X164827208Y-92434116D01*
X164828578Y-92645895D01*
X164829149Y-92896584D01*
X164829262Y-93187006D01*
X164829262Y-94445820D01*
X164262334Y-94445820D01*
X164262334Y-93198141D01*
X164262214Y-92904459D01*
X164261610Y-92654058D01*
X164260154Y-92442980D01*
X164257478Y-92267261D01*
X164253214Y-92122942D01*
X164246994Y-92006061D01*
X164238451Y-91912656D01*
X164227217Y-91838767D01*
X164212923Y-91780433D01*
X164195203Y-91733691D01*
X164173688Y-91694582D01*
X164148011Y-91659143D01*
X164117804Y-91623415D01*
X164115919Y-91621266D01*
X164018213Y-91533097D01*
X163899068Y-91471198D01*
X163748458Y-91430849D01*
X163692132Y-91421740D01*
X163533760Y-91411567D01*
X163358481Y-91420180D01*
X163188173Y-91445591D01*
X163064045Y-91478782D01*
X162974935Y-91509630D01*
X162968851Y-92977725D01*
X162962766Y-94445820D01*
X162396196Y-94445820D01*
X162396196Y-91262816D01*
X162614699Y-91191138D01*
X162765061Y-91143615D01*
X162892834Y-91108631D01*
X163010681Y-91084321D01*
X163131262Y-91068824D01*
X163267239Y-91060274D01*
X163431272Y-91056808D01*
X163530052Y-91056397D01*
X163693893Y-91057250D01*
X163693893Y-91057250D01*
G37*
X163693893Y-91057250D02*
X163819596Y-91060537D01*
X163916235Y-91066963D01*
X163992883Y-91077236D01*
X164058615Y-91092061D01*
X164084160Y-91099508D01*
X164298342Y-91181490D01*
X164471371Y-91283317D01*
X164605751Y-91406777D01*
X164694121Y-91534912D01*
X164722337Y-91587961D01*
X164746326Y-91638035D01*
X164766432Y-91689320D01*
X164782996Y-91746006D01*
X164796362Y-91812283D01*
X164806872Y-91892338D01*
X164814869Y-91990360D01*
X164820696Y-92110538D01*
X164824694Y-92257060D01*
X164827208Y-92434116D01*
X164828578Y-92645895D01*
X164829149Y-92896584D01*
X164829262Y-93187006D01*
X164829262Y-94445820D01*
X164262334Y-94445820D01*
X164262334Y-93198141D01*
X164262214Y-92904459D01*
X164261610Y-92654058D01*
X164260154Y-92442980D01*
X164257478Y-92267261D01*
X164253214Y-92122942D01*
X164246994Y-92006061D01*
X164238451Y-91912656D01*
X164227217Y-91838767D01*
X164212923Y-91780433D01*
X164195203Y-91733691D01*
X164173688Y-91694582D01*
X164148011Y-91659143D01*
X164117804Y-91623415D01*
X164115919Y-91621266D01*
X164018213Y-91533097D01*
X163899068Y-91471198D01*
X163748458Y-91430849D01*
X163692132Y-91421740D01*
X163533760Y-91411567D01*
X163358481Y-91420180D01*
X163188173Y-91445591D01*
X163064045Y-91478782D01*
X162974935Y-91509630D01*
X162968851Y-92977725D01*
X162962766Y-94445820D01*
X162396196Y-94445820D01*
X162396196Y-91262816D01*
X162614699Y-91191138D01*
X162765061Y-91143615D01*
X162892834Y-91108631D01*
X163010681Y-91084321D01*
X163131262Y-91068824D01*
X163267239Y-91060274D01*
X163431272Y-91056808D01*
X163530052Y-91056397D01*
X163693893Y-91057250D01*
G36*
X160780377Y-91060249D02*
X160929924Y-91088245D01*
X161099663Y-91140285D01*
X161236625Y-91204868D01*
X161355006Y-91289481D01*
X161413211Y-91343167D01*
X161499050Y-91450368D01*
X161576120Y-91587618D01*
X161635844Y-91737725D01*
X161663425Y-91844821D01*
X161668899Y-91897998D01*
X161673814Y-91994485D01*
X161678096Y-92130349D01*
X161681670Y-92301658D01*
X161684462Y-92504480D01*
X161686398Y-92734882D01*
X161687404Y-92988932D01*
X161687536Y-93125107D01*
X161687536Y-94278255D01*
X161576824Y-94327228D01*
X161378592Y-94398446D01*
X161148954Y-94453470D01*
X160901476Y-94490579D01*
X160649725Y-94508050D01*
X160407268Y-94504164D01*
X160279383Y-94491857D01*
X160028817Y-94441934D01*
X159814647Y-94362578D01*
X159637304Y-94254257D01*
X159497220Y-94117443D01*
X159394826Y-93952605D01*
X159330553Y-93760213D01*
X159304831Y-93540739D01*
X159306076Y-93430559D01*
X159309086Y-93409731D01*
X159850305Y-93409731D01*
X159854699Y-93605157D01*
X159897167Y-93774059D01*
X159976803Y-93915031D01*
X160092696Y-94026664D01*
X160243940Y-94107552D01*
X160316292Y-94131597D01*
X160408722Y-94147401D01*
X160532503Y-94154595D01*
X160672643Y-94153744D01*
X160814148Y-94145410D01*
X160942025Y-94130159D01*
X161041281Y-94108554D01*
X161055647Y-94103784D01*
X161167852Y-94063427D01*
X161167852Y-92576282D01*
X161032026Y-92592670D01*
X160945341Y-92606307D01*
X160833116Y-92628308D01*
X160715397Y-92654648D01*
X160678384Y-92663701D01*
X160436222Y-92738151D01*
X160237372Y-92829629D01*
X160080695Y-92939162D01*
X159965051Y-93067776D01*
X159889302Y-93216497D01*
X159852306Y-93386353D01*
X159850305Y-93409731D01*
X159309086Y-93409731D01*
X159336832Y-93217754D01*
X159408149Y-93028568D01*
X159520920Y-92860961D01*
X159585275Y-92792186D01*
X159727474Y-92679199D01*
X159910301Y-92575210D01*
X160127618Y-92482492D01*
X160373292Y-92403320D01*
X160641185Y-92339965D01*
X160925163Y-92294701D01*
X160929406Y-92294185D01*
X161174298Y-92264504D01*
X161160140Y-92063888D01*
X161132744Y-91874695D01*
X161078400Y-91722882D01*
X160994655Y-91605427D01*
X160879053Y-91519311D01*
X160729138Y-91461512D01*
X160657382Y-91445336D01*
X160462047Y-91428324D01*
X160244932Y-91444596D01*
X160016199Y-91492625D01*
X159786009Y-91570887D01*
X159765744Y-91579286D01*
X159693099Y-91608105D01*
X159639879Y-91625919D01*
X159618730Y-91628984D01*
X159606683Y-91604047D01*
X159584013Y-91548443D01*
X159555955Y-91476009D01*
X159527740Y-91400582D01*
X159504602Y-91336000D01*
X159491776Y-91296098D01*
X159490690Y-91290444D01*
X159510467Y-91275025D01*
X159561808Y-91247760D01*
X159619514Y-91220900D01*
X159831566Y-91144188D01*
X160066693Y-91088450D01*
X160311880Y-91055002D01*
X160554113Y-91045163D01*
X160780377Y-91060249D01*
X160780377Y-91060249D01*
G37*
X160780377Y-91060249D02*
X160929924Y-91088245D01*
X161099663Y-91140285D01*
X161236625Y-91204868D01*
X161355006Y-91289481D01*
X161413211Y-91343167D01*
X161499050Y-91450368D01*
X161576120Y-91587618D01*
X161635844Y-91737725D01*
X161663425Y-91844821D01*
X161668899Y-91897998D01*
X161673814Y-91994485D01*
X161678096Y-92130349D01*
X161681670Y-92301658D01*
X161684462Y-92504480D01*
X161686398Y-92734882D01*
X161687404Y-92988932D01*
X161687536Y-93125107D01*
X161687536Y-94278255D01*
X161576824Y-94327228D01*
X161378592Y-94398446D01*
X161148954Y-94453470D01*
X160901476Y-94490579D01*
X160649725Y-94508050D01*
X160407268Y-94504164D01*
X160279383Y-94491857D01*
X160028817Y-94441934D01*
X159814647Y-94362578D01*
X159637304Y-94254257D01*
X159497220Y-94117443D01*
X159394826Y-93952605D01*
X159330553Y-93760213D01*
X159304831Y-93540739D01*
X159306076Y-93430559D01*
X159309086Y-93409731D01*
X159850305Y-93409731D01*
X159854699Y-93605157D01*
X159897167Y-93774059D01*
X159976803Y-93915031D01*
X160092696Y-94026664D01*
X160243940Y-94107552D01*
X160316292Y-94131597D01*
X160408722Y-94147401D01*
X160532503Y-94154595D01*
X160672643Y-94153744D01*
X160814148Y-94145410D01*
X160942025Y-94130159D01*
X161041281Y-94108554D01*
X161055647Y-94103784D01*
X161167852Y-94063427D01*
X161167852Y-92576282D01*
X161032026Y-92592670D01*
X160945341Y-92606307D01*
X160833116Y-92628308D01*
X160715397Y-92654648D01*
X160678384Y-92663701D01*
X160436222Y-92738151D01*
X160237372Y-92829629D01*
X160080695Y-92939162D01*
X159965051Y-93067776D01*
X159889302Y-93216497D01*
X159852306Y-93386353D01*
X159850305Y-93409731D01*
X159309086Y-93409731D01*
X159336832Y-93217754D01*
X159408149Y-93028568D01*
X159520920Y-92860961D01*
X159585275Y-92792186D01*
X159727474Y-92679199D01*
X159910301Y-92575210D01*
X160127618Y-92482492D01*
X160373292Y-92403320D01*
X160641185Y-92339965D01*
X160925163Y-92294701D01*
X160929406Y-92294185D01*
X161174298Y-92264504D01*
X161160140Y-92063888D01*
X161132744Y-91874695D01*
X161078400Y-91722882D01*
X160994655Y-91605427D01*
X160879053Y-91519311D01*
X160729138Y-91461512D01*
X160657382Y-91445336D01*
X160462047Y-91428324D01*
X160244932Y-91444596D01*
X160016199Y-91492625D01*
X159786009Y-91570887D01*
X159765744Y-91579286D01*
X159693099Y-91608105D01*
X159639879Y-91625919D01*
X159618730Y-91628984D01*
X159606683Y-91604047D01*
X159584013Y-91548443D01*
X159555955Y-91476009D01*
X159527740Y-91400582D01*
X159504602Y-91336000D01*
X159491776Y-91296098D01*
X159490690Y-91290444D01*
X159510467Y-91275025D01*
X159561808Y-91247760D01*
X159619514Y-91220900D01*
X159831566Y-91144188D01*
X160066693Y-91088450D01*
X160311880Y-91055002D01*
X160554113Y-91045163D01*
X160780377Y-91060249D01*
G36*
X154232072Y-90808576D02*
X154253270Y-90816934D01*
X154361749Y-90887342D01*
X154440862Y-90987636D01*
X154485170Y-91107183D01*
X154489233Y-91235352D01*
X154483474Y-91266833D01*
X154436565Y-91387846D01*
X154355440Y-91478574D01*
X154273613Y-91528477D01*
X154175740Y-91575696D01*
X154175740Y-92130864D01*
X154588014Y-92130864D01*
X154757783Y-91962228D01*
X154927553Y-91793591D01*
X154915010Y-91672065D01*
X154914865Y-91669512D01*
X155075309Y-91669512D01*
X155101722Y-91724566D01*
X155156743Y-91750221D01*
X155223279Y-91744756D01*
X155272476Y-91715792D01*
X155306227Y-91660433D01*
X155294381Y-91603722D01*
X155262352Y-91563936D01*
X155217412Y-91525812D01*
X155180177Y-91522005D01*
X155129558Y-91550896D01*
X155125876Y-91553464D01*
X155084112Y-91605806D01*
X155075309Y-91669512D01*
X154914865Y-91669512D01*
X154910564Y-91594201D01*
X154921000Y-91541385D01*
X154951807Y-91492366D01*
X154965818Y-91475252D01*
X155051656Y-91402669D01*
X155146094Y-91369504D01*
X155241156Y-91371398D01*
X155328867Y-91403993D01*
X155401251Y-91462934D01*
X155450334Y-91543860D01*
X155468140Y-91642415D01*
X155451486Y-91740621D01*
X155398254Y-91833633D01*
X155312832Y-91893517D01*
X155198953Y-91917836D01*
X155179657Y-91918266D01*
X155130327Y-91919979D01*
X155089334Y-91928812D01*
X155047502Y-91950310D01*
X154995655Y-91990016D01*
X154924616Y-92053474D01*
X154866840Y-92107242D01*
X154664858Y-92296218D01*
X154175740Y-92296218D01*
X154175740Y-92674170D01*
X155072163Y-92674170D01*
X155107162Y-92606489D01*
X155171092Y-92529466D01*
X155259279Y-92483360D01*
X155359010Y-92469669D01*
X155457571Y-92489895D01*
X155542252Y-92545536D01*
X155550455Y-92554195D01*
X155611515Y-92649841D01*
X155631827Y-92747406D01*
X155617072Y-92840086D01*
X155572933Y-92921077D01*
X155505094Y-92983573D01*
X155419237Y-93020770D01*
X155321044Y-93025864D01*
X155216198Y-92992049D01*
X155194870Y-92979981D01*
X155140202Y-92937218D01*
X155106349Y-92893288D01*
X155103532Y-92885581D01*
X155096976Y-92869697D01*
X155082579Y-92857951D01*
X155053997Y-92849720D01*
X155004891Y-92844385D01*
X154928918Y-92841323D01*
X154819735Y-92839912D01*
X154671002Y-92839531D01*
X154633614Y-92839524D01*
X154175740Y-92839524D01*
X154175740Y-93193854D01*
X154661034Y-93193854D01*
X155053285Y-93588153D01*
X155163724Y-93578665D01*
X155282120Y-93586916D01*
X155374140Y-93632895D01*
X155436834Y-93714779D01*
X155453139Y-93757512D01*
X155469129Y-93870493D01*
X155442007Y-93968090D01*
X155382807Y-94045536D01*
X155291302Y-94109541D01*
X155194082Y-94132765D01*
X155099612Y-94119490D01*
X155016360Y-94074001D01*
X154952793Y-94000581D01*
X154917377Y-93903512D01*
X154915826Y-93832593D01*
X155077870Y-93832593D01*
X155085561Y-93891359D01*
X155108162Y-93925421D01*
X155161916Y-93966858D01*
X155213735Y-93963443D01*
X155262352Y-93926136D01*
X155303359Y-93868502D01*
X155299509Y-93816900D01*
X155264300Y-93774356D01*
X155204559Y-93743578D01*
X155147092Y-93749296D01*
X155101621Y-93782103D01*
X155077870Y-93832593D01*
X154915826Y-93832593D01*
X154915310Y-93809035D01*
X154928526Y-93697447D01*
X154588014Y-93359208D01*
X154175740Y-93359208D01*
X154175740Y-93918961D01*
X154273134Y-93962879D01*
X154375367Y-94031987D01*
X154445872Y-94126535D01*
X154484384Y-94237001D01*
X154490640Y-94353867D01*
X154464376Y-94467613D01*
X154405330Y-94568718D01*
X154313237Y-94647662D01*
X154292411Y-94659152D01*
X154168719Y-94697862D01*
X154036978Y-94697868D01*
X153914650Y-94659223D01*
X153912303Y-94657995D01*
X153815445Y-94582955D01*
X153751793Y-94484232D01*
X153721013Y-94371413D01*
X153721844Y-94315899D01*
X153882827Y-94315899D01*
X153892414Y-94386165D01*
X153928480Y-94442977D01*
X153958790Y-94472435D01*
X154046174Y-94528137D01*
X154132213Y-94536711D01*
X154218880Y-94498158D01*
X154250958Y-94472435D01*
X154303821Y-94414013D01*
X154324886Y-94353095D01*
X154326921Y-94315899D01*
X154305661Y-94230071D01*
X154250301Y-94155709D01*
X154173470Y-94105575D01*
X154104874Y-94091490D01*
X154019950Y-94112976D01*
X153946370Y-94168925D01*
X153896764Y-94246574D01*
X153882827Y-94315899D01*
X153721844Y-94315899D01*
X153722769Y-94254086D01*
X153756726Y-94141838D01*
X153822548Y-94044256D01*
X153919900Y-93970929D01*
X153936614Y-93962879D01*
X154034008Y-93918961D01*
X154034008Y-93359208D01*
X153621734Y-93359208D01*
X153281222Y-93697447D01*
X153294438Y-93809035D01*
X153288501Y-93922334D01*
X153247454Y-94015506D01*
X153179762Y-94084267D01*
X153093894Y-94124334D01*
X152998315Y-94131424D01*
X152901492Y-94101252D01*
X152826941Y-94045536D01*
X152761263Y-93955034D01*
X152740306Y-93855740D01*
X152745134Y-93826646D01*
X152906160Y-93826646D01*
X152910669Y-93878652D01*
X152947396Y-93926136D01*
X153004907Y-93967110D01*
X153056469Y-93963247D01*
X153100078Y-93927088D01*
X153129667Y-93866326D01*
X153121885Y-93804658D01*
X153081006Y-93758261D01*
X153052383Y-93746531D01*
X152982704Y-93749939D01*
X152946444Y-93773454D01*
X152906160Y-93826646D01*
X152745134Y-93826646D01*
X152756609Y-93757512D01*
X152806650Y-93661676D01*
X152887208Y-93601009D01*
X152995330Y-93577335D01*
X153046024Y-93578665D01*
X153156463Y-93588153D01*
X153548714Y-93193854D01*
X154034008Y-93193854D01*
X154034008Y-92839524D01*
X153574971Y-92839524D01*
X153416942Y-92839726D01*
X153299761Y-92840770D01*
X153217032Y-92843317D01*
X153162359Y-92848024D01*
X153129346Y-92855549D01*
X153111597Y-92866553D01*
X153102716Y-92881693D01*
X153100422Y-92888398D01*
X153062321Y-92942795D01*
X152993838Y-92990408D01*
X152911747Y-93021562D01*
X152857640Y-93028412D01*
X152748573Y-93008662D01*
X152663340Y-92955135D01*
X152605702Y-92876820D01*
X152579418Y-92782705D01*
X152582233Y-92750539D01*
X152738065Y-92750539D01*
X152744906Y-92784638D01*
X152768770Y-92814288D01*
X152830607Y-92856975D01*
X152893726Y-92853989D01*
X152933898Y-92826026D01*
X152967897Y-92765128D01*
X152960653Y-92725625D01*
X155242250Y-92725625D01*
X155251195Y-92791878D01*
X155275850Y-92826026D01*
X155336402Y-92860013D01*
X155399771Y-92848036D01*
X155440978Y-92814288D01*
X155469751Y-92775131D01*
X155468399Y-92739529D01*
X155449755Y-92702083D01*
X155399765Y-92647575D01*
X155339664Y-92632173D01*
X155281487Y-92658615D01*
X155277107Y-92662789D01*
X155242250Y-92725625D01*
X152960653Y-92725625D01*
X152956268Y-92701715D01*
X152925532Y-92663949D01*
X152864761Y-92632318D01*
X152807266Y-92646822D01*
X152760015Y-92702250D01*
X152738065Y-92750539D01*
X152582233Y-92750539D01*
X152588250Y-92681780D01*
X152635955Y-92583034D01*
X152659293Y-92554195D01*
X152743656Y-92492343D01*
X152842097Y-92468548D01*
X152942639Y-92481456D01*
X153033303Y-92529714D01*
X153097407Y-92603686D01*
X153139043Y-92674170D01*
X154034008Y-92674170D01*
X154034008Y-92296218D01*
X153544890Y-92296218D01*
X153342908Y-92107242D01*
X153255716Y-92026478D01*
X153193429Y-91972774D01*
X153146732Y-91940617D01*
X153106312Y-91924493D01*
X153062856Y-91918886D01*
X153023725Y-91918266D01*
X152907601Y-91901329D01*
X152822640Y-91849432D01*
X152766521Y-91760946D01*
X152755891Y-91730163D01*
X152745615Y-91644926D01*
X152900152Y-91644926D01*
X152920469Y-91698824D01*
X152970301Y-91736435D01*
X153032962Y-91751368D01*
X153091772Y-91737230D01*
X153108026Y-91724566D01*
X153134531Y-91668820D01*
X153125351Y-91605133D01*
X153083872Y-91553464D01*
X153038627Y-91526077D01*
X153013006Y-91516692D01*
X152978768Y-91534400D01*
X152938156Y-91575295D01*
X152907314Y-91621032D01*
X152900152Y-91644926D01*
X152745615Y-91644926D01*
X152742526Y-91619299D01*
X152767119Y-91523349D01*
X152821612Y-91446521D01*
X152897948Y-91393024D01*
X152988069Y-91367066D01*
X153083916Y-91372855D01*
X153177433Y-91414601D01*
X153243930Y-91475252D01*
X153281906Y-91527270D01*
X153297869Y-91576718D01*
X153297305Y-91644850D01*
X153294738Y-91672065D01*
X153282195Y-91793591D01*
X153451964Y-91962228D01*
X153621734Y-92130864D01*
X154034008Y-92130864D01*
X154034008Y-91573028D01*
X153940087Y-91531590D01*
X153830138Y-91460446D01*
X153755749Y-91358691D01*
X153726953Y-91280587D01*
X153715809Y-91169573D01*
X153877364Y-91169573D01*
X153886256Y-91223751D01*
X153903282Y-91263627D01*
X153963782Y-91345103D01*
X154044211Y-91389430D01*
X154134124Y-91393931D01*
X154223073Y-91355927D01*
X154233373Y-91348236D01*
X154303065Y-91273028D01*
X154326735Y-91191360D01*
X154308001Y-91105264D01*
X154250712Y-91016824D01*
X154175087Y-90966230D01*
X154090845Y-90953319D01*
X154007705Y-90977924D01*
X153935383Y-91039879D01*
X153893427Y-91112340D01*
X153877364Y-91169573D01*
X153715809Y-91169573D01*
X153714216Y-91153713D01*
X153741262Y-91036538D01*
X153801200Y-90935131D01*
X153887139Y-90855562D01*
X153992192Y-90803900D01*
X154109466Y-90786214D01*
X154232072Y-90808576D01*
X154232072Y-90808576D01*
G37*
X154232072Y-90808576D02*
X154253270Y-90816934D01*
X154361749Y-90887342D01*
X154440862Y-90987636D01*
X154485170Y-91107183D01*
X154489233Y-91235352D01*
X154483474Y-91266833D01*
X154436565Y-91387846D01*
X154355440Y-91478574D01*
X154273613Y-91528477D01*
X154175740Y-91575696D01*
X154175740Y-92130864D01*
X154588014Y-92130864D01*
X154757783Y-91962228D01*
X154927553Y-91793591D01*
X154915010Y-91672065D01*
X154914865Y-91669512D01*
X155075309Y-91669512D01*
X155101722Y-91724566D01*
X155156743Y-91750221D01*
X155223279Y-91744756D01*
X155272476Y-91715792D01*
X155306227Y-91660433D01*
X155294381Y-91603722D01*
X155262352Y-91563936D01*
X155217412Y-91525812D01*
X155180177Y-91522005D01*
X155129558Y-91550896D01*
X155125876Y-91553464D01*
X155084112Y-91605806D01*
X155075309Y-91669512D01*
X154914865Y-91669512D01*
X154910564Y-91594201D01*
X154921000Y-91541385D01*
X154951807Y-91492366D01*
X154965818Y-91475252D01*
X155051656Y-91402669D01*
X155146094Y-91369504D01*
X155241156Y-91371398D01*
X155328867Y-91403993D01*
X155401251Y-91462934D01*
X155450334Y-91543860D01*
X155468140Y-91642415D01*
X155451486Y-91740621D01*
X155398254Y-91833633D01*
X155312832Y-91893517D01*
X155198953Y-91917836D01*
X155179657Y-91918266D01*
X155130327Y-91919979D01*
X155089334Y-91928812D01*
X155047502Y-91950310D01*
X154995655Y-91990016D01*
X154924616Y-92053474D01*
X154866840Y-92107242D01*
X154664858Y-92296218D01*
X154175740Y-92296218D01*
X154175740Y-92674170D01*
X155072163Y-92674170D01*
X155107162Y-92606489D01*
X155171092Y-92529466D01*
X155259279Y-92483360D01*
X155359010Y-92469669D01*
X155457571Y-92489895D01*
X155542252Y-92545536D01*
X155550455Y-92554195D01*
X155611515Y-92649841D01*
X155631827Y-92747406D01*
X155617072Y-92840086D01*
X155572933Y-92921077D01*
X155505094Y-92983573D01*
X155419237Y-93020770D01*
X155321044Y-93025864D01*
X155216198Y-92992049D01*
X155194870Y-92979981D01*
X155140202Y-92937218D01*
X155106349Y-92893288D01*
X155103532Y-92885581D01*
X155096976Y-92869697D01*
X155082579Y-92857951D01*
X155053997Y-92849720D01*
X155004891Y-92844385D01*
X154928918Y-92841323D01*
X154819735Y-92839912D01*
X154671002Y-92839531D01*
X154633614Y-92839524D01*
X154175740Y-92839524D01*
X154175740Y-93193854D01*
X154661034Y-93193854D01*
X155053285Y-93588153D01*
X155163724Y-93578665D01*
X155282120Y-93586916D01*
X155374140Y-93632895D01*
X155436834Y-93714779D01*
X155453139Y-93757512D01*
X155469129Y-93870493D01*
X155442007Y-93968090D01*
X155382807Y-94045536D01*
X155291302Y-94109541D01*
X155194082Y-94132765D01*
X155099612Y-94119490D01*
X155016360Y-94074001D01*
X154952793Y-94000581D01*
X154917377Y-93903512D01*
X154915826Y-93832593D01*
X155077870Y-93832593D01*
X155085561Y-93891359D01*
X155108162Y-93925421D01*
X155161916Y-93966858D01*
X155213735Y-93963443D01*
X155262352Y-93926136D01*
X155303359Y-93868502D01*
X155299509Y-93816900D01*
X155264300Y-93774356D01*
X155204559Y-93743578D01*
X155147092Y-93749296D01*
X155101621Y-93782103D01*
X155077870Y-93832593D01*
X154915826Y-93832593D01*
X154915310Y-93809035D01*
X154928526Y-93697447D01*
X154588014Y-93359208D01*
X154175740Y-93359208D01*
X154175740Y-93918961D01*
X154273134Y-93962879D01*
X154375367Y-94031987D01*
X154445872Y-94126535D01*
X154484384Y-94237001D01*
X154490640Y-94353867D01*
X154464376Y-94467613D01*
X154405330Y-94568718D01*
X154313237Y-94647662D01*
X154292411Y-94659152D01*
X154168719Y-94697862D01*
X154036978Y-94697868D01*
X153914650Y-94659223D01*
X153912303Y-94657995D01*
X153815445Y-94582955D01*
X153751793Y-94484232D01*
X153721013Y-94371413D01*
X153721844Y-94315899D01*
X153882827Y-94315899D01*
X153892414Y-94386165D01*
X153928480Y-94442977D01*
X153958790Y-94472435D01*
X154046174Y-94528137D01*
X154132213Y-94536711D01*
X154218880Y-94498158D01*
X154250958Y-94472435D01*
X154303821Y-94414013D01*
X154324886Y-94353095D01*
X154326921Y-94315899D01*
X154305661Y-94230071D01*
X154250301Y-94155709D01*
X154173470Y-94105575D01*
X154104874Y-94091490D01*
X154019950Y-94112976D01*
X153946370Y-94168925D01*
X153896764Y-94246574D01*
X153882827Y-94315899D01*
X153721844Y-94315899D01*
X153722769Y-94254086D01*
X153756726Y-94141838D01*
X153822548Y-94044256D01*
X153919900Y-93970929D01*
X153936614Y-93962879D01*
X154034008Y-93918961D01*
X154034008Y-93359208D01*
X153621734Y-93359208D01*
X153281222Y-93697447D01*
X153294438Y-93809035D01*
X153288501Y-93922334D01*
X153247454Y-94015506D01*
X153179762Y-94084267D01*
X153093894Y-94124334D01*
X152998315Y-94131424D01*
X152901492Y-94101252D01*
X152826941Y-94045536D01*
X152761263Y-93955034D01*
X152740306Y-93855740D01*
X152745134Y-93826646D01*
X152906160Y-93826646D01*
X152910669Y-93878652D01*
X152947396Y-93926136D01*
X153004907Y-93967110D01*
X153056469Y-93963247D01*
X153100078Y-93927088D01*
X153129667Y-93866326D01*
X153121885Y-93804658D01*
X153081006Y-93758261D01*
X153052383Y-93746531D01*
X152982704Y-93749939D01*
X152946444Y-93773454D01*
X152906160Y-93826646D01*
X152745134Y-93826646D01*
X152756609Y-93757512D01*
X152806650Y-93661676D01*
X152887208Y-93601009D01*
X152995330Y-93577335D01*
X153046024Y-93578665D01*
X153156463Y-93588153D01*
X153548714Y-93193854D01*
X154034008Y-93193854D01*
X154034008Y-92839524D01*
X153574971Y-92839524D01*
X153416942Y-92839726D01*
X153299761Y-92840770D01*
X153217032Y-92843317D01*
X153162359Y-92848024D01*
X153129346Y-92855549D01*
X153111597Y-92866553D01*
X153102716Y-92881693D01*
X153100422Y-92888398D01*
X153062321Y-92942795D01*
X152993838Y-92990408D01*
X152911747Y-93021562D01*
X152857640Y-93028412D01*
X152748573Y-93008662D01*
X152663340Y-92955135D01*
X152605702Y-92876820D01*
X152579418Y-92782705D01*
X152582233Y-92750539D01*
X152738065Y-92750539D01*
X152744906Y-92784638D01*
X152768770Y-92814288D01*
X152830607Y-92856975D01*
X152893726Y-92853989D01*
X152933898Y-92826026D01*
X152967897Y-92765128D01*
X152960653Y-92725625D01*
X155242250Y-92725625D01*
X155251195Y-92791878D01*
X155275850Y-92826026D01*
X155336402Y-92860013D01*
X155399771Y-92848036D01*
X155440978Y-92814288D01*
X155469751Y-92775131D01*
X155468399Y-92739529D01*
X155449755Y-92702083D01*
X155399765Y-92647575D01*
X155339664Y-92632173D01*
X155281487Y-92658615D01*
X155277107Y-92662789D01*
X155242250Y-92725625D01*
X152960653Y-92725625D01*
X152956268Y-92701715D01*
X152925532Y-92663949D01*
X152864761Y-92632318D01*
X152807266Y-92646822D01*
X152760015Y-92702250D01*
X152738065Y-92750539D01*
X152582233Y-92750539D01*
X152588250Y-92681780D01*
X152635955Y-92583034D01*
X152659293Y-92554195D01*
X152743656Y-92492343D01*
X152842097Y-92468548D01*
X152942639Y-92481456D01*
X153033303Y-92529714D01*
X153097407Y-92603686D01*
X153139043Y-92674170D01*
X154034008Y-92674170D01*
X154034008Y-92296218D01*
X153544890Y-92296218D01*
X153342908Y-92107242D01*
X153255716Y-92026478D01*
X153193429Y-91972774D01*
X153146732Y-91940617D01*
X153106312Y-91924493D01*
X153062856Y-91918886D01*
X153023725Y-91918266D01*
X152907601Y-91901329D01*
X152822640Y-91849432D01*
X152766521Y-91760946D01*
X152755891Y-91730163D01*
X152745615Y-91644926D01*
X152900152Y-91644926D01*
X152920469Y-91698824D01*
X152970301Y-91736435D01*
X153032962Y-91751368D01*
X153091772Y-91737230D01*
X153108026Y-91724566D01*
X153134531Y-91668820D01*
X153125351Y-91605133D01*
X153083872Y-91553464D01*
X153038627Y-91526077D01*
X153013006Y-91516692D01*
X152978768Y-91534400D01*
X152938156Y-91575295D01*
X152907314Y-91621032D01*
X152900152Y-91644926D01*
X152745615Y-91644926D01*
X152742526Y-91619299D01*
X152767119Y-91523349D01*
X152821612Y-91446521D01*
X152897948Y-91393024D01*
X152988069Y-91367066D01*
X153083916Y-91372855D01*
X153177433Y-91414601D01*
X153243930Y-91475252D01*
X153281906Y-91527270D01*
X153297869Y-91576718D01*
X153297305Y-91644850D01*
X153294738Y-91672065D01*
X153282195Y-91793591D01*
X153451964Y-91962228D01*
X153621734Y-92130864D01*
X154034008Y-92130864D01*
X154034008Y-91573028D01*
X153940087Y-91531590D01*
X153830138Y-91460446D01*
X153755749Y-91358691D01*
X153726953Y-91280587D01*
X153715809Y-91169573D01*
X153877364Y-91169573D01*
X153886256Y-91223751D01*
X153903282Y-91263627D01*
X153963782Y-91345103D01*
X154044211Y-91389430D01*
X154134124Y-91393931D01*
X154223073Y-91355927D01*
X154233373Y-91348236D01*
X154303065Y-91273028D01*
X154326735Y-91191360D01*
X154308001Y-91105264D01*
X154250712Y-91016824D01*
X154175087Y-90966230D01*
X154090845Y-90953319D01*
X154007705Y-90977924D01*
X153935383Y-91039879D01*
X153893427Y-91112340D01*
X153877364Y-91169573D01*
X153715809Y-91169573D01*
X153714216Y-91153713D01*
X153741262Y-91036538D01*
X153801200Y-90935131D01*
X153887139Y-90855562D01*
X153992192Y-90803900D01*
X154109466Y-90786214D01*
X154232072Y-90808576D01*
D13*
G36*
X101797401Y-119413077D02*
X101797403Y-119413078D01*
X101797404Y-119413078D01*
X101911755Y-119460444D01*
X102106967Y-119541303D01*
X102385568Y-119727458D01*
X102622492Y-119964382D01*
X102808647Y-120242983D01*
X102936873Y-120552549D01*
X103002241Y-120881174D01*
X103002241Y-121216244D01*
X102936873Y-121544869D01*
X102808647Y-121854435D01*
X102622492Y-122133036D01*
X102385568Y-122369960D01*
X102106967Y-122556115D01*
X101911755Y-122636974D01*
X101797404Y-122684340D01*
X101797403Y-122684340D01*
X101797401Y-122684341D01*
X101468776Y-122749709D01*
X101133706Y-122749709D01*
X100805081Y-122684341D01*
X100805079Y-122684340D01*
X100805078Y-122684340D01*
X100690727Y-122636974D01*
X100495515Y-122556115D01*
X100216914Y-122369960D01*
X99979990Y-122133036D01*
X99793835Y-121854435D01*
X99665609Y-121544869D01*
X99600241Y-121216244D01*
X99600241Y-120881174D01*
X99665609Y-120552549D01*
X99793835Y-120242983D01*
X99979990Y-119964382D01*
X100216914Y-119727458D01*
X100495515Y-119541303D01*
X100690727Y-119460444D01*
X100805078Y-119413078D01*
X100805079Y-119413078D01*
X100805081Y-119413077D01*
X101133706Y-119347709D01*
X101468776Y-119347709D01*
X101797401Y-119413077D01*
X101797401Y-119413077D01*
G37*
G36*
X181577806Y-119708098D02*
X181769075Y-119787324D01*
X181941217Y-119902346D01*
X182087604Y-120048733D01*
X182202626Y-120220875D01*
X182281852Y-120412144D01*
X182322241Y-120615193D01*
X182322241Y-120822225D01*
X182281852Y-121025274D01*
X182202626Y-121216543D01*
X182087604Y-121388685D01*
X181941217Y-121535072D01*
X181769075Y-121650094D01*
X181577806Y-121729320D01*
X181374757Y-121769709D01*
X181167725Y-121769709D01*
X180964676Y-121729320D01*
X180773407Y-121650094D01*
X180601265Y-121535072D01*
X180454878Y-121388685D01*
X180339856Y-121216543D01*
X180260630Y-121025274D01*
X180220241Y-120822225D01*
X180220241Y-120615193D01*
X180260630Y-120412144D01*
X180339856Y-120220875D01*
X180454878Y-120048733D01*
X180601265Y-119902346D01*
X180773407Y-119787324D01*
X180964676Y-119708098D01*
X181167725Y-119667709D01*
X181374757Y-119667709D01*
X181577806Y-119708098D01*
X181577806Y-119708098D01*
G37*
G36*
X150957806Y-119708098D02*
X151149075Y-119787324D01*
X151321217Y-119902346D01*
X151467604Y-120048733D01*
X151582626Y-120220875D01*
X151661852Y-120412144D01*
X151702241Y-120615193D01*
X151702241Y-120822225D01*
X151661852Y-121025274D01*
X151582626Y-121216543D01*
X151467604Y-121388685D01*
X151321217Y-121535072D01*
X151149075Y-121650094D01*
X150957806Y-121729320D01*
X150754757Y-121769709D01*
X150547725Y-121769709D01*
X150344676Y-121729320D01*
X150153407Y-121650094D01*
X149981265Y-121535072D01*
X149834878Y-121388685D01*
X149719856Y-121216543D01*
X149640630Y-121025274D01*
X149600241Y-120822225D01*
X149600241Y-120615193D01*
X149640630Y-120412144D01*
X149719856Y-120220875D01*
X149834878Y-120048733D01*
X149981265Y-119902346D01*
X150153407Y-119787324D01*
X150344676Y-119708098D01*
X150547725Y-119667709D01*
X150754757Y-119667709D01*
X150957806Y-119708098D01*
X150957806Y-119708098D01*
G37*
G36*
X153497806Y-119708098D02*
X153689075Y-119787324D01*
X153861217Y-119902346D01*
X154007604Y-120048733D01*
X154122626Y-120220875D01*
X154201852Y-120412144D01*
X154242241Y-120615193D01*
X154242241Y-120822225D01*
X154201852Y-121025274D01*
X154122626Y-121216543D01*
X154007604Y-121388685D01*
X153861217Y-121535072D01*
X153689075Y-121650094D01*
X153497806Y-121729320D01*
X153294757Y-121769709D01*
X153087725Y-121769709D01*
X152884676Y-121729320D01*
X152693407Y-121650094D01*
X152521265Y-121535072D01*
X152374878Y-121388685D01*
X152259856Y-121216543D01*
X152180630Y-121025274D01*
X152140241Y-120822225D01*
X152140241Y-120615193D01*
X152180630Y-120412144D01*
X152259856Y-120220875D01*
X152374878Y-120048733D01*
X152521265Y-119902346D01*
X152693407Y-119787324D01*
X152884676Y-119708098D01*
X153087725Y-119667709D01*
X153294757Y-119667709D01*
X153497806Y-119708098D01*
X153497806Y-119708098D01*
G37*
G36*
X156037806Y-119708098D02*
X156229075Y-119787324D01*
X156401217Y-119902346D01*
X156547604Y-120048733D01*
X156662626Y-120220875D01*
X156741852Y-120412144D01*
X156782241Y-120615193D01*
X156782241Y-120822225D01*
X156741852Y-121025274D01*
X156662626Y-121216543D01*
X156547604Y-121388685D01*
X156401217Y-121535072D01*
X156229075Y-121650094D01*
X156037806Y-121729320D01*
X155834757Y-121769709D01*
X155627725Y-121769709D01*
X155424676Y-121729320D01*
X155233407Y-121650094D01*
X155061265Y-121535072D01*
X154914878Y-121388685D01*
X154799856Y-121216543D01*
X154720630Y-121025274D01*
X154680241Y-120822225D01*
X154680241Y-120615193D01*
X154720630Y-120412144D01*
X154799856Y-120220875D01*
X154914878Y-120048733D01*
X155061265Y-119902346D01*
X155233407Y-119787324D01*
X155424676Y-119708098D01*
X155627725Y-119667709D01*
X155834757Y-119667709D01*
X156037806Y-119708098D01*
X156037806Y-119708098D01*
G37*
G36*
X158577806Y-119708098D02*
X158769075Y-119787324D01*
X158941217Y-119902346D01*
X159087604Y-120048733D01*
X159202626Y-120220875D01*
X159281852Y-120412144D01*
X159322241Y-120615193D01*
X159322241Y-120822225D01*
X159281852Y-121025274D01*
X159202626Y-121216543D01*
X159087604Y-121388685D01*
X158941217Y-121535072D01*
X158769075Y-121650094D01*
X158577806Y-121729320D01*
X158374757Y-121769709D01*
X158167725Y-121769709D01*
X157964676Y-121729320D01*
X157773407Y-121650094D01*
X157601265Y-121535072D01*
X157454878Y-121388685D01*
X157339856Y-121216543D01*
X157260630Y-121025274D01*
X157220241Y-120822225D01*
X157220241Y-120615193D01*
X157260630Y-120412144D01*
X157339856Y-120220875D01*
X157454878Y-120048733D01*
X157601265Y-119902346D01*
X157773407Y-119787324D01*
X157964676Y-119708098D01*
X158167725Y-119667709D01*
X158374757Y-119667709D01*
X158577806Y-119708098D01*
X158577806Y-119708098D01*
G37*
G36*
X161117806Y-119708098D02*
X161309075Y-119787324D01*
X161481217Y-119902346D01*
X161627604Y-120048733D01*
X161742626Y-120220875D01*
X161821852Y-120412144D01*
X161862241Y-120615193D01*
X161862241Y-120822225D01*
X161821852Y-121025274D01*
X161742626Y-121216543D01*
X161627604Y-121388685D01*
X161481217Y-121535072D01*
X161309075Y-121650094D01*
X161117806Y-121729320D01*
X160914757Y-121769709D01*
X160707725Y-121769709D01*
X160504676Y-121729320D01*
X160313407Y-121650094D01*
X160141265Y-121535072D01*
X159994878Y-121388685D01*
X159879856Y-121216543D01*
X159800630Y-121025274D01*
X159760241Y-120822225D01*
X159760241Y-120615193D01*
X159800630Y-120412144D01*
X159879856Y-120220875D01*
X159994878Y-120048733D01*
X160141265Y-119902346D01*
X160313407Y-119787324D01*
X160504676Y-119708098D01*
X160707725Y-119667709D01*
X160914757Y-119667709D01*
X161117806Y-119708098D01*
X161117806Y-119708098D01*
G37*
G36*
X163657806Y-119708098D02*
X163849075Y-119787324D01*
X164021217Y-119902346D01*
X164167604Y-120048733D01*
X164282626Y-120220875D01*
X164361852Y-120412144D01*
X164402241Y-120615193D01*
X164402241Y-120822225D01*
X164361852Y-121025274D01*
X164282626Y-121216543D01*
X164167604Y-121388685D01*
X164021217Y-121535072D01*
X163849075Y-121650094D01*
X163657806Y-121729320D01*
X163454757Y-121769709D01*
X163247725Y-121769709D01*
X163044676Y-121729320D01*
X162853407Y-121650094D01*
X162681265Y-121535072D01*
X162534878Y-121388685D01*
X162419856Y-121216543D01*
X162340630Y-121025274D01*
X162300241Y-120822225D01*
X162300241Y-120615193D01*
X162340630Y-120412144D01*
X162419856Y-120220875D01*
X162534878Y-120048733D01*
X162681265Y-119902346D01*
X162853407Y-119787324D01*
X163044676Y-119708098D01*
X163247725Y-119667709D01*
X163454757Y-119667709D01*
X163657806Y-119708098D01*
X163657806Y-119708098D01*
G37*
G36*
X173957806Y-119708098D02*
X174149075Y-119787324D01*
X174321217Y-119902346D01*
X174467604Y-120048733D01*
X174582626Y-120220875D01*
X174661852Y-120412144D01*
X174702241Y-120615193D01*
X174702241Y-120822225D01*
X174661852Y-121025274D01*
X174582626Y-121216543D01*
X174467604Y-121388685D01*
X174321217Y-121535072D01*
X174149075Y-121650094D01*
X173957806Y-121729320D01*
X173754757Y-121769709D01*
X173547725Y-121769709D01*
X173344676Y-121729320D01*
X173153407Y-121650094D01*
X172981265Y-121535072D01*
X172834878Y-121388685D01*
X172719856Y-121216543D01*
X172640630Y-121025274D01*
X172600241Y-120822225D01*
X172600241Y-120615193D01*
X172640630Y-120412144D01*
X172719856Y-120220875D01*
X172834878Y-120048733D01*
X172981265Y-119902346D01*
X173153407Y-119787324D01*
X173344676Y-119708098D01*
X173547725Y-119667709D01*
X173754757Y-119667709D01*
X173957806Y-119708098D01*
X173957806Y-119708098D01*
G37*
G36*
X176497806Y-119708098D02*
X176689075Y-119787324D01*
X176861217Y-119902346D01*
X177007604Y-120048733D01*
X177122626Y-120220875D01*
X177201852Y-120412144D01*
X177242241Y-120615193D01*
X177242241Y-120822225D01*
X177201852Y-121025274D01*
X177122626Y-121216543D01*
X177007604Y-121388685D01*
X176861217Y-121535072D01*
X176689075Y-121650094D01*
X176497806Y-121729320D01*
X176294757Y-121769709D01*
X176087725Y-121769709D01*
X175884676Y-121729320D01*
X175693407Y-121650094D01*
X175521265Y-121535072D01*
X175374878Y-121388685D01*
X175259856Y-121216543D01*
X175180630Y-121025274D01*
X175140241Y-120822225D01*
X175140241Y-120615193D01*
X175180630Y-120412144D01*
X175259856Y-120220875D01*
X175374878Y-120048733D01*
X175521265Y-119902346D01*
X175693407Y-119787324D01*
X175884676Y-119708098D01*
X176087725Y-119667709D01*
X176294757Y-119667709D01*
X176497806Y-119708098D01*
X176497806Y-119708098D01*
G37*
G36*
X184117806Y-119708098D02*
X184309075Y-119787324D01*
X184481217Y-119902346D01*
X184627604Y-120048733D01*
X184742626Y-120220875D01*
X184821852Y-120412144D01*
X184862241Y-120615193D01*
X184862241Y-120822225D01*
X184821852Y-121025274D01*
X184742626Y-121216543D01*
X184627604Y-121388685D01*
X184481217Y-121535072D01*
X184309075Y-121650094D01*
X184117806Y-121729320D01*
X183914757Y-121769709D01*
X183707725Y-121769709D01*
X183504676Y-121729320D01*
X183313407Y-121650094D01*
X183141265Y-121535072D01*
X182994878Y-121388685D01*
X182879856Y-121216543D01*
X182800630Y-121025274D01*
X182760241Y-120822225D01*
X182760241Y-120615193D01*
X182800630Y-120412144D01*
X182879856Y-120220875D01*
X182994878Y-120048733D01*
X183141265Y-119902346D01*
X183313407Y-119787324D01*
X183504676Y-119708098D01*
X183707725Y-119667709D01*
X183914757Y-119667709D01*
X184117806Y-119708098D01*
X184117806Y-119708098D01*
G37*
G36*
X186657806Y-119708098D02*
X186849075Y-119787324D01*
X187021217Y-119902346D01*
X187167604Y-120048733D01*
X187282626Y-120220875D01*
X187361852Y-120412144D01*
X187402241Y-120615193D01*
X187402241Y-120822225D01*
X187361852Y-121025274D01*
X187282626Y-121216543D01*
X187167604Y-121388685D01*
X187021217Y-121535072D01*
X186849075Y-121650094D01*
X186657806Y-121729320D01*
X186454757Y-121769709D01*
X186247725Y-121769709D01*
X186044676Y-121729320D01*
X185853407Y-121650094D01*
X185681265Y-121535072D01*
X185534878Y-121388685D01*
X185419856Y-121216543D01*
X185340630Y-121025274D01*
X185300241Y-120822225D01*
X185300241Y-120615193D01*
X185340630Y-120412144D01*
X185419856Y-120220875D01*
X185534878Y-120048733D01*
X185681265Y-119902346D01*
X185853407Y-119787324D01*
X186044676Y-119708098D01*
X186247725Y-119667709D01*
X186454757Y-119667709D01*
X186657806Y-119708098D01*
X186657806Y-119708098D01*
G37*
G36*
X127957806Y-119708098D02*
X128149075Y-119787324D01*
X128321217Y-119902346D01*
X128467604Y-120048733D01*
X128582626Y-120220875D01*
X128661852Y-120412144D01*
X128702241Y-120615193D01*
X128702241Y-120822225D01*
X128661852Y-121025274D01*
X128582626Y-121216543D01*
X128467604Y-121388685D01*
X128321217Y-121535072D01*
X128149075Y-121650094D01*
X127957806Y-121729320D01*
X127754757Y-121769709D01*
X127547725Y-121769709D01*
X127344676Y-121729320D01*
X127153407Y-121650094D01*
X126981265Y-121535072D01*
X126834878Y-121388685D01*
X126719856Y-121216543D01*
X126640630Y-121025274D01*
X126600241Y-120822225D01*
X126600241Y-120615193D01*
X126640630Y-120412144D01*
X126719856Y-120220875D01*
X126834878Y-120048733D01*
X126981265Y-119902346D01*
X127153407Y-119787324D01*
X127344676Y-119708098D01*
X127547725Y-119667709D01*
X127754757Y-119667709D01*
X127957806Y-119708098D01*
X127957806Y-119708098D01*
G37*
G36*
X130497806Y-119708098D02*
X130689075Y-119787324D01*
X130861217Y-119902346D01*
X131007604Y-120048733D01*
X131122626Y-120220875D01*
X131201852Y-120412144D01*
X131242241Y-120615193D01*
X131242241Y-120822225D01*
X131201852Y-121025274D01*
X131122626Y-121216543D01*
X131007604Y-121388685D01*
X130861217Y-121535072D01*
X130689075Y-121650094D01*
X130497806Y-121729320D01*
X130294757Y-121769709D01*
X130087725Y-121769709D01*
X129884676Y-121729320D01*
X129693407Y-121650094D01*
X129521265Y-121535072D01*
X129374878Y-121388685D01*
X129259856Y-121216543D01*
X129180630Y-121025274D01*
X129140241Y-120822225D01*
X129140241Y-120615193D01*
X129180630Y-120412144D01*
X129259856Y-120220875D01*
X129374878Y-120048733D01*
X129521265Y-119902346D01*
X129693407Y-119787324D01*
X129884676Y-119708098D01*
X130087725Y-119667709D01*
X130294757Y-119667709D01*
X130497806Y-119708098D01*
X130497806Y-119708098D01*
G37*
G36*
X133037806Y-119708098D02*
X133229075Y-119787324D01*
X133401217Y-119902346D01*
X133547604Y-120048733D01*
X133662626Y-120220875D01*
X133741852Y-120412144D01*
X133782241Y-120615193D01*
X133782241Y-120822225D01*
X133741852Y-121025274D01*
X133662626Y-121216543D01*
X133547604Y-121388685D01*
X133401217Y-121535072D01*
X133229075Y-121650094D01*
X133037806Y-121729320D01*
X132834757Y-121769709D01*
X132627725Y-121769709D01*
X132424676Y-121729320D01*
X132233407Y-121650094D01*
X132061265Y-121535072D01*
X131914878Y-121388685D01*
X131799856Y-121216543D01*
X131720630Y-121025274D01*
X131680241Y-120822225D01*
X131680241Y-120615193D01*
X131720630Y-120412144D01*
X131799856Y-120220875D01*
X131914878Y-120048733D01*
X132061265Y-119902346D01*
X132233407Y-119787324D01*
X132424676Y-119708098D01*
X132627725Y-119667709D01*
X132834757Y-119667709D01*
X133037806Y-119708098D01*
X133037806Y-119708098D01*
G37*
G36*
X135577806Y-119708098D02*
X135769075Y-119787324D01*
X135941217Y-119902346D01*
X136087604Y-120048733D01*
X136202626Y-120220875D01*
X136281852Y-120412144D01*
X136322241Y-120615193D01*
X136322241Y-120822225D01*
X136281852Y-121025274D01*
X136202626Y-121216543D01*
X136087604Y-121388685D01*
X135941217Y-121535072D01*
X135769075Y-121650094D01*
X135577806Y-121729320D01*
X135374757Y-121769709D01*
X135167725Y-121769709D01*
X134964676Y-121729320D01*
X134773407Y-121650094D01*
X134601265Y-121535072D01*
X134454878Y-121388685D01*
X134339856Y-121216543D01*
X134260630Y-121025274D01*
X134220241Y-120822225D01*
X134220241Y-120615193D01*
X134260630Y-120412144D01*
X134339856Y-120220875D01*
X134454878Y-120048733D01*
X134601265Y-119902346D01*
X134773407Y-119787324D01*
X134964676Y-119708098D01*
X135167725Y-119667709D01*
X135374757Y-119667709D01*
X135577806Y-119708098D01*
X135577806Y-119708098D01*
G37*
G36*
X138117806Y-119708098D02*
X138309075Y-119787324D01*
X138481217Y-119902346D01*
X138627604Y-120048733D01*
X138742626Y-120220875D01*
X138821852Y-120412144D01*
X138862241Y-120615193D01*
X138862241Y-120822225D01*
X138821852Y-121025274D01*
X138742626Y-121216543D01*
X138627604Y-121388685D01*
X138481217Y-121535072D01*
X138309075Y-121650094D01*
X138117806Y-121729320D01*
X137914757Y-121769709D01*
X137707725Y-121769709D01*
X137504676Y-121729320D01*
X137313407Y-121650094D01*
X137141265Y-121535072D01*
X136994878Y-121388685D01*
X136879856Y-121216543D01*
X136800630Y-121025274D01*
X136760241Y-120822225D01*
X136760241Y-120615193D01*
X136800630Y-120412144D01*
X136879856Y-120220875D01*
X136994878Y-120048733D01*
X137141265Y-119902346D01*
X137313407Y-119787324D01*
X137504676Y-119708098D01*
X137707725Y-119667709D01*
X137914757Y-119667709D01*
X138117806Y-119708098D01*
X138117806Y-119708098D01*
G37*
G36*
X140657806Y-119708098D02*
X140849075Y-119787324D01*
X141021217Y-119902346D01*
X141167604Y-120048733D01*
X141282626Y-120220875D01*
X141361852Y-120412144D01*
X141402241Y-120615193D01*
X141402241Y-120822225D01*
X141361852Y-121025274D01*
X141282626Y-121216543D01*
X141167604Y-121388685D01*
X141021217Y-121535072D01*
X140849075Y-121650094D01*
X140657806Y-121729320D01*
X140454757Y-121769709D01*
X140247725Y-121769709D01*
X140044676Y-121729320D01*
X139853407Y-121650094D01*
X139681265Y-121535072D01*
X139534878Y-121388685D01*
X139419856Y-121216543D01*
X139340630Y-121025274D01*
X139300241Y-120822225D01*
X139300241Y-120615193D01*
X139340630Y-120412144D01*
X139419856Y-120220875D01*
X139534878Y-120048733D01*
X139681265Y-119902346D01*
X139853407Y-119787324D01*
X140044676Y-119708098D01*
X140247725Y-119667709D01*
X140454757Y-119667709D01*
X140657806Y-119708098D01*
X140657806Y-119708098D01*
G37*
G36*
X179037806Y-119708098D02*
X179229075Y-119787324D01*
X179401217Y-119902346D01*
X179547604Y-120048733D01*
X179662626Y-120220875D01*
X179741852Y-120412144D01*
X179782241Y-120615193D01*
X179782241Y-120822225D01*
X179741852Y-121025274D01*
X179662626Y-121216543D01*
X179547604Y-121388685D01*
X179401217Y-121535072D01*
X179229075Y-121650094D01*
X179037806Y-121729320D01*
X178834757Y-121769709D01*
X178627725Y-121769709D01*
X178424676Y-121729320D01*
X178233407Y-121650094D01*
X178061265Y-121535072D01*
X177914878Y-121388685D01*
X177799856Y-121216543D01*
X177720630Y-121025274D01*
X177680241Y-120822225D01*
X177680241Y-120615193D01*
X177720630Y-120412144D01*
X177799856Y-120220875D01*
X177914878Y-120048733D01*
X178061265Y-119902346D01*
X178233407Y-119787324D01*
X178424676Y-119708098D01*
X178627725Y-119667709D01*
X178834757Y-119667709D01*
X179037806Y-119708098D01*
X179037806Y-119708098D01*
G37*
G36*
X118914741Y-121559709D02*
X117512741Y-121559709D01*
X117512741Y-120357709D01*
X118914741Y-120357709D01*
X118914741Y-121559709D01*
X118914741Y-121559709D01*
G37*
G36*
X116614741Y-121559709D02*
X115212741Y-121559709D01*
X115212741Y-120357709D01*
X116614741Y-120357709D01*
X116614741Y-121559709D01*
X116614741Y-121559709D01*
G37*
G36*
X112993179Y-120200425D02*
X113013797Y-120206679D01*
X113032797Y-120216835D01*
X113049449Y-120230501D01*
X113063115Y-120247153D01*
X113073271Y-120266153D01*
X113079525Y-120286771D01*
X113082241Y-120314349D01*
X113082241Y-120773069D01*
X113079525Y-120800647D01*
X113073271Y-120821265D01*
X113063115Y-120840265D01*
X113049449Y-120856917D01*
X113032797Y-120870583D01*
X113013797Y-120880739D01*
X112993179Y-120886993D01*
X112965601Y-120889709D01*
X112456881Y-120889709D01*
X112429303Y-120886993D01*
X112408685Y-120880739D01*
X112389685Y-120870583D01*
X112373033Y-120856917D01*
X112359367Y-120840265D01*
X112349211Y-120821265D01*
X112342957Y-120800647D01*
X112340241Y-120773069D01*
X112340241Y-120314349D01*
X112342957Y-120286771D01*
X112349211Y-120266153D01*
X112359367Y-120247153D01*
X112373033Y-120230501D01*
X112389685Y-120216835D01*
X112408685Y-120206679D01*
X112429303Y-120200425D01*
X112456881Y-120197709D01*
X112965601Y-120197709D01*
X112993179Y-120200425D01*
X112993179Y-120200425D01*
G37*
G36*
X120873179Y-120200425D02*
X120893797Y-120206679D01*
X120912797Y-120216835D01*
X120929449Y-120230501D01*
X120943115Y-120247153D01*
X120953271Y-120266153D01*
X120959525Y-120286771D01*
X120962241Y-120314349D01*
X120962241Y-120773069D01*
X120959525Y-120800647D01*
X120953271Y-120821265D01*
X120943115Y-120840265D01*
X120929449Y-120856917D01*
X120912797Y-120870583D01*
X120893797Y-120880739D01*
X120873179Y-120886993D01*
X120845601Y-120889709D01*
X120336881Y-120889709D01*
X120309303Y-120886993D01*
X120288685Y-120880739D01*
X120269685Y-120870583D01*
X120253033Y-120856917D01*
X120239367Y-120840265D01*
X120229211Y-120821265D01*
X120222957Y-120800647D01*
X120220241Y-120773069D01*
X120220241Y-120314349D01*
X120222957Y-120286771D01*
X120229211Y-120266153D01*
X120239367Y-120247153D01*
X120253033Y-120230501D01*
X120269685Y-120216835D01*
X120288685Y-120206679D01*
X120309303Y-120200425D01*
X120336881Y-120197709D01*
X120845601Y-120197709D01*
X120873179Y-120200425D01*
X120873179Y-120200425D01*
G37*
G36*
X120873179Y-119230425D02*
X120893797Y-119236679D01*
X120912797Y-119246835D01*
X120929449Y-119260501D01*
X120943115Y-119277153D01*
X120953271Y-119296153D01*
X120959525Y-119316771D01*
X120962241Y-119344349D01*
X120962241Y-119803069D01*
X120959525Y-119830647D01*
X120953271Y-119851265D01*
X120943115Y-119870265D01*
X120929449Y-119886917D01*
X120912797Y-119900583D01*
X120893797Y-119910739D01*
X120873179Y-119916993D01*
X120845601Y-119919709D01*
X120336881Y-119919709D01*
X120309303Y-119916993D01*
X120288685Y-119910739D01*
X120269685Y-119900583D01*
X120253033Y-119886917D01*
X120239367Y-119870265D01*
X120229211Y-119851265D01*
X120222957Y-119830647D01*
X120220241Y-119803069D01*
X120220241Y-119344349D01*
X120222957Y-119316771D01*
X120229211Y-119296153D01*
X120239367Y-119277153D01*
X120253033Y-119260501D01*
X120269685Y-119246835D01*
X120288685Y-119236679D01*
X120309303Y-119230425D01*
X120336881Y-119227709D01*
X120845601Y-119227709D01*
X120873179Y-119230425D01*
X120873179Y-119230425D01*
G37*
G36*
X112993179Y-119230425D02*
X113013797Y-119236679D01*
X113032797Y-119246835D01*
X113049449Y-119260501D01*
X113063115Y-119277153D01*
X113073271Y-119296153D01*
X113079525Y-119316771D01*
X113082241Y-119344349D01*
X113082241Y-119803069D01*
X113079525Y-119830647D01*
X113073271Y-119851265D01*
X113063115Y-119870265D01*
X113049449Y-119886917D01*
X113032797Y-119900583D01*
X113013797Y-119910739D01*
X112993179Y-119916993D01*
X112965601Y-119919709D01*
X112456881Y-119919709D01*
X112429303Y-119916993D01*
X112408685Y-119910739D01*
X112389685Y-119900583D01*
X112373033Y-119886917D01*
X112359367Y-119870265D01*
X112349211Y-119851265D01*
X112342957Y-119830647D01*
X112340241Y-119803069D01*
X112340241Y-119344349D01*
X112342957Y-119316771D01*
X112349211Y-119296153D01*
X112359367Y-119277153D01*
X112373033Y-119260501D01*
X112389685Y-119246835D01*
X112408685Y-119236679D01*
X112429303Y-119230425D01*
X112456881Y-119227709D01*
X112965601Y-119227709D01*
X112993179Y-119230425D01*
X112993179Y-119230425D01*
G37*
G36*
X118914741Y-119759709D02*
X117512741Y-119759709D01*
X117512741Y-118557709D01*
X118914741Y-118557709D01*
X118914741Y-119759709D01*
X118914741Y-119759709D01*
G37*
G36*
X116614741Y-119759709D02*
X115212741Y-119759709D01*
X115212741Y-118557709D01*
X116614741Y-118557709D01*
X116614741Y-119759709D01*
X116614741Y-119759709D01*
G37*
G36*
X173957806Y-117168098D02*
X174149075Y-117247324D01*
X174321217Y-117362346D01*
X174467604Y-117508733D01*
X174582626Y-117680875D01*
X174661852Y-117872144D01*
X174702241Y-118075193D01*
X174702241Y-118282225D01*
X174661852Y-118485274D01*
X174582626Y-118676543D01*
X174467604Y-118848685D01*
X174321217Y-118995072D01*
X174149075Y-119110094D01*
X173957806Y-119189320D01*
X173754757Y-119229709D01*
X173547725Y-119229709D01*
X173344676Y-119189320D01*
X173153407Y-119110094D01*
X172981265Y-118995072D01*
X172834878Y-118848685D01*
X172719856Y-118676543D01*
X172640630Y-118485274D01*
X172600241Y-118282225D01*
X172600241Y-118075193D01*
X172640630Y-117872144D01*
X172719856Y-117680875D01*
X172834878Y-117508733D01*
X172981265Y-117362346D01*
X173153407Y-117247324D01*
X173344676Y-117168098D01*
X173547725Y-117127709D01*
X173754757Y-117127709D01*
X173957806Y-117168098D01*
X173957806Y-117168098D01*
G37*
G36*
X138117806Y-117168098D02*
X138309075Y-117247324D01*
X138481217Y-117362346D01*
X138627604Y-117508733D01*
X138742626Y-117680875D01*
X138821852Y-117872144D01*
X138862241Y-118075193D01*
X138862241Y-118282225D01*
X138821852Y-118485274D01*
X138742626Y-118676543D01*
X138627604Y-118848685D01*
X138481217Y-118995072D01*
X138309075Y-119110094D01*
X138117806Y-119189320D01*
X137914757Y-119229709D01*
X137707725Y-119229709D01*
X137504676Y-119189320D01*
X137313407Y-119110094D01*
X137141265Y-118995072D01*
X136994878Y-118848685D01*
X136879856Y-118676543D01*
X136800630Y-118485274D01*
X136760241Y-118282225D01*
X136760241Y-118075193D01*
X136800630Y-117872144D01*
X136879856Y-117680875D01*
X136994878Y-117508733D01*
X137141265Y-117362346D01*
X137313407Y-117247324D01*
X137504676Y-117168098D01*
X137707725Y-117127709D01*
X137914757Y-117127709D01*
X138117806Y-117168098D01*
X138117806Y-117168098D01*
G37*
G36*
X135577806Y-117168098D02*
X135769075Y-117247324D01*
X135941217Y-117362346D01*
X136087604Y-117508733D01*
X136202626Y-117680875D01*
X136281852Y-117872144D01*
X136322241Y-118075193D01*
X136322241Y-118282225D01*
X136281852Y-118485274D01*
X136202626Y-118676543D01*
X136087604Y-118848685D01*
X135941217Y-118995072D01*
X135769075Y-119110094D01*
X135577806Y-119189320D01*
X135374757Y-119229709D01*
X135167725Y-119229709D01*
X134964676Y-119189320D01*
X134773407Y-119110094D01*
X134601265Y-118995072D01*
X134454878Y-118848685D01*
X134339856Y-118676543D01*
X134260630Y-118485274D01*
X134220241Y-118282225D01*
X134220241Y-118075193D01*
X134260630Y-117872144D01*
X134339856Y-117680875D01*
X134454878Y-117508733D01*
X134601265Y-117362346D01*
X134773407Y-117247324D01*
X134964676Y-117168098D01*
X135167725Y-117127709D01*
X135374757Y-117127709D01*
X135577806Y-117168098D01*
X135577806Y-117168098D01*
G37*
G36*
X133037806Y-117168098D02*
X133229075Y-117247324D01*
X133401217Y-117362346D01*
X133547604Y-117508733D01*
X133662626Y-117680875D01*
X133741852Y-117872144D01*
X133782241Y-118075193D01*
X133782241Y-118282225D01*
X133741852Y-118485274D01*
X133662626Y-118676543D01*
X133547604Y-118848685D01*
X133401217Y-118995072D01*
X133229075Y-119110094D01*
X133037806Y-119189320D01*
X132834757Y-119229709D01*
X132627725Y-119229709D01*
X132424676Y-119189320D01*
X132233407Y-119110094D01*
X132061265Y-118995072D01*
X131914878Y-118848685D01*
X131799856Y-118676543D01*
X131720630Y-118485274D01*
X131680241Y-118282225D01*
X131680241Y-118075193D01*
X131720630Y-117872144D01*
X131799856Y-117680875D01*
X131914878Y-117508733D01*
X132061265Y-117362346D01*
X132233407Y-117247324D01*
X132424676Y-117168098D01*
X132627725Y-117127709D01*
X132834757Y-117127709D01*
X133037806Y-117168098D01*
X133037806Y-117168098D01*
G37*
G36*
X130497806Y-117168098D02*
X130689075Y-117247324D01*
X130861217Y-117362346D01*
X131007604Y-117508733D01*
X131122626Y-117680875D01*
X131201852Y-117872144D01*
X131242241Y-118075193D01*
X131242241Y-118282225D01*
X131201852Y-118485274D01*
X131122626Y-118676543D01*
X131007604Y-118848685D01*
X130861217Y-118995072D01*
X130689075Y-119110094D01*
X130497806Y-119189320D01*
X130294757Y-119229709D01*
X130087725Y-119229709D01*
X129884676Y-119189320D01*
X129693407Y-119110094D01*
X129521265Y-118995072D01*
X129374878Y-118848685D01*
X129259856Y-118676543D01*
X129180630Y-118485274D01*
X129140241Y-118282225D01*
X129140241Y-118075193D01*
X129180630Y-117872144D01*
X129259856Y-117680875D01*
X129374878Y-117508733D01*
X129521265Y-117362346D01*
X129693407Y-117247324D01*
X129884676Y-117168098D01*
X130087725Y-117127709D01*
X130294757Y-117127709D01*
X130497806Y-117168098D01*
X130497806Y-117168098D01*
G37*
G36*
X176497806Y-117168098D02*
X176689075Y-117247324D01*
X176861217Y-117362346D01*
X177007604Y-117508733D01*
X177122626Y-117680875D01*
X177201852Y-117872144D01*
X177242241Y-118075193D01*
X177242241Y-118282225D01*
X177201852Y-118485274D01*
X177122626Y-118676543D01*
X177007604Y-118848685D01*
X176861217Y-118995072D01*
X176689075Y-119110094D01*
X176497806Y-119189320D01*
X176294757Y-119229709D01*
X176087725Y-119229709D01*
X175884676Y-119189320D01*
X175693407Y-119110094D01*
X175521265Y-118995072D01*
X175374878Y-118848685D01*
X175259856Y-118676543D01*
X175180630Y-118485274D01*
X175140241Y-118282225D01*
X175140241Y-118075193D01*
X175180630Y-117872144D01*
X175259856Y-117680875D01*
X175374878Y-117508733D01*
X175521265Y-117362346D01*
X175693407Y-117247324D01*
X175884676Y-117168098D01*
X176087725Y-117127709D01*
X176294757Y-117127709D01*
X176497806Y-117168098D01*
X176497806Y-117168098D01*
G37*
G36*
X179037806Y-117168098D02*
X179229075Y-117247324D01*
X179401217Y-117362346D01*
X179547604Y-117508733D01*
X179662626Y-117680875D01*
X179741852Y-117872144D01*
X179782241Y-118075193D01*
X179782241Y-118282225D01*
X179741852Y-118485274D01*
X179662626Y-118676543D01*
X179547604Y-118848685D01*
X179401217Y-118995072D01*
X179229075Y-119110094D01*
X179037806Y-119189320D01*
X178834757Y-119229709D01*
X178627725Y-119229709D01*
X178424676Y-119189320D01*
X178233407Y-119110094D01*
X178061265Y-118995072D01*
X177914878Y-118848685D01*
X177799856Y-118676543D01*
X177720630Y-118485274D01*
X177680241Y-118282225D01*
X177680241Y-118075193D01*
X177720630Y-117872144D01*
X177799856Y-117680875D01*
X177914878Y-117508733D01*
X178061265Y-117362346D01*
X178233407Y-117247324D01*
X178424676Y-117168098D01*
X178627725Y-117127709D01*
X178834757Y-117127709D01*
X179037806Y-117168098D01*
X179037806Y-117168098D01*
G37*
G36*
X127957806Y-117168098D02*
X128149075Y-117247324D01*
X128321217Y-117362346D01*
X128467604Y-117508733D01*
X128582626Y-117680875D01*
X128661852Y-117872144D01*
X128702241Y-118075193D01*
X128702241Y-118282225D01*
X128661852Y-118485274D01*
X128582626Y-118676543D01*
X128467604Y-118848685D01*
X128321217Y-118995072D01*
X128149075Y-119110094D01*
X127957806Y-119189320D01*
X127754757Y-119229709D01*
X127547725Y-119229709D01*
X127344676Y-119189320D01*
X127153407Y-119110094D01*
X126981265Y-118995072D01*
X126834878Y-118848685D01*
X126719856Y-118676543D01*
X126640630Y-118485274D01*
X126600241Y-118282225D01*
X126600241Y-118075193D01*
X126640630Y-117872144D01*
X126719856Y-117680875D01*
X126834878Y-117508733D01*
X126981265Y-117362346D01*
X127153407Y-117247324D01*
X127344676Y-117168098D01*
X127547725Y-117127709D01*
X127754757Y-117127709D01*
X127957806Y-117168098D01*
X127957806Y-117168098D01*
G37*
G36*
X184117806Y-117168098D02*
X184309075Y-117247324D01*
X184481217Y-117362346D01*
X184627604Y-117508733D01*
X184742626Y-117680875D01*
X184821852Y-117872144D01*
X184862241Y-118075193D01*
X184862241Y-118282225D01*
X184821852Y-118485274D01*
X184742626Y-118676543D01*
X184627604Y-118848685D01*
X184481217Y-118995072D01*
X184309075Y-119110094D01*
X184117806Y-119189320D01*
X183914757Y-119229709D01*
X183707725Y-119229709D01*
X183504676Y-119189320D01*
X183313407Y-119110094D01*
X183141265Y-118995072D01*
X182994878Y-118848685D01*
X182879856Y-118676543D01*
X182800630Y-118485274D01*
X182760241Y-118282225D01*
X182760241Y-118075193D01*
X182800630Y-117872144D01*
X182879856Y-117680875D01*
X182994878Y-117508733D01*
X183141265Y-117362346D01*
X183313407Y-117247324D01*
X183504676Y-117168098D01*
X183707725Y-117127709D01*
X183914757Y-117127709D01*
X184117806Y-117168098D01*
X184117806Y-117168098D01*
G37*
G36*
X150957806Y-117168098D02*
X151149075Y-117247324D01*
X151321217Y-117362346D01*
X151467604Y-117508733D01*
X151582626Y-117680875D01*
X151661852Y-117872144D01*
X151702241Y-118075193D01*
X151702241Y-118282225D01*
X151661852Y-118485274D01*
X151582626Y-118676543D01*
X151467604Y-118848685D01*
X151321217Y-118995072D01*
X151149075Y-119110094D01*
X150957806Y-119189320D01*
X150754757Y-119229709D01*
X150547725Y-119229709D01*
X150344676Y-119189320D01*
X150153407Y-119110094D01*
X149981265Y-118995072D01*
X149834878Y-118848685D01*
X149719856Y-118676543D01*
X149640630Y-118485274D01*
X149600241Y-118282225D01*
X149600241Y-118075193D01*
X149640630Y-117872144D01*
X149719856Y-117680875D01*
X149834878Y-117508733D01*
X149981265Y-117362346D01*
X150153407Y-117247324D01*
X150344676Y-117168098D01*
X150547725Y-117127709D01*
X150754757Y-117127709D01*
X150957806Y-117168098D01*
X150957806Y-117168098D01*
G37*
G36*
X186657806Y-117168098D02*
X186849075Y-117247324D01*
X187021217Y-117362346D01*
X187167604Y-117508733D01*
X187282626Y-117680875D01*
X187361852Y-117872144D01*
X187402241Y-118075193D01*
X187402241Y-118282225D01*
X187361852Y-118485274D01*
X187282626Y-118676543D01*
X187167604Y-118848685D01*
X187021217Y-118995072D01*
X186849075Y-119110094D01*
X186657806Y-119189320D01*
X186454757Y-119229709D01*
X186247725Y-119229709D01*
X186044676Y-119189320D01*
X185853407Y-119110094D01*
X185681265Y-118995072D01*
X185534878Y-118848685D01*
X185419856Y-118676543D01*
X185340630Y-118485274D01*
X185300241Y-118282225D01*
X185300241Y-118075193D01*
X185340630Y-117872144D01*
X185419856Y-117680875D01*
X185534878Y-117508733D01*
X185681265Y-117362346D01*
X185853407Y-117247324D01*
X186044676Y-117168098D01*
X186247725Y-117127709D01*
X186454757Y-117127709D01*
X186657806Y-117168098D01*
X186657806Y-117168098D01*
G37*
G36*
X153497806Y-117168098D02*
X153689075Y-117247324D01*
X153861217Y-117362346D01*
X154007604Y-117508733D01*
X154122626Y-117680875D01*
X154201852Y-117872144D01*
X154242241Y-118075193D01*
X154242241Y-118282225D01*
X154201852Y-118485274D01*
X154122626Y-118676543D01*
X154007604Y-118848685D01*
X153861217Y-118995072D01*
X153689075Y-119110094D01*
X153497806Y-119189320D01*
X153294757Y-119229709D01*
X153087725Y-119229709D01*
X152884676Y-119189320D01*
X152693407Y-119110094D01*
X152521265Y-118995072D01*
X152374878Y-118848685D01*
X152259856Y-118676543D01*
X152180630Y-118485274D01*
X152140241Y-118282225D01*
X152140241Y-118075193D01*
X152180630Y-117872144D01*
X152259856Y-117680875D01*
X152374878Y-117508733D01*
X152521265Y-117362346D01*
X152693407Y-117247324D01*
X152884676Y-117168098D01*
X153087725Y-117127709D01*
X153294757Y-117127709D01*
X153497806Y-117168098D01*
X153497806Y-117168098D01*
G37*
G36*
X156037806Y-117168098D02*
X156229075Y-117247324D01*
X156401217Y-117362346D01*
X156547604Y-117508733D01*
X156662626Y-117680875D01*
X156741852Y-117872144D01*
X156782241Y-118075193D01*
X156782241Y-118282225D01*
X156741852Y-118485274D01*
X156662626Y-118676543D01*
X156547604Y-118848685D01*
X156401217Y-118995072D01*
X156229075Y-119110094D01*
X156037806Y-119189320D01*
X155834757Y-119229709D01*
X155627725Y-119229709D01*
X155424676Y-119189320D01*
X155233407Y-119110094D01*
X155061265Y-118995072D01*
X154914878Y-118848685D01*
X154799856Y-118676543D01*
X154720630Y-118485274D01*
X154680241Y-118282225D01*
X154680241Y-118075193D01*
X154720630Y-117872144D01*
X154799856Y-117680875D01*
X154914878Y-117508733D01*
X155061265Y-117362346D01*
X155233407Y-117247324D01*
X155424676Y-117168098D01*
X155627725Y-117127709D01*
X155834757Y-117127709D01*
X156037806Y-117168098D01*
X156037806Y-117168098D01*
G37*
G36*
X181577806Y-117168098D02*
X181769075Y-117247324D01*
X181941217Y-117362346D01*
X182087604Y-117508733D01*
X182202626Y-117680875D01*
X182281852Y-117872144D01*
X182322241Y-118075193D01*
X182322241Y-118282225D01*
X182281852Y-118485274D01*
X182202626Y-118676543D01*
X182087604Y-118848685D01*
X181941217Y-118995072D01*
X181769075Y-119110094D01*
X181577806Y-119189320D01*
X181374757Y-119229709D01*
X181167725Y-119229709D01*
X180964676Y-119189320D01*
X180773407Y-119110094D01*
X180601265Y-118995072D01*
X180454878Y-118848685D01*
X180339856Y-118676543D01*
X180260630Y-118485274D01*
X180220241Y-118282225D01*
X180220241Y-118075193D01*
X180260630Y-117872144D01*
X180339856Y-117680875D01*
X180454878Y-117508733D01*
X180601265Y-117362346D01*
X180773407Y-117247324D01*
X180964676Y-117168098D01*
X181167725Y-117127709D01*
X181374757Y-117127709D01*
X181577806Y-117168098D01*
X181577806Y-117168098D01*
G37*
G36*
X158577806Y-117168098D02*
X158769075Y-117247324D01*
X158941217Y-117362346D01*
X159087604Y-117508733D01*
X159202626Y-117680875D01*
X159281852Y-117872144D01*
X159322241Y-118075193D01*
X159322241Y-118282225D01*
X159281852Y-118485274D01*
X159202626Y-118676543D01*
X159087604Y-118848685D01*
X158941217Y-118995072D01*
X158769075Y-119110094D01*
X158577806Y-119189320D01*
X158374757Y-119229709D01*
X158167725Y-119229709D01*
X157964676Y-119189320D01*
X157773407Y-119110094D01*
X157601265Y-118995072D01*
X157454878Y-118848685D01*
X157339856Y-118676543D01*
X157260630Y-118485274D01*
X157220241Y-118282225D01*
X157220241Y-118075193D01*
X157260630Y-117872144D01*
X157339856Y-117680875D01*
X157454878Y-117508733D01*
X157601265Y-117362346D01*
X157773407Y-117247324D01*
X157964676Y-117168098D01*
X158167725Y-117127709D01*
X158374757Y-117127709D01*
X158577806Y-117168098D01*
X158577806Y-117168098D01*
G37*
G36*
X163657806Y-117168098D02*
X163849075Y-117247324D01*
X164021217Y-117362346D01*
X164167604Y-117508733D01*
X164282626Y-117680875D01*
X164361852Y-117872144D01*
X164402241Y-118075193D01*
X164402241Y-118282225D01*
X164361852Y-118485274D01*
X164282626Y-118676543D01*
X164167604Y-118848685D01*
X164021217Y-118995072D01*
X163849075Y-119110094D01*
X163657806Y-119189320D01*
X163454757Y-119229709D01*
X163247725Y-119229709D01*
X163044676Y-119189320D01*
X162853407Y-119110094D01*
X162681265Y-118995072D01*
X162534878Y-118848685D01*
X162419856Y-118676543D01*
X162340630Y-118485274D01*
X162300241Y-118282225D01*
X162300241Y-118075193D01*
X162340630Y-117872144D01*
X162419856Y-117680875D01*
X162534878Y-117508733D01*
X162681265Y-117362346D01*
X162853407Y-117247324D01*
X163044676Y-117168098D01*
X163247725Y-117127709D01*
X163454757Y-117127709D01*
X163657806Y-117168098D01*
X163657806Y-117168098D01*
G37*
G36*
X140657806Y-117168098D02*
X140849075Y-117247324D01*
X141021217Y-117362346D01*
X141167604Y-117508733D01*
X141282626Y-117680875D01*
X141361852Y-117872144D01*
X141402241Y-118075193D01*
X141402241Y-118282225D01*
X141361852Y-118485274D01*
X141282626Y-118676543D01*
X141167604Y-118848685D01*
X141021217Y-118995072D01*
X140849075Y-119110094D01*
X140657806Y-119189320D01*
X140454757Y-119229709D01*
X140247725Y-119229709D01*
X140044676Y-119189320D01*
X139853407Y-119110094D01*
X139681265Y-118995072D01*
X139534878Y-118848685D01*
X139419856Y-118676543D01*
X139340630Y-118485274D01*
X139300241Y-118282225D01*
X139300241Y-118075193D01*
X139340630Y-117872144D01*
X139419856Y-117680875D01*
X139534878Y-117508733D01*
X139681265Y-117362346D01*
X139853407Y-117247324D01*
X140044676Y-117168098D01*
X140247725Y-117127709D01*
X140454757Y-117127709D01*
X140657806Y-117168098D01*
X140657806Y-117168098D01*
G37*
G36*
X161117806Y-117168098D02*
X161309075Y-117247324D01*
X161481217Y-117362346D01*
X161627604Y-117508733D01*
X161742626Y-117680875D01*
X161821852Y-117872144D01*
X161862241Y-118075193D01*
X161862241Y-118282225D01*
X161821852Y-118485274D01*
X161742626Y-118676543D01*
X161627604Y-118848685D01*
X161481217Y-118995072D01*
X161309075Y-119110094D01*
X161117806Y-119189320D01*
X160914757Y-119229709D01*
X160707725Y-119229709D01*
X160504676Y-119189320D01*
X160313407Y-119110094D01*
X160141265Y-118995072D01*
X159994878Y-118848685D01*
X159879856Y-118676543D01*
X159800630Y-118485274D01*
X159760241Y-118282225D01*
X159760241Y-118075193D01*
X159800630Y-117872144D01*
X159879856Y-117680875D01*
X159994878Y-117508733D01*
X160141265Y-117362346D01*
X160313407Y-117247324D01*
X160504676Y-117168098D01*
X160707725Y-117127709D01*
X160914757Y-117127709D01*
X161117806Y-117168098D01*
X161117806Y-117168098D01*
G37*
G36*
X104288637Y-117064255D02*
X104461707Y-117135943D01*
X104617471Y-117240021D01*
X104749929Y-117372479D01*
X104854007Y-117528243D01*
X104925695Y-117701313D01*
X104962241Y-117885042D01*
X104962241Y-118072376D01*
X104925695Y-118256105D01*
X104854007Y-118429175D01*
X104749929Y-118584939D01*
X104617471Y-118717397D01*
X104461707Y-118821475D01*
X104288637Y-118893163D01*
X104104908Y-118929709D01*
X103917574Y-118929709D01*
X103733845Y-118893163D01*
X103560775Y-118821475D01*
X103405011Y-118717397D01*
X103272553Y-118584939D01*
X103168475Y-118429175D01*
X103096787Y-118256105D01*
X103060241Y-118072376D01*
X103060241Y-117885042D01*
X103096787Y-117701313D01*
X103168475Y-117528243D01*
X103272553Y-117372479D01*
X103405011Y-117240021D01*
X103560775Y-117135943D01*
X103733845Y-117064255D01*
X103917574Y-117027709D01*
X104104908Y-117027709D01*
X104288637Y-117064255D01*
X104288637Y-117064255D01*
G37*
G36*
X110296179Y-117623925D02*
X110316797Y-117630179D01*
X110335797Y-117640335D01*
X110352449Y-117654001D01*
X110366115Y-117670653D01*
X110376271Y-117689653D01*
X110382525Y-117710271D01*
X110385241Y-117737849D01*
X110385241Y-118246569D01*
X110382525Y-118274147D01*
X110376271Y-118294765D01*
X110366115Y-118313765D01*
X110352449Y-118330417D01*
X110335797Y-118344083D01*
X110316797Y-118354239D01*
X110296179Y-118360493D01*
X110268601Y-118363209D01*
X109809881Y-118363209D01*
X109782303Y-118360493D01*
X109761685Y-118354239D01*
X109742685Y-118344083D01*
X109726033Y-118330417D01*
X109712367Y-118313765D01*
X109702211Y-118294765D01*
X109695957Y-118274147D01*
X109693241Y-118246569D01*
X109693241Y-117737849D01*
X109695957Y-117710271D01*
X109702211Y-117689653D01*
X109712367Y-117670653D01*
X109726033Y-117654001D01*
X109742685Y-117640335D01*
X109761685Y-117630179D01*
X109782303Y-117623925D01*
X109809881Y-117621209D01*
X110268601Y-117621209D01*
X110296179Y-117623925D01*
X110296179Y-117623925D01*
G37*
G36*
X111266179Y-117623925D02*
X111286797Y-117630179D01*
X111305797Y-117640335D01*
X111322449Y-117654001D01*
X111336115Y-117670653D01*
X111346271Y-117689653D01*
X111352525Y-117710271D01*
X111355241Y-117737849D01*
X111355241Y-118246569D01*
X111352525Y-118274147D01*
X111346271Y-118294765D01*
X111336115Y-118313765D01*
X111322449Y-118330417D01*
X111305797Y-118344083D01*
X111286797Y-118354239D01*
X111266179Y-118360493D01*
X111238601Y-118363209D01*
X110779881Y-118363209D01*
X110752303Y-118360493D01*
X110731685Y-118354239D01*
X110712685Y-118344083D01*
X110696033Y-118330417D01*
X110682367Y-118313765D01*
X110672211Y-118294765D01*
X110665957Y-118274147D01*
X110663241Y-118246569D01*
X110663241Y-117737849D01*
X110665957Y-117710271D01*
X110672211Y-117689653D01*
X110682367Y-117670653D01*
X110696033Y-117654001D01*
X110712685Y-117640335D01*
X110731685Y-117630179D01*
X110752303Y-117623925D01*
X110779881Y-117621209D01*
X111238601Y-117621209D01*
X111266179Y-117623925D01*
X111266179Y-117623925D01*
G37*
G36*
X123837462Y-116512383D02*
X123937736Y-116553918D01*
X124027986Y-116614221D01*
X124104729Y-116690964D01*
X124165032Y-116781214D01*
X124206567Y-116881488D01*
X124227741Y-116987939D01*
X124227741Y-117096479D01*
X124206567Y-117202930D01*
X124165032Y-117303204D01*
X124104729Y-117393454D01*
X124027986Y-117470197D01*
X123937736Y-117530500D01*
X123837462Y-117572035D01*
X123731011Y-117593209D01*
X123622471Y-117593209D01*
X123516020Y-117572035D01*
X123415746Y-117530500D01*
X123325496Y-117470197D01*
X123248753Y-117393454D01*
X123188450Y-117303204D01*
X123146915Y-117202930D01*
X123125741Y-117096479D01*
X123125741Y-116987939D01*
X123146915Y-116881488D01*
X123188450Y-116781214D01*
X123248753Y-116690964D01*
X123325496Y-116614221D01*
X123415746Y-116553918D01*
X123516020Y-116512383D01*
X123622471Y-116491209D01*
X123731011Y-116491209D01*
X123837462Y-116512383D01*
X123837462Y-116512383D01*
G37*
G36*
X197022241Y-116933012D02*
X196120241Y-116933012D01*
X196120241Y-116231012D01*
X197022241Y-116231012D01*
X197022241Y-116933012D01*
X197022241Y-116933012D01*
G37*
G36*
X192528909Y-116933012D02*
X191626909Y-116933012D01*
X191626909Y-116231012D01*
X192528909Y-116231012D01*
X192528909Y-116933012D01*
X192528909Y-116933012D01*
G37*
G36*
X194775575Y-116933012D02*
X193873575Y-116933012D01*
X193873575Y-116231012D01*
X194775575Y-116231012D01*
X194775575Y-116933012D01*
X194775575Y-116933012D01*
G37*
G36*
X190353179Y-116220425D02*
X190373797Y-116226679D01*
X190392797Y-116236835D01*
X190409449Y-116250501D01*
X190423115Y-116267153D01*
X190433271Y-116286153D01*
X190439525Y-116306771D01*
X190442241Y-116334349D01*
X190442241Y-116793069D01*
X190439525Y-116820647D01*
X190433271Y-116841265D01*
X190423115Y-116860265D01*
X190409449Y-116876917D01*
X190392797Y-116890583D01*
X190373797Y-116900739D01*
X190353179Y-116906993D01*
X190325601Y-116909709D01*
X189816881Y-116909709D01*
X189789303Y-116906993D01*
X189768685Y-116900739D01*
X189749685Y-116890583D01*
X189733033Y-116876917D01*
X189719367Y-116860265D01*
X189709211Y-116841265D01*
X189702957Y-116820647D01*
X189700241Y-116793069D01*
X189700241Y-116334349D01*
X189702957Y-116306771D01*
X189709211Y-116286153D01*
X189719367Y-116267153D01*
X189733033Y-116250501D01*
X189749685Y-116236835D01*
X189768685Y-116226679D01*
X189789303Y-116220425D01*
X189816881Y-116217709D01*
X190325601Y-116217709D01*
X190353179Y-116220425D01*
X190353179Y-116220425D01*
G37*
G36*
X110296179Y-116100759D02*
X110316797Y-116107013D01*
X110335797Y-116117169D01*
X110352449Y-116130835D01*
X110366115Y-116147487D01*
X110376271Y-116166487D01*
X110382525Y-116187105D01*
X110385241Y-116214683D01*
X110385241Y-116723403D01*
X110382525Y-116750981D01*
X110376271Y-116771599D01*
X110366115Y-116790599D01*
X110352449Y-116807251D01*
X110335797Y-116820917D01*
X110316797Y-116831073D01*
X110296179Y-116837327D01*
X110268601Y-116840043D01*
X109809881Y-116840043D01*
X109782303Y-116837327D01*
X109761685Y-116831073D01*
X109742685Y-116820917D01*
X109726033Y-116807251D01*
X109712367Y-116790599D01*
X109702211Y-116771599D01*
X109695957Y-116750981D01*
X109693241Y-116723403D01*
X109693241Y-116214683D01*
X109695957Y-116187105D01*
X109702211Y-116166487D01*
X109712367Y-116147487D01*
X109726033Y-116130835D01*
X109742685Y-116117169D01*
X109761685Y-116107013D01*
X109782303Y-116100759D01*
X109809881Y-116098043D01*
X110268601Y-116098043D01*
X110296179Y-116100759D01*
X110296179Y-116100759D01*
G37*
G36*
X111266179Y-116100759D02*
X111286797Y-116107013D01*
X111305797Y-116117169D01*
X111322449Y-116130835D01*
X111336115Y-116147487D01*
X111346271Y-116166487D01*
X111352525Y-116187105D01*
X111355241Y-116214683D01*
X111355241Y-116723403D01*
X111352525Y-116750981D01*
X111346271Y-116771599D01*
X111336115Y-116790599D01*
X111322449Y-116807251D01*
X111305797Y-116820917D01*
X111286797Y-116831073D01*
X111266179Y-116837327D01*
X111238601Y-116840043D01*
X110779881Y-116840043D01*
X110752303Y-116837327D01*
X110731685Y-116831073D01*
X110712685Y-116820917D01*
X110696033Y-116807251D01*
X110682367Y-116790599D01*
X110672211Y-116771599D01*
X110665957Y-116750981D01*
X110663241Y-116723403D01*
X110663241Y-116214683D01*
X110665957Y-116187105D01*
X110672211Y-116166487D01*
X110682367Y-116147487D01*
X110696033Y-116130835D01*
X110712685Y-116117169D01*
X110731685Y-116107013D01*
X110752303Y-116100759D01*
X110779881Y-116098043D01*
X111238601Y-116098043D01*
X111266179Y-116100759D01*
X111266179Y-116100759D01*
G37*
G36*
X104288637Y-112564255D02*
X104461707Y-112635943D01*
X104617471Y-112740021D01*
X104749929Y-112872479D01*
X104854007Y-113028243D01*
X104925695Y-113201313D01*
X104962241Y-113385042D01*
X104962241Y-113572376D01*
X104925695Y-113756105D01*
X104854007Y-113929175D01*
X104749929Y-114084939D01*
X104617471Y-114217397D01*
X104461707Y-114321475D01*
X104360916Y-114363224D01*
X104339305Y-114374775D01*
X104320363Y-114390321D01*
X104304817Y-114409263D01*
X104293266Y-114430873D01*
X104286153Y-114454323D01*
X104283751Y-114478709D01*
X104286153Y-114503095D01*
X104293266Y-114526544D01*
X104304817Y-114548155D01*
X104320363Y-114567097D01*
X104339305Y-114582643D01*
X104360916Y-114594194D01*
X104461707Y-114635943D01*
X104617471Y-114740021D01*
X104749929Y-114872479D01*
X104854007Y-115028243D01*
X104925695Y-115201313D01*
X104962241Y-115385042D01*
X104962241Y-115572376D01*
X104925695Y-115756105D01*
X104854007Y-115929175D01*
X104749929Y-116084939D01*
X104617471Y-116217397D01*
X104461707Y-116321475D01*
X104288637Y-116393163D01*
X104104908Y-116429709D01*
X103917574Y-116429709D01*
X103733845Y-116393163D01*
X103560775Y-116321475D01*
X103405011Y-116217397D01*
X103272553Y-116084939D01*
X103168475Y-115929175D01*
X103096787Y-115756105D01*
X103060241Y-115572376D01*
X103060241Y-115385042D01*
X103096787Y-115201313D01*
X103168475Y-115028243D01*
X103272553Y-114872479D01*
X103405011Y-114740021D01*
X103560775Y-114635943D01*
X103661566Y-114594194D01*
X103683177Y-114582643D01*
X103702119Y-114567097D01*
X103717665Y-114548155D01*
X103729216Y-114526545D01*
X103736329Y-114503095D01*
X103738731Y-114478709D01*
X103736329Y-114454323D01*
X103729216Y-114430874D01*
X103717665Y-114409263D01*
X103702119Y-114390321D01*
X103683177Y-114374775D01*
X103661566Y-114363224D01*
X103560775Y-114321475D01*
X103405011Y-114217397D01*
X103272553Y-114084939D01*
X103168475Y-113929175D01*
X103096787Y-113756105D01*
X103060241Y-113572376D01*
X103060241Y-113385042D01*
X103096787Y-113201313D01*
X103168475Y-113028243D01*
X103272553Y-112872479D01*
X103405011Y-112740021D01*
X103560775Y-112635943D01*
X103733845Y-112564255D01*
X103917574Y-112527709D01*
X104104908Y-112527709D01*
X104288637Y-112564255D01*
X104288637Y-112564255D01*
G37*
G36*
X190353179Y-115250425D02*
X190373797Y-115256679D01*
X190392797Y-115266835D01*
X190409449Y-115280501D01*
X190423115Y-115297153D01*
X190433271Y-115316153D01*
X190439525Y-115336771D01*
X190442241Y-115364349D01*
X190442241Y-115823069D01*
X190439525Y-115850647D01*
X190433271Y-115871265D01*
X190423115Y-115890265D01*
X190409449Y-115906917D01*
X190392797Y-115920583D01*
X190373797Y-115930739D01*
X190353179Y-115936993D01*
X190325601Y-115939709D01*
X189816881Y-115939709D01*
X189789303Y-115936993D01*
X189768685Y-115930739D01*
X189749685Y-115920583D01*
X189733033Y-115906917D01*
X189719367Y-115890265D01*
X189709211Y-115871265D01*
X189702957Y-115850647D01*
X189700241Y-115823069D01*
X189700241Y-115364349D01*
X189702957Y-115336771D01*
X189709211Y-115316153D01*
X189719367Y-115297153D01*
X189733033Y-115280501D01*
X189749685Y-115266835D01*
X189768685Y-115256679D01*
X189789303Y-115250425D01*
X189816881Y-115247709D01*
X190325601Y-115247709D01*
X190353179Y-115250425D01*
X190353179Y-115250425D01*
G37*
G36*
X194775575Y-115533012D02*
X193873575Y-115533012D01*
X193873575Y-114831012D01*
X194775575Y-114831012D01*
X194775575Y-115533012D01*
X194775575Y-115533012D01*
G37*
G36*
X197022241Y-115533012D02*
X196120241Y-115533012D01*
X196120241Y-114831012D01*
X197022241Y-114831012D01*
X197022241Y-115533012D01*
X197022241Y-115533012D01*
G37*
G36*
X192528909Y-115533012D02*
X191626909Y-115533012D01*
X191626909Y-114831012D01*
X192528909Y-114831012D01*
X192528909Y-115533012D01*
X192528909Y-115533012D01*
G37*
G36*
X118977241Y-115504709D02*
X115105241Y-115504709D01*
X115105241Y-113952709D01*
X118977241Y-113952709D01*
X118977241Y-115504709D01*
X118977241Y-115504709D01*
G37*
G36*
X126440962Y-114277183D02*
X126541236Y-114318718D01*
X126631486Y-114379021D01*
X126708229Y-114455764D01*
X126768532Y-114546014D01*
X126810067Y-114646288D01*
X126831241Y-114752739D01*
X126831241Y-114861279D01*
X126810067Y-114967730D01*
X126768532Y-115068004D01*
X126708229Y-115158254D01*
X126631486Y-115234997D01*
X126541236Y-115295300D01*
X126440962Y-115336835D01*
X126334511Y-115358009D01*
X126225971Y-115358009D01*
X126119520Y-115336835D01*
X126019246Y-115295300D01*
X125928996Y-115234997D01*
X125852253Y-115158254D01*
X125791950Y-115068004D01*
X125750415Y-114967730D01*
X125729241Y-114861279D01*
X125729241Y-114752739D01*
X125750415Y-114646288D01*
X125791950Y-114546014D01*
X125852253Y-114455764D01*
X125928996Y-114379021D01*
X126019246Y-114318718D01*
X126119520Y-114277183D01*
X126225971Y-114256009D01*
X126334511Y-114256009D01*
X126440962Y-114277183D01*
X126440962Y-114277183D01*
G37*
G36*
X108179000Y-115212500D02*
X107277000Y-115212500D01*
X107277000Y-114510500D01*
X108179000Y-114510500D01*
X108179000Y-115212500D01*
X108179000Y-115212500D01*
G37*
G36*
X127964962Y-113400883D02*
X128065236Y-113442418D01*
X128155486Y-113502721D01*
X128232229Y-113579464D01*
X128292532Y-113669714D01*
X128334067Y-113769988D01*
X128355241Y-113876439D01*
X128355241Y-113984979D01*
X128334067Y-114091430D01*
X128292532Y-114191704D01*
X128232229Y-114281954D01*
X128155486Y-114358697D01*
X128065236Y-114419000D01*
X127964962Y-114460535D01*
X127858511Y-114481709D01*
X127749971Y-114481709D01*
X127643520Y-114460535D01*
X127543246Y-114419000D01*
X127452996Y-114358697D01*
X127376253Y-114281954D01*
X127315950Y-114191704D01*
X127274415Y-114091430D01*
X127253241Y-113984979D01*
X127253241Y-113876439D01*
X127274415Y-113769988D01*
X127315950Y-113669714D01*
X127376253Y-113579464D01*
X127452996Y-113502721D01*
X127543246Y-113442418D01*
X127643520Y-113400883D01*
X127749971Y-113379709D01*
X127858511Y-113379709D01*
X127964962Y-113400883D01*
X127964962Y-113400883D01*
G37*
G36*
X108179000Y-113812500D02*
X107277000Y-113812500D01*
X107277000Y-113110500D01*
X108179000Y-113110500D01*
X108179000Y-113812500D01*
X108179000Y-113812500D01*
G37*
G36*
X129933462Y-112499183D02*
X130033736Y-112540718D01*
X130123986Y-112601021D01*
X130200729Y-112677764D01*
X130261032Y-112768014D01*
X130302567Y-112868288D01*
X130323741Y-112974739D01*
X130323741Y-113083279D01*
X130302567Y-113189730D01*
X130261032Y-113290004D01*
X130200729Y-113380254D01*
X130123986Y-113456997D01*
X130033736Y-113517300D01*
X129933462Y-113558835D01*
X129827011Y-113580009D01*
X129718471Y-113580009D01*
X129612020Y-113558835D01*
X129511746Y-113517300D01*
X129421496Y-113456997D01*
X129344753Y-113380254D01*
X129284450Y-113290004D01*
X129242915Y-113189730D01*
X129221741Y-113083279D01*
X129221741Y-112974739D01*
X129242915Y-112868288D01*
X129284450Y-112768014D01*
X129344753Y-112677764D01*
X129421496Y-112601021D01*
X129511746Y-112540718D01*
X129612020Y-112499183D01*
X129718471Y-112478009D01*
X129827011Y-112478009D01*
X129933462Y-112499183D01*
X129933462Y-112499183D01*
G37*
G36*
X114657241Y-113504709D02*
X113105241Y-113504709D01*
X113105241Y-109632709D01*
X114657241Y-109632709D01*
X114657241Y-113504709D01*
X114657241Y-113504709D01*
G37*
G36*
X120977241Y-113504709D02*
X119425241Y-113504709D01*
X119425241Y-109632709D01*
X120977241Y-109632709D01*
X120977241Y-113504709D01*
X120977241Y-113504709D01*
G37*
G36*
X176648769Y-113129709D02*
X175746769Y-113129709D01*
X175746769Y-112427709D01*
X176648769Y-112427709D01*
X176648769Y-113129709D01*
X176648769Y-113129709D01*
G37*
G36*
X181722241Y-113129709D02*
X180820241Y-113129709D01*
X180820241Y-112427709D01*
X181722241Y-112427709D01*
X181722241Y-113129709D01*
X181722241Y-113129709D01*
G37*
G36*
X179185505Y-113129709D02*
X178283505Y-113129709D01*
X178283505Y-112427709D01*
X179185505Y-112427709D01*
X179185505Y-113129709D01*
X179185505Y-113129709D01*
G37*
G36*
X174112031Y-113129709D02*
X173210031Y-113129709D01*
X173210031Y-112427709D01*
X174112031Y-112427709D01*
X174112031Y-113129709D01*
X174112031Y-113129709D01*
G37*
G36*
X108189241Y-112632209D02*
X107287241Y-112632209D01*
X107287241Y-111930209D01*
X108189241Y-111930209D01*
X108189241Y-112632209D01*
X108189241Y-112632209D01*
G37*
G36*
X135532991Y-112568709D02*
X134630991Y-112568709D01*
X134630991Y-111866709D01*
X135532991Y-111866709D01*
X135532991Y-112568709D01*
X135532991Y-112568709D01*
G37*
G36*
X137653241Y-112568709D02*
X136751241Y-112568709D01*
X136751241Y-111866709D01*
X137653241Y-111866709D01*
X137653241Y-112568709D01*
X137653241Y-112568709D01*
G37*
G36*
X111454438Y-111761216D02*
X111475056Y-111767470D01*
X111494056Y-111777626D01*
X111510708Y-111791292D01*
X111524374Y-111807944D01*
X111534530Y-111826944D01*
X111540784Y-111847562D01*
X111543500Y-111875140D01*
X111543500Y-112383860D01*
X111540784Y-112411438D01*
X111534530Y-112432056D01*
X111524374Y-112451056D01*
X111510708Y-112467708D01*
X111494056Y-112481374D01*
X111475056Y-112491530D01*
X111454438Y-112497784D01*
X111426860Y-112500500D01*
X110968140Y-112500500D01*
X110940562Y-112497784D01*
X110919944Y-112491530D01*
X110900944Y-112481374D01*
X110884292Y-112467708D01*
X110870626Y-112451056D01*
X110860470Y-112432056D01*
X110854216Y-112411438D01*
X110851500Y-112383860D01*
X110851500Y-111875140D01*
X110854216Y-111847562D01*
X110860470Y-111826944D01*
X110870626Y-111807944D01*
X110884292Y-111791292D01*
X110900944Y-111777626D01*
X110919944Y-111767470D01*
X110940562Y-111761216D01*
X110968140Y-111758500D01*
X111426860Y-111758500D01*
X111454438Y-111761216D01*
X111454438Y-111761216D01*
G37*
G36*
X110484438Y-111761216D02*
X110505056Y-111767470D01*
X110524056Y-111777626D01*
X110540708Y-111791292D01*
X110554374Y-111807944D01*
X110564530Y-111826944D01*
X110570784Y-111847562D01*
X110573500Y-111875140D01*
X110573500Y-112383860D01*
X110570784Y-112411438D01*
X110564530Y-112432056D01*
X110554374Y-112451056D01*
X110540708Y-112467708D01*
X110524056Y-112481374D01*
X110505056Y-112491530D01*
X110484438Y-112497784D01*
X110456860Y-112500500D01*
X109998140Y-112500500D01*
X109970562Y-112497784D01*
X109949944Y-112491530D01*
X109930944Y-112481374D01*
X109914292Y-112467708D01*
X109900626Y-112451056D01*
X109890470Y-112432056D01*
X109884216Y-112411438D01*
X109881500Y-112383860D01*
X109881500Y-111875140D01*
X109884216Y-111847562D01*
X109890470Y-111826944D01*
X109900626Y-111807944D01*
X109914292Y-111791292D01*
X109930944Y-111777626D01*
X109949944Y-111767470D01*
X109970562Y-111761216D01*
X109998140Y-111758500D01*
X110456860Y-111758500D01*
X110484438Y-111761216D01*
X110484438Y-111761216D01*
G37*
G36*
X104288637Y-110064255D02*
X104461707Y-110135943D01*
X104617471Y-110240021D01*
X104749929Y-110372479D01*
X104854007Y-110528243D01*
X104925695Y-110701313D01*
X104962241Y-110885042D01*
X104962241Y-111072376D01*
X104925695Y-111256105D01*
X104854007Y-111429175D01*
X104749929Y-111584939D01*
X104617471Y-111717397D01*
X104461707Y-111821475D01*
X104288637Y-111893163D01*
X104104908Y-111929709D01*
X103917574Y-111929709D01*
X103733845Y-111893163D01*
X103560775Y-111821475D01*
X103405011Y-111717397D01*
X103272553Y-111584939D01*
X103168475Y-111429175D01*
X103096787Y-111256105D01*
X103060241Y-111072376D01*
X103060241Y-110885042D01*
X103096787Y-110701313D01*
X103168475Y-110528243D01*
X103272553Y-110372479D01*
X103405011Y-110240021D01*
X103560775Y-110135943D01*
X103733845Y-110064255D01*
X103917574Y-110027709D01*
X104104908Y-110027709D01*
X104288637Y-110064255D01*
X104288637Y-110064255D01*
G37*
G36*
X181722241Y-111729709D02*
X180820241Y-111729709D01*
X180820241Y-111027709D01*
X181722241Y-111027709D01*
X181722241Y-111729709D01*
X181722241Y-111729709D01*
G37*
G36*
X179185505Y-111729709D02*
X178283505Y-111729709D01*
X178283505Y-111027709D01*
X179185505Y-111027709D01*
X179185505Y-111729709D01*
X179185505Y-111729709D01*
G37*
G36*
X176648769Y-111729709D02*
X175746769Y-111729709D01*
X175746769Y-111027709D01*
X176648769Y-111027709D01*
X176648769Y-111729709D01*
X176648769Y-111729709D01*
G37*
G36*
X174112031Y-111729709D02*
X173210031Y-111729709D01*
X173210031Y-111027709D01*
X174112031Y-111027709D01*
X174112031Y-111729709D01*
X174112031Y-111729709D01*
G37*
G36*
X133543179Y-110910425D02*
X133563797Y-110916679D01*
X133582797Y-110926835D01*
X133599449Y-110940501D01*
X133613115Y-110957153D01*
X133623271Y-110976153D01*
X133629525Y-110996771D01*
X133632241Y-111024349D01*
X133632241Y-111483069D01*
X133629525Y-111510647D01*
X133623271Y-111531265D01*
X133613115Y-111550265D01*
X133599449Y-111566917D01*
X133582797Y-111580583D01*
X133563797Y-111590739D01*
X133543179Y-111596993D01*
X133515601Y-111599709D01*
X133006881Y-111599709D01*
X132979303Y-111596993D01*
X132958685Y-111590739D01*
X132939685Y-111580583D01*
X132923033Y-111566917D01*
X132909367Y-111550265D01*
X132899211Y-111531265D01*
X132892957Y-111510647D01*
X132890241Y-111483069D01*
X132890241Y-111024349D01*
X132892957Y-110996771D01*
X132899211Y-110976153D01*
X132909367Y-110957153D01*
X132923033Y-110940501D01*
X132939685Y-110926835D01*
X132958685Y-110916679D01*
X132979303Y-110910425D01*
X133006881Y-110907709D01*
X133515601Y-110907709D01*
X133543179Y-110910425D01*
X133543179Y-110910425D01*
G37*
G36*
X111454438Y-110681716D02*
X111475056Y-110687970D01*
X111494056Y-110698126D01*
X111510708Y-110711792D01*
X111524374Y-110728444D01*
X111534530Y-110747444D01*
X111540784Y-110768062D01*
X111543500Y-110795640D01*
X111543500Y-111304360D01*
X111540784Y-111331938D01*
X111534530Y-111352556D01*
X111524374Y-111371556D01*
X111510708Y-111388208D01*
X111494056Y-111401874D01*
X111475056Y-111412030D01*
X111454438Y-111418284D01*
X111426860Y-111421000D01*
X110968140Y-111421000D01*
X110940562Y-111418284D01*
X110919944Y-111412030D01*
X110900944Y-111401874D01*
X110884292Y-111388208D01*
X110870626Y-111371556D01*
X110860470Y-111352556D01*
X110854216Y-111331938D01*
X110851500Y-111304360D01*
X110851500Y-110795640D01*
X110854216Y-110768062D01*
X110860470Y-110747444D01*
X110870626Y-110728444D01*
X110884292Y-110711792D01*
X110900944Y-110698126D01*
X110919944Y-110687970D01*
X110940562Y-110681716D01*
X110968140Y-110679000D01*
X111426860Y-110679000D01*
X111454438Y-110681716D01*
X111454438Y-110681716D01*
G37*
G36*
X110484438Y-110681716D02*
X110505056Y-110687970D01*
X110524056Y-110698126D01*
X110540708Y-110711792D01*
X110554374Y-110728444D01*
X110564530Y-110747444D01*
X110570784Y-110768062D01*
X110573500Y-110795640D01*
X110573500Y-111304360D01*
X110570784Y-111331938D01*
X110564530Y-111352556D01*
X110554374Y-111371556D01*
X110540708Y-111388208D01*
X110524056Y-111401874D01*
X110505056Y-111412030D01*
X110484438Y-111418284D01*
X110456860Y-111421000D01*
X109998140Y-111421000D01*
X109970562Y-111418284D01*
X109949944Y-111412030D01*
X109930944Y-111401874D01*
X109914292Y-111388208D01*
X109900626Y-111371556D01*
X109890470Y-111352556D01*
X109884216Y-111331938D01*
X109881500Y-111304360D01*
X109881500Y-110795640D01*
X109884216Y-110768062D01*
X109890470Y-110747444D01*
X109900626Y-110728444D01*
X109914292Y-110711792D01*
X109930944Y-110698126D01*
X109949944Y-110687970D01*
X109970562Y-110681716D01*
X109998140Y-110679000D01*
X110456860Y-110679000D01*
X110484438Y-110681716D01*
X110484438Y-110681716D01*
G37*
G36*
X108189241Y-111232209D02*
X107287241Y-111232209D01*
X107287241Y-110530209D01*
X108189241Y-110530209D01*
X108189241Y-111232209D01*
X108189241Y-111232209D01*
G37*
G36*
X135532991Y-111168709D02*
X134630991Y-111168709D01*
X134630991Y-110466709D01*
X135532991Y-110466709D01*
X135532991Y-111168709D01*
X135532991Y-111168709D01*
G37*
G36*
X137653241Y-111168709D02*
X136751241Y-111168709D01*
X136751241Y-110466709D01*
X137653241Y-110466709D01*
X137653241Y-111168709D01*
X137653241Y-111168709D01*
G37*
G36*
X200281459Y-109454375D02*
X200157241Y-109454375D01*
X200132855Y-109456777D01*
X200109406Y-109463890D01*
X200087795Y-109475441D01*
X200068853Y-109490987D01*
X200053307Y-109509929D01*
X200041756Y-109531540D01*
X200034643Y-109554989D01*
X200032241Y-109579375D01*
X200032241Y-110954709D01*
X198430241Y-110954709D01*
X198430241Y-109579375D01*
X198429459Y-109571436D01*
X198429459Y-108652375D01*
X200281459Y-108652375D01*
X200281459Y-109454375D01*
X200281459Y-109454375D01*
G37*
G36*
X190602241Y-109877709D02*
X190604643Y-109902095D01*
X190611756Y-109925544D01*
X190623307Y-109947155D01*
X190638853Y-109966097D01*
X190657795Y-109981643D01*
X190679406Y-109993194D01*
X190702855Y-110000307D01*
X190727241Y-110002709D01*
X192422241Y-110002709D01*
X192422241Y-110904709D01*
X189500241Y-110904709D01*
X189500241Y-109402709D01*
X190602241Y-109402709D01*
X190602241Y-109877709D01*
X190602241Y-109877709D01*
G37*
G36*
X133543179Y-109940425D02*
X133563797Y-109946679D01*
X133582797Y-109956835D01*
X133599449Y-109970501D01*
X133613115Y-109987153D01*
X133623271Y-110006153D01*
X133629525Y-110026771D01*
X133632241Y-110054349D01*
X133632241Y-110513069D01*
X133629525Y-110540647D01*
X133623271Y-110561265D01*
X133613115Y-110580265D01*
X133599449Y-110596917D01*
X133582797Y-110610583D01*
X133563797Y-110620739D01*
X133543179Y-110626993D01*
X133515601Y-110629709D01*
X133006881Y-110629709D01*
X132979303Y-110626993D01*
X132958685Y-110620739D01*
X132939685Y-110610583D01*
X132923033Y-110596917D01*
X132909367Y-110580265D01*
X132899211Y-110561265D01*
X132892957Y-110540647D01*
X132890241Y-110513069D01*
X132890241Y-110054349D01*
X132892957Y-110026771D01*
X132899211Y-110006153D01*
X132909367Y-109987153D01*
X132923033Y-109970501D01*
X132939685Y-109956835D01*
X132958685Y-109946679D01*
X132979303Y-109940425D01*
X133006881Y-109937709D01*
X133515601Y-109937709D01*
X133543179Y-109940425D01*
X133543179Y-109940425D01*
G37*
G36*
X125488462Y-109260683D02*
X125588736Y-109302218D01*
X125678986Y-109362521D01*
X125755729Y-109439264D01*
X125816032Y-109529514D01*
X125857567Y-109629788D01*
X125878741Y-109736239D01*
X125878741Y-109844779D01*
X125857567Y-109951230D01*
X125816032Y-110051504D01*
X125755729Y-110141754D01*
X125678986Y-110218497D01*
X125588736Y-110278800D01*
X125488462Y-110320335D01*
X125382011Y-110341509D01*
X125273471Y-110341509D01*
X125167020Y-110320335D01*
X125066746Y-110278800D01*
X124976496Y-110218497D01*
X124899753Y-110141754D01*
X124839450Y-110051504D01*
X124797915Y-109951230D01*
X124776741Y-109844779D01*
X124776741Y-109736239D01*
X124797915Y-109629788D01*
X124839450Y-109529514D01*
X124899753Y-109439264D01*
X124976496Y-109362521D01*
X125066746Y-109302218D01*
X125167020Y-109260683D01*
X125273471Y-109239509D01*
X125382011Y-109239509D01*
X125488462Y-109260683D01*
X125488462Y-109260683D01*
G37*
G36*
X101797401Y-106273077D02*
X101797403Y-106273078D01*
X101797404Y-106273078D01*
X101874480Y-106305004D01*
X102106967Y-106401303D01*
X102385568Y-106587458D01*
X102622492Y-106824382D01*
X102808647Y-107102983D01*
X102936873Y-107412549D01*
X103002241Y-107741174D01*
X103002241Y-108076244D01*
X102936873Y-108404869D01*
X102808647Y-108714435D01*
X102622492Y-108993036D01*
X102385568Y-109229960D01*
X102106967Y-109416115D01*
X101963741Y-109475441D01*
X101797404Y-109544340D01*
X101797403Y-109544340D01*
X101797401Y-109544341D01*
X101468776Y-109609709D01*
X101133706Y-109609709D01*
X100805081Y-109544341D01*
X100805079Y-109544340D01*
X100805078Y-109544340D01*
X100638741Y-109475441D01*
X100495515Y-109416115D01*
X100216914Y-109229960D01*
X99979990Y-108993036D01*
X99793835Y-108714435D01*
X99665609Y-108404869D01*
X99600241Y-108076244D01*
X99600241Y-107741174D01*
X99665609Y-107412549D01*
X99793835Y-107102983D01*
X99979990Y-106824382D01*
X100216914Y-106587458D01*
X100495515Y-106401303D01*
X100728002Y-106305004D01*
X100805078Y-106273078D01*
X100805079Y-106273078D01*
X100805081Y-106273077D01*
X101133706Y-106207709D01*
X101468776Y-106207709D01*
X101797401Y-106273077D01*
X101797401Y-106273077D01*
G37*
G36*
X143394241Y-109264709D02*
X139892241Y-109264709D01*
X139892241Y-108162709D01*
X143394241Y-108162709D01*
X143394241Y-109264709D01*
X143394241Y-109264709D01*
G37*
G36*
X118977241Y-109184709D02*
X115105241Y-109184709D01*
X115105241Y-107632709D01*
X118977241Y-107632709D01*
X118977241Y-109184709D01*
X118977241Y-109184709D01*
G37*
G36*
X134458598Y-108098792D02*
X134463269Y-108100209D01*
X134467571Y-108102509D01*
X134473946Y-108107740D01*
X134494321Y-108121353D01*
X134516960Y-108130729D01*
X134540994Y-108135509D01*
X134565498Y-108135508D01*
X134589532Y-108130726D01*
X134612170Y-108121348D01*
X134632536Y-108107740D01*
X134638911Y-108102509D01*
X134643213Y-108100209D01*
X134647884Y-108098792D01*
X134658882Y-108097709D01*
X134947600Y-108097709D01*
X134958598Y-108098792D01*
X134963269Y-108100209D01*
X134967571Y-108102509D01*
X134973946Y-108107740D01*
X134994321Y-108121353D01*
X135016960Y-108130729D01*
X135040994Y-108135509D01*
X135065498Y-108135508D01*
X135089532Y-108130726D01*
X135112170Y-108121348D01*
X135132536Y-108107740D01*
X135138911Y-108102509D01*
X135143213Y-108100209D01*
X135147884Y-108098792D01*
X135158882Y-108097709D01*
X135447600Y-108097709D01*
X135458598Y-108098792D01*
X135463269Y-108100209D01*
X135467571Y-108102509D01*
X135473946Y-108107740D01*
X135494321Y-108121353D01*
X135516960Y-108130729D01*
X135540994Y-108135509D01*
X135565498Y-108135508D01*
X135589532Y-108130726D01*
X135612170Y-108121348D01*
X135632536Y-108107740D01*
X135638911Y-108102509D01*
X135643213Y-108100209D01*
X135647884Y-108098792D01*
X135658882Y-108097709D01*
X135947600Y-108097709D01*
X135958598Y-108098792D01*
X135963269Y-108100209D01*
X135967571Y-108102509D01*
X135973946Y-108107740D01*
X135994321Y-108121353D01*
X136016960Y-108130729D01*
X136040994Y-108135509D01*
X136065498Y-108135508D01*
X136089532Y-108130726D01*
X136112170Y-108121348D01*
X136132536Y-108107740D01*
X136138911Y-108102509D01*
X136143213Y-108100209D01*
X136147884Y-108098792D01*
X136158882Y-108097709D01*
X136447600Y-108097709D01*
X136458598Y-108098792D01*
X136463269Y-108100209D01*
X136467571Y-108102509D01*
X136471345Y-108105605D01*
X136474441Y-108109379D01*
X136476741Y-108113681D01*
X136478158Y-108118352D01*
X136479241Y-108129350D01*
X136479241Y-109043068D01*
X136478158Y-109054066D01*
X136476741Y-109058737D01*
X136474441Y-109063039D01*
X136471345Y-109066813D01*
X136467571Y-109069909D01*
X136463269Y-109072209D01*
X136458598Y-109073626D01*
X136447600Y-109074709D01*
X136158882Y-109074709D01*
X136147884Y-109073626D01*
X136143213Y-109072209D01*
X136138911Y-109069909D01*
X136132536Y-109064678D01*
X136112161Y-109051065D01*
X136089522Y-109041689D01*
X136065488Y-109036909D01*
X136040984Y-109036910D01*
X136016950Y-109041692D01*
X135994312Y-109051070D01*
X135973946Y-109064678D01*
X135967571Y-109069909D01*
X135963269Y-109072209D01*
X135958598Y-109073626D01*
X135947600Y-109074709D01*
X135658882Y-109074709D01*
X135647884Y-109073626D01*
X135643213Y-109072209D01*
X135638911Y-109069909D01*
X135632536Y-109064678D01*
X135612161Y-109051065D01*
X135589522Y-109041689D01*
X135565488Y-109036909D01*
X135540984Y-109036910D01*
X135516950Y-109041692D01*
X135494312Y-109051070D01*
X135473946Y-109064678D01*
X135467571Y-109069909D01*
X135463269Y-109072209D01*
X135458598Y-109073626D01*
X135447600Y-109074709D01*
X135158882Y-109074709D01*
X135147884Y-109073626D01*
X135143213Y-109072209D01*
X135138911Y-109069909D01*
X135132536Y-109064678D01*
X135112161Y-109051065D01*
X135089522Y-109041689D01*
X135065488Y-109036909D01*
X135040984Y-109036910D01*
X135016950Y-109041692D01*
X134994312Y-109051070D01*
X134973946Y-109064678D01*
X134967571Y-109069909D01*
X134963269Y-109072209D01*
X134958598Y-109073626D01*
X134947600Y-109074709D01*
X134658882Y-109074709D01*
X134647884Y-109073626D01*
X134643213Y-109072209D01*
X134638911Y-109069909D01*
X134632536Y-109064678D01*
X134612161Y-109051065D01*
X134589522Y-109041689D01*
X134565488Y-109036909D01*
X134540984Y-109036910D01*
X134516950Y-109041692D01*
X134494312Y-109051070D01*
X134473946Y-109064678D01*
X134467571Y-109069909D01*
X134463269Y-109072209D01*
X134458598Y-109073626D01*
X134447600Y-109074709D01*
X134158882Y-109074709D01*
X134147884Y-109073626D01*
X134143213Y-109072209D01*
X134138911Y-109069909D01*
X134135137Y-109066813D01*
X134132041Y-109063039D01*
X134129741Y-109058737D01*
X134128324Y-109054066D01*
X134127241Y-109043068D01*
X134127241Y-108129350D01*
X134128324Y-108118352D01*
X134129741Y-108113681D01*
X134132041Y-108109379D01*
X134135137Y-108105605D01*
X134138911Y-108102509D01*
X134143213Y-108100209D01*
X134147884Y-108098792D01*
X134158882Y-108097709D01*
X134447600Y-108097709D01*
X134458598Y-108098792D01*
X134458598Y-108098792D01*
G37*
G36*
X200281459Y-108354375D02*
X198429459Y-108354375D01*
X198429459Y-107552375D01*
X200281459Y-107552375D01*
X200281459Y-108354375D01*
X200281459Y-108354375D01*
G37*
G36*
X130123962Y-107050883D02*
X130224236Y-107092418D01*
X130314486Y-107152721D01*
X130391229Y-107229464D01*
X130451532Y-107319714D01*
X130493067Y-107419988D01*
X130514241Y-107526439D01*
X130514241Y-107634979D01*
X130493067Y-107741430D01*
X130451532Y-107841704D01*
X130391229Y-107931954D01*
X130314486Y-108008697D01*
X130224236Y-108069000D01*
X130123962Y-108110535D01*
X130017511Y-108131709D01*
X129908971Y-108131709D01*
X129802520Y-108110535D01*
X129702246Y-108069000D01*
X129611996Y-108008697D01*
X129535253Y-107931954D01*
X129474950Y-107841704D01*
X129433415Y-107741430D01*
X129412241Y-107634979D01*
X129412241Y-107526439D01*
X129433415Y-107419988D01*
X129474950Y-107319714D01*
X129535253Y-107229464D01*
X129611996Y-107152721D01*
X129702246Y-107092418D01*
X129802520Y-107050883D01*
X129908971Y-107029709D01*
X130017511Y-107029709D01*
X130123962Y-107050883D01*
X130123962Y-107050883D01*
G37*
G36*
X136194483Y-106502113D02*
X136231580Y-106513366D01*
X136265761Y-106531636D01*
X136295723Y-106556227D01*
X136320314Y-106586189D01*
X136338584Y-106620370D01*
X136349837Y-106657467D01*
X136354241Y-106702182D01*
X136354241Y-107595236D01*
X136349837Y-107639951D01*
X136338584Y-107677048D01*
X136320314Y-107711229D01*
X136295723Y-107741191D01*
X136265761Y-107765782D01*
X136231580Y-107784052D01*
X136194483Y-107795305D01*
X136149768Y-107799709D01*
X134456714Y-107799709D01*
X134411999Y-107795305D01*
X134374902Y-107784052D01*
X134340721Y-107765782D01*
X134310759Y-107741191D01*
X134286168Y-107711229D01*
X134267898Y-107677048D01*
X134256645Y-107639951D01*
X134252241Y-107595236D01*
X134252241Y-106702182D01*
X134256645Y-106657467D01*
X134267898Y-106620370D01*
X134286168Y-106586189D01*
X134310759Y-106556227D01*
X134340721Y-106531636D01*
X134374902Y-106513366D01*
X134411999Y-106502113D01*
X134456714Y-106497709D01*
X136149768Y-106497709D01*
X136194483Y-106502113D01*
X136194483Y-106502113D01*
G37*
G36*
X113994962Y-106403183D02*
X114095236Y-106444718D01*
X114185486Y-106505021D01*
X114262229Y-106581764D01*
X114322532Y-106672014D01*
X114364067Y-106772288D01*
X114385241Y-106878739D01*
X114385241Y-106987279D01*
X114364067Y-107093730D01*
X114322532Y-107194004D01*
X114262229Y-107284254D01*
X114185486Y-107360997D01*
X114095236Y-107421300D01*
X113994962Y-107462835D01*
X113888511Y-107484009D01*
X113779971Y-107484009D01*
X113673520Y-107462835D01*
X113573246Y-107421300D01*
X113482996Y-107360997D01*
X113406253Y-107284254D01*
X113345950Y-107194004D01*
X113304415Y-107093730D01*
X113283241Y-106987279D01*
X113283241Y-106878739D01*
X113304415Y-106772288D01*
X113345950Y-106672014D01*
X113406253Y-106581764D01*
X113482996Y-106505021D01*
X113573246Y-106444718D01*
X113673520Y-106403183D01*
X113779971Y-106382009D01*
X113888511Y-106382009D01*
X113994962Y-106403183D01*
X113994962Y-106403183D01*
G37*
G36*
X200281459Y-107254375D02*
X198429459Y-107254375D01*
X198429459Y-106452375D01*
X200281459Y-106452375D01*
X200281459Y-107254375D01*
X200281459Y-107254375D01*
G37*
G36*
X110103179Y-106410425D02*
X110123797Y-106416679D01*
X110142797Y-106426835D01*
X110159449Y-106440501D01*
X110173115Y-106457153D01*
X110183271Y-106476153D01*
X110189525Y-106496771D01*
X110192241Y-106524349D01*
X110192241Y-107033069D01*
X110189525Y-107060647D01*
X110183271Y-107081265D01*
X110173115Y-107100265D01*
X110159449Y-107116917D01*
X110142797Y-107130583D01*
X110123797Y-107140739D01*
X110103179Y-107146993D01*
X110075601Y-107149709D01*
X109616881Y-107149709D01*
X109589303Y-107146993D01*
X109568685Y-107140739D01*
X109549685Y-107130583D01*
X109533033Y-107116917D01*
X109519367Y-107100265D01*
X109509211Y-107081265D01*
X109502957Y-107060647D01*
X109500241Y-107033069D01*
X109500241Y-106524349D01*
X109502957Y-106496771D01*
X109509211Y-106476153D01*
X109519367Y-106457153D01*
X109533033Y-106440501D01*
X109549685Y-106426835D01*
X109568685Y-106416679D01*
X109589303Y-106410425D01*
X109616881Y-106407709D01*
X110075601Y-106407709D01*
X110103179Y-106410425D01*
X110103179Y-106410425D01*
G37*
G36*
X109133179Y-106410425D02*
X109153797Y-106416679D01*
X109172797Y-106426835D01*
X109189449Y-106440501D01*
X109203115Y-106457153D01*
X109213271Y-106476153D01*
X109219525Y-106496771D01*
X109222241Y-106524349D01*
X109222241Y-107033069D01*
X109219525Y-107060647D01*
X109213271Y-107081265D01*
X109203115Y-107100265D01*
X109189449Y-107116917D01*
X109172797Y-107130583D01*
X109153797Y-107140739D01*
X109133179Y-107146993D01*
X109105601Y-107149709D01*
X108646881Y-107149709D01*
X108619303Y-107146993D01*
X108598685Y-107140739D01*
X108579685Y-107130583D01*
X108563033Y-107116917D01*
X108549367Y-107100265D01*
X108539211Y-107081265D01*
X108532957Y-107060647D01*
X108530241Y-107033069D01*
X108530241Y-106524349D01*
X108532957Y-106496771D01*
X108539211Y-106476153D01*
X108549367Y-106457153D01*
X108563033Y-106440501D01*
X108579685Y-106426835D01*
X108598685Y-106416679D01*
X108619303Y-106410425D01*
X108646881Y-106407709D01*
X109105601Y-106407709D01*
X109133179Y-106410425D01*
X109133179Y-106410425D01*
G37*
G36*
X143394241Y-106894709D02*
X139892241Y-106894709D01*
X139892241Y-105792709D01*
X143394241Y-105792709D01*
X143394241Y-106894709D01*
X143394241Y-106894709D01*
G37*
G36*
X123646962Y-105514183D02*
X123747236Y-105555718D01*
X123837486Y-105616021D01*
X123914229Y-105692764D01*
X123974532Y-105783014D01*
X124016067Y-105883288D01*
X124037241Y-105989739D01*
X124037241Y-106098279D01*
X124016067Y-106204730D01*
X123974532Y-106305004D01*
X123914229Y-106395254D01*
X123837486Y-106471997D01*
X123747236Y-106532300D01*
X123646962Y-106573835D01*
X123540511Y-106595009D01*
X123431971Y-106595009D01*
X123325520Y-106573835D01*
X123225246Y-106532300D01*
X123134996Y-106471997D01*
X123058253Y-106395254D01*
X122997950Y-106305004D01*
X122956415Y-106204730D01*
X122935241Y-106098279D01*
X122935241Y-105989739D01*
X122956415Y-105883288D01*
X122997950Y-105783014D01*
X123058253Y-105692764D01*
X123134996Y-105616021D01*
X123225246Y-105555718D01*
X123325520Y-105514183D01*
X123431971Y-105493009D01*
X123540511Y-105493009D01*
X123646962Y-105514183D01*
X123646962Y-105514183D01*
G37*
G36*
X125979241Y-106470209D02*
X125277241Y-106470209D01*
X125277241Y-105568209D01*
X125979241Y-105568209D01*
X125979241Y-106470209D01*
X125979241Y-106470209D01*
G37*
G36*
X127379241Y-106470209D02*
X126677241Y-106470209D01*
X126677241Y-105568209D01*
X127379241Y-105568209D01*
X127379241Y-106470209D01*
X127379241Y-106470209D01*
G37*
G36*
X130123962Y-105145883D02*
X130224236Y-105187418D01*
X130314486Y-105247721D01*
X130391229Y-105324464D01*
X130451532Y-105414714D01*
X130493067Y-105514988D01*
X130514241Y-105621439D01*
X130514241Y-105729979D01*
X130493067Y-105836430D01*
X130451532Y-105936704D01*
X130391229Y-106026954D01*
X130314486Y-106103697D01*
X130224236Y-106164000D01*
X130123962Y-106205535D01*
X130017511Y-106226709D01*
X129908971Y-106226709D01*
X129802520Y-106205535D01*
X129702246Y-106164000D01*
X129611996Y-106103697D01*
X129535253Y-106026954D01*
X129474950Y-105936704D01*
X129433415Y-105836430D01*
X129412241Y-105729979D01*
X129412241Y-105621439D01*
X129433415Y-105514988D01*
X129474950Y-105414714D01*
X129535253Y-105324464D01*
X129611996Y-105247721D01*
X129702246Y-105187418D01*
X129802520Y-105145883D01*
X129908971Y-105124709D01*
X130017511Y-105124709D01*
X130123962Y-105145883D01*
X130123962Y-105145883D01*
G37*
G36*
X134458598Y-105223792D02*
X134463269Y-105225209D01*
X134467571Y-105227509D01*
X134473946Y-105232740D01*
X134494321Y-105246353D01*
X134516960Y-105255729D01*
X134540994Y-105260509D01*
X134565498Y-105260508D01*
X134589532Y-105255726D01*
X134612170Y-105246348D01*
X134632536Y-105232740D01*
X134638911Y-105227509D01*
X134643213Y-105225209D01*
X134647884Y-105223792D01*
X134658882Y-105222709D01*
X134947600Y-105222709D01*
X134958598Y-105223792D01*
X134963269Y-105225209D01*
X134967571Y-105227509D01*
X134973946Y-105232740D01*
X134994321Y-105246353D01*
X135016960Y-105255729D01*
X135040994Y-105260509D01*
X135065498Y-105260508D01*
X135089532Y-105255726D01*
X135112170Y-105246348D01*
X135132536Y-105232740D01*
X135138911Y-105227509D01*
X135143213Y-105225209D01*
X135147884Y-105223792D01*
X135158882Y-105222709D01*
X135447600Y-105222709D01*
X135458598Y-105223792D01*
X135463269Y-105225209D01*
X135467571Y-105227509D01*
X135473946Y-105232740D01*
X135494321Y-105246353D01*
X135516960Y-105255729D01*
X135540994Y-105260509D01*
X135565498Y-105260508D01*
X135589532Y-105255726D01*
X135612170Y-105246348D01*
X135632536Y-105232740D01*
X135638911Y-105227509D01*
X135643213Y-105225209D01*
X135647884Y-105223792D01*
X135658882Y-105222709D01*
X135947600Y-105222709D01*
X135958598Y-105223792D01*
X135963269Y-105225209D01*
X135967571Y-105227509D01*
X135973946Y-105232740D01*
X135994321Y-105246353D01*
X136016960Y-105255729D01*
X136040994Y-105260509D01*
X136065498Y-105260508D01*
X136089532Y-105255726D01*
X136112170Y-105246348D01*
X136132536Y-105232740D01*
X136138911Y-105227509D01*
X136143213Y-105225209D01*
X136147884Y-105223792D01*
X136158882Y-105222709D01*
X136447600Y-105222709D01*
X136458598Y-105223792D01*
X136463269Y-105225209D01*
X136467571Y-105227509D01*
X136471345Y-105230605D01*
X136474441Y-105234379D01*
X136476741Y-105238681D01*
X136478158Y-105243352D01*
X136479241Y-105254350D01*
X136479241Y-106168068D01*
X136478158Y-106179066D01*
X136476741Y-106183737D01*
X136474441Y-106188039D01*
X136471345Y-106191813D01*
X136467571Y-106194909D01*
X136463269Y-106197209D01*
X136458598Y-106198626D01*
X136447600Y-106199709D01*
X136158882Y-106199709D01*
X136147884Y-106198626D01*
X136143213Y-106197209D01*
X136138911Y-106194909D01*
X136132536Y-106189678D01*
X136112161Y-106176065D01*
X136089522Y-106166689D01*
X136065488Y-106161909D01*
X136040984Y-106161910D01*
X136016950Y-106166692D01*
X135994312Y-106176070D01*
X135973946Y-106189678D01*
X135967571Y-106194909D01*
X135963269Y-106197209D01*
X135958598Y-106198626D01*
X135947600Y-106199709D01*
X135658882Y-106199709D01*
X135647884Y-106198626D01*
X135643213Y-106197209D01*
X135638911Y-106194909D01*
X135632536Y-106189678D01*
X135612161Y-106176065D01*
X135589522Y-106166689D01*
X135565488Y-106161909D01*
X135540984Y-106161910D01*
X135516950Y-106166692D01*
X135494312Y-106176070D01*
X135473946Y-106189678D01*
X135467571Y-106194909D01*
X135463269Y-106197209D01*
X135458598Y-106198626D01*
X135447600Y-106199709D01*
X135158882Y-106199709D01*
X135147884Y-106198626D01*
X135143213Y-106197209D01*
X135138911Y-106194909D01*
X135132536Y-106189678D01*
X135112161Y-106176065D01*
X135089522Y-106166689D01*
X135065488Y-106161909D01*
X135040984Y-106161910D01*
X135016950Y-106166692D01*
X134994312Y-106176070D01*
X134973946Y-106189678D01*
X134967571Y-106194909D01*
X134963269Y-106197209D01*
X134958598Y-106198626D01*
X134947600Y-106199709D01*
X134658882Y-106199709D01*
X134647884Y-106198626D01*
X134643213Y-106197209D01*
X134638911Y-106194909D01*
X134632536Y-106189678D01*
X134612161Y-106176065D01*
X134589522Y-106166689D01*
X134565488Y-106161909D01*
X134540984Y-106161910D01*
X134516950Y-106166692D01*
X134494312Y-106176070D01*
X134473946Y-106189678D01*
X134467571Y-106194909D01*
X134463269Y-106197209D01*
X134458598Y-106198626D01*
X134447600Y-106199709D01*
X134158882Y-106199709D01*
X134147884Y-106198626D01*
X134143213Y-106197209D01*
X134138911Y-106194909D01*
X134135137Y-106191813D01*
X134132041Y-106188039D01*
X134129741Y-106183737D01*
X134128324Y-106179066D01*
X134127241Y-106168068D01*
X134127241Y-105254350D01*
X134128324Y-105243352D01*
X134129741Y-105238681D01*
X134132041Y-105234379D01*
X134135137Y-105230605D01*
X134138911Y-105227509D01*
X134143213Y-105225209D01*
X134147884Y-105223792D01*
X134158882Y-105222709D01*
X134447600Y-105222709D01*
X134458598Y-105223792D01*
X134458598Y-105223792D01*
G37*
G36*
X200281459Y-106154375D02*
X198429459Y-106154375D01*
X198429459Y-105352375D01*
X200281459Y-105352375D01*
X200281459Y-106154375D01*
X200281459Y-106154375D01*
G37*
G36*
X200281459Y-105054375D02*
X198429459Y-105054375D01*
X198429459Y-104252375D01*
X200281459Y-104252375D01*
X200281459Y-105054375D01*
X200281459Y-105054375D01*
G37*
G36*
X186913179Y-104310425D02*
X186933797Y-104316679D01*
X186952797Y-104326835D01*
X186969449Y-104340501D01*
X186983115Y-104357153D01*
X186993271Y-104376153D01*
X186999525Y-104396771D01*
X187002241Y-104424349D01*
X187002241Y-104933069D01*
X186999525Y-104960647D01*
X186993271Y-104981265D01*
X186983115Y-105000265D01*
X186969449Y-105016917D01*
X186952797Y-105030583D01*
X186933797Y-105040739D01*
X186913179Y-105046993D01*
X186885601Y-105049709D01*
X186426881Y-105049709D01*
X186399303Y-105046993D01*
X186378685Y-105040739D01*
X186359685Y-105030583D01*
X186343033Y-105016917D01*
X186329367Y-105000265D01*
X186319211Y-104981265D01*
X186312957Y-104960647D01*
X186310241Y-104933069D01*
X186310241Y-104424349D01*
X186312957Y-104396771D01*
X186319211Y-104376153D01*
X186329367Y-104357153D01*
X186343033Y-104340501D01*
X186359685Y-104326835D01*
X186378685Y-104316679D01*
X186399303Y-104310425D01*
X186426881Y-104307709D01*
X186885601Y-104307709D01*
X186913179Y-104310425D01*
X186913179Y-104310425D01*
G37*
G36*
X185943179Y-104310425D02*
X185963797Y-104316679D01*
X185982797Y-104326835D01*
X185999449Y-104340501D01*
X186013115Y-104357153D01*
X186023271Y-104376153D01*
X186029525Y-104396771D01*
X186032241Y-104424349D01*
X186032241Y-104933069D01*
X186029525Y-104960647D01*
X186023271Y-104981265D01*
X186013115Y-105000265D01*
X185999449Y-105016917D01*
X185982797Y-105030583D01*
X185963797Y-105040739D01*
X185943179Y-105046993D01*
X185915601Y-105049709D01*
X185456881Y-105049709D01*
X185429303Y-105046993D01*
X185408685Y-105040739D01*
X185389685Y-105030583D01*
X185373033Y-105016917D01*
X185359367Y-105000265D01*
X185349211Y-104981265D01*
X185342957Y-104960647D01*
X185340241Y-104933069D01*
X185340241Y-104424349D01*
X185342957Y-104396771D01*
X185349211Y-104376153D01*
X185359367Y-104357153D01*
X185373033Y-104340501D01*
X185389685Y-104326835D01*
X185408685Y-104316679D01*
X185429303Y-104310425D01*
X185456881Y-104307709D01*
X185915601Y-104307709D01*
X185943179Y-104310425D01*
X185943179Y-104310425D01*
G37*
G36*
X129996962Y-103050383D02*
X130097236Y-103091918D01*
X130187486Y-103152221D01*
X130264229Y-103228964D01*
X130324532Y-103319214D01*
X130366067Y-103419488D01*
X130387241Y-103525939D01*
X130387241Y-103634479D01*
X130366067Y-103740930D01*
X130324532Y-103841204D01*
X130264229Y-103931454D01*
X130187486Y-104008197D01*
X130097236Y-104068500D01*
X129996962Y-104110035D01*
X129890511Y-104131209D01*
X129781971Y-104131209D01*
X129675520Y-104110035D01*
X129575246Y-104068500D01*
X129484996Y-104008197D01*
X129408253Y-103931454D01*
X129347950Y-103841204D01*
X129306415Y-103740930D01*
X129285241Y-103634479D01*
X129285241Y-103525939D01*
X129306415Y-103419488D01*
X129347950Y-103319214D01*
X129408253Y-103228964D01*
X129484996Y-103152221D01*
X129575246Y-103091918D01*
X129675520Y-103050383D01*
X129781971Y-103029209D01*
X129890511Y-103029209D01*
X129996962Y-103050383D01*
X129996962Y-103050383D01*
G37*
G36*
X125862241Y-104031209D02*
X125160241Y-104031209D01*
X125160241Y-103129209D01*
X125862241Y-103129209D01*
X125862241Y-104031209D01*
X125862241Y-104031209D01*
G37*
G36*
X127262241Y-104031209D02*
X126560241Y-104031209D01*
X126560241Y-103129209D01*
X127262241Y-103129209D01*
X127262241Y-104031209D01*
X127262241Y-104031209D01*
G37*
G36*
X200281459Y-103954375D02*
X198429459Y-103954375D01*
X198429459Y-103152375D01*
X200281459Y-103152375D01*
X200281459Y-103954375D01*
X200281459Y-103954375D01*
G37*
G36*
X133984241Y-103929709D02*
X133082241Y-103929709D01*
X133082241Y-103227709D01*
X133984241Y-103227709D01*
X133984241Y-103929709D01*
X133984241Y-103929709D01*
G37*
G36*
X135804241Y-103929709D02*
X134902241Y-103929709D01*
X134902241Y-103227709D01*
X135804241Y-103227709D01*
X135804241Y-103929709D01*
X135804241Y-103929709D01*
G37*
G36*
X96892241Y-103229709D02*
X95390241Y-103229709D01*
X95390241Y-101827709D01*
X96892241Y-101827709D01*
X96892241Y-103229709D01*
X96892241Y-103229709D01*
G37*
G36*
X103252241Y-103229709D02*
X100950241Y-103229709D01*
X100950241Y-101827709D01*
X103252241Y-101827709D01*
X103252241Y-103229709D01*
X103252241Y-103229709D01*
G37*
G36*
X200281459Y-102854375D02*
X198429459Y-102854375D01*
X198429459Y-102052375D01*
X200281459Y-102052375D01*
X200281459Y-102854375D01*
X200281459Y-102854375D01*
G37*
G36*
X133984241Y-102529709D02*
X133082241Y-102529709D01*
X133082241Y-101827709D01*
X133984241Y-101827709D01*
X133984241Y-102529709D01*
X133984241Y-102529709D01*
G37*
G36*
X135804241Y-102529709D02*
X134902241Y-102529709D01*
X134902241Y-101827709D01*
X135804241Y-101827709D01*
X135804241Y-102529709D01*
X135804241Y-102529709D01*
G37*
G36*
X118993438Y-101093216D02*
X119014056Y-101099470D01*
X119033056Y-101109626D01*
X119049708Y-101123292D01*
X119063374Y-101139944D01*
X119073530Y-101158944D01*
X119079784Y-101179562D01*
X119082500Y-101207140D01*
X119082500Y-101715860D01*
X119079784Y-101743438D01*
X119073530Y-101764056D01*
X119063374Y-101783056D01*
X119049708Y-101799708D01*
X119033056Y-101813374D01*
X119014056Y-101823530D01*
X118993438Y-101829784D01*
X118965860Y-101832500D01*
X118507140Y-101832500D01*
X118479562Y-101829784D01*
X118458944Y-101823530D01*
X118439944Y-101813374D01*
X118423292Y-101799708D01*
X118409626Y-101783056D01*
X118399470Y-101764056D01*
X118393216Y-101743438D01*
X118390500Y-101715860D01*
X118390500Y-101207140D01*
X118393216Y-101179562D01*
X118399470Y-101158944D01*
X118409626Y-101139944D01*
X118423292Y-101123292D01*
X118439944Y-101109626D01*
X118458944Y-101099470D01*
X118479562Y-101093216D01*
X118507140Y-101090500D01*
X118965860Y-101090500D01*
X118993438Y-101093216D01*
X118993438Y-101093216D01*
G37*
G36*
X119963438Y-101093216D02*
X119984056Y-101099470D01*
X120003056Y-101109626D01*
X120019708Y-101123292D01*
X120033374Y-101139944D01*
X120043530Y-101158944D01*
X120049784Y-101179562D01*
X120052500Y-101207140D01*
X120052500Y-101715860D01*
X120049784Y-101743438D01*
X120043530Y-101764056D01*
X120033374Y-101783056D01*
X120019708Y-101799708D01*
X120003056Y-101813374D01*
X119984056Y-101823530D01*
X119963438Y-101829784D01*
X119935860Y-101832500D01*
X119477140Y-101832500D01*
X119449562Y-101829784D01*
X119428944Y-101823530D01*
X119409944Y-101813374D01*
X119393292Y-101799708D01*
X119379626Y-101783056D01*
X119369470Y-101764056D01*
X119363216Y-101743438D01*
X119360500Y-101715860D01*
X119360500Y-101207140D01*
X119363216Y-101179562D01*
X119369470Y-101158944D01*
X119379626Y-101139944D01*
X119393292Y-101123292D01*
X119409944Y-101109626D01*
X119428944Y-101099470D01*
X119449562Y-101093216D01*
X119477140Y-101090500D01*
X119935860Y-101090500D01*
X119963438Y-101093216D01*
X119963438Y-101093216D01*
G37*
G36*
X200281459Y-101754375D02*
X198429459Y-101754375D01*
X198429459Y-100952375D01*
X200281459Y-100952375D01*
X200281459Y-101754375D01*
X200281459Y-101754375D01*
G37*
G36*
X119963438Y-99859500D02*
X119984056Y-99865754D01*
X120003056Y-99875910D01*
X120019708Y-99889576D01*
X120033374Y-99906228D01*
X120043530Y-99925228D01*
X120049784Y-99945846D01*
X120052500Y-99973424D01*
X120052500Y-100482144D01*
X120049784Y-100509722D01*
X120043530Y-100530340D01*
X120033374Y-100549340D01*
X120019708Y-100565992D01*
X120003056Y-100579658D01*
X119984056Y-100589814D01*
X119963438Y-100596068D01*
X119935860Y-100598784D01*
X119477140Y-100598784D01*
X119449562Y-100596068D01*
X119428944Y-100589814D01*
X119409944Y-100579658D01*
X119393292Y-100565992D01*
X119379626Y-100549340D01*
X119369470Y-100530340D01*
X119363216Y-100509722D01*
X119360500Y-100482144D01*
X119360500Y-99973424D01*
X119363216Y-99945846D01*
X119369470Y-99925228D01*
X119379626Y-99906228D01*
X119393292Y-99889576D01*
X119409944Y-99875910D01*
X119428944Y-99865754D01*
X119449562Y-99859500D01*
X119477140Y-99856784D01*
X119935860Y-99856784D01*
X119963438Y-99859500D01*
X119963438Y-99859500D01*
G37*
G36*
X118993438Y-99859500D02*
X119014056Y-99865754D01*
X119033056Y-99875910D01*
X119049708Y-99889576D01*
X119063374Y-99906228D01*
X119073530Y-99925228D01*
X119079784Y-99945846D01*
X119082500Y-99973424D01*
X119082500Y-100482144D01*
X119079784Y-100509722D01*
X119073530Y-100530340D01*
X119063374Y-100549340D01*
X119049708Y-100565992D01*
X119033056Y-100579658D01*
X119014056Y-100589814D01*
X118993438Y-100596068D01*
X118965860Y-100598784D01*
X118507140Y-100598784D01*
X118479562Y-100596068D01*
X118458944Y-100589814D01*
X118439944Y-100579658D01*
X118423292Y-100565992D01*
X118409626Y-100549340D01*
X118399470Y-100530340D01*
X118393216Y-100509722D01*
X118390500Y-100482144D01*
X118390500Y-99973424D01*
X118393216Y-99945846D01*
X118399470Y-99925228D01*
X118409626Y-99906228D01*
X118423292Y-99889576D01*
X118439944Y-99875910D01*
X118458944Y-99865754D01*
X118479562Y-99859500D01*
X118507140Y-99856784D01*
X118965860Y-99856784D01*
X118993438Y-99859500D01*
X118993438Y-99859500D01*
G37*
G36*
X200032241Y-99704709D02*
X198430241Y-99704709D01*
X198430241Y-98102709D01*
X200032241Y-98102709D01*
X200032241Y-99704709D01*
X200032241Y-99704709D01*
G37*
G36*
X189322241Y-99604709D02*
X187820241Y-99604709D01*
X187820241Y-98502709D01*
X189322241Y-98502709D01*
X189322241Y-99604709D01*
X189322241Y-99604709D01*
G37*
G36*
X119963438Y-98625786D02*
X119984056Y-98632040D01*
X120003056Y-98642196D01*
X120019708Y-98655862D01*
X120033374Y-98672514D01*
X120043530Y-98691514D01*
X120049784Y-98712132D01*
X120052500Y-98739710D01*
X120052500Y-99248430D01*
X120049784Y-99276008D01*
X120043530Y-99296626D01*
X120033374Y-99315626D01*
X120019708Y-99332278D01*
X120003056Y-99345944D01*
X119984056Y-99356100D01*
X119963438Y-99362354D01*
X119935860Y-99365070D01*
X119477140Y-99365070D01*
X119449562Y-99362354D01*
X119428944Y-99356100D01*
X119409944Y-99345944D01*
X119393292Y-99332278D01*
X119379626Y-99315626D01*
X119369470Y-99296626D01*
X119363216Y-99276008D01*
X119360500Y-99248430D01*
X119360500Y-98739710D01*
X119363216Y-98712132D01*
X119369470Y-98691514D01*
X119379626Y-98672514D01*
X119393292Y-98655862D01*
X119409944Y-98642196D01*
X119428944Y-98632040D01*
X119449562Y-98625786D01*
X119477140Y-98623070D01*
X119935860Y-98623070D01*
X119963438Y-98625786D01*
X119963438Y-98625786D01*
G37*
G36*
X118993438Y-98625786D02*
X119014056Y-98632040D01*
X119033056Y-98642196D01*
X119049708Y-98655862D01*
X119063374Y-98672514D01*
X119073530Y-98691514D01*
X119079784Y-98712132D01*
X119082500Y-98739710D01*
X119082500Y-99248430D01*
X119079784Y-99276008D01*
X119073530Y-99296626D01*
X119063374Y-99315626D01*
X119049708Y-99332278D01*
X119033056Y-99345944D01*
X119014056Y-99356100D01*
X118993438Y-99362354D01*
X118965860Y-99365070D01*
X118507140Y-99365070D01*
X118479562Y-99362354D01*
X118458944Y-99356100D01*
X118439944Y-99345944D01*
X118423292Y-99332278D01*
X118409626Y-99315626D01*
X118399470Y-99296626D01*
X118393216Y-99276008D01*
X118390500Y-99248430D01*
X118390500Y-98739710D01*
X118393216Y-98712132D01*
X118399470Y-98691514D01*
X118409626Y-98672514D01*
X118423292Y-98655862D01*
X118439944Y-98642196D01*
X118458944Y-98632040D01*
X118479562Y-98625786D01*
X118507140Y-98623070D01*
X118965860Y-98623070D01*
X118993438Y-98625786D01*
X118993438Y-98625786D01*
G37*
G36*
X104212241Y-99169709D02*
X101510241Y-99169709D01*
X101510241Y-89787709D01*
X104212241Y-89787709D01*
X104212241Y-99169709D01*
X104212241Y-99169709D01*
G37*
G36*
X191772241Y-99054709D02*
X190170241Y-99054709D01*
X190170241Y-98152709D01*
X191772241Y-98152709D01*
X191772241Y-99054709D01*
X191772241Y-99054709D01*
G37*
G36*
X118993438Y-97392072D02*
X119014056Y-97398326D01*
X119033056Y-97408482D01*
X119049708Y-97422148D01*
X119063374Y-97438800D01*
X119073530Y-97457800D01*
X119079784Y-97478418D01*
X119082500Y-97505996D01*
X119082500Y-98014716D01*
X119079784Y-98042294D01*
X119073530Y-98062912D01*
X119063374Y-98081912D01*
X119049708Y-98098564D01*
X119033056Y-98112230D01*
X119014056Y-98122386D01*
X118993438Y-98128640D01*
X118965860Y-98131356D01*
X118507140Y-98131356D01*
X118479562Y-98128640D01*
X118458944Y-98122386D01*
X118439944Y-98112230D01*
X118423292Y-98098564D01*
X118409626Y-98081912D01*
X118399470Y-98062912D01*
X118393216Y-98042294D01*
X118390500Y-98014716D01*
X118390500Y-97505996D01*
X118393216Y-97478418D01*
X118399470Y-97457800D01*
X118409626Y-97438800D01*
X118423292Y-97422148D01*
X118439944Y-97408482D01*
X118458944Y-97398326D01*
X118479562Y-97392072D01*
X118507140Y-97389356D01*
X118965860Y-97389356D01*
X118993438Y-97392072D01*
X118993438Y-97392072D01*
G37*
G36*
X119963438Y-97392072D02*
X119984056Y-97398326D01*
X120003056Y-97408482D01*
X120019708Y-97422148D01*
X120033374Y-97438800D01*
X120043530Y-97457800D01*
X120049784Y-97478418D01*
X120052500Y-97505996D01*
X120052500Y-98014716D01*
X120049784Y-98042294D01*
X120043530Y-98062912D01*
X120033374Y-98081912D01*
X120019708Y-98098564D01*
X120003056Y-98112230D01*
X119984056Y-98122386D01*
X119963438Y-98128640D01*
X119935860Y-98131356D01*
X119477140Y-98131356D01*
X119449562Y-98128640D01*
X119428944Y-98122386D01*
X119409944Y-98112230D01*
X119393292Y-98098564D01*
X119379626Y-98081912D01*
X119369470Y-98062912D01*
X119363216Y-98042294D01*
X119360500Y-98014716D01*
X119360500Y-97505996D01*
X119363216Y-97478418D01*
X119369470Y-97457800D01*
X119379626Y-97438800D01*
X119393292Y-97422148D01*
X119409944Y-97408482D01*
X119428944Y-97398326D01*
X119449562Y-97392072D01*
X119477140Y-97389356D01*
X119935860Y-97389356D01*
X119963438Y-97392072D01*
X119963438Y-97392072D01*
G37*
G36*
X118993438Y-96158358D02*
X119014056Y-96164612D01*
X119033056Y-96174768D01*
X119049708Y-96188434D01*
X119063374Y-96205086D01*
X119073530Y-96224086D01*
X119079784Y-96244704D01*
X119082500Y-96272282D01*
X119082500Y-96781002D01*
X119079784Y-96808580D01*
X119073530Y-96829198D01*
X119063374Y-96848198D01*
X119049708Y-96864850D01*
X119033056Y-96878516D01*
X119014056Y-96888672D01*
X118993438Y-96894926D01*
X118965860Y-96897642D01*
X118507140Y-96897642D01*
X118479562Y-96894926D01*
X118458944Y-96888672D01*
X118439944Y-96878516D01*
X118423292Y-96864850D01*
X118409626Y-96848198D01*
X118399470Y-96829198D01*
X118393216Y-96808580D01*
X118390500Y-96781002D01*
X118390500Y-96272282D01*
X118393216Y-96244704D01*
X118399470Y-96224086D01*
X118409626Y-96205086D01*
X118423292Y-96188434D01*
X118439944Y-96174768D01*
X118458944Y-96164612D01*
X118479562Y-96158358D01*
X118507140Y-96155642D01*
X118965860Y-96155642D01*
X118993438Y-96158358D01*
X118993438Y-96158358D01*
G37*
G36*
X119963438Y-96158358D02*
X119984056Y-96164612D01*
X120003056Y-96174768D01*
X120019708Y-96188434D01*
X120033374Y-96205086D01*
X120043530Y-96224086D01*
X120049784Y-96244704D01*
X120052500Y-96272282D01*
X120052500Y-96781002D01*
X120049784Y-96808580D01*
X120043530Y-96829198D01*
X120033374Y-96848198D01*
X120019708Y-96864850D01*
X120003056Y-96878516D01*
X119984056Y-96888672D01*
X119963438Y-96894926D01*
X119935860Y-96897642D01*
X119477140Y-96897642D01*
X119449562Y-96894926D01*
X119428944Y-96888672D01*
X119409944Y-96878516D01*
X119393292Y-96864850D01*
X119379626Y-96848198D01*
X119369470Y-96829198D01*
X119363216Y-96808580D01*
X119360500Y-96781002D01*
X119360500Y-96272282D01*
X119363216Y-96244704D01*
X119369470Y-96224086D01*
X119379626Y-96205086D01*
X119393292Y-96188434D01*
X119409944Y-96174768D01*
X119428944Y-96164612D01*
X119449562Y-96158358D01*
X119477140Y-96155642D01*
X119935860Y-96155642D01*
X119963438Y-96158358D01*
X119963438Y-96158358D01*
G37*
G36*
X119963438Y-94924644D02*
X119984056Y-94930898D01*
X120003056Y-94941054D01*
X120019708Y-94954720D01*
X120033374Y-94971372D01*
X120043530Y-94990372D01*
X120049784Y-95010990D01*
X120052500Y-95038568D01*
X120052500Y-95547288D01*
X120049784Y-95574866D01*
X120043530Y-95595484D01*
X120033374Y-95614484D01*
X120019708Y-95631136D01*
X120003056Y-95644802D01*
X119984056Y-95654958D01*
X119963438Y-95661212D01*
X119935860Y-95663928D01*
X119477140Y-95663928D01*
X119449562Y-95661212D01*
X119428944Y-95654958D01*
X119409944Y-95644802D01*
X119393292Y-95631136D01*
X119379626Y-95614484D01*
X119369470Y-95595484D01*
X119363216Y-95574866D01*
X119360500Y-95547288D01*
X119360500Y-95038568D01*
X119363216Y-95010990D01*
X119369470Y-94990372D01*
X119379626Y-94971372D01*
X119393292Y-94954720D01*
X119409944Y-94941054D01*
X119428944Y-94930898D01*
X119449562Y-94924644D01*
X119477140Y-94921928D01*
X119935860Y-94921928D01*
X119963438Y-94924644D01*
X119963438Y-94924644D01*
G37*
G36*
X118993438Y-94924644D02*
X119014056Y-94930898D01*
X119033056Y-94941054D01*
X119049708Y-94954720D01*
X119063374Y-94971372D01*
X119073530Y-94990372D01*
X119079784Y-95010990D01*
X119082500Y-95038568D01*
X119082500Y-95547288D01*
X119079784Y-95574866D01*
X119073530Y-95595484D01*
X119063374Y-95614484D01*
X119049708Y-95631136D01*
X119033056Y-95644802D01*
X119014056Y-95654958D01*
X118993438Y-95661212D01*
X118965860Y-95663928D01*
X118507140Y-95663928D01*
X118479562Y-95661212D01*
X118458944Y-95654958D01*
X118439944Y-95644802D01*
X118423292Y-95631136D01*
X118409626Y-95614484D01*
X118399470Y-95595484D01*
X118393216Y-95574866D01*
X118390500Y-95547288D01*
X118390500Y-95038568D01*
X118393216Y-95010990D01*
X118399470Y-94990372D01*
X118409626Y-94971372D01*
X118423292Y-94954720D01*
X118439944Y-94941054D01*
X118458944Y-94930898D01*
X118479562Y-94924644D01*
X118507140Y-94921928D01*
X118965860Y-94921928D01*
X118993438Y-94924644D01*
X118993438Y-94924644D01*
G37*
G36*
X118993438Y-93690930D02*
X119014056Y-93697184D01*
X119033056Y-93707340D01*
X119049708Y-93721006D01*
X119063374Y-93737658D01*
X119073530Y-93756658D01*
X119079784Y-93777276D01*
X119082500Y-93804854D01*
X119082500Y-94313574D01*
X119079784Y-94341152D01*
X119073530Y-94361770D01*
X119063374Y-94380770D01*
X119049708Y-94397422D01*
X119033056Y-94411088D01*
X119014056Y-94421244D01*
X118993438Y-94427498D01*
X118965860Y-94430214D01*
X118507140Y-94430214D01*
X118479562Y-94427498D01*
X118458944Y-94421244D01*
X118439944Y-94411088D01*
X118423292Y-94397422D01*
X118409626Y-94380770D01*
X118399470Y-94361770D01*
X118393216Y-94341152D01*
X118390500Y-94313574D01*
X118390500Y-93804854D01*
X118393216Y-93777276D01*
X118399470Y-93756658D01*
X118409626Y-93737658D01*
X118423292Y-93721006D01*
X118439944Y-93707340D01*
X118458944Y-93697184D01*
X118479562Y-93690930D01*
X118507140Y-93688214D01*
X118965860Y-93688214D01*
X118993438Y-93690930D01*
X118993438Y-93690930D01*
G37*
G36*
X119963438Y-93690930D02*
X119984056Y-93697184D01*
X120003056Y-93707340D01*
X120019708Y-93721006D01*
X120033374Y-93737658D01*
X120043530Y-93756658D01*
X120049784Y-93777276D01*
X120052500Y-93804854D01*
X120052500Y-94313574D01*
X120049784Y-94341152D01*
X120043530Y-94361770D01*
X120033374Y-94380770D01*
X120019708Y-94397422D01*
X120003056Y-94411088D01*
X119984056Y-94421244D01*
X119963438Y-94427498D01*
X119935860Y-94430214D01*
X119477140Y-94430214D01*
X119449562Y-94427498D01*
X119428944Y-94421244D01*
X119409944Y-94411088D01*
X119393292Y-94397422D01*
X119379626Y-94380770D01*
X119369470Y-94361770D01*
X119363216Y-94341152D01*
X119360500Y-94313574D01*
X119360500Y-93804854D01*
X119363216Y-93777276D01*
X119369470Y-93756658D01*
X119379626Y-93737658D01*
X119393292Y-93721006D01*
X119409944Y-93707340D01*
X119428944Y-93697184D01*
X119449562Y-93690930D01*
X119477140Y-93688214D01*
X119935860Y-93688214D01*
X119963438Y-93690930D01*
X119963438Y-93690930D01*
G37*
G36*
X119963438Y-92457216D02*
X119984056Y-92463470D01*
X120003056Y-92473626D01*
X120019708Y-92487292D01*
X120033374Y-92503944D01*
X120043530Y-92522944D01*
X120049784Y-92543562D01*
X120052500Y-92571140D01*
X120052500Y-93079860D01*
X120049784Y-93107438D01*
X120043530Y-93128056D01*
X120033374Y-93147056D01*
X120019708Y-93163708D01*
X120003056Y-93177374D01*
X119984056Y-93187530D01*
X119963438Y-93193784D01*
X119935860Y-93196500D01*
X119477140Y-93196500D01*
X119449562Y-93193784D01*
X119428944Y-93187530D01*
X119409944Y-93177374D01*
X119393292Y-93163708D01*
X119379626Y-93147056D01*
X119369470Y-93128056D01*
X119363216Y-93107438D01*
X119360500Y-93079860D01*
X119360500Y-92571140D01*
X119363216Y-92543562D01*
X119369470Y-92522944D01*
X119379626Y-92503944D01*
X119393292Y-92487292D01*
X119409944Y-92473626D01*
X119428944Y-92463470D01*
X119449562Y-92457216D01*
X119477140Y-92454500D01*
X119935860Y-92454500D01*
X119963438Y-92457216D01*
X119963438Y-92457216D01*
G37*
G36*
X118993438Y-92457216D02*
X119014056Y-92463470D01*
X119033056Y-92473626D01*
X119049708Y-92487292D01*
X119063374Y-92503944D01*
X119073530Y-92522944D01*
X119079784Y-92543562D01*
X119082500Y-92571140D01*
X119082500Y-93079860D01*
X119079784Y-93107438D01*
X119073530Y-93128056D01*
X119063374Y-93147056D01*
X119049708Y-93163708D01*
X119033056Y-93177374D01*
X119014056Y-93187530D01*
X118993438Y-93193784D01*
X118965860Y-93196500D01*
X118507140Y-93196500D01*
X118479562Y-93193784D01*
X118458944Y-93187530D01*
X118439944Y-93177374D01*
X118423292Y-93163708D01*
X118409626Y-93147056D01*
X118399470Y-93128056D01*
X118393216Y-93107438D01*
X118390500Y-93079860D01*
X118390500Y-92571140D01*
X118393216Y-92543562D01*
X118399470Y-92522944D01*
X118409626Y-92503944D01*
X118423292Y-92487292D01*
X118439944Y-92473626D01*
X118458944Y-92463470D01*
X118479562Y-92457216D01*
X118507140Y-92454500D01*
X118965860Y-92454500D01*
X118993438Y-92457216D01*
X118993438Y-92457216D01*
G37*
G36*
X103252241Y-87129709D02*
X100950241Y-87129709D01*
X100950241Y-85727709D01*
X103252241Y-85727709D01*
X103252241Y-87129709D01*
X103252241Y-87129709D01*
G37*
G36*
X96892241Y-87129709D02*
X95390241Y-87129709D01*
X95390241Y-85727709D01*
X96892241Y-85727709D01*
X96892241Y-87129709D01*
X96892241Y-87129709D01*
G37*
M02*
