G04 #@! TF.GenerationSoftware,KiCad,Pcbnew,5.0.2+dfsg1-1*
G04 #@! TF.CreationDate,2019-09-16T14:47:23+01:00*
G04 #@! TF.ProjectId,HDMI_SD_expansion,48444d49-5f53-4445-9f65-7870616e7369,rev?*
G04 #@! TF.SameCoordinates,Original*
G04 #@! TF.FileFunction,Soldermask,Bot*
G04 #@! TF.FilePolarity,Negative*
%FSLAX46Y46*%
G04 Gerber Fmt 4.6, Leading zero omitted, Abs format (unit mm)*
G04 Created by KiCad (PCBNEW 5.0.2+dfsg1-1) date Mon 16 Sep 2019 14:47:23 BST*
%MOMM*%
%LPD*%
G01*
G04 APERTURE LIST*
%ADD10C,0.100000*%
G04 APERTURE END LIST*
D10*
G36*
X101937660Y-119429368D02*
X101937662Y-119429369D01*
X101937663Y-119429369D01*
X102052014Y-119476735D01*
X102247226Y-119557594D01*
X102525827Y-119743749D01*
X102762751Y-119980673D01*
X102948906Y-120259274D01*
X103077132Y-120568840D01*
X103142500Y-120897465D01*
X103142500Y-121232535D01*
X103077132Y-121561160D01*
X102948906Y-121870726D01*
X102762751Y-122149327D01*
X102525827Y-122386251D01*
X102247226Y-122572406D01*
X102052014Y-122653265D01*
X101937663Y-122700631D01*
X101937662Y-122700631D01*
X101937660Y-122700632D01*
X101609035Y-122766000D01*
X101273965Y-122766000D01*
X100945340Y-122700632D01*
X100945338Y-122700631D01*
X100945337Y-122700631D01*
X100830986Y-122653265D01*
X100635774Y-122572406D01*
X100357173Y-122386251D01*
X100120249Y-122149327D01*
X99934094Y-121870726D01*
X99805868Y-121561160D01*
X99740500Y-121232535D01*
X99740500Y-120897465D01*
X99805868Y-120568840D01*
X99934094Y-120259274D01*
X100120249Y-119980673D01*
X100357173Y-119743749D01*
X100635774Y-119557594D01*
X100830986Y-119476735D01*
X100945337Y-119429369D01*
X100945338Y-119429369D01*
X100945340Y-119429368D01*
X101273965Y-119364000D01*
X101609035Y-119364000D01*
X101937660Y-119429368D01*
X101937660Y-119429368D01*
G37*
G36*
X179037806Y-118508098D02*
X179229075Y-118587324D01*
X179401217Y-118702346D01*
X179547604Y-118848733D01*
X179662626Y-119020875D01*
X179741852Y-119212144D01*
X179782241Y-119415193D01*
X179782241Y-119622225D01*
X179741852Y-119825274D01*
X179662626Y-120016543D01*
X179547604Y-120188685D01*
X179401217Y-120335072D01*
X179229075Y-120450094D01*
X179037806Y-120529320D01*
X178834757Y-120569709D01*
X178627725Y-120569709D01*
X178424676Y-120529320D01*
X178233407Y-120450094D01*
X178061265Y-120335072D01*
X177914878Y-120188685D01*
X177799856Y-120016543D01*
X177720630Y-119825274D01*
X177680241Y-119622225D01*
X177680241Y-119415193D01*
X177720630Y-119212144D01*
X177799856Y-119020875D01*
X177914878Y-118848733D01*
X178061265Y-118702346D01*
X178233407Y-118587324D01*
X178424676Y-118508098D01*
X178627725Y-118467709D01*
X178834757Y-118467709D01*
X179037806Y-118508098D01*
X179037806Y-118508098D01*
G37*
G36*
X130497806Y-118508098D02*
X130689075Y-118587324D01*
X130861217Y-118702346D01*
X131007604Y-118848733D01*
X131122626Y-119020875D01*
X131201852Y-119212144D01*
X131242241Y-119415193D01*
X131242241Y-119622225D01*
X131201852Y-119825274D01*
X131122626Y-120016543D01*
X131007604Y-120188685D01*
X130861217Y-120335072D01*
X130689075Y-120450094D01*
X130497806Y-120529320D01*
X130294757Y-120569709D01*
X130087725Y-120569709D01*
X129884676Y-120529320D01*
X129693407Y-120450094D01*
X129521265Y-120335072D01*
X129374878Y-120188685D01*
X129259856Y-120016543D01*
X129180630Y-119825274D01*
X129140241Y-119622225D01*
X129140241Y-119415193D01*
X129180630Y-119212144D01*
X129259856Y-119020875D01*
X129374878Y-118848733D01*
X129521265Y-118702346D01*
X129693407Y-118587324D01*
X129884676Y-118508098D01*
X130087725Y-118467709D01*
X130294757Y-118467709D01*
X130497806Y-118508098D01*
X130497806Y-118508098D01*
G37*
G36*
X133037806Y-118508098D02*
X133229075Y-118587324D01*
X133401217Y-118702346D01*
X133547604Y-118848733D01*
X133662626Y-119020875D01*
X133741852Y-119212144D01*
X133782241Y-119415193D01*
X133782241Y-119622225D01*
X133741852Y-119825274D01*
X133662626Y-120016543D01*
X133547604Y-120188685D01*
X133401217Y-120335072D01*
X133229075Y-120450094D01*
X133037806Y-120529320D01*
X132834757Y-120569709D01*
X132627725Y-120569709D01*
X132424676Y-120529320D01*
X132233407Y-120450094D01*
X132061265Y-120335072D01*
X131914878Y-120188685D01*
X131799856Y-120016543D01*
X131720630Y-119825274D01*
X131680241Y-119622225D01*
X131680241Y-119415193D01*
X131720630Y-119212144D01*
X131799856Y-119020875D01*
X131914878Y-118848733D01*
X132061265Y-118702346D01*
X132233407Y-118587324D01*
X132424676Y-118508098D01*
X132627725Y-118467709D01*
X132834757Y-118467709D01*
X133037806Y-118508098D01*
X133037806Y-118508098D01*
G37*
G36*
X135577806Y-118508098D02*
X135769075Y-118587324D01*
X135941217Y-118702346D01*
X136087604Y-118848733D01*
X136202626Y-119020875D01*
X136281852Y-119212144D01*
X136322241Y-119415193D01*
X136322241Y-119622225D01*
X136281852Y-119825274D01*
X136202626Y-120016543D01*
X136087604Y-120188685D01*
X135941217Y-120335072D01*
X135769075Y-120450094D01*
X135577806Y-120529320D01*
X135374757Y-120569709D01*
X135167725Y-120569709D01*
X134964676Y-120529320D01*
X134773407Y-120450094D01*
X134601265Y-120335072D01*
X134454878Y-120188685D01*
X134339856Y-120016543D01*
X134260630Y-119825274D01*
X134220241Y-119622225D01*
X134220241Y-119415193D01*
X134260630Y-119212144D01*
X134339856Y-119020875D01*
X134454878Y-118848733D01*
X134601265Y-118702346D01*
X134773407Y-118587324D01*
X134964676Y-118508098D01*
X135167725Y-118467709D01*
X135374757Y-118467709D01*
X135577806Y-118508098D01*
X135577806Y-118508098D01*
G37*
G36*
X138117806Y-118508098D02*
X138309075Y-118587324D01*
X138481217Y-118702346D01*
X138627604Y-118848733D01*
X138742626Y-119020875D01*
X138821852Y-119212144D01*
X138862241Y-119415193D01*
X138862241Y-119622225D01*
X138821852Y-119825274D01*
X138742626Y-120016543D01*
X138627604Y-120188685D01*
X138481217Y-120335072D01*
X138309075Y-120450094D01*
X138117806Y-120529320D01*
X137914757Y-120569709D01*
X137707725Y-120569709D01*
X137504676Y-120529320D01*
X137313407Y-120450094D01*
X137141265Y-120335072D01*
X136994878Y-120188685D01*
X136879856Y-120016543D01*
X136800630Y-119825274D01*
X136760241Y-119622225D01*
X136760241Y-119415193D01*
X136800630Y-119212144D01*
X136879856Y-119020875D01*
X136994878Y-118848733D01*
X137141265Y-118702346D01*
X137313407Y-118587324D01*
X137504676Y-118508098D01*
X137707725Y-118467709D01*
X137914757Y-118467709D01*
X138117806Y-118508098D01*
X138117806Y-118508098D01*
G37*
G36*
X140657806Y-118508098D02*
X140849075Y-118587324D01*
X141021217Y-118702346D01*
X141167604Y-118848733D01*
X141282626Y-119020875D01*
X141361852Y-119212144D01*
X141402241Y-119415193D01*
X141402241Y-119622225D01*
X141361852Y-119825274D01*
X141282626Y-120016543D01*
X141167604Y-120188685D01*
X141021217Y-120335072D01*
X140849075Y-120450094D01*
X140657806Y-120529320D01*
X140454757Y-120569709D01*
X140247725Y-120569709D01*
X140044676Y-120529320D01*
X139853407Y-120450094D01*
X139681265Y-120335072D01*
X139534878Y-120188685D01*
X139419856Y-120016543D01*
X139340630Y-119825274D01*
X139300241Y-119622225D01*
X139300241Y-119415193D01*
X139340630Y-119212144D01*
X139419856Y-119020875D01*
X139534878Y-118848733D01*
X139681265Y-118702346D01*
X139853407Y-118587324D01*
X140044676Y-118508098D01*
X140247725Y-118467709D01*
X140454757Y-118467709D01*
X140657806Y-118508098D01*
X140657806Y-118508098D01*
G37*
G36*
X184117806Y-118508098D02*
X184309075Y-118587324D01*
X184481217Y-118702346D01*
X184627604Y-118848733D01*
X184742626Y-119020875D01*
X184821852Y-119212144D01*
X184862241Y-119415193D01*
X184862241Y-119622225D01*
X184821852Y-119825274D01*
X184742626Y-120016543D01*
X184627604Y-120188685D01*
X184481217Y-120335072D01*
X184309075Y-120450094D01*
X184117806Y-120529320D01*
X183914757Y-120569709D01*
X183707725Y-120569709D01*
X183504676Y-120529320D01*
X183313407Y-120450094D01*
X183141265Y-120335072D01*
X182994878Y-120188685D01*
X182879856Y-120016543D01*
X182800630Y-119825274D01*
X182760241Y-119622225D01*
X182760241Y-119415193D01*
X182800630Y-119212144D01*
X182879856Y-119020875D01*
X182994878Y-118848733D01*
X183141265Y-118702346D01*
X183313407Y-118587324D01*
X183504676Y-118508098D01*
X183707725Y-118467709D01*
X183914757Y-118467709D01*
X184117806Y-118508098D01*
X184117806Y-118508098D01*
G37*
G36*
X181577806Y-118508098D02*
X181769075Y-118587324D01*
X181941217Y-118702346D01*
X182087604Y-118848733D01*
X182202626Y-119020875D01*
X182281852Y-119212144D01*
X182322241Y-119415193D01*
X182322241Y-119622225D01*
X182281852Y-119825274D01*
X182202626Y-120016543D01*
X182087604Y-120188685D01*
X181941217Y-120335072D01*
X181769075Y-120450094D01*
X181577806Y-120529320D01*
X181374757Y-120569709D01*
X181167725Y-120569709D01*
X180964676Y-120529320D01*
X180773407Y-120450094D01*
X180601265Y-120335072D01*
X180454878Y-120188685D01*
X180339856Y-120016543D01*
X180260630Y-119825274D01*
X180220241Y-119622225D01*
X180220241Y-119415193D01*
X180260630Y-119212144D01*
X180339856Y-119020875D01*
X180454878Y-118848733D01*
X180601265Y-118702346D01*
X180773407Y-118587324D01*
X180964676Y-118508098D01*
X181167725Y-118467709D01*
X181374757Y-118467709D01*
X181577806Y-118508098D01*
X181577806Y-118508098D01*
G37*
G36*
X127957806Y-118508098D02*
X128149075Y-118587324D01*
X128321217Y-118702346D01*
X128467604Y-118848733D01*
X128582626Y-119020875D01*
X128661852Y-119212144D01*
X128702241Y-119415193D01*
X128702241Y-119622225D01*
X128661852Y-119825274D01*
X128582626Y-120016543D01*
X128467604Y-120188685D01*
X128321217Y-120335072D01*
X128149075Y-120450094D01*
X127957806Y-120529320D01*
X127754757Y-120569709D01*
X127547725Y-120569709D01*
X127344676Y-120529320D01*
X127153407Y-120450094D01*
X126981265Y-120335072D01*
X126834878Y-120188685D01*
X126719856Y-120016543D01*
X126640630Y-119825274D01*
X126600241Y-119622225D01*
X126600241Y-119415193D01*
X126640630Y-119212144D01*
X126719856Y-119020875D01*
X126834878Y-118848733D01*
X126981265Y-118702346D01*
X127153407Y-118587324D01*
X127344676Y-118508098D01*
X127547725Y-118467709D01*
X127754757Y-118467709D01*
X127957806Y-118508098D01*
X127957806Y-118508098D01*
G37*
G36*
X173957806Y-118508098D02*
X174149075Y-118587324D01*
X174321217Y-118702346D01*
X174467604Y-118848733D01*
X174582626Y-119020875D01*
X174661852Y-119212144D01*
X174702241Y-119415193D01*
X174702241Y-119622225D01*
X174661852Y-119825274D01*
X174582626Y-120016543D01*
X174467604Y-120188685D01*
X174321217Y-120335072D01*
X174149075Y-120450094D01*
X173957806Y-120529320D01*
X173754757Y-120569709D01*
X173547725Y-120569709D01*
X173344676Y-120529320D01*
X173153407Y-120450094D01*
X172981265Y-120335072D01*
X172834878Y-120188685D01*
X172719856Y-120016543D01*
X172640630Y-119825274D01*
X172600241Y-119622225D01*
X172600241Y-119415193D01*
X172640630Y-119212144D01*
X172719856Y-119020875D01*
X172834878Y-118848733D01*
X172981265Y-118702346D01*
X173153407Y-118587324D01*
X173344676Y-118508098D01*
X173547725Y-118467709D01*
X173754757Y-118467709D01*
X173957806Y-118508098D01*
X173957806Y-118508098D01*
G37*
G36*
X150957806Y-118508098D02*
X151149075Y-118587324D01*
X151321217Y-118702346D01*
X151467604Y-118848733D01*
X151582626Y-119020875D01*
X151661852Y-119212144D01*
X151702241Y-119415193D01*
X151702241Y-119622225D01*
X151661852Y-119825274D01*
X151582626Y-120016543D01*
X151467604Y-120188685D01*
X151321217Y-120335072D01*
X151149075Y-120450094D01*
X150957806Y-120529320D01*
X150754757Y-120569709D01*
X150547725Y-120569709D01*
X150344676Y-120529320D01*
X150153407Y-120450094D01*
X149981265Y-120335072D01*
X149834878Y-120188685D01*
X149719856Y-120016543D01*
X149640630Y-119825274D01*
X149600241Y-119622225D01*
X149600241Y-119415193D01*
X149640630Y-119212144D01*
X149719856Y-119020875D01*
X149834878Y-118848733D01*
X149981265Y-118702346D01*
X150153407Y-118587324D01*
X150344676Y-118508098D01*
X150547725Y-118467709D01*
X150754757Y-118467709D01*
X150957806Y-118508098D01*
X150957806Y-118508098D01*
G37*
G36*
X153497806Y-118508098D02*
X153689075Y-118587324D01*
X153861217Y-118702346D01*
X154007604Y-118848733D01*
X154122626Y-119020875D01*
X154201852Y-119212144D01*
X154242241Y-119415193D01*
X154242241Y-119622225D01*
X154201852Y-119825274D01*
X154122626Y-120016543D01*
X154007604Y-120188685D01*
X153861217Y-120335072D01*
X153689075Y-120450094D01*
X153497806Y-120529320D01*
X153294757Y-120569709D01*
X153087725Y-120569709D01*
X152884676Y-120529320D01*
X152693407Y-120450094D01*
X152521265Y-120335072D01*
X152374878Y-120188685D01*
X152259856Y-120016543D01*
X152180630Y-119825274D01*
X152140241Y-119622225D01*
X152140241Y-119415193D01*
X152180630Y-119212144D01*
X152259856Y-119020875D01*
X152374878Y-118848733D01*
X152521265Y-118702346D01*
X152693407Y-118587324D01*
X152884676Y-118508098D01*
X153087725Y-118467709D01*
X153294757Y-118467709D01*
X153497806Y-118508098D01*
X153497806Y-118508098D01*
G37*
G36*
X156037806Y-118508098D02*
X156229075Y-118587324D01*
X156401217Y-118702346D01*
X156547604Y-118848733D01*
X156662626Y-119020875D01*
X156741852Y-119212144D01*
X156782241Y-119415193D01*
X156782241Y-119622225D01*
X156741852Y-119825274D01*
X156662626Y-120016543D01*
X156547604Y-120188685D01*
X156401217Y-120335072D01*
X156229075Y-120450094D01*
X156037806Y-120529320D01*
X155834757Y-120569709D01*
X155627725Y-120569709D01*
X155424676Y-120529320D01*
X155233407Y-120450094D01*
X155061265Y-120335072D01*
X154914878Y-120188685D01*
X154799856Y-120016543D01*
X154720630Y-119825274D01*
X154680241Y-119622225D01*
X154680241Y-119415193D01*
X154720630Y-119212144D01*
X154799856Y-119020875D01*
X154914878Y-118848733D01*
X155061265Y-118702346D01*
X155233407Y-118587324D01*
X155424676Y-118508098D01*
X155627725Y-118467709D01*
X155834757Y-118467709D01*
X156037806Y-118508098D01*
X156037806Y-118508098D01*
G37*
G36*
X158577806Y-118508098D02*
X158769075Y-118587324D01*
X158941217Y-118702346D01*
X159087604Y-118848733D01*
X159202626Y-119020875D01*
X159281852Y-119212144D01*
X159322241Y-119415193D01*
X159322241Y-119622225D01*
X159281852Y-119825274D01*
X159202626Y-120016543D01*
X159087604Y-120188685D01*
X158941217Y-120335072D01*
X158769075Y-120450094D01*
X158577806Y-120529320D01*
X158374757Y-120569709D01*
X158167725Y-120569709D01*
X157964676Y-120529320D01*
X157773407Y-120450094D01*
X157601265Y-120335072D01*
X157454878Y-120188685D01*
X157339856Y-120016543D01*
X157260630Y-119825274D01*
X157220241Y-119622225D01*
X157220241Y-119415193D01*
X157260630Y-119212144D01*
X157339856Y-119020875D01*
X157454878Y-118848733D01*
X157601265Y-118702346D01*
X157773407Y-118587324D01*
X157964676Y-118508098D01*
X158167725Y-118467709D01*
X158374757Y-118467709D01*
X158577806Y-118508098D01*
X158577806Y-118508098D01*
G37*
G36*
X161117806Y-118508098D02*
X161309075Y-118587324D01*
X161481217Y-118702346D01*
X161627604Y-118848733D01*
X161742626Y-119020875D01*
X161821852Y-119212144D01*
X161862241Y-119415193D01*
X161862241Y-119622225D01*
X161821852Y-119825274D01*
X161742626Y-120016543D01*
X161627604Y-120188685D01*
X161481217Y-120335072D01*
X161309075Y-120450094D01*
X161117806Y-120529320D01*
X160914757Y-120569709D01*
X160707725Y-120569709D01*
X160504676Y-120529320D01*
X160313407Y-120450094D01*
X160141265Y-120335072D01*
X159994878Y-120188685D01*
X159879856Y-120016543D01*
X159800630Y-119825274D01*
X159760241Y-119622225D01*
X159760241Y-119415193D01*
X159800630Y-119212144D01*
X159879856Y-119020875D01*
X159994878Y-118848733D01*
X160141265Y-118702346D01*
X160313407Y-118587324D01*
X160504676Y-118508098D01*
X160707725Y-118467709D01*
X160914757Y-118467709D01*
X161117806Y-118508098D01*
X161117806Y-118508098D01*
G37*
G36*
X163657806Y-118508098D02*
X163849075Y-118587324D01*
X164021217Y-118702346D01*
X164167604Y-118848733D01*
X164282626Y-119020875D01*
X164361852Y-119212144D01*
X164402241Y-119415193D01*
X164402241Y-119622225D01*
X164361852Y-119825274D01*
X164282626Y-120016543D01*
X164167604Y-120188685D01*
X164021217Y-120335072D01*
X163849075Y-120450094D01*
X163657806Y-120529320D01*
X163454757Y-120569709D01*
X163247725Y-120569709D01*
X163044676Y-120529320D01*
X162853407Y-120450094D01*
X162681265Y-120335072D01*
X162534878Y-120188685D01*
X162419856Y-120016543D01*
X162340630Y-119825274D01*
X162300241Y-119622225D01*
X162300241Y-119415193D01*
X162340630Y-119212144D01*
X162419856Y-119020875D01*
X162534878Y-118848733D01*
X162681265Y-118702346D01*
X162853407Y-118587324D01*
X163044676Y-118508098D01*
X163247725Y-118467709D01*
X163454757Y-118467709D01*
X163657806Y-118508098D01*
X163657806Y-118508098D01*
G37*
G36*
X186657806Y-118508098D02*
X186849075Y-118587324D01*
X187021217Y-118702346D01*
X187167604Y-118848733D01*
X187282626Y-119020875D01*
X187361852Y-119212144D01*
X187402241Y-119415193D01*
X187402241Y-119622225D01*
X187361852Y-119825274D01*
X187282626Y-120016543D01*
X187167604Y-120188685D01*
X187021217Y-120335072D01*
X186849075Y-120450094D01*
X186657806Y-120529320D01*
X186454757Y-120569709D01*
X186247725Y-120569709D01*
X186044676Y-120529320D01*
X185853407Y-120450094D01*
X185681265Y-120335072D01*
X185534878Y-120188685D01*
X185419856Y-120016543D01*
X185340630Y-119825274D01*
X185300241Y-119622225D01*
X185300241Y-119415193D01*
X185340630Y-119212144D01*
X185419856Y-119020875D01*
X185534878Y-118848733D01*
X185681265Y-118702346D01*
X185853407Y-118587324D01*
X186044676Y-118508098D01*
X186247725Y-118467709D01*
X186454757Y-118467709D01*
X186657806Y-118508098D01*
X186657806Y-118508098D01*
G37*
G36*
X176497806Y-118508098D02*
X176689075Y-118587324D01*
X176861217Y-118702346D01*
X177007604Y-118848733D01*
X177122626Y-119020875D01*
X177201852Y-119212144D01*
X177242241Y-119415193D01*
X177242241Y-119622225D01*
X177201852Y-119825274D01*
X177122626Y-120016543D01*
X177007604Y-120188685D01*
X176861217Y-120335072D01*
X176689075Y-120450094D01*
X176497806Y-120529320D01*
X176294757Y-120569709D01*
X176087725Y-120569709D01*
X175884676Y-120529320D01*
X175693407Y-120450094D01*
X175521265Y-120335072D01*
X175374878Y-120188685D01*
X175259856Y-120016543D01*
X175180630Y-119825274D01*
X175140241Y-119622225D01*
X175140241Y-119415193D01*
X175180630Y-119212144D01*
X175259856Y-119020875D01*
X175374878Y-118848733D01*
X175521265Y-118702346D01*
X175693407Y-118587324D01*
X175884676Y-118508098D01*
X176087725Y-118467709D01*
X176294757Y-118467709D01*
X176497806Y-118508098D01*
X176497806Y-118508098D01*
G37*
G36*
X104443481Y-117032468D02*
X104625650Y-117107925D01*
X104789603Y-117217475D01*
X104929025Y-117356897D01*
X105038575Y-117520850D01*
X105114032Y-117703019D01*
X105152500Y-117896410D01*
X105152500Y-118093590D01*
X105114032Y-118286981D01*
X105038575Y-118469150D01*
X104929025Y-118633103D01*
X104789603Y-118772525D01*
X104625650Y-118882075D01*
X104443481Y-118957532D01*
X104250090Y-118996000D01*
X104052910Y-118996000D01*
X103859519Y-118957532D01*
X103677350Y-118882075D01*
X103513397Y-118772525D01*
X103373975Y-118633103D01*
X103264425Y-118469150D01*
X103188968Y-118286981D01*
X103150500Y-118093590D01*
X103150500Y-117896410D01*
X103188968Y-117703019D01*
X103264425Y-117520850D01*
X103373975Y-117356897D01*
X103513397Y-117217475D01*
X103677350Y-117107925D01*
X103859519Y-117032468D01*
X104052910Y-116994000D01*
X104250090Y-116994000D01*
X104443481Y-117032468D01*
X104443481Y-117032468D01*
G37*
G36*
X186657806Y-115968098D02*
X186849075Y-116047324D01*
X187021217Y-116162346D01*
X187167604Y-116308733D01*
X187282626Y-116480875D01*
X187361852Y-116672144D01*
X187402241Y-116875193D01*
X187402241Y-117082225D01*
X187361852Y-117285274D01*
X187282626Y-117476543D01*
X187167604Y-117648685D01*
X187021217Y-117795072D01*
X186849075Y-117910094D01*
X186657806Y-117989320D01*
X186454757Y-118029709D01*
X186247725Y-118029709D01*
X186044676Y-117989320D01*
X185853407Y-117910094D01*
X185681265Y-117795072D01*
X185534878Y-117648685D01*
X185419856Y-117476543D01*
X185340630Y-117285274D01*
X185300241Y-117082225D01*
X185300241Y-116875193D01*
X185340630Y-116672144D01*
X185419856Y-116480875D01*
X185534878Y-116308733D01*
X185681265Y-116162346D01*
X185853407Y-116047324D01*
X186044676Y-115968098D01*
X186247725Y-115927709D01*
X186454757Y-115927709D01*
X186657806Y-115968098D01*
X186657806Y-115968098D01*
G37*
G36*
X150957806Y-115968098D02*
X151149075Y-116047324D01*
X151321217Y-116162346D01*
X151467604Y-116308733D01*
X151582626Y-116480875D01*
X151661852Y-116672144D01*
X151702241Y-116875193D01*
X151702241Y-117082225D01*
X151661852Y-117285274D01*
X151582626Y-117476543D01*
X151467604Y-117648685D01*
X151321217Y-117795072D01*
X151149075Y-117910094D01*
X150957806Y-117989320D01*
X150754757Y-118029709D01*
X150547725Y-118029709D01*
X150344676Y-117989320D01*
X150153407Y-117910094D01*
X149981265Y-117795072D01*
X149834878Y-117648685D01*
X149719856Y-117476543D01*
X149640630Y-117285274D01*
X149600241Y-117082225D01*
X149600241Y-116875193D01*
X149640630Y-116672144D01*
X149719856Y-116480875D01*
X149834878Y-116308733D01*
X149981265Y-116162346D01*
X150153407Y-116047324D01*
X150344676Y-115968098D01*
X150547725Y-115927709D01*
X150754757Y-115927709D01*
X150957806Y-115968098D01*
X150957806Y-115968098D01*
G37*
G36*
X153497806Y-115968098D02*
X153689075Y-116047324D01*
X153861217Y-116162346D01*
X154007604Y-116308733D01*
X154122626Y-116480875D01*
X154201852Y-116672144D01*
X154242241Y-116875193D01*
X154242241Y-117082225D01*
X154201852Y-117285274D01*
X154122626Y-117476543D01*
X154007604Y-117648685D01*
X153861217Y-117795072D01*
X153689075Y-117910094D01*
X153497806Y-117989320D01*
X153294757Y-118029709D01*
X153087725Y-118029709D01*
X152884676Y-117989320D01*
X152693407Y-117910094D01*
X152521265Y-117795072D01*
X152374878Y-117648685D01*
X152259856Y-117476543D01*
X152180630Y-117285274D01*
X152140241Y-117082225D01*
X152140241Y-116875193D01*
X152180630Y-116672144D01*
X152259856Y-116480875D01*
X152374878Y-116308733D01*
X152521265Y-116162346D01*
X152693407Y-116047324D01*
X152884676Y-115968098D01*
X153087725Y-115927709D01*
X153294757Y-115927709D01*
X153497806Y-115968098D01*
X153497806Y-115968098D01*
G37*
G36*
X156037806Y-115968098D02*
X156229075Y-116047324D01*
X156401217Y-116162346D01*
X156547604Y-116308733D01*
X156662626Y-116480875D01*
X156741852Y-116672144D01*
X156782241Y-116875193D01*
X156782241Y-117082225D01*
X156741852Y-117285274D01*
X156662626Y-117476543D01*
X156547604Y-117648685D01*
X156401217Y-117795072D01*
X156229075Y-117910094D01*
X156037806Y-117989320D01*
X155834757Y-118029709D01*
X155627725Y-118029709D01*
X155424676Y-117989320D01*
X155233407Y-117910094D01*
X155061265Y-117795072D01*
X154914878Y-117648685D01*
X154799856Y-117476543D01*
X154720630Y-117285274D01*
X154680241Y-117082225D01*
X154680241Y-116875193D01*
X154720630Y-116672144D01*
X154799856Y-116480875D01*
X154914878Y-116308733D01*
X155061265Y-116162346D01*
X155233407Y-116047324D01*
X155424676Y-115968098D01*
X155627725Y-115927709D01*
X155834757Y-115927709D01*
X156037806Y-115968098D01*
X156037806Y-115968098D01*
G37*
G36*
X158577806Y-115968098D02*
X158769075Y-116047324D01*
X158941217Y-116162346D01*
X159087604Y-116308733D01*
X159202626Y-116480875D01*
X159281852Y-116672144D01*
X159322241Y-116875193D01*
X159322241Y-117082225D01*
X159281852Y-117285274D01*
X159202626Y-117476543D01*
X159087604Y-117648685D01*
X158941217Y-117795072D01*
X158769075Y-117910094D01*
X158577806Y-117989320D01*
X158374757Y-118029709D01*
X158167725Y-118029709D01*
X157964676Y-117989320D01*
X157773407Y-117910094D01*
X157601265Y-117795072D01*
X157454878Y-117648685D01*
X157339856Y-117476543D01*
X157260630Y-117285274D01*
X157220241Y-117082225D01*
X157220241Y-116875193D01*
X157260630Y-116672144D01*
X157339856Y-116480875D01*
X157454878Y-116308733D01*
X157601265Y-116162346D01*
X157773407Y-116047324D01*
X157964676Y-115968098D01*
X158167725Y-115927709D01*
X158374757Y-115927709D01*
X158577806Y-115968098D01*
X158577806Y-115968098D01*
G37*
G36*
X161117806Y-115968098D02*
X161309075Y-116047324D01*
X161481217Y-116162346D01*
X161627604Y-116308733D01*
X161742626Y-116480875D01*
X161821852Y-116672144D01*
X161862241Y-116875193D01*
X161862241Y-117082225D01*
X161821852Y-117285274D01*
X161742626Y-117476543D01*
X161627604Y-117648685D01*
X161481217Y-117795072D01*
X161309075Y-117910094D01*
X161117806Y-117989320D01*
X160914757Y-118029709D01*
X160707725Y-118029709D01*
X160504676Y-117989320D01*
X160313407Y-117910094D01*
X160141265Y-117795072D01*
X159994878Y-117648685D01*
X159879856Y-117476543D01*
X159800630Y-117285274D01*
X159760241Y-117082225D01*
X159760241Y-116875193D01*
X159800630Y-116672144D01*
X159879856Y-116480875D01*
X159994878Y-116308733D01*
X160141265Y-116162346D01*
X160313407Y-116047324D01*
X160504676Y-115968098D01*
X160707725Y-115927709D01*
X160914757Y-115927709D01*
X161117806Y-115968098D01*
X161117806Y-115968098D01*
G37*
G36*
X163657806Y-115968098D02*
X163849075Y-116047324D01*
X164021217Y-116162346D01*
X164167604Y-116308733D01*
X164282626Y-116480875D01*
X164361852Y-116672144D01*
X164402241Y-116875193D01*
X164402241Y-117082225D01*
X164361852Y-117285274D01*
X164282626Y-117476543D01*
X164167604Y-117648685D01*
X164021217Y-117795072D01*
X163849075Y-117910094D01*
X163657806Y-117989320D01*
X163454757Y-118029709D01*
X163247725Y-118029709D01*
X163044676Y-117989320D01*
X162853407Y-117910094D01*
X162681265Y-117795072D01*
X162534878Y-117648685D01*
X162419856Y-117476543D01*
X162340630Y-117285274D01*
X162300241Y-117082225D01*
X162300241Y-116875193D01*
X162340630Y-116672144D01*
X162419856Y-116480875D01*
X162534878Y-116308733D01*
X162681265Y-116162346D01*
X162853407Y-116047324D01*
X163044676Y-115968098D01*
X163247725Y-115927709D01*
X163454757Y-115927709D01*
X163657806Y-115968098D01*
X163657806Y-115968098D01*
G37*
G36*
X140657806Y-115968098D02*
X140849075Y-116047324D01*
X141021217Y-116162346D01*
X141167604Y-116308733D01*
X141282626Y-116480875D01*
X141361852Y-116672144D01*
X141402241Y-116875193D01*
X141402241Y-117082225D01*
X141361852Y-117285274D01*
X141282626Y-117476543D01*
X141167604Y-117648685D01*
X141021217Y-117795072D01*
X140849075Y-117910094D01*
X140657806Y-117989320D01*
X140454757Y-118029709D01*
X140247725Y-118029709D01*
X140044676Y-117989320D01*
X139853407Y-117910094D01*
X139681265Y-117795072D01*
X139534878Y-117648685D01*
X139419856Y-117476543D01*
X139340630Y-117285274D01*
X139300241Y-117082225D01*
X139300241Y-116875193D01*
X139340630Y-116672144D01*
X139419856Y-116480875D01*
X139534878Y-116308733D01*
X139681265Y-116162346D01*
X139853407Y-116047324D01*
X140044676Y-115968098D01*
X140247725Y-115927709D01*
X140454757Y-115927709D01*
X140657806Y-115968098D01*
X140657806Y-115968098D01*
G37*
G36*
X138117806Y-115968098D02*
X138309075Y-116047324D01*
X138481217Y-116162346D01*
X138627604Y-116308733D01*
X138742626Y-116480875D01*
X138821852Y-116672144D01*
X138862241Y-116875193D01*
X138862241Y-117082225D01*
X138821852Y-117285274D01*
X138742626Y-117476543D01*
X138627604Y-117648685D01*
X138481217Y-117795072D01*
X138309075Y-117910094D01*
X138117806Y-117989320D01*
X137914757Y-118029709D01*
X137707725Y-118029709D01*
X137504676Y-117989320D01*
X137313407Y-117910094D01*
X137141265Y-117795072D01*
X136994878Y-117648685D01*
X136879856Y-117476543D01*
X136800630Y-117285274D01*
X136760241Y-117082225D01*
X136760241Y-116875193D01*
X136800630Y-116672144D01*
X136879856Y-116480875D01*
X136994878Y-116308733D01*
X137141265Y-116162346D01*
X137313407Y-116047324D01*
X137504676Y-115968098D01*
X137707725Y-115927709D01*
X137914757Y-115927709D01*
X138117806Y-115968098D01*
X138117806Y-115968098D01*
G37*
G36*
X135577806Y-115968098D02*
X135769075Y-116047324D01*
X135941217Y-116162346D01*
X136087604Y-116308733D01*
X136202626Y-116480875D01*
X136281852Y-116672144D01*
X136322241Y-116875193D01*
X136322241Y-117082225D01*
X136281852Y-117285274D01*
X136202626Y-117476543D01*
X136087604Y-117648685D01*
X135941217Y-117795072D01*
X135769075Y-117910094D01*
X135577806Y-117989320D01*
X135374757Y-118029709D01*
X135167725Y-118029709D01*
X134964676Y-117989320D01*
X134773407Y-117910094D01*
X134601265Y-117795072D01*
X134454878Y-117648685D01*
X134339856Y-117476543D01*
X134260630Y-117285274D01*
X134220241Y-117082225D01*
X134220241Y-116875193D01*
X134260630Y-116672144D01*
X134339856Y-116480875D01*
X134454878Y-116308733D01*
X134601265Y-116162346D01*
X134773407Y-116047324D01*
X134964676Y-115968098D01*
X135167725Y-115927709D01*
X135374757Y-115927709D01*
X135577806Y-115968098D01*
X135577806Y-115968098D01*
G37*
G36*
X133037806Y-115968098D02*
X133229075Y-116047324D01*
X133401217Y-116162346D01*
X133547604Y-116308733D01*
X133662626Y-116480875D01*
X133741852Y-116672144D01*
X133782241Y-116875193D01*
X133782241Y-117082225D01*
X133741852Y-117285274D01*
X133662626Y-117476543D01*
X133547604Y-117648685D01*
X133401217Y-117795072D01*
X133229075Y-117910094D01*
X133037806Y-117989320D01*
X132834757Y-118029709D01*
X132627725Y-118029709D01*
X132424676Y-117989320D01*
X132233407Y-117910094D01*
X132061265Y-117795072D01*
X131914878Y-117648685D01*
X131799856Y-117476543D01*
X131720630Y-117285274D01*
X131680241Y-117082225D01*
X131680241Y-116875193D01*
X131720630Y-116672144D01*
X131799856Y-116480875D01*
X131914878Y-116308733D01*
X132061265Y-116162346D01*
X132233407Y-116047324D01*
X132424676Y-115968098D01*
X132627725Y-115927709D01*
X132834757Y-115927709D01*
X133037806Y-115968098D01*
X133037806Y-115968098D01*
G37*
G36*
X130497806Y-115968098D02*
X130689075Y-116047324D01*
X130861217Y-116162346D01*
X131007604Y-116308733D01*
X131122626Y-116480875D01*
X131201852Y-116672144D01*
X131242241Y-116875193D01*
X131242241Y-117082225D01*
X131201852Y-117285274D01*
X131122626Y-117476543D01*
X131007604Y-117648685D01*
X130861217Y-117795072D01*
X130689075Y-117910094D01*
X130497806Y-117989320D01*
X130294757Y-118029709D01*
X130087725Y-118029709D01*
X129884676Y-117989320D01*
X129693407Y-117910094D01*
X129521265Y-117795072D01*
X129374878Y-117648685D01*
X129259856Y-117476543D01*
X129180630Y-117285274D01*
X129140241Y-117082225D01*
X129140241Y-116875193D01*
X129180630Y-116672144D01*
X129259856Y-116480875D01*
X129374878Y-116308733D01*
X129521265Y-116162346D01*
X129693407Y-116047324D01*
X129884676Y-115968098D01*
X130087725Y-115927709D01*
X130294757Y-115927709D01*
X130497806Y-115968098D01*
X130497806Y-115968098D01*
G37*
G36*
X127957806Y-115968098D02*
X128149075Y-116047324D01*
X128321217Y-116162346D01*
X128467604Y-116308733D01*
X128582626Y-116480875D01*
X128661852Y-116672144D01*
X128702241Y-116875193D01*
X128702241Y-117082225D01*
X128661852Y-117285274D01*
X128582626Y-117476543D01*
X128467604Y-117648685D01*
X128321217Y-117795072D01*
X128149075Y-117910094D01*
X127957806Y-117989320D01*
X127754757Y-118029709D01*
X127547725Y-118029709D01*
X127344676Y-117989320D01*
X127153407Y-117910094D01*
X126981265Y-117795072D01*
X126834878Y-117648685D01*
X126719856Y-117476543D01*
X126640630Y-117285274D01*
X126600241Y-117082225D01*
X126600241Y-116875193D01*
X126640630Y-116672144D01*
X126719856Y-116480875D01*
X126834878Y-116308733D01*
X126981265Y-116162346D01*
X127153407Y-116047324D01*
X127344676Y-115968098D01*
X127547725Y-115927709D01*
X127754757Y-115927709D01*
X127957806Y-115968098D01*
X127957806Y-115968098D01*
G37*
G36*
X173957806Y-115968098D02*
X174149075Y-116047324D01*
X174321217Y-116162346D01*
X174467604Y-116308733D01*
X174582626Y-116480875D01*
X174661852Y-116672144D01*
X174702241Y-116875193D01*
X174702241Y-117082225D01*
X174661852Y-117285274D01*
X174582626Y-117476543D01*
X174467604Y-117648685D01*
X174321217Y-117795072D01*
X174149075Y-117910094D01*
X173957806Y-117989320D01*
X173754757Y-118029709D01*
X173547725Y-118029709D01*
X173344676Y-117989320D01*
X173153407Y-117910094D01*
X172981265Y-117795072D01*
X172834878Y-117648685D01*
X172719856Y-117476543D01*
X172640630Y-117285274D01*
X172600241Y-117082225D01*
X172600241Y-116875193D01*
X172640630Y-116672144D01*
X172719856Y-116480875D01*
X172834878Y-116308733D01*
X172981265Y-116162346D01*
X173153407Y-116047324D01*
X173344676Y-115968098D01*
X173547725Y-115927709D01*
X173754757Y-115927709D01*
X173957806Y-115968098D01*
X173957806Y-115968098D01*
G37*
G36*
X176497806Y-115968098D02*
X176689075Y-116047324D01*
X176861217Y-116162346D01*
X177007604Y-116308733D01*
X177122626Y-116480875D01*
X177201852Y-116672144D01*
X177242241Y-116875193D01*
X177242241Y-117082225D01*
X177201852Y-117285274D01*
X177122626Y-117476543D01*
X177007604Y-117648685D01*
X176861217Y-117795072D01*
X176689075Y-117910094D01*
X176497806Y-117989320D01*
X176294757Y-118029709D01*
X176087725Y-118029709D01*
X175884676Y-117989320D01*
X175693407Y-117910094D01*
X175521265Y-117795072D01*
X175374878Y-117648685D01*
X175259856Y-117476543D01*
X175180630Y-117285274D01*
X175140241Y-117082225D01*
X175140241Y-116875193D01*
X175180630Y-116672144D01*
X175259856Y-116480875D01*
X175374878Y-116308733D01*
X175521265Y-116162346D01*
X175693407Y-116047324D01*
X175884676Y-115968098D01*
X176087725Y-115927709D01*
X176294757Y-115927709D01*
X176497806Y-115968098D01*
X176497806Y-115968098D01*
G37*
G36*
X179037806Y-115968098D02*
X179229075Y-116047324D01*
X179401217Y-116162346D01*
X179547604Y-116308733D01*
X179662626Y-116480875D01*
X179741852Y-116672144D01*
X179782241Y-116875193D01*
X179782241Y-117082225D01*
X179741852Y-117285274D01*
X179662626Y-117476543D01*
X179547604Y-117648685D01*
X179401217Y-117795072D01*
X179229075Y-117910094D01*
X179037806Y-117989320D01*
X178834757Y-118029709D01*
X178627725Y-118029709D01*
X178424676Y-117989320D01*
X178233407Y-117910094D01*
X178061265Y-117795072D01*
X177914878Y-117648685D01*
X177799856Y-117476543D01*
X177720630Y-117285274D01*
X177680241Y-117082225D01*
X177680241Y-116875193D01*
X177720630Y-116672144D01*
X177799856Y-116480875D01*
X177914878Y-116308733D01*
X178061265Y-116162346D01*
X178233407Y-116047324D01*
X178424676Y-115968098D01*
X178627725Y-115927709D01*
X178834757Y-115927709D01*
X179037806Y-115968098D01*
X179037806Y-115968098D01*
G37*
G36*
X181577806Y-115968098D02*
X181769075Y-116047324D01*
X181941217Y-116162346D01*
X182087604Y-116308733D01*
X182202626Y-116480875D01*
X182281852Y-116672144D01*
X182322241Y-116875193D01*
X182322241Y-117082225D01*
X182281852Y-117285274D01*
X182202626Y-117476543D01*
X182087604Y-117648685D01*
X181941217Y-117795072D01*
X181769075Y-117910094D01*
X181577806Y-117989320D01*
X181374757Y-118029709D01*
X181167725Y-118029709D01*
X180964676Y-117989320D01*
X180773407Y-117910094D01*
X180601265Y-117795072D01*
X180454878Y-117648685D01*
X180339856Y-117476543D01*
X180260630Y-117285274D01*
X180220241Y-117082225D01*
X180220241Y-116875193D01*
X180260630Y-116672144D01*
X180339856Y-116480875D01*
X180454878Y-116308733D01*
X180601265Y-116162346D01*
X180773407Y-116047324D01*
X180964676Y-115968098D01*
X181167725Y-115927709D01*
X181374757Y-115927709D01*
X181577806Y-115968098D01*
X181577806Y-115968098D01*
G37*
G36*
X184117806Y-115968098D02*
X184309075Y-116047324D01*
X184481217Y-116162346D01*
X184627604Y-116308733D01*
X184742626Y-116480875D01*
X184821852Y-116672144D01*
X184862241Y-116875193D01*
X184862241Y-117082225D01*
X184821852Y-117285274D01*
X184742626Y-117476543D01*
X184627604Y-117648685D01*
X184481217Y-117795072D01*
X184309075Y-117910094D01*
X184117806Y-117989320D01*
X183914757Y-118029709D01*
X183707725Y-118029709D01*
X183504676Y-117989320D01*
X183313407Y-117910094D01*
X183141265Y-117795072D01*
X182994878Y-117648685D01*
X182879856Y-117476543D01*
X182800630Y-117285274D01*
X182760241Y-117082225D01*
X182760241Y-116875193D01*
X182800630Y-116672144D01*
X182879856Y-116480875D01*
X182994878Y-116308733D01*
X183141265Y-116162346D01*
X183313407Y-116047324D01*
X183504676Y-115968098D01*
X183707725Y-115927709D01*
X183914757Y-115927709D01*
X184117806Y-115968098D01*
X184117806Y-115968098D01*
G37*
G36*
X104443481Y-112532468D02*
X104625650Y-112607925D01*
X104789603Y-112717475D01*
X104929025Y-112856897D01*
X105038575Y-113020850D01*
X105114032Y-113203019D01*
X105152500Y-113396410D01*
X105152500Y-113593590D01*
X105114032Y-113786981D01*
X105038575Y-113969150D01*
X104929025Y-114133103D01*
X104789603Y-114272525D01*
X104620089Y-114385791D01*
X104610217Y-114391068D01*
X104591275Y-114406614D01*
X104575730Y-114425556D01*
X104564180Y-114447168D01*
X104557067Y-114470617D01*
X104554666Y-114495003D01*
X104557068Y-114519390D01*
X104564182Y-114542838D01*
X104575734Y-114564449D01*
X104591280Y-114583391D01*
X104610222Y-114598936D01*
X104620094Y-114604212D01*
X104789603Y-114717475D01*
X104929025Y-114856897D01*
X105038575Y-115020850D01*
X105114032Y-115203019D01*
X105152500Y-115396410D01*
X105152500Y-115593590D01*
X105114032Y-115786981D01*
X105038575Y-115969150D01*
X104929025Y-116133103D01*
X104789603Y-116272525D01*
X104625650Y-116382075D01*
X104443481Y-116457532D01*
X104250090Y-116496000D01*
X104052910Y-116496000D01*
X103859519Y-116457532D01*
X103677350Y-116382075D01*
X103513397Y-116272525D01*
X103373975Y-116133103D01*
X103264425Y-115969150D01*
X103188968Y-115786981D01*
X103150500Y-115593590D01*
X103150500Y-115396410D01*
X103188968Y-115203019D01*
X103264425Y-115020850D01*
X103373975Y-114856897D01*
X103513397Y-114717475D01*
X103682911Y-114604209D01*
X103692783Y-114598932D01*
X103711725Y-114583386D01*
X103727270Y-114564444D01*
X103738820Y-114542832D01*
X103745933Y-114519383D01*
X103748334Y-114494997D01*
X103745932Y-114470610D01*
X103738818Y-114447162D01*
X103727266Y-114425551D01*
X103711720Y-114406609D01*
X103692778Y-114391064D01*
X103682906Y-114385788D01*
X103513397Y-114272525D01*
X103373975Y-114133103D01*
X103264425Y-113969150D01*
X103188968Y-113786981D01*
X103150500Y-113593590D01*
X103150500Y-113396410D01*
X103188968Y-113203019D01*
X103264425Y-113020850D01*
X103373975Y-112856897D01*
X103513397Y-112717475D01*
X103677350Y-112607925D01*
X103859519Y-112532468D01*
X104052910Y-112494000D01*
X104250090Y-112494000D01*
X104443481Y-112532468D01*
X104443481Y-112532468D01*
G37*
G36*
X104443481Y-110032468D02*
X104625650Y-110107925D01*
X104789603Y-110217475D01*
X104929025Y-110356897D01*
X105038575Y-110520850D01*
X105114032Y-110703019D01*
X105152500Y-110896410D01*
X105152500Y-111093590D01*
X105114032Y-111286981D01*
X105038575Y-111469150D01*
X104929025Y-111633103D01*
X104789603Y-111772525D01*
X104625650Y-111882075D01*
X104443481Y-111957532D01*
X104250090Y-111996000D01*
X104052910Y-111996000D01*
X103859519Y-111957532D01*
X103677350Y-111882075D01*
X103513397Y-111772525D01*
X103373975Y-111633103D01*
X103264425Y-111469150D01*
X103188968Y-111286981D01*
X103150500Y-111093590D01*
X103150500Y-110896410D01*
X103188968Y-110703019D01*
X103264425Y-110520850D01*
X103373975Y-110356897D01*
X103513397Y-110217475D01*
X103677350Y-110107925D01*
X103859519Y-110032468D01*
X104052910Y-109994000D01*
X104250090Y-109994000D01*
X104443481Y-110032468D01*
X104443481Y-110032468D01*
G37*
G36*
X101937660Y-106289368D02*
X101937662Y-106289369D01*
X101937663Y-106289369D01*
X102052014Y-106336735D01*
X102247226Y-106417594D01*
X102525827Y-106603749D01*
X102762751Y-106840673D01*
X102948906Y-107119274D01*
X103077132Y-107428840D01*
X103142500Y-107757465D01*
X103142500Y-108092535D01*
X103077132Y-108421160D01*
X102948906Y-108730726D01*
X102762751Y-109009327D01*
X102525827Y-109246251D01*
X102247226Y-109432406D01*
X102052014Y-109513265D01*
X101937663Y-109560631D01*
X101937662Y-109560631D01*
X101937660Y-109560632D01*
X101609035Y-109626000D01*
X101273965Y-109626000D01*
X100945340Y-109560632D01*
X100945338Y-109560631D01*
X100945337Y-109560631D01*
X100830986Y-109513265D01*
X100635774Y-109432406D01*
X100357173Y-109246251D01*
X100120249Y-109009327D01*
X99934094Y-108730726D01*
X99805868Y-108421160D01*
X99740500Y-108092535D01*
X99740500Y-107757465D01*
X99805868Y-107428840D01*
X99934094Y-107119274D01*
X100120249Y-106840673D01*
X100357173Y-106603749D01*
X100635774Y-106417594D01*
X100830986Y-106336735D01*
X100945337Y-106289369D01*
X100945338Y-106289369D01*
X100945340Y-106289368D01*
X101273965Y-106224000D01*
X101609035Y-106224000D01*
X101937660Y-106289368D01*
X101937660Y-106289368D01*
G37*
M02*
