G04 #@! TF.GenerationSoftware,KiCad,Pcbnew,5.0.2+dfsg1-1*
G04 #@! TF.CreationDate,2019-09-17T15:28:08+01:00*
G04 #@! TF.ProjectId,HDMI_SD_expansion,48444d49-5f53-4445-9f65-7870616e7369,rev?*
G04 #@! TF.SameCoordinates,Original*
G04 #@! TF.FileFunction,Copper,L4,Bot*
G04 #@! TF.FilePolarity,Positive*
%FSLAX46Y46*%
G04 Gerber Fmt 4.6, Leading zero omitted, Abs format (unit mm)*
G04 Created by KiCad (PCBNEW 5.0.2+dfsg1-1) date Tue 17 Sep 2019 15:28:08 BST*
%MOMM*%
%LPD*%
G01*
G04 APERTURE LIST*
G04 #@! TA.AperFunction,ComponentPad*
%ADD10C,2.000000*%
G04 #@! TD*
G04 #@! TA.AperFunction,ComponentPad*
%ADD11C,1.800000*%
G04 #@! TD*
G04 #@! TA.AperFunction,ComponentPad*
%ADD12C,3.300000*%
G04 #@! TD*
G04 #@! TA.AperFunction,ViaPad*
%ADD13C,1.300000*%
G04 #@! TD*
G04 #@! TA.AperFunction,ViaPad*
%ADD14C,0.600000*%
G04 #@! TD*
G04 #@! TA.AperFunction,Conductor*
%ADD15C,0.150000*%
G04 #@! TD*
G04 #@! TA.AperFunction,Conductor*
%ADD16C,0.254000*%
G04 #@! TD*
G04 #@! TA.AperFunction,Conductor*
%ADD17C,0.200000*%
G04 #@! TD*
G04 APERTURE END LIST*
D10*
G04 #@! TO.P,JC1,7*
G04 #@! TO.N,/TDMS_D2_P*
X150651241Y-120718709D03*
G04 #@! TO.P,JC1,8*
G04 #@! TO.N,/TDMS_D2_N*
X153191241Y-120718709D03*
G04 #@! TO.P,JC1,9*
G04 #@! TO.N,/TDMS_CLK_P*
X155731241Y-120718709D03*
G04 #@! TO.P,JC1,10*
G04 #@! TO.N,/TDMS_CLK_N*
X158271241Y-120718709D03*
G04 #@! TO.P,JC1,11*
G04 #@! TO.N,GND*
X160811241Y-120718709D03*
G04 #@! TO.P,JC1,12*
G04 #@! TO.N,+3V3*
X163351241Y-120718709D03*
G04 #@! TO.P,JC1,6*
X163351241Y-118178709D03*
G04 #@! TO.P,JC1,5*
G04 #@! TO.N,GND*
X160811241Y-118178709D03*
G04 #@! TO.P,JC1,4*
G04 #@! TO.N,/TDMS_D1_N*
X158271241Y-118178709D03*
G04 #@! TO.P,JC1,3*
G04 #@! TO.N,/TDMS_D1_P*
X155731241Y-118178709D03*
G04 #@! TO.P,JC1,2*
G04 #@! TO.N,/TDMS_D0_N*
X153191241Y-118178709D03*
G04 #@! TO.P,JC1,1*
G04 #@! TO.N,/TDMS_D0_P*
X150651241Y-118178709D03*
G04 #@! TD*
G04 #@! TO.P,JD1,7*
G04 #@! TO.N,/DAT1*
X173651241Y-120718709D03*
G04 #@! TO.P,JD1,8*
G04 #@! TO.N,/DAT2*
X176191241Y-120718709D03*
G04 #@! TO.P,JD1,9*
G04 #@! TO.N,/CD*
X178731241Y-120718709D03*
G04 #@! TO.P,JD1,10*
G04 #@! TO.N,/NC_EN*
X181271241Y-120718709D03*
G04 #@! TO.P,JD1,11*
G04 #@! TO.N,GND*
X183811241Y-120718709D03*
G04 #@! TO.P,JD1,12*
G04 #@! TO.N,+3V3*
X186351241Y-120718709D03*
G04 #@! TO.P,JD1,6*
X186351241Y-118178709D03*
G04 #@! TO.P,JD1,5*
G04 #@! TO.N,GND*
X183811241Y-118178709D03*
G04 #@! TO.P,JD1,4*
G04 #@! TO.N,/SCK*
X181271241Y-118178709D03*
G04 #@! TO.P,JD1,3*
G04 #@! TO.N,/MISO_DAT0*
X178731241Y-118178709D03*
G04 #@! TO.P,JD1,2*
G04 #@! TO.N,/MOSI_CMD*
X176191241Y-118178709D03*
G04 #@! TO.P,JD1,1*
G04 #@! TO.N,/CD_DAT3*
X173651241Y-118178709D03*
G04 #@! TD*
G04 #@! TO.P,JB1,7*
G04 #@! TO.N,/GPX_USB*
X127651241Y-120718709D03*
G04 #@! TO.P,JB1,8*
G04 #@! TO.N,/RST_USB*
X130191241Y-120718709D03*
G04 #@! TO.P,JB1,9*
G04 #@! TO.N,/INT_USB*
X132731241Y-120718709D03*
G04 #@! TO.P,JB1,10*
G04 #@! TO.N,Net-(JB1-Pad10)*
X135271241Y-120718709D03*
G04 #@! TO.P,JB1,11*
G04 #@! TO.N,GND*
X137811241Y-120718709D03*
G04 #@! TO.P,JB1,12*
G04 #@! TO.N,+3V3*
X140351241Y-120718709D03*
G04 #@! TO.P,JB1,6*
X140351241Y-118178709D03*
G04 #@! TO.P,JB1,5*
G04 #@! TO.N,GND*
X137811241Y-118178709D03*
G04 #@! TO.P,JB1,4*
G04 #@! TO.N,/SCK_USB*
X135271241Y-118178709D03*
G04 #@! TO.P,JB1,3*
G04 #@! TO.N,/MISO_USB*
X132731241Y-118178709D03*
G04 #@! TO.P,JB1,2*
G04 #@! TO.N,/MOSI_USB*
X130191241Y-118178709D03*
G04 #@! TO.P,JB1,1*
G04 #@! TO.N,/SS_USB*
X127651241Y-118178709D03*
G04 #@! TD*
D11*
G04 #@! TO.P,J5,4*
G04 #@! TO.N,GND*
X104011241Y-117978709D03*
G04 #@! TO.P,J5,3*
G04 #@! TO.N,/Data+*
X104011241Y-115478709D03*
G04 #@! TO.P,J5,2*
G04 #@! TO.N,/Data-*
X104011241Y-113478709D03*
G04 #@! TO.P,J5,1*
G04 #@! TO.N,+5V*
X104011241Y-110978709D03*
D12*
G04 #@! TO.P,J5,SH*
G04 #@! TO.N,GND*
X101301241Y-121048709D03*
X101301241Y-107908709D03*
G04 #@! TD*
D13*
G04 #@! TO.N,*
G04 #@! TO.C,J4*
X96901241Y-98978709D03*
X96901241Y-89978709D03*
G04 #@! TD*
D14*
G04 #@! TO.N,GND*
X199241741Y-112914709D03*
X199241741Y-96404709D03*
X188573741Y-96404709D03*
X184509741Y-105866209D03*
X191621741Y-112914709D03*
X120565241Y-122249209D03*
X135360741Y-100976709D03*
X133519241Y-100976709D03*
X110024241Y-119137709D03*
X107738241Y-117169209D03*
X107738241Y-109168209D03*
X112691241Y-117994709D03*
X132630241Y-107199709D03*
X137202241Y-113295709D03*
X135106741Y-113168729D03*
X123676741Y-114819709D03*
X111230741Y-109739709D03*
X110849741Y-106818709D03*
X94269241Y-86494209D03*
X94372741Y-102549709D03*
X105189241Y-98509209D03*
X100363241Y-96985209D03*
X100363241Y-95524709D03*
X105506741Y-94000709D03*
X100490241Y-90952709D03*
X196310500Y-106859000D03*
X132221241Y-112002709D03*
G04 #@! TO.N,/TDMS_D1_N*
X156697666Y-106847834D03*
G04 #@! TO.N,/TDMS_D1_P*
X156167334Y-107378166D03*
G04 #@! TO.N,/TDMS_D0_P*
X150579334Y-102552166D03*
G04 #@! TO.N,/TDMS_D0_N*
X151109666Y-102021834D03*
G04 #@! TO.N,/TDMS_CLK_N*
X165963500Y-114987000D03*
G04 #@! TO.N,/TDMS_CLK_P*
X166713500Y-114987000D03*
G04 #@! TO.N,/TDMS_D2_N*
X147421500Y-114987000D03*
G04 #@! TO.N,/TDMS_D2_P*
X148171500Y-114987000D03*
G04 #@! TO.N,/DAT2*
X196071241Y-101378709D03*
X195271241Y-109278709D03*
G04 #@! TO.N,+3V3*
X196574741Y-113867209D03*
X194352241Y-113867209D03*
X192066241Y-113867209D03*
X181652241Y-110120709D03*
X176508741Y-110120709D03*
X174032241Y-110120709D03*
X179048741Y-110120709D03*
X186668741Y-105802709D03*
X112183241Y-113359209D03*
X111040241Y-119137709D03*
X138853241Y-110819209D03*
X127042241Y-107326709D03*
X122216241Y-114819709D03*
G04 #@! TO.N,/MISO_DAT0*
X188071241Y-107978709D03*
X183071241Y-107978709D03*
G04 #@! TO.N,Net-(TP1-Pad1)*
X135614741Y-109803209D03*
X129963241Y-108850709D03*
G04 #@! TO.N,/RST_USB*
X118585485Y-109683185D03*
X123930741Y-109676209D03*
G04 #@! TO.N,/MISO_USB*
X118468230Y-111036978D03*
X121913254Y-110942472D03*
G04 #@! TO.N,/MOSI_USB*
X117961741Y-111771709D03*
X121733067Y-111777259D03*
G04 #@! TO.N,/GPX_USB*
X113834241Y-109041209D03*
X124311741Y-119518709D03*
G04 #@! TO.N,/INT_USB*
X115159809Y-113161526D03*
G04 #@! TD*
D15*
G04 #@! TO.N,/TDMS_D1_N*
X157151241Y-107619608D02*
X157151241Y-117058709D01*
X156697666Y-106847834D02*
X156697666Y-107166033D01*
X156697666Y-107166033D02*
X157151241Y-107619608D01*
X157151241Y-117058709D02*
X158271241Y-118178709D01*
G04 #@! TO.N,/TDMS_D1_P*
X156851241Y-107743874D02*
X156851241Y-117058709D01*
X156167334Y-107378166D02*
X156485533Y-107378166D01*
X156851241Y-117058709D02*
X155731241Y-118178709D01*
X156485533Y-107378166D02*
X156851241Y-107743874D01*
G04 #@! TO.N,/TDMS_D0_P*
X151771241Y-117058709D02*
X150651241Y-118178709D01*
X151771241Y-103425874D02*
X151771241Y-117058709D01*
X150897533Y-102552166D02*
X151771241Y-103425874D01*
X150579334Y-102552166D02*
X150897533Y-102552166D01*
G04 #@! TO.N,/TDMS_D0_N*
X152071241Y-103301608D02*
X152071241Y-117058709D01*
X151109666Y-102021834D02*
X151109666Y-102340033D01*
X151109666Y-102340033D02*
X152071241Y-103301608D01*
X152071241Y-117058709D02*
X153191241Y-118178709D01*
G04 #@! TO.N,/TDMS_CLK_N*
X157151241Y-122859607D02*
X157256634Y-122965000D01*
X157256634Y-122965000D02*
X164244366Y-122965000D01*
X166188500Y-121020866D02*
X166188500Y-115212000D01*
X164244366Y-122965000D02*
X166188500Y-121020866D01*
X166188500Y-115212000D02*
X165963500Y-114987000D01*
X157151241Y-122859607D02*
X157151241Y-121838709D01*
X157151241Y-121838709D02*
X158271241Y-120718709D01*
G04 #@! TO.N,/TDMS_CLK_P*
X156851241Y-122983875D02*
X157132366Y-123265000D01*
X157132366Y-123265000D02*
X164368634Y-123265000D01*
X166488500Y-115212000D02*
X166713500Y-114987000D01*
X166488500Y-121145134D02*
X166488500Y-115212000D01*
X164368634Y-123265000D02*
X166488500Y-121145134D01*
X156851241Y-122983875D02*
X156851241Y-121838709D01*
X156851241Y-121838709D02*
X155731241Y-120718709D01*
G04 #@! TO.N,/TDMS_D2_N*
X151414634Y-123265000D02*
X148496366Y-123265000D01*
X148496366Y-123265000D02*
X147646500Y-122415134D01*
X147646500Y-122415134D02*
X147646500Y-115212000D01*
X147646500Y-115212000D02*
X147421500Y-114987000D01*
X152071241Y-121838709D02*
X153191241Y-120718709D01*
X151414634Y-123265000D02*
X152071241Y-122608393D01*
X152071241Y-122608393D02*
X152071241Y-121838709D01*
G04 #@! TO.N,/TDMS_D2_P*
X151290366Y-122965000D02*
X148620634Y-122965000D01*
X147946500Y-115212000D02*
X148171500Y-114987000D01*
X147946500Y-122290866D02*
X147946500Y-115212000D01*
X148620634Y-122965000D02*
X147946500Y-122290866D01*
X151771241Y-121838709D02*
X150651241Y-120718709D01*
X151771241Y-122484125D02*
X151771241Y-121838709D01*
X151290366Y-122965000D02*
X151771241Y-122484125D01*
D16*
G04 #@! TO.N,/DAT2*
X196071241Y-101378709D02*
X195271241Y-102178709D01*
X195271241Y-102178709D02*
X195271241Y-108854445D01*
X195271241Y-108854445D02*
X195271241Y-109278709D01*
G04 #@! TO.N,/MISO_DAT0*
X188071241Y-107978709D02*
X183071241Y-107978709D01*
D17*
G04 #@! TO.N,Net-(TP1-Pad1)*
X130915741Y-109803209D02*
X130263240Y-109150708D01*
X130263240Y-109150708D02*
X129963241Y-108850709D01*
X135614741Y-109803209D02*
X130915741Y-109803209D01*
G04 #@! TO.N,/RST_USB*
X119016725Y-109676209D02*
X119009749Y-109683185D01*
X122295163Y-109676209D02*
X119016725Y-109676209D01*
X119009749Y-109683185D02*
X118585485Y-109683185D01*
X122295163Y-109676209D02*
X123930741Y-109676209D01*
X125698500Y-122353000D02*
X129508500Y-122353000D01*
X125327741Y-121982241D02*
X125698500Y-122353000D01*
X130191241Y-121670259D02*
X130191241Y-120718709D01*
X129508500Y-122353000D02*
X130191241Y-121670259D01*
X122295163Y-109676209D02*
X125327741Y-112708787D01*
X125327741Y-112708787D02*
X125327741Y-121982241D01*
G04 #@! TO.N,/MISO_USB*
X118468230Y-111036978D02*
X121818748Y-111036978D01*
X121818748Y-111036978D02*
X121913254Y-110942472D01*
G04 #@! TO.N,/MOSI_USB*
X121727517Y-111771709D02*
X121733067Y-111777259D01*
X117961741Y-111771709D02*
X121727517Y-111771709D01*
G04 #@! TO.N,/GPX_USB*
X113834241Y-109041209D02*
X124311741Y-119518709D01*
G04 #@! TO.N,/INT_USB*
X132323790Y-123093710D02*
X132731241Y-122686259D01*
X115159809Y-113161526D02*
X125091994Y-123093710D01*
X132731241Y-122686259D02*
X132731241Y-120718709D01*
X125091994Y-123093710D02*
X132323790Y-123093710D01*
G04 #@! TD*
M02*
