G04 #@! TF.GenerationSoftware,KiCad,Pcbnew,5.0.2+dfsg1-1*
G04 #@! TF.CreationDate,2019-09-17T15:28:08+01:00*
G04 #@! TF.ProjectId,HDMI_SD_expansion,48444d49-5f53-4445-9f65-7870616e7369,rev?*
G04 #@! TF.SameCoordinates,Original*
G04 #@! TF.FileFunction,Paste,Top*
G04 #@! TF.FilePolarity,Positive*
%FSLAX46Y46*%
G04 Gerber Fmt 4.6, Leading zero omitted, Abs format (unit mm)*
G04 Created by KiCad (PCBNEW 5.0.2+dfsg1-1) date Tue 17 Sep 2019 15:28:08 BST*
%MOMM*%
%LPD*%
G01*
G04 APERTURE LIST*
%ADD10R,0.800000X0.600000*%
%ADD11R,2.600000X0.280000*%
%ADD12R,2.200000X1.300000*%
%ADD13R,1.400000X1.300000*%
%ADD14R,3.400000X1.000000*%
%ADD15C,1.000000*%
%ADD16C,0.100000*%
%ADD17C,0.590000*%
%ADD18R,0.600000X0.800000*%
%ADD19R,1.300000X1.100000*%
%ADD20R,0.270000X1.450000*%
%ADD21R,1.450000X0.270000*%
%ADD22C,0.250000*%
%ADD23C,0.480000*%
%ADD24R,1.500000X0.800000*%
%ADD25R,1.400000X1.000000*%
%ADD26R,1.000000X1.400000*%
%ADD27R,1.500000X1.500000*%
%ADD28R,1.500000X1.300000*%
%ADD29R,1.750000X0.700000*%
G04 APERTURE END LIST*
D10*
G04 #@! TO.C,C14*
X135081991Y-110817709D03*
X135081991Y-112217709D03*
G04 #@! TD*
D11*
G04 #@! TO.C,J4*
X102861241Y-94478709D03*
X102861241Y-94978709D03*
X102861241Y-95478709D03*
X102861241Y-95978709D03*
X102861241Y-96478709D03*
X102861241Y-96978709D03*
X102861241Y-97478709D03*
X102861241Y-97978709D03*
X102861241Y-98478709D03*
X102861241Y-98978709D03*
X102861241Y-93978709D03*
X102861241Y-93478709D03*
X102861241Y-92978709D03*
X102861241Y-92478709D03*
X102861241Y-91978709D03*
X102861241Y-91478709D03*
X102861241Y-90978709D03*
X102861241Y-90478709D03*
X102861241Y-89978709D03*
D12*
X102101241Y-102528709D03*
X102101241Y-86428709D03*
D13*
X96141241Y-86428709D03*
X96141241Y-102528709D03*
G04 #@! TD*
D10*
G04 #@! TO.C,D2*
X107738241Y-110881209D03*
X107738241Y-112281209D03*
G04 #@! TD*
G04 #@! TO.C,D1*
X107728000Y-113461500D03*
X107728000Y-114861500D03*
G04 #@! TD*
D14*
G04 #@! TO.C,L1*
X141643241Y-108713709D03*
X141643241Y-106343709D03*
G04 #@! TD*
D15*
G04 #@! TO.C,TP6*
X129772741Y-113029009D03*
G04 #@! TD*
G04 #@! TO.C,TP10*
X113834241Y-106933009D03*
G04 #@! TD*
G04 #@! TO.C,TP9*
X126280241Y-114807009D03*
G04 #@! TD*
G04 #@! TO.C,TP8*
X127804241Y-113930709D03*
G04 #@! TD*
G04 #@! TO.C,TP7*
X123676741Y-117042209D03*
G04 #@! TD*
G04 #@! TO.C,TP5*
X125327741Y-109790509D03*
G04 #@! TD*
G04 #@! TO.C,TP4*
X123486241Y-106044009D03*
G04 #@! TD*
D16*
G04 #@! TO.C,C15*
G36*
X110008199Y-106459419D02*
X110022517Y-106461543D01*
X110036558Y-106465060D01*
X110050187Y-106469937D01*
X110063272Y-106476126D01*
X110075688Y-106483567D01*
X110087314Y-106492190D01*
X110098039Y-106501911D01*
X110107760Y-106512636D01*
X110116383Y-106524262D01*
X110123824Y-106536678D01*
X110130013Y-106549763D01*
X110134890Y-106563392D01*
X110138407Y-106577433D01*
X110140531Y-106591751D01*
X110141241Y-106606209D01*
X110141241Y-106951209D01*
X110140531Y-106965667D01*
X110138407Y-106979985D01*
X110134890Y-106994026D01*
X110130013Y-107007655D01*
X110123824Y-107020740D01*
X110116383Y-107033156D01*
X110107760Y-107044782D01*
X110098039Y-107055507D01*
X110087314Y-107065228D01*
X110075688Y-107073851D01*
X110063272Y-107081292D01*
X110050187Y-107087481D01*
X110036558Y-107092358D01*
X110022517Y-107095875D01*
X110008199Y-107097999D01*
X109993741Y-107098709D01*
X109698741Y-107098709D01*
X109684283Y-107097999D01*
X109669965Y-107095875D01*
X109655924Y-107092358D01*
X109642295Y-107087481D01*
X109629210Y-107081292D01*
X109616794Y-107073851D01*
X109605168Y-107065228D01*
X109594443Y-107055507D01*
X109584722Y-107044782D01*
X109576099Y-107033156D01*
X109568658Y-107020740D01*
X109562469Y-107007655D01*
X109557592Y-106994026D01*
X109554075Y-106979985D01*
X109551951Y-106965667D01*
X109551241Y-106951209D01*
X109551241Y-106606209D01*
X109551951Y-106591751D01*
X109554075Y-106577433D01*
X109557592Y-106563392D01*
X109562469Y-106549763D01*
X109568658Y-106536678D01*
X109576099Y-106524262D01*
X109584722Y-106512636D01*
X109594443Y-106501911D01*
X109605168Y-106492190D01*
X109616794Y-106483567D01*
X109629210Y-106476126D01*
X109642295Y-106469937D01*
X109655924Y-106465060D01*
X109669965Y-106461543D01*
X109684283Y-106459419D01*
X109698741Y-106458709D01*
X109993741Y-106458709D01*
X110008199Y-106459419D01*
X110008199Y-106459419D01*
G37*
D17*
X109846241Y-106778709D03*
D16*
G36*
X109038199Y-106459419D02*
X109052517Y-106461543D01*
X109066558Y-106465060D01*
X109080187Y-106469937D01*
X109093272Y-106476126D01*
X109105688Y-106483567D01*
X109117314Y-106492190D01*
X109128039Y-106501911D01*
X109137760Y-106512636D01*
X109146383Y-106524262D01*
X109153824Y-106536678D01*
X109160013Y-106549763D01*
X109164890Y-106563392D01*
X109168407Y-106577433D01*
X109170531Y-106591751D01*
X109171241Y-106606209D01*
X109171241Y-106951209D01*
X109170531Y-106965667D01*
X109168407Y-106979985D01*
X109164890Y-106994026D01*
X109160013Y-107007655D01*
X109153824Y-107020740D01*
X109146383Y-107033156D01*
X109137760Y-107044782D01*
X109128039Y-107055507D01*
X109117314Y-107065228D01*
X109105688Y-107073851D01*
X109093272Y-107081292D01*
X109080187Y-107087481D01*
X109066558Y-107092358D01*
X109052517Y-107095875D01*
X109038199Y-107097999D01*
X109023741Y-107098709D01*
X108728741Y-107098709D01*
X108714283Y-107097999D01*
X108699965Y-107095875D01*
X108685924Y-107092358D01*
X108672295Y-107087481D01*
X108659210Y-107081292D01*
X108646794Y-107073851D01*
X108635168Y-107065228D01*
X108624443Y-107055507D01*
X108614722Y-107044782D01*
X108606099Y-107033156D01*
X108598658Y-107020740D01*
X108592469Y-107007655D01*
X108587592Y-106994026D01*
X108584075Y-106979985D01*
X108581951Y-106965667D01*
X108581241Y-106951209D01*
X108581241Y-106606209D01*
X108581951Y-106591751D01*
X108584075Y-106577433D01*
X108587592Y-106563392D01*
X108592469Y-106549763D01*
X108598658Y-106536678D01*
X108606099Y-106524262D01*
X108614722Y-106512636D01*
X108624443Y-106501911D01*
X108635168Y-106492190D01*
X108646794Y-106483567D01*
X108659210Y-106476126D01*
X108672295Y-106469937D01*
X108685924Y-106465060D01*
X108699965Y-106461543D01*
X108714283Y-106459419D01*
X108728741Y-106458709D01*
X109023741Y-106458709D01*
X109038199Y-106459419D01*
X109038199Y-106459419D01*
G37*
D17*
X108876241Y-106778709D03*
G04 #@! TD*
D16*
G04 #@! TO.C,C16*
G36*
X112898199Y-119279419D02*
X112912517Y-119281543D01*
X112926558Y-119285060D01*
X112940187Y-119289937D01*
X112953272Y-119296126D01*
X112965688Y-119303567D01*
X112977314Y-119312190D01*
X112988039Y-119321911D01*
X112997760Y-119332636D01*
X113006383Y-119344262D01*
X113013824Y-119356678D01*
X113020013Y-119369763D01*
X113024890Y-119383392D01*
X113028407Y-119397433D01*
X113030531Y-119411751D01*
X113031241Y-119426209D01*
X113031241Y-119721209D01*
X113030531Y-119735667D01*
X113028407Y-119749985D01*
X113024890Y-119764026D01*
X113020013Y-119777655D01*
X113013824Y-119790740D01*
X113006383Y-119803156D01*
X112997760Y-119814782D01*
X112988039Y-119825507D01*
X112977314Y-119835228D01*
X112965688Y-119843851D01*
X112953272Y-119851292D01*
X112940187Y-119857481D01*
X112926558Y-119862358D01*
X112912517Y-119865875D01*
X112898199Y-119867999D01*
X112883741Y-119868709D01*
X112538741Y-119868709D01*
X112524283Y-119867999D01*
X112509965Y-119865875D01*
X112495924Y-119862358D01*
X112482295Y-119857481D01*
X112469210Y-119851292D01*
X112456794Y-119843851D01*
X112445168Y-119835228D01*
X112434443Y-119825507D01*
X112424722Y-119814782D01*
X112416099Y-119803156D01*
X112408658Y-119790740D01*
X112402469Y-119777655D01*
X112397592Y-119764026D01*
X112394075Y-119749985D01*
X112391951Y-119735667D01*
X112391241Y-119721209D01*
X112391241Y-119426209D01*
X112391951Y-119411751D01*
X112394075Y-119397433D01*
X112397592Y-119383392D01*
X112402469Y-119369763D01*
X112408658Y-119356678D01*
X112416099Y-119344262D01*
X112424722Y-119332636D01*
X112434443Y-119321911D01*
X112445168Y-119312190D01*
X112456794Y-119303567D01*
X112469210Y-119296126D01*
X112482295Y-119289937D01*
X112495924Y-119285060D01*
X112509965Y-119281543D01*
X112524283Y-119279419D01*
X112538741Y-119278709D01*
X112883741Y-119278709D01*
X112898199Y-119279419D01*
X112898199Y-119279419D01*
G37*
D17*
X112711241Y-119573709D03*
D16*
G36*
X112898199Y-120249419D02*
X112912517Y-120251543D01*
X112926558Y-120255060D01*
X112940187Y-120259937D01*
X112953272Y-120266126D01*
X112965688Y-120273567D01*
X112977314Y-120282190D01*
X112988039Y-120291911D01*
X112997760Y-120302636D01*
X113006383Y-120314262D01*
X113013824Y-120326678D01*
X113020013Y-120339763D01*
X113024890Y-120353392D01*
X113028407Y-120367433D01*
X113030531Y-120381751D01*
X113031241Y-120396209D01*
X113031241Y-120691209D01*
X113030531Y-120705667D01*
X113028407Y-120719985D01*
X113024890Y-120734026D01*
X113020013Y-120747655D01*
X113013824Y-120760740D01*
X113006383Y-120773156D01*
X112997760Y-120784782D01*
X112988039Y-120795507D01*
X112977314Y-120805228D01*
X112965688Y-120813851D01*
X112953272Y-120821292D01*
X112940187Y-120827481D01*
X112926558Y-120832358D01*
X112912517Y-120835875D01*
X112898199Y-120837999D01*
X112883741Y-120838709D01*
X112538741Y-120838709D01*
X112524283Y-120837999D01*
X112509965Y-120835875D01*
X112495924Y-120832358D01*
X112482295Y-120827481D01*
X112469210Y-120821292D01*
X112456794Y-120813851D01*
X112445168Y-120805228D01*
X112434443Y-120795507D01*
X112424722Y-120784782D01*
X112416099Y-120773156D01*
X112408658Y-120760740D01*
X112402469Y-120747655D01*
X112397592Y-120734026D01*
X112394075Y-120719985D01*
X112391951Y-120705667D01*
X112391241Y-120691209D01*
X112391241Y-120396209D01*
X112391951Y-120381751D01*
X112394075Y-120367433D01*
X112397592Y-120353392D01*
X112402469Y-120339763D01*
X112408658Y-120326678D01*
X112416099Y-120314262D01*
X112424722Y-120302636D01*
X112434443Y-120291911D01*
X112445168Y-120282190D01*
X112456794Y-120273567D01*
X112469210Y-120266126D01*
X112482295Y-120259937D01*
X112495924Y-120255060D01*
X112509965Y-120251543D01*
X112524283Y-120249419D01*
X112538741Y-120248709D01*
X112883741Y-120248709D01*
X112898199Y-120249419D01*
X112898199Y-120249419D01*
G37*
D17*
X112711241Y-120543709D03*
G04 #@! TD*
D16*
G04 #@! TO.C,C17*
G36*
X120778199Y-120249419D02*
X120792517Y-120251543D01*
X120806558Y-120255060D01*
X120820187Y-120259937D01*
X120833272Y-120266126D01*
X120845688Y-120273567D01*
X120857314Y-120282190D01*
X120868039Y-120291911D01*
X120877760Y-120302636D01*
X120886383Y-120314262D01*
X120893824Y-120326678D01*
X120900013Y-120339763D01*
X120904890Y-120353392D01*
X120908407Y-120367433D01*
X120910531Y-120381751D01*
X120911241Y-120396209D01*
X120911241Y-120691209D01*
X120910531Y-120705667D01*
X120908407Y-120719985D01*
X120904890Y-120734026D01*
X120900013Y-120747655D01*
X120893824Y-120760740D01*
X120886383Y-120773156D01*
X120877760Y-120784782D01*
X120868039Y-120795507D01*
X120857314Y-120805228D01*
X120845688Y-120813851D01*
X120833272Y-120821292D01*
X120820187Y-120827481D01*
X120806558Y-120832358D01*
X120792517Y-120835875D01*
X120778199Y-120837999D01*
X120763741Y-120838709D01*
X120418741Y-120838709D01*
X120404283Y-120837999D01*
X120389965Y-120835875D01*
X120375924Y-120832358D01*
X120362295Y-120827481D01*
X120349210Y-120821292D01*
X120336794Y-120813851D01*
X120325168Y-120805228D01*
X120314443Y-120795507D01*
X120304722Y-120784782D01*
X120296099Y-120773156D01*
X120288658Y-120760740D01*
X120282469Y-120747655D01*
X120277592Y-120734026D01*
X120274075Y-120719985D01*
X120271951Y-120705667D01*
X120271241Y-120691209D01*
X120271241Y-120396209D01*
X120271951Y-120381751D01*
X120274075Y-120367433D01*
X120277592Y-120353392D01*
X120282469Y-120339763D01*
X120288658Y-120326678D01*
X120296099Y-120314262D01*
X120304722Y-120302636D01*
X120314443Y-120291911D01*
X120325168Y-120282190D01*
X120336794Y-120273567D01*
X120349210Y-120266126D01*
X120362295Y-120259937D01*
X120375924Y-120255060D01*
X120389965Y-120251543D01*
X120404283Y-120249419D01*
X120418741Y-120248709D01*
X120763741Y-120248709D01*
X120778199Y-120249419D01*
X120778199Y-120249419D01*
G37*
D17*
X120591241Y-120543709D03*
D16*
G36*
X120778199Y-119279419D02*
X120792517Y-119281543D01*
X120806558Y-119285060D01*
X120820187Y-119289937D01*
X120833272Y-119296126D01*
X120845688Y-119303567D01*
X120857314Y-119312190D01*
X120868039Y-119321911D01*
X120877760Y-119332636D01*
X120886383Y-119344262D01*
X120893824Y-119356678D01*
X120900013Y-119369763D01*
X120904890Y-119383392D01*
X120908407Y-119397433D01*
X120910531Y-119411751D01*
X120911241Y-119426209D01*
X120911241Y-119721209D01*
X120910531Y-119735667D01*
X120908407Y-119749985D01*
X120904890Y-119764026D01*
X120900013Y-119777655D01*
X120893824Y-119790740D01*
X120886383Y-119803156D01*
X120877760Y-119814782D01*
X120868039Y-119825507D01*
X120857314Y-119835228D01*
X120845688Y-119843851D01*
X120833272Y-119851292D01*
X120820187Y-119857481D01*
X120806558Y-119862358D01*
X120792517Y-119865875D01*
X120778199Y-119867999D01*
X120763741Y-119868709D01*
X120418741Y-119868709D01*
X120404283Y-119867999D01*
X120389965Y-119865875D01*
X120375924Y-119862358D01*
X120362295Y-119857481D01*
X120349210Y-119851292D01*
X120336794Y-119843851D01*
X120325168Y-119835228D01*
X120314443Y-119825507D01*
X120304722Y-119814782D01*
X120296099Y-119803156D01*
X120288658Y-119790740D01*
X120282469Y-119777655D01*
X120277592Y-119764026D01*
X120274075Y-119749985D01*
X120271951Y-119735667D01*
X120271241Y-119721209D01*
X120271241Y-119426209D01*
X120271951Y-119411751D01*
X120274075Y-119397433D01*
X120277592Y-119383392D01*
X120282469Y-119369763D01*
X120288658Y-119356678D01*
X120296099Y-119344262D01*
X120304722Y-119332636D01*
X120314443Y-119321911D01*
X120325168Y-119312190D01*
X120336794Y-119303567D01*
X120349210Y-119296126D01*
X120362295Y-119289937D01*
X120375924Y-119285060D01*
X120389965Y-119281543D01*
X120404283Y-119279419D01*
X120418741Y-119278709D01*
X120763741Y-119278709D01*
X120778199Y-119279419D01*
X120778199Y-119279419D01*
G37*
D17*
X120591241Y-119573709D03*
G04 #@! TD*
D16*
G04 #@! TO.C,C18*
G36*
X110201199Y-116149753D02*
X110215517Y-116151877D01*
X110229558Y-116155394D01*
X110243187Y-116160271D01*
X110256272Y-116166460D01*
X110268688Y-116173901D01*
X110280314Y-116182524D01*
X110291039Y-116192245D01*
X110300760Y-116202970D01*
X110309383Y-116214596D01*
X110316824Y-116227012D01*
X110323013Y-116240097D01*
X110327890Y-116253726D01*
X110331407Y-116267767D01*
X110333531Y-116282085D01*
X110334241Y-116296543D01*
X110334241Y-116641543D01*
X110333531Y-116656001D01*
X110331407Y-116670319D01*
X110327890Y-116684360D01*
X110323013Y-116697989D01*
X110316824Y-116711074D01*
X110309383Y-116723490D01*
X110300760Y-116735116D01*
X110291039Y-116745841D01*
X110280314Y-116755562D01*
X110268688Y-116764185D01*
X110256272Y-116771626D01*
X110243187Y-116777815D01*
X110229558Y-116782692D01*
X110215517Y-116786209D01*
X110201199Y-116788333D01*
X110186741Y-116789043D01*
X109891741Y-116789043D01*
X109877283Y-116788333D01*
X109862965Y-116786209D01*
X109848924Y-116782692D01*
X109835295Y-116777815D01*
X109822210Y-116771626D01*
X109809794Y-116764185D01*
X109798168Y-116755562D01*
X109787443Y-116745841D01*
X109777722Y-116735116D01*
X109769099Y-116723490D01*
X109761658Y-116711074D01*
X109755469Y-116697989D01*
X109750592Y-116684360D01*
X109747075Y-116670319D01*
X109744951Y-116656001D01*
X109744241Y-116641543D01*
X109744241Y-116296543D01*
X109744951Y-116282085D01*
X109747075Y-116267767D01*
X109750592Y-116253726D01*
X109755469Y-116240097D01*
X109761658Y-116227012D01*
X109769099Y-116214596D01*
X109777722Y-116202970D01*
X109787443Y-116192245D01*
X109798168Y-116182524D01*
X109809794Y-116173901D01*
X109822210Y-116166460D01*
X109835295Y-116160271D01*
X109848924Y-116155394D01*
X109862965Y-116151877D01*
X109877283Y-116149753D01*
X109891741Y-116149043D01*
X110186741Y-116149043D01*
X110201199Y-116149753D01*
X110201199Y-116149753D01*
G37*
D17*
X110039241Y-116469043D03*
D16*
G36*
X111171199Y-116149753D02*
X111185517Y-116151877D01*
X111199558Y-116155394D01*
X111213187Y-116160271D01*
X111226272Y-116166460D01*
X111238688Y-116173901D01*
X111250314Y-116182524D01*
X111261039Y-116192245D01*
X111270760Y-116202970D01*
X111279383Y-116214596D01*
X111286824Y-116227012D01*
X111293013Y-116240097D01*
X111297890Y-116253726D01*
X111301407Y-116267767D01*
X111303531Y-116282085D01*
X111304241Y-116296543D01*
X111304241Y-116641543D01*
X111303531Y-116656001D01*
X111301407Y-116670319D01*
X111297890Y-116684360D01*
X111293013Y-116697989D01*
X111286824Y-116711074D01*
X111279383Y-116723490D01*
X111270760Y-116735116D01*
X111261039Y-116745841D01*
X111250314Y-116755562D01*
X111238688Y-116764185D01*
X111226272Y-116771626D01*
X111213187Y-116777815D01*
X111199558Y-116782692D01*
X111185517Y-116786209D01*
X111171199Y-116788333D01*
X111156741Y-116789043D01*
X110861741Y-116789043D01*
X110847283Y-116788333D01*
X110832965Y-116786209D01*
X110818924Y-116782692D01*
X110805295Y-116777815D01*
X110792210Y-116771626D01*
X110779794Y-116764185D01*
X110768168Y-116755562D01*
X110757443Y-116745841D01*
X110747722Y-116735116D01*
X110739099Y-116723490D01*
X110731658Y-116711074D01*
X110725469Y-116697989D01*
X110720592Y-116684360D01*
X110717075Y-116670319D01*
X110714951Y-116656001D01*
X110714241Y-116641543D01*
X110714241Y-116296543D01*
X110714951Y-116282085D01*
X110717075Y-116267767D01*
X110720592Y-116253726D01*
X110725469Y-116240097D01*
X110731658Y-116227012D01*
X110739099Y-116214596D01*
X110747722Y-116202970D01*
X110757443Y-116192245D01*
X110768168Y-116182524D01*
X110779794Y-116173901D01*
X110792210Y-116166460D01*
X110805295Y-116160271D01*
X110818924Y-116155394D01*
X110832965Y-116151877D01*
X110847283Y-116149753D01*
X110861741Y-116149043D01*
X111156741Y-116149043D01*
X111171199Y-116149753D01*
X111171199Y-116149753D01*
G37*
D17*
X111009241Y-116469043D03*
G04 #@! TD*
D16*
G04 #@! TO.C,C19*
G36*
X110201199Y-117672919D02*
X110215517Y-117675043D01*
X110229558Y-117678560D01*
X110243187Y-117683437D01*
X110256272Y-117689626D01*
X110268688Y-117697067D01*
X110280314Y-117705690D01*
X110291039Y-117715411D01*
X110300760Y-117726136D01*
X110309383Y-117737762D01*
X110316824Y-117750178D01*
X110323013Y-117763263D01*
X110327890Y-117776892D01*
X110331407Y-117790933D01*
X110333531Y-117805251D01*
X110334241Y-117819709D01*
X110334241Y-118164709D01*
X110333531Y-118179167D01*
X110331407Y-118193485D01*
X110327890Y-118207526D01*
X110323013Y-118221155D01*
X110316824Y-118234240D01*
X110309383Y-118246656D01*
X110300760Y-118258282D01*
X110291039Y-118269007D01*
X110280314Y-118278728D01*
X110268688Y-118287351D01*
X110256272Y-118294792D01*
X110243187Y-118300981D01*
X110229558Y-118305858D01*
X110215517Y-118309375D01*
X110201199Y-118311499D01*
X110186741Y-118312209D01*
X109891741Y-118312209D01*
X109877283Y-118311499D01*
X109862965Y-118309375D01*
X109848924Y-118305858D01*
X109835295Y-118300981D01*
X109822210Y-118294792D01*
X109809794Y-118287351D01*
X109798168Y-118278728D01*
X109787443Y-118269007D01*
X109777722Y-118258282D01*
X109769099Y-118246656D01*
X109761658Y-118234240D01*
X109755469Y-118221155D01*
X109750592Y-118207526D01*
X109747075Y-118193485D01*
X109744951Y-118179167D01*
X109744241Y-118164709D01*
X109744241Y-117819709D01*
X109744951Y-117805251D01*
X109747075Y-117790933D01*
X109750592Y-117776892D01*
X109755469Y-117763263D01*
X109761658Y-117750178D01*
X109769099Y-117737762D01*
X109777722Y-117726136D01*
X109787443Y-117715411D01*
X109798168Y-117705690D01*
X109809794Y-117697067D01*
X109822210Y-117689626D01*
X109835295Y-117683437D01*
X109848924Y-117678560D01*
X109862965Y-117675043D01*
X109877283Y-117672919D01*
X109891741Y-117672209D01*
X110186741Y-117672209D01*
X110201199Y-117672919D01*
X110201199Y-117672919D01*
G37*
D17*
X110039241Y-117992209D03*
D16*
G36*
X111171199Y-117672919D02*
X111185517Y-117675043D01*
X111199558Y-117678560D01*
X111213187Y-117683437D01*
X111226272Y-117689626D01*
X111238688Y-117697067D01*
X111250314Y-117705690D01*
X111261039Y-117715411D01*
X111270760Y-117726136D01*
X111279383Y-117737762D01*
X111286824Y-117750178D01*
X111293013Y-117763263D01*
X111297890Y-117776892D01*
X111301407Y-117790933D01*
X111303531Y-117805251D01*
X111304241Y-117819709D01*
X111304241Y-118164709D01*
X111303531Y-118179167D01*
X111301407Y-118193485D01*
X111297890Y-118207526D01*
X111293013Y-118221155D01*
X111286824Y-118234240D01*
X111279383Y-118246656D01*
X111270760Y-118258282D01*
X111261039Y-118269007D01*
X111250314Y-118278728D01*
X111238688Y-118287351D01*
X111226272Y-118294792D01*
X111213187Y-118300981D01*
X111199558Y-118305858D01*
X111185517Y-118309375D01*
X111171199Y-118311499D01*
X111156741Y-118312209D01*
X110861741Y-118312209D01*
X110847283Y-118311499D01*
X110832965Y-118309375D01*
X110818924Y-118305858D01*
X110805295Y-118300981D01*
X110792210Y-118294792D01*
X110779794Y-118287351D01*
X110768168Y-118278728D01*
X110757443Y-118269007D01*
X110747722Y-118258282D01*
X110739099Y-118246656D01*
X110731658Y-118234240D01*
X110725469Y-118221155D01*
X110720592Y-118207526D01*
X110717075Y-118193485D01*
X110714951Y-118179167D01*
X110714241Y-118164709D01*
X110714241Y-117819709D01*
X110714951Y-117805251D01*
X110717075Y-117790933D01*
X110720592Y-117776892D01*
X110725469Y-117763263D01*
X110731658Y-117750178D01*
X110739099Y-117737762D01*
X110747722Y-117726136D01*
X110757443Y-117715411D01*
X110768168Y-117705690D01*
X110779794Y-117697067D01*
X110792210Y-117689626D01*
X110805295Y-117683437D01*
X110818924Y-117678560D01*
X110832965Y-117675043D01*
X110847283Y-117672919D01*
X110861741Y-117672209D01*
X111156741Y-117672209D01*
X111171199Y-117672919D01*
X111171199Y-117672919D01*
G37*
D17*
X111009241Y-117992209D03*
G04 #@! TD*
D16*
G04 #@! TO.C,C11*
G36*
X133448199Y-110959419D02*
X133462517Y-110961543D01*
X133476558Y-110965060D01*
X133490187Y-110969937D01*
X133503272Y-110976126D01*
X133515688Y-110983567D01*
X133527314Y-110992190D01*
X133538039Y-111001911D01*
X133547760Y-111012636D01*
X133556383Y-111024262D01*
X133563824Y-111036678D01*
X133570013Y-111049763D01*
X133574890Y-111063392D01*
X133578407Y-111077433D01*
X133580531Y-111091751D01*
X133581241Y-111106209D01*
X133581241Y-111401209D01*
X133580531Y-111415667D01*
X133578407Y-111429985D01*
X133574890Y-111444026D01*
X133570013Y-111457655D01*
X133563824Y-111470740D01*
X133556383Y-111483156D01*
X133547760Y-111494782D01*
X133538039Y-111505507D01*
X133527314Y-111515228D01*
X133515688Y-111523851D01*
X133503272Y-111531292D01*
X133490187Y-111537481D01*
X133476558Y-111542358D01*
X133462517Y-111545875D01*
X133448199Y-111547999D01*
X133433741Y-111548709D01*
X133088741Y-111548709D01*
X133074283Y-111547999D01*
X133059965Y-111545875D01*
X133045924Y-111542358D01*
X133032295Y-111537481D01*
X133019210Y-111531292D01*
X133006794Y-111523851D01*
X132995168Y-111515228D01*
X132984443Y-111505507D01*
X132974722Y-111494782D01*
X132966099Y-111483156D01*
X132958658Y-111470740D01*
X132952469Y-111457655D01*
X132947592Y-111444026D01*
X132944075Y-111429985D01*
X132941951Y-111415667D01*
X132941241Y-111401209D01*
X132941241Y-111106209D01*
X132941951Y-111091751D01*
X132944075Y-111077433D01*
X132947592Y-111063392D01*
X132952469Y-111049763D01*
X132958658Y-111036678D01*
X132966099Y-111024262D01*
X132974722Y-111012636D01*
X132984443Y-111001911D01*
X132995168Y-110992190D01*
X133006794Y-110983567D01*
X133019210Y-110976126D01*
X133032295Y-110969937D01*
X133045924Y-110965060D01*
X133059965Y-110961543D01*
X133074283Y-110959419D01*
X133088741Y-110958709D01*
X133433741Y-110958709D01*
X133448199Y-110959419D01*
X133448199Y-110959419D01*
G37*
D17*
X133261241Y-111253709D03*
D16*
G36*
X133448199Y-109989419D02*
X133462517Y-109991543D01*
X133476558Y-109995060D01*
X133490187Y-109999937D01*
X133503272Y-110006126D01*
X133515688Y-110013567D01*
X133527314Y-110022190D01*
X133538039Y-110031911D01*
X133547760Y-110042636D01*
X133556383Y-110054262D01*
X133563824Y-110066678D01*
X133570013Y-110079763D01*
X133574890Y-110093392D01*
X133578407Y-110107433D01*
X133580531Y-110121751D01*
X133581241Y-110136209D01*
X133581241Y-110431209D01*
X133580531Y-110445667D01*
X133578407Y-110459985D01*
X133574890Y-110474026D01*
X133570013Y-110487655D01*
X133563824Y-110500740D01*
X133556383Y-110513156D01*
X133547760Y-110524782D01*
X133538039Y-110535507D01*
X133527314Y-110545228D01*
X133515688Y-110553851D01*
X133503272Y-110561292D01*
X133490187Y-110567481D01*
X133476558Y-110572358D01*
X133462517Y-110575875D01*
X133448199Y-110577999D01*
X133433741Y-110578709D01*
X133088741Y-110578709D01*
X133074283Y-110577999D01*
X133059965Y-110575875D01*
X133045924Y-110572358D01*
X133032295Y-110567481D01*
X133019210Y-110561292D01*
X133006794Y-110553851D01*
X132995168Y-110545228D01*
X132984443Y-110535507D01*
X132974722Y-110524782D01*
X132966099Y-110513156D01*
X132958658Y-110500740D01*
X132952469Y-110487655D01*
X132947592Y-110474026D01*
X132944075Y-110459985D01*
X132941951Y-110445667D01*
X132941241Y-110431209D01*
X132941241Y-110136209D01*
X132941951Y-110121751D01*
X132944075Y-110107433D01*
X132947592Y-110093392D01*
X132952469Y-110079763D01*
X132958658Y-110066678D01*
X132966099Y-110054262D01*
X132974722Y-110042636D01*
X132984443Y-110031911D01*
X132995168Y-110022190D01*
X133006794Y-110013567D01*
X133019210Y-110006126D01*
X133032295Y-109999937D01*
X133045924Y-109995060D01*
X133059965Y-109991543D01*
X133074283Y-109989419D01*
X133088741Y-109988709D01*
X133433741Y-109988709D01*
X133448199Y-109989419D01*
X133448199Y-109989419D01*
G37*
D17*
X133261241Y-110283709D03*
G04 #@! TD*
D16*
G04 #@! TO.C,R10*
G36*
X110389458Y-111810210D02*
X110403776Y-111812334D01*
X110417817Y-111815851D01*
X110431446Y-111820728D01*
X110444531Y-111826917D01*
X110456947Y-111834358D01*
X110468573Y-111842981D01*
X110479298Y-111852702D01*
X110489019Y-111863427D01*
X110497642Y-111875053D01*
X110505083Y-111887469D01*
X110511272Y-111900554D01*
X110516149Y-111914183D01*
X110519666Y-111928224D01*
X110521790Y-111942542D01*
X110522500Y-111957000D01*
X110522500Y-112302000D01*
X110521790Y-112316458D01*
X110519666Y-112330776D01*
X110516149Y-112344817D01*
X110511272Y-112358446D01*
X110505083Y-112371531D01*
X110497642Y-112383947D01*
X110489019Y-112395573D01*
X110479298Y-112406298D01*
X110468573Y-112416019D01*
X110456947Y-112424642D01*
X110444531Y-112432083D01*
X110431446Y-112438272D01*
X110417817Y-112443149D01*
X110403776Y-112446666D01*
X110389458Y-112448790D01*
X110375000Y-112449500D01*
X110080000Y-112449500D01*
X110065542Y-112448790D01*
X110051224Y-112446666D01*
X110037183Y-112443149D01*
X110023554Y-112438272D01*
X110010469Y-112432083D01*
X109998053Y-112424642D01*
X109986427Y-112416019D01*
X109975702Y-112406298D01*
X109965981Y-112395573D01*
X109957358Y-112383947D01*
X109949917Y-112371531D01*
X109943728Y-112358446D01*
X109938851Y-112344817D01*
X109935334Y-112330776D01*
X109933210Y-112316458D01*
X109932500Y-112302000D01*
X109932500Y-111957000D01*
X109933210Y-111942542D01*
X109935334Y-111928224D01*
X109938851Y-111914183D01*
X109943728Y-111900554D01*
X109949917Y-111887469D01*
X109957358Y-111875053D01*
X109965981Y-111863427D01*
X109975702Y-111852702D01*
X109986427Y-111842981D01*
X109998053Y-111834358D01*
X110010469Y-111826917D01*
X110023554Y-111820728D01*
X110037183Y-111815851D01*
X110051224Y-111812334D01*
X110065542Y-111810210D01*
X110080000Y-111809500D01*
X110375000Y-111809500D01*
X110389458Y-111810210D01*
X110389458Y-111810210D01*
G37*
D17*
X110227500Y-112129500D03*
D16*
G36*
X111359458Y-111810210D02*
X111373776Y-111812334D01*
X111387817Y-111815851D01*
X111401446Y-111820728D01*
X111414531Y-111826917D01*
X111426947Y-111834358D01*
X111438573Y-111842981D01*
X111449298Y-111852702D01*
X111459019Y-111863427D01*
X111467642Y-111875053D01*
X111475083Y-111887469D01*
X111481272Y-111900554D01*
X111486149Y-111914183D01*
X111489666Y-111928224D01*
X111491790Y-111942542D01*
X111492500Y-111957000D01*
X111492500Y-112302000D01*
X111491790Y-112316458D01*
X111489666Y-112330776D01*
X111486149Y-112344817D01*
X111481272Y-112358446D01*
X111475083Y-112371531D01*
X111467642Y-112383947D01*
X111459019Y-112395573D01*
X111449298Y-112406298D01*
X111438573Y-112416019D01*
X111426947Y-112424642D01*
X111414531Y-112432083D01*
X111401446Y-112438272D01*
X111387817Y-112443149D01*
X111373776Y-112446666D01*
X111359458Y-112448790D01*
X111345000Y-112449500D01*
X111050000Y-112449500D01*
X111035542Y-112448790D01*
X111021224Y-112446666D01*
X111007183Y-112443149D01*
X110993554Y-112438272D01*
X110980469Y-112432083D01*
X110968053Y-112424642D01*
X110956427Y-112416019D01*
X110945702Y-112406298D01*
X110935981Y-112395573D01*
X110927358Y-112383947D01*
X110919917Y-112371531D01*
X110913728Y-112358446D01*
X110908851Y-112344817D01*
X110905334Y-112330776D01*
X110903210Y-112316458D01*
X110902500Y-112302000D01*
X110902500Y-111957000D01*
X110903210Y-111942542D01*
X110905334Y-111928224D01*
X110908851Y-111914183D01*
X110913728Y-111900554D01*
X110919917Y-111887469D01*
X110927358Y-111875053D01*
X110935981Y-111863427D01*
X110945702Y-111852702D01*
X110956427Y-111842981D01*
X110968053Y-111834358D01*
X110980469Y-111826917D01*
X110993554Y-111820728D01*
X111007183Y-111815851D01*
X111021224Y-111812334D01*
X111035542Y-111810210D01*
X111050000Y-111809500D01*
X111345000Y-111809500D01*
X111359458Y-111810210D01*
X111359458Y-111810210D01*
G37*
D17*
X111197500Y-112129500D03*
G04 #@! TD*
D16*
G04 #@! TO.C,R9*
G36*
X110389458Y-110730710D02*
X110403776Y-110732834D01*
X110417817Y-110736351D01*
X110431446Y-110741228D01*
X110444531Y-110747417D01*
X110456947Y-110754858D01*
X110468573Y-110763481D01*
X110479298Y-110773202D01*
X110489019Y-110783927D01*
X110497642Y-110795553D01*
X110505083Y-110807969D01*
X110511272Y-110821054D01*
X110516149Y-110834683D01*
X110519666Y-110848724D01*
X110521790Y-110863042D01*
X110522500Y-110877500D01*
X110522500Y-111222500D01*
X110521790Y-111236958D01*
X110519666Y-111251276D01*
X110516149Y-111265317D01*
X110511272Y-111278946D01*
X110505083Y-111292031D01*
X110497642Y-111304447D01*
X110489019Y-111316073D01*
X110479298Y-111326798D01*
X110468573Y-111336519D01*
X110456947Y-111345142D01*
X110444531Y-111352583D01*
X110431446Y-111358772D01*
X110417817Y-111363649D01*
X110403776Y-111367166D01*
X110389458Y-111369290D01*
X110375000Y-111370000D01*
X110080000Y-111370000D01*
X110065542Y-111369290D01*
X110051224Y-111367166D01*
X110037183Y-111363649D01*
X110023554Y-111358772D01*
X110010469Y-111352583D01*
X109998053Y-111345142D01*
X109986427Y-111336519D01*
X109975702Y-111326798D01*
X109965981Y-111316073D01*
X109957358Y-111304447D01*
X109949917Y-111292031D01*
X109943728Y-111278946D01*
X109938851Y-111265317D01*
X109935334Y-111251276D01*
X109933210Y-111236958D01*
X109932500Y-111222500D01*
X109932500Y-110877500D01*
X109933210Y-110863042D01*
X109935334Y-110848724D01*
X109938851Y-110834683D01*
X109943728Y-110821054D01*
X109949917Y-110807969D01*
X109957358Y-110795553D01*
X109965981Y-110783927D01*
X109975702Y-110773202D01*
X109986427Y-110763481D01*
X109998053Y-110754858D01*
X110010469Y-110747417D01*
X110023554Y-110741228D01*
X110037183Y-110736351D01*
X110051224Y-110732834D01*
X110065542Y-110730710D01*
X110080000Y-110730000D01*
X110375000Y-110730000D01*
X110389458Y-110730710D01*
X110389458Y-110730710D01*
G37*
D17*
X110227500Y-111050000D03*
D16*
G36*
X111359458Y-110730710D02*
X111373776Y-110732834D01*
X111387817Y-110736351D01*
X111401446Y-110741228D01*
X111414531Y-110747417D01*
X111426947Y-110754858D01*
X111438573Y-110763481D01*
X111449298Y-110773202D01*
X111459019Y-110783927D01*
X111467642Y-110795553D01*
X111475083Y-110807969D01*
X111481272Y-110821054D01*
X111486149Y-110834683D01*
X111489666Y-110848724D01*
X111491790Y-110863042D01*
X111492500Y-110877500D01*
X111492500Y-111222500D01*
X111491790Y-111236958D01*
X111489666Y-111251276D01*
X111486149Y-111265317D01*
X111481272Y-111278946D01*
X111475083Y-111292031D01*
X111467642Y-111304447D01*
X111459019Y-111316073D01*
X111449298Y-111326798D01*
X111438573Y-111336519D01*
X111426947Y-111345142D01*
X111414531Y-111352583D01*
X111401446Y-111358772D01*
X111387817Y-111363649D01*
X111373776Y-111367166D01*
X111359458Y-111369290D01*
X111345000Y-111370000D01*
X111050000Y-111370000D01*
X111035542Y-111369290D01*
X111021224Y-111367166D01*
X111007183Y-111363649D01*
X110993554Y-111358772D01*
X110980469Y-111352583D01*
X110968053Y-111345142D01*
X110956427Y-111336519D01*
X110945702Y-111326798D01*
X110935981Y-111316073D01*
X110927358Y-111304447D01*
X110919917Y-111292031D01*
X110913728Y-111278946D01*
X110908851Y-111265317D01*
X110905334Y-111251276D01*
X110903210Y-111236958D01*
X110902500Y-111222500D01*
X110902500Y-110877500D01*
X110903210Y-110863042D01*
X110905334Y-110848724D01*
X110908851Y-110834683D01*
X110913728Y-110821054D01*
X110919917Y-110807969D01*
X110927358Y-110795553D01*
X110935981Y-110783927D01*
X110945702Y-110773202D01*
X110956427Y-110763481D01*
X110968053Y-110754858D01*
X110980469Y-110747417D01*
X110993554Y-110741228D01*
X111007183Y-110736351D01*
X111021224Y-110732834D01*
X111035542Y-110730710D01*
X111050000Y-110730000D01*
X111345000Y-110730000D01*
X111359458Y-110730710D01*
X111359458Y-110730710D01*
G37*
D17*
X111197500Y-111050000D03*
G04 #@! TD*
D10*
G04 #@! TO.C,C10*
X137202241Y-110817709D03*
X137202241Y-112217709D03*
G04 #@! TD*
G04 #@! TO.C,C12*
X135353241Y-103578709D03*
X135353241Y-102178709D03*
G04 #@! TD*
G04 #@! TO.C,C13*
X133533241Y-103578709D03*
X133533241Y-102178709D03*
G04 #@! TD*
D18*
G04 #@! TO.C,R8*
X125511241Y-103580209D03*
X126911241Y-103580209D03*
G04 #@! TD*
G04 #@! TO.C,R11*
X127028241Y-106019209D03*
X125628241Y-106019209D03*
G04 #@! TD*
D19*
G04 #@! TO.C,Y1*
X118213741Y-120958709D03*
X118213741Y-119158709D03*
X115913741Y-120958709D03*
X115913741Y-119158709D03*
G04 #@! TD*
D20*
G04 #@! TO.C,U2*
X118791241Y-114728709D03*
X118291241Y-114728709D03*
X117791241Y-114728709D03*
X117291241Y-114728709D03*
X116791241Y-114728709D03*
X116291241Y-114728709D03*
X115791241Y-114728709D03*
X115291241Y-114728709D03*
D21*
X113881241Y-113318709D03*
X113881241Y-112818709D03*
X113881241Y-112318709D03*
X113881241Y-111818709D03*
X113881241Y-111318709D03*
X113881241Y-110818709D03*
X113881241Y-110318709D03*
X113881241Y-109818709D03*
D20*
X115291241Y-108408709D03*
X115791241Y-108408709D03*
X116291241Y-108408709D03*
X116791241Y-108408709D03*
X117291241Y-108408709D03*
X117791241Y-108408709D03*
X118291241Y-108408709D03*
X118791241Y-108408709D03*
D21*
X120201241Y-109818709D03*
X120201241Y-110318709D03*
X120201241Y-110818709D03*
X120201241Y-111318709D03*
X120201241Y-111818709D03*
X120201241Y-112318709D03*
X120201241Y-112818709D03*
X120201241Y-113318709D03*
G04 #@! TD*
D15*
G04 #@! TO.C,TP1*
X129963241Y-107580709D03*
G04 #@! TD*
G04 #@! TO.C,TP2*
X129963241Y-105675709D03*
G04 #@! TD*
G04 #@! TO.C,TP3*
X129836241Y-103580209D03*
G04 #@! TD*
D16*
G04 #@! TO.C,U1*
G36*
X135371867Y-105274010D02*
X135377934Y-105274910D01*
X135383884Y-105276400D01*
X135389659Y-105278467D01*
X135395203Y-105281089D01*
X135400464Y-105284242D01*
X135405391Y-105287896D01*
X135409935Y-105292015D01*
X135414054Y-105296559D01*
X135417708Y-105301486D01*
X135420861Y-105306747D01*
X135423483Y-105312291D01*
X135425550Y-105318066D01*
X135427040Y-105324016D01*
X135427940Y-105330083D01*
X135428241Y-105336209D01*
X135428241Y-106086209D01*
X135427940Y-106092335D01*
X135427040Y-106098402D01*
X135425550Y-106104352D01*
X135423483Y-106110127D01*
X135420861Y-106115671D01*
X135417708Y-106120932D01*
X135414054Y-106125859D01*
X135409935Y-106130403D01*
X135405391Y-106134522D01*
X135400464Y-106138176D01*
X135395203Y-106141329D01*
X135389659Y-106143951D01*
X135383884Y-106146018D01*
X135377934Y-106147508D01*
X135371867Y-106148408D01*
X135365741Y-106148709D01*
X135240741Y-106148709D01*
X135234615Y-106148408D01*
X135228548Y-106147508D01*
X135222598Y-106146018D01*
X135216823Y-106143951D01*
X135211279Y-106141329D01*
X135206018Y-106138176D01*
X135201091Y-106134522D01*
X135196547Y-106130403D01*
X135192428Y-106125859D01*
X135188774Y-106120932D01*
X135185621Y-106115671D01*
X135182999Y-106110127D01*
X135180932Y-106104352D01*
X135179442Y-106098402D01*
X135178542Y-106092335D01*
X135178241Y-106086209D01*
X135178241Y-105336209D01*
X135178542Y-105330083D01*
X135179442Y-105324016D01*
X135180932Y-105318066D01*
X135182999Y-105312291D01*
X135185621Y-105306747D01*
X135188774Y-105301486D01*
X135192428Y-105296559D01*
X135196547Y-105292015D01*
X135201091Y-105287896D01*
X135206018Y-105284242D01*
X135211279Y-105281089D01*
X135216823Y-105278467D01*
X135222598Y-105276400D01*
X135228548Y-105274910D01*
X135234615Y-105274010D01*
X135240741Y-105273709D01*
X135365741Y-105273709D01*
X135371867Y-105274010D01*
X135371867Y-105274010D01*
G37*
D22*
X135303241Y-105711209D03*
D16*
G36*
X135871867Y-105274010D02*
X135877934Y-105274910D01*
X135883884Y-105276400D01*
X135889659Y-105278467D01*
X135895203Y-105281089D01*
X135900464Y-105284242D01*
X135905391Y-105287896D01*
X135909935Y-105292015D01*
X135914054Y-105296559D01*
X135917708Y-105301486D01*
X135920861Y-105306747D01*
X135923483Y-105312291D01*
X135925550Y-105318066D01*
X135927040Y-105324016D01*
X135927940Y-105330083D01*
X135928241Y-105336209D01*
X135928241Y-106086209D01*
X135927940Y-106092335D01*
X135927040Y-106098402D01*
X135925550Y-106104352D01*
X135923483Y-106110127D01*
X135920861Y-106115671D01*
X135917708Y-106120932D01*
X135914054Y-106125859D01*
X135909935Y-106130403D01*
X135905391Y-106134522D01*
X135900464Y-106138176D01*
X135895203Y-106141329D01*
X135889659Y-106143951D01*
X135883884Y-106146018D01*
X135877934Y-106147508D01*
X135871867Y-106148408D01*
X135865741Y-106148709D01*
X135740741Y-106148709D01*
X135734615Y-106148408D01*
X135728548Y-106147508D01*
X135722598Y-106146018D01*
X135716823Y-106143951D01*
X135711279Y-106141329D01*
X135706018Y-106138176D01*
X135701091Y-106134522D01*
X135696547Y-106130403D01*
X135692428Y-106125859D01*
X135688774Y-106120932D01*
X135685621Y-106115671D01*
X135682999Y-106110127D01*
X135680932Y-106104352D01*
X135679442Y-106098402D01*
X135678542Y-106092335D01*
X135678241Y-106086209D01*
X135678241Y-105336209D01*
X135678542Y-105330083D01*
X135679442Y-105324016D01*
X135680932Y-105318066D01*
X135682999Y-105312291D01*
X135685621Y-105306747D01*
X135688774Y-105301486D01*
X135692428Y-105296559D01*
X135696547Y-105292015D01*
X135701091Y-105287896D01*
X135706018Y-105284242D01*
X135711279Y-105281089D01*
X135716823Y-105278467D01*
X135722598Y-105276400D01*
X135728548Y-105274910D01*
X135734615Y-105274010D01*
X135740741Y-105273709D01*
X135865741Y-105273709D01*
X135871867Y-105274010D01*
X135871867Y-105274010D01*
G37*
D22*
X135803241Y-105711209D03*
D16*
G36*
X136371867Y-105274010D02*
X136377934Y-105274910D01*
X136383884Y-105276400D01*
X136389659Y-105278467D01*
X136395203Y-105281089D01*
X136400464Y-105284242D01*
X136405391Y-105287896D01*
X136409935Y-105292015D01*
X136414054Y-105296559D01*
X136417708Y-105301486D01*
X136420861Y-105306747D01*
X136423483Y-105312291D01*
X136425550Y-105318066D01*
X136427040Y-105324016D01*
X136427940Y-105330083D01*
X136428241Y-105336209D01*
X136428241Y-106086209D01*
X136427940Y-106092335D01*
X136427040Y-106098402D01*
X136425550Y-106104352D01*
X136423483Y-106110127D01*
X136420861Y-106115671D01*
X136417708Y-106120932D01*
X136414054Y-106125859D01*
X136409935Y-106130403D01*
X136405391Y-106134522D01*
X136400464Y-106138176D01*
X136395203Y-106141329D01*
X136389659Y-106143951D01*
X136383884Y-106146018D01*
X136377934Y-106147508D01*
X136371867Y-106148408D01*
X136365741Y-106148709D01*
X136240741Y-106148709D01*
X136234615Y-106148408D01*
X136228548Y-106147508D01*
X136222598Y-106146018D01*
X136216823Y-106143951D01*
X136211279Y-106141329D01*
X136206018Y-106138176D01*
X136201091Y-106134522D01*
X136196547Y-106130403D01*
X136192428Y-106125859D01*
X136188774Y-106120932D01*
X136185621Y-106115671D01*
X136182999Y-106110127D01*
X136180932Y-106104352D01*
X136179442Y-106098402D01*
X136178542Y-106092335D01*
X136178241Y-106086209D01*
X136178241Y-105336209D01*
X136178542Y-105330083D01*
X136179442Y-105324016D01*
X136180932Y-105318066D01*
X136182999Y-105312291D01*
X136185621Y-105306747D01*
X136188774Y-105301486D01*
X136192428Y-105296559D01*
X136196547Y-105292015D01*
X136201091Y-105287896D01*
X136206018Y-105284242D01*
X136211279Y-105281089D01*
X136216823Y-105278467D01*
X136222598Y-105276400D01*
X136228548Y-105274910D01*
X136234615Y-105274010D01*
X136240741Y-105273709D01*
X136365741Y-105273709D01*
X136371867Y-105274010D01*
X136371867Y-105274010D01*
G37*
D22*
X136303241Y-105711209D03*
D16*
G36*
X135100003Y-107209287D02*
X135111652Y-107211015D01*
X135123075Y-107213876D01*
X135134163Y-107217843D01*
X135144809Y-107222878D01*
X135154909Y-107228933D01*
X135164368Y-107235948D01*
X135173094Y-107243856D01*
X135181002Y-107252582D01*
X135188017Y-107262041D01*
X135194072Y-107272141D01*
X135199107Y-107282787D01*
X135203074Y-107293875D01*
X135205935Y-107305298D01*
X135207663Y-107316947D01*
X135208241Y-107328709D01*
X135208241Y-107568709D01*
X135207663Y-107580471D01*
X135205935Y-107592120D01*
X135203074Y-107603543D01*
X135199107Y-107614631D01*
X135194072Y-107625277D01*
X135188017Y-107635377D01*
X135181002Y-107644836D01*
X135173094Y-107653562D01*
X135164368Y-107661470D01*
X135154909Y-107668485D01*
X135144809Y-107674540D01*
X135134163Y-107679575D01*
X135123075Y-107683542D01*
X135111652Y-107686403D01*
X135100003Y-107688131D01*
X135088241Y-107688709D01*
X134518241Y-107688709D01*
X134506479Y-107688131D01*
X134494830Y-107686403D01*
X134483407Y-107683542D01*
X134472319Y-107679575D01*
X134461673Y-107674540D01*
X134451573Y-107668485D01*
X134442114Y-107661470D01*
X134433388Y-107653562D01*
X134425480Y-107644836D01*
X134418465Y-107635377D01*
X134412410Y-107625277D01*
X134407375Y-107614631D01*
X134403408Y-107603543D01*
X134400547Y-107592120D01*
X134398819Y-107580471D01*
X134398241Y-107568709D01*
X134398241Y-107328709D01*
X134398819Y-107316947D01*
X134400547Y-107305298D01*
X134403408Y-107293875D01*
X134407375Y-107282787D01*
X134412410Y-107272141D01*
X134418465Y-107262041D01*
X134425480Y-107252582D01*
X134433388Y-107243856D01*
X134442114Y-107235948D01*
X134451573Y-107228933D01*
X134461673Y-107222878D01*
X134472319Y-107217843D01*
X134483407Y-107213876D01*
X134494830Y-107211015D01*
X134506479Y-107209287D01*
X134518241Y-107208709D01*
X135088241Y-107208709D01*
X135100003Y-107209287D01*
X135100003Y-107209287D01*
G37*
D23*
X134803241Y-107448709D03*
D16*
G36*
X136100003Y-106609287D02*
X136111652Y-106611015D01*
X136123075Y-106613876D01*
X136134163Y-106617843D01*
X136144809Y-106622878D01*
X136154909Y-106628933D01*
X136164368Y-106635948D01*
X136173094Y-106643856D01*
X136181002Y-106652582D01*
X136188017Y-106662041D01*
X136194072Y-106672141D01*
X136199107Y-106682787D01*
X136203074Y-106693875D01*
X136205935Y-106705298D01*
X136207663Y-106716947D01*
X136208241Y-106728709D01*
X136208241Y-106968709D01*
X136207663Y-106980471D01*
X136205935Y-106992120D01*
X136203074Y-107003543D01*
X136199107Y-107014631D01*
X136194072Y-107025277D01*
X136188017Y-107035377D01*
X136181002Y-107044836D01*
X136173094Y-107053562D01*
X136164368Y-107061470D01*
X136154909Y-107068485D01*
X136144809Y-107074540D01*
X136134163Y-107079575D01*
X136123075Y-107083542D01*
X136111652Y-107086403D01*
X136100003Y-107088131D01*
X136088241Y-107088709D01*
X135518241Y-107088709D01*
X135506479Y-107088131D01*
X135494830Y-107086403D01*
X135483407Y-107083542D01*
X135472319Y-107079575D01*
X135461673Y-107074540D01*
X135451573Y-107068485D01*
X135442114Y-107061470D01*
X135433388Y-107053562D01*
X135425480Y-107044836D01*
X135418465Y-107035377D01*
X135412410Y-107025277D01*
X135407375Y-107014631D01*
X135403408Y-107003543D01*
X135400547Y-106992120D01*
X135398819Y-106980471D01*
X135398241Y-106968709D01*
X135398241Y-106728709D01*
X135398819Y-106716947D01*
X135400547Y-106705298D01*
X135403408Y-106693875D01*
X135407375Y-106682787D01*
X135412410Y-106672141D01*
X135418465Y-106662041D01*
X135425480Y-106652582D01*
X135433388Y-106643856D01*
X135442114Y-106635948D01*
X135451573Y-106628933D01*
X135461673Y-106622878D01*
X135472319Y-106617843D01*
X135483407Y-106613876D01*
X135494830Y-106611015D01*
X135506479Y-106609287D01*
X135518241Y-106608709D01*
X136088241Y-106608709D01*
X136100003Y-106609287D01*
X136100003Y-106609287D01*
G37*
D23*
X135803241Y-106848709D03*
D16*
G36*
X134371867Y-105274010D02*
X134377934Y-105274910D01*
X134383884Y-105276400D01*
X134389659Y-105278467D01*
X134395203Y-105281089D01*
X134400464Y-105284242D01*
X134405391Y-105287896D01*
X134409935Y-105292015D01*
X134414054Y-105296559D01*
X134417708Y-105301486D01*
X134420861Y-105306747D01*
X134423483Y-105312291D01*
X134425550Y-105318066D01*
X134427040Y-105324016D01*
X134427940Y-105330083D01*
X134428241Y-105336209D01*
X134428241Y-106086209D01*
X134427940Y-106092335D01*
X134427040Y-106098402D01*
X134425550Y-106104352D01*
X134423483Y-106110127D01*
X134420861Y-106115671D01*
X134417708Y-106120932D01*
X134414054Y-106125859D01*
X134409935Y-106130403D01*
X134405391Y-106134522D01*
X134400464Y-106138176D01*
X134395203Y-106141329D01*
X134389659Y-106143951D01*
X134383884Y-106146018D01*
X134377934Y-106147508D01*
X134371867Y-106148408D01*
X134365741Y-106148709D01*
X134240741Y-106148709D01*
X134234615Y-106148408D01*
X134228548Y-106147508D01*
X134222598Y-106146018D01*
X134216823Y-106143951D01*
X134211279Y-106141329D01*
X134206018Y-106138176D01*
X134201091Y-106134522D01*
X134196547Y-106130403D01*
X134192428Y-106125859D01*
X134188774Y-106120932D01*
X134185621Y-106115671D01*
X134182999Y-106110127D01*
X134180932Y-106104352D01*
X134179442Y-106098402D01*
X134178542Y-106092335D01*
X134178241Y-106086209D01*
X134178241Y-105336209D01*
X134178542Y-105330083D01*
X134179442Y-105324016D01*
X134180932Y-105318066D01*
X134182999Y-105312291D01*
X134185621Y-105306747D01*
X134188774Y-105301486D01*
X134192428Y-105296559D01*
X134196547Y-105292015D01*
X134201091Y-105287896D01*
X134206018Y-105284242D01*
X134211279Y-105281089D01*
X134216823Y-105278467D01*
X134222598Y-105276400D01*
X134228548Y-105274910D01*
X134234615Y-105274010D01*
X134240741Y-105273709D01*
X134365741Y-105273709D01*
X134371867Y-105274010D01*
X134371867Y-105274010D01*
G37*
D22*
X134303241Y-105711209D03*
D16*
G36*
X134871867Y-105274010D02*
X134877934Y-105274910D01*
X134883884Y-105276400D01*
X134889659Y-105278467D01*
X134895203Y-105281089D01*
X134900464Y-105284242D01*
X134905391Y-105287896D01*
X134909935Y-105292015D01*
X134914054Y-105296559D01*
X134917708Y-105301486D01*
X134920861Y-105306747D01*
X134923483Y-105312291D01*
X134925550Y-105318066D01*
X134927040Y-105324016D01*
X134927940Y-105330083D01*
X134928241Y-105336209D01*
X134928241Y-106086209D01*
X134927940Y-106092335D01*
X134927040Y-106098402D01*
X134925550Y-106104352D01*
X134923483Y-106110127D01*
X134920861Y-106115671D01*
X134917708Y-106120932D01*
X134914054Y-106125859D01*
X134909935Y-106130403D01*
X134905391Y-106134522D01*
X134900464Y-106138176D01*
X134895203Y-106141329D01*
X134889659Y-106143951D01*
X134883884Y-106146018D01*
X134877934Y-106147508D01*
X134871867Y-106148408D01*
X134865741Y-106148709D01*
X134740741Y-106148709D01*
X134734615Y-106148408D01*
X134728548Y-106147508D01*
X134722598Y-106146018D01*
X134716823Y-106143951D01*
X134711279Y-106141329D01*
X134706018Y-106138176D01*
X134701091Y-106134522D01*
X134696547Y-106130403D01*
X134692428Y-106125859D01*
X134688774Y-106120932D01*
X134685621Y-106115671D01*
X134682999Y-106110127D01*
X134680932Y-106104352D01*
X134679442Y-106098402D01*
X134678542Y-106092335D01*
X134678241Y-106086209D01*
X134678241Y-105336209D01*
X134678542Y-105330083D01*
X134679442Y-105324016D01*
X134680932Y-105318066D01*
X134682999Y-105312291D01*
X134685621Y-105306747D01*
X134688774Y-105301486D01*
X134692428Y-105296559D01*
X134696547Y-105292015D01*
X134701091Y-105287896D01*
X134706018Y-105284242D01*
X134711279Y-105281089D01*
X134716823Y-105278467D01*
X134722598Y-105276400D01*
X134728548Y-105274910D01*
X134734615Y-105274010D01*
X134740741Y-105273709D01*
X134865741Y-105273709D01*
X134871867Y-105274010D01*
X134871867Y-105274010D01*
G37*
D22*
X134803241Y-105711209D03*
D16*
G36*
X134871867Y-108149010D02*
X134877934Y-108149910D01*
X134883884Y-108151400D01*
X134889659Y-108153467D01*
X134895203Y-108156089D01*
X134900464Y-108159242D01*
X134905391Y-108162896D01*
X134909935Y-108167015D01*
X134914054Y-108171559D01*
X134917708Y-108176486D01*
X134920861Y-108181747D01*
X134923483Y-108187291D01*
X134925550Y-108193066D01*
X134927040Y-108199016D01*
X134927940Y-108205083D01*
X134928241Y-108211209D01*
X134928241Y-108961209D01*
X134927940Y-108967335D01*
X134927040Y-108973402D01*
X134925550Y-108979352D01*
X134923483Y-108985127D01*
X134920861Y-108990671D01*
X134917708Y-108995932D01*
X134914054Y-109000859D01*
X134909935Y-109005403D01*
X134905391Y-109009522D01*
X134900464Y-109013176D01*
X134895203Y-109016329D01*
X134889659Y-109018951D01*
X134883884Y-109021018D01*
X134877934Y-109022508D01*
X134871867Y-109023408D01*
X134865741Y-109023709D01*
X134740741Y-109023709D01*
X134734615Y-109023408D01*
X134728548Y-109022508D01*
X134722598Y-109021018D01*
X134716823Y-109018951D01*
X134711279Y-109016329D01*
X134706018Y-109013176D01*
X134701091Y-109009522D01*
X134696547Y-109005403D01*
X134692428Y-109000859D01*
X134688774Y-108995932D01*
X134685621Y-108990671D01*
X134682999Y-108985127D01*
X134680932Y-108979352D01*
X134679442Y-108973402D01*
X134678542Y-108967335D01*
X134678241Y-108961209D01*
X134678241Y-108211209D01*
X134678542Y-108205083D01*
X134679442Y-108199016D01*
X134680932Y-108193066D01*
X134682999Y-108187291D01*
X134685621Y-108181747D01*
X134688774Y-108176486D01*
X134692428Y-108171559D01*
X134696547Y-108167015D01*
X134701091Y-108162896D01*
X134706018Y-108159242D01*
X134711279Y-108156089D01*
X134716823Y-108153467D01*
X134722598Y-108151400D01*
X134728548Y-108149910D01*
X134734615Y-108149010D01*
X134740741Y-108148709D01*
X134865741Y-108148709D01*
X134871867Y-108149010D01*
X134871867Y-108149010D01*
G37*
D22*
X134803241Y-108586209D03*
D16*
G36*
X134371867Y-108149010D02*
X134377934Y-108149910D01*
X134383884Y-108151400D01*
X134389659Y-108153467D01*
X134395203Y-108156089D01*
X134400464Y-108159242D01*
X134405391Y-108162896D01*
X134409935Y-108167015D01*
X134414054Y-108171559D01*
X134417708Y-108176486D01*
X134420861Y-108181747D01*
X134423483Y-108187291D01*
X134425550Y-108193066D01*
X134427040Y-108199016D01*
X134427940Y-108205083D01*
X134428241Y-108211209D01*
X134428241Y-108961209D01*
X134427940Y-108967335D01*
X134427040Y-108973402D01*
X134425550Y-108979352D01*
X134423483Y-108985127D01*
X134420861Y-108990671D01*
X134417708Y-108995932D01*
X134414054Y-109000859D01*
X134409935Y-109005403D01*
X134405391Y-109009522D01*
X134400464Y-109013176D01*
X134395203Y-109016329D01*
X134389659Y-109018951D01*
X134383884Y-109021018D01*
X134377934Y-109022508D01*
X134371867Y-109023408D01*
X134365741Y-109023709D01*
X134240741Y-109023709D01*
X134234615Y-109023408D01*
X134228548Y-109022508D01*
X134222598Y-109021018D01*
X134216823Y-109018951D01*
X134211279Y-109016329D01*
X134206018Y-109013176D01*
X134201091Y-109009522D01*
X134196547Y-109005403D01*
X134192428Y-109000859D01*
X134188774Y-108995932D01*
X134185621Y-108990671D01*
X134182999Y-108985127D01*
X134180932Y-108979352D01*
X134179442Y-108973402D01*
X134178542Y-108967335D01*
X134178241Y-108961209D01*
X134178241Y-108211209D01*
X134178542Y-108205083D01*
X134179442Y-108199016D01*
X134180932Y-108193066D01*
X134182999Y-108187291D01*
X134185621Y-108181747D01*
X134188774Y-108176486D01*
X134192428Y-108171559D01*
X134196547Y-108167015D01*
X134201091Y-108162896D01*
X134206018Y-108159242D01*
X134211279Y-108156089D01*
X134216823Y-108153467D01*
X134222598Y-108151400D01*
X134228548Y-108149910D01*
X134234615Y-108149010D01*
X134240741Y-108148709D01*
X134365741Y-108148709D01*
X134371867Y-108149010D01*
X134371867Y-108149010D01*
G37*
D22*
X134303241Y-108586209D03*
D16*
G36*
X136371867Y-108149010D02*
X136377934Y-108149910D01*
X136383884Y-108151400D01*
X136389659Y-108153467D01*
X136395203Y-108156089D01*
X136400464Y-108159242D01*
X136405391Y-108162896D01*
X136409935Y-108167015D01*
X136414054Y-108171559D01*
X136417708Y-108176486D01*
X136420861Y-108181747D01*
X136423483Y-108187291D01*
X136425550Y-108193066D01*
X136427040Y-108199016D01*
X136427940Y-108205083D01*
X136428241Y-108211209D01*
X136428241Y-108961209D01*
X136427940Y-108967335D01*
X136427040Y-108973402D01*
X136425550Y-108979352D01*
X136423483Y-108985127D01*
X136420861Y-108990671D01*
X136417708Y-108995932D01*
X136414054Y-109000859D01*
X136409935Y-109005403D01*
X136405391Y-109009522D01*
X136400464Y-109013176D01*
X136395203Y-109016329D01*
X136389659Y-109018951D01*
X136383884Y-109021018D01*
X136377934Y-109022508D01*
X136371867Y-109023408D01*
X136365741Y-109023709D01*
X136240741Y-109023709D01*
X136234615Y-109023408D01*
X136228548Y-109022508D01*
X136222598Y-109021018D01*
X136216823Y-109018951D01*
X136211279Y-109016329D01*
X136206018Y-109013176D01*
X136201091Y-109009522D01*
X136196547Y-109005403D01*
X136192428Y-109000859D01*
X136188774Y-108995932D01*
X136185621Y-108990671D01*
X136182999Y-108985127D01*
X136180932Y-108979352D01*
X136179442Y-108973402D01*
X136178542Y-108967335D01*
X136178241Y-108961209D01*
X136178241Y-108211209D01*
X136178542Y-108205083D01*
X136179442Y-108199016D01*
X136180932Y-108193066D01*
X136182999Y-108187291D01*
X136185621Y-108181747D01*
X136188774Y-108176486D01*
X136192428Y-108171559D01*
X136196547Y-108167015D01*
X136201091Y-108162896D01*
X136206018Y-108159242D01*
X136211279Y-108156089D01*
X136216823Y-108153467D01*
X136222598Y-108151400D01*
X136228548Y-108149910D01*
X136234615Y-108149010D01*
X136240741Y-108148709D01*
X136365741Y-108148709D01*
X136371867Y-108149010D01*
X136371867Y-108149010D01*
G37*
D22*
X136303241Y-108586209D03*
D16*
G36*
X135871867Y-108149010D02*
X135877934Y-108149910D01*
X135883884Y-108151400D01*
X135889659Y-108153467D01*
X135895203Y-108156089D01*
X135900464Y-108159242D01*
X135905391Y-108162896D01*
X135909935Y-108167015D01*
X135914054Y-108171559D01*
X135917708Y-108176486D01*
X135920861Y-108181747D01*
X135923483Y-108187291D01*
X135925550Y-108193066D01*
X135927040Y-108199016D01*
X135927940Y-108205083D01*
X135928241Y-108211209D01*
X135928241Y-108961209D01*
X135927940Y-108967335D01*
X135927040Y-108973402D01*
X135925550Y-108979352D01*
X135923483Y-108985127D01*
X135920861Y-108990671D01*
X135917708Y-108995932D01*
X135914054Y-109000859D01*
X135909935Y-109005403D01*
X135905391Y-109009522D01*
X135900464Y-109013176D01*
X135895203Y-109016329D01*
X135889659Y-109018951D01*
X135883884Y-109021018D01*
X135877934Y-109022508D01*
X135871867Y-109023408D01*
X135865741Y-109023709D01*
X135740741Y-109023709D01*
X135734615Y-109023408D01*
X135728548Y-109022508D01*
X135722598Y-109021018D01*
X135716823Y-109018951D01*
X135711279Y-109016329D01*
X135706018Y-109013176D01*
X135701091Y-109009522D01*
X135696547Y-109005403D01*
X135692428Y-109000859D01*
X135688774Y-108995932D01*
X135685621Y-108990671D01*
X135682999Y-108985127D01*
X135680932Y-108979352D01*
X135679442Y-108973402D01*
X135678542Y-108967335D01*
X135678241Y-108961209D01*
X135678241Y-108211209D01*
X135678542Y-108205083D01*
X135679442Y-108199016D01*
X135680932Y-108193066D01*
X135682999Y-108187291D01*
X135685621Y-108181747D01*
X135688774Y-108176486D01*
X135692428Y-108171559D01*
X135696547Y-108167015D01*
X135701091Y-108162896D01*
X135706018Y-108159242D01*
X135711279Y-108156089D01*
X135716823Y-108153467D01*
X135722598Y-108151400D01*
X135728548Y-108149910D01*
X135734615Y-108149010D01*
X135740741Y-108148709D01*
X135865741Y-108148709D01*
X135871867Y-108149010D01*
X135871867Y-108149010D01*
G37*
D22*
X135803241Y-108586209D03*
D16*
G36*
X135371867Y-108149010D02*
X135377934Y-108149910D01*
X135383884Y-108151400D01*
X135389659Y-108153467D01*
X135395203Y-108156089D01*
X135400464Y-108159242D01*
X135405391Y-108162896D01*
X135409935Y-108167015D01*
X135414054Y-108171559D01*
X135417708Y-108176486D01*
X135420861Y-108181747D01*
X135423483Y-108187291D01*
X135425550Y-108193066D01*
X135427040Y-108199016D01*
X135427940Y-108205083D01*
X135428241Y-108211209D01*
X135428241Y-108961209D01*
X135427940Y-108967335D01*
X135427040Y-108973402D01*
X135425550Y-108979352D01*
X135423483Y-108985127D01*
X135420861Y-108990671D01*
X135417708Y-108995932D01*
X135414054Y-109000859D01*
X135409935Y-109005403D01*
X135405391Y-109009522D01*
X135400464Y-109013176D01*
X135395203Y-109016329D01*
X135389659Y-109018951D01*
X135383884Y-109021018D01*
X135377934Y-109022508D01*
X135371867Y-109023408D01*
X135365741Y-109023709D01*
X135240741Y-109023709D01*
X135234615Y-109023408D01*
X135228548Y-109022508D01*
X135222598Y-109021018D01*
X135216823Y-109018951D01*
X135211279Y-109016329D01*
X135206018Y-109013176D01*
X135201091Y-109009522D01*
X135196547Y-109005403D01*
X135192428Y-109000859D01*
X135188774Y-108995932D01*
X135185621Y-108990671D01*
X135182999Y-108985127D01*
X135180932Y-108979352D01*
X135179442Y-108973402D01*
X135178542Y-108967335D01*
X135178241Y-108961209D01*
X135178241Y-108211209D01*
X135178542Y-108205083D01*
X135179442Y-108199016D01*
X135180932Y-108193066D01*
X135182999Y-108187291D01*
X135185621Y-108181747D01*
X135188774Y-108176486D01*
X135192428Y-108171559D01*
X135196547Y-108167015D01*
X135201091Y-108162896D01*
X135206018Y-108159242D01*
X135211279Y-108156089D01*
X135216823Y-108153467D01*
X135222598Y-108151400D01*
X135228548Y-108149910D01*
X135234615Y-108149010D01*
X135240741Y-108148709D01*
X135365741Y-108148709D01*
X135371867Y-108149010D01*
X135371867Y-108149010D01*
G37*
D22*
X135303241Y-108586209D03*
D16*
G36*
X135100003Y-106609287D02*
X135111652Y-106611015D01*
X135123075Y-106613876D01*
X135134163Y-106617843D01*
X135144809Y-106622878D01*
X135154909Y-106628933D01*
X135164368Y-106635948D01*
X135173094Y-106643856D01*
X135181002Y-106652582D01*
X135188017Y-106662041D01*
X135194072Y-106672141D01*
X135199107Y-106682787D01*
X135203074Y-106693875D01*
X135205935Y-106705298D01*
X135207663Y-106716947D01*
X135208241Y-106728709D01*
X135208241Y-106968709D01*
X135207663Y-106980471D01*
X135205935Y-106992120D01*
X135203074Y-107003543D01*
X135199107Y-107014631D01*
X135194072Y-107025277D01*
X135188017Y-107035377D01*
X135181002Y-107044836D01*
X135173094Y-107053562D01*
X135164368Y-107061470D01*
X135154909Y-107068485D01*
X135144809Y-107074540D01*
X135134163Y-107079575D01*
X135123075Y-107083542D01*
X135111652Y-107086403D01*
X135100003Y-107088131D01*
X135088241Y-107088709D01*
X134518241Y-107088709D01*
X134506479Y-107088131D01*
X134494830Y-107086403D01*
X134483407Y-107083542D01*
X134472319Y-107079575D01*
X134461673Y-107074540D01*
X134451573Y-107068485D01*
X134442114Y-107061470D01*
X134433388Y-107053562D01*
X134425480Y-107044836D01*
X134418465Y-107035377D01*
X134412410Y-107025277D01*
X134407375Y-107014631D01*
X134403408Y-107003543D01*
X134400547Y-106992120D01*
X134398819Y-106980471D01*
X134398241Y-106968709D01*
X134398241Y-106728709D01*
X134398819Y-106716947D01*
X134400547Y-106705298D01*
X134403408Y-106693875D01*
X134407375Y-106682787D01*
X134412410Y-106672141D01*
X134418465Y-106662041D01*
X134425480Y-106652582D01*
X134433388Y-106643856D01*
X134442114Y-106635948D01*
X134451573Y-106628933D01*
X134461673Y-106622878D01*
X134472319Y-106617843D01*
X134483407Y-106613876D01*
X134494830Y-106611015D01*
X134506479Y-106609287D01*
X134518241Y-106608709D01*
X135088241Y-106608709D01*
X135100003Y-106609287D01*
X135100003Y-106609287D01*
G37*
D23*
X134803241Y-106848709D03*
D16*
G36*
X136100003Y-107209287D02*
X136111652Y-107211015D01*
X136123075Y-107213876D01*
X136134163Y-107217843D01*
X136144809Y-107222878D01*
X136154909Y-107228933D01*
X136164368Y-107235948D01*
X136173094Y-107243856D01*
X136181002Y-107252582D01*
X136188017Y-107262041D01*
X136194072Y-107272141D01*
X136199107Y-107282787D01*
X136203074Y-107293875D01*
X136205935Y-107305298D01*
X136207663Y-107316947D01*
X136208241Y-107328709D01*
X136208241Y-107568709D01*
X136207663Y-107580471D01*
X136205935Y-107592120D01*
X136203074Y-107603543D01*
X136199107Y-107614631D01*
X136194072Y-107625277D01*
X136188017Y-107635377D01*
X136181002Y-107644836D01*
X136173094Y-107653562D01*
X136164368Y-107661470D01*
X136154909Y-107668485D01*
X136144809Y-107674540D01*
X136134163Y-107679575D01*
X136123075Y-107683542D01*
X136111652Y-107686403D01*
X136100003Y-107688131D01*
X136088241Y-107688709D01*
X135518241Y-107688709D01*
X135506479Y-107688131D01*
X135494830Y-107686403D01*
X135483407Y-107683542D01*
X135472319Y-107679575D01*
X135461673Y-107674540D01*
X135451573Y-107668485D01*
X135442114Y-107661470D01*
X135433388Y-107653562D01*
X135425480Y-107644836D01*
X135418465Y-107635377D01*
X135412410Y-107625277D01*
X135407375Y-107614631D01*
X135403408Y-107603543D01*
X135400547Y-107592120D01*
X135398819Y-107580471D01*
X135398241Y-107568709D01*
X135398241Y-107328709D01*
X135398819Y-107316947D01*
X135400547Y-107305298D01*
X135403408Y-107293875D01*
X135407375Y-107282787D01*
X135412410Y-107272141D01*
X135418465Y-107262041D01*
X135425480Y-107252582D01*
X135433388Y-107243856D01*
X135442114Y-107235948D01*
X135451573Y-107228933D01*
X135461673Y-107222878D01*
X135472319Y-107217843D01*
X135483407Y-107213876D01*
X135494830Y-107211015D01*
X135506479Y-107209287D01*
X135518241Y-107208709D01*
X136088241Y-107208709D01*
X136100003Y-107209287D01*
X136100003Y-107209287D01*
G37*
D23*
X135803241Y-107448709D03*
G04 #@! TD*
D16*
G04 #@! TO.C,C1*
G36*
X185848199Y-104359419D02*
X185862517Y-104361543D01*
X185876558Y-104365060D01*
X185890187Y-104369937D01*
X185903272Y-104376126D01*
X185915688Y-104383567D01*
X185927314Y-104392190D01*
X185938039Y-104401911D01*
X185947760Y-104412636D01*
X185956383Y-104424262D01*
X185963824Y-104436678D01*
X185970013Y-104449763D01*
X185974890Y-104463392D01*
X185978407Y-104477433D01*
X185980531Y-104491751D01*
X185981241Y-104506209D01*
X185981241Y-104851209D01*
X185980531Y-104865667D01*
X185978407Y-104879985D01*
X185974890Y-104894026D01*
X185970013Y-104907655D01*
X185963824Y-104920740D01*
X185956383Y-104933156D01*
X185947760Y-104944782D01*
X185938039Y-104955507D01*
X185927314Y-104965228D01*
X185915688Y-104973851D01*
X185903272Y-104981292D01*
X185890187Y-104987481D01*
X185876558Y-104992358D01*
X185862517Y-104995875D01*
X185848199Y-104997999D01*
X185833741Y-104998709D01*
X185538741Y-104998709D01*
X185524283Y-104997999D01*
X185509965Y-104995875D01*
X185495924Y-104992358D01*
X185482295Y-104987481D01*
X185469210Y-104981292D01*
X185456794Y-104973851D01*
X185445168Y-104965228D01*
X185434443Y-104955507D01*
X185424722Y-104944782D01*
X185416099Y-104933156D01*
X185408658Y-104920740D01*
X185402469Y-104907655D01*
X185397592Y-104894026D01*
X185394075Y-104879985D01*
X185391951Y-104865667D01*
X185391241Y-104851209D01*
X185391241Y-104506209D01*
X185391951Y-104491751D01*
X185394075Y-104477433D01*
X185397592Y-104463392D01*
X185402469Y-104449763D01*
X185408658Y-104436678D01*
X185416099Y-104424262D01*
X185424722Y-104412636D01*
X185434443Y-104401911D01*
X185445168Y-104392190D01*
X185456794Y-104383567D01*
X185469210Y-104376126D01*
X185482295Y-104369937D01*
X185495924Y-104365060D01*
X185509965Y-104361543D01*
X185524283Y-104359419D01*
X185538741Y-104358709D01*
X185833741Y-104358709D01*
X185848199Y-104359419D01*
X185848199Y-104359419D01*
G37*
D17*
X185686241Y-104678709D03*
D16*
G36*
X186818199Y-104359419D02*
X186832517Y-104361543D01*
X186846558Y-104365060D01*
X186860187Y-104369937D01*
X186873272Y-104376126D01*
X186885688Y-104383567D01*
X186897314Y-104392190D01*
X186908039Y-104401911D01*
X186917760Y-104412636D01*
X186926383Y-104424262D01*
X186933824Y-104436678D01*
X186940013Y-104449763D01*
X186944890Y-104463392D01*
X186948407Y-104477433D01*
X186950531Y-104491751D01*
X186951241Y-104506209D01*
X186951241Y-104851209D01*
X186950531Y-104865667D01*
X186948407Y-104879985D01*
X186944890Y-104894026D01*
X186940013Y-104907655D01*
X186933824Y-104920740D01*
X186926383Y-104933156D01*
X186917760Y-104944782D01*
X186908039Y-104955507D01*
X186897314Y-104965228D01*
X186885688Y-104973851D01*
X186873272Y-104981292D01*
X186860187Y-104987481D01*
X186846558Y-104992358D01*
X186832517Y-104995875D01*
X186818199Y-104997999D01*
X186803741Y-104998709D01*
X186508741Y-104998709D01*
X186494283Y-104997999D01*
X186479965Y-104995875D01*
X186465924Y-104992358D01*
X186452295Y-104987481D01*
X186439210Y-104981292D01*
X186426794Y-104973851D01*
X186415168Y-104965228D01*
X186404443Y-104955507D01*
X186394722Y-104944782D01*
X186386099Y-104933156D01*
X186378658Y-104920740D01*
X186372469Y-104907655D01*
X186367592Y-104894026D01*
X186364075Y-104879985D01*
X186361951Y-104865667D01*
X186361241Y-104851209D01*
X186361241Y-104506209D01*
X186361951Y-104491751D01*
X186364075Y-104477433D01*
X186367592Y-104463392D01*
X186372469Y-104449763D01*
X186378658Y-104436678D01*
X186386099Y-104424262D01*
X186394722Y-104412636D01*
X186404443Y-104401911D01*
X186415168Y-104392190D01*
X186426794Y-104383567D01*
X186439210Y-104376126D01*
X186452295Y-104369937D01*
X186465924Y-104365060D01*
X186479965Y-104361543D01*
X186494283Y-104359419D01*
X186508741Y-104358709D01*
X186803741Y-104358709D01*
X186818199Y-104359419D01*
X186818199Y-104359419D01*
G37*
D17*
X186656241Y-104678709D03*
G04 #@! TD*
D16*
G04 #@! TO.C,R12*
G36*
X190258199Y-115299419D02*
X190272517Y-115301543D01*
X190286558Y-115305060D01*
X190300187Y-115309937D01*
X190313272Y-115316126D01*
X190325688Y-115323567D01*
X190337314Y-115332190D01*
X190348039Y-115341911D01*
X190357760Y-115352636D01*
X190366383Y-115364262D01*
X190373824Y-115376678D01*
X190380013Y-115389763D01*
X190384890Y-115403392D01*
X190388407Y-115417433D01*
X190390531Y-115431751D01*
X190391241Y-115446209D01*
X190391241Y-115741209D01*
X190390531Y-115755667D01*
X190388407Y-115769985D01*
X190384890Y-115784026D01*
X190380013Y-115797655D01*
X190373824Y-115810740D01*
X190366383Y-115823156D01*
X190357760Y-115834782D01*
X190348039Y-115845507D01*
X190337314Y-115855228D01*
X190325688Y-115863851D01*
X190313272Y-115871292D01*
X190300187Y-115877481D01*
X190286558Y-115882358D01*
X190272517Y-115885875D01*
X190258199Y-115887999D01*
X190243741Y-115888709D01*
X189898741Y-115888709D01*
X189884283Y-115887999D01*
X189869965Y-115885875D01*
X189855924Y-115882358D01*
X189842295Y-115877481D01*
X189829210Y-115871292D01*
X189816794Y-115863851D01*
X189805168Y-115855228D01*
X189794443Y-115845507D01*
X189784722Y-115834782D01*
X189776099Y-115823156D01*
X189768658Y-115810740D01*
X189762469Y-115797655D01*
X189757592Y-115784026D01*
X189754075Y-115769985D01*
X189751951Y-115755667D01*
X189751241Y-115741209D01*
X189751241Y-115446209D01*
X189751951Y-115431751D01*
X189754075Y-115417433D01*
X189757592Y-115403392D01*
X189762469Y-115389763D01*
X189768658Y-115376678D01*
X189776099Y-115364262D01*
X189784722Y-115352636D01*
X189794443Y-115341911D01*
X189805168Y-115332190D01*
X189816794Y-115323567D01*
X189829210Y-115316126D01*
X189842295Y-115309937D01*
X189855924Y-115305060D01*
X189869965Y-115301543D01*
X189884283Y-115299419D01*
X189898741Y-115298709D01*
X190243741Y-115298709D01*
X190258199Y-115299419D01*
X190258199Y-115299419D01*
G37*
D17*
X190071241Y-115593709D03*
D16*
G36*
X190258199Y-116269419D02*
X190272517Y-116271543D01*
X190286558Y-116275060D01*
X190300187Y-116279937D01*
X190313272Y-116286126D01*
X190325688Y-116293567D01*
X190337314Y-116302190D01*
X190348039Y-116311911D01*
X190357760Y-116322636D01*
X190366383Y-116334262D01*
X190373824Y-116346678D01*
X190380013Y-116359763D01*
X190384890Y-116373392D01*
X190388407Y-116387433D01*
X190390531Y-116401751D01*
X190391241Y-116416209D01*
X190391241Y-116711209D01*
X190390531Y-116725667D01*
X190388407Y-116739985D01*
X190384890Y-116754026D01*
X190380013Y-116767655D01*
X190373824Y-116780740D01*
X190366383Y-116793156D01*
X190357760Y-116804782D01*
X190348039Y-116815507D01*
X190337314Y-116825228D01*
X190325688Y-116833851D01*
X190313272Y-116841292D01*
X190300187Y-116847481D01*
X190286558Y-116852358D01*
X190272517Y-116855875D01*
X190258199Y-116857999D01*
X190243741Y-116858709D01*
X189898741Y-116858709D01*
X189884283Y-116857999D01*
X189869965Y-116855875D01*
X189855924Y-116852358D01*
X189842295Y-116847481D01*
X189829210Y-116841292D01*
X189816794Y-116833851D01*
X189805168Y-116825228D01*
X189794443Y-116815507D01*
X189784722Y-116804782D01*
X189776099Y-116793156D01*
X189768658Y-116780740D01*
X189762469Y-116767655D01*
X189757592Y-116754026D01*
X189754075Y-116739985D01*
X189751951Y-116725667D01*
X189751241Y-116711209D01*
X189751241Y-116416209D01*
X189751951Y-116401751D01*
X189754075Y-116387433D01*
X189757592Y-116373392D01*
X189762469Y-116359763D01*
X189768658Y-116346678D01*
X189776099Y-116334262D01*
X189784722Y-116322636D01*
X189794443Y-116311911D01*
X189805168Y-116302190D01*
X189816794Y-116293567D01*
X189829210Y-116286126D01*
X189842295Y-116279937D01*
X189855924Y-116275060D01*
X189869965Y-116271543D01*
X189884283Y-116269419D01*
X189898741Y-116268709D01*
X190243741Y-116268709D01*
X190258199Y-116269419D01*
X190258199Y-116269419D01*
G37*
D17*
X190071241Y-116563709D03*
G04 #@! TD*
D10*
G04 #@! TO.C,R7*
X194324575Y-115182012D03*
X194324575Y-116582012D03*
G04 #@! TD*
G04 #@! TO.C,R6*
X173661031Y-111378709D03*
X173661031Y-112778709D03*
G04 #@! TD*
G04 #@! TO.C,R5*
X176197769Y-111378709D03*
X176197769Y-112778709D03*
G04 #@! TD*
G04 #@! TO.C,R4*
X181271241Y-111378709D03*
X181271241Y-112778709D03*
G04 #@! TD*
G04 #@! TO.C,R3*
X178734505Y-111378709D03*
X178734505Y-112778709D03*
G04 #@! TD*
G04 #@! TO.C,R2*
X196571241Y-115182012D03*
X196571241Y-116582012D03*
G04 #@! TD*
G04 #@! TO.C,R1*
X192077909Y-115182012D03*
X192077909Y-116582012D03*
G04 #@! TD*
D24*
G04 #@! TO.C,J2*
X190971241Y-98603709D03*
X191621241Y-110453709D03*
D25*
X188571241Y-99053709D03*
D26*
X190051241Y-110153709D03*
D27*
X199231241Y-98903709D03*
D28*
X199231241Y-110253709D03*
D29*
X199355459Y-109053375D03*
X199355459Y-107953375D03*
X199355459Y-106853375D03*
X199355459Y-105753375D03*
X199355459Y-104653375D03*
X199355459Y-103553375D03*
X199355459Y-102453375D03*
X199355459Y-101353375D03*
G04 #@! TD*
D16*
G04 #@! TO.C,C2*
G36*
X119868458Y-92506210D02*
X119882776Y-92508334D01*
X119896817Y-92511851D01*
X119910446Y-92516728D01*
X119923531Y-92522917D01*
X119935947Y-92530358D01*
X119947573Y-92538981D01*
X119958298Y-92548702D01*
X119968019Y-92559427D01*
X119976642Y-92571053D01*
X119984083Y-92583469D01*
X119990272Y-92596554D01*
X119995149Y-92610183D01*
X119998666Y-92624224D01*
X120000790Y-92638542D01*
X120001500Y-92653000D01*
X120001500Y-92998000D01*
X120000790Y-93012458D01*
X119998666Y-93026776D01*
X119995149Y-93040817D01*
X119990272Y-93054446D01*
X119984083Y-93067531D01*
X119976642Y-93079947D01*
X119968019Y-93091573D01*
X119958298Y-93102298D01*
X119947573Y-93112019D01*
X119935947Y-93120642D01*
X119923531Y-93128083D01*
X119910446Y-93134272D01*
X119896817Y-93139149D01*
X119882776Y-93142666D01*
X119868458Y-93144790D01*
X119854000Y-93145500D01*
X119559000Y-93145500D01*
X119544542Y-93144790D01*
X119530224Y-93142666D01*
X119516183Y-93139149D01*
X119502554Y-93134272D01*
X119489469Y-93128083D01*
X119477053Y-93120642D01*
X119465427Y-93112019D01*
X119454702Y-93102298D01*
X119444981Y-93091573D01*
X119436358Y-93079947D01*
X119428917Y-93067531D01*
X119422728Y-93054446D01*
X119417851Y-93040817D01*
X119414334Y-93026776D01*
X119412210Y-93012458D01*
X119411500Y-92998000D01*
X119411500Y-92653000D01*
X119412210Y-92638542D01*
X119414334Y-92624224D01*
X119417851Y-92610183D01*
X119422728Y-92596554D01*
X119428917Y-92583469D01*
X119436358Y-92571053D01*
X119444981Y-92559427D01*
X119454702Y-92548702D01*
X119465427Y-92538981D01*
X119477053Y-92530358D01*
X119489469Y-92522917D01*
X119502554Y-92516728D01*
X119516183Y-92511851D01*
X119530224Y-92508334D01*
X119544542Y-92506210D01*
X119559000Y-92505500D01*
X119854000Y-92505500D01*
X119868458Y-92506210D01*
X119868458Y-92506210D01*
G37*
D17*
X119706500Y-92825500D03*
D16*
G36*
X118898458Y-92506210D02*
X118912776Y-92508334D01*
X118926817Y-92511851D01*
X118940446Y-92516728D01*
X118953531Y-92522917D01*
X118965947Y-92530358D01*
X118977573Y-92538981D01*
X118988298Y-92548702D01*
X118998019Y-92559427D01*
X119006642Y-92571053D01*
X119014083Y-92583469D01*
X119020272Y-92596554D01*
X119025149Y-92610183D01*
X119028666Y-92624224D01*
X119030790Y-92638542D01*
X119031500Y-92653000D01*
X119031500Y-92998000D01*
X119030790Y-93012458D01*
X119028666Y-93026776D01*
X119025149Y-93040817D01*
X119020272Y-93054446D01*
X119014083Y-93067531D01*
X119006642Y-93079947D01*
X118998019Y-93091573D01*
X118988298Y-93102298D01*
X118977573Y-93112019D01*
X118965947Y-93120642D01*
X118953531Y-93128083D01*
X118940446Y-93134272D01*
X118926817Y-93139149D01*
X118912776Y-93142666D01*
X118898458Y-93144790D01*
X118884000Y-93145500D01*
X118589000Y-93145500D01*
X118574542Y-93144790D01*
X118560224Y-93142666D01*
X118546183Y-93139149D01*
X118532554Y-93134272D01*
X118519469Y-93128083D01*
X118507053Y-93120642D01*
X118495427Y-93112019D01*
X118484702Y-93102298D01*
X118474981Y-93091573D01*
X118466358Y-93079947D01*
X118458917Y-93067531D01*
X118452728Y-93054446D01*
X118447851Y-93040817D01*
X118444334Y-93026776D01*
X118442210Y-93012458D01*
X118441500Y-92998000D01*
X118441500Y-92653000D01*
X118442210Y-92638542D01*
X118444334Y-92624224D01*
X118447851Y-92610183D01*
X118452728Y-92596554D01*
X118458917Y-92583469D01*
X118466358Y-92571053D01*
X118474981Y-92559427D01*
X118484702Y-92548702D01*
X118495427Y-92538981D01*
X118507053Y-92530358D01*
X118519469Y-92522917D01*
X118532554Y-92516728D01*
X118546183Y-92511851D01*
X118560224Y-92508334D01*
X118574542Y-92506210D01*
X118589000Y-92505500D01*
X118884000Y-92505500D01*
X118898458Y-92506210D01*
X118898458Y-92506210D01*
G37*
D17*
X118736500Y-92825500D03*
G04 #@! TD*
D16*
G04 #@! TO.C,C3*
G36*
X119868458Y-93739924D02*
X119882776Y-93742048D01*
X119896817Y-93745565D01*
X119910446Y-93750442D01*
X119923531Y-93756631D01*
X119935947Y-93764072D01*
X119947573Y-93772695D01*
X119958298Y-93782416D01*
X119968019Y-93793141D01*
X119976642Y-93804767D01*
X119984083Y-93817183D01*
X119990272Y-93830268D01*
X119995149Y-93843897D01*
X119998666Y-93857938D01*
X120000790Y-93872256D01*
X120001500Y-93886714D01*
X120001500Y-94231714D01*
X120000790Y-94246172D01*
X119998666Y-94260490D01*
X119995149Y-94274531D01*
X119990272Y-94288160D01*
X119984083Y-94301245D01*
X119976642Y-94313661D01*
X119968019Y-94325287D01*
X119958298Y-94336012D01*
X119947573Y-94345733D01*
X119935947Y-94354356D01*
X119923531Y-94361797D01*
X119910446Y-94367986D01*
X119896817Y-94372863D01*
X119882776Y-94376380D01*
X119868458Y-94378504D01*
X119854000Y-94379214D01*
X119559000Y-94379214D01*
X119544542Y-94378504D01*
X119530224Y-94376380D01*
X119516183Y-94372863D01*
X119502554Y-94367986D01*
X119489469Y-94361797D01*
X119477053Y-94354356D01*
X119465427Y-94345733D01*
X119454702Y-94336012D01*
X119444981Y-94325287D01*
X119436358Y-94313661D01*
X119428917Y-94301245D01*
X119422728Y-94288160D01*
X119417851Y-94274531D01*
X119414334Y-94260490D01*
X119412210Y-94246172D01*
X119411500Y-94231714D01*
X119411500Y-93886714D01*
X119412210Y-93872256D01*
X119414334Y-93857938D01*
X119417851Y-93843897D01*
X119422728Y-93830268D01*
X119428917Y-93817183D01*
X119436358Y-93804767D01*
X119444981Y-93793141D01*
X119454702Y-93782416D01*
X119465427Y-93772695D01*
X119477053Y-93764072D01*
X119489469Y-93756631D01*
X119502554Y-93750442D01*
X119516183Y-93745565D01*
X119530224Y-93742048D01*
X119544542Y-93739924D01*
X119559000Y-93739214D01*
X119854000Y-93739214D01*
X119868458Y-93739924D01*
X119868458Y-93739924D01*
G37*
D17*
X119706500Y-94059214D03*
D16*
G36*
X118898458Y-93739924D02*
X118912776Y-93742048D01*
X118926817Y-93745565D01*
X118940446Y-93750442D01*
X118953531Y-93756631D01*
X118965947Y-93764072D01*
X118977573Y-93772695D01*
X118988298Y-93782416D01*
X118998019Y-93793141D01*
X119006642Y-93804767D01*
X119014083Y-93817183D01*
X119020272Y-93830268D01*
X119025149Y-93843897D01*
X119028666Y-93857938D01*
X119030790Y-93872256D01*
X119031500Y-93886714D01*
X119031500Y-94231714D01*
X119030790Y-94246172D01*
X119028666Y-94260490D01*
X119025149Y-94274531D01*
X119020272Y-94288160D01*
X119014083Y-94301245D01*
X119006642Y-94313661D01*
X118998019Y-94325287D01*
X118988298Y-94336012D01*
X118977573Y-94345733D01*
X118965947Y-94354356D01*
X118953531Y-94361797D01*
X118940446Y-94367986D01*
X118926817Y-94372863D01*
X118912776Y-94376380D01*
X118898458Y-94378504D01*
X118884000Y-94379214D01*
X118589000Y-94379214D01*
X118574542Y-94378504D01*
X118560224Y-94376380D01*
X118546183Y-94372863D01*
X118532554Y-94367986D01*
X118519469Y-94361797D01*
X118507053Y-94354356D01*
X118495427Y-94345733D01*
X118484702Y-94336012D01*
X118474981Y-94325287D01*
X118466358Y-94313661D01*
X118458917Y-94301245D01*
X118452728Y-94288160D01*
X118447851Y-94274531D01*
X118444334Y-94260490D01*
X118442210Y-94246172D01*
X118441500Y-94231714D01*
X118441500Y-93886714D01*
X118442210Y-93872256D01*
X118444334Y-93857938D01*
X118447851Y-93843897D01*
X118452728Y-93830268D01*
X118458917Y-93817183D01*
X118466358Y-93804767D01*
X118474981Y-93793141D01*
X118484702Y-93782416D01*
X118495427Y-93772695D01*
X118507053Y-93764072D01*
X118519469Y-93756631D01*
X118532554Y-93750442D01*
X118546183Y-93745565D01*
X118560224Y-93742048D01*
X118574542Y-93739924D01*
X118589000Y-93739214D01*
X118884000Y-93739214D01*
X118898458Y-93739924D01*
X118898458Y-93739924D01*
G37*
D17*
X118736500Y-94059214D03*
G04 #@! TD*
D16*
G04 #@! TO.C,C4*
G36*
X119868458Y-99908494D02*
X119882776Y-99910618D01*
X119896817Y-99914135D01*
X119910446Y-99919012D01*
X119923531Y-99925201D01*
X119935947Y-99932642D01*
X119947573Y-99941265D01*
X119958298Y-99950986D01*
X119968019Y-99961711D01*
X119976642Y-99973337D01*
X119984083Y-99985753D01*
X119990272Y-99998838D01*
X119995149Y-100012467D01*
X119998666Y-100026508D01*
X120000790Y-100040826D01*
X120001500Y-100055284D01*
X120001500Y-100400284D01*
X120000790Y-100414742D01*
X119998666Y-100429060D01*
X119995149Y-100443101D01*
X119990272Y-100456730D01*
X119984083Y-100469815D01*
X119976642Y-100482231D01*
X119968019Y-100493857D01*
X119958298Y-100504582D01*
X119947573Y-100514303D01*
X119935947Y-100522926D01*
X119923531Y-100530367D01*
X119910446Y-100536556D01*
X119896817Y-100541433D01*
X119882776Y-100544950D01*
X119868458Y-100547074D01*
X119854000Y-100547784D01*
X119559000Y-100547784D01*
X119544542Y-100547074D01*
X119530224Y-100544950D01*
X119516183Y-100541433D01*
X119502554Y-100536556D01*
X119489469Y-100530367D01*
X119477053Y-100522926D01*
X119465427Y-100514303D01*
X119454702Y-100504582D01*
X119444981Y-100493857D01*
X119436358Y-100482231D01*
X119428917Y-100469815D01*
X119422728Y-100456730D01*
X119417851Y-100443101D01*
X119414334Y-100429060D01*
X119412210Y-100414742D01*
X119411500Y-100400284D01*
X119411500Y-100055284D01*
X119412210Y-100040826D01*
X119414334Y-100026508D01*
X119417851Y-100012467D01*
X119422728Y-99998838D01*
X119428917Y-99985753D01*
X119436358Y-99973337D01*
X119444981Y-99961711D01*
X119454702Y-99950986D01*
X119465427Y-99941265D01*
X119477053Y-99932642D01*
X119489469Y-99925201D01*
X119502554Y-99919012D01*
X119516183Y-99914135D01*
X119530224Y-99910618D01*
X119544542Y-99908494D01*
X119559000Y-99907784D01*
X119854000Y-99907784D01*
X119868458Y-99908494D01*
X119868458Y-99908494D01*
G37*
D17*
X119706500Y-100227784D03*
D16*
G36*
X118898458Y-99908494D02*
X118912776Y-99910618D01*
X118926817Y-99914135D01*
X118940446Y-99919012D01*
X118953531Y-99925201D01*
X118965947Y-99932642D01*
X118977573Y-99941265D01*
X118988298Y-99950986D01*
X118998019Y-99961711D01*
X119006642Y-99973337D01*
X119014083Y-99985753D01*
X119020272Y-99998838D01*
X119025149Y-100012467D01*
X119028666Y-100026508D01*
X119030790Y-100040826D01*
X119031500Y-100055284D01*
X119031500Y-100400284D01*
X119030790Y-100414742D01*
X119028666Y-100429060D01*
X119025149Y-100443101D01*
X119020272Y-100456730D01*
X119014083Y-100469815D01*
X119006642Y-100482231D01*
X118998019Y-100493857D01*
X118988298Y-100504582D01*
X118977573Y-100514303D01*
X118965947Y-100522926D01*
X118953531Y-100530367D01*
X118940446Y-100536556D01*
X118926817Y-100541433D01*
X118912776Y-100544950D01*
X118898458Y-100547074D01*
X118884000Y-100547784D01*
X118589000Y-100547784D01*
X118574542Y-100547074D01*
X118560224Y-100544950D01*
X118546183Y-100541433D01*
X118532554Y-100536556D01*
X118519469Y-100530367D01*
X118507053Y-100522926D01*
X118495427Y-100514303D01*
X118484702Y-100504582D01*
X118474981Y-100493857D01*
X118466358Y-100482231D01*
X118458917Y-100469815D01*
X118452728Y-100456730D01*
X118447851Y-100443101D01*
X118444334Y-100429060D01*
X118442210Y-100414742D01*
X118441500Y-100400284D01*
X118441500Y-100055284D01*
X118442210Y-100040826D01*
X118444334Y-100026508D01*
X118447851Y-100012467D01*
X118452728Y-99998838D01*
X118458917Y-99985753D01*
X118466358Y-99973337D01*
X118474981Y-99961711D01*
X118484702Y-99950986D01*
X118495427Y-99941265D01*
X118507053Y-99932642D01*
X118519469Y-99925201D01*
X118532554Y-99919012D01*
X118546183Y-99914135D01*
X118560224Y-99910618D01*
X118574542Y-99908494D01*
X118589000Y-99907784D01*
X118884000Y-99907784D01*
X118898458Y-99908494D01*
X118898458Y-99908494D01*
G37*
D17*
X118736500Y-100227784D03*
G04 #@! TD*
D16*
G04 #@! TO.C,C5*
G36*
X119868458Y-101142210D02*
X119882776Y-101144334D01*
X119896817Y-101147851D01*
X119910446Y-101152728D01*
X119923531Y-101158917D01*
X119935947Y-101166358D01*
X119947573Y-101174981D01*
X119958298Y-101184702D01*
X119968019Y-101195427D01*
X119976642Y-101207053D01*
X119984083Y-101219469D01*
X119990272Y-101232554D01*
X119995149Y-101246183D01*
X119998666Y-101260224D01*
X120000790Y-101274542D01*
X120001500Y-101289000D01*
X120001500Y-101634000D01*
X120000790Y-101648458D01*
X119998666Y-101662776D01*
X119995149Y-101676817D01*
X119990272Y-101690446D01*
X119984083Y-101703531D01*
X119976642Y-101715947D01*
X119968019Y-101727573D01*
X119958298Y-101738298D01*
X119947573Y-101748019D01*
X119935947Y-101756642D01*
X119923531Y-101764083D01*
X119910446Y-101770272D01*
X119896817Y-101775149D01*
X119882776Y-101778666D01*
X119868458Y-101780790D01*
X119854000Y-101781500D01*
X119559000Y-101781500D01*
X119544542Y-101780790D01*
X119530224Y-101778666D01*
X119516183Y-101775149D01*
X119502554Y-101770272D01*
X119489469Y-101764083D01*
X119477053Y-101756642D01*
X119465427Y-101748019D01*
X119454702Y-101738298D01*
X119444981Y-101727573D01*
X119436358Y-101715947D01*
X119428917Y-101703531D01*
X119422728Y-101690446D01*
X119417851Y-101676817D01*
X119414334Y-101662776D01*
X119412210Y-101648458D01*
X119411500Y-101634000D01*
X119411500Y-101289000D01*
X119412210Y-101274542D01*
X119414334Y-101260224D01*
X119417851Y-101246183D01*
X119422728Y-101232554D01*
X119428917Y-101219469D01*
X119436358Y-101207053D01*
X119444981Y-101195427D01*
X119454702Y-101184702D01*
X119465427Y-101174981D01*
X119477053Y-101166358D01*
X119489469Y-101158917D01*
X119502554Y-101152728D01*
X119516183Y-101147851D01*
X119530224Y-101144334D01*
X119544542Y-101142210D01*
X119559000Y-101141500D01*
X119854000Y-101141500D01*
X119868458Y-101142210D01*
X119868458Y-101142210D01*
G37*
D17*
X119706500Y-101461500D03*
D16*
G36*
X118898458Y-101142210D02*
X118912776Y-101144334D01*
X118926817Y-101147851D01*
X118940446Y-101152728D01*
X118953531Y-101158917D01*
X118965947Y-101166358D01*
X118977573Y-101174981D01*
X118988298Y-101184702D01*
X118998019Y-101195427D01*
X119006642Y-101207053D01*
X119014083Y-101219469D01*
X119020272Y-101232554D01*
X119025149Y-101246183D01*
X119028666Y-101260224D01*
X119030790Y-101274542D01*
X119031500Y-101289000D01*
X119031500Y-101634000D01*
X119030790Y-101648458D01*
X119028666Y-101662776D01*
X119025149Y-101676817D01*
X119020272Y-101690446D01*
X119014083Y-101703531D01*
X119006642Y-101715947D01*
X118998019Y-101727573D01*
X118988298Y-101738298D01*
X118977573Y-101748019D01*
X118965947Y-101756642D01*
X118953531Y-101764083D01*
X118940446Y-101770272D01*
X118926817Y-101775149D01*
X118912776Y-101778666D01*
X118898458Y-101780790D01*
X118884000Y-101781500D01*
X118589000Y-101781500D01*
X118574542Y-101780790D01*
X118560224Y-101778666D01*
X118546183Y-101775149D01*
X118532554Y-101770272D01*
X118519469Y-101764083D01*
X118507053Y-101756642D01*
X118495427Y-101748019D01*
X118484702Y-101738298D01*
X118474981Y-101727573D01*
X118466358Y-101715947D01*
X118458917Y-101703531D01*
X118452728Y-101690446D01*
X118447851Y-101676817D01*
X118444334Y-101662776D01*
X118442210Y-101648458D01*
X118441500Y-101634000D01*
X118441500Y-101289000D01*
X118442210Y-101274542D01*
X118444334Y-101260224D01*
X118447851Y-101246183D01*
X118452728Y-101232554D01*
X118458917Y-101219469D01*
X118466358Y-101207053D01*
X118474981Y-101195427D01*
X118484702Y-101184702D01*
X118495427Y-101174981D01*
X118507053Y-101166358D01*
X118519469Y-101158917D01*
X118532554Y-101152728D01*
X118546183Y-101147851D01*
X118560224Y-101144334D01*
X118574542Y-101142210D01*
X118589000Y-101141500D01*
X118884000Y-101141500D01*
X118898458Y-101142210D01*
X118898458Y-101142210D01*
G37*
D17*
X118736500Y-101461500D03*
G04 #@! TD*
D16*
G04 #@! TO.C,C6*
G36*
X119868458Y-98674780D02*
X119882776Y-98676904D01*
X119896817Y-98680421D01*
X119910446Y-98685298D01*
X119923531Y-98691487D01*
X119935947Y-98698928D01*
X119947573Y-98707551D01*
X119958298Y-98717272D01*
X119968019Y-98727997D01*
X119976642Y-98739623D01*
X119984083Y-98752039D01*
X119990272Y-98765124D01*
X119995149Y-98778753D01*
X119998666Y-98792794D01*
X120000790Y-98807112D01*
X120001500Y-98821570D01*
X120001500Y-99166570D01*
X120000790Y-99181028D01*
X119998666Y-99195346D01*
X119995149Y-99209387D01*
X119990272Y-99223016D01*
X119984083Y-99236101D01*
X119976642Y-99248517D01*
X119968019Y-99260143D01*
X119958298Y-99270868D01*
X119947573Y-99280589D01*
X119935947Y-99289212D01*
X119923531Y-99296653D01*
X119910446Y-99302842D01*
X119896817Y-99307719D01*
X119882776Y-99311236D01*
X119868458Y-99313360D01*
X119854000Y-99314070D01*
X119559000Y-99314070D01*
X119544542Y-99313360D01*
X119530224Y-99311236D01*
X119516183Y-99307719D01*
X119502554Y-99302842D01*
X119489469Y-99296653D01*
X119477053Y-99289212D01*
X119465427Y-99280589D01*
X119454702Y-99270868D01*
X119444981Y-99260143D01*
X119436358Y-99248517D01*
X119428917Y-99236101D01*
X119422728Y-99223016D01*
X119417851Y-99209387D01*
X119414334Y-99195346D01*
X119412210Y-99181028D01*
X119411500Y-99166570D01*
X119411500Y-98821570D01*
X119412210Y-98807112D01*
X119414334Y-98792794D01*
X119417851Y-98778753D01*
X119422728Y-98765124D01*
X119428917Y-98752039D01*
X119436358Y-98739623D01*
X119444981Y-98727997D01*
X119454702Y-98717272D01*
X119465427Y-98707551D01*
X119477053Y-98698928D01*
X119489469Y-98691487D01*
X119502554Y-98685298D01*
X119516183Y-98680421D01*
X119530224Y-98676904D01*
X119544542Y-98674780D01*
X119559000Y-98674070D01*
X119854000Y-98674070D01*
X119868458Y-98674780D01*
X119868458Y-98674780D01*
G37*
D17*
X119706500Y-98994070D03*
D16*
G36*
X118898458Y-98674780D02*
X118912776Y-98676904D01*
X118926817Y-98680421D01*
X118940446Y-98685298D01*
X118953531Y-98691487D01*
X118965947Y-98698928D01*
X118977573Y-98707551D01*
X118988298Y-98717272D01*
X118998019Y-98727997D01*
X119006642Y-98739623D01*
X119014083Y-98752039D01*
X119020272Y-98765124D01*
X119025149Y-98778753D01*
X119028666Y-98792794D01*
X119030790Y-98807112D01*
X119031500Y-98821570D01*
X119031500Y-99166570D01*
X119030790Y-99181028D01*
X119028666Y-99195346D01*
X119025149Y-99209387D01*
X119020272Y-99223016D01*
X119014083Y-99236101D01*
X119006642Y-99248517D01*
X118998019Y-99260143D01*
X118988298Y-99270868D01*
X118977573Y-99280589D01*
X118965947Y-99289212D01*
X118953531Y-99296653D01*
X118940446Y-99302842D01*
X118926817Y-99307719D01*
X118912776Y-99311236D01*
X118898458Y-99313360D01*
X118884000Y-99314070D01*
X118589000Y-99314070D01*
X118574542Y-99313360D01*
X118560224Y-99311236D01*
X118546183Y-99307719D01*
X118532554Y-99302842D01*
X118519469Y-99296653D01*
X118507053Y-99289212D01*
X118495427Y-99280589D01*
X118484702Y-99270868D01*
X118474981Y-99260143D01*
X118466358Y-99248517D01*
X118458917Y-99236101D01*
X118452728Y-99223016D01*
X118447851Y-99209387D01*
X118444334Y-99195346D01*
X118442210Y-99181028D01*
X118441500Y-99166570D01*
X118441500Y-98821570D01*
X118442210Y-98807112D01*
X118444334Y-98792794D01*
X118447851Y-98778753D01*
X118452728Y-98765124D01*
X118458917Y-98752039D01*
X118466358Y-98739623D01*
X118474981Y-98727997D01*
X118484702Y-98717272D01*
X118495427Y-98707551D01*
X118507053Y-98698928D01*
X118519469Y-98691487D01*
X118532554Y-98685298D01*
X118546183Y-98680421D01*
X118560224Y-98676904D01*
X118574542Y-98674780D01*
X118589000Y-98674070D01*
X118884000Y-98674070D01*
X118898458Y-98674780D01*
X118898458Y-98674780D01*
G37*
D17*
X118736500Y-98994070D03*
G04 #@! TD*
D16*
G04 #@! TO.C,C7*
G36*
X119868458Y-97441066D02*
X119882776Y-97443190D01*
X119896817Y-97446707D01*
X119910446Y-97451584D01*
X119923531Y-97457773D01*
X119935947Y-97465214D01*
X119947573Y-97473837D01*
X119958298Y-97483558D01*
X119968019Y-97494283D01*
X119976642Y-97505909D01*
X119984083Y-97518325D01*
X119990272Y-97531410D01*
X119995149Y-97545039D01*
X119998666Y-97559080D01*
X120000790Y-97573398D01*
X120001500Y-97587856D01*
X120001500Y-97932856D01*
X120000790Y-97947314D01*
X119998666Y-97961632D01*
X119995149Y-97975673D01*
X119990272Y-97989302D01*
X119984083Y-98002387D01*
X119976642Y-98014803D01*
X119968019Y-98026429D01*
X119958298Y-98037154D01*
X119947573Y-98046875D01*
X119935947Y-98055498D01*
X119923531Y-98062939D01*
X119910446Y-98069128D01*
X119896817Y-98074005D01*
X119882776Y-98077522D01*
X119868458Y-98079646D01*
X119854000Y-98080356D01*
X119559000Y-98080356D01*
X119544542Y-98079646D01*
X119530224Y-98077522D01*
X119516183Y-98074005D01*
X119502554Y-98069128D01*
X119489469Y-98062939D01*
X119477053Y-98055498D01*
X119465427Y-98046875D01*
X119454702Y-98037154D01*
X119444981Y-98026429D01*
X119436358Y-98014803D01*
X119428917Y-98002387D01*
X119422728Y-97989302D01*
X119417851Y-97975673D01*
X119414334Y-97961632D01*
X119412210Y-97947314D01*
X119411500Y-97932856D01*
X119411500Y-97587856D01*
X119412210Y-97573398D01*
X119414334Y-97559080D01*
X119417851Y-97545039D01*
X119422728Y-97531410D01*
X119428917Y-97518325D01*
X119436358Y-97505909D01*
X119444981Y-97494283D01*
X119454702Y-97483558D01*
X119465427Y-97473837D01*
X119477053Y-97465214D01*
X119489469Y-97457773D01*
X119502554Y-97451584D01*
X119516183Y-97446707D01*
X119530224Y-97443190D01*
X119544542Y-97441066D01*
X119559000Y-97440356D01*
X119854000Y-97440356D01*
X119868458Y-97441066D01*
X119868458Y-97441066D01*
G37*
D17*
X119706500Y-97760356D03*
D16*
G36*
X118898458Y-97441066D02*
X118912776Y-97443190D01*
X118926817Y-97446707D01*
X118940446Y-97451584D01*
X118953531Y-97457773D01*
X118965947Y-97465214D01*
X118977573Y-97473837D01*
X118988298Y-97483558D01*
X118998019Y-97494283D01*
X119006642Y-97505909D01*
X119014083Y-97518325D01*
X119020272Y-97531410D01*
X119025149Y-97545039D01*
X119028666Y-97559080D01*
X119030790Y-97573398D01*
X119031500Y-97587856D01*
X119031500Y-97932856D01*
X119030790Y-97947314D01*
X119028666Y-97961632D01*
X119025149Y-97975673D01*
X119020272Y-97989302D01*
X119014083Y-98002387D01*
X119006642Y-98014803D01*
X118998019Y-98026429D01*
X118988298Y-98037154D01*
X118977573Y-98046875D01*
X118965947Y-98055498D01*
X118953531Y-98062939D01*
X118940446Y-98069128D01*
X118926817Y-98074005D01*
X118912776Y-98077522D01*
X118898458Y-98079646D01*
X118884000Y-98080356D01*
X118589000Y-98080356D01*
X118574542Y-98079646D01*
X118560224Y-98077522D01*
X118546183Y-98074005D01*
X118532554Y-98069128D01*
X118519469Y-98062939D01*
X118507053Y-98055498D01*
X118495427Y-98046875D01*
X118484702Y-98037154D01*
X118474981Y-98026429D01*
X118466358Y-98014803D01*
X118458917Y-98002387D01*
X118452728Y-97989302D01*
X118447851Y-97975673D01*
X118444334Y-97961632D01*
X118442210Y-97947314D01*
X118441500Y-97932856D01*
X118441500Y-97587856D01*
X118442210Y-97573398D01*
X118444334Y-97559080D01*
X118447851Y-97545039D01*
X118452728Y-97531410D01*
X118458917Y-97518325D01*
X118466358Y-97505909D01*
X118474981Y-97494283D01*
X118484702Y-97483558D01*
X118495427Y-97473837D01*
X118507053Y-97465214D01*
X118519469Y-97457773D01*
X118532554Y-97451584D01*
X118546183Y-97446707D01*
X118560224Y-97443190D01*
X118574542Y-97441066D01*
X118589000Y-97440356D01*
X118884000Y-97440356D01*
X118898458Y-97441066D01*
X118898458Y-97441066D01*
G37*
D17*
X118736500Y-97760356D03*
G04 #@! TD*
D16*
G04 #@! TO.C,C8*
G36*
X119868458Y-96207352D02*
X119882776Y-96209476D01*
X119896817Y-96212993D01*
X119910446Y-96217870D01*
X119923531Y-96224059D01*
X119935947Y-96231500D01*
X119947573Y-96240123D01*
X119958298Y-96249844D01*
X119968019Y-96260569D01*
X119976642Y-96272195D01*
X119984083Y-96284611D01*
X119990272Y-96297696D01*
X119995149Y-96311325D01*
X119998666Y-96325366D01*
X120000790Y-96339684D01*
X120001500Y-96354142D01*
X120001500Y-96699142D01*
X120000790Y-96713600D01*
X119998666Y-96727918D01*
X119995149Y-96741959D01*
X119990272Y-96755588D01*
X119984083Y-96768673D01*
X119976642Y-96781089D01*
X119968019Y-96792715D01*
X119958298Y-96803440D01*
X119947573Y-96813161D01*
X119935947Y-96821784D01*
X119923531Y-96829225D01*
X119910446Y-96835414D01*
X119896817Y-96840291D01*
X119882776Y-96843808D01*
X119868458Y-96845932D01*
X119854000Y-96846642D01*
X119559000Y-96846642D01*
X119544542Y-96845932D01*
X119530224Y-96843808D01*
X119516183Y-96840291D01*
X119502554Y-96835414D01*
X119489469Y-96829225D01*
X119477053Y-96821784D01*
X119465427Y-96813161D01*
X119454702Y-96803440D01*
X119444981Y-96792715D01*
X119436358Y-96781089D01*
X119428917Y-96768673D01*
X119422728Y-96755588D01*
X119417851Y-96741959D01*
X119414334Y-96727918D01*
X119412210Y-96713600D01*
X119411500Y-96699142D01*
X119411500Y-96354142D01*
X119412210Y-96339684D01*
X119414334Y-96325366D01*
X119417851Y-96311325D01*
X119422728Y-96297696D01*
X119428917Y-96284611D01*
X119436358Y-96272195D01*
X119444981Y-96260569D01*
X119454702Y-96249844D01*
X119465427Y-96240123D01*
X119477053Y-96231500D01*
X119489469Y-96224059D01*
X119502554Y-96217870D01*
X119516183Y-96212993D01*
X119530224Y-96209476D01*
X119544542Y-96207352D01*
X119559000Y-96206642D01*
X119854000Y-96206642D01*
X119868458Y-96207352D01*
X119868458Y-96207352D01*
G37*
D17*
X119706500Y-96526642D03*
D16*
G36*
X118898458Y-96207352D02*
X118912776Y-96209476D01*
X118926817Y-96212993D01*
X118940446Y-96217870D01*
X118953531Y-96224059D01*
X118965947Y-96231500D01*
X118977573Y-96240123D01*
X118988298Y-96249844D01*
X118998019Y-96260569D01*
X119006642Y-96272195D01*
X119014083Y-96284611D01*
X119020272Y-96297696D01*
X119025149Y-96311325D01*
X119028666Y-96325366D01*
X119030790Y-96339684D01*
X119031500Y-96354142D01*
X119031500Y-96699142D01*
X119030790Y-96713600D01*
X119028666Y-96727918D01*
X119025149Y-96741959D01*
X119020272Y-96755588D01*
X119014083Y-96768673D01*
X119006642Y-96781089D01*
X118998019Y-96792715D01*
X118988298Y-96803440D01*
X118977573Y-96813161D01*
X118965947Y-96821784D01*
X118953531Y-96829225D01*
X118940446Y-96835414D01*
X118926817Y-96840291D01*
X118912776Y-96843808D01*
X118898458Y-96845932D01*
X118884000Y-96846642D01*
X118589000Y-96846642D01*
X118574542Y-96845932D01*
X118560224Y-96843808D01*
X118546183Y-96840291D01*
X118532554Y-96835414D01*
X118519469Y-96829225D01*
X118507053Y-96821784D01*
X118495427Y-96813161D01*
X118484702Y-96803440D01*
X118474981Y-96792715D01*
X118466358Y-96781089D01*
X118458917Y-96768673D01*
X118452728Y-96755588D01*
X118447851Y-96741959D01*
X118444334Y-96727918D01*
X118442210Y-96713600D01*
X118441500Y-96699142D01*
X118441500Y-96354142D01*
X118442210Y-96339684D01*
X118444334Y-96325366D01*
X118447851Y-96311325D01*
X118452728Y-96297696D01*
X118458917Y-96284611D01*
X118466358Y-96272195D01*
X118474981Y-96260569D01*
X118484702Y-96249844D01*
X118495427Y-96240123D01*
X118507053Y-96231500D01*
X118519469Y-96224059D01*
X118532554Y-96217870D01*
X118546183Y-96212993D01*
X118560224Y-96209476D01*
X118574542Y-96207352D01*
X118589000Y-96206642D01*
X118884000Y-96206642D01*
X118898458Y-96207352D01*
X118898458Y-96207352D01*
G37*
D17*
X118736500Y-96526642D03*
G04 #@! TD*
D16*
G04 #@! TO.C,C9*
G36*
X119868458Y-94973638D02*
X119882776Y-94975762D01*
X119896817Y-94979279D01*
X119910446Y-94984156D01*
X119923531Y-94990345D01*
X119935947Y-94997786D01*
X119947573Y-95006409D01*
X119958298Y-95016130D01*
X119968019Y-95026855D01*
X119976642Y-95038481D01*
X119984083Y-95050897D01*
X119990272Y-95063982D01*
X119995149Y-95077611D01*
X119998666Y-95091652D01*
X120000790Y-95105970D01*
X120001500Y-95120428D01*
X120001500Y-95465428D01*
X120000790Y-95479886D01*
X119998666Y-95494204D01*
X119995149Y-95508245D01*
X119990272Y-95521874D01*
X119984083Y-95534959D01*
X119976642Y-95547375D01*
X119968019Y-95559001D01*
X119958298Y-95569726D01*
X119947573Y-95579447D01*
X119935947Y-95588070D01*
X119923531Y-95595511D01*
X119910446Y-95601700D01*
X119896817Y-95606577D01*
X119882776Y-95610094D01*
X119868458Y-95612218D01*
X119854000Y-95612928D01*
X119559000Y-95612928D01*
X119544542Y-95612218D01*
X119530224Y-95610094D01*
X119516183Y-95606577D01*
X119502554Y-95601700D01*
X119489469Y-95595511D01*
X119477053Y-95588070D01*
X119465427Y-95579447D01*
X119454702Y-95569726D01*
X119444981Y-95559001D01*
X119436358Y-95547375D01*
X119428917Y-95534959D01*
X119422728Y-95521874D01*
X119417851Y-95508245D01*
X119414334Y-95494204D01*
X119412210Y-95479886D01*
X119411500Y-95465428D01*
X119411500Y-95120428D01*
X119412210Y-95105970D01*
X119414334Y-95091652D01*
X119417851Y-95077611D01*
X119422728Y-95063982D01*
X119428917Y-95050897D01*
X119436358Y-95038481D01*
X119444981Y-95026855D01*
X119454702Y-95016130D01*
X119465427Y-95006409D01*
X119477053Y-94997786D01*
X119489469Y-94990345D01*
X119502554Y-94984156D01*
X119516183Y-94979279D01*
X119530224Y-94975762D01*
X119544542Y-94973638D01*
X119559000Y-94972928D01*
X119854000Y-94972928D01*
X119868458Y-94973638D01*
X119868458Y-94973638D01*
G37*
D17*
X119706500Y-95292928D03*
D16*
G36*
X118898458Y-94973638D02*
X118912776Y-94975762D01*
X118926817Y-94979279D01*
X118940446Y-94984156D01*
X118953531Y-94990345D01*
X118965947Y-94997786D01*
X118977573Y-95006409D01*
X118988298Y-95016130D01*
X118998019Y-95026855D01*
X119006642Y-95038481D01*
X119014083Y-95050897D01*
X119020272Y-95063982D01*
X119025149Y-95077611D01*
X119028666Y-95091652D01*
X119030790Y-95105970D01*
X119031500Y-95120428D01*
X119031500Y-95465428D01*
X119030790Y-95479886D01*
X119028666Y-95494204D01*
X119025149Y-95508245D01*
X119020272Y-95521874D01*
X119014083Y-95534959D01*
X119006642Y-95547375D01*
X118998019Y-95559001D01*
X118988298Y-95569726D01*
X118977573Y-95579447D01*
X118965947Y-95588070D01*
X118953531Y-95595511D01*
X118940446Y-95601700D01*
X118926817Y-95606577D01*
X118912776Y-95610094D01*
X118898458Y-95612218D01*
X118884000Y-95612928D01*
X118589000Y-95612928D01*
X118574542Y-95612218D01*
X118560224Y-95610094D01*
X118546183Y-95606577D01*
X118532554Y-95601700D01*
X118519469Y-95595511D01*
X118507053Y-95588070D01*
X118495427Y-95579447D01*
X118484702Y-95569726D01*
X118474981Y-95559001D01*
X118466358Y-95547375D01*
X118458917Y-95534959D01*
X118452728Y-95521874D01*
X118447851Y-95508245D01*
X118444334Y-95494204D01*
X118442210Y-95479886D01*
X118441500Y-95465428D01*
X118441500Y-95120428D01*
X118442210Y-95105970D01*
X118444334Y-95091652D01*
X118447851Y-95077611D01*
X118452728Y-95063982D01*
X118458917Y-95050897D01*
X118466358Y-95038481D01*
X118474981Y-95026855D01*
X118484702Y-95016130D01*
X118495427Y-95006409D01*
X118507053Y-94997786D01*
X118519469Y-94990345D01*
X118532554Y-94984156D01*
X118546183Y-94979279D01*
X118560224Y-94975762D01*
X118574542Y-94973638D01*
X118589000Y-94972928D01*
X118884000Y-94972928D01*
X118898458Y-94973638D01*
X118898458Y-94973638D01*
G37*
D17*
X118736500Y-95292928D03*
G04 #@! TD*
M02*
