G04 #@! TF.GenerationSoftware,KiCad,Pcbnew,5.0.2+dfsg1-1*
G04 #@! TF.CreationDate,2019-09-16T14:47:23+01:00*
G04 #@! TF.ProjectId,HDMI_SD_expansion,48444d49-5f53-4445-9f65-7870616e7369,rev?*
G04 #@! TF.SameCoordinates,Original*
G04 #@! TF.FileFunction,Copper,L2,Inr*
G04 #@! TF.FilePolarity,Positive*
%FSLAX46Y46*%
G04 Gerber Fmt 4.6, Leading zero omitted, Abs format (unit mm)*
G04 Created by KiCad (PCBNEW 5.0.2+dfsg1-1) date Mon 16 Sep 2019 14:47:23 BST*
%MOMM*%
%LPD*%
G01*
G04 APERTURE LIST*
G04 #@! TA.AperFunction,ViaPad*
%ADD10C,1.900000*%
G04 #@! TD*
G04 #@! TA.AperFunction,ViaPad*
%ADD11C,3.300000*%
G04 #@! TD*
G04 #@! TA.AperFunction,ViaPad*
%ADD12C,1.300000*%
G04 #@! TD*
G04 #@! TA.AperFunction,ViaPad*
%ADD13C,2.000000*%
G04 #@! TD*
G04 #@! TA.AperFunction,ViaPad*
%ADD14C,0.600000*%
G04 #@! TD*
G04 #@! TA.AperFunction,Conductor*
%ADD15C,0.254000*%
G04 #@! TD*
G04 APERTURE END LIST*
D10*
G04 #@! TO.N,GND*
G04 #@! TO.C,J5*
X104151500Y-117995000D03*
G04 #@! TO.N,/Data+*
X104151500Y-115495000D03*
G04 #@! TO.N,/Data-*
X104151500Y-113495000D03*
G04 #@! TO.N,+5V*
X104151500Y-110995000D03*
D11*
G04 #@! TO.N,Net-(J5-PadSH)*
X101441500Y-121065000D03*
X101441500Y-107925000D03*
G04 #@! TD*
D12*
G04 #@! TO.N,*
G04 #@! TO.C,J4*
X96789241Y-99848709D03*
X96789241Y-90848709D03*
G04 #@! TD*
D13*
G04 #@! TO.N,/TDMS_D0_P*
G04 #@! TO.C,J3*
X150651241Y-116978709D03*
G04 #@! TO.N,/TDMS_D0_N*
X153191241Y-116978709D03*
G04 #@! TO.N,/TDMS_D1_P*
X155731241Y-116978709D03*
G04 #@! TO.N,/TDMS_D1_N*
X158271241Y-116978709D03*
G04 #@! TO.N,GND*
X160811241Y-116978709D03*
G04 #@! TO.N,+3V3*
X163351241Y-116978709D03*
X163351241Y-119518709D03*
G04 #@! TO.N,GND*
X160811241Y-119518709D03*
G04 #@! TO.N,/TDMS_CLK_N*
X158271241Y-119518709D03*
G04 #@! TO.N,/TDMS_CLK_P*
X155731241Y-119518709D03*
G04 #@! TO.N,/TDMS_D2_N*
X153191241Y-119518709D03*
G04 #@! TO.N,/TDMS_D2_P*
X150651241Y-119518709D03*
G04 #@! TD*
G04 #@! TO.N,/DAT1*
G04 #@! TO.C,J1*
X173651241Y-119518709D03*
G04 #@! TO.N,/DAT2*
X176191241Y-119518709D03*
G04 #@! TO.N,/CD*
X178731241Y-119518709D03*
G04 #@! TO.N,/NC_EN*
X181271241Y-119518709D03*
G04 #@! TO.N,GND*
X183811241Y-119518709D03*
G04 #@! TO.N,+3V3*
X186351241Y-119518709D03*
X186351241Y-116978709D03*
G04 #@! TO.N,GND*
X183811241Y-116978709D03*
G04 #@! TO.N,/SCK*
X181271241Y-116978709D03*
G04 #@! TO.N,/MISO_DAT0*
X178731241Y-116978709D03*
G04 #@! TO.N,/MOSI_CMD*
X176191241Y-116978709D03*
G04 #@! TO.N,/CD_DAT3*
X173651241Y-116978709D03*
G04 #@! TD*
G04 #@! TO.N,/SS_USB*
G04 #@! TO.C,J6*
X127651241Y-116978709D03*
G04 #@! TO.N,/MOSI_USB*
X130191241Y-116978709D03*
G04 #@! TO.N,/MISO_USB*
X132731241Y-116978709D03*
G04 #@! TO.N,/SCK_USB*
X135271241Y-116978709D03*
G04 #@! TO.N,GND*
X137811241Y-116978709D03*
G04 #@! TO.N,+3V3*
X140351241Y-116978709D03*
X140351241Y-119518709D03*
G04 #@! TO.N,GND*
X137811241Y-119518709D03*
G04 #@! TO.N,Net-(J6-Pad8)*
X135271241Y-119518709D03*
G04 #@! TO.N,/INT_USB*
X132731241Y-119518709D03*
G04 #@! TO.N,/RST_USB*
X130191241Y-119518709D03*
G04 #@! TO.N,/GPX_USB*
X127651241Y-119518709D03*
G04 #@! TD*
D14*
G04 #@! TO.N,GND*
X199241741Y-112914709D03*
X199241741Y-96404709D03*
X188573741Y-96404709D03*
X184509741Y-105866209D03*
X191621741Y-112914709D03*
X120565241Y-122249209D03*
X135360741Y-100976709D03*
X133519241Y-100976709D03*
X110024241Y-119137709D03*
X107738241Y-117169209D03*
X107738241Y-109168209D03*
X112691241Y-117994709D03*
X132630241Y-107199709D03*
X131741241Y-112025709D03*
X137202241Y-113295709D03*
X135106741Y-113168729D03*
X123676741Y-114819709D03*
X111230741Y-109739709D03*
X110849741Y-106818709D03*
X94149241Y-87324209D03*
X94212741Y-103389709D03*
X105071241Y-99389209D03*
X100245241Y-97865209D03*
X100245241Y-96404709D03*
X105388741Y-94880709D03*
X100372241Y-91832709D03*
X196310500Y-106859000D03*
G04 #@! TO.N,/TDMS_D1_N*
X156697666Y-106847834D03*
G04 #@! TO.N,/TDMS_D1_P*
X156167334Y-107378166D03*
G04 #@! TO.N,/TDMS_D0_P*
X150579334Y-102552166D03*
G04 #@! TO.N,/TDMS_D0_N*
X151109666Y-102021834D03*
G04 #@! TO.N,/TDMS_CLK_N*
X165963500Y-114987000D03*
G04 #@! TO.N,/TDMS_CLK_P*
X166713500Y-114987000D03*
G04 #@! TO.N,/TDMS_D2_N*
X147421500Y-114987000D03*
G04 #@! TO.N,/TDMS_D2_P*
X148171500Y-114987000D03*
G04 #@! TO.N,/DAT2*
X196071241Y-101378709D03*
X195271241Y-109278709D03*
G04 #@! TO.N,+3V3*
X196574741Y-113867209D03*
X194352241Y-113867209D03*
X192066241Y-113867209D03*
X181652241Y-110120709D03*
X176508741Y-110120709D03*
X174032241Y-110120709D03*
X179048741Y-110120709D03*
X186668741Y-105802709D03*
X112183241Y-113359209D03*
X111040241Y-119137709D03*
X138853241Y-110819209D03*
X127042241Y-107326709D03*
X122216241Y-114819709D03*
G04 #@! TO.N,/MISO_DAT0*
X188071241Y-107978709D03*
X183071241Y-107978709D03*
G04 #@! TO.N,Net-(TP1-Pad1)*
X135614741Y-109803209D03*
X129963241Y-108850709D03*
G04 #@! TO.N,/RST_USB*
X118585485Y-109683185D03*
X123930741Y-109676209D03*
G04 #@! TO.N,/MISO_USB*
X118468230Y-111036978D03*
X121913254Y-110942472D03*
G04 #@! TO.N,/MOSI_USB*
X117961741Y-111771709D03*
X121733067Y-111777259D03*
G04 #@! TO.N,/GPX_USB*
X113834241Y-109041209D03*
X124311741Y-119518709D03*
G04 #@! TO.N,/INT_USB*
X115159809Y-113161526D03*
G04 #@! TD*
D15*
G04 #@! TO.N,GND*
G36*
X199916241Y-123743709D02*
X92386241Y-123743709D01*
X92386241Y-120610485D01*
X99156500Y-120610485D01*
X99156500Y-121519515D01*
X99504370Y-122359349D01*
X100147151Y-123002130D01*
X100986985Y-123350000D01*
X101896015Y-123350000D01*
X102735849Y-123002130D01*
X103378630Y-122359349D01*
X103726500Y-121519515D01*
X103726500Y-120610485D01*
X103378630Y-119770651D01*
X102735849Y-119127870D01*
X102695967Y-119111350D01*
X103214755Y-119111350D01*
X103307292Y-119373019D01*
X103898898Y-119591188D01*
X104528961Y-119566352D01*
X104995708Y-119373019D01*
X105088245Y-119111350D01*
X104928621Y-118951726D01*
X110105241Y-118951726D01*
X110105241Y-119323692D01*
X110247586Y-119667344D01*
X110510606Y-119930364D01*
X110854258Y-120072709D01*
X111226224Y-120072709D01*
X111569876Y-119930364D01*
X111832896Y-119667344D01*
X111971499Y-119332726D01*
X123376741Y-119332726D01*
X123376741Y-119704692D01*
X123519086Y-120048344D01*
X123782106Y-120311364D01*
X124125758Y-120453709D01*
X124497724Y-120453709D01*
X124841376Y-120311364D01*
X125104396Y-120048344D01*
X125246741Y-119704692D01*
X125246741Y-119332726D01*
X125104396Y-118989074D01*
X124841376Y-118726054D01*
X124497724Y-118583709D01*
X124125758Y-118583709D01*
X123782106Y-118726054D01*
X123519086Y-118989074D01*
X123376741Y-119332726D01*
X111971499Y-119332726D01*
X111975241Y-119323692D01*
X111975241Y-118951726D01*
X111832896Y-118608074D01*
X111569876Y-118345054D01*
X111226224Y-118202709D01*
X110854258Y-118202709D01*
X110510606Y-118345054D01*
X110247586Y-118608074D01*
X110105241Y-118951726D01*
X104928621Y-118951726D01*
X104151500Y-118174605D01*
X103214755Y-119111350D01*
X102695967Y-119111350D01*
X101896015Y-118780000D01*
X100986985Y-118780000D01*
X100147151Y-119127870D01*
X99504370Y-119770651D01*
X99156500Y-120610485D01*
X92386241Y-120610485D01*
X92386241Y-117742398D01*
X102555312Y-117742398D01*
X102580148Y-118372461D01*
X102773481Y-118839208D01*
X103035150Y-118931745D01*
X103971895Y-117995000D01*
X104331105Y-117995000D01*
X105267850Y-118931745D01*
X105529519Y-118839208D01*
X105747688Y-118247602D01*
X105722852Y-117617539D01*
X105529519Y-117150792D01*
X105267850Y-117058255D01*
X104331105Y-117995000D01*
X103971895Y-117995000D01*
X103035150Y-117058255D01*
X102773481Y-117150792D01*
X102555312Y-117742398D01*
X92386241Y-117742398D01*
X92386241Y-110679724D01*
X102566500Y-110679724D01*
X102566500Y-111310276D01*
X102807802Y-111892830D01*
X103159972Y-112245000D01*
X102807802Y-112597170D01*
X102566500Y-113179724D01*
X102566500Y-113810276D01*
X102807802Y-114392830D01*
X102909972Y-114495000D01*
X102807802Y-114597170D01*
X102566500Y-115179724D01*
X102566500Y-115810276D01*
X102807802Y-116392830D01*
X103235359Y-116820387D01*
X103214755Y-116878650D01*
X104151500Y-117815395D01*
X105088245Y-116878650D01*
X105067641Y-116820387D01*
X105234541Y-116653487D01*
X126016241Y-116653487D01*
X126016241Y-117303931D01*
X126265155Y-117904862D01*
X126609002Y-118248709D01*
X126265155Y-118592556D01*
X126016241Y-119193487D01*
X126016241Y-119843931D01*
X126265155Y-120444862D01*
X126725088Y-120904795D01*
X127326019Y-121153709D01*
X127976463Y-121153709D01*
X128577394Y-120904795D01*
X128921241Y-120560948D01*
X129265088Y-120904795D01*
X129866019Y-121153709D01*
X130516463Y-121153709D01*
X131117394Y-120904795D01*
X131461241Y-120560948D01*
X131805088Y-120904795D01*
X132406019Y-121153709D01*
X133056463Y-121153709D01*
X133657394Y-120904795D01*
X134001241Y-120560948D01*
X134345088Y-120904795D01*
X134946019Y-121153709D01*
X135596463Y-121153709D01*
X136197394Y-120904795D01*
X136430948Y-120671241D01*
X136838314Y-120671241D01*
X136936977Y-120938096D01*
X137546702Y-121164617D01*
X138196701Y-121140565D01*
X138685505Y-120938096D01*
X138784168Y-120671241D01*
X137811241Y-119698314D01*
X136838314Y-120671241D01*
X136430948Y-120671241D01*
X136623552Y-120478637D01*
X136658709Y-120491636D01*
X137631636Y-119518709D01*
X136658709Y-118545782D01*
X136623552Y-118558781D01*
X136313480Y-118248709D01*
X136430948Y-118131241D01*
X136838314Y-118131241D01*
X136881745Y-118248709D01*
X136838314Y-118366177D01*
X137811241Y-119339104D01*
X138784168Y-118366177D01*
X138740737Y-118248709D01*
X138784168Y-118131241D01*
X137811241Y-117158314D01*
X136838314Y-118131241D01*
X136430948Y-118131241D01*
X136623552Y-117938637D01*
X136658709Y-117951636D01*
X137631636Y-116978709D01*
X137990846Y-116978709D01*
X138963773Y-117951636D01*
X138998930Y-117938637D01*
X139309002Y-118248709D01*
X138998930Y-118558781D01*
X138963773Y-118545782D01*
X137990846Y-119518709D01*
X138963773Y-120491636D01*
X138998930Y-120478637D01*
X139425088Y-120904795D01*
X140026019Y-121153709D01*
X140676463Y-121153709D01*
X141277394Y-120904795D01*
X141737327Y-120444862D01*
X141986241Y-119843931D01*
X141986241Y-119193487D01*
X141737327Y-118592556D01*
X141393480Y-118248709D01*
X141737327Y-117904862D01*
X141986241Y-117303931D01*
X141986241Y-116653487D01*
X149016241Y-116653487D01*
X149016241Y-117303931D01*
X149265155Y-117904862D01*
X149609002Y-118248709D01*
X149265155Y-118592556D01*
X149016241Y-119193487D01*
X149016241Y-119843931D01*
X149265155Y-120444862D01*
X149725088Y-120904795D01*
X150326019Y-121153709D01*
X150976463Y-121153709D01*
X151577394Y-120904795D01*
X151921241Y-120560948D01*
X152265088Y-120904795D01*
X152866019Y-121153709D01*
X153516463Y-121153709D01*
X154117394Y-120904795D01*
X154461241Y-120560948D01*
X154805088Y-120904795D01*
X155406019Y-121153709D01*
X156056463Y-121153709D01*
X156657394Y-120904795D01*
X157001241Y-120560948D01*
X157345088Y-120904795D01*
X157946019Y-121153709D01*
X158596463Y-121153709D01*
X159197394Y-120904795D01*
X159430948Y-120671241D01*
X159838314Y-120671241D01*
X159936977Y-120938096D01*
X160546702Y-121164617D01*
X161196701Y-121140565D01*
X161685505Y-120938096D01*
X161784168Y-120671241D01*
X160811241Y-119698314D01*
X159838314Y-120671241D01*
X159430948Y-120671241D01*
X159623552Y-120478637D01*
X159658709Y-120491636D01*
X160631636Y-119518709D01*
X159658709Y-118545782D01*
X159623552Y-118558781D01*
X159313480Y-118248709D01*
X159430948Y-118131241D01*
X159838314Y-118131241D01*
X159881745Y-118248709D01*
X159838314Y-118366177D01*
X160811241Y-119339104D01*
X161784168Y-118366177D01*
X161740737Y-118248709D01*
X161784168Y-118131241D01*
X160811241Y-117158314D01*
X159838314Y-118131241D01*
X159430948Y-118131241D01*
X159623552Y-117938637D01*
X159658709Y-117951636D01*
X160631636Y-116978709D01*
X160990846Y-116978709D01*
X161963773Y-117951636D01*
X161998930Y-117938637D01*
X162309002Y-118248709D01*
X161998930Y-118558781D01*
X161963773Y-118545782D01*
X160990846Y-119518709D01*
X161963773Y-120491636D01*
X161998930Y-120478637D01*
X162425088Y-120904795D01*
X163026019Y-121153709D01*
X163676463Y-121153709D01*
X164277394Y-120904795D01*
X164737327Y-120444862D01*
X164986241Y-119843931D01*
X164986241Y-119193487D01*
X164737327Y-118592556D01*
X164393480Y-118248709D01*
X164737327Y-117904862D01*
X164986241Y-117303931D01*
X164986241Y-116653487D01*
X172016241Y-116653487D01*
X172016241Y-117303931D01*
X172265155Y-117904862D01*
X172609002Y-118248709D01*
X172265155Y-118592556D01*
X172016241Y-119193487D01*
X172016241Y-119843931D01*
X172265155Y-120444862D01*
X172725088Y-120904795D01*
X173326019Y-121153709D01*
X173976463Y-121153709D01*
X174577394Y-120904795D01*
X174921241Y-120560948D01*
X175265088Y-120904795D01*
X175866019Y-121153709D01*
X176516463Y-121153709D01*
X177117394Y-120904795D01*
X177461241Y-120560948D01*
X177805088Y-120904795D01*
X178406019Y-121153709D01*
X179056463Y-121153709D01*
X179657394Y-120904795D01*
X180001241Y-120560948D01*
X180345088Y-120904795D01*
X180946019Y-121153709D01*
X181596463Y-121153709D01*
X182197394Y-120904795D01*
X182430948Y-120671241D01*
X182838314Y-120671241D01*
X182936977Y-120938096D01*
X183546702Y-121164617D01*
X184196701Y-121140565D01*
X184685505Y-120938096D01*
X184784168Y-120671241D01*
X183811241Y-119698314D01*
X182838314Y-120671241D01*
X182430948Y-120671241D01*
X182623552Y-120478637D01*
X182658709Y-120491636D01*
X183631636Y-119518709D01*
X182658709Y-118545782D01*
X182623552Y-118558781D01*
X182313480Y-118248709D01*
X182430948Y-118131241D01*
X182838314Y-118131241D01*
X182881745Y-118248709D01*
X182838314Y-118366177D01*
X183811241Y-119339104D01*
X184784168Y-118366177D01*
X184740737Y-118248709D01*
X184784168Y-118131241D01*
X183811241Y-117158314D01*
X182838314Y-118131241D01*
X182430948Y-118131241D01*
X182623552Y-117938637D01*
X182658709Y-117951636D01*
X183631636Y-116978709D01*
X183990846Y-116978709D01*
X184963773Y-117951636D01*
X184998930Y-117938637D01*
X185309002Y-118248709D01*
X184998930Y-118558781D01*
X184963773Y-118545782D01*
X183990846Y-119518709D01*
X184963773Y-120491636D01*
X184998930Y-120478637D01*
X185425088Y-120904795D01*
X186026019Y-121153709D01*
X186676463Y-121153709D01*
X187277394Y-120904795D01*
X187737327Y-120444862D01*
X187986241Y-119843931D01*
X187986241Y-119193487D01*
X187737327Y-118592556D01*
X187393480Y-118248709D01*
X187737327Y-117904862D01*
X187986241Y-117303931D01*
X187986241Y-116653487D01*
X187737327Y-116052556D01*
X187277394Y-115592623D01*
X186676463Y-115343709D01*
X186026019Y-115343709D01*
X185425088Y-115592623D01*
X184998930Y-116018781D01*
X184963773Y-116005782D01*
X183990846Y-116978709D01*
X183631636Y-116978709D01*
X182658709Y-116005782D01*
X182623552Y-116018781D01*
X182430948Y-115826177D01*
X182838314Y-115826177D01*
X183811241Y-116799104D01*
X184784168Y-115826177D01*
X184685505Y-115559322D01*
X184075780Y-115332801D01*
X183425781Y-115356853D01*
X182936977Y-115559322D01*
X182838314Y-115826177D01*
X182430948Y-115826177D01*
X182197394Y-115592623D01*
X181596463Y-115343709D01*
X180946019Y-115343709D01*
X180345088Y-115592623D01*
X180001241Y-115936470D01*
X179657394Y-115592623D01*
X179056463Y-115343709D01*
X178406019Y-115343709D01*
X177805088Y-115592623D01*
X177461241Y-115936470D01*
X177117394Y-115592623D01*
X176516463Y-115343709D01*
X175866019Y-115343709D01*
X175265088Y-115592623D01*
X174921241Y-115936470D01*
X174577394Y-115592623D01*
X173976463Y-115343709D01*
X173326019Y-115343709D01*
X172725088Y-115592623D01*
X172265155Y-116052556D01*
X172016241Y-116653487D01*
X164986241Y-116653487D01*
X164737327Y-116052556D01*
X164277394Y-115592623D01*
X163676463Y-115343709D01*
X163026019Y-115343709D01*
X162425088Y-115592623D01*
X161998930Y-116018781D01*
X161963773Y-116005782D01*
X160990846Y-116978709D01*
X160631636Y-116978709D01*
X159658709Y-116005782D01*
X159623552Y-116018781D01*
X159430948Y-115826177D01*
X159838314Y-115826177D01*
X160811241Y-116799104D01*
X161784168Y-115826177D01*
X161685505Y-115559322D01*
X161075780Y-115332801D01*
X160425781Y-115356853D01*
X159936977Y-115559322D01*
X159838314Y-115826177D01*
X159430948Y-115826177D01*
X159197394Y-115592623D01*
X158596463Y-115343709D01*
X157946019Y-115343709D01*
X157345088Y-115592623D01*
X157001241Y-115936470D01*
X156657394Y-115592623D01*
X156056463Y-115343709D01*
X155406019Y-115343709D01*
X154805088Y-115592623D01*
X154461241Y-115936470D01*
X154117394Y-115592623D01*
X153516463Y-115343709D01*
X152866019Y-115343709D01*
X152265088Y-115592623D01*
X151921241Y-115936470D01*
X151577394Y-115592623D01*
X150976463Y-115343709D01*
X150326019Y-115343709D01*
X149725088Y-115592623D01*
X149265155Y-116052556D01*
X149016241Y-116653487D01*
X141986241Y-116653487D01*
X141737327Y-116052556D01*
X141277394Y-115592623D01*
X140676463Y-115343709D01*
X140026019Y-115343709D01*
X139425088Y-115592623D01*
X138998930Y-116018781D01*
X138963773Y-116005782D01*
X137990846Y-116978709D01*
X137631636Y-116978709D01*
X136658709Y-116005782D01*
X136623552Y-116018781D01*
X136430948Y-115826177D01*
X136838314Y-115826177D01*
X137811241Y-116799104D01*
X138784168Y-115826177D01*
X138685505Y-115559322D01*
X138075780Y-115332801D01*
X137425781Y-115356853D01*
X136936977Y-115559322D01*
X136838314Y-115826177D01*
X136430948Y-115826177D01*
X136197394Y-115592623D01*
X135596463Y-115343709D01*
X134946019Y-115343709D01*
X134345088Y-115592623D01*
X134001241Y-115936470D01*
X133657394Y-115592623D01*
X133056463Y-115343709D01*
X132406019Y-115343709D01*
X131805088Y-115592623D01*
X131461241Y-115936470D01*
X131117394Y-115592623D01*
X130516463Y-115343709D01*
X129866019Y-115343709D01*
X129265088Y-115592623D01*
X128921241Y-115936470D01*
X128577394Y-115592623D01*
X127976463Y-115343709D01*
X127326019Y-115343709D01*
X126725088Y-115592623D01*
X126265155Y-116052556D01*
X126016241Y-116653487D01*
X105234541Y-116653487D01*
X105495198Y-116392830D01*
X105736500Y-115810276D01*
X105736500Y-115179724D01*
X105510341Y-114633726D01*
X121281241Y-114633726D01*
X121281241Y-115005692D01*
X121423586Y-115349344D01*
X121686606Y-115612364D01*
X122030258Y-115754709D01*
X122402224Y-115754709D01*
X122745876Y-115612364D01*
X123008896Y-115349344D01*
X123151241Y-115005692D01*
X123151241Y-114801017D01*
X146486500Y-114801017D01*
X146486500Y-115172983D01*
X146628845Y-115516635D01*
X146891865Y-115779655D01*
X147235517Y-115922000D01*
X147607483Y-115922000D01*
X147796500Y-115843707D01*
X147985517Y-115922000D01*
X148357483Y-115922000D01*
X148701135Y-115779655D01*
X148964155Y-115516635D01*
X149106500Y-115172983D01*
X149106500Y-114801017D01*
X165028500Y-114801017D01*
X165028500Y-115172983D01*
X165170845Y-115516635D01*
X165433865Y-115779655D01*
X165777517Y-115922000D01*
X166149483Y-115922000D01*
X166338500Y-115843707D01*
X166527517Y-115922000D01*
X166899483Y-115922000D01*
X167243135Y-115779655D01*
X167506155Y-115516635D01*
X167648500Y-115172983D01*
X167648500Y-114801017D01*
X167506155Y-114457365D01*
X167243135Y-114194345D01*
X166899483Y-114052000D01*
X166527517Y-114052000D01*
X166338500Y-114130293D01*
X166149483Y-114052000D01*
X165777517Y-114052000D01*
X165433865Y-114194345D01*
X165170845Y-114457365D01*
X165028500Y-114801017D01*
X149106500Y-114801017D01*
X148964155Y-114457365D01*
X148701135Y-114194345D01*
X148357483Y-114052000D01*
X147985517Y-114052000D01*
X147796500Y-114130293D01*
X147607483Y-114052000D01*
X147235517Y-114052000D01*
X146891865Y-114194345D01*
X146628845Y-114457365D01*
X146486500Y-114801017D01*
X123151241Y-114801017D01*
X123151241Y-114633726D01*
X123008896Y-114290074D01*
X122745876Y-114027054D01*
X122402224Y-113884709D01*
X122030258Y-113884709D01*
X121686606Y-114027054D01*
X121423586Y-114290074D01*
X121281241Y-114633726D01*
X105510341Y-114633726D01*
X105495198Y-114597170D01*
X105393028Y-114495000D01*
X105495198Y-114392830D01*
X105736500Y-113810276D01*
X105736500Y-113179724D01*
X105733809Y-113173226D01*
X111248241Y-113173226D01*
X111248241Y-113545192D01*
X111390586Y-113888844D01*
X111653606Y-114151864D01*
X111997258Y-114294209D01*
X112369224Y-114294209D01*
X112712876Y-114151864D01*
X112975896Y-113888844D01*
X113118241Y-113545192D01*
X113118241Y-113173226D01*
X113036359Y-112975543D01*
X114224809Y-112975543D01*
X114224809Y-113347509D01*
X114367154Y-113691161D01*
X114630174Y-113954181D01*
X114973826Y-114096526D01*
X115345792Y-114096526D01*
X115689444Y-113954181D01*
X115952464Y-113691161D01*
X115956579Y-113681226D01*
X191131241Y-113681226D01*
X191131241Y-114053192D01*
X191273586Y-114396844D01*
X191536606Y-114659864D01*
X191880258Y-114802209D01*
X192252224Y-114802209D01*
X192595876Y-114659864D01*
X192858896Y-114396844D01*
X193001241Y-114053192D01*
X193001241Y-113681226D01*
X193417241Y-113681226D01*
X193417241Y-114053192D01*
X193559586Y-114396844D01*
X193822606Y-114659864D01*
X194166258Y-114802209D01*
X194538224Y-114802209D01*
X194881876Y-114659864D01*
X195144896Y-114396844D01*
X195287241Y-114053192D01*
X195287241Y-113681226D01*
X195639741Y-113681226D01*
X195639741Y-114053192D01*
X195782086Y-114396844D01*
X196045106Y-114659864D01*
X196388758Y-114802209D01*
X196760724Y-114802209D01*
X197104376Y-114659864D01*
X197367396Y-114396844D01*
X197509741Y-114053192D01*
X197509741Y-113681226D01*
X197367396Y-113337574D01*
X197104376Y-113074554D01*
X196760724Y-112932209D01*
X196388758Y-112932209D01*
X196045106Y-113074554D01*
X195782086Y-113337574D01*
X195639741Y-113681226D01*
X195287241Y-113681226D01*
X195144896Y-113337574D01*
X194881876Y-113074554D01*
X194538224Y-112932209D01*
X194166258Y-112932209D01*
X193822606Y-113074554D01*
X193559586Y-113337574D01*
X193417241Y-113681226D01*
X193001241Y-113681226D01*
X192858896Y-113337574D01*
X192595876Y-113074554D01*
X192252224Y-112932209D01*
X191880258Y-112932209D01*
X191536606Y-113074554D01*
X191273586Y-113337574D01*
X191131241Y-113681226D01*
X115956579Y-113681226D01*
X116094809Y-113347509D01*
X116094809Y-112975543D01*
X115952464Y-112631891D01*
X115689444Y-112368871D01*
X115345792Y-112226526D01*
X114973826Y-112226526D01*
X114630174Y-112368871D01*
X114367154Y-112631891D01*
X114224809Y-112975543D01*
X113036359Y-112975543D01*
X112975896Y-112829574D01*
X112712876Y-112566554D01*
X112369224Y-112424209D01*
X111997258Y-112424209D01*
X111653606Y-112566554D01*
X111390586Y-112829574D01*
X111248241Y-113173226D01*
X105733809Y-113173226D01*
X105495198Y-112597170D01*
X105143028Y-112245000D01*
X105495198Y-111892830D01*
X105622404Y-111585726D01*
X117026741Y-111585726D01*
X117026741Y-111957692D01*
X117169086Y-112301344D01*
X117432106Y-112564364D01*
X117775758Y-112706709D01*
X118147724Y-112706709D01*
X118491376Y-112564364D01*
X118754396Y-112301344D01*
X118896741Y-111957692D01*
X118896741Y-111871520D01*
X118997865Y-111829633D01*
X119236222Y-111591276D01*
X120798067Y-111591276D01*
X120798067Y-111963242D01*
X120940412Y-112306894D01*
X121203432Y-112569914D01*
X121547084Y-112712259D01*
X121919050Y-112712259D01*
X122262702Y-112569914D01*
X122525722Y-112306894D01*
X122668067Y-111963242D01*
X122668067Y-111591276D01*
X122644247Y-111533769D01*
X122705909Y-111472107D01*
X122848254Y-111128455D01*
X122848254Y-110756489D01*
X122705909Y-110412837D01*
X122442889Y-110149817D01*
X122099237Y-110007472D01*
X121727271Y-110007472D01*
X121383619Y-110149817D01*
X121120599Y-110412837D01*
X120978254Y-110756489D01*
X120978254Y-111128455D01*
X121002074Y-111185962D01*
X120940412Y-111247624D01*
X120798067Y-111591276D01*
X119236222Y-111591276D01*
X119260885Y-111566613D01*
X119403230Y-111222961D01*
X119403230Y-110850995D01*
X119260885Y-110507343D01*
X119172251Y-110418709D01*
X119378140Y-110212820D01*
X119520485Y-109869168D01*
X119520485Y-109497202D01*
X119517596Y-109490226D01*
X122995741Y-109490226D01*
X122995741Y-109862192D01*
X123138086Y-110205844D01*
X123401106Y-110468864D01*
X123744758Y-110611209D01*
X124116724Y-110611209D01*
X124460376Y-110468864D01*
X124723396Y-110205844D01*
X124865741Y-109862192D01*
X124865741Y-109490226D01*
X124723396Y-109146574D01*
X124460376Y-108883554D01*
X124116724Y-108741209D01*
X123744758Y-108741209D01*
X123401106Y-108883554D01*
X123138086Y-109146574D01*
X122995741Y-109490226D01*
X119517596Y-109490226D01*
X119378140Y-109153550D01*
X119115120Y-108890530D01*
X118771468Y-108748185D01*
X118399502Y-108748185D01*
X118055850Y-108890530D01*
X117792830Y-109153550D01*
X117650485Y-109497202D01*
X117650485Y-109869168D01*
X117792830Y-110212820D01*
X117881464Y-110301454D01*
X117675575Y-110507343D01*
X117533230Y-110850995D01*
X117533230Y-110937167D01*
X117432106Y-110979054D01*
X117169086Y-111242074D01*
X117026741Y-111585726D01*
X105622404Y-111585726D01*
X105736500Y-111310276D01*
X105736500Y-110679724D01*
X105495198Y-110097170D01*
X105049330Y-109651302D01*
X104466776Y-109410000D01*
X103836224Y-109410000D01*
X103253670Y-109651302D01*
X102807802Y-110097170D01*
X102566500Y-110679724D01*
X92386241Y-110679724D01*
X92386241Y-107470485D01*
X99156500Y-107470485D01*
X99156500Y-108379515D01*
X99504370Y-109219349D01*
X100147151Y-109862130D01*
X100986985Y-110210000D01*
X101896015Y-110210000D01*
X102735849Y-109862130D01*
X103378630Y-109219349D01*
X103529454Y-108855226D01*
X112899241Y-108855226D01*
X112899241Y-109227192D01*
X113041586Y-109570844D01*
X113304606Y-109833864D01*
X113648258Y-109976209D01*
X114020224Y-109976209D01*
X114363876Y-109833864D01*
X114626896Y-109570844D01*
X114769241Y-109227192D01*
X114769241Y-108855226D01*
X114690334Y-108664726D01*
X129028241Y-108664726D01*
X129028241Y-109036692D01*
X129170586Y-109380344D01*
X129433606Y-109643364D01*
X129777258Y-109785709D01*
X130149224Y-109785709D01*
X130492876Y-109643364D01*
X130519014Y-109617226D01*
X134679741Y-109617226D01*
X134679741Y-109989192D01*
X134822086Y-110332844D01*
X135085106Y-110595864D01*
X135428758Y-110738209D01*
X135800724Y-110738209D01*
X136054175Y-110633226D01*
X137918241Y-110633226D01*
X137918241Y-111005192D01*
X138060586Y-111348844D01*
X138323606Y-111611864D01*
X138667258Y-111754209D01*
X139039224Y-111754209D01*
X139382876Y-111611864D01*
X139645896Y-111348844D01*
X139788241Y-111005192D01*
X139788241Y-110633226D01*
X139645896Y-110289574D01*
X139382876Y-110026554D01*
X139161184Y-109934726D01*
X173097241Y-109934726D01*
X173097241Y-110306692D01*
X173239586Y-110650344D01*
X173502606Y-110913364D01*
X173846258Y-111055709D01*
X174218224Y-111055709D01*
X174561876Y-110913364D01*
X174824896Y-110650344D01*
X174967241Y-110306692D01*
X174967241Y-109934726D01*
X175573741Y-109934726D01*
X175573741Y-110306692D01*
X175716086Y-110650344D01*
X175979106Y-110913364D01*
X176322758Y-111055709D01*
X176694724Y-111055709D01*
X177038376Y-110913364D01*
X177301396Y-110650344D01*
X177443741Y-110306692D01*
X177443741Y-109934726D01*
X178113741Y-109934726D01*
X178113741Y-110306692D01*
X178256086Y-110650344D01*
X178519106Y-110913364D01*
X178862758Y-111055709D01*
X179234724Y-111055709D01*
X179578376Y-110913364D01*
X179841396Y-110650344D01*
X179983741Y-110306692D01*
X179983741Y-109934726D01*
X180717241Y-109934726D01*
X180717241Y-110306692D01*
X180859586Y-110650344D01*
X181122606Y-110913364D01*
X181466258Y-111055709D01*
X181838224Y-111055709D01*
X182181876Y-110913364D01*
X182444896Y-110650344D01*
X182587241Y-110306692D01*
X182587241Y-109934726D01*
X182444896Y-109591074D01*
X182181876Y-109328054D01*
X181838224Y-109185709D01*
X181466258Y-109185709D01*
X181122606Y-109328054D01*
X180859586Y-109591074D01*
X180717241Y-109934726D01*
X179983741Y-109934726D01*
X179841396Y-109591074D01*
X179578376Y-109328054D01*
X179234724Y-109185709D01*
X178862758Y-109185709D01*
X178519106Y-109328054D01*
X178256086Y-109591074D01*
X178113741Y-109934726D01*
X177443741Y-109934726D01*
X177301396Y-109591074D01*
X177038376Y-109328054D01*
X176694724Y-109185709D01*
X176322758Y-109185709D01*
X175979106Y-109328054D01*
X175716086Y-109591074D01*
X175573741Y-109934726D01*
X174967241Y-109934726D01*
X174824896Y-109591074D01*
X174561876Y-109328054D01*
X174218224Y-109185709D01*
X173846258Y-109185709D01*
X173502606Y-109328054D01*
X173239586Y-109591074D01*
X173097241Y-109934726D01*
X139161184Y-109934726D01*
X139039224Y-109884209D01*
X138667258Y-109884209D01*
X138323606Y-110026554D01*
X138060586Y-110289574D01*
X137918241Y-110633226D01*
X136054175Y-110633226D01*
X136144376Y-110595864D01*
X136407396Y-110332844D01*
X136549741Y-109989192D01*
X136549741Y-109617226D01*
X136407396Y-109273574D01*
X136226548Y-109092726D01*
X194336241Y-109092726D01*
X194336241Y-109464692D01*
X194478586Y-109808344D01*
X194741606Y-110071364D01*
X195085258Y-110213709D01*
X195457224Y-110213709D01*
X195800876Y-110071364D01*
X196063896Y-109808344D01*
X196206241Y-109464692D01*
X196206241Y-109092726D01*
X196063896Y-108749074D01*
X195800876Y-108486054D01*
X195457224Y-108343709D01*
X195085258Y-108343709D01*
X194741606Y-108486054D01*
X194478586Y-108749074D01*
X194336241Y-109092726D01*
X136226548Y-109092726D01*
X136144376Y-109010554D01*
X135800724Y-108868209D01*
X135428758Y-108868209D01*
X135085106Y-109010554D01*
X134822086Y-109273574D01*
X134679741Y-109617226D01*
X130519014Y-109617226D01*
X130755896Y-109380344D01*
X130898241Y-109036692D01*
X130898241Y-108664726D01*
X130755896Y-108321074D01*
X130492876Y-108058054D01*
X130149224Y-107915709D01*
X129777258Y-107915709D01*
X129433606Y-108058054D01*
X129170586Y-108321074D01*
X129028241Y-108664726D01*
X114690334Y-108664726D01*
X114626896Y-108511574D01*
X114363876Y-108248554D01*
X114020224Y-108106209D01*
X113648258Y-108106209D01*
X113304606Y-108248554D01*
X113041586Y-108511574D01*
X112899241Y-108855226D01*
X103529454Y-108855226D01*
X103726500Y-108379515D01*
X103726500Y-107470485D01*
X103589910Y-107140726D01*
X126107241Y-107140726D01*
X126107241Y-107512692D01*
X126249586Y-107856344D01*
X126512606Y-108119364D01*
X126856258Y-108261709D01*
X127228224Y-108261709D01*
X127571876Y-108119364D01*
X127834896Y-107856344D01*
X127977241Y-107512692D01*
X127977241Y-107192183D01*
X155232334Y-107192183D01*
X155232334Y-107564149D01*
X155374679Y-107907801D01*
X155637699Y-108170821D01*
X155981351Y-108313166D01*
X156353317Y-108313166D01*
X156696969Y-108170821D01*
X156959989Y-107907801D01*
X157007654Y-107792726D01*
X182136241Y-107792726D01*
X182136241Y-108164692D01*
X182278586Y-108508344D01*
X182541606Y-108771364D01*
X182885258Y-108913709D01*
X183257224Y-108913709D01*
X183600876Y-108771364D01*
X183863896Y-108508344D01*
X184006241Y-108164692D01*
X184006241Y-107792726D01*
X187136241Y-107792726D01*
X187136241Y-108164692D01*
X187278586Y-108508344D01*
X187541606Y-108771364D01*
X187885258Y-108913709D01*
X188257224Y-108913709D01*
X188600876Y-108771364D01*
X188863896Y-108508344D01*
X189006241Y-108164692D01*
X189006241Y-107792726D01*
X188863896Y-107449074D01*
X188600876Y-107186054D01*
X188257224Y-107043709D01*
X187885258Y-107043709D01*
X187541606Y-107186054D01*
X187278586Y-107449074D01*
X187136241Y-107792726D01*
X184006241Y-107792726D01*
X183863896Y-107449074D01*
X183600876Y-107186054D01*
X183257224Y-107043709D01*
X182885258Y-107043709D01*
X182541606Y-107186054D01*
X182278586Y-107449074D01*
X182136241Y-107792726D01*
X157007654Y-107792726D01*
X157038283Y-107718783D01*
X157227301Y-107640489D01*
X157490321Y-107377469D01*
X157632666Y-107033817D01*
X157632666Y-106661851D01*
X157490321Y-106318199D01*
X157227301Y-106055179D01*
X156883649Y-105912834D01*
X156511683Y-105912834D01*
X156168031Y-106055179D01*
X155905011Y-106318199D01*
X155826717Y-106507217D01*
X155637699Y-106585511D01*
X155374679Y-106848531D01*
X155232334Y-107192183D01*
X127977241Y-107192183D01*
X127977241Y-107140726D01*
X127834896Y-106797074D01*
X127571876Y-106534054D01*
X127228224Y-106391709D01*
X126856258Y-106391709D01*
X126512606Y-106534054D01*
X126249586Y-106797074D01*
X126107241Y-107140726D01*
X103589910Y-107140726D01*
X103378630Y-106630651D01*
X102735849Y-105987870D01*
X101896015Y-105640000D01*
X100986985Y-105640000D01*
X100147151Y-105987870D01*
X99504370Y-106630651D01*
X99156500Y-107470485D01*
X92386241Y-107470485D01*
X92386241Y-105616726D01*
X185733741Y-105616726D01*
X185733741Y-105988692D01*
X185876086Y-106332344D01*
X186139106Y-106595364D01*
X186482758Y-106737709D01*
X186854724Y-106737709D01*
X187198376Y-106595364D01*
X187461396Y-106332344D01*
X187603741Y-105988692D01*
X187603741Y-105616726D01*
X187461396Y-105273074D01*
X187198376Y-105010054D01*
X186854724Y-104867709D01*
X186482758Y-104867709D01*
X186139106Y-105010054D01*
X185876086Y-105273074D01*
X185733741Y-105616726D01*
X92386241Y-105616726D01*
X92386241Y-102366183D01*
X149644334Y-102366183D01*
X149644334Y-102738149D01*
X149786679Y-103081801D01*
X150049699Y-103344821D01*
X150393351Y-103487166D01*
X150765317Y-103487166D01*
X151108969Y-103344821D01*
X151371989Y-103081801D01*
X151450283Y-102892783D01*
X151639301Y-102814489D01*
X151902321Y-102551469D01*
X152044666Y-102207817D01*
X152044666Y-101835851D01*
X151902321Y-101492199D01*
X151639301Y-101229179D01*
X151551296Y-101192726D01*
X195136241Y-101192726D01*
X195136241Y-101564692D01*
X195278586Y-101908344D01*
X195541606Y-102171364D01*
X195885258Y-102313709D01*
X196257224Y-102313709D01*
X196600876Y-102171364D01*
X196863896Y-101908344D01*
X197006241Y-101564692D01*
X197006241Y-101192726D01*
X196863896Y-100849074D01*
X196600876Y-100586054D01*
X196257224Y-100443709D01*
X195885258Y-100443709D01*
X195541606Y-100586054D01*
X195278586Y-100849074D01*
X195136241Y-101192726D01*
X151551296Y-101192726D01*
X151295649Y-101086834D01*
X150923683Y-101086834D01*
X150580031Y-101229179D01*
X150317011Y-101492199D01*
X150238717Y-101681217D01*
X150049699Y-101759511D01*
X149786679Y-102022531D01*
X149644334Y-102366183D01*
X92386241Y-102366183D01*
X92386241Y-99593107D01*
X95504241Y-99593107D01*
X95504241Y-100104311D01*
X95699870Y-100576603D01*
X96061347Y-100938080D01*
X96533639Y-101133709D01*
X97044843Y-101133709D01*
X97517135Y-100938080D01*
X97878612Y-100576603D01*
X98074241Y-100104311D01*
X98074241Y-99593107D01*
X97878612Y-99120815D01*
X97517135Y-98759338D01*
X97044843Y-98563709D01*
X96533639Y-98563709D01*
X96061347Y-98759338D01*
X95699870Y-99120815D01*
X95504241Y-99593107D01*
X92386241Y-99593107D01*
X92386241Y-90593107D01*
X95504241Y-90593107D01*
X95504241Y-91104311D01*
X95699870Y-91576603D01*
X96061347Y-91938080D01*
X96533639Y-92133709D01*
X97044843Y-92133709D01*
X97517135Y-91938080D01*
X97878612Y-91576603D01*
X98074241Y-91104311D01*
X98074241Y-90593107D01*
X97878612Y-90120815D01*
X97517135Y-89759338D01*
X97044843Y-89563709D01*
X96533639Y-89563709D01*
X96061347Y-89759338D01*
X95699870Y-90120815D01*
X95504241Y-90593107D01*
X92386241Y-90593107D01*
X92386241Y-85213709D01*
X199916242Y-85213709D01*
X199916241Y-123743709D01*
X199916241Y-123743709D01*
G37*
X199916241Y-123743709D02*
X92386241Y-123743709D01*
X92386241Y-120610485D01*
X99156500Y-120610485D01*
X99156500Y-121519515D01*
X99504370Y-122359349D01*
X100147151Y-123002130D01*
X100986985Y-123350000D01*
X101896015Y-123350000D01*
X102735849Y-123002130D01*
X103378630Y-122359349D01*
X103726500Y-121519515D01*
X103726500Y-120610485D01*
X103378630Y-119770651D01*
X102735849Y-119127870D01*
X102695967Y-119111350D01*
X103214755Y-119111350D01*
X103307292Y-119373019D01*
X103898898Y-119591188D01*
X104528961Y-119566352D01*
X104995708Y-119373019D01*
X105088245Y-119111350D01*
X104928621Y-118951726D01*
X110105241Y-118951726D01*
X110105241Y-119323692D01*
X110247586Y-119667344D01*
X110510606Y-119930364D01*
X110854258Y-120072709D01*
X111226224Y-120072709D01*
X111569876Y-119930364D01*
X111832896Y-119667344D01*
X111971499Y-119332726D01*
X123376741Y-119332726D01*
X123376741Y-119704692D01*
X123519086Y-120048344D01*
X123782106Y-120311364D01*
X124125758Y-120453709D01*
X124497724Y-120453709D01*
X124841376Y-120311364D01*
X125104396Y-120048344D01*
X125246741Y-119704692D01*
X125246741Y-119332726D01*
X125104396Y-118989074D01*
X124841376Y-118726054D01*
X124497724Y-118583709D01*
X124125758Y-118583709D01*
X123782106Y-118726054D01*
X123519086Y-118989074D01*
X123376741Y-119332726D01*
X111971499Y-119332726D01*
X111975241Y-119323692D01*
X111975241Y-118951726D01*
X111832896Y-118608074D01*
X111569876Y-118345054D01*
X111226224Y-118202709D01*
X110854258Y-118202709D01*
X110510606Y-118345054D01*
X110247586Y-118608074D01*
X110105241Y-118951726D01*
X104928621Y-118951726D01*
X104151500Y-118174605D01*
X103214755Y-119111350D01*
X102695967Y-119111350D01*
X101896015Y-118780000D01*
X100986985Y-118780000D01*
X100147151Y-119127870D01*
X99504370Y-119770651D01*
X99156500Y-120610485D01*
X92386241Y-120610485D01*
X92386241Y-117742398D01*
X102555312Y-117742398D01*
X102580148Y-118372461D01*
X102773481Y-118839208D01*
X103035150Y-118931745D01*
X103971895Y-117995000D01*
X104331105Y-117995000D01*
X105267850Y-118931745D01*
X105529519Y-118839208D01*
X105747688Y-118247602D01*
X105722852Y-117617539D01*
X105529519Y-117150792D01*
X105267850Y-117058255D01*
X104331105Y-117995000D01*
X103971895Y-117995000D01*
X103035150Y-117058255D01*
X102773481Y-117150792D01*
X102555312Y-117742398D01*
X92386241Y-117742398D01*
X92386241Y-110679724D01*
X102566500Y-110679724D01*
X102566500Y-111310276D01*
X102807802Y-111892830D01*
X103159972Y-112245000D01*
X102807802Y-112597170D01*
X102566500Y-113179724D01*
X102566500Y-113810276D01*
X102807802Y-114392830D01*
X102909972Y-114495000D01*
X102807802Y-114597170D01*
X102566500Y-115179724D01*
X102566500Y-115810276D01*
X102807802Y-116392830D01*
X103235359Y-116820387D01*
X103214755Y-116878650D01*
X104151500Y-117815395D01*
X105088245Y-116878650D01*
X105067641Y-116820387D01*
X105234541Y-116653487D01*
X126016241Y-116653487D01*
X126016241Y-117303931D01*
X126265155Y-117904862D01*
X126609002Y-118248709D01*
X126265155Y-118592556D01*
X126016241Y-119193487D01*
X126016241Y-119843931D01*
X126265155Y-120444862D01*
X126725088Y-120904795D01*
X127326019Y-121153709D01*
X127976463Y-121153709D01*
X128577394Y-120904795D01*
X128921241Y-120560948D01*
X129265088Y-120904795D01*
X129866019Y-121153709D01*
X130516463Y-121153709D01*
X131117394Y-120904795D01*
X131461241Y-120560948D01*
X131805088Y-120904795D01*
X132406019Y-121153709D01*
X133056463Y-121153709D01*
X133657394Y-120904795D01*
X134001241Y-120560948D01*
X134345088Y-120904795D01*
X134946019Y-121153709D01*
X135596463Y-121153709D01*
X136197394Y-120904795D01*
X136430948Y-120671241D01*
X136838314Y-120671241D01*
X136936977Y-120938096D01*
X137546702Y-121164617D01*
X138196701Y-121140565D01*
X138685505Y-120938096D01*
X138784168Y-120671241D01*
X137811241Y-119698314D01*
X136838314Y-120671241D01*
X136430948Y-120671241D01*
X136623552Y-120478637D01*
X136658709Y-120491636D01*
X137631636Y-119518709D01*
X136658709Y-118545782D01*
X136623552Y-118558781D01*
X136313480Y-118248709D01*
X136430948Y-118131241D01*
X136838314Y-118131241D01*
X136881745Y-118248709D01*
X136838314Y-118366177D01*
X137811241Y-119339104D01*
X138784168Y-118366177D01*
X138740737Y-118248709D01*
X138784168Y-118131241D01*
X137811241Y-117158314D01*
X136838314Y-118131241D01*
X136430948Y-118131241D01*
X136623552Y-117938637D01*
X136658709Y-117951636D01*
X137631636Y-116978709D01*
X137990846Y-116978709D01*
X138963773Y-117951636D01*
X138998930Y-117938637D01*
X139309002Y-118248709D01*
X138998930Y-118558781D01*
X138963773Y-118545782D01*
X137990846Y-119518709D01*
X138963773Y-120491636D01*
X138998930Y-120478637D01*
X139425088Y-120904795D01*
X140026019Y-121153709D01*
X140676463Y-121153709D01*
X141277394Y-120904795D01*
X141737327Y-120444862D01*
X141986241Y-119843931D01*
X141986241Y-119193487D01*
X141737327Y-118592556D01*
X141393480Y-118248709D01*
X141737327Y-117904862D01*
X141986241Y-117303931D01*
X141986241Y-116653487D01*
X149016241Y-116653487D01*
X149016241Y-117303931D01*
X149265155Y-117904862D01*
X149609002Y-118248709D01*
X149265155Y-118592556D01*
X149016241Y-119193487D01*
X149016241Y-119843931D01*
X149265155Y-120444862D01*
X149725088Y-120904795D01*
X150326019Y-121153709D01*
X150976463Y-121153709D01*
X151577394Y-120904795D01*
X151921241Y-120560948D01*
X152265088Y-120904795D01*
X152866019Y-121153709D01*
X153516463Y-121153709D01*
X154117394Y-120904795D01*
X154461241Y-120560948D01*
X154805088Y-120904795D01*
X155406019Y-121153709D01*
X156056463Y-121153709D01*
X156657394Y-120904795D01*
X157001241Y-120560948D01*
X157345088Y-120904795D01*
X157946019Y-121153709D01*
X158596463Y-121153709D01*
X159197394Y-120904795D01*
X159430948Y-120671241D01*
X159838314Y-120671241D01*
X159936977Y-120938096D01*
X160546702Y-121164617D01*
X161196701Y-121140565D01*
X161685505Y-120938096D01*
X161784168Y-120671241D01*
X160811241Y-119698314D01*
X159838314Y-120671241D01*
X159430948Y-120671241D01*
X159623552Y-120478637D01*
X159658709Y-120491636D01*
X160631636Y-119518709D01*
X159658709Y-118545782D01*
X159623552Y-118558781D01*
X159313480Y-118248709D01*
X159430948Y-118131241D01*
X159838314Y-118131241D01*
X159881745Y-118248709D01*
X159838314Y-118366177D01*
X160811241Y-119339104D01*
X161784168Y-118366177D01*
X161740737Y-118248709D01*
X161784168Y-118131241D01*
X160811241Y-117158314D01*
X159838314Y-118131241D01*
X159430948Y-118131241D01*
X159623552Y-117938637D01*
X159658709Y-117951636D01*
X160631636Y-116978709D01*
X160990846Y-116978709D01*
X161963773Y-117951636D01*
X161998930Y-117938637D01*
X162309002Y-118248709D01*
X161998930Y-118558781D01*
X161963773Y-118545782D01*
X160990846Y-119518709D01*
X161963773Y-120491636D01*
X161998930Y-120478637D01*
X162425088Y-120904795D01*
X163026019Y-121153709D01*
X163676463Y-121153709D01*
X164277394Y-120904795D01*
X164737327Y-120444862D01*
X164986241Y-119843931D01*
X164986241Y-119193487D01*
X164737327Y-118592556D01*
X164393480Y-118248709D01*
X164737327Y-117904862D01*
X164986241Y-117303931D01*
X164986241Y-116653487D01*
X172016241Y-116653487D01*
X172016241Y-117303931D01*
X172265155Y-117904862D01*
X172609002Y-118248709D01*
X172265155Y-118592556D01*
X172016241Y-119193487D01*
X172016241Y-119843931D01*
X172265155Y-120444862D01*
X172725088Y-120904795D01*
X173326019Y-121153709D01*
X173976463Y-121153709D01*
X174577394Y-120904795D01*
X174921241Y-120560948D01*
X175265088Y-120904795D01*
X175866019Y-121153709D01*
X176516463Y-121153709D01*
X177117394Y-120904795D01*
X177461241Y-120560948D01*
X177805088Y-120904795D01*
X178406019Y-121153709D01*
X179056463Y-121153709D01*
X179657394Y-120904795D01*
X180001241Y-120560948D01*
X180345088Y-120904795D01*
X180946019Y-121153709D01*
X181596463Y-121153709D01*
X182197394Y-120904795D01*
X182430948Y-120671241D01*
X182838314Y-120671241D01*
X182936977Y-120938096D01*
X183546702Y-121164617D01*
X184196701Y-121140565D01*
X184685505Y-120938096D01*
X184784168Y-120671241D01*
X183811241Y-119698314D01*
X182838314Y-120671241D01*
X182430948Y-120671241D01*
X182623552Y-120478637D01*
X182658709Y-120491636D01*
X183631636Y-119518709D01*
X182658709Y-118545782D01*
X182623552Y-118558781D01*
X182313480Y-118248709D01*
X182430948Y-118131241D01*
X182838314Y-118131241D01*
X182881745Y-118248709D01*
X182838314Y-118366177D01*
X183811241Y-119339104D01*
X184784168Y-118366177D01*
X184740737Y-118248709D01*
X184784168Y-118131241D01*
X183811241Y-117158314D01*
X182838314Y-118131241D01*
X182430948Y-118131241D01*
X182623552Y-117938637D01*
X182658709Y-117951636D01*
X183631636Y-116978709D01*
X183990846Y-116978709D01*
X184963773Y-117951636D01*
X184998930Y-117938637D01*
X185309002Y-118248709D01*
X184998930Y-118558781D01*
X184963773Y-118545782D01*
X183990846Y-119518709D01*
X184963773Y-120491636D01*
X184998930Y-120478637D01*
X185425088Y-120904795D01*
X186026019Y-121153709D01*
X186676463Y-121153709D01*
X187277394Y-120904795D01*
X187737327Y-120444862D01*
X187986241Y-119843931D01*
X187986241Y-119193487D01*
X187737327Y-118592556D01*
X187393480Y-118248709D01*
X187737327Y-117904862D01*
X187986241Y-117303931D01*
X187986241Y-116653487D01*
X187737327Y-116052556D01*
X187277394Y-115592623D01*
X186676463Y-115343709D01*
X186026019Y-115343709D01*
X185425088Y-115592623D01*
X184998930Y-116018781D01*
X184963773Y-116005782D01*
X183990846Y-116978709D01*
X183631636Y-116978709D01*
X182658709Y-116005782D01*
X182623552Y-116018781D01*
X182430948Y-115826177D01*
X182838314Y-115826177D01*
X183811241Y-116799104D01*
X184784168Y-115826177D01*
X184685505Y-115559322D01*
X184075780Y-115332801D01*
X183425781Y-115356853D01*
X182936977Y-115559322D01*
X182838314Y-115826177D01*
X182430948Y-115826177D01*
X182197394Y-115592623D01*
X181596463Y-115343709D01*
X180946019Y-115343709D01*
X180345088Y-115592623D01*
X180001241Y-115936470D01*
X179657394Y-115592623D01*
X179056463Y-115343709D01*
X178406019Y-115343709D01*
X177805088Y-115592623D01*
X177461241Y-115936470D01*
X177117394Y-115592623D01*
X176516463Y-115343709D01*
X175866019Y-115343709D01*
X175265088Y-115592623D01*
X174921241Y-115936470D01*
X174577394Y-115592623D01*
X173976463Y-115343709D01*
X173326019Y-115343709D01*
X172725088Y-115592623D01*
X172265155Y-116052556D01*
X172016241Y-116653487D01*
X164986241Y-116653487D01*
X164737327Y-116052556D01*
X164277394Y-115592623D01*
X163676463Y-115343709D01*
X163026019Y-115343709D01*
X162425088Y-115592623D01*
X161998930Y-116018781D01*
X161963773Y-116005782D01*
X160990846Y-116978709D01*
X160631636Y-116978709D01*
X159658709Y-116005782D01*
X159623552Y-116018781D01*
X159430948Y-115826177D01*
X159838314Y-115826177D01*
X160811241Y-116799104D01*
X161784168Y-115826177D01*
X161685505Y-115559322D01*
X161075780Y-115332801D01*
X160425781Y-115356853D01*
X159936977Y-115559322D01*
X159838314Y-115826177D01*
X159430948Y-115826177D01*
X159197394Y-115592623D01*
X158596463Y-115343709D01*
X157946019Y-115343709D01*
X157345088Y-115592623D01*
X157001241Y-115936470D01*
X156657394Y-115592623D01*
X156056463Y-115343709D01*
X155406019Y-115343709D01*
X154805088Y-115592623D01*
X154461241Y-115936470D01*
X154117394Y-115592623D01*
X153516463Y-115343709D01*
X152866019Y-115343709D01*
X152265088Y-115592623D01*
X151921241Y-115936470D01*
X151577394Y-115592623D01*
X150976463Y-115343709D01*
X150326019Y-115343709D01*
X149725088Y-115592623D01*
X149265155Y-116052556D01*
X149016241Y-116653487D01*
X141986241Y-116653487D01*
X141737327Y-116052556D01*
X141277394Y-115592623D01*
X140676463Y-115343709D01*
X140026019Y-115343709D01*
X139425088Y-115592623D01*
X138998930Y-116018781D01*
X138963773Y-116005782D01*
X137990846Y-116978709D01*
X137631636Y-116978709D01*
X136658709Y-116005782D01*
X136623552Y-116018781D01*
X136430948Y-115826177D01*
X136838314Y-115826177D01*
X137811241Y-116799104D01*
X138784168Y-115826177D01*
X138685505Y-115559322D01*
X138075780Y-115332801D01*
X137425781Y-115356853D01*
X136936977Y-115559322D01*
X136838314Y-115826177D01*
X136430948Y-115826177D01*
X136197394Y-115592623D01*
X135596463Y-115343709D01*
X134946019Y-115343709D01*
X134345088Y-115592623D01*
X134001241Y-115936470D01*
X133657394Y-115592623D01*
X133056463Y-115343709D01*
X132406019Y-115343709D01*
X131805088Y-115592623D01*
X131461241Y-115936470D01*
X131117394Y-115592623D01*
X130516463Y-115343709D01*
X129866019Y-115343709D01*
X129265088Y-115592623D01*
X128921241Y-115936470D01*
X128577394Y-115592623D01*
X127976463Y-115343709D01*
X127326019Y-115343709D01*
X126725088Y-115592623D01*
X126265155Y-116052556D01*
X126016241Y-116653487D01*
X105234541Y-116653487D01*
X105495198Y-116392830D01*
X105736500Y-115810276D01*
X105736500Y-115179724D01*
X105510341Y-114633726D01*
X121281241Y-114633726D01*
X121281241Y-115005692D01*
X121423586Y-115349344D01*
X121686606Y-115612364D01*
X122030258Y-115754709D01*
X122402224Y-115754709D01*
X122745876Y-115612364D01*
X123008896Y-115349344D01*
X123151241Y-115005692D01*
X123151241Y-114801017D01*
X146486500Y-114801017D01*
X146486500Y-115172983D01*
X146628845Y-115516635D01*
X146891865Y-115779655D01*
X147235517Y-115922000D01*
X147607483Y-115922000D01*
X147796500Y-115843707D01*
X147985517Y-115922000D01*
X148357483Y-115922000D01*
X148701135Y-115779655D01*
X148964155Y-115516635D01*
X149106500Y-115172983D01*
X149106500Y-114801017D01*
X165028500Y-114801017D01*
X165028500Y-115172983D01*
X165170845Y-115516635D01*
X165433865Y-115779655D01*
X165777517Y-115922000D01*
X166149483Y-115922000D01*
X166338500Y-115843707D01*
X166527517Y-115922000D01*
X166899483Y-115922000D01*
X167243135Y-115779655D01*
X167506155Y-115516635D01*
X167648500Y-115172983D01*
X167648500Y-114801017D01*
X167506155Y-114457365D01*
X167243135Y-114194345D01*
X166899483Y-114052000D01*
X166527517Y-114052000D01*
X166338500Y-114130293D01*
X166149483Y-114052000D01*
X165777517Y-114052000D01*
X165433865Y-114194345D01*
X165170845Y-114457365D01*
X165028500Y-114801017D01*
X149106500Y-114801017D01*
X148964155Y-114457365D01*
X148701135Y-114194345D01*
X148357483Y-114052000D01*
X147985517Y-114052000D01*
X147796500Y-114130293D01*
X147607483Y-114052000D01*
X147235517Y-114052000D01*
X146891865Y-114194345D01*
X146628845Y-114457365D01*
X146486500Y-114801017D01*
X123151241Y-114801017D01*
X123151241Y-114633726D01*
X123008896Y-114290074D01*
X122745876Y-114027054D01*
X122402224Y-113884709D01*
X122030258Y-113884709D01*
X121686606Y-114027054D01*
X121423586Y-114290074D01*
X121281241Y-114633726D01*
X105510341Y-114633726D01*
X105495198Y-114597170D01*
X105393028Y-114495000D01*
X105495198Y-114392830D01*
X105736500Y-113810276D01*
X105736500Y-113179724D01*
X105733809Y-113173226D01*
X111248241Y-113173226D01*
X111248241Y-113545192D01*
X111390586Y-113888844D01*
X111653606Y-114151864D01*
X111997258Y-114294209D01*
X112369224Y-114294209D01*
X112712876Y-114151864D01*
X112975896Y-113888844D01*
X113118241Y-113545192D01*
X113118241Y-113173226D01*
X113036359Y-112975543D01*
X114224809Y-112975543D01*
X114224809Y-113347509D01*
X114367154Y-113691161D01*
X114630174Y-113954181D01*
X114973826Y-114096526D01*
X115345792Y-114096526D01*
X115689444Y-113954181D01*
X115952464Y-113691161D01*
X115956579Y-113681226D01*
X191131241Y-113681226D01*
X191131241Y-114053192D01*
X191273586Y-114396844D01*
X191536606Y-114659864D01*
X191880258Y-114802209D01*
X192252224Y-114802209D01*
X192595876Y-114659864D01*
X192858896Y-114396844D01*
X193001241Y-114053192D01*
X193001241Y-113681226D01*
X193417241Y-113681226D01*
X193417241Y-114053192D01*
X193559586Y-114396844D01*
X193822606Y-114659864D01*
X194166258Y-114802209D01*
X194538224Y-114802209D01*
X194881876Y-114659864D01*
X195144896Y-114396844D01*
X195287241Y-114053192D01*
X195287241Y-113681226D01*
X195639741Y-113681226D01*
X195639741Y-114053192D01*
X195782086Y-114396844D01*
X196045106Y-114659864D01*
X196388758Y-114802209D01*
X196760724Y-114802209D01*
X197104376Y-114659864D01*
X197367396Y-114396844D01*
X197509741Y-114053192D01*
X197509741Y-113681226D01*
X197367396Y-113337574D01*
X197104376Y-113074554D01*
X196760724Y-112932209D01*
X196388758Y-112932209D01*
X196045106Y-113074554D01*
X195782086Y-113337574D01*
X195639741Y-113681226D01*
X195287241Y-113681226D01*
X195144896Y-113337574D01*
X194881876Y-113074554D01*
X194538224Y-112932209D01*
X194166258Y-112932209D01*
X193822606Y-113074554D01*
X193559586Y-113337574D01*
X193417241Y-113681226D01*
X193001241Y-113681226D01*
X192858896Y-113337574D01*
X192595876Y-113074554D01*
X192252224Y-112932209D01*
X191880258Y-112932209D01*
X191536606Y-113074554D01*
X191273586Y-113337574D01*
X191131241Y-113681226D01*
X115956579Y-113681226D01*
X116094809Y-113347509D01*
X116094809Y-112975543D01*
X115952464Y-112631891D01*
X115689444Y-112368871D01*
X115345792Y-112226526D01*
X114973826Y-112226526D01*
X114630174Y-112368871D01*
X114367154Y-112631891D01*
X114224809Y-112975543D01*
X113036359Y-112975543D01*
X112975896Y-112829574D01*
X112712876Y-112566554D01*
X112369224Y-112424209D01*
X111997258Y-112424209D01*
X111653606Y-112566554D01*
X111390586Y-112829574D01*
X111248241Y-113173226D01*
X105733809Y-113173226D01*
X105495198Y-112597170D01*
X105143028Y-112245000D01*
X105495198Y-111892830D01*
X105622404Y-111585726D01*
X117026741Y-111585726D01*
X117026741Y-111957692D01*
X117169086Y-112301344D01*
X117432106Y-112564364D01*
X117775758Y-112706709D01*
X118147724Y-112706709D01*
X118491376Y-112564364D01*
X118754396Y-112301344D01*
X118896741Y-111957692D01*
X118896741Y-111871520D01*
X118997865Y-111829633D01*
X119236222Y-111591276D01*
X120798067Y-111591276D01*
X120798067Y-111963242D01*
X120940412Y-112306894D01*
X121203432Y-112569914D01*
X121547084Y-112712259D01*
X121919050Y-112712259D01*
X122262702Y-112569914D01*
X122525722Y-112306894D01*
X122668067Y-111963242D01*
X122668067Y-111591276D01*
X122644247Y-111533769D01*
X122705909Y-111472107D01*
X122848254Y-111128455D01*
X122848254Y-110756489D01*
X122705909Y-110412837D01*
X122442889Y-110149817D01*
X122099237Y-110007472D01*
X121727271Y-110007472D01*
X121383619Y-110149817D01*
X121120599Y-110412837D01*
X120978254Y-110756489D01*
X120978254Y-111128455D01*
X121002074Y-111185962D01*
X120940412Y-111247624D01*
X120798067Y-111591276D01*
X119236222Y-111591276D01*
X119260885Y-111566613D01*
X119403230Y-111222961D01*
X119403230Y-110850995D01*
X119260885Y-110507343D01*
X119172251Y-110418709D01*
X119378140Y-110212820D01*
X119520485Y-109869168D01*
X119520485Y-109497202D01*
X119517596Y-109490226D01*
X122995741Y-109490226D01*
X122995741Y-109862192D01*
X123138086Y-110205844D01*
X123401106Y-110468864D01*
X123744758Y-110611209D01*
X124116724Y-110611209D01*
X124460376Y-110468864D01*
X124723396Y-110205844D01*
X124865741Y-109862192D01*
X124865741Y-109490226D01*
X124723396Y-109146574D01*
X124460376Y-108883554D01*
X124116724Y-108741209D01*
X123744758Y-108741209D01*
X123401106Y-108883554D01*
X123138086Y-109146574D01*
X122995741Y-109490226D01*
X119517596Y-109490226D01*
X119378140Y-109153550D01*
X119115120Y-108890530D01*
X118771468Y-108748185D01*
X118399502Y-108748185D01*
X118055850Y-108890530D01*
X117792830Y-109153550D01*
X117650485Y-109497202D01*
X117650485Y-109869168D01*
X117792830Y-110212820D01*
X117881464Y-110301454D01*
X117675575Y-110507343D01*
X117533230Y-110850995D01*
X117533230Y-110937167D01*
X117432106Y-110979054D01*
X117169086Y-111242074D01*
X117026741Y-111585726D01*
X105622404Y-111585726D01*
X105736500Y-111310276D01*
X105736500Y-110679724D01*
X105495198Y-110097170D01*
X105049330Y-109651302D01*
X104466776Y-109410000D01*
X103836224Y-109410000D01*
X103253670Y-109651302D01*
X102807802Y-110097170D01*
X102566500Y-110679724D01*
X92386241Y-110679724D01*
X92386241Y-107470485D01*
X99156500Y-107470485D01*
X99156500Y-108379515D01*
X99504370Y-109219349D01*
X100147151Y-109862130D01*
X100986985Y-110210000D01*
X101896015Y-110210000D01*
X102735849Y-109862130D01*
X103378630Y-109219349D01*
X103529454Y-108855226D01*
X112899241Y-108855226D01*
X112899241Y-109227192D01*
X113041586Y-109570844D01*
X113304606Y-109833864D01*
X113648258Y-109976209D01*
X114020224Y-109976209D01*
X114363876Y-109833864D01*
X114626896Y-109570844D01*
X114769241Y-109227192D01*
X114769241Y-108855226D01*
X114690334Y-108664726D01*
X129028241Y-108664726D01*
X129028241Y-109036692D01*
X129170586Y-109380344D01*
X129433606Y-109643364D01*
X129777258Y-109785709D01*
X130149224Y-109785709D01*
X130492876Y-109643364D01*
X130519014Y-109617226D01*
X134679741Y-109617226D01*
X134679741Y-109989192D01*
X134822086Y-110332844D01*
X135085106Y-110595864D01*
X135428758Y-110738209D01*
X135800724Y-110738209D01*
X136054175Y-110633226D01*
X137918241Y-110633226D01*
X137918241Y-111005192D01*
X138060586Y-111348844D01*
X138323606Y-111611864D01*
X138667258Y-111754209D01*
X139039224Y-111754209D01*
X139382876Y-111611864D01*
X139645896Y-111348844D01*
X139788241Y-111005192D01*
X139788241Y-110633226D01*
X139645896Y-110289574D01*
X139382876Y-110026554D01*
X139161184Y-109934726D01*
X173097241Y-109934726D01*
X173097241Y-110306692D01*
X173239586Y-110650344D01*
X173502606Y-110913364D01*
X173846258Y-111055709D01*
X174218224Y-111055709D01*
X174561876Y-110913364D01*
X174824896Y-110650344D01*
X174967241Y-110306692D01*
X174967241Y-109934726D01*
X175573741Y-109934726D01*
X175573741Y-110306692D01*
X175716086Y-110650344D01*
X175979106Y-110913364D01*
X176322758Y-111055709D01*
X176694724Y-111055709D01*
X177038376Y-110913364D01*
X177301396Y-110650344D01*
X177443741Y-110306692D01*
X177443741Y-109934726D01*
X178113741Y-109934726D01*
X178113741Y-110306692D01*
X178256086Y-110650344D01*
X178519106Y-110913364D01*
X178862758Y-111055709D01*
X179234724Y-111055709D01*
X179578376Y-110913364D01*
X179841396Y-110650344D01*
X179983741Y-110306692D01*
X179983741Y-109934726D01*
X180717241Y-109934726D01*
X180717241Y-110306692D01*
X180859586Y-110650344D01*
X181122606Y-110913364D01*
X181466258Y-111055709D01*
X181838224Y-111055709D01*
X182181876Y-110913364D01*
X182444896Y-110650344D01*
X182587241Y-110306692D01*
X182587241Y-109934726D01*
X182444896Y-109591074D01*
X182181876Y-109328054D01*
X181838224Y-109185709D01*
X181466258Y-109185709D01*
X181122606Y-109328054D01*
X180859586Y-109591074D01*
X180717241Y-109934726D01*
X179983741Y-109934726D01*
X179841396Y-109591074D01*
X179578376Y-109328054D01*
X179234724Y-109185709D01*
X178862758Y-109185709D01*
X178519106Y-109328054D01*
X178256086Y-109591074D01*
X178113741Y-109934726D01*
X177443741Y-109934726D01*
X177301396Y-109591074D01*
X177038376Y-109328054D01*
X176694724Y-109185709D01*
X176322758Y-109185709D01*
X175979106Y-109328054D01*
X175716086Y-109591074D01*
X175573741Y-109934726D01*
X174967241Y-109934726D01*
X174824896Y-109591074D01*
X174561876Y-109328054D01*
X174218224Y-109185709D01*
X173846258Y-109185709D01*
X173502606Y-109328054D01*
X173239586Y-109591074D01*
X173097241Y-109934726D01*
X139161184Y-109934726D01*
X139039224Y-109884209D01*
X138667258Y-109884209D01*
X138323606Y-110026554D01*
X138060586Y-110289574D01*
X137918241Y-110633226D01*
X136054175Y-110633226D01*
X136144376Y-110595864D01*
X136407396Y-110332844D01*
X136549741Y-109989192D01*
X136549741Y-109617226D01*
X136407396Y-109273574D01*
X136226548Y-109092726D01*
X194336241Y-109092726D01*
X194336241Y-109464692D01*
X194478586Y-109808344D01*
X194741606Y-110071364D01*
X195085258Y-110213709D01*
X195457224Y-110213709D01*
X195800876Y-110071364D01*
X196063896Y-109808344D01*
X196206241Y-109464692D01*
X196206241Y-109092726D01*
X196063896Y-108749074D01*
X195800876Y-108486054D01*
X195457224Y-108343709D01*
X195085258Y-108343709D01*
X194741606Y-108486054D01*
X194478586Y-108749074D01*
X194336241Y-109092726D01*
X136226548Y-109092726D01*
X136144376Y-109010554D01*
X135800724Y-108868209D01*
X135428758Y-108868209D01*
X135085106Y-109010554D01*
X134822086Y-109273574D01*
X134679741Y-109617226D01*
X130519014Y-109617226D01*
X130755896Y-109380344D01*
X130898241Y-109036692D01*
X130898241Y-108664726D01*
X130755896Y-108321074D01*
X130492876Y-108058054D01*
X130149224Y-107915709D01*
X129777258Y-107915709D01*
X129433606Y-108058054D01*
X129170586Y-108321074D01*
X129028241Y-108664726D01*
X114690334Y-108664726D01*
X114626896Y-108511574D01*
X114363876Y-108248554D01*
X114020224Y-108106209D01*
X113648258Y-108106209D01*
X113304606Y-108248554D01*
X113041586Y-108511574D01*
X112899241Y-108855226D01*
X103529454Y-108855226D01*
X103726500Y-108379515D01*
X103726500Y-107470485D01*
X103589910Y-107140726D01*
X126107241Y-107140726D01*
X126107241Y-107512692D01*
X126249586Y-107856344D01*
X126512606Y-108119364D01*
X126856258Y-108261709D01*
X127228224Y-108261709D01*
X127571876Y-108119364D01*
X127834896Y-107856344D01*
X127977241Y-107512692D01*
X127977241Y-107192183D01*
X155232334Y-107192183D01*
X155232334Y-107564149D01*
X155374679Y-107907801D01*
X155637699Y-108170821D01*
X155981351Y-108313166D01*
X156353317Y-108313166D01*
X156696969Y-108170821D01*
X156959989Y-107907801D01*
X157007654Y-107792726D01*
X182136241Y-107792726D01*
X182136241Y-108164692D01*
X182278586Y-108508344D01*
X182541606Y-108771364D01*
X182885258Y-108913709D01*
X183257224Y-108913709D01*
X183600876Y-108771364D01*
X183863896Y-108508344D01*
X184006241Y-108164692D01*
X184006241Y-107792726D01*
X187136241Y-107792726D01*
X187136241Y-108164692D01*
X187278586Y-108508344D01*
X187541606Y-108771364D01*
X187885258Y-108913709D01*
X188257224Y-108913709D01*
X188600876Y-108771364D01*
X188863896Y-108508344D01*
X189006241Y-108164692D01*
X189006241Y-107792726D01*
X188863896Y-107449074D01*
X188600876Y-107186054D01*
X188257224Y-107043709D01*
X187885258Y-107043709D01*
X187541606Y-107186054D01*
X187278586Y-107449074D01*
X187136241Y-107792726D01*
X184006241Y-107792726D01*
X183863896Y-107449074D01*
X183600876Y-107186054D01*
X183257224Y-107043709D01*
X182885258Y-107043709D01*
X182541606Y-107186054D01*
X182278586Y-107449074D01*
X182136241Y-107792726D01*
X157007654Y-107792726D01*
X157038283Y-107718783D01*
X157227301Y-107640489D01*
X157490321Y-107377469D01*
X157632666Y-107033817D01*
X157632666Y-106661851D01*
X157490321Y-106318199D01*
X157227301Y-106055179D01*
X156883649Y-105912834D01*
X156511683Y-105912834D01*
X156168031Y-106055179D01*
X155905011Y-106318199D01*
X155826717Y-106507217D01*
X155637699Y-106585511D01*
X155374679Y-106848531D01*
X155232334Y-107192183D01*
X127977241Y-107192183D01*
X127977241Y-107140726D01*
X127834896Y-106797074D01*
X127571876Y-106534054D01*
X127228224Y-106391709D01*
X126856258Y-106391709D01*
X126512606Y-106534054D01*
X126249586Y-106797074D01*
X126107241Y-107140726D01*
X103589910Y-107140726D01*
X103378630Y-106630651D01*
X102735849Y-105987870D01*
X101896015Y-105640000D01*
X100986985Y-105640000D01*
X100147151Y-105987870D01*
X99504370Y-106630651D01*
X99156500Y-107470485D01*
X92386241Y-107470485D01*
X92386241Y-105616726D01*
X185733741Y-105616726D01*
X185733741Y-105988692D01*
X185876086Y-106332344D01*
X186139106Y-106595364D01*
X186482758Y-106737709D01*
X186854724Y-106737709D01*
X187198376Y-106595364D01*
X187461396Y-106332344D01*
X187603741Y-105988692D01*
X187603741Y-105616726D01*
X187461396Y-105273074D01*
X187198376Y-105010054D01*
X186854724Y-104867709D01*
X186482758Y-104867709D01*
X186139106Y-105010054D01*
X185876086Y-105273074D01*
X185733741Y-105616726D01*
X92386241Y-105616726D01*
X92386241Y-102366183D01*
X149644334Y-102366183D01*
X149644334Y-102738149D01*
X149786679Y-103081801D01*
X150049699Y-103344821D01*
X150393351Y-103487166D01*
X150765317Y-103487166D01*
X151108969Y-103344821D01*
X151371989Y-103081801D01*
X151450283Y-102892783D01*
X151639301Y-102814489D01*
X151902321Y-102551469D01*
X152044666Y-102207817D01*
X152044666Y-101835851D01*
X151902321Y-101492199D01*
X151639301Y-101229179D01*
X151551296Y-101192726D01*
X195136241Y-101192726D01*
X195136241Y-101564692D01*
X195278586Y-101908344D01*
X195541606Y-102171364D01*
X195885258Y-102313709D01*
X196257224Y-102313709D01*
X196600876Y-102171364D01*
X196863896Y-101908344D01*
X197006241Y-101564692D01*
X197006241Y-101192726D01*
X196863896Y-100849074D01*
X196600876Y-100586054D01*
X196257224Y-100443709D01*
X195885258Y-100443709D01*
X195541606Y-100586054D01*
X195278586Y-100849074D01*
X195136241Y-101192726D01*
X151551296Y-101192726D01*
X151295649Y-101086834D01*
X150923683Y-101086834D01*
X150580031Y-101229179D01*
X150317011Y-101492199D01*
X150238717Y-101681217D01*
X150049699Y-101759511D01*
X149786679Y-102022531D01*
X149644334Y-102366183D01*
X92386241Y-102366183D01*
X92386241Y-99593107D01*
X95504241Y-99593107D01*
X95504241Y-100104311D01*
X95699870Y-100576603D01*
X96061347Y-100938080D01*
X96533639Y-101133709D01*
X97044843Y-101133709D01*
X97517135Y-100938080D01*
X97878612Y-100576603D01*
X98074241Y-100104311D01*
X98074241Y-99593107D01*
X97878612Y-99120815D01*
X97517135Y-98759338D01*
X97044843Y-98563709D01*
X96533639Y-98563709D01*
X96061347Y-98759338D01*
X95699870Y-99120815D01*
X95504241Y-99593107D01*
X92386241Y-99593107D01*
X92386241Y-90593107D01*
X95504241Y-90593107D01*
X95504241Y-91104311D01*
X95699870Y-91576603D01*
X96061347Y-91938080D01*
X96533639Y-92133709D01*
X97044843Y-92133709D01*
X97517135Y-91938080D01*
X97878612Y-91576603D01*
X98074241Y-91104311D01*
X98074241Y-90593107D01*
X97878612Y-90120815D01*
X97517135Y-89759338D01*
X97044843Y-89563709D01*
X96533639Y-89563709D01*
X96061347Y-89759338D01*
X95699870Y-90120815D01*
X95504241Y-90593107D01*
X92386241Y-90593107D01*
X92386241Y-85213709D01*
X199916242Y-85213709D01*
X199916241Y-123743709D01*
G04 #@! TD*
M02*
