G04 #@! TF.GenerationSoftware,KiCad,Pcbnew,5.0.2+dfsg1-1*
G04 #@! TF.CreationDate,2019-09-17T15:01:03+01:00*
G04 #@! TF.ProjectId,HDMI_SD_expansion,48444d49-5f53-4445-9f65-7870616e7369,rev?*
G04 #@! TF.SameCoordinates,Original*
G04 #@! TF.FileFunction,Legend,Top*
G04 #@! TF.FilePolarity,Positive*
%FSLAX46Y46*%
G04 Gerber Fmt 4.6, Leading zero omitted, Abs format (unit mm)*
G04 Created by KiCad (PCBNEW 5.0.2+dfsg1-1) date Tue 17 Sep 2019 15:01:03 BST*
%MOMM*%
%LPD*%
G01*
G04 APERTURE LIST*
%ADD10C,0.300000*%
%ADD11C,0.100000*%
%ADD12C,0.120000*%
%ADD13C,0.400000*%
%ADD14C,0.150000*%
G04 APERTURE END LIST*
D10*
X140656785Y-114603571D02*
X140656785Y-115675000D01*
X140585357Y-115889285D01*
X140442500Y-116032142D01*
X140228214Y-116103571D01*
X140085357Y-116103571D01*
X141871071Y-115317857D02*
X142085357Y-115389285D01*
X142156785Y-115460714D01*
X142228214Y-115603571D01*
X142228214Y-115817857D01*
X142156785Y-115960714D01*
X142085357Y-116032142D01*
X141942500Y-116103571D01*
X141371071Y-116103571D01*
X141371071Y-114603571D01*
X141871071Y-114603571D01*
X142013928Y-114675000D01*
X142085357Y-114746428D01*
X142156785Y-114889285D01*
X142156785Y-115032142D01*
X142085357Y-115175000D01*
X142013928Y-115246428D01*
X141871071Y-115317857D01*
X141371071Y-115317857D01*
D11*
G04 #@! TO.C,JC1*
X149251241Y-122078709D02*
X149251241Y-121678709D01*
X149251241Y-122078709D02*
X149651241Y-122078709D01*
X149241241Y-117138709D02*
X149241241Y-117568709D01*
X149601241Y-116778709D02*
X150051241Y-116778709D01*
X164751241Y-116778709D02*
X164351241Y-116778709D01*
X164751241Y-116778709D02*
X164751241Y-117178709D01*
X164751241Y-122078709D02*
X164751241Y-121678709D01*
X164751241Y-122078709D02*
X164351241Y-122078709D01*
X149601241Y-116778709D02*
X149241241Y-117138709D01*
G04 #@! TO.C,JD1*
X172251241Y-122078709D02*
X172251241Y-121678709D01*
X172251241Y-122078709D02*
X172651241Y-122078709D01*
X172241241Y-117138709D02*
X172241241Y-117568709D01*
X172601241Y-116778709D02*
X173051241Y-116778709D01*
X187751241Y-116778709D02*
X187351241Y-116778709D01*
X187751241Y-116778709D02*
X187751241Y-117178709D01*
X187751241Y-122078709D02*
X187751241Y-121678709D01*
X187751241Y-122078709D02*
X187351241Y-122078709D01*
X172601241Y-116778709D02*
X172241241Y-117138709D01*
G04 #@! TO.C,JB1*
X126251241Y-122078709D02*
X126251241Y-121678709D01*
X126251241Y-122078709D02*
X126651241Y-122078709D01*
X126241241Y-117138709D02*
X126241241Y-117568709D01*
X126601241Y-116778709D02*
X127051241Y-116778709D01*
X141751241Y-116778709D02*
X141351241Y-116778709D01*
X141751241Y-116778709D02*
X141751241Y-117178709D01*
X141751241Y-122078709D02*
X141751241Y-121678709D01*
X141751241Y-122078709D02*
X141351241Y-122078709D01*
X126601241Y-116778709D02*
X126241241Y-117138709D01*
G04 #@! TO.C,J5*
X104236241Y-121153709D02*
X103511241Y-121153709D01*
X104236241Y-120203709D02*
X104236241Y-121153709D01*
X104236241Y-107803709D02*
X103436241Y-107803709D01*
X104236241Y-108828709D02*
X104236241Y-107803709D01*
X91756241Y-121153709D02*
X91756241Y-120453709D01*
X92406241Y-121153709D02*
X91756241Y-121153709D01*
X91756241Y-107803709D02*
X92431241Y-107803709D01*
X91756241Y-108778709D02*
X91756241Y-107803709D01*
D12*
G04 #@! TO.C,C14*
X135381991Y-111217709D02*
X135381991Y-111817709D01*
X134781991Y-111217709D02*
X134781991Y-111817709D01*
D11*
G04 #@! TO.C,J4*
X104401241Y-87278709D02*
X104401241Y-87978709D01*
X103651241Y-87278709D02*
X104401241Y-87278709D01*
X104401241Y-100628709D02*
X103451241Y-101578709D01*
X104401241Y-98728709D02*
X104401241Y-100628709D01*
X91801241Y-87278709D02*
X92651241Y-87278709D01*
X91801241Y-87978709D02*
X91801241Y-87278709D01*
X91801241Y-101678709D02*
X91801241Y-100978709D01*
X92651241Y-101678709D02*
X91801241Y-101678709D01*
D12*
G04 #@! TO.C,D2*
X107438241Y-111281209D02*
X107438241Y-111881209D01*
X108038241Y-111281209D02*
X108038241Y-111881209D01*
G04 #@! TO.C,D1*
X107428000Y-114461500D02*
X107428000Y-113861500D01*
X108028000Y-114461500D02*
X108028000Y-113861500D01*
G04 #@! TO.C,C10*
X137502241Y-111217709D02*
X137502241Y-111817709D01*
X136902241Y-111217709D02*
X136902241Y-111817709D01*
G04 #@! TO.C,C12*
X135053241Y-103178709D02*
X135053241Y-102578709D01*
X135653241Y-103178709D02*
X135653241Y-102578709D01*
G04 #@! TO.C,C13*
X133233241Y-103178709D02*
X133233241Y-102578709D01*
X133833241Y-103178709D02*
X133833241Y-102578709D01*
G04 #@! TO.C,R8*
X125911241Y-103280209D02*
X126511241Y-103280209D01*
X125911241Y-103880209D02*
X126511241Y-103880209D01*
G04 #@! TO.C,R11*
X126628241Y-106319209D02*
X126028241Y-106319209D01*
X126628241Y-105719209D02*
X126028241Y-105719209D01*
D13*
G04 #@! TO.C,Y1*
X114563741Y-121308709D02*
G75*
G03X114563741Y-121308709I-100000J0D01*
G01*
D14*
X118963741Y-121608709D02*
X115163741Y-121608709D01*
X118963741Y-118508709D02*
X118963741Y-121608709D01*
X115163741Y-118508709D02*
X118963741Y-118508709D01*
X115163741Y-121608709D02*
X115163741Y-118508709D01*
G04 #@! TO.C,U2*
X114391241Y-108918709D02*
X114391241Y-109318709D01*
X114791241Y-108918709D02*
X114391241Y-108918709D01*
X119691241Y-108918709D02*
X119691241Y-109318709D01*
X119291241Y-108918709D02*
X119691241Y-108918709D01*
X114391241Y-114218709D02*
X114391241Y-113818709D01*
X114791241Y-114218709D02*
X114391241Y-114218709D01*
X119691241Y-113568709D02*
X120091241Y-113568709D01*
X119691241Y-114218709D02*
X119691241Y-113568709D01*
X119041241Y-114218709D02*
X119691241Y-114218709D01*
D12*
G04 #@! TO.C,U1*
X133693241Y-105648709D02*
X133693241Y-108648709D01*
X136913241Y-107148709D02*
X136913241Y-108648709D01*
G04 #@! TO.C,R7*
X194624575Y-115582012D02*
X194624575Y-116182012D01*
X194024575Y-115582012D02*
X194024575Y-116182012D01*
G04 #@! TO.C,R6*
X173961031Y-111778709D02*
X173961031Y-112378709D01*
X173361031Y-111778709D02*
X173361031Y-112378709D01*
G04 #@! TO.C,R5*
X176497769Y-111778709D02*
X176497769Y-112378709D01*
X175897769Y-111778709D02*
X175897769Y-112378709D01*
G04 #@! TO.C,R4*
X181571241Y-111778709D02*
X181571241Y-112378709D01*
X180971241Y-111778709D02*
X180971241Y-112378709D01*
G04 #@! TO.C,R3*
X179034505Y-111778709D02*
X179034505Y-112378709D01*
X178434505Y-111778709D02*
X178434505Y-112378709D01*
G04 #@! TO.C,R2*
X196871241Y-115582012D02*
X196871241Y-116182012D01*
X196271241Y-115582012D02*
X196271241Y-116182012D01*
G04 #@! TO.C,R1*
X192377909Y-115582012D02*
X192377909Y-116182012D01*
X191777909Y-115582012D02*
X191777909Y-116182012D01*
D14*
G04 #@! TO.C,J2*
X187371241Y-111403709D02*
X200731241Y-111403709D01*
X187371241Y-97663709D02*
X187371241Y-111403709D01*
X200731241Y-97663709D02*
X187371241Y-97663709D01*
X200731241Y-111403709D02*
X200731241Y-97663709D01*
G04 #@! TO.C,J5*
X104142907Y-104771089D02*
X104142907Y-105485375D01*
X104095288Y-105628232D01*
X104000050Y-105723470D01*
X103857193Y-105771089D01*
X103761955Y-105771089D01*
X105095288Y-104771089D02*
X104619098Y-104771089D01*
X104571479Y-105247280D01*
X104619098Y-105199661D01*
X104714336Y-105152042D01*
X104952431Y-105152042D01*
X105047669Y-105199661D01*
X105095288Y-105247280D01*
X105142907Y-105342518D01*
X105142907Y-105580613D01*
X105095288Y-105675851D01*
X105047669Y-105723470D01*
X104952431Y-105771089D01*
X104714336Y-105771089D01*
X104619098Y-105723470D01*
X104571479Y-105675851D01*
G04 #@! TO.C,C14*
X135559642Y-114709857D02*
X135607261Y-114757476D01*
X135654880Y-114900333D01*
X135654880Y-114995571D01*
X135607261Y-115138428D01*
X135512023Y-115233666D01*
X135416785Y-115281285D01*
X135226309Y-115328904D01*
X135083452Y-115328904D01*
X134892976Y-115281285D01*
X134797738Y-115233666D01*
X134702500Y-115138428D01*
X134654880Y-114995571D01*
X134654880Y-114900333D01*
X134702500Y-114757476D01*
X134750119Y-114709857D01*
X135654880Y-113757476D02*
X135654880Y-114328904D01*
X135654880Y-114043190D02*
X134654880Y-114043190D01*
X134797738Y-114138428D01*
X134892976Y-114233666D01*
X134940595Y-114328904D01*
X134988214Y-112900333D02*
X135654880Y-112900333D01*
X134607261Y-113138428D02*
X135321547Y-113376523D01*
X135321547Y-112757476D01*
G04 #@! TO.C,J4*
X103633166Y-83851380D02*
X103633166Y-84565666D01*
X103585547Y-84708523D01*
X103490309Y-84803761D01*
X103347452Y-84851380D01*
X103252214Y-84851380D01*
X104537928Y-84184714D02*
X104537928Y-84851380D01*
X104299833Y-83803761D02*
X104061738Y-84518047D01*
X104680785Y-84518047D01*
G04 #@! TO.C,D2*
X106694880Y-112305095D02*
X105694880Y-112305095D01*
X105694880Y-112067000D01*
X105742500Y-111924142D01*
X105837738Y-111828904D01*
X105932976Y-111781285D01*
X106123452Y-111733666D01*
X106266309Y-111733666D01*
X106456785Y-111781285D01*
X106552023Y-111828904D01*
X106647261Y-111924142D01*
X106694880Y-112067000D01*
X106694880Y-112305095D01*
X105790119Y-111352714D02*
X105742500Y-111305095D01*
X105694880Y-111209857D01*
X105694880Y-110971761D01*
X105742500Y-110876523D01*
X105790119Y-110828904D01*
X105885357Y-110781285D01*
X105980595Y-110781285D01*
X106123452Y-110828904D01*
X106694880Y-111400333D01*
X106694880Y-110781285D01*
G04 #@! TO.C,D1*
X106730380Y-114649595D02*
X105730380Y-114649595D01*
X105730380Y-114411500D01*
X105778000Y-114268642D01*
X105873238Y-114173404D01*
X105968476Y-114125785D01*
X106158952Y-114078166D01*
X106301809Y-114078166D01*
X106492285Y-114125785D01*
X106587523Y-114173404D01*
X106682761Y-114268642D01*
X106730380Y-114411500D01*
X106730380Y-114649595D01*
X106730380Y-113125785D02*
X106730380Y-113697214D01*
X106730380Y-113411500D02*
X105730380Y-113411500D01*
X105873238Y-113506738D01*
X105968476Y-113601976D01*
X106016095Y-113697214D01*
G04 #@! TO.C,L1*
X139254880Y-109143666D02*
X139254880Y-109619857D01*
X138254880Y-109619857D01*
X139254880Y-108286523D02*
X139254880Y-108857952D01*
X139254880Y-108572238D02*
X138254880Y-108572238D01*
X138397738Y-108667476D01*
X138492976Y-108762714D01*
X138540595Y-108857952D01*
G04 #@! TO.C,TP6*
X128800595Y-111369380D02*
X129372023Y-111369380D01*
X129086309Y-112369380D02*
X129086309Y-111369380D01*
X129705357Y-112369380D02*
X129705357Y-111369380D01*
X130086309Y-111369380D01*
X130181547Y-111417000D01*
X130229166Y-111464619D01*
X130276785Y-111559857D01*
X130276785Y-111702714D01*
X130229166Y-111797952D01*
X130181547Y-111845571D01*
X130086309Y-111893190D01*
X129705357Y-111893190D01*
X131133928Y-111369380D02*
X130943452Y-111369380D01*
X130848214Y-111417000D01*
X130800595Y-111464619D01*
X130705357Y-111607476D01*
X130657738Y-111797952D01*
X130657738Y-112178904D01*
X130705357Y-112274142D01*
X130752976Y-112321761D01*
X130848214Y-112369380D01*
X131038690Y-112369380D01*
X131133928Y-112321761D01*
X131181547Y-112274142D01*
X131229166Y-112178904D01*
X131229166Y-111940809D01*
X131181547Y-111845571D01*
X131133928Y-111797952D01*
X131038690Y-111750333D01*
X130848214Y-111750333D01*
X130752976Y-111797952D01*
X130705357Y-111845571D01*
X130657738Y-111940809D01*
G04 #@! TO.C,TP10*
X112534404Y-105119380D02*
X113105833Y-105119380D01*
X112820119Y-106119380D02*
X112820119Y-105119380D01*
X113439166Y-106119380D02*
X113439166Y-105119380D01*
X113820119Y-105119380D01*
X113915357Y-105167000D01*
X113962976Y-105214619D01*
X114010595Y-105309857D01*
X114010595Y-105452714D01*
X113962976Y-105547952D01*
X113915357Y-105595571D01*
X113820119Y-105643190D01*
X113439166Y-105643190D01*
X114962976Y-106119380D02*
X114391547Y-106119380D01*
X114677261Y-106119380D02*
X114677261Y-105119380D01*
X114582023Y-105262238D01*
X114486785Y-105357476D01*
X114391547Y-105405095D01*
X115582023Y-105119380D02*
X115677261Y-105119380D01*
X115772500Y-105167000D01*
X115820119Y-105214619D01*
X115867738Y-105309857D01*
X115915357Y-105500333D01*
X115915357Y-105738428D01*
X115867738Y-105928904D01*
X115820119Y-106024142D01*
X115772500Y-106071761D01*
X115677261Y-106119380D01*
X115582023Y-106119380D01*
X115486785Y-106071761D01*
X115439166Y-106024142D01*
X115391547Y-105928904D01*
X115343928Y-105738428D01*
X115343928Y-105500333D01*
X115391547Y-105309857D01*
X115439166Y-105214619D01*
X115486785Y-105167000D01*
X115582023Y-105119380D01*
G04 #@! TO.C,TP9*
X123120595Y-114259380D02*
X123692023Y-114259380D01*
X123406309Y-115259380D02*
X123406309Y-114259380D01*
X124025357Y-115259380D02*
X124025357Y-114259380D01*
X124406309Y-114259380D01*
X124501547Y-114307000D01*
X124549166Y-114354619D01*
X124596785Y-114449857D01*
X124596785Y-114592714D01*
X124549166Y-114687952D01*
X124501547Y-114735571D01*
X124406309Y-114783190D01*
X124025357Y-114783190D01*
X125072976Y-115259380D02*
X125263452Y-115259380D01*
X125358690Y-115211761D01*
X125406309Y-115164142D01*
X125501547Y-115021285D01*
X125549166Y-114830809D01*
X125549166Y-114449857D01*
X125501547Y-114354619D01*
X125453928Y-114307000D01*
X125358690Y-114259380D01*
X125168214Y-114259380D01*
X125072976Y-114307000D01*
X125025357Y-114354619D01*
X124977738Y-114449857D01*
X124977738Y-114687952D01*
X125025357Y-114783190D01*
X125072976Y-114830809D01*
X125168214Y-114878428D01*
X125358690Y-114878428D01*
X125453928Y-114830809D01*
X125501547Y-114783190D01*
X125549166Y-114687952D01*
G04 #@! TO.C,TP8*
X125710595Y-112179380D02*
X126282023Y-112179380D01*
X125996309Y-113179380D02*
X125996309Y-112179380D01*
X126615357Y-113179380D02*
X126615357Y-112179380D01*
X126996309Y-112179380D01*
X127091547Y-112227000D01*
X127139166Y-112274619D01*
X127186785Y-112369857D01*
X127186785Y-112512714D01*
X127139166Y-112607952D01*
X127091547Y-112655571D01*
X126996309Y-112703190D01*
X126615357Y-112703190D01*
X127758214Y-112607952D02*
X127662976Y-112560333D01*
X127615357Y-112512714D01*
X127567738Y-112417476D01*
X127567738Y-112369857D01*
X127615357Y-112274619D01*
X127662976Y-112227000D01*
X127758214Y-112179380D01*
X127948690Y-112179380D01*
X128043928Y-112227000D01*
X128091547Y-112274619D01*
X128139166Y-112369857D01*
X128139166Y-112417476D01*
X128091547Y-112512714D01*
X128043928Y-112560333D01*
X127948690Y-112607952D01*
X127758214Y-112607952D01*
X127662976Y-112655571D01*
X127615357Y-112703190D01*
X127567738Y-112798428D01*
X127567738Y-112988904D01*
X127615357Y-113084142D01*
X127662976Y-113131761D01*
X127758214Y-113179380D01*
X127948690Y-113179380D01*
X128043928Y-113131761D01*
X128091547Y-113084142D01*
X128139166Y-112988904D01*
X128139166Y-112798428D01*
X128091547Y-112703190D01*
X128043928Y-112655571D01*
X127948690Y-112607952D01*
G04 #@! TO.C,TP7*
X120520595Y-116509380D02*
X121092023Y-116509380D01*
X120806309Y-117509380D02*
X120806309Y-116509380D01*
X121425357Y-117509380D02*
X121425357Y-116509380D01*
X121806309Y-116509380D01*
X121901547Y-116557000D01*
X121949166Y-116604619D01*
X121996785Y-116699857D01*
X121996785Y-116842714D01*
X121949166Y-116937952D01*
X121901547Y-116985571D01*
X121806309Y-117033190D01*
X121425357Y-117033190D01*
X122330119Y-116509380D02*
X122996785Y-116509380D01*
X122568214Y-117509380D01*
G04 #@! TO.C,TP5*
X122130595Y-109169380D02*
X122702023Y-109169380D01*
X122416309Y-110169380D02*
X122416309Y-109169380D01*
X123035357Y-110169380D02*
X123035357Y-109169380D01*
X123416309Y-109169380D01*
X123511547Y-109217000D01*
X123559166Y-109264619D01*
X123606785Y-109359857D01*
X123606785Y-109502714D01*
X123559166Y-109597952D01*
X123511547Y-109645571D01*
X123416309Y-109693190D01*
X123035357Y-109693190D01*
X124511547Y-109169380D02*
X124035357Y-109169380D01*
X123987738Y-109645571D01*
X124035357Y-109597952D01*
X124130595Y-109550333D01*
X124368690Y-109550333D01*
X124463928Y-109597952D01*
X124511547Y-109645571D01*
X124559166Y-109740809D01*
X124559166Y-109978904D01*
X124511547Y-110074142D01*
X124463928Y-110121761D01*
X124368690Y-110169380D01*
X124130595Y-110169380D01*
X124035357Y-110121761D01*
X123987738Y-110074142D01*
G04 #@! TO.C,TP4*
X122030595Y-104159380D02*
X122602023Y-104159380D01*
X122316309Y-105159380D02*
X122316309Y-104159380D01*
X122935357Y-105159380D02*
X122935357Y-104159380D01*
X123316309Y-104159380D01*
X123411547Y-104207000D01*
X123459166Y-104254619D01*
X123506785Y-104349857D01*
X123506785Y-104492714D01*
X123459166Y-104587952D01*
X123411547Y-104635571D01*
X123316309Y-104683190D01*
X122935357Y-104683190D01*
X124363928Y-104492714D02*
X124363928Y-105159380D01*
X124125833Y-104111761D02*
X123887738Y-104826047D01*
X124506785Y-104826047D01*
G04 #@! TO.C,C15*
X108718383Y-105965851D02*
X108670764Y-106013470D01*
X108527907Y-106061089D01*
X108432669Y-106061089D01*
X108289812Y-106013470D01*
X108194574Y-105918232D01*
X108146955Y-105822994D01*
X108099336Y-105632518D01*
X108099336Y-105489661D01*
X108146955Y-105299185D01*
X108194574Y-105203947D01*
X108289812Y-105108709D01*
X108432669Y-105061089D01*
X108527907Y-105061089D01*
X108670764Y-105108709D01*
X108718383Y-105156328D01*
X109670764Y-106061089D02*
X109099336Y-106061089D01*
X109385050Y-106061089D02*
X109385050Y-105061089D01*
X109289812Y-105203947D01*
X109194574Y-105299185D01*
X109099336Y-105346804D01*
X110575526Y-105061089D02*
X110099336Y-105061089D01*
X110051717Y-105537280D01*
X110099336Y-105489661D01*
X110194574Y-105442042D01*
X110432669Y-105442042D01*
X110527907Y-105489661D01*
X110575526Y-105537280D01*
X110623145Y-105632518D01*
X110623145Y-105870613D01*
X110575526Y-105965851D01*
X110527907Y-106013470D01*
X110432669Y-106061089D01*
X110194574Y-106061089D01*
X110099336Y-106013470D01*
X110051717Y-105965851D01*
G04 #@! TO.C,C16*
X111898383Y-120701566D02*
X111946002Y-120749185D01*
X111993621Y-120892042D01*
X111993621Y-120987280D01*
X111946002Y-121130137D01*
X111850764Y-121225375D01*
X111755526Y-121272994D01*
X111565050Y-121320613D01*
X111422193Y-121320613D01*
X111231717Y-121272994D01*
X111136479Y-121225375D01*
X111041241Y-121130137D01*
X110993621Y-120987280D01*
X110993621Y-120892042D01*
X111041241Y-120749185D01*
X111088860Y-120701566D01*
X111993621Y-119749185D02*
X111993621Y-120320613D01*
X111993621Y-120034899D02*
X110993621Y-120034899D01*
X111136479Y-120130137D01*
X111231717Y-120225375D01*
X111279336Y-120320613D01*
X110993621Y-118892042D02*
X110993621Y-119082518D01*
X111041241Y-119177756D01*
X111088860Y-119225375D01*
X111231717Y-119320613D01*
X111422193Y-119368232D01*
X111803145Y-119368232D01*
X111898383Y-119320613D01*
X111946002Y-119272994D01*
X111993621Y-119177756D01*
X111993621Y-118987280D01*
X111946002Y-118892042D01*
X111898383Y-118844423D01*
X111803145Y-118796804D01*
X111565050Y-118796804D01*
X111469812Y-118844423D01*
X111422193Y-118892042D01*
X111374574Y-118987280D01*
X111374574Y-119177756D01*
X111422193Y-119272994D01*
X111469812Y-119320613D01*
X111565050Y-119368232D01*
G04 #@! TO.C,C17*
X122328383Y-120631566D02*
X122376002Y-120679185D01*
X122423621Y-120822042D01*
X122423621Y-120917280D01*
X122376002Y-121060137D01*
X122280764Y-121155375D01*
X122185526Y-121202994D01*
X121995050Y-121250613D01*
X121852193Y-121250613D01*
X121661717Y-121202994D01*
X121566479Y-121155375D01*
X121471241Y-121060137D01*
X121423621Y-120917280D01*
X121423621Y-120822042D01*
X121471241Y-120679185D01*
X121518860Y-120631566D01*
X122423621Y-119679185D02*
X122423621Y-120250613D01*
X122423621Y-119964899D02*
X121423621Y-119964899D01*
X121566479Y-120060137D01*
X121661717Y-120155375D01*
X121709336Y-120250613D01*
X121423621Y-119345851D02*
X121423621Y-118679185D01*
X122423621Y-119107756D01*
G04 #@! TO.C,C18*
X112409642Y-116794142D02*
X112362023Y-116841761D01*
X112219166Y-116889380D01*
X112123928Y-116889380D01*
X111981071Y-116841761D01*
X111885833Y-116746523D01*
X111838214Y-116651285D01*
X111790595Y-116460809D01*
X111790595Y-116317952D01*
X111838214Y-116127476D01*
X111885833Y-116032238D01*
X111981071Y-115937000D01*
X112123928Y-115889380D01*
X112219166Y-115889380D01*
X112362023Y-115937000D01*
X112409642Y-115984619D01*
X113362023Y-116889380D02*
X112790595Y-116889380D01*
X113076309Y-116889380D02*
X113076309Y-115889380D01*
X112981071Y-116032238D01*
X112885833Y-116127476D01*
X112790595Y-116175095D01*
X113933452Y-116317952D02*
X113838214Y-116270333D01*
X113790595Y-116222714D01*
X113742976Y-116127476D01*
X113742976Y-116079857D01*
X113790595Y-115984619D01*
X113838214Y-115937000D01*
X113933452Y-115889380D01*
X114123928Y-115889380D01*
X114219166Y-115937000D01*
X114266785Y-115984619D01*
X114314404Y-116079857D01*
X114314404Y-116127476D01*
X114266785Y-116222714D01*
X114219166Y-116270333D01*
X114123928Y-116317952D01*
X113933452Y-116317952D01*
X113838214Y-116365571D01*
X113790595Y-116413190D01*
X113742976Y-116508428D01*
X113742976Y-116698904D01*
X113790595Y-116794142D01*
X113838214Y-116841761D01*
X113933452Y-116889380D01*
X114123928Y-116889380D01*
X114219166Y-116841761D01*
X114266785Y-116794142D01*
X114314404Y-116698904D01*
X114314404Y-116508428D01*
X114266785Y-116413190D01*
X114219166Y-116365571D01*
X114123928Y-116317952D01*
G04 #@! TO.C,C19*
X112429642Y-118304142D02*
X112382023Y-118351761D01*
X112239166Y-118399380D01*
X112143928Y-118399380D01*
X112001071Y-118351761D01*
X111905833Y-118256523D01*
X111858214Y-118161285D01*
X111810595Y-117970809D01*
X111810595Y-117827952D01*
X111858214Y-117637476D01*
X111905833Y-117542238D01*
X112001071Y-117447000D01*
X112143928Y-117399380D01*
X112239166Y-117399380D01*
X112382023Y-117447000D01*
X112429642Y-117494619D01*
X113382023Y-118399380D02*
X112810595Y-118399380D01*
X113096309Y-118399380D02*
X113096309Y-117399380D01*
X113001071Y-117542238D01*
X112905833Y-117637476D01*
X112810595Y-117685095D01*
X113858214Y-118399380D02*
X114048690Y-118399380D01*
X114143928Y-118351761D01*
X114191547Y-118304142D01*
X114286785Y-118161285D01*
X114334404Y-117970809D01*
X114334404Y-117589857D01*
X114286785Y-117494619D01*
X114239166Y-117447000D01*
X114143928Y-117399380D01*
X113953452Y-117399380D01*
X113858214Y-117447000D01*
X113810595Y-117494619D01*
X113762976Y-117589857D01*
X113762976Y-117827952D01*
X113810595Y-117923190D01*
X113858214Y-117970809D01*
X113953452Y-118018428D01*
X114143928Y-118018428D01*
X114239166Y-117970809D01*
X114286785Y-117923190D01*
X114334404Y-117827952D01*
G04 #@! TO.C,C11*
X133549642Y-114569857D02*
X133597261Y-114617476D01*
X133644880Y-114760333D01*
X133644880Y-114855571D01*
X133597261Y-114998428D01*
X133502023Y-115093666D01*
X133406785Y-115141285D01*
X133216309Y-115188904D01*
X133073452Y-115188904D01*
X132882976Y-115141285D01*
X132787738Y-115093666D01*
X132692500Y-114998428D01*
X132644880Y-114855571D01*
X132644880Y-114760333D01*
X132692500Y-114617476D01*
X132740119Y-114569857D01*
X133644880Y-113617476D02*
X133644880Y-114188904D01*
X133644880Y-113903190D02*
X132644880Y-113903190D01*
X132787738Y-113998428D01*
X132882976Y-114093666D01*
X132930595Y-114188904D01*
X133644880Y-112665095D02*
X133644880Y-113236523D01*
X133644880Y-112950809D02*
X132644880Y-112950809D01*
X132787738Y-113046047D01*
X132882976Y-113141285D01*
X132930595Y-113236523D01*
G04 #@! TO.C,R10*
X110129642Y-113829380D02*
X109796309Y-113353190D01*
X109558214Y-113829380D02*
X109558214Y-112829380D01*
X109939166Y-112829380D01*
X110034404Y-112877000D01*
X110082023Y-112924619D01*
X110129642Y-113019857D01*
X110129642Y-113162714D01*
X110082023Y-113257952D01*
X110034404Y-113305571D01*
X109939166Y-113353190D01*
X109558214Y-113353190D01*
X111082023Y-113829380D02*
X110510595Y-113829380D01*
X110796309Y-113829380D02*
X110796309Y-112829380D01*
X110701071Y-112972238D01*
X110605833Y-113067476D01*
X110510595Y-113115095D01*
X111701071Y-112829380D02*
X111796309Y-112829380D01*
X111891547Y-112877000D01*
X111939166Y-112924619D01*
X111986785Y-113019857D01*
X112034404Y-113210333D01*
X112034404Y-113448428D01*
X111986785Y-113638904D01*
X111939166Y-113734142D01*
X111891547Y-113781761D01*
X111796309Y-113829380D01*
X111701071Y-113829380D01*
X111605833Y-113781761D01*
X111558214Y-113734142D01*
X111510595Y-113638904D01*
X111462976Y-113448428D01*
X111462976Y-113210333D01*
X111510595Y-113019857D01*
X111558214Y-112924619D01*
X111605833Y-112877000D01*
X111701071Y-112829380D01*
G04 #@! TO.C,R9*
X110545833Y-110332380D02*
X110212500Y-109856190D01*
X109974404Y-110332380D02*
X109974404Y-109332380D01*
X110355357Y-109332380D01*
X110450595Y-109380000D01*
X110498214Y-109427619D01*
X110545833Y-109522857D01*
X110545833Y-109665714D01*
X110498214Y-109760952D01*
X110450595Y-109808571D01*
X110355357Y-109856190D01*
X109974404Y-109856190D01*
X111022023Y-110332380D02*
X111212500Y-110332380D01*
X111307738Y-110284761D01*
X111355357Y-110237142D01*
X111450595Y-110094285D01*
X111498214Y-109903809D01*
X111498214Y-109522857D01*
X111450595Y-109427619D01*
X111402976Y-109380000D01*
X111307738Y-109332380D01*
X111117261Y-109332380D01*
X111022023Y-109380000D01*
X110974404Y-109427619D01*
X110926785Y-109522857D01*
X110926785Y-109760952D01*
X110974404Y-109856190D01*
X111022023Y-109903809D01*
X111117261Y-109951428D01*
X111307738Y-109951428D01*
X111402976Y-109903809D01*
X111450595Y-109856190D01*
X111498214Y-109760952D01*
G04 #@! TO.C,C10*
X137669642Y-114759857D02*
X137717261Y-114807476D01*
X137764880Y-114950333D01*
X137764880Y-115045571D01*
X137717261Y-115188428D01*
X137622023Y-115283666D01*
X137526785Y-115331285D01*
X137336309Y-115378904D01*
X137193452Y-115378904D01*
X137002976Y-115331285D01*
X136907738Y-115283666D01*
X136812500Y-115188428D01*
X136764880Y-115045571D01*
X136764880Y-114950333D01*
X136812500Y-114807476D01*
X136860119Y-114759857D01*
X137764880Y-113807476D02*
X137764880Y-114378904D01*
X137764880Y-114093190D02*
X136764880Y-114093190D01*
X136907738Y-114188428D01*
X137002976Y-114283666D01*
X137050595Y-114378904D01*
X136764880Y-113188428D02*
X136764880Y-113093190D01*
X136812500Y-112997952D01*
X136860119Y-112950333D01*
X136955357Y-112902714D01*
X137145833Y-112855095D01*
X137383928Y-112855095D01*
X137574404Y-112902714D01*
X137669642Y-112950333D01*
X137717261Y-112997952D01*
X137764880Y-113093190D01*
X137764880Y-113188428D01*
X137717261Y-113283666D01*
X137669642Y-113331285D01*
X137574404Y-113378904D01*
X137383928Y-113426523D01*
X137145833Y-113426523D01*
X136955357Y-113378904D01*
X136860119Y-113331285D01*
X136812500Y-113283666D01*
X136764880Y-113188428D01*
G04 #@! TO.C,C12*
X135749642Y-100739857D02*
X135797261Y-100787476D01*
X135844880Y-100930333D01*
X135844880Y-101025571D01*
X135797261Y-101168428D01*
X135702023Y-101263666D01*
X135606785Y-101311285D01*
X135416309Y-101358904D01*
X135273452Y-101358904D01*
X135082976Y-101311285D01*
X134987738Y-101263666D01*
X134892500Y-101168428D01*
X134844880Y-101025571D01*
X134844880Y-100930333D01*
X134892500Y-100787476D01*
X134940119Y-100739857D01*
X135844880Y-99787476D02*
X135844880Y-100358904D01*
X135844880Y-100073190D02*
X134844880Y-100073190D01*
X134987738Y-100168428D01*
X135082976Y-100263666D01*
X135130595Y-100358904D01*
X134940119Y-99406523D02*
X134892500Y-99358904D01*
X134844880Y-99263666D01*
X134844880Y-99025571D01*
X134892500Y-98930333D01*
X134940119Y-98882714D01*
X135035357Y-98835095D01*
X135130595Y-98835095D01*
X135273452Y-98882714D01*
X135844880Y-99454142D01*
X135844880Y-98835095D01*
G04 #@! TO.C,C13*
X133849642Y-100549857D02*
X133897261Y-100597476D01*
X133944880Y-100740333D01*
X133944880Y-100835571D01*
X133897261Y-100978428D01*
X133802023Y-101073666D01*
X133706785Y-101121285D01*
X133516309Y-101168904D01*
X133373452Y-101168904D01*
X133182976Y-101121285D01*
X133087738Y-101073666D01*
X132992500Y-100978428D01*
X132944880Y-100835571D01*
X132944880Y-100740333D01*
X132992500Y-100597476D01*
X133040119Y-100549857D01*
X133944880Y-99597476D02*
X133944880Y-100168904D01*
X133944880Y-99883190D02*
X132944880Y-99883190D01*
X133087738Y-99978428D01*
X133182976Y-100073666D01*
X133230595Y-100168904D01*
X132944880Y-99264142D02*
X132944880Y-98645095D01*
X133325833Y-98978428D01*
X133325833Y-98835571D01*
X133373452Y-98740333D01*
X133421071Y-98692714D01*
X133516309Y-98645095D01*
X133754404Y-98645095D01*
X133849642Y-98692714D01*
X133897261Y-98740333D01*
X133944880Y-98835571D01*
X133944880Y-99121285D01*
X133897261Y-99216523D01*
X133849642Y-99264142D01*
G04 #@! TO.C,R8*
X125935833Y-102559380D02*
X125602500Y-102083190D01*
X125364404Y-102559380D02*
X125364404Y-101559380D01*
X125745357Y-101559380D01*
X125840595Y-101607000D01*
X125888214Y-101654619D01*
X125935833Y-101749857D01*
X125935833Y-101892714D01*
X125888214Y-101987952D01*
X125840595Y-102035571D01*
X125745357Y-102083190D01*
X125364404Y-102083190D01*
X126507261Y-101987952D02*
X126412023Y-101940333D01*
X126364404Y-101892714D01*
X126316785Y-101797476D01*
X126316785Y-101749857D01*
X126364404Y-101654619D01*
X126412023Y-101607000D01*
X126507261Y-101559380D01*
X126697738Y-101559380D01*
X126792976Y-101607000D01*
X126840595Y-101654619D01*
X126888214Y-101749857D01*
X126888214Y-101797476D01*
X126840595Y-101892714D01*
X126792976Y-101940333D01*
X126697738Y-101987952D01*
X126507261Y-101987952D01*
X126412023Y-102035571D01*
X126364404Y-102083190D01*
X126316785Y-102178428D01*
X126316785Y-102368904D01*
X126364404Y-102464142D01*
X126412023Y-102511761D01*
X126507261Y-102559380D01*
X126697738Y-102559380D01*
X126792976Y-102511761D01*
X126840595Y-102464142D01*
X126888214Y-102368904D01*
X126888214Y-102178428D01*
X126840595Y-102083190D01*
X126792976Y-102035571D01*
X126697738Y-101987952D01*
G04 #@! TO.C,R11*
X125759642Y-107919380D02*
X125426309Y-107443190D01*
X125188214Y-107919380D02*
X125188214Y-106919380D01*
X125569166Y-106919380D01*
X125664404Y-106967000D01*
X125712023Y-107014619D01*
X125759642Y-107109857D01*
X125759642Y-107252714D01*
X125712023Y-107347952D01*
X125664404Y-107395571D01*
X125569166Y-107443190D01*
X125188214Y-107443190D01*
X126712023Y-107919380D02*
X126140595Y-107919380D01*
X126426309Y-107919380D02*
X126426309Y-106919380D01*
X126331071Y-107062238D01*
X126235833Y-107157476D01*
X126140595Y-107205095D01*
X127664404Y-107919380D02*
X127092976Y-107919380D01*
X127378690Y-107919380D02*
X127378690Y-106919380D01*
X127283452Y-107062238D01*
X127188214Y-107157476D01*
X127092976Y-107205095D01*
G04 #@! TO.C,Y1*
X116437550Y-117584899D02*
X116437550Y-118061089D01*
X116104217Y-117061089D02*
X116437550Y-117584899D01*
X116770883Y-117061089D01*
X117628026Y-118061089D02*
X117056598Y-118061089D01*
X117342312Y-118061089D02*
X117342312Y-117061089D01*
X117247074Y-117203947D01*
X117151836Y-117299185D01*
X117056598Y-117346804D01*
G04 #@! TO.C,U2*
X119440595Y-106259380D02*
X119440595Y-107068904D01*
X119488214Y-107164142D01*
X119535833Y-107211761D01*
X119631071Y-107259380D01*
X119821547Y-107259380D01*
X119916785Y-107211761D01*
X119964404Y-107164142D01*
X120012023Y-107068904D01*
X120012023Y-106259380D01*
X120440595Y-106354619D02*
X120488214Y-106307000D01*
X120583452Y-106259380D01*
X120821547Y-106259380D01*
X120916785Y-106307000D01*
X120964404Y-106354619D01*
X121012023Y-106449857D01*
X121012023Y-106545095D01*
X120964404Y-106687952D01*
X120392976Y-107259380D01*
X121012023Y-107259380D01*
G04 #@! TO.C,TP1*
X130720595Y-106969380D02*
X131292023Y-106969380D01*
X131006309Y-107969380D02*
X131006309Y-106969380D01*
X131625357Y-107969380D02*
X131625357Y-106969380D01*
X132006309Y-106969380D01*
X132101547Y-107017000D01*
X132149166Y-107064619D01*
X132196785Y-107159857D01*
X132196785Y-107302714D01*
X132149166Y-107397952D01*
X132101547Y-107445571D01*
X132006309Y-107493190D01*
X131625357Y-107493190D01*
X133149166Y-107969380D02*
X132577738Y-107969380D01*
X132863452Y-107969380D02*
X132863452Y-106969380D01*
X132768214Y-107112238D01*
X132672976Y-107207476D01*
X132577738Y-107255095D01*
G04 #@! TO.C,TP2*
X130660595Y-105149380D02*
X131232023Y-105149380D01*
X130946309Y-106149380D02*
X130946309Y-105149380D01*
X131565357Y-106149380D02*
X131565357Y-105149380D01*
X131946309Y-105149380D01*
X132041547Y-105197000D01*
X132089166Y-105244619D01*
X132136785Y-105339857D01*
X132136785Y-105482714D01*
X132089166Y-105577952D01*
X132041547Y-105625571D01*
X131946309Y-105673190D01*
X131565357Y-105673190D01*
X132517738Y-105244619D02*
X132565357Y-105197000D01*
X132660595Y-105149380D01*
X132898690Y-105149380D01*
X132993928Y-105197000D01*
X133041547Y-105244619D01*
X133089166Y-105339857D01*
X133089166Y-105435095D01*
X133041547Y-105577952D01*
X132470119Y-106149380D01*
X133089166Y-106149380D01*
G04 #@! TO.C,TP3*
X128660595Y-101499380D02*
X129232023Y-101499380D01*
X128946309Y-102499380D02*
X128946309Y-101499380D01*
X129565357Y-102499380D02*
X129565357Y-101499380D01*
X129946309Y-101499380D01*
X130041547Y-101547000D01*
X130089166Y-101594619D01*
X130136785Y-101689857D01*
X130136785Y-101832714D01*
X130089166Y-101927952D01*
X130041547Y-101975571D01*
X129946309Y-102023190D01*
X129565357Y-102023190D01*
X130470119Y-101499380D02*
X131089166Y-101499380D01*
X130755833Y-101880333D01*
X130898690Y-101880333D01*
X130993928Y-101927952D01*
X131041547Y-101975571D01*
X131089166Y-102070809D01*
X131089166Y-102308904D01*
X131041547Y-102404142D01*
X130993928Y-102451761D01*
X130898690Y-102499380D01*
X130612976Y-102499380D01*
X130517738Y-102451761D01*
X130470119Y-102404142D01*
G04 #@! TO.C,U1*
X136574880Y-104758904D02*
X137384404Y-104758904D01*
X137479642Y-104711285D01*
X137527261Y-104663666D01*
X137574880Y-104568428D01*
X137574880Y-104377952D01*
X137527261Y-104282714D01*
X137479642Y-104235095D01*
X137384404Y-104187476D01*
X136574880Y-104187476D01*
X137574880Y-103187476D02*
X137574880Y-103758904D01*
X137574880Y-103473190D02*
X136574880Y-103473190D01*
X136717738Y-103568428D01*
X136812976Y-103663666D01*
X136860595Y-103758904D01*
G04 #@! TO.C,C1*
X185975833Y-103764142D02*
X185928214Y-103811761D01*
X185785357Y-103859380D01*
X185690119Y-103859380D01*
X185547261Y-103811761D01*
X185452023Y-103716523D01*
X185404404Y-103621285D01*
X185356785Y-103430809D01*
X185356785Y-103287952D01*
X185404404Y-103097476D01*
X185452023Y-103002238D01*
X185547261Y-102907000D01*
X185690119Y-102859380D01*
X185785357Y-102859380D01*
X185928214Y-102907000D01*
X185975833Y-102954619D01*
X186928214Y-103859380D02*
X186356785Y-103859380D01*
X186642500Y-103859380D02*
X186642500Y-102859380D01*
X186547261Y-103002238D01*
X186452023Y-103097476D01*
X186356785Y-103145095D01*
G04 #@! TO.C,R12*
X190474880Y-119579857D02*
X189998690Y-119913190D01*
X190474880Y-120151285D02*
X189474880Y-120151285D01*
X189474880Y-119770333D01*
X189522500Y-119675095D01*
X189570119Y-119627476D01*
X189665357Y-119579857D01*
X189808214Y-119579857D01*
X189903452Y-119627476D01*
X189951071Y-119675095D01*
X189998690Y-119770333D01*
X189998690Y-120151285D01*
X190474880Y-118627476D02*
X190474880Y-119198904D01*
X190474880Y-118913190D02*
X189474880Y-118913190D01*
X189617738Y-119008428D01*
X189712976Y-119103666D01*
X189760595Y-119198904D01*
X189570119Y-118246523D02*
X189522500Y-118198904D01*
X189474880Y-118103666D01*
X189474880Y-117865571D01*
X189522500Y-117770333D01*
X189570119Y-117722714D01*
X189665357Y-117675095D01*
X189760595Y-117675095D01*
X189903452Y-117722714D01*
X190474880Y-118294142D01*
X190474880Y-117675095D01*
G04 #@! TO.C,R7*
X194764880Y-119593666D02*
X194288690Y-119927000D01*
X194764880Y-120165095D02*
X193764880Y-120165095D01*
X193764880Y-119784142D01*
X193812500Y-119688904D01*
X193860119Y-119641285D01*
X193955357Y-119593666D01*
X194098214Y-119593666D01*
X194193452Y-119641285D01*
X194241071Y-119688904D01*
X194288690Y-119784142D01*
X194288690Y-120165095D01*
X193764880Y-119260333D02*
X193764880Y-118593666D01*
X194764880Y-119022238D01*
G04 #@! TO.C,R6*
X174043411Y-109555375D02*
X173567221Y-109888709D01*
X174043411Y-110126804D02*
X173043411Y-110126804D01*
X173043411Y-109745851D01*
X173091031Y-109650613D01*
X173138650Y-109602994D01*
X173233888Y-109555375D01*
X173376745Y-109555375D01*
X173471983Y-109602994D01*
X173519602Y-109650613D01*
X173567221Y-109745851D01*
X173567221Y-110126804D01*
X173043411Y-108698232D02*
X173043411Y-108888709D01*
X173091031Y-108983947D01*
X173138650Y-109031566D01*
X173281507Y-109126804D01*
X173471983Y-109174423D01*
X173852935Y-109174423D01*
X173948173Y-109126804D01*
X173995792Y-109079185D01*
X174043411Y-108983947D01*
X174043411Y-108793470D01*
X173995792Y-108698232D01*
X173948173Y-108650613D01*
X173852935Y-108602994D01*
X173614840Y-108602994D01*
X173519602Y-108650613D01*
X173471983Y-108698232D01*
X173424364Y-108793470D01*
X173424364Y-108983947D01*
X173471983Y-109079185D01*
X173519602Y-109126804D01*
X173614840Y-109174423D01*
G04 #@! TO.C,R5*
X176580149Y-109555375D02*
X176103959Y-109888709D01*
X176580149Y-110126804D02*
X175580149Y-110126804D01*
X175580149Y-109745851D01*
X175627769Y-109650613D01*
X175675388Y-109602994D01*
X175770626Y-109555375D01*
X175913483Y-109555375D01*
X176008721Y-109602994D01*
X176056340Y-109650613D01*
X176103959Y-109745851D01*
X176103959Y-110126804D01*
X175580149Y-108650613D02*
X175580149Y-109126804D01*
X176056340Y-109174423D01*
X176008721Y-109126804D01*
X175961102Y-109031566D01*
X175961102Y-108793470D01*
X176008721Y-108698232D01*
X176056340Y-108650613D01*
X176151578Y-108602994D01*
X176389673Y-108602994D01*
X176484911Y-108650613D01*
X176532530Y-108698232D01*
X176580149Y-108793470D01*
X176580149Y-109031566D01*
X176532530Y-109126804D01*
X176484911Y-109174423D01*
G04 #@! TO.C,R4*
X181653621Y-109555375D02*
X181177431Y-109888709D01*
X181653621Y-110126804D02*
X180653621Y-110126804D01*
X180653621Y-109745851D01*
X180701241Y-109650613D01*
X180748860Y-109602994D01*
X180844098Y-109555375D01*
X180986955Y-109555375D01*
X181082193Y-109602994D01*
X181129812Y-109650613D01*
X181177431Y-109745851D01*
X181177431Y-110126804D01*
X180986955Y-108698232D02*
X181653621Y-108698232D01*
X180606002Y-108936328D02*
X181320288Y-109174423D01*
X181320288Y-108555375D01*
G04 #@! TO.C,R3*
X179116885Y-109555375D02*
X178640695Y-109888709D01*
X179116885Y-110126804D02*
X178116885Y-110126804D01*
X178116885Y-109745851D01*
X178164505Y-109650613D01*
X178212124Y-109602994D01*
X178307362Y-109555375D01*
X178450219Y-109555375D01*
X178545457Y-109602994D01*
X178593076Y-109650613D01*
X178640695Y-109745851D01*
X178640695Y-110126804D01*
X178116885Y-109222042D02*
X178116885Y-108602994D01*
X178497838Y-108936328D01*
X178497838Y-108793470D01*
X178545457Y-108698232D01*
X178593076Y-108650613D01*
X178688314Y-108602994D01*
X178926409Y-108602994D01*
X179021647Y-108650613D01*
X179069266Y-108698232D01*
X179116885Y-108793470D01*
X179116885Y-109079185D01*
X179069266Y-109174423D01*
X179021647Y-109222042D01*
G04 #@! TO.C,R2*
X197154880Y-119713666D02*
X196678690Y-120047000D01*
X197154880Y-120285095D02*
X196154880Y-120285095D01*
X196154880Y-119904142D01*
X196202500Y-119808904D01*
X196250119Y-119761285D01*
X196345357Y-119713666D01*
X196488214Y-119713666D01*
X196583452Y-119761285D01*
X196631071Y-119808904D01*
X196678690Y-119904142D01*
X196678690Y-120285095D01*
X196250119Y-119332714D02*
X196202500Y-119285095D01*
X196154880Y-119189857D01*
X196154880Y-118951761D01*
X196202500Y-118856523D01*
X196250119Y-118808904D01*
X196345357Y-118761285D01*
X196440595Y-118761285D01*
X196583452Y-118808904D01*
X197154880Y-119380333D01*
X197154880Y-118761285D01*
G04 #@! TO.C,R1*
X192504880Y-119503666D02*
X192028690Y-119837000D01*
X192504880Y-120075095D02*
X191504880Y-120075095D01*
X191504880Y-119694142D01*
X191552500Y-119598904D01*
X191600119Y-119551285D01*
X191695357Y-119503666D01*
X191838214Y-119503666D01*
X191933452Y-119551285D01*
X191981071Y-119598904D01*
X192028690Y-119694142D01*
X192028690Y-120075095D01*
X192504880Y-118551285D02*
X192504880Y-119122714D01*
X192504880Y-118837000D02*
X191504880Y-118837000D01*
X191647738Y-118932238D01*
X191742976Y-119027476D01*
X191790595Y-119122714D01*
G04 #@! TO.C,J2*
X188279166Y-96409380D02*
X188279166Y-97123666D01*
X188231547Y-97266523D01*
X188136309Y-97361761D01*
X187993452Y-97409380D01*
X187898214Y-97409380D01*
X188707738Y-96504619D02*
X188755357Y-96457000D01*
X188850595Y-96409380D01*
X189088690Y-96409380D01*
X189183928Y-96457000D01*
X189231547Y-96504619D01*
X189279166Y-96599857D01*
X189279166Y-96695095D01*
X189231547Y-96837952D01*
X188660119Y-97409380D01*
X189279166Y-97409380D01*
G04 #@! TO.C,C2*
X121184833Y-93202642D02*
X121137214Y-93250261D01*
X120994357Y-93297880D01*
X120899119Y-93297880D01*
X120756261Y-93250261D01*
X120661023Y-93155023D01*
X120613404Y-93059785D01*
X120565785Y-92869309D01*
X120565785Y-92726452D01*
X120613404Y-92535976D01*
X120661023Y-92440738D01*
X120756261Y-92345500D01*
X120899119Y-92297880D01*
X120994357Y-92297880D01*
X121137214Y-92345500D01*
X121184833Y-92393119D01*
X121565785Y-92393119D02*
X121613404Y-92345500D01*
X121708642Y-92297880D01*
X121946738Y-92297880D01*
X122041976Y-92345500D01*
X122089595Y-92393119D01*
X122137214Y-92488357D01*
X122137214Y-92583595D01*
X122089595Y-92726452D01*
X121518166Y-93297880D01*
X122137214Y-93297880D01*
G04 #@! TO.C,C3*
X121184833Y-94436356D02*
X121137214Y-94483975D01*
X120994357Y-94531594D01*
X120899119Y-94531594D01*
X120756261Y-94483975D01*
X120661023Y-94388737D01*
X120613404Y-94293499D01*
X120565785Y-94103023D01*
X120565785Y-93960166D01*
X120613404Y-93769690D01*
X120661023Y-93674452D01*
X120756261Y-93579214D01*
X120899119Y-93531594D01*
X120994357Y-93531594D01*
X121137214Y-93579214D01*
X121184833Y-93626833D01*
X121518166Y-93531594D02*
X122137214Y-93531594D01*
X121803880Y-93912547D01*
X121946738Y-93912547D01*
X122041976Y-93960166D01*
X122089595Y-94007785D01*
X122137214Y-94103023D01*
X122137214Y-94341118D01*
X122089595Y-94436356D01*
X122041976Y-94483975D01*
X121946738Y-94531594D01*
X121661023Y-94531594D01*
X121565785Y-94483975D01*
X121518166Y-94436356D01*
G04 #@! TO.C,C4*
X121184833Y-100604926D02*
X121137214Y-100652545D01*
X120994357Y-100700164D01*
X120899119Y-100700164D01*
X120756261Y-100652545D01*
X120661023Y-100557307D01*
X120613404Y-100462069D01*
X120565785Y-100271593D01*
X120565785Y-100128736D01*
X120613404Y-99938260D01*
X120661023Y-99843022D01*
X120756261Y-99747784D01*
X120899119Y-99700164D01*
X120994357Y-99700164D01*
X121137214Y-99747784D01*
X121184833Y-99795403D01*
X122041976Y-100033498D02*
X122041976Y-100700164D01*
X121803880Y-99652545D02*
X121565785Y-100366831D01*
X122184833Y-100366831D01*
G04 #@! TO.C,C5*
X121184833Y-101838642D02*
X121137214Y-101886261D01*
X120994357Y-101933880D01*
X120899119Y-101933880D01*
X120756261Y-101886261D01*
X120661023Y-101791023D01*
X120613404Y-101695785D01*
X120565785Y-101505309D01*
X120565785Y-101362452D01*
X120613404Y-101171976D01*
X120661023Y-101076738D01*
X120756261Y-100981500D01*
X120899119Y-100933880D01*
X120994357Y-100933880D01*
X121137214Y-100981500D01*
X121184833Y-101029119D01*
X122089595Y-100933880D02*
X121613404Y-100933880D01*
X121565785Y-101410071D01*
X121613404Y-101362452D01*
X121708642Y-101314833D01*
X121946738Y-101314833D01*
X122041976Y-101362452D01*
X122089595Y-101410071D01*
X122137214Y-101505309D01*
X122137214Y-101743404D01*
X122089595Y-101838642D01*
X122041976Y-101886261D01*
X121946738Y-101933880D01*
X121708642Y-101933880D01*
X121613404Y-101886261D01*
X121565785Y-101838642D01*
G04 #@! TO.C,C6*
X121184833Y-99371212D02*
X121137214Y-99418831D01*
X120994357Y-99466450D01*
X120899119Y-99466450D01*
X120756261Y-99418831D01*
X120661023Y-99323593D01*
X120613404Y-99228355D01*
X120565785Y-99037879D01*
X120565785Y-98895022D01*
X120613404Y-98704546D01*
X120661023Y-98609308D01*
X120756261Y-98514070D01*
X120899119Y-98466450D01*
X120994357Y-98466450D01*
X121137214Y-98514070D01*
X121184833Y-98561689D01*
X122041976Y-98466450D02*
X121851500Y-98466450D01*
X121756261Y-98514070D01*
X121708642Y-98561689D01*
X121613404Y-98704546D01*
X121565785Y-98895022D01*
X121565785Y-99275974D01*
X121613404Y-99371212D01*
X121661023Y-99418831D01*
X121756261Y-99466450D01*
X121946738Y-99466450D01*
X122041976Y-99418831D01*
X122089595Y-99371212D01*
X122137214Y-99275974D01*
X122137214Y-99037879D01*
X122089595Y-98942641D01*
X122041976Y-98895022D01*
X121946738Y-98847403D01*
X121756261Y-98847403D01*
X121661023Y-98895022D01*
X121613404Y-98942641D01*
X121565785Y-99037879D01*
G04 #@! TO.C,C7*
X121184833Y-98137498D02*
X121137214Y-98185117D01*
X120994357Y-98232736D01*
X120899119Y-98232736D01*
X120756261Y-98185117D01*
X120661023Y-98089879D01*
X120613404Y-97994641D01*
X120565785Y-97804165D01*
X120565785Y-97661308D01*
X120613404Y-97470832D01*
X120661023Y-97375594D01*
X120756261Y-97280356D01*
X120899119Y-97232736D01*
X120994357Y-97232736D01*
X121137214Y-97280356D01*
X121184833Y-97327975D01*
X121518166Y-97232736D02*
X122184833Y-97232736D01*
X121756261Y-98232736D01*
G04 #@! TO.C,C8*
X121184833Y-96903784D02*
X121137214Y-96951403D01*
X120994357Y-96999022D01*
X120899119Y-96999022D01*
X120756261Y-96951403D01*
X120661023Y-96856165D01*
X120613404Y-96760927D01*
X120565785Y-96570451D01*
X120565785Y-96427594D01*
X120613404Y-96237118D01*
X120661023Y-96141880D01*
X120756261Y-96046642D01*
X120899119Y-95999022D01*
X120994357Y-95999022D01*
X121137214Y-96046642D01*
X121184833Y-96094261D01*
X121756261Y-96427594D02*
X121661023Y-96379975D01*
X121613404Y-96332356D01*
X121565785Y-96237118D01*
X121565785Y-96189499D01*
X121613404Y-96094261D01*
X121661023Y-96046642D01*
X121756261Y-95999022D01*
X121946738Y-95999022D01*
X122041976Y-96046642D01*
X122089595Y-96094261D01*
X122137214Y-96189499D01*
X122137214Y-96237118D01*
X122089595Y-96332356D01*
X122041976Y-96379975D01*
X121946738Y-96427594D01*
X121756261Y-96427594D01*
X121661023Y-96475213D01*
X121613404Y-96522832D01*
X121565785Y-96618070D01*
X121565785Y-96808546D01*
X121613404Y-96903784D01*
X121661023Y-96951403D01*
X121756261Y-96999022D01*
X121946738Y-96999022D01*
X122041976Y-96951403D01*
X122089595Y-96903784D01*
X122137214Y-96808546D01*
X122137214Y-96618070D01*
X122089595Y-96522832D01*
X122041976Y-96475213D01*
X121946738Y-96427594D01*
G04 #@! TO.C,C9*
X121184833Y-95670070D02*
X121137214Y-95717689D01*
X120994357Y-95765308D01*
X120899119Y-95765308D01*
X120756261Y-95717689D01*
X120661023Y-95622451D01*
X120613404Y-95527213D01*
X120565785Y-95336737D01*
X120565785Y-95193880D01*
X120613404Y-95003404D01*
X120661023Y-94908166D01*
X120756261Y-94812928D01*
X120899119Y-94765308D01*
X120994357Y-94765308D01*
X121137214Y-94812928D01*
X121184833Y-94860547D01*
X121661023Y-95765308D02*
X121851500Y-95765308D01*
X121946738Y-95717689D01*
X121994357Y-95670070D01*
X122089595Y-95527213D01*
X122137214Y-95336737D01*
X122137214Y-94955785D01*
X122089595Y-94860547D01*
X122041976Y-94812928D01*
X121946738Y-94765308D01*
X121756261Y-94765308D01*
X121661023Y-94812928D01*
X121613404Y-94860547D01*
X121565785Y-94955785D01*
X121565785Y-95193880D01*
X121613404Y-95289118D01*
X121661023Y-95336737D01*
X121756261Y-95384356D01*
X121946738Y-95384356D01*
X122041976Y-95336737D01*
X122089595Y-95289118D01*
X122137214Y-95193880D01*
G04 #@! TD*
M02*
